<svg><defs><font horiz-adv-x="1176"><font-face font-family="Arvo" font-weight="400" units-per-em="2048" panose-1="2 6 6 3 4 2 2 9 3 4" ascent="1638" descent="-410" x-height="1036" cap-height="1516" bbox="-258.001 -506.001 2550 2079" underline-thickness="50" underline-position="-50" unicode-range="U+0020-U+FB02"/><glyph glyph-name=".notdef" horiz-adv-x="1024" d="M102 0v1092h820V0H102zm102 102h616v888H204V102z"/><glyph glyph-name="space" horiz-adv-x="449"/><glyph glyph-name="exclam" unicode="!" horiz-adv-x="682" d="M211 121c0 17.333 3.5 33.833 10.5 49.5s16.333 29.334 28 41 25.5 21 41.5 28 33 10.5 51 10.5c17.333 0 33.833-3.5 49.5-10.5s29.334-16.332 41-28 21-25.333 28-41S471 138.333 471 121c0-18-3.5-35-10.5-51s-16.332-30.167-28-42.5-25.333-22-41-29S359.333-12 342-12c-18 0-35 3.5-51 10.5s-29.833 16.667-41.5 29-21 26.5-28 42.5-10.5 33-10.5 51zm0 1456h260L430 410H252z"/><glyph glyph-name="quotedbl" unicode="&quot;" horiz-adv-x="651" d="M251 1059H82l-41 518h228zm337 0H419l-14 518h230z"/><glyph glyph-name="numbersign" unicode="#" horiz-adv-x="1423" d="M170 1198h252l63 318h191l-62-318h351l63 318h191l-62-318h225l-39-199h-225l-81-415h239l-37-195H999L924 0H731l76 389H456L381 0H184l77 389H20l41 195h239l82 415H129zm324-614h351l81 415H575z"/><glyph glyph-name="dollar" unicode="$" horiz-adv-x="1210" d="M516-186l.005 322c-66 10.666-118.167 31-156.5 61s-68.5 65.332-90.5 106h-119v172h251v-11l2 1c0-54 18.667-95.168 56-123.5s92.666-42.5 166-42.5c66.666 0 119.5 13 158.5 39s58.5 63 58.5 111c0 24.666-6.5 45.333-19.5 62s-29.334 30.5-49 41.5-41.5 19.833-65.5 26.5l-69 19-176 47c-38 10-73 23.167-105 39.5s-59.5 36.5-82.5 60.5-40.834 52.333-53.5 85-19 70.667-19 114c0 38.667 7 74.5 21 107.5s34.332 62.167 61 87.5 59.5 46.333 98.5 63 83.166 28.667 132.5 36v341h197v-342c56.666-10 105.666-28 147-54s74.665-57 99.998-93h101V918h-209l-23-3v3h-2v22c-6.667 43.333-28.334 78.333-65 105s-85.335 40-146.002 40c-72.666 0-128-11.833-166-35.5s-57-56.167-57-97.5c0-28 6.168-50.333 18.5-67s27.834-30.167 46.5-40.5 39.168-18.333 61.5-24S563.335 809 584 803l174-53c44-13.333 83.5-28.5 118.5-45.5S941 667.667 965 645s42.5-49.167 55.5-79.5S1040 499.667 1040 459c0-41.333-7.832-79.833-23.5-115.5S978.668 276 950 248s-63.167-51.667-103.5-71-84.833-33-133.5-41v-322H516z"/><glyph glyph-name="percent" unicode="%" horiz-adv-x="1731" d="M75 1167c0 44.667 8.333 87.167 25 127.5s40.167 75.666 70.5 106 66.5 54.332 108.5 72 88 26.5 138 26.5 96-8.834 138-26.5 78-41.668 108-72 53.5-65.667 70.5-106S759 1211.667 759 1167c0-45.333-8.167-88-24.5-128S695 963.667 665 933s-66-54.834-108-72.5S468.333 834 417 834c-52 0-99 8.832-141 26.5s-77.833 41.833-107.5 72.5-52.667 66-69 106S75 1121.667 75 1167zm342 168c-24 0-46.5-4.167-67.5-12.5s-39.333-20-55-35-28-32.833-37-53.5-13.5-43-13.5-67c0-23.333 4.5-45.5 13.5-66.5s21.333-39.333 37-55 34-28 55-37S393 995 417 995c23.333 0 45.333 4.5 66 13.5s38.667 21.167 54 36.5 27.5 33.5 36.5 54.5S587 1143 587 1167s-4.5 46.333-13.5 67-21.167 38.5-36.5 53.5-33.333 26.667-54 35-42.667 12.5-66 12.5zm835 205h195L406-16H212zM941 323c0 44.667 8.333 87 25 127s40.167 75.167 70.5 105.5S1103 610 1145 628s88 27 138 27 96-9 138-27 78.167-42.167 108.5-72.5S1583.333 490 1600 450s25-82.333 25-127c0-45.333-8.167-88.166-24.5-128.5s-39.333-75.665-69-105.998-65.5-54.5-107.5-72.5-89-27-141-27-99 9-141 27-77.833 42.167-107.5 72.5-52.667 65.666-69 106S941 277.666 941 323zm342 168c-23.333 0-45.5-4.333-66.5-13s-39.333-20.5-55-35.5-28-32.667-37-53S1111 347 1111 323c0-23.333 4.5-45.5 13.5-66.5s21.333-39.333 37-55 34-28 55-37 43.167-13.5 66.5-13.5 45.333 4.5 66 13.5 38.667 21.167 54 36.5 27.5 33.5 36.5 54.5S1453 299 1453 323s-4.5 46.167-13.5 66.5-21.167 38-36.5 53-33.333 26.833-54 35.5-42.667 13-66 13z"/><glyph glyph-name="ampersand" unicode="&" horiz-adv-x="1468" d="M1288-6l-236.003 228.004c-28-34.667-58.333-66.334-91-95s-67.5-53.5-104.5-74.5-76.333-37.334-118-49-85.834-17.5-132.5-17.5c-64.668 0-125.168 11.332-181.5 34s-105.334 53.666-147 93-74.5 85.832-98.5 139.5-36 111.5-36 173.5c0 40.666 6.166 80.166 18.5 118.5s29.332 74.165 51 107.498 47 63.333 76 90 74.166 55.667 135.5 87l-66 64c-17.334 16-34.167 34.333-50.5 55s-30.666 43-43 67-22.332 49-30 75-11.5 51.667-11.5 77c0 53.333 10.334 103 31 149s48.835 86 84.502 120 77.5 60.833 125.5 80.5 99.332 29.5 154 29.5c58 0 111.832-10.333 161.5-31s92.5-48.334 128.5-83 64.332-75 85-121 31-94 31-144c0-40-4-75.168-12-105.5s-19.334-57.5-34-81.5-32.168-45.834-52.5-65.5-42-37.835-65-54.502-46.5-31.834-70.5-45.5-48.668-26.835-74-39.502l306-285c21.332 48.667 38.5 96.834 51.5 144.5S1096.665 725.334 1104 764h188c-11.334-62.667-28.667-127.667-52-195s-53-133.333-89-198l276-256zM472.997 666.004c-22.667-9.333-43.17-22.17-61.504-38.502s-34.166-35-47.5-56-23.665-43.667-30.998-68-11-48.833-11-73.5c0-38.667 7.5-74.5 22.5-107.5s35.667-61.5 62-85.5 57.333-42.833 93-56.5 73.834-20.5 114.5-20.5c34.668 0 67.335 4.333 98.002 13s59.334 20.834 86 36.5 51.168 34.335 73.5 56.002 43.167 45.167 62.5 70.5l-380 367zM783.993 1026c17.333 18.667 32 40.167 44 64.5s18 49.833 18 76.5c0 28-6.166 55-18.5 81s-28.832 49-49.5 69-44.833 35.833-72.5 47.5-56.834 17.5-87.5 17.5c-33.334 0-63.5-5.5-90.5-16.5s-50.168-26.167-69.5-45.5-34.334-41.833-45-67.5-16-53.5-16-83.5c0-28 6.832-57.5 20.5-88.5s38.5-63.5 74.5-97.5l89-83c39.332 17.333 76.332 36 111 56s65.333 43.333 92 70z"/><glyph glyph-name="quotesingle" unicode="'" horiz-adv-x="340" d="M186 1059H37v518l197 16z"/><glyph glyph-name="parenleft" unicode="(" horiz-adv-x="721" d="M530-451c-60 74.667-114 153.168-162 235.5s-88.833 167.334-122.5 255S186 217.17 168 309.5 141 495.335 141 590s9 188.168 27 280.5 43.833 182.167 77.5 269.5S320 1312.166 368 1394.5 470 1555.33 530 1630l138-110c-52.667-66.668-99.5-137-140.5-211S452 1158.665 424 1080s-49.333-159.168-64-241.5-22-165.167-22-248.5 7.333-166.166 22-248.5 36-163 64-242 62.5-155.332 103.5-229S615.333-273.332 668-340z"/><glyph glyph-name="parenright" unicode=")" horiz-adv-x="721" d="M53-340c52.667 66.667 99.5 136.833 140.5 210.5S269 20.5 297 99.5s49.333 159.667 64 242 22 165.166 22 248.5-7.333 166.165-22 248.498-36 162.833-64 241.5-62.5 155-103.5 229-87.833 144.333-140.5 211l137 110c60-74.667 114-153.167 162-235.5s89-167.166 123-254.5 60-177.165 78-269.498 27-185.833 27-280.5-9-188.167-27-280.5-44-182.333-78-270-75-172.667-123-255S250-376.333 190-451z"/><glyph glyph-name="asterisk" unicode="*" horiz-adv-x="836" d="M483 1295l248 81 37-119-249-80 157-214-109-72-149 206-148-204-108 70 155 212-258 82 39 125 252-82v246h133v-251z"/><glyph glyph-name="plus" unicode="+" horiz-adv-x="1311" d="M143 791h420v419h182V791h422V608H745V186H563v422H143v183z"/><glyph glyph-name="comma" unicode="," horiz-adv-x="569" d="M205 283l219-86-260-537-144 53z"/><glyph glyph-name="hyphen" unicode="-" horiz-adv-x="737" d="M94 496v172h551V496H94z"/><glyph glyph-name="period" unicode="." horiz-adv-x="457" d="M96 121c0 17.333 3.5 33.833 10.5 49.5s16.5 29.334 28.5 41 25.833 21 41.5 28S209 250 227 250c17.333 0 33.833-3.5 49.5-10.5s29.334-16.332 41-28 21-25.333 28-41S356 138.333 356 121c0-18-3.5-35-10.5-51s-16.332-30.167-28-42.5-25.333-22-41-29S244.333-12 227-12c-18 0-34.833 3.5-50.5 10.5S147 15.167 135 27.5 113.5 54 106.5 70 96 103 96 121z"/><glyph glyph-name="slash" unicode="/" horiz-adv-x="848" d="M637 1569h174L211-29H37z"/><glyph glyph-name="zero" unicode="0" horiz-adv-x="1329" d="M655-18C547-18 456.67 2 384.003 42s-130.834 95-174.5 165S134.667 359 116 453 88 648 88 756c0 115.332 12.668 223.165 38 323.498s59.334 180.833 102 241.5 96.5 112.334 161.5 155 154.168 64 267.5 64c107.334 0 196.667-17 268-51s130.166-86.166 176.5-156.5S1180.33 1177.334 1199 1078s28-204.666 28-316c0-108.666-9.334-210.333-28-305s-50.168-177.167-94.5-247.5S1001.332 83.667 928 43 763.667-18 655-18zm.003 178c78 0 140.832 15.832 188.5 47.5s83.666 74.833 108 129.5 42.5 118.5 54.5 191.5 18 150.833 18 233.5c0 79.333-4.668 155.5-14 228.5s-27.334 137.5-54 193.5-64 100.667-112 134-110.334 50-187 50c-79.334 0-142-16.667-188-50s-80.334-73.5-103-120.5-40.5-111.5-53.5-193.5-19.5-162.667-19.5-242c0-82.667 4.166-160.5 12.5-233.5s25.332-136.833 51-191.5 62.333-97.834 110-129.5 110.5-47.5 188.5-47.5z"/><glyph glyph-name="one" unicode="1" horiz-adv-x="858" d="M242 172h147v1109L82 1114v209l422 236h80V172h149V0H242v172z"/><glyph glyph-name="two" unicode="2" horiz-adv-x="1100" d="M88 147l533 644 56.5 69c19.666 24.668 38 50.668 55 78s31 55.834 42 85.5S791 1084 791 1116c0 33.334-6.668 64.667-20 94s-31.667 55-55 77-51.166 39.333-83.5 52-67.832 19-106.5 19c-34.666 0-67.5-5.5-98.5-16.5s-58.166-27.167-81.5-48.5-42.165-47.833-56.498-79.5-22.166-68.167-23.5-109.5h-180c.668 63.333 13 121.833 37 175.5s56.168 100 96.5 139 87.167 69.333 140.5 91 109.333 32.5 168 32.5c68 0 129.667-10.833 185-32.5s102.666-51.5 142-89.5 69.832-83 91.5-135 32.5-108.333 32.5-169c0-24-2.834-49.5-8.5-76.5s-15.335-56-29.002-87-31.667-64.167-54-99.5S837 779.667 803 739L330 176h647V0H88v147z"/><glyph glyph-name="three" unicode="3" horiz-adv-x="1110" d="M780 1120c0 26-5.505 53.834-16.505 83.5s-28 57-51 82-52 45.668-87 62-76.167 24.5-123.5 24.5c-39.333 0-75.166-6.832-107.5-20.5s-64.5-39.166-96.5-76.5-49.332-78.665-52-123.998h-190c3.334 58 17.834 110.333 43.5 157s58.168 87.667 97.5 123 85.334 63.333 138 84 107.668 31 165 31c71.334 0 136-11.833 194-35.5s107.5-55 148.5-94 72.668-83.5 95-133.5 33.5-101 33.5-153c0-32-4-64-12-96s-20.5-62.5-37.5-91.5-38.832-55.833-65.5-80.5-59-46.334-97-65c31.334-12 60.834-28.834 88.5-50.5S899.33 699 919.998 669s37-64 49-102 18-79.668 18-125c0-65.334-12.667-125.834-38-181.5S889.33 156.666 845.997 116 751.833 43.5 693.5 20.5 572.665-14 506-14c-61.334 0-122.167 10.833-182.5 32.5S212 71 170 111s-73 81.667-93 125-32 86.333-36 129h192c19.333-62 53.833-110.667 103.5-146s112.834-53 189.5-53c34.668 0 68.5 7 101.5 21s62.168 33.5 87.5 58.5 45.667 54.333 61 88S799 404 799 444c0 42-7.667 80-23 114s-36 62.833-62 86.5-56.167 42-90.5 55S552.667 719 514 719h-86v151h70c44 0 83.5 6.5 118.5 19.5S681 920.333 705 943s42.5 49.167 55.5 79.5 19.5 62.833 19.5 97.5z"/><glyph glyph-name="four" unicode="4" horiz-adv-x="1251" d="M92 596l539 920h213L331 610h388v250l196 14V610h226V438H915V172h150V0H573v172h146v266H90z"/><glyph glyph-name="five" unicode="5" horiz-adv-x="1139" d="M317 894c37.333 25.333 75.663 44.5 114.996 57.5s84.333 19.5 135 19.5c74.667 0 143.334-13.334 206-40s116.5-62.668 161.5-108 80-98.167 105-158.5 37.5-124.166 37.5-191.5c0-68-12.332-132.5-37-193.5S980.33 165 934.997 119s-99.832-82.5-163.5-109.5-134.5-40.5-212.5-40.5C499.665-31 444.332-23.165 393-7.5s-97.666 37.668-139 66S176.834 120.668 146.5 160 92 242.333 74 289l164 82c10.667-34 26.334-65.5 47-94.5s45-54 73-75 59-37.333 93-49S521 135 559 135c48 0 92.5 8.833 133.5 26.5s76.668 41.834 107 72.5 54.167 66.5 71.5 107.5 26 84.834 26 131.5c0 47.334-8.667 91.167-26 131.5s-41.333 75.333-72 105-66.5 53-107.5 70S606.333 805 559 805c-53.333 0-102.5-9.5-147.5-28.5S329 732 299 700l-147 23v793h854v-166H317V894z"/><glyph glyph-name="six" unicode="6" horiz-adv-x="1249" d="M815 1516L475.004 949.002c40.667 17.333 77.5 27.333 110.5 30s62.5 4 88.5 4c61.333 0 120.666-11.5 178-34.5s108.165-55.333 152.498-97 79.833-91.334 106.5-149 40-121.168 40-190.5c0-84.668-14.333-160-43-226s-67.334-121.668-116-167S886.833 39.167 822.5 15.5 690-20 618-20c-68 0-133.5 12.332-196.5 37S302.667 76.167 254 120.5 166.5 218.166 137.5 280.5 94 412 94 488c0 58.667 11.166 116.667 33.5 174S177.666 779.333 211 842l371 674h233zM596.004 819.002c-48 0-88.832-7.5-122.5-22.5s-65.5-36-95.5-63-53.666-61.334-71-103-26-89.835-26-144.502c0-52 8.668-98.667 26-140s41.334-76.166 72-104.5 66.835-50 108.502-65 86.834-22.5 135.5-22.5c45.334 0 88.667 8 130 24s77.666 38.668 109 68 56.332 64.334 75 105 28 85.668 28 135c0 54.668-10 102.835-30 144.502s-46.834 76.5-80.5 104.5-72.835 49-117.502 63-91.667 21-141 21z"/><glyph glyph-name="seven" unicode="7" horiz-adv-x="1077" d="M182 172h117c36 102.666 75.667 206.833 119 312.5L550 793l132 285.5L801 1323H233v-117H41v310h995v-150l-138-275.5L755.5 792 619 482c-44-104.667-84-208-120-310h126V0H182v172z"/><glyph glyph-name="eight" unicode="8" horiz-adv-x="1276" d="M631 1544c57.333 0 111.502-10.334 162.502-31s95.833-49 134.5-85 69.167-78.168 91.5-126.5 33.5-99.834 33.5-154.5c0-65.334-15.333-125.667-46-181s-71.667-101-123-137c34-20 65-43.833 93-71.5s52-58 72-91 35.5-68.5 46.5-106.5 16.5-77.333 16.5-118c0-63.333-12.833-122.666-38.5-178s-60.5-103.832-104.5-145.5-95.333-74.5-154-98.5-121.334-36-188-36c-67.334 0-130.667 12-190 36s-111 56.834-155 98.5-78.833 90.168-104.5 145.5-38.5 114.667-38.5 178c0 40.667 5.5 80.167 16.5 118.5s26.667 74 47 107 44.666 63.333 73 91S335.333 810 370 830c-50.668 36.667-90.835 82.5-120.502 137.5S205 1082.333 205 1147c0 54.667 11 106.167 33 154.5s52.167 90.5 90.5 126.5 83.5 64.333 135.5 85 107.667 31 167 31zM322.002 446c0-39.334 8-76.5 24-111.5s37.833-65.5 65.5-91.5 60-46.668 97-62 76.5-23 118.5-23c41.333 0 80.333 7.666 117 23s68.834 36 96.5 62 49.5 56.5 65.5 91.5 24 72.166 24 111.5c0 38.666-8 75.333-24 110s-37.832 65-65.5 91-59.833 46.5-96.5 61.5-75.667 22.5-117 22.5c-42 0-81.5-7.5-118.5-22.5s-69.333-35.5-97-61.5-49.5-56.333-65.5-91-24-71.334-24-110zm55 697c0-33.333 6.333-64.5 19-93.5s30.334-54.333 53-76 49.5-38.834 80.5-51.5 64.834-19 101.5-19c34 0 66 6.332 96 19s56.5 29.833 79.5 51.5 41.168 47 54.5 76 20 60.167 20 93.5c0 32.667-6.666 63.5-20 92.5s-31.5 54.333-54.5 76-49.5 38.834-79.5 51.5-62 19-96 19c-36.666 0-70.5-6.332-101.5-19s-57.832-29.833-80.5-51.5-40.333-47-53-76-19-59.833-19-92.5z"/><glyph glyph-name="nine" unicode="9" horiz-adv-x="1270" d="M430 0l348.995 572c-33.333-13.333-63.666-22.333-91-27s-56.665-7-87.998-7c-58.667 0-119.5 11.5-182.5 34.5s-116.667 55.333-161 97-81 93-110 154-43.5 122.833-43.5 185.5c0 84.667 14.333 160 43 226s67.334 121.667 116 167 105.168 79.833 169.5 103.5 132.5 35.5 204.5 35.5 139.168-12 201.5-36 117.834-58.5 166.5-103.5 86.835-98.667 114.502-161S1160 1109 1160 1033c0-58.667-11.168-116.667-33.5-174s-50.167-117.333-83.5-180L663 0H430zm200.995 1367c-45.333 0-88.667-8-130-24s-77.666-38.666-109-68-56.332-64.332-75-105-28-85.666-28-135c0-54.666 10-102.833 30-144.5s46.834-76.5 80.5-104.5 71.335-49 113.002-63 83.5-21 125.5-21c61.333 0 108.833 7.5 142.5 22.5s65.5 36 95.5 63 53.667 61.333 71 103 26 89.834 26 144.5c0 52-8.667 98.668-26 140s-41.333 76.167-72 104.5-66.834 50-108.5 65-86.835 22.5-135.502 22.5z"/><glyph glyph-name="colon" unicode=":" horiz-adv-x="524" d="M96 907c0 17.333 3.5 33.833 10.5 49.5s16.5 29.334 28.5 41 25.833 21 41.5 28S209 1036 227 1036c17.333 0 33.833-3.5 49.5-10.5s29.334-16.332 41-28 21-25.333 28-41S356 924.333 356 907c0-18-3.5-35-10.5-51s-16.332-30-28-42-25.333-21.667-41-29-32.167-11-49.5-11c-18 0-34.833 3.667-50.5 11S147 802 135 814s-21.5 26-28.5 42S96 889 96 907zm0-786c0 17.333 3.5 33.833 10.5 49.5s16.5 29.334 28.5 41 25.833 21 41.5 28S209 250 227 250c17.333 0 33.833-3.5 49.5-10.5s29.334-16.332 41-28 21-25.333 28-41S356 138.333 356 121c0-18-3.5-35-10.5-51s-16.332-30.167-28-42.5-25.333-22-41-29S244.333-12 227-12c-18 0-34.833 3.5-50.5 10.5S147 15.167 135 27.5 113.5 54 106.5 70 96 103 96 121z"/><glyph glyph-name="semicolon" unicode=";" horiz-adv-x="524" d="M96 907c0 17.333 3.5 33.833 10.5 49.5s16.5 29.334 28.5 41 25.833 21 41.5 28S209 1036 227 1036c17.333 0 33.833-3.5 49.5-10.5s29.334-16.332 41-28 21-25.333 28-41S356 924.333 356 907c0-18-3.5-35-10.5-51s-16.332-30-28-42-25.333-21.667-41-29-32.167-11-49.5-11c-18 0-34.833 3.667-50.5 11S147 802 135 814s-21.5 26-28.5 42S96 889 96 907zm68-624l219-86-260-537-143 53z"/><glyph glyph-name="less" unicode="<" horiz-adv-x="1001" d="M10 761l843 423V999L175 684l678-315V184L10 605v156z"/><glyph glyph-name="equal" unicode="=" horiz-adv-x="922" d="M86 446h750V305H86v141zm0 338h750V643H86v141z"/><glyph glyph-name="greater" unicode=">" horiz-adv-x="1147" d="M1007 605L164 184v185l678 315-678 315v185l843-423V605z"/><glyph glyph-name="question" unicode="?" horiz-adv-x="1065" d="M338 121c0 17.333 3.5 33.833 10.5 49.5s16.333 29.334 28 41 25.5 21 41.5 28 33 10.5 51 10.5c17.333 0 33.833-3.5 49.5-10.5s29.334-16.332 41-28 21-25.333 28-41S598 138.333 598 121c0-18-3.5-35-10.5-51s-16.332-30.167-28-42.5-25.333-22-41-29S486.333-12 469-12c-18 0-35 3.5-51 10.5s-29.833 16.667-41.5 29-21 26.5-28 42.5-10.5 33-10.5 51zm43 215c0 69.333 2.5 128.167 7.5 176.5s14.5 92.666 28.5 133S450.33 721 475 751s56.666 61.666 96 95c35.332 30 67.5 56 96.5 78s53.832 43.5 74.5 64.5 36.666 43.666 48 68 17 53.832 17 88.5c0 30-6 59-18 87s-28.168 52.832-48.5 74.5-44.334 39.166-72 52.5-57.168 20-88.5 20c-54 0-99-9.334-135-28s-65-41.168-87-67.5-37.668-54.167-47-83.5-14-54.333-14-75l-176 12c3.332 56 16.832 109 40.5 159s55.5 93.833 95.5 131.5 87.332 67.667 142 90 115 33.5 181 33.5c66.666 0 125.833-11 177.5-33s95.167-51.333 130.5-88 62-79.167 80-127.5 27-98.833 27-151.5c0-68-17.333-130.667-52-188s-86.334-110-155-158c-31.334-22-67.167-50.333-107.5-85s-69-77.5-86-128.5-26.833-93.667-29.5-128-4-76.833-4-127.5H381z"/><glyph glyph-name="at" unicode="@" horiz-adv-x="2310" d="M1589 956V292.996c0-40.667 5.833-71.334 17.5-92s25.5-35.835 41.5-45.502 36.333-14.5 61-14.5c49.333 0 90.333 13.5 123 40.5s58.667 59.5 78 97.5 32.833 77.167 40.5 117.5 11.5 90.5 11.5 150.5c0 68-9.667 133.833-29 197.5s-46.5 123.667-81.5 180-77.167 108-126.5 155-104.333 87.333-165 121-126 59.834-196 78.5-143 28-219 28c-75.333 0-147.833-9.666-217.5-29s-134.667-46.665-195-81.998-115.333-77.666-165-127-92-104.165-127-164.498-62.167-125.166-81.5-194.5-29-141.332-29-216c0-75.332 9.667-147.832 29-217.5S405.5 141.666 440.5 81s77.333-115.667 127-165 104.667-91.666 165-127 125.333-62.665 195-81.998 142.167-29 217.5-29c76.667 0 150.667 10.167 222 30.5s138 49.166 200 86.5l94-157c-75.333-46-156.5-81.5-243.5-106.5S1239.667-506 1145-506c-92 0-180.667 11.832-266 35.5S714-413.335 640-370s-141.5 95.5-202.5 156.5S324.333-85 281-11s-76.833 153.666-100.5 239S145 402 145 494c0 91.332 11.833 179.5 35.5 264.5S237.667 923 281 997s95.5 141.332 156.5 202S566 1311.665 640 1355s153.667 76.832 239 100.5 174 35.5 266 35.5c93.333 0 182.833-11.5 268.5-34.5S1579 1401.33 1653 1360s141.333-91 202-149 112.5-122 155.5-192 76.333-144.834 100-224.5S2146 632.33 2146 547c0-45.334-4.333-91-13-137s-21.667-90-39-132-38.5-81.334-63.5-118-54-68.5-87-95.5S1874 16.165 1834 .5 1750.667-23 1704-23c-61.333 0-112.666 13.332-154 40s-73.665 61-96.998 103c-42-34.668-89.333-61.668-142-81s-109.334-29-170-29c-70 0-134.168 12.166-192.5 36.5S839.667 104.33 797 147s-75.835 92.333-99.502 149S662 413.667 662 479c0 64.667 12.333 125.5 37 182.5S757.5 768.333 800.5 811s93.667 76.5 152 101.5S1073.666 950 1141 950c48.666 0 95.333-6.667 140-20s86-32.333 124-57v83h184zm-448-761.004c62.667 0 116.668 14.5 162 43.5s79.334 66.5 102 112.5v253c-11.332 23.332-25.832 45-43.5 65s-37.833 37.166-60.5 51.5-47.5 25.5-74.5 33.5-55.5 12-85.5 12c-42.667 0-82-7.668-118-23s-67.167-36-93.5-62-46.833-56.5-61.5-91.5-22-71.834-22-110.5c0-39.334 7-76.167 21-110.5s33.833-64.333 59.5-90 56.667-46 93-61 76.833-22.5 121.5-22.5z"/><glyph glyph-name="A" unicode="A" horiz-adv-x="1542" d="M1040 172h126l-120 344H463L346 172h156V0H10v172h132l472 1344h295l471-1344h152V0h-492v172zM520 682h468l-236 678z"/><glyph glyph-name="B" unicode="B" horiz-adv-x="1352" d="M143 172h143.998v1171h-144v175l682-2c61.333 0 119-11.5 173-34.5s101-54.332 141-94 71.5-86.5 94.5-140.5 34.5-112 34.5-174c0-64.666-18-123.666-54-177s-87.333-96-154-128c32.667-17.332 62.334-37.5 89-60.5s49.335-48.166 68.002-75.5 33.167-56.332 43.5-87 15.5-62 15.5-94c0-63.332-11.5-122.332-34.5-177S1187 171.668 1147 131s-86.833-72.667-140.5-96S895.333 0 834 0H143v172zm339.998 502V172.003h353c32 0 61.666 8 89 24s51.332 36.833 72 62.5 36.833 54.834 48.5 87.5 17.5 66 17.5 100c0 29.334-6 57.667-18 85s-28.167 51.666-48.5 73-44.333 38.332-72 51-57.167 19-88.5 19h-353zm0 669V847.998h344c32 0 61.833 6.333 89.5 19s51.667 29.667 72 51 36.5 46 48.5 74 18 57 18 87c0 32.667-6 64.834-18 96.5s-28.333 59.835-49 84.502-44.834 44.667-72.5 60-57.168 23-88.5 23h-344z"/><glyph glyph-name="C" unicode="C" horiz-adv-x="1503" d="M1219 1116c-44.667 76-103.83 135.665-177.497 178.998s-155.834 65-246.5 65c-77.334 0-148-16.333-212-49s-118.834-76.5-164.5-131.5-81.168-118.667-106.5-191-38-148.5-38-228.5c0-94.667 14-178.5 42-251.5s64.5-133.667 109.5-182 98.5-88.666 160.5-121 131.666-48.5 209-48.5c105.332 0 197 25.5 275 76.5s144.666 134.834 200 251.5l176-83c-25.334-72-68.334-141.5-129-208.5s-135.5-121-224.5-162-187.5-61.5-295.5-61.5c-103.334 0-198.334 19.5-285 58.5S348.167 123 280.5 195s-119.333 157.334-155 256S72 652.667 72 760c0 108 17.833 210 53.5 306s85.667 179.5 150 250.5 141 127 230 168S691 1546 795 1546c92.667 0 172.667-13.166 240-39.5s124.5-57.665 171.5-93.998 87.5-75.833 121.5-118.5h106v-178h-215z"/><glyph glyph-name="D" unicode="D" horiz-adv-x="1520" d="M143 1516l564 .002c69.333 0 135.333-9 198-27s121-43.333 175-76 103-71.834 147-117.5 81.5-96.5 112.5-152.5 54.833-116.168 71.5-180.5 25-131.167 25-200.5c0-70.667-8.333-138.334-25-203S1370.5 433.666 1339.5 377 1271 268.833 1227 222.5s-93-86-147-119S967.667 45 905 27 776.333 0 707 0H143v172h144v1171H143v173zm340-173V172h236c70 0 135.833 15.333 197.5 46S1032 290.5 1078 343.5s82.333 115.333 109 187 40 148.834 40 231.5c0 81.334-13.333 157.334-40 228s-63 132.168-109 184.5-99.833 93.5-161.5 123.5-127.5 45-197.5 45H483z"/><glyph glyph-name="E" unicode="E" horiz-adv-x="1286" d="M143 1516h1086v-429h-205v256H483V858h455V686H483V172h541v256h205V0H143v172h144v1171H143v173z"/><glyph glyph-name="F" unicode="F" horiz-adv-x="1247" d="M143 1516h1086v-429h-205v256H483V856h521V688H483V172h152V0H143v172h144v1171H143v173z"/><glyph glyph-name="G" unicode="G" horiz-adv-x="1677" d="M1313-6l.002 304c-25.333-52.667-57-98.5-95-137.5s-80.333-71.167-127-96.5-96.5-44.333-149.5-57-106.833-19-161.5-19c-98.667 0-189.667 16.5-273 49.5S348.17 123 280.502 195s-119.334 157.333-155 256S72 652.667 72 760c0 108 17.832 210 53.5 306s85.666 179.667 150 251 141 127.333 230 168 185.5 61 289.5 61c96 0 178.5-13.667 247.5-41s128-60.5 177-99.5 88.166-76.167 117.5-111.5h97v-178h-215c-44.668 76-103.835 136-177.502 180s-156.167 65.333-247.5 64c-76.667 0-147-16.333-211-49s-118.833-76.667-164.5-132-81.167-119-106.5-191-38-148-38-228c0-88.667 14-171 42-247s63.667-137.667 107-185 96.833-86.5 160.5-117.5S717.667 164 795 164c128 0 233 31.167 315 93.5S1249.333 417 1282 549H858v172h641V-6h-186z"/><glyph glyph-name="H" unicode="H" horiz-adv-x="1843" d="M1208 1516h492v-172h-144V172h144V0h-492v172h152v545H483V172h152V0H143v172h144v1172H143v172h492v-172H483V885h877v459h-152v172z"/><glyph glyph-name="I" unicode="I" horiz-adv-x="770" d="M143 1516h484v-173H483V172h144V0H143v172h144v1171H143v173z"/><glyph glyph-name="J" unicode="J" horiz-adv-x="670" d="M135 1516h491v-173H499V172c0-14.667-3.5-31.834-10.5-51.5s-16-40.5-27-62.5S437.67 13.5 423-9.5L379-77c-35.332-51.334-75.332-105-120-161L87-223c39.334 60 74.667 117.332 106 172l39 71.5C244.667 44.83 256 68.33 266 91s18.167 43.833 24.5 63.5S300 191 300 205v1138H135v173z"/><glyph glyph-name="K" unicode="K" horiz-adv-x="1563" d="M1147 1343v173h348v-173h-119L712 784l621-612h162V0h-408v172L485 774zM145 1516h492v-173H483V172h152V0H143v172h144v1171H145v173z"/><glyph glyph-name="L" unicode="L" horiz-adv-x="1296" d="M143 1516h491.998v-173h-152V172h523c10.667 0 21.334 2.5 32 7.5S1058.334 191 1067 199s15.667 17.167 21 27.5 8 20.833 8 31.5v191h190V0H143v172h144v1171H143v173z"/><glyph glyph-name="M" unicode="M" horiz-adv-x="2175" d="M143 172h144v1153H143v191h480l481-1309 487 1309h455v-191h-143V172h143V0h-492v172h162v1164L1186 0h-170L479 1339V172h156V0H143v172z"/><glyph glyph-name="N" unicode="N" horiz-adv-x="1624" d="M1081 1516h492v-173h-129V0h-256L483 1257V172h156V0H147v172h140v1171H143v175h408l692-1245 8 48v1022h-170v173z"/><glyph glyph-name="O" unicode="O" horiz-adv-x="1602" d="M799-30c-104.667 0-200.332 19.5-287 58.5S348 123 280 195 160.335 352.333 125 451 72 652 72 758c0 109.333 17.834 212 53.5 308s85.668 179.5 150 250.5 141 127 230 168S692.335 1546 799 1546c107.334 0 205.667-20.5 295-61.5s166-97 230-168 113.667-154.5 149-250.5 53-198.667 53-308-17.833-211.833-53.5-307.5-85.667-179.167-150-250.5-141-127.5-230-168.5S905.667-30 799-30zm.002 186c79.333 0 151.17 16.332 215.502 49s119.166 76.5 164.5 131.5 80.332 118.832 105 191.5 37 149.333 37 230c0 82.667-13.5 162.5-40.5 239.5s-64.668 142.167-113 195.5-104.5 94.5-168.5 123.5-130.668 43.5-200 43.5c-79.334 0-151.334-16.333-216-49s-119.668-76.5-165-131.5-80.334-119-105-192-37-149.5-37-229.5c0-93.333 13.666-176.5 41-249.5s63.5-133.667 108.5-182 98.666-88.833 161-121.5S719.668 156 799 156z"/><glyph glyph-name="P" unicode="P" horiz-adv-x="1272" d="M143 1516h613c68 0 130.5-8.834 187.5-26.5s106.334-43.668 148-78 74-77.167 97-128.5 34.5-110.333 34.5-177c0-55.333-11.332-107.5-34-156.5s-54.666-91.833-96-128.5-90.832-65.667-148.5-87-121.833-32-192.5-32H483V172h152V0H143v172h144v1171H143v173zm340-173V866h273c38 0 72.833 5.166 104.5 15.5s59 25.5 82 45.5 41 45 54 75 19.5 64.666 19.5 104c0 74.666-22.667 132.833-68 174.5S830.334 1343 731 1343H483z"/><glyph glyph-name="Q" unicode="Q" horiz-adv-x="1597" d="M698-24c-93.333 12.667-178.5 41.664-255.5 86.997s-143 102.833-198 172.5S147 384.664 117 473.997s-45 184-45 284c0 109.333 17.834 212 53.5 308s85.668 179.5 150 250.5 141 127 230 168 186.834 61.5 293.5 61.5c107.334 0 205.667-20.5 295-61.5s166-97 230-168 113.667-154.5 149-250.5 53-198.667 53-308c0-101.333-15.5-196.833-46.5-286.5s-74.5-169.334-130.5-239-123-127.168-201-172.5-164-73.667-258-85c43.333-11.333 78-24.666 104-40s58.667-32.832 98-52.5 78.666-29.5 118-29.5c38 0 71.832 9.5 101.5 28.5s49.166 48.168 58.5 87.5l152-69c-8-37.332-22.834-70.165-44.5-98.498s-47-52-76-71-60.168-33.168-93.5-42.5-66-14-98-14c-51.334 0-99.5 9.332-144.5 28S973.33-256.668 924-230s-96.667 40-142 40c-27.333 0-55.333-4.333-84-13v179zm101 179.997c79.334 0 151.17 16.33 215.502 48.998s119.166 76.5 164.5 131.5 80.332 118.833 105 191.5 37 149.334 37 230c0 82.668-13.5 162.168-40.5 238.5s-64.834 141.5-113.5 195.5-104 95.5-166 124.5-129.334 43.5-202 43.5c-79.334 0-151.334-16.332-216-49s-119.668-76.5-165-131.5-80.334-119-105-192-37-149.5-37-229.5c0-91.332 13.5-173.665 40.5-246.998s62.832-134.5 107.5-183.5 100.166-89.833 166.5-122.5 135.832-49 208.5-49z"/><glyph glyph-name="R" unicode="R" horiz-adv-x="1464" d="M143 1516h630.998c67.333 0 129.5-8.832 186.5-26.5s106.333-43.666 148-78 74.167-77.165 97.5-128.498 35-110.333 35-177c0-38-6.833-75.5-20.5-112.5s-32.667-71.333-57-103-53.166-59.834-86.5-84.5-69.665-43.668-108.998-57c16.667-7.334 33.5-17.834 50.5-31.5s33-30.335 48-50.002 28.667-42 41-67 22.166-51.833 29.5-80.5l84-330h131l2-190h-295L946 461c-20.668 82.667-52.168 143.5-94.5 182.5S751.332 702 678 702H483V172h152V0H143v172h144v1171H143v173zm339.998-173V866h291c38 0 72.833 5 104.5 15s59 25 82 45 41 44.833 54 74.5 19.5 64.167 19.5 103.5c0 75.333-22.667 134-68 176s-117.333 63-216 63h-267z"/><glyph glyph-name="S" unicode="S" horiz-adv-x="1210" d="M888 1236c-21.333 29.333-44.827 51.826-70.494 67.493s-53.834 27.667-84.5 36-61.335 12.5-92.002 12.5c-50.667 0-95-5.833-133-17.5s-69.5-27.5-94.5-47.5-43.833-43.333-56.5-70-19-54.667-19-84c0-44 7.833-79.5 23.5-106.5s35.5-48.667 59.5-65 50.5-29.166 79.5-38.5l83.5-28 202-66c60.667-19.332 114.167-41.332 160.5-66s85.166-53.833 116.5-87.5 55.165-72.5 71.498-116.5 24.5-95 24.5-153c0-62.667-12.833-120.667-38.5-174s-61.5-99.666-107.5-139S912.17 22.83 848.502.496s-133.5-33.5-209.5-33.5c-78 0-144.667 8.833-200 26.5s-101.833 41.334-139.5 71-67.834 63.5-90.5 101.5-40.335 77-53.002 117H80v172h252c0-74 7.833-126.332 23.5-157s37.5-56.166 65.5-76.5 61.333-35.665 100-45.998 81.334-15.5 128-15.5c45.334 0 86.167 5.333 122.5 16s67.333 26.167 93 46.5 45.334 45 59 74 20.5 61.833 20.5 98.5c0 40.667-8.5 75.167-25.5 103.5s-38.832 52.5-65.5 72.5-55.833 36.333-87.5 49-62.167 23.667-91.5 33l-219 62c-48 14.667-91.833 33.334-131.5 56s-73.667 50.335-102 83.002-50.166 70.833-65.5 114.5-23 94.167-23 151.5c0 58 11.334 112.333 34 163s56 95 100 133 97.834 67.833 161.5 89.5S565 1538 647 1538c54 0 103.834-6.333 149.5-19s87-30.5 124-53.5 69.668-50.667 98-83 52.167-67.833 71.5-106.5h75v-172H920c0 58.667-10.667 102.667-32 132z"/><glyph glyph-name="T" unicode="T" horiz-adv-x="1434" d="M453 172h139v1180H246v-236H41v400h1352v-400h-205v236H788V172h156V0H453v172z"/><glyph glyph-name="U" unicode="U" horiz-adv-x="1559" d="M63 1516l491.003.003v-173h-155v-706c0-84.667 9.5-156.834 28.5-216.5s45.333-108.335 79-146.002 73.667-65.166 120-82.5 97.166-26 152.5-26c57.332 0 110 7.668 158 23s89.166 41.167 123.5 77.5 61 84.666 80 145 28.5 135.5 28.5 225.5v706h-164v173h491v-173h-135V659c0-109.334-15.168-206.334-45.5-291s-71.834-155.668-124.5-213-114.668-100.834-186-130.5-148-44.5-230-44.5c-80 0-154.834 14.666-224.5 44S420.167 96.33 368.5 153s-92.333 125.833-122 207.5S202 535.667 202 641v702H63v173z"/><glyph glyph-name="V" unicode="V" horiz-adv-x="1485" d="M1013 1516h492v-173h-131L883 0H608L124 1343H-10v173h492v-173H350L739 174l417 1169h-143v173z"/><glyph glyph-name="W" unicode="W" horiz-adv-x="2560" d="M2058 1516h492v-173h-132L1985 0h-306l-411 1321L889 0H586L144 1343H10v173h492v-173H370L737 178l387 1338h299l412-1338 374 1165h-151v173z"/><glyph glyph-name="X" unicode="X" horiz-adv-x="1552" d="M950 1516h492v-173h-112L920 774l428-602h94V0H950v172h185L811 623 485 172h177V0H170v172h99l432 603-408 568H170v173h492v-173H516l295-415 298 415H950v173z"/><glyph glyph-name="Y" unicode="Y" horiz-adv-x="1354" d="M51 1516h492v-173H399l285-487 305 487H831v173h492v-173h-129L768 697V172h156V0H432v172h139v530l-402 641H51v173z"/><glyph glyph-name="Z" unicode="Z" horiz-adv-x="1214" d="M1163 1292L250 172h711v252h196V0H51v227l900 1116H264v-256H68v429h1095v-224z"/><glyph glyph-name="bracketleft" unicode="[" horiz-adv-x="721" d="M238 1706h403v-151H422V-225h219v-152H238v2083z"/><glyph glyph-name="backslash" unicode="\" horiz-adv-x="948" d="M41 1581h162L907-25H745z"/><glyph glyph-name="bracketright" unicode="]" horiz-adv-x="721" d="M299 1555H80v151h403V-377H80v152h219v1780z"/><glyph glyph-name="asciicircum" unicode="^" horiz-adv-x="1229" d="M672 1513l403-790H932l-315 626-320-626H156l403 790h113z"/><glyph glyph-name="underscore" unicode="_" horiz-adv-x="1024" d="M0-154h1024v-102H0v102z"/><glyph glyph-name="grave" unicode="`" horiz-adv-x="594" d="M387 1178l-287 282v17h248l184-299H387z"/><glyph glyph-name="a" unicode="a" horiz-adv-x="1120" d="M709 96c-39.333-36.667-82.833-66.67-130.5-90.003s-101.834-35-162.5-35c-50.668 0-97.168 8-139.5 24S197.665 32.83 167 60.497s-54.5 59.834-71.5 96.5-25.5 75.668-25.5 117c0 44 6.5 83 19.5 117s30.332 63.5 52 88.5 47 46 76 63 59.332 30.668 91 41 64 17.667 97 22 64.5 6.5 94.5 6.5c48 0 88.332-1.5 121-4.5s62.333-7.167 89-12.5l1 85c0 36.667-5.333 68.5-16 95.5s-25.667 49.333-45 67-42.5 30.834-69.5 39.5-57.167 13-90.5 13c-31.333 0-61.333-2.166-90-6.5s-55.5-10-80.5-17-48-15-69-24-38.833-18.5-53.5-28.5l-61 129c24.667 16 51.667 30.834 81 44.5s60.166 25.335 92.5 35.002 65.332 17.333 99 23 66.833 8.5 99.5 8.5c60 0 114-7.167 162-21.5s88.667-36.5 122-66.5 59-68.167 77-114.5 27-101.833 27-166.5l-1-518h115V0H709v96zm-252 30.997c24.667 0 49.334 2.998 74 8.998s48 14.167 70 24.5 42.334 22.333 61 36 34.335 27.834 47.002 42.5l1 234h-216c-36 0-68.833-4-98.5-12s-55.334-19.666-77-35-38.5-34.332-50.5-57-18-48.666-18-78c0-27.332 5-51.165 15-71.498s24.166-37.333 42.5-51 40.165-24 65.498-31 53.333-10.5 84-10.5z"/><glyph glyph-name="b" unicode="b" horiz-adv-x="1253" d="M57 1556h336V950c44 34 92 61 144 81s105.667 30 161 30c68 0 130.333-12.666 187-38s105.5-61 146.5-107 72.833-101.166 95.5-165.5 34-135.5 34-213.5c0-83.332-12.667-158.832-38-226.5s-60.5-125.833-105.5-174.5S919 49.833 857 23.5 727-16 653-16c-51.333 0-99.5 7.5-144.5 22.5S425 41 393 65V0H207v1384H57v172zm592-659c-48.667 0-95.33-9.997-139.998-29.997s-83.334-47-116-81v-557c21.332-22 52.665-41.5 93.998-58.5s93.333-25.5 156-25.5c42.667 0 83.667 8 123 24s74 40.167 104 72.5 54 72.5 72 120.5 27 104 27 168c0 58.667-8.5 110.667-25.5 156s-40 83.666-69 115S811.667 856.167 773 872.5 693 897 649 897z"/><glyph glyph-name="c" unicode="c" horiz-adv-x="1116" d="M848 760c-28 50-63.502 86.67-106.502 110.003s-92.833 35-149.5 35c-43.333 0-84-9-122-27s-71.167-43.667-99.5-77-50.666-73.833-67-121.5S279 578.67 279 520.003c0-58 8.168-110.334 24.5-157s38.834-86.5 67.5-119.5 61.835-58.334 99.502-76 78.167-26.5 121.5-26.5c64 0 119.667 15.5 167 46.5s85 76.5 113 136.5l154-76c-20-42.668-44.667-81-74-115s-62.5-63-99.5-87-77.667-42.5-122-55.5-91.166-19.5-140.5-19.5c-72 0-138.5 13.5-199.5 40.5s-113.666 64.832-158 113.5-78.832 106.666-103.5 174-37 141-37 221 13 153.666 39 221S192.67 866.167 238 914.5s98.334 86.167 159 113.5 125.668 41 195 41c65.334 0 127.167-11.333 185.5-34S887 978 931 932h105V760H848z"/><glyph glyph-name="d" unicode="d" horiz-adv-x="1268" d="M711 1556h327V172h152V0H852v85c-33.334-34-72-60.5-116-79.5S642-23 586-23c-70 0-135.168 12.167-195.5 36.5s-112.667 60-157 107-79 104.667-104 173S92 440 92 528c0 80 12 152.833 36 218.5s58 121.667 102 168 97 82.333 159 108 131 38.5 207 38.5c50 0 95.667-5.5 137-16.5s81-30.167 119-57.5v397H711v172zM610 139c55.332 0 101.665 8.165 138.998 24.498s71.666 40.833 103 73.5v580c-33.334 28-71.667 48.333-115 61s-87.666 19-133 19c-44 0-85.332-8.167-124-24.5s-72.5-40.166-101.5-71.5S326.667 731.334 310 686s-25-97.333-25-156c0-64 8-120.333 24-169s38.334-89.5 67-122.5 63-57.833 103-74.5 83.668-25 131-25z"/><glyph glyph-name="e" unicode="e" d="M276 494c0-29.333 2.166-56.165 6.5-80.498s10.5-47.5 18.5-69.5c24.666-66.667 64.166-116.834 118.5-150.5S535.33 143 604 143c54 0 106.5 7.5 157.5 22.5S866 204 922 236l75-127C929 62.333 860.665 27.666 792 5S652-29 578-29c-70 0-134.834 11.667-194.5 35s-111 58-154 104-76.668 103.333-101 172S92 430.667 92 522c0 74 10.332 143.833 31 209.5s51.5 123 92.5 172S307.33 991.333 368 1020s131.333 43 212 43c78 0 143.167-11.833 195.5-35.5s95-55 128-94 58-83.5 75-133.5 28.833-101 35.5-153c3.333-25.333 5.5-51 6.5-77s1.5-51.333 1.5-76H276zm291 413c-43.334 0-81.165-6.168-113.498-18.5s-59.833-30-82.5-53-40.834-51.168-54.5-84.5S292.666 680.332 286 639h537c-2.667 38.667-8.834 74.334-18.5 107S780 807 760 831s-45.668 42.668-77 56-70 20-116 20z"/><glyph glyph-name="f" unicode="f" horiz-adv-x="745" d="M442 1036l240 .002v-151H442v-713h162v-172H100v172h156v713H85v151h171v162c1.332 60 10 112.333 26 157s38.666 82 68 112 64.665 52.333 105.998 67 87.333 22 138 22c35.333 0 67-1.667 95-5s53-7.833 75-13.5 41.5-11.834 58.5-18.5 32.167-13.335 45.5-20.002l-57-133c-21.333 11.333-49.166 21-83.5 29s-70.165 12-107.498 12c-55.333 0-98.833-17.167-130.5-51.5S442 1270.667 442 1204v-168z"/><glyph glyph-name="g" unicode="g" horiz-adv-x="1208" d="M858 91c-34-36-73.5-64-118.5-84S643.33-23 586-23C516-23 450.83-10.83 390.5 13.5s-112.667 60-157 107-79 104.668-104 173S92 440 92 528c0 80 12 152.834 36 218.5s58 121.668 102 168 97 82.334 159 108 131 38.5 207 38.5c52 0 98.833-5.832 140.5-17.5s82.167-31.833 121.5-60.5v53h186V41c0-164-38.833-288-116.5-372S729-457 565-457c-36 0-73.667 2.667-113 8s-78.166 13.833-116.5 25.5S259.836-397 223.503-379s-69.833 40-100.5 66l100 151c20-17.333 42.833-33.333 68.5-48s53.167-27.167 82.5-37.5 59.666-18.5 91-24.5 62.665-9 93.998-9c51.333 0 95.833 5.333 133.5 16s68.667 29.5 93 56.5S828-145 840-99 858 5.333 858 76v15zm-248 48c30.666 0 58.665 2.998 83.998 8.998s48.333 13.833 69 23.5 38.834 20.834 54.5 33.5 29.168 26 40.5 40v567c-34 30-73.166 51.668-117.5 65s-89.832 20-136.5 20c-44 0-85.332-8.166-124-24.5S407.5 832.334 378.5 801s-51.832-69.666-68.5-115-25-97.332-25-156c0-64 8-120.332 24-169s38.334-89.5 67-122.5 63-57.832 103-74.5 83.668-25 131-25z"/><glyph glyph-name="h" unicode="h" horiz-adv-x="1354" d="M114 1556h327.998V922h6c18.667 18.666 40.167 36.166 64.5 52.5s49.833 30.5 76.5 42.5 54.334 21.332 83 28 58.668 10 90 10c55.334 0 105.334-7.668 150-23s82.668-38.667 114-70 55.5-71.5 72.5-120.5S1124 734.667 1124 668V172h156V0H788v172h142v473c0 79.333-20.166 139.5-60.5 180.5S771.334 887 696 887c-42.667 0-86-10.167-130-30.5s-85.333-45.833-124-76.5V172h150V0H100v172h156v1212H114v172z"/><glyph glyph-name="i" unicode="i" horiz-adv-x="657" d="M92 1036h338V172h156V0H94v172h148v692H92v172zm115 367c0 17.333 3.5 33.833 10.5 49.5s16.333 29.334 28 41 25.5 21 41.5 28 33 10.5 51 10.5c17.333 0 33.833-3.5 49.5-10.5s29.334-16.332 41-28 21-25.333 28-41 10.5-32.167 10.5-49.5c0-18-3.5-35-10.5-51s-16.332-30.167-28-42.5-25.333-22-41-29-32.167-10.5-49.5-10.5c-18 0-35 3.5-51 10.5s-29.833 16.667-41.5 29-21 26.5-28 42.5-10.5 33-10.5 51z"/><glyph glyph-name="j" unicode="j" horiz-adv-x="604" d="M84 1036h336V-80c0-59.332-7.667-112.832-23-160.5s-37.5-88.333-66.5-122S266-422.334 224-441s-90-28.668-144-30L61-332c59.333 8.666 102.5 36.833 129.5 84.5S231-137 231-59v923H84v172zm123 367c0 16 3.167 31 9.5 45s14.833 26.333 25.5 37 23.167 19.167 37.5 25.5 29.833 9.5 46.5 9.5c16 0 31.167-3.167 45.5-9.5s26.833-14.833 37.5-25.5 19.167-23 25.5-37 9.5-29 9.5-45c0-16.667-3.167-32.334-9.5-47s-14.833-27.5-25.5-38.5-23.167-19.668-37.5-26-29.5-9.5-45.5-9.5c-16.667 0-32.167 3.166-46.5 9.5s-26.833 15-37.5 26-19.167 23.832-25.5 38.5-9.5 30.333-9.5 47z"/><glyph glyph-name="k" unicode="k" horiz-adv-x="1276" d="M92 1556h365v-172h-2V610h180l246 254h-62v172h393V864h-131L766 539l344-367h125V0h-219L592 463H455V172h86V0H98v172h170v1212H92v172z"/><glyph glyph-name="l" unicode="l" horiz-adv-x="666" d="M92 1556h336V172h156V0H92v172h150v1212H92v172z"/><glyph glyph-name="m" unicode="m" horiz-adv-x="2040" d="M100 1036l330.002.002v-121h2c22.667 19.333 46.5 37.5 71.5 54.5s51.167 31.833 78.5 44.5 55.833 22.667 85.5 30 60.5 11 92.5 11c74.667 0 139-13.833 193-41.5s95.667-70.834 125-129.5c25.333 22.666 52 44.5 80 65.5s57.167 39.166 87.5 54.5 62.166 27.665 95.5 36.998 68 14 104 14c56 0 106.332-7.667 151-23s82.666-38.666 114-70 55.165-71.5 71.498-120.5S1806 734.67 1806 668V172h144V0h-484v172h146v473c0 79.334-20 139.5-60 180.5s-97.667 61.5-173 61.5c-44.667 0-90.334-10.666-137-32s-86.668-48.332-120-81V172h143V0H782v172h146v473c0 79.334-20.168 139.5-60.5 180.5S769.332 887 694 887c-43.333 0-87-10.332-131-31s-85.667-46.333-125-77V172h146V0H100v172h144v692H100v172z"/><glyph glyph-name="n" unicode="n" horiz-adv-x="1366" d="M782 172h145.998v473c0 79.334-20.167 139.5-60.5 180.5s-98.166 61.5-173.5 61.5c-43.332 0-87-10.332-131-31s-85.666-46.333-125-77V172h146V0H100v172h144v692H100v172h330V914h2c22 19.333 45.5 37.666 70.5 55s51.168 32.332 78.5 45 55.834 22.666 85.5 30 60.835 11 93.502 11c55.333 0 105.333-7.668 150-23s82.667-38.667 114-70 55.5-71.5 72.5-120.5S1122 734.667 1122 668V172h144V0H782v172z"/><glyph glyph-name="o" unicode="o" horiz-adv-x="1219" d="M86 518c.667 82 13.83 156.672 39.498 224.005s61.5 125.166 107.5 173.5 100.667 85.5 164 111.5 133 39 209 39c76.667 0 146.834-13 210.5-39s118.168-62.834 163.5-110.5 80.667-105.168 106-172.5 38-142 38-224c0-80.668-12.667-154.835-38-222.502s-60.666-125.834-106-174.5-99.832-86.5-163.5-113.5-133.833-40.5-210.5-40.5c-78 0-148.667 13.332-212 40s-117.666 64.166-163 112.5S150.334 227.667 125 295 86.667 436.668 86 518zm196.997.005c0-59.333 8.5-113 25.5-161s40.333-88.833 70-122.5 64-59.667 103-78 80.5-27.5 124.5-27.5c46 0 88.833 9 128.5 27s74.167 43.833 103.5 77.5 52.333 74.5 69 122.5 25 102 25 162c0 62.667-8.333 118.334-25 167s-39.5 89.335-68.5 122.002-63.5 57.334-103.5 74-83 25-129 25c-44 0-85.5-8.332-124.5-25s-73.333-41.333-103-74-53-73.334-70-122-25.5-104.335-25.5-167.002z"/><glyph glyph-name="p" unicode="p" horiz-adv-x="1249" d="M59 1036h330v-86c44 34 92 61 144 81s105.667 30 161 30c68 0 130.333-12.667 187-38s105.5-61 146.5-107 72.833-101.167 95.5-165.5 34-135.5 34-213.5c0-83.333-12.667-159.333-38-228s-60.5-127.5-105.5-176.5S915 45.333 853 18 723-23 649-23c-52.667 0-99.5 5.5-140.5 16.5S428.333 18.667 391 36v-335h162v-172H61v172h142V864H59v172zm586-139c-48 0-94.167-9.665-138.5-28.998s-82.833-46-115.5-80v-561c22-22.667 53.5-43 94.5-61s92.167-27 153.5-27c42.667 0 83.667 8.333 123 25s74 41.5 104 74.5 54 73.833 72 122.5 27 105 27 169c0 58.667-8.5 110.667-25.5 156s-40 83.666-69 115S807.667 856.166 769 872.5 689 897 645 897z"/><glyph glyph-name="q" unicode="q" horiz-adv-x="1206" d="M698-299h149.998V81c-33.333-32.667-71.666-58.167-115-76.5S640.667-23 586-23c-70 0-135.166 12.167-195.5 36.5s-112.665 60-156.998 107-79 104.667-104 173S92 440 92 528c0 80 12 152.833 36 218.5s58 121.667 102 168 97 82.333 159 108 131 38.5 207 38.5c50 0 95-5.5 135-16.5s79-29.167 117-54.5v46h186V-299h156v-172H698v172zm-88.002 438c56.667 0 104.667 9.333 144 28s70.666 40.667 94 66v587c-33.334 27.333-71.167 47-113.5 59s-85.833 18-130.5 18c-44 0-85.333-8.167-124-24.5s-72.5-40.333-101.5-72-51.833-70.167-68.5-115.5-25-97-25-155c0-64 8-120.333 24-169s38.333-89.5 67-122.5 63-57.833 103-74.5 83.667-25 131-25z"/><glyph glyph-name="r" unicode="r" horiz-adv-x="961" d="M845 817H655v64c-22 0-44.5-4.167-67.5-12.5s-44.5-21-64.5-38-37.5-38.667-52.5-65S444.667 708 438 672V172h176V0H100v172h143l1 692H100v172h331V893c12 21.333 25.5 41.166 40.5 59.5s31.667 34.332 50 48 38.666 24.333 61 32S629 1044 655 1044h98c30.666 0 61.333-.667 92-2V817z"/><glyph glyph-name="s" unicode="s" horiz-adv-x="993" d="M678.5 829.5c-13 19.667-29.83 35.668-50.498 48s-43.667 21.334-69 27-50 8.5-74 8.5c-26.667 0-51.167-3-73.5-9s-41.5-14.666-57.5-26-28.5-25.165-37.5-41.498-13.5-34.5-13.5-54.5c0-34.667 10.5-62.167 31.5-82.5s56.167-39.166 105.5-56.5l199-70c85.333-28.666 147.666-67.666 187-117s59-108.332 59-177c0-46-9.168-88.166-27.5-126.5s-44.334-71-78-98-74.168-48-121.5-63-100-22.5-158-22.5c-80.668 0-146.335 13-197.002 39s-89.667 60.334-117 103H82v172h207c0-28.666 6.167-53.166 18.5-73.5s28.666-36.832 49-49.5 43.332-22 69-28 51.833-9 78.5-9c26 0 51 3.168 75 9.5s45.167 15.667 63.5 28 32.833 27.166 43.5 44.5 16 37 16 59c0 33.332-10.833 61.665-32.5 84.998S611 393.333 559 412l-198 74c-80.667 28.667-140.5 65.167-179.5 109.5S123 695.333 123 762c0 44 8.167 84.667 24.5 122s40 69.5 71 96.5 68.833 48.167 113.5 63.5 95.667 23 153 23c74 0 136-10.333 186-31s95-56 135-106h97V758H698c0 28-6.5 51.833-19.5 71.5z"/><glyph glyph-name="t" unicode="t" horiz-adv-x="762" d="M400 1036h243V885H398l-3-598c0-40.666 4.668-73.666 14-99s24.334-42.832 45-52.5 44-14.5 70-14.5c28 0 52.668 2.5 74 7.5s44.667 13.5 70 25.5l43-125C679 12.335 645.333-.832 610-10.5S533-25 485-25c-45.333 0-84.833 5.5-118.5 16.5s-62 29.5-85 55.5-40.167 60.833-51.5 104.5-17 98.167-17 163.5l3 570H51v151h167v248l182 86v-334z"/><glyph glyph-name="u" unicode="u" horiz-adv-x="1350" d="M724 1036h334V172h115V0H871v96c-46.668-36-97.5-64-152.5-84S604.665-18 542-18c-52 0-99.168 7.5-141.5 22.5s-78.334 38.332-108 70S240 146.332 224 195s-24 106.667-24 174v495H60v172h334V391c0-79.333 18.332-139.333 55-180s89.333-61 158-61c40.667 0 83.5 7.333 128.5 22S823 207 863 233v631H724v172z"/><glyph glyph-name="v" unicode="v" horiz-adv-x="1100" d="M20 1036h358V864h-97l256-714 250 714h-63v172h328V864h-89L624-16H440L102 864H20v172z"/><glyph glyph-name="w" unicode="w" horiz-adv-x="1640" d="M20 1036h328V864h-48l181-661 248 833h156l237-831 189 659h-60v172h328V864h-89L1206-16h-172L799 811 565-16H391L109 864H20v172z"/><glyph glyph-name="x" unicode="x" horiz-adv-x="1085" d="M694 172h59L547 428 346 172h51V0H53v172h84l315 367-296 325H51v172h344V864h-39l191-246 193 246h-50v172h344V864h-89L652 526l310-354h76V0H694v172z"/><glyph glyph-name="y" unicode="y" d="M31 1036h393V864H301l243-661 254 661H676v172h393V864H962L501-299h142v-172H225v172h126L461-14 115 864H31v172z"/><glyph glyph-name="z" unicode="z" horiz-adv-x="924" d="M76 115l525 766H270V735H86v301h741V918L303 156h354v176h193V0H76v115z"/><glyph glyph-name="braceleft" unicode="{" horiz-adv-x="721" d="M133 723c28 0 52.5 7.663 73.5 22.996s38.5 35.5 52.5 60.5 24.5 53.5 31.5 85.5 10.5 64.667 10.5 98v452c0 42 6.167 79.333 18.5 112s28.333 60.334 48 83 42.167 39.835 67.5 51.502 51 17.5 77 17.5h137v-126h-69c-36 0-60.833-17.5-74.5-52.5s-20.5-83.833-20.5-146.5v-428c0-41.333-4.333-78-13-110s-20.5-60-35.5-84-32.667-44-53-60-42.5-28.333-66.5-37v-4c24-8.667 46.167-21 66.5-37s38-36 53-60 26.833-52.167 35.5-84.5 13-68.833 13-109.5v-418c0-62.667 6.833-111.5 20.5-146.5s38.5-52.5 74.5-52.5h69v-127H512c-26 0-51.667 5.833-77 17.5s-47.833 28.834-67.5 51.5-35.667 50.335-48 83.002S301-155 301-113v443c0 33.333-3.5 65.833-10.5 97.5s-17.5 60-31.5 85-31.5 45.167-52.5 60.5-45.5 23-73.5 23v127z"/><glyph glyph-name="bar" unicode="|" horiz-adv-x="455" d="M152 1726h155V-270H152v1996z"/><glyph glyph-name="braceright" unicode="}" horiz-adv-x="721" d="M72-377v127.004h69c36 0 60.833 17.5 74.5 52.5s20.5 83.833 20.5 146.5v418c0 40.667 4.333 77.167 13 109.5s20.5 60.5 35.5 84.5 32.667 44 53 60 42.166 28.333 65.5 37v4c-23.334 8.667-45.167 21-65.5 37s-38 36-53 60-26.833 52-35.5 84-13 68.667-13 110v428c0 62.667-6.833 111.5-20.5 146.5s-38.5 52.5-74.5 52.5H72v126h137c26 0 51.667-5.833 77-17.5s47.833-28.834 67.5-51.5 35.667-50.335 48-83.002 18.5-70 18.5-112v-452c0-33.333 3.5-66 10.5-98s17.5-60.5 31.5-85.5 31.5-45.167 52.5-60.5 45.5-23 73.5-23v-127c-28 0-52.5-7.667-73.5-23s-38.5-35.5-52.5-60.5-24.5-53.333-31.5-85-10.5-64.167-10.5-97.5v-443c0-42-6.167-79.333-18.5-112s-28.333-60.334-48-83-42.167-39.835-67.5-51.502-51-17.5-77-17.5H72z"/><glyph glyph-name="asciitilde" unicode="~" horiz-adv-x="1229" d="M141 483c30 56 65.333 99.333 106 130s90.667 46 150 46c38.667 0 78.5-7.5 119.5-22.5s80.833-31.333 119.5-49l109-49c34-15 63.667-22.5 89-22.5 28.667 0 57.5 11.5 86.5 34.5s60.167 62.167 93.5 117.5l73-115c-30-56-65.167-99.333-105.5-130S891 377 831 377c-26 0-52.333 3.5-79 10.5s-53.5 15.833-80.5 26.5-53.333 22.167-79 34.5l-74 34.5c-23.667 10.667-46 19.5-67 26.5S411.667 520 395 520c-28.667 0-57.5-11.333-86.5-34s-60.167-61.667-93.5-117z"/><glyph glyph-name="NOBREAKSPACE" horiz-adv-x="449"/><glyph glyph-name="exclamdown" unicode="¡" horiz-adv-x="682" d="M211 1010c0 17.333 3.5 33.833 10.5 49.5s16.333 29.334 28 41 25.5 21 41.5 28 33 10.5 51 10.5c17.333 0 33.833-3.5 49.5-10.5s29.334-16.332 41-28 21-25.333 28-41 10.5-32.167 10.5-49.5c0-18-3.5-35-10.5-51s-16.332-30.167-28-42.5-25.333-22-41-29S359.333 877 342 877c-18 0-35 3.5-51 10.5s-29.833 16.667-41.5 29-21 26.5-28 42.5-10.5 33-10.5 51zm41-314h178l41-1167H211z"/><glyph glyph-name="cent" unicode="¢" horiz-adv-x="1210" d="M516-186l.004 329c-60 10.667-114.833 31.334-164.5 62s-92.334 69.5-128 116.5S160.168 422.67 140.5 484s-29.5 128-29.5 200c0 70.668 10.333 136.335 31 197.002s49 114.5 85 161.5 78.667 86.167 128 117.5 103 52.666 161 64v355h197v-356c45.333-9.334 88-24.334 128-45s76-48 108-82h106V924h-183l-4-2c-.667 0-1 .666-1 2h-1v1c-28.667 49.332-64.334 85.665-107 108.998s-92.335 35-149.002 35c-43.333 0-84-9-122-27s-71.167-43.667-99.5-77-50.666-73.833-67-121.5S297 742.666 297 684c0-58 8.168-110.334 24.5-157s38.834-86.5 67.5-119.5 61.835-58.334 99.502-76 78.167-26.5 121.5-26.5c64 0 119.833 15.5 167.5 46.5s85.5 76.166 113.5 135.5l153-75c-32.667-70-77.334-128.168-134-174.5S787.666 160.332 713 145v-331H516z"/><glyph glyph-name="sterling" unicode="£" horiz-adv-x="932" d="M33 807h195.003c-17.333 46-32.333 93.334-45 142s-19 100.335-19 155.002c0 52 9 99.667 27 143s43.333 80.666 76 112 71.667 55.665 117 72.998 95.666 26 151 26c49.332 0 94.665-8.833 135.998-26.5s76.667-42.167 106-73.5 51.5-68.666 66.5-112 21.167-90.665 18.5-141.998l-166-10c-.667 25.333-4.5 50-11.5 74s-17.167 45.333-30.5 64-29.833 33.667-49.5 45-42.167 17-67.5 17c-28.667 0-54-4.167-76-12.5s-40.5-19.666-55.5-34-26.667-31.165-35-50.498-13.166-40-14.5-62c-1.332-16.667-1.332-32.834 0-48.5s3.667-32 7-49 8-35.5 14-55.5l20-67c4.667-18 9.667-36 15-54l16-54h279v-145H473c9.333-28.668 17.5-55.835 24.5-81.502l18.5-70.5c6-25.333 7.5-53 4.5-83s-10.333-60.333-22-91-27.834-60.167-48.5-88.5-46-53.5-76-75.5h486v-168H61v168h110c40.666 23.333 73.333 51.166 98 83.5s42 67.665 52 105.998 13.167 79.333 9.5 123S317 572.667 301 618l-16 44H33v145z"/><glyph glyph-name="currency" unicode="¤" horiz-adv-x="1128" d="M125 743c0 52.667 8.5 102.666 25.5 150s40.5 90 70.5 128L74 1198l145 123 149-179c30.667 16 63.167 28.332 97.5 37s70.166 13 107.5 13c36.666 0 72-4.334 106-13s66.332-20.668 97-36l137 164 160-115-145-174c30-38 53.166-80.334 69.5-127s24.5-96 24.5-148c0-51.334-8-100-24-146s-38.668-88-68-126l147-176-151-119-143 171c-32-16.668-65.5-29.5-100.5-38.5S611 295 573 295s-74.168 4.332-108.5 13-67.167 21-98.5 37L221 170 55 281l164 190c-30.667 38.666-54 80.833-70 126.5s-24 94.167-24 145.5zm170 5c0-39.334 7.333-76 22-110s34.667-63.668 60-89 55-45.334 89-60 70.333-22 109-22 75.167 7.332 109.5 22 64.166 34.666 89.5 60 45.332 55 60 89 22 70.666 22 110c0 38.666-7.334 75-22 109s-34.668 63.666-60 89-55.167 45.332-89.5 60-70.833 22-109.5 22-75-7.334-109-22-63.667-34.668-89-60-45.333-55-60-89-22-70.334-22-109z"/><glyph glyph-name="yen" unicode="¥" horiz-adv-x="1354" d="M51 1516h492v-172H398l286-488 305 488H832v172h492v-172h-129L867 848h184V707H768V559h283V418H768V172h156V0H432v172h139v246H301v141h270v148H301v141h178l-311 496H51v172z"/><glyph glyph-name="brokenbar" unicode="¦" horiz-adv-x="512" d="M152 1729h155V979H152v750zm0-1248h155v-749H152v749z"/><glyph glyph-name="section" unicode="§" horiz-adv-x="1094" d="M74-25h237v-24c0-36.668 6-69.668 18-99s29.166-54.5 51.5-75.5 49.332-37.168 81-48.5 66.833-17 105.5-17c69.333 0 123.5 18.166 162.5 54.5S788-148 788-84c0 35.332-6.167 65.665-18.5 90.998s-28 46.666-47 64-40.5 31.5-64.5 42.5-47.333 20.166-70 27.5l-91 28-91 28c-42.667 12.666-81.834 29-117.5 49s-66.335 44.5-92.002 73.5-45.667 63-60 102-21.5 84.166-21.5 135.5c0 68.666 16.167 131 48.5 187s79.5 101.332 141.5 136c-44 32-79.833 73.666-107.5 125s-41.5 113-41.5 185c0 52 9.167 99.832 27.5 143.5s45.5 81.333 81.5 113 80.333 56.5 133 74.5 113.334 27 182 27c54.668 0 104.5-5.833 149.5-17.5s84.834-28 119.5-49 63.668-45.833 87-74.5 40.667-60 52-94h65v-166h-232v56c-5.333 26.667-16 50.334-32 71s-35.167 38.168-57.5 52.5-47 25.167-74 32.5-54.5 11-82.5 11c-38 0-70.833-4.167-98.5-12.5s-50.5-20-68.5-35-31.5-32.667-40.5-53-13.5-42.833-13.5-67.5c0-30.667 5.833-57.167 17.5-79.5s26.667-41.666 45-58 39-30 62-41 45.833-20.5 68.5-28.5l144-51.5c44.667-16.332 85.5-33.165 122.5-50.498s70-36.166 99-56.5 53.5-43.5 73.5-69.5 35.167-55.5 45.5-88.5 15.5-71.5 15.5-115.5c0-70.666-17.5-134.5-52.5-191.5S911.665 268 850.998 232c46.667-33.332 82.334-74.5 107-123.5S995-.665 995-72c0-57.332-10.832-110.332-32.5-159s-51.833-90.833-90.5-126.5-84.667-63.5-138-83.5-111.666-30-175-30c-65.332 0-121.665 7.667-168.998 23s-87.333 36-120 62-59.167 56-79.5 90-35.833 69.333-46.5 106H74v165zm239 592c0-36 6.833-65 20.5-87s31.167-39.834 52.5-53.5S443.666 398 495 382l104-38c74 2.666 132.666 22.5 176 59.5s65 86.832 65 149.5c0 34-7.334 62.832-22 86.5s-33.5 43.666-56.5 60S713 729.33 685 740s-55.668 19.666-83 27c-14-.668-23-1-27-1-43.334 0-81.334-5.168-114-15.5S401 726 379 708s-38.5-39-49.5-63-16.5-50-16.5-78z"/><glyph glyph-name="dieresis" unicode="¨" horiz-adv-x="612" d="M39 1360c0 17.333 3.5 33.833 10.5 49.5s16.333 29.334 28 41 25.334 21 41 28S150.67 1489 168 1489c16.668 0 32.668-3.5 48-10.5s28.667-16.332 40-28 20.333-25.333 27-41 10-32.167 10-49.5c0-18-3.333-35-10-51s-15.667-30.167-27-42.5-24.666-22-40-29-31.332-10.5-48-10.5c-17.332 0-33.832 3.5-49.5 10.5s-29.333 16.667-41 29-21 26.5-28 42.5-10.5 33-10.5 51zm459 0c0 17.333 3.5 33.833 10.5 49.5s16.333 29.334 28 41 25.334 21 41 28S609.67 1489 627 1489c16.668 0 32.5-3.5 47.5-10.5s28.334-16.332 40-28 20.835-25.333 27.502-41 10-32.167 10-49.5c0-18-3.333-35-10-51s-15.834-30.167-27.5-42.5-25-22-40-29-30.834-10.5-47.5-10.5c-17.334 0-33.834 3.5-49.5 10.5s-29.335 16.667-41.002 29-21 26.5-28 42.5-10.5 33-10.5 51z"/><glyph glyph-name="copyright" unicode="©" horiz-adv-x="1919" d="M102 831c0 78.667 10.167 154.5 30.5 227.5s49 141.167 86 204.5S300 1384 352 1436s109.667 96.5 173 133.5 131.5 65.667 204.5 86S878.667 1686 958 1686c78.667 0 154.667-10.167 228-30.5s141.833-49 205.5-86 121.667-81.5 174-133.5 97.166-109.667 134.5-173 66.165-131.5 86.498-204.5 30.5-148.833 30.5-227.5c0-79.333-10.167-155.5-30.5-228.5s-49.166-141.167-86.5-204.5-82.165-121-134.498-173-110.333-96.5-174-133.5-132.167-65.667-205.5-86S1036.667-25 958-25c-79.333 0-155.5 10.167-228.5 30.5s-141.167 49-204.5 86S404 173 352 225s-96.5 109.667-133.5 173-65.667 131.5-86 204.5S102 751.667 102 831zm181 0c0-94.667 17.5-183.167 52.5-265.5s83-154 144-215 132.5-109 214.5-144S864 154 958 154s181.833 17.5 263.5 52.5 153.334 83 215 144 110 132.667 145 215S1634 736.333 1634 831c0 93.333-17.5 183.166-52.5 269.5s-83.332 158.165-145 215.498-133.333 103.5-215 138.5-169.5 52.5-263.5 52.5-182-17.5-264-52.5-153.5-81.167-214.5-138.5-109-129.166-144-215.5S283 924.334 283 831zm907 228c-32 30.667-65.5 53.002-100.5 67.002s-71.832 21-110.5 21c-42.666 0-82.666-8.167-120-24.5s-69.832-38.833-97.5-67.5-49.5-62-65.5-100-24-78.333-24-121 8-82.667 24-120 37.834-70 65.5-98 60.168-50 97.5-66 77.334-24 120-24c37.334 0 73.5 7.5 108.5 22.5s62.834 34.167 83.5 57.5l134-129c-15.332-20-35-38.833-59-56.5s-50.332-33-79-46-59.166-23.333-91.5-31-64.5-11.5-96.5-11.5c-70 0-135.5 13-196.5 39s-114.166 61.667-159.5 107-81 98.5-107 159.5-39 126.5-39 196.5c0 69.333 13 134.5 39 195.5s61.668 114.333 107 160 98.5 81.667 159.5 108 126.5 39.5 196.5 39.5c38.668 0 75.168-4.167 109.5-12.5s66.334-19.333 96-33 56.668-29.334 81-47 46.167-35.835 65.5-54.502z"/><glyph glyph-name="ordfeminine" unicode="ª" horiz-adv-x="838" d="M551 942c-28-22.667-58.003-40.833-90.003-54.5s-69-20.5-111-20.5c-36.667 0-70.167 5.333-100.5 16s-56.5 25.334-78.5 44-39 40.5-51 65.5-18 51.5-18 79.5c0 38.668 9 71.835 27 99.502s41.333 50.167 70 67.5 60.834 30 96.5 38 70.835 12 105.502 12c31.332 0 59.165-1.333 83.498-4s46.5-6 66.5-10v49c0 45.333-14.167 78.166-42.5 98.5s-65.5 30.5-111.5 30.5c-43.333 0-82.333-4.5-117-13.5s-63.667-20.168-87-33.5l-50 96c38 23.332 80.833 42.165 128.5 56.498s95.834 21.5 144.5 21.5c42.668 0 81.335-4.833 116.002-14.5s64.167-24.5 88.5-44.5 43-45.833 56-77.5S696 1374 696 1330v-313h82V886H551v56zm-176.003 42c36 0 69.833 6.67 101.5 20.004s56.5 29 74.5 47v136h-156c-21.333 0-41.333-2.333-60-7s-34.667-11.334-48-20-23.833-19.335-31.5-32.002-11.5-27.334-11.5-44c0-32.668 11.833-57.5 35.5-74.5s55.5-25.5 95.5-25.5z"/><glyph glyph-name="guillemotleft" unicode="«" horiz-adv-x="1040" d="M514 172H322L102 565l220 393h192L285 565zm424 0H745L526 565l219 393h193L709 565z"/><glyph glyph-name="logicalnot" unicode="¬" horiz-adv-x="1214" d="M1143 999V432H961v383H49v184h1094z"/><glyph glyph-name="SOFTHYPHEN" unicode="­" horiz-adv-x="0"/><glyph glyph-name="registered" unicode="®" horiz-adv-x="1919" d="M102 831c0 78.667 10.167 154.5 30.5 227.5s49 141.167 86 204.5S300 1384 352 1436s109.667 96.5 173 133.5 131.5 65.667 204.5 86S878.667 1686 958 1686c78.667 0 154.667-10.167 228-30.5s141.833-49 205.5-86 121.667-81.5 174-133.5 97.166-109.667 134.5-173 66.165-131.5 86.498-204.5 30.5-148.833 30.5-227.5c0-79.333-10.167-155.5-30.5-228.5s-49.166-141.167-86.5-204.5-82.165-121-134.498-173-110.333-96.5-174-133.5-132.167-65.667-205.5-86S1036.667-25 958-25c-79.333 0-155.5 10.167-228.5 30.5s-141.167 49-204.5 86S404 173 352 225s-96.5 109.667-133.5 173-65.667 131.5-86 204.5S102 751.667 102 831zm181 0c0-94.667 17.5-183.17 52.5-265.503s83-154 144-215 132.5-109 214.5-144 170-52.5 264-52.5 181.833 17.5 263.5 52.5 153.334 83 215 144 110 132.667 145 215 52.5 170.833 52.5 265.5c0 62.667-17.5 144.834-52.5 246.5s-83.332 181.168-145 238.5-133.333 103.5-215 138.5-169.5 52.5-263.5 52.5-182-17.5-264-52.5-153.5-81.166-214.5-138.5-109-129.165-144-215.498S283 924.332 283 831zm272-313.003l98 .004v670H551v158h483c48.668 0 92.668-7 132-21s72.667-33.332 100-58 48.5-53.833 63.5-87.5 22.5-69.834 22.5-108.5c0-32.668-3.333-61.668-10-87s-16.834-47.834-30.5-67.5-30.5-36.835-50.5-51.502-43-27.667-69-39c20.666-11.333 39.166-28.833 55.5-52.5s28.5-52.834 36.5-87.5l41-168h82l2-158h-256l-51 254c-9.334 56-30.667 96.332-64 121s-76.333 37-129 37h-67v-254h92v-158H555v158zM842 1188l.002-260h143c49.333 0 88.666 10.168 118 30.5s44 53.167 44 98.5c0 41.333-13.834 73.5-41.5 96.5S1035 1188 977 1188H842z"/><glyph glyph-name="macron" unicode="¯" horiz-adv-x="797" d="M797 1229H39v117h758v-117z"/><glyph glyph-name="degree" unicode="°" horiz-adv-x="682" d="M340 1737c32.667 0 63.5-6.333 92.5-19s54.5-30 76.5-52 39.333-47.5 52-76.5 19-59.833 19-92.5-6.333-63.334-19-92-30-53.835-52-75.502-47.5-38.667-76.5-51-59.833-18.5-92.5-18.5-63.5 6.167-92.5 18.5-54.167 29.333-75.5 51-38.333 46.834-51 75.5-19 59.335-19 92.002 6.333 63.5 19 92.5 29.667 54.5 51 76.5 46.5 39.333 75.5 52 59.833 19 92.5 19zm-135-240c0-18.667 3.5-36.167 10.5-52.5s16.667-30.666 29-43 26.666-22 43-29S321.33 1362 340 1362s36.166 3.5 52.5 10.5 30.832 16.668 43.5 29 22.666 26.667 30 43 11 33.833 11 52.5-3.668 36.167-11 52.5-17.334 30.833-30 43.5-27.168 22.667-43.5 30-33.834 11-52.5 11-36.168-3.667-52.5-11-30.667-17.333-43-30-22-27.167-29-43.5-10.5-33.833-10.5-52.5z"/><glyph glyph-name="plusminus" unicode="±" horiz-adv-x="1229" d="M102 893h420v420h183V893h421V711H705V309H522v402H102v182zm0-731h1024V0H102v162z"/><glyph glyph-name="twosuperior" unicode="²" horiz-adv-x="676" d="M55 944l274.996 276.998c20.667 21.333 39.5 43.833 56.5 67.5s25.5 48.167 25.5 73.5c0 12.667-2.667 24.834-8 36.5s-13 21.835-23 30.502-22.167 15.667-36.5 21-30.166 8-47.5 8c-35.332 0-63.665-10-84.998-30s-32.666-46-34-78H53c0 34.667 6.5 66.167 19.5 94.5s30.834 52.5 53.5 72.5 48.835 35.333 78.502 46 61.167 16 94.5 16c34.667 0 67-5 97-15s56-24.5 78-43.5 39.333-41.833 52-68.5 19-56.667 19-90c0-25.333-6.333-52-19-80s-33-56-61-84L230 963h313V842H55v102z"/><glyph glyph-name="threesuperior" unicode="³" horiz-adv-x="631" d="M428 1364c0 10.667-2.663 21.834-7.996 33.5s-13.166 22.168-23.5 31.5-23 17.167-38 23.5-32.166 9.5-51.5 9.5c-10.666 0-22.666-1.833-36-5.5s-25.665-9.5-36.998-17.5-21-18.167-29-30.5-12-27.166-12-44.5h-132c2 29.334 9.333 57.167 22 83.5s29.667 49.333 51 69 46.666 35.334 76 47 61 17.5 95 17.5c37.332 0 71.665-5.832 102.998-17.5s58.166-27.166 80.5-46.5 39.665-41.665 51.998-66.998 18.5-52 18.5-80c0-32-7.667-61.167-23-87.5s-38.333-47.833-69-64.5c28-12.667 52-32.834 72-60.5s30-61.168 30-100.5c0-32-6.667-61.834-20-89.5s-31.833-51.668-55.5-72-51.5-36.167-83.5-47.5-66.333-17-103-17c-32 0-63.333 4.833-94 14.5s-58 24-82 43-43.333 42-58 69-22 58.167-22 93.5h133c5.333-32 19.166-56.5 41.5-73.5s51.5-25.5 87.5-25.5c16.666 0 32.666 2.5 48 7.5s28.665 12.167 39.998 21.5 20.333 20.166 27 32.5 10 26.165 10 41.498c0 34-12 60.167-36 78.5s-55 27.5-93 27.5h-57v107h55c38 0 67.667 9 89 27s32 41 32 69z"/><glyph glyph-name="acute" unicode="´" horiz-adv-x="645" d="M297 1477h240v-17l-299-282H84z"/><glyph glyph-name="mu" unicode="µ" horiz-adv-x="1198" d="M1018 172h115V0H831v96c-46.668-36-97.5-64-152.5-84S564.665-18 502-18C445.33-18 396-9.667 354 7v-478H158v1507h196V391c0-79.333 18.332-139.333 55-180s89.333-61 158-61c40.667 0 83.5 7.333 128.5 22S783 207 823 233v803h195V172z"/><glyph glyph-name="paragraph" unicode="¶" horiz-adv-x="1274" d="M465 701c-62 4-118.998 16.833-170.998 38.5s-96.833 50-134.5 85-66.834 76.333-87.5 124S41 1048 41 1104c0 68 11.666 127.667 35 179s56.665 94.333 99.998 129 95.5 60.667 156.5 78 129.167 26 204.5 26h598v-162h-80V-369H874v1723H645V-369H465V701z"/><glyph glyph-name="periodcentered" unicode="·" horiz-adv-x="612" d="M174 666c0 17.333 3.5 33.833 10.5 49.5s16.333 29.334 28 41 25.5 21 41.5 28 33 10.5 51 10.5c17.333 0 33.833-3.5 49.5-10.5s29.334-16.332 41-28 21-25.333 28-41S434 683.333 434 666c0-18-3.5-35.167-10.5-51.5s-16.332-30.5-28-42.5-25.333-21.667-41-29-32.167-11-49.5-11c-18 0-35 3.667-51 11s-29.833 17-41.5 29-21 26.167-28 42.5S174 648 174 666z"/><glyph glyph-name="cedilla" unicode="¸" horiz-adv-x="940" d="M182-303c36.667.667 69.835 7.166 99.502 19.5s55.667 28.5 78 48.5 40.666 43.5 55 70.5S438.666-108.67 444-78l150-45c-12-48.668-30.667-92.168-56-130.5s-55.5-70.667-90.5-97S373.333-397 330-411s-89-21-137-21z"/><glyph glyph-name="onesuperior" unicode="¹" horiz-adv-x="508" d="M92 952h82v445l-141-76v139l217 119h59V952h80V840H92v112z"/><glyph glyph-name="ordmasculine" unicode="º" horiz-adv-x="934" d="M102 1217c0 52 9 100.168 27 144.5s43 82.667 75 115 70.334 57.666 115 76 94 27.5 148 27.5 103.334-8.834 148-26.5 83-42.5 115-74.5 56.834-70 74.5-114 26.5-92.334 26.5-145c0-53.334-8.666-102.167-26-146.5S763 991 731 959s-70.332-57-115-75-94.333-27-149-27-104.5 8.833-149.5 26.5S234 926 202 958s-56.667 70-74 114-26 92.333-26 145zm152 0c0-34.667 5.668-66 17-94s26.667-51.833 46-71.5 41.833-34.834 67.5-45.5 53.167-16 82.5-16c30 0 58 5.332 84 16s48.5 25.833 67.5 45.5 34 43.5 45 71.5 16.5 59.333 16.5 94c0 36.667-5.5 69.334-16.5 98s-26 52.5-45 71.5S577 1420 551 1430s-54 15-84 15c-29.333 0-56.833-5-82.5-15s-48.167-24.5-67.5-43.5-34.666-42.832-46-71.5-17-61.333-17-98z"/><glyph glyph-name="guillemotright" unicode="»" horiz-adv-x="1040" d="M332 565L102 958h193l219-393-219-393H102zm424 0L526 958h193l219-393-219-393H526z"/><glyph glyph-name="onequarter" unicode="¼" horiz-adv-x="2036" d="M1276 1577h199L199-61H0zM1080 303l280 457h148l-273-455h183v164h135V305h112V195h-112V0h-135v195h-336zM64 907h84v404l-129-72v162l217 121h70V907h81V778H64v129z"/><glyph glyph-name="onehalf" unicode="½" horiz-adv-x="1925" d="M1276 1577h199L199-61H0zM1039 121l274 276c22.668 20.667 41 42 55 64s21 43.667 21 65c0 23.333-9 43.5-27 60.5s-42.332 25.5-73 25.5c-33.332 0-59.5-9.5-78.5-28.5S1182 540.667 1182 512h-145c0 37.333 6.668 70.833 20 100.5s31.5 54.834 54.5 75.5 50.168 36.5 81.5 47.5 64.667 16.5 100 16.5c34 0 66.333-4.832 97-14.5s57.5-24 80.5-43 41.167-42.332 54.5-70 20-59.166 20-94.5c0-28-6.5-54.332-19.5-79s-31.167-49.333-54.5-74l-229-236h301V0h-504v121zM76 907h84v404l-129-72v162l217 121h70V907h82V778H76v129z"/><glyph glyph-name="threequarters" unicode="¾" horiz-adv-x="1935" d="M1337 1577h199L260-61H61zm-964-268c0 10-2.336 20.17-7.003 30.502s-11.5 20-20.5 29-20.333 16.333-34 22-29.5 8.5-47.5 8.5c-10 0-21-1.667-33-5s-23.167-8.833-33.5-16.5-18.833-17.334-25.5-29-10-25.5-10-41.5h-150c.667 31.332 7.334 60.832 20 88.5s30 51.666 52 72 48.334 36.5 79 48.5 64.335 18 101.002 18c37.332 0 72-5.834 104-17.5s59.5-27.5 82.5-47.5 41-43.168 54-69.5 19.5-53.834 19.5-82.5c0-32.668-7.168-62.168-21.5-88.5S467.332 1181 440 1165c12.667-6 24.667-14.168 36-24.5s21.333-22.5 30-36.5 15.5-29.334 20.5-46 7.5-34 7.5-52c0-32-6.833-62.334-20.5-91S481 861.166 457 839.5s-52.333-38.667-85-51S304 770 266 770c-36 0-70 5.333-102 16s-60.167 26-84.5 46-43.666 44.167-58 72.5S0 965 0 1001h151c4.668-30 17.168-53.5 37.5-70.5S236 905 270 905c16 0 30.834 2.667 44.5 8s25.668 12.833 36 22.5 18.334 20.667 24 33S383 994 383 1008c0 28.667-10.5 52.167-31.5 70.5S302 1106 266 1106h-65v113h67c33.334 0 59.167 8.5 77.5 25.5S373 1283 373 1309zM974.997 303.002l280 457h148l-273-455h183v164h135v-164h112v-110h-112v-195h-135v195h-336z"/><glyph glyph-name="questiondown" unicode="¿" horiz-adv-x="1030" d="M406 1022c0 17.333 3.5 33.833 10.5 49.5s16.333 29.334 28 41 25.5 21 41.5 28 33 10.5 51 10.5c17.333 0 33.833-3.5 49.5-10.5s29.334-16.332 41-28 21-25.333 28-41 10.5-32.167 10.5-49.5c0-18-3.5-35-10.5-51s-16.332-30.167-28-42.5-25.333-22-41-29S554.333 889 537 889c-18 0-35 3.5-51 10.5s-29.833 16.667-41.5 29-21 26.5-28 42.5-10.5 33-10.5 51zm217-242c0-69.333-2.5-129.836-7.5-181.503s-14.5-97.667-28.5-138-33.5-77.166-58.5-110.5S471.333 283.333 432 250c-35.333-30-67.5-56-96.5-78s-53.667-43.5-74-64.5-36.166-43.668-47.5-68-17-53.834-17-88.5c0-30 6-59 18-87s28.168-52.834 48.5-74.5 44.334-39.168 72-52.5 57.168-20 88.5-20c54 0 99 9.332 135 28s65 41.166 87 67.5 37.668 54 47 83 14 54.166 14 75.5l176-12c-4-56-17.832-109-41.5-159S786-293.835 746-331.5s-87.332-67.668-142-90S489.335-455 424-455c-67.332 0-126.832 11-178.5 33s-95 51.332-130 88-61.666 79.166-80 127.5S8-107.67 8-55C8 13 25.5 75.83 60.5 133.5S147 243.665 215 291c31.334 22 58.667 42.332 82 61s43.5 37.666 60.5 57 30.833 40 41.5 62 19.167 47.5 25.5 76.5 10.833 62.332 13.5 100 4 81.833 4 132.5h181z"/><glyph glyph-name="Agrave" unicode="À" horiz-adv-x="1542" d="M1040 172h126l-120 344H463L346 172h156V0H10v172h132l472 1344h295l471-1344h152V0h-492v172zM520 682h468l-236 678zm162 975l-287 282v17h248l184-299H682z"/><glyph glyph-name="Aacute" unicode="Á" horiz-adv-x="1542" d="M1040 172h126l-120 344H463L346 172h156V0H10v172h132l472 1344h295l471-1344h152V0h-492v172zM520 682h468l-236 678zm309 1274h240v-17l-299-282H616z"/><glyph glyph-name="Acircumflex" unicode="Â" horiz-adv-x="1542" d="M1040 172h126l-120 344H463L346 172h156V0H10v172h132l472 1344h295l471-1344h152V0h-492v172zM520 682h468l-236 678zm-22 973l250 313h63l252-313H914l-133 155-135-155H498z"/><glyph glyph-name="Atilde" unicode="Ã" horiz-adv-x="1542" d="M1040 172h126l-120 344H463L346 172h156V0H10v172h132l472 1344h295l471-1344h152V0h-492v172zM520 682h468l-236 678zm106 1212c33.333 0 62.166-5.5 86.5-16.5s47-23 68-36 41.832-24.833 62.5-35.5 44-16 70-16c18.666 0 36.833 6.333 54.5 19s29.5 33 35.5 61l119-35c-13.333-56.667-39.333-100.5-78-131.5s-85-46.5-139-46.5c-37.333 0-69 5.167-95 15.5s-49.667 21.5-71 33.5l-60 33.5c-18.667 10.333-39 15.5-61 15.5-10 0-20.167-.667-30.5-2s-20.5-4.5-30.5-9.5-19.167-12.667-27.5-23-14.833-24.833-19.5-43.5l-109 53c8.667 31.333 21 57.5 37 78.5s34 37.833 54 50.5 41.5 21.667 64.5 27 46.167 8 69.5 8z"/><glyph glyph-name="Adieresis" unicode="Ä" horiz-adv-x="1542" d="M1040 172h126l-120 344H463L346 172h156V0H10v172h132l472 1344h295l471-1344h152V0h-492v172zM520 682h468l-236 678zM383 1839c0 17.333 3.5 33.833 10.5 49.5s16.333 29.334 28 41 25.334 21 41 28S494.67 1968 512 1968c16.668 0 32.668-3.5 48-10.5s28.667-16.332 40-28 20.333-25.333 27-41 10-32.167 10-49.5c0-18-3.333-35-10-51s-15.667-30.167-27-42.5-24.666-22-40-29-31.332-10.5-48-10.5c-17.332 0-33.832 3.5-49.5 10.5s-29.333 16.667-41 29-21 26.5-28 42.5-10.5 33-10.5 51zm459 0c0 17.333 3.5 33.833 10.5 49.5s16.333 29.334 28 41 25.334 21 41 28S953.67 1968 971 1968c16.668 0 32.5-3.5 47.5-10.5s28.334-16.332 40-28 20.835-25.333 27.502-41 10-32.167 10-49.5c0-18-3.333-35-10-51s-15.834-30.167-27.5-42.5-25-22-40-29-30.834-10.5-47.5-10.5c-17.334 0-33.834 3.5-49.5 10.5s-29.335 16.667-41.002 29-21 26.5-28 42.5-10.5 33-10.5 51z"/><glyph glyph-name="Aring" unicode="Å" horiz-adv-x="1542" d="M1040 172h125l-121 344H463L346 172h156V0H10v172h131l463 1317c-31.332 23.334-55.832 52.667-73.5 88s-26.5 73.666-26.5 115c0 34 6.834 66.666 20.5 98s32 58.665 55 81.998 50 41.833 81 55.5 64.168 20.5 99.5 20.5c34 0 66.668-6.833 98-20.5s58.667-32.167 82-55.5 41.833-50.666 55.5-82 20.5-64 20.5-98c0-40-8.833-77.666-26.5-113S948 1514.334 918 1491l462-1319h152V0h-492v172zM520 682h467l-235 678zm135 1010c0-27.333 10.668-51.666 32-73s45.667-32 73-32 51.5 10.668 72.5 32 31.5 45.667 31.5 73-10.5 51.5-31.5 72.5-45.167 31.5-72.5 31.5-51.666-10.5-73-31.5-32-45.167-32-72.5z"/><glyph glyph-name="AE" unicode="Æ" horiz-adv-x="1915" d="M-2 172h106l816 1344h938v-429h-205v256h-465V862h379V690h-379V172h465v256h205V0H866v172h125v254H474L326 172h163V0H-2v172zm993 426v714L575 598h416z"/><glyph glyph-name="Ccedilla" unicode="Ç" horiz-adv-x="1503" d="M1219 1116c-44.667 76-103.83 135.665-177.497 178.998s-155.834 65-246.5 65c-77.334 0-148-16.333-212-49s-118.834-76.5-164.5-131.5-81.168-118.667-106.5-191-38-148.5-38-228.5c0-94.667 14-178.5 42-251.5s64.5-133.667 109.5-182 98.5-88.666 160.5-121 131.666-48.5 209-48.5c105.332 0 197 25.5 275 76.5s144.666 134.834 200 251.5l176-83c-25.334-72-68.334-141.5-129-208.5s-135.5-121-224.5-162-187.5-61.5-295.5-61.5c-103.334 0-198.334 19.5-285 58.5S348.167 123 280.5 195s-119.333 157.334-155 256S72 652.667 72 760c0 108 17.833 210 53.5 306s85.667 179.5 150 250.5 141 127 230 168S691 1546 795 1546c92.667 0 172.667-13.166 240-39.5s124.5-57.665 171.5-93.998 87.5-75.833 121.5-118.5h106v-178h-215zM510.004-303.002c36.667.667 69.835 7.166 99.502 19.5s55.667 28.5 78 48.5 40.666 43.5 55 70.5 24.165 55.832 29.498 86.5l150-45c-12-48.668-30.667-92.168-56-130.5s-55.5-70.667-90.5-97-74.167-46.5-117.5-60.5-89-21-137-21z"/><glyph glyph-name="Egrave" unicode="È" horiz-adv-x="1286" d="M143 1516h1086v-429h-205v256H483V858h455V686H483V172h541v256h205V0H143v172h144v1171H143v173zm508 141l-287 282v17h248l184-299H651z"/><glyph glyph-name="Eacute" unicode="É" horiz-adv-x="1286" d="M143 1516h1086v-429h-205v256H483V858h455V686H483V172h541v256h205V0H143v172h144v1171H143v173zm656 440h240v-17l-299-282H586z"/><glyph glyph-name="Ecircumflex" unicode="Ê" horiz-adv-x="1286" d="M143 1516h1086v-429h-205v256H483V858h455V686H483V172h541v256h205V0H143v172h144v1171H143v173zm324 139l250 313h63l252-313H883l-133 155-135-155H467z"/><glyph glyph-name="Edieresis" unicode="Ë" horiz-adv-x="1286" d="M143 1516h1086v-429h-205v256H483V858h455V686H483V172h541v256h205V0H143v172h144v1171H143v173zm209 323c0 17.333 3.5 33.833 10.5 49.5s16.333 29.334 28 41 25.334 21 41 28S463.67 1968 481 1968c16.668 0 32.668-3.5 48-10.5s28.667-16.332 40-28 20.333-25.333 27-41 10-32.167 10-49.5c0-18-3.333-35-10-51s-15.667-30.167-27-42.5-24.666-22-40-29-31.332-10.5-48-10.5c-17.332 0-33.832 3.5-49.5 10.5s-29.333 16.667-41 29-21 26.5-28 42.5-10.5 33-10.5 51zm459 0c0 17.333 3.5 33.833 10.5 49.5s16.333 29.334 28 41 25.334 21 41 28S922.67 1968 940 1968c16.668 0 32.5-3.5 47.5-10.5s28.334-16.332 40-28 20.835-25.333 27.502-41 10-32.167 10-49.5c0-18-3.333-35-10-51s-15.834-30.167-27.5-42.5-25-22-40-29-30.834-10.5-47.5-10.5c-17.334 0-33.834 3.5-49.5 10.5s-29.335 16.667-41.002 29-21 26.5-28 42.5-10.5 33-10.5 51z"/><glyph glyph-name="Igrave" unicode="Ì" horiz-adv-x="770" d="M143 1516h484v-173H483V172h144V0H143v172h144v1171H143v173zm169 141L25 1939v17h248l184-299H312z"/><glyph glyph-name="Iacute" unicode="Í" horiz-adv-x="770" d="M143 1516h484v-173H483V172h144V0H143v172h144v1171H143v173zm316 440h240v-17l-299-282H246z"/><glyph glyph-name="Icircumflex" unicode="Î" horiz-adv-x="770" d="M143 1516h484v-173H483V172h144V0H143v172h144v1171H143v173zm-15 139l250 313h63l252-313H544l-133 155-135-155H128z"/><glyph glyph-name="Idieresis" unicode="Ï" horiz-adv-x="770" d="M143 1516h484v-173H483V172h144V0H143v172h144v1171H143v173zm-38 323c0 35.333 12.667 65.666 38 91s55.666 38 91 38c16.666 0 32.833-3.5 48.5-10.5s29-16.168 40-27.5 19.833-25 26.5-41 10-32.668 10-50c0-18-3.333-35.168-10-51.5s-15.5-30.667-26.5-43-24.333-21.833-40-28.5-31.834-10-48.5-10c-35.334 0-65.667 13.333-91 40s-38 57.667-38 93zm315 0c0 35.333 12.667 65.666 38 91s55.666 38 91 38c16.666 0 32.833-3.5 48.5-10.5s29-16.168 40-27.5 19.833-25 26.5-41 10-32.668 10-50c0-18-3.333-35.168-10-51.5s-15.5-30.667-26.5-43-24.333-21.833-40-28.5-31.834-10-48.5-10c-35.334 0-65.667 13.333-91 40s-38 57.667-38 93z"/><glyph glyph-name="Eth" unicode="Ð" horiz-adv-x="1516" d="M139 1516h576c103.333 0 199.5-19.832 288.5-59.5s166.167-93.333 231.5-161 116.5-147.5 153.5-239.5 55.5-190 55.5-294c0-105.333-18.5-204.333-55.5-297s-88.167-173.5-153.5-242.5-142.5-123.333-231.5-163S818.333 0 715 0H139v172h156v504H127v172h168v495H139v173zm353-840V172.003h235c69.333 0 135.166 15.333 197.5 46s116.332 72.667 162 126 81.833 115.833 108.5 187.5 40 148.5 40 230.5-13.333 158.167-40 228.5-62.834 131.666-108.5 184-99.668 93.5-162 123.5-128.167 45-197.5 45H492V848h186V676H492z"/><glyph glyph-name="Ntilde" unicode="Ñ" horiz-adv-x="1624" d="M1081 1516h492v-173h-129V0h-256L483 1257V172h156V0H147v172h140v1171H143v175h408l692-1245 8 48v1022h-170v173zm-385 378c33.333 0 62.166-5.5 86.5-16.5s47-23 68-36 41.832-24.833 62.5-35.5 44-16 70-16c18.666 0 36.833 6.333 54.5 19s29.5 33 35.5 61l119-35c-13.333-56.667-39.333-100.5-78-131.5s-85-46.5-139-46.5c-37.333 0-69 5.167-95 15.5s-49.667 21.5-71 33.5l-60 33.5c-18.667 10.333-39 15.5-61 15.5-10 0-20.167-.667-30.5-2s-20.5-4.5-30.5-9.5-19.167-12.667-27.5-23-14.833-24.833-19.5-43.5l-109 53c8.667 31.333 21 57.5 37 78.5s34 37.833 54 50.5 41.5 21.667 64.5 27 46.167 8 69.5 8z"/><glyph glyph-name="Ograve" unicode="Ò" horiz-adv-x="1602" d="M799-30c-104.667 0-200.332 19.5-287 58.5S348 123 280 195 160.335 352.333 125 451 72 652 72 758c0 109.333 17.834 212 53.5 308s85.668 179.5 150 250.5 141 127 230 168S692.335 1546 799 1546c107.334 0 205.667-20.5 295-61.5s166-97 230-168 113.667-154.5 149-250.5 53-198.667 53-308-17.833-211.833-53.5-307.5-85.667-179.167-150-250.5-141-127.5-230-168.5S905.667-30 799-30zm.002 186c79.333 0 151.17 16.332 215.502 49s119.166 76.5 164.5 131.5 80.332 118.832 105 191.5 37 149.333 37 230c0 82.667-13.5 162.5-40.5 239.5s-64.668 142.167-113 195.5-104.5 94.5-168.5 123.5-130.668 43.5-200 43.5c-79.334 0-151.334-16.333-216-49s-119.668-76.5-165-131.5-80.334-119-105-192-37-149.5-37-229.5c0-93.333 13.666-176.5 41-249.5s63.5-133.667 108.5-182 98.666-88.833 161-121.5S719.668 156 799 156zm-75.997 1501l-287 282v17h248l184-299h-145z"/><glyph glyph-name="Oacute" unicode="Ó" horiz-adv-x="1602" d="M799-30c-104.667 0-200.332 19.5-287 58.5S348 123 280 195 160.335 352.333 125 451 72 652 72 758c0 109.333 17.834 212 53.5 308s85.668 179.5 150 250.5 141 127 230 168S692.335 1546 799 1546c107.334 0 205.667-20.5 295-61.5s166-97 230-168 113.667-154.5 149-250.5 53-198.667 53-308-17.833-211.833-53.5-307.5-85.667-179.167-150-250.5-141-127.5-230-168.5S905.667-30 799-30zm.002 186c79.333 0 151.17 16.332 215.502 49s119.166 76.5 164.5 131.5 80.332 118.832 105 191.5 37 149.333 37 230c0 82.667-13.5 162.5-40.5 239.5s-64.668 142.167-113 195.5-104.5 94.5-168.5 123.5-130.668 43.5-200 43.5c-79.334 0-151.334-16.333-216-49s-119.668-76.5-165-131.5-80.334-119-105-192-37-149.5-37-229.5c0-93.333 13.666-176.5 41-249.5s63.5-133.667 108.5-182 98.666-88.833 161-121.5S719.668 156 799 156zm71.003 1800h240v-17l-299-282h-154z"/><glyph glyph-name="Ocircumflex" unicode="Ô" horiz-adv-x="1602" d="M799-30c-104.667 0-200.332 19.5-287 58.5S348 123 280 195 160.335 352.333 125 451 72 652 72 758c0 109.333 17.834 212 53.5 308s85.668 179.5 150 250.5 141 127 230 168S692.335 1546 799 1546c107.334 0 205.667-20.5 295-61.5s166-97 230-168 113.667-154.5 149-250.5 53-198.667 53-308-17.833-211.833-53.5-307.5-85.667-179.167-150-250.5-141-127.5-230-168.5S905.667-30 799-30zm.002 186c79.333 0 151.17 16.332 215.502 49s119.166 76.5 164.5 131.5 80.332 118.832 105 191.5 37 149.333 37 230c0 82.667-13.5 162.5-40.5 239.5s-64.668 142.167-113 195.5-104.5 94.5-168.5 123.5-130.668 43.5-200 43.5c-79.334 0-151.334-16.333-216-49s-119.668-76.5-165-131.5-80.334-119-105-192-37-149.5-37-229.5c0-93.333 13.666-176.5 41-249.5s63.5-133.667 108.5-182 98.666-88.833 161-121.5S719.668 156 799 156zM539.005 1655l250 313h63l252-313h-149l-133 155-135-155h-148z"/><glyph glyph-name="Otilde" unicode="Õ" horiz-adv-x="1602" d="M799-30c-104.667 0-200.332 19.5-287 58.5S348 123 280 195 160.335 352.333 125 451 72 652 72 758c0 109.333 17.834 212 53.5 308s85.668 179.5 150 250.5 141 127 230 168S692.335 1546 799 1546c107.334 0 205.667-20.5 295-61.5s166-97 230-168 113.667-154.5 149-250.5 53-198.667 53-308-17.833-211.833-53.5-307.5-85.667-179.167-150-250.5-141-127.5-230-168.5S905.667-30 799-30zm.002 186c79.333 0 151.17 16.332 215.502 49s119.166 76.5 164.5 131.5 80.332 118.832 105 191.5 37 149.333 37 230c0 82.667-13.5 162.5-40.5 239.5s-64.668 142.167-113 195.5-104.5 94.5-168.5 123.5-130.668 43.5-200 43.5c-79.334 0-151.334-16.333-216-49s-119.668-76.5-165-131.5-80.334-119-105-192-37-149.5-37-229.5c0-93.333 13.666-176.5 41-249.5s63.5-133.667 108.5-182 98.666-88.833 161-121.5S719.668 156 799 156zM667.005 1894c33.333 0 62.166-5.5 86.5-16.5s47-23 68-36 41.832-24.833 62.5-35.5 44-16 70-16c18.666 0 36.833 6.333 54.5 19s29.5 33 35.5 61l119-35c-13.333-56.667-39.333-100.5-78-131.5s-85-46.5-139-46.5c-37.333 0-69 5.167-95 15.5s-49.667 21.5-71 33.5l-60 33.5c-18.667 10.333-39 15.5-61 15.5-10 0-20.167-.667-30.5-2s-20.5-4.5-30.5-9.5-19.167-12.667-27.5-23-14.833-24.833-19.5-43.5l-109 53c8.667 31.333 21 57.5 37 78.5s34 37.833 54 50.5 41.5 21.667 64.5 27 46.167 8 69.5 8z"/><glyph glyph-name="Odieresis" unicode="Ö" horiz-adv-x="1602" d="M799-30c-104.667 0-200.332 19.5-287 58.5S348 123 280 195 160.335 352.333 125 451 72 652 72 758c0 109.333 17.834 212 53.5 308s85.668 179.5 150 250.5 141 127 230 168S692.335 1546 799 1546c107.334 0 205.667-20.5 295-61.5s166-97 230-168 113.667-154.5 149-250.5 53-198.667 53-308-17.833-211.833-53.5-307.5-85.667-179.167-150-250.5-141-127.5-230-168.5S905.667-30 799-30zm.002 186c79.333 0 151.17 16.332 215.502 49s119.166 76.5 164.5 131.5 80.332 118.832 105 191.5 37 149.333 37 230c0 82.667-13.5 162.5-40.5 239.5s-64.668 142.167-113 195.5-104.5 94.5-168.5 123.5-130.668 43.5-200 43.5c-79.334 0-151.334-16.333-216-49s-119.668-76.5-165-131.5-80.334-119-105-192-37-149.5-37-229.5c0-93.333 13.666-176.5 41-249.5s63.5-133.667 108.5-182 98.666-88.833 161-121.5S719.668 156 799 156zM424.005 1839c0 17.333 3.5 33.833 10.5 49.5s16.333 29.334 28 41 25.334 21 41 28 32.168 10.5 49.5 10.5c16.668 0 32.668-3.5 48-10.5s28.667-16.332 40-28 20.333-25.333 27-41 10-32.167 10-49.5c0-18-3.333-35-10-51s-15.667-30.167-27-42.5-24.666-22-40-29-31.332-10.5-48-10.5c-17.332 0-33.832 3.5-49.5 10.5s-29.333 16.667-41 29-21 26.5-28 42.5-10.5 33-10.5 51zm459 0c0 17.333 3.5 33.833 10.5 49.5s16.333 29.334 28 41 25.334 21 41 28 32.168 10.5 49.5 10.5c16.668 0 32.5-3.5 47.5-10.5s28.334-16.332 40-28 20.835-25.333 27.502-41 10-32.167 10-49.5c0-18-3.333-35-10-51s-15.834-30.167-27.5-42.5-25-22-40-29-30.834-10.5-47.5-10.5c-17.334 0-33.834 3.5-49.5 10.5s-29.335 16.667-41.002 29-21 26.5-28 42.5-10.5 33-10.5 51z"/><glyph glyph-name="multiply" unicode="×" horiz-adv-x="1303" d="M525 676l-373 448 145 123 353-422 341 408 160-115-373-447 377-450-151-119-350 420L299 96 133 207z"/><glyph glyph-name="Oslash" unicode="Ø" horiz-adv-x="1593" d="M263 218c-60 70.667-106.167 151.998-138.5 243.998S76 652.665 76 757.998c0 72.667 8.167 142.667 24.5 210s39.5 130.333 69.5 189 66.5 111.834 109.5 159.5S371 1405 425 1439s112.667 60.334 176 79 130.666 28 202 28c76.666 0 148.333-10.666 215-32s128.334-51 185-89l140 179h199l-220-282c66-72 117.168-156 153.5-252s54.5-200 54.5-312c0-72.666-8.166-142.666-24.5-210S1466 417.834 1436 359.5 1369.5 248 1326.5 200 1235 110.833 1181 76.5 1068.17 15.667 1004.5-3 873.668-31 803-31c-82.667 0-159.667 12.167-231 36.5S435.667 64.333 377 109L266-34H67zm540-60.002c79.333 0 151 16.167 215 48.5s118.668 76 164 131 80.167 118.667 104.5 191 36.5 148.833 36.5 229.5c0 75.333-11 147.5-33 216.5s-53.333 130.5-94 184.5l-698-895c41.333-34 87.5-60.167 138.5-78.5s106.5-27.5 166.5-27.5zm-412 223l692 890c-39.334 28-82.334 49.833-129 65.5s-97 23.5-151 23.5c-79.334 0-151.167-16.333-215.5-49s-119.166-76.5-164.5-131.5-80.332-119-105-192-37-149.5-37-229.5c0-70.667 9.334-138 28-202s46-122.333 82-175z"/><glyph glyph-name="Ugrave" unicode="Ù" horiz-adv-x="1559" d="M63 1516l491.003.003v-173h-155v-706c0-84.667 9.5-156.834 28.5-216.5s45.333-108.335 79-146.002 73.667-65.166 120-82.5 97.166-26 152.5-26c57.332 0 110 7.668 158 23s89.166 41.167 123.5 77.5 61 84.666 80 145 28.5 135.5 28.5 225.5v706h-164v173h491v-173h-135V659c0-109.334-15.168-206.334-45.5-291s-71.834-155.668-124.5-213-114.668-100.834-186-130.5-148-44.5-230-44.5c-80 0-154.834 14.666-224.5 44S420.167 96.33 368.5 153s-92.333 125.833-122 207.5S202 535.667 202 641v702H63v173zm691.003 141l-287 282v17h248l184-299h-145z"/><glyph glyph-name="Uacute" unicode="Ú" horiz-adv-x="1559" d="M63 1516l491.003.003v-173h-155v-706c0-84.667 9.5-156.834 28.5-216.5s45.333-108.335 79-146.002 73.667-65.166 120-82.5 97.166-26 152.5-26c57.332 0 110 7.668 158 23s89.166 41.167 123.5 77.5 61 84.666 80 145 28.5 135.5 28.5 225.5v706h-164v173h491v-173h-135V659c0-109.334-15.168-206.334-45.5-291s-71.834-155.668-124.5-213-114.668-100.834-186-130.5-148-44.5-230-44.5c-80 0-154.834 14.666-224.5 44S420.167 96.33 368.5 153s-92.333 125.833-122 207.5S202 535.667 202 641v702H63v173zm838.003 440h240v-17l-299-282h-154z"/><glyph glyph-name="Ucircumflex" unicode="Û" horiz-adv-x="1559" d="M63 1516l491.003.003v-173h-155v-706c0-84.667 9.5-156.834 28.5-216.5s45.333-108.335 79-146.002 73.667-65.166 120-82.5 97.166-26 152.5-26c57.332 0 110 7.668 158 23s89.166 41.167 123.5 77.5 61 84.666 80 145 28.5 135.5 28.5 225.5v706h-164v173h491v-173h-135V659c0-109.334-15.168-206.334-45.5-291s-71.834-155.668-124.5-213-114.668-100.834-186-130.5-148-44.5-230-44.5c-80 0-154.834 14.666-224.5 44S420.167 96.33 368.5 153s-92.333 125.833-122 207.5S202 535.667 202 641v702H63v173zm454.003 139l250 313h63l252-313h-149l-133 155-135-155h-148z"/><glyph glyph-name="Udieresis" unicode="Ü" horiz-adv-x="1559" d="M63 1516l491.003.003v-173h-155v-706c0-84.667 9.5-156.834 28.5-216.5s45.333-108.335 79-146.002 73.667-65.166 120-82.5 97.166-26 152.5-26c57.332 0 110 7.668 158 23s89.166 41.167 123.5 77.5 61 84.666 80 145 28.5 135.5 28.5 225.5v706h-164v173h491v-173h-135V659c0-109.334-15.168-206.334-45.5-291s-71.834-155.668-124.5-213-114.668-100.834-186-130.5-148-44.5-230-44.5c-80 0-154.834 14.666-224.5 44S420.167 96.33 368.5 153s-92.333 125.833-122 207.5S202 535.667 202 641v702H63v173zm356.003 323c0 17.333 3.5 33.833 10.5 49.5s16.333 29.334 28 41 25.334 21 41 28 32.168 10.5 49.5 10.5c16.668 0 32.668-3.5 48-10.5s28.667-16.332 40-28 20.333-25.333 27-41 10-32.167 10-49.5c0-18-3.333-35-10-51s-15.667-30.167-27-42.5-24.666-22-40-29-31.332-10.5-48-10.5c-17.332 0-33.832 3.5-49.5 10.5s-29.333 16.667-41 29-21 26.5-28 42.5-10.5 33-10.5 51zm459 0c0 17.333 3.5 33.833 10.5 49.5s16.333 29.334 28 41 25.334 21 41 28 32.168 10.5 49.5 10.5c16.668 0 32.5-3.5 47.5-10.5s28.334-16.332 40-28 20.835-25.333 27.502-41 10-32.167 10-49.5c0-18-3.333-35-10-51s-15.834-30.167-27.5-42.5-25-22-40-29-30.834-10.5-47.5-10.5c-17.334 0-33.834 3.5-49.5 10.5s-29.335 16.667-41.002 29-21 26.5-28 42.5-10.5 33-10.5 51z"/><glyph glyph-name="Yacute" unicode="Ý" horiz-adv-x="1354" d="M51 1516h492v-173H399l285-487 305 487H831v173h492v-173h-129L768 697V172h156V0H432v172h139v530l-402 641H51v173zm746 440h240v-17l-299-282H584z"/><glyph glyph-name="Thorn" unicode="Þ" horiz-adv-x="1323" d="M106 1516h492v-173H440v-134l328-1c67.333 0 129.5-8.667 186.5-26s106.333-43.333 148-78 74.167-77.5 97.5-128.5 35-109.833 35-176.5c0-55.333-11.333-107.5-34-156.5s-54.5-91.833-95.5-128.5-90.5-65.667-148.5-87-122.333-32-193-32H440V172h156V0H104v172h140v1171H106v173zm334-480V559h328c38 0 72.833 5.166 104.5 15.5s59 25.5 82 45.5 41 45 54 75 19.5 64.666 19.5 104c0 61.332-12.5 108.332-37.5 141s-56 56.833-93 72.5S809 1036 743 1036H440z"/><glyph glyph-name="germandbls" unicode="ß" horiz-adv-x="1247" d="M588 964l77.995.004c42.667 2 73.834 8.667 93.5 20s36.835 25 51.502 41 26 33.833 34 53.5 12 39.5 12 59.5c0 33.333-6 64.666-18 94s-28.833 54.332-50.5 75-47.667 36.333-78 47-63.833 16-100.5 16c-32 0-61.333-5.833-88-17.5s-49.167-27.834-67.5-48.5-32.5-45.335-42.5-74.002-15-60-15-94V.002h-381v172h185v987c0 46.667 9.167 93.667 27.5 141s44.833 90 79.5 128 77.334 68.833 128 92.5 109.335 35.5 176.002 35.5c62 0 119.666-10.667 173-32s99.5-50.833 138.5-88.5 69.666-82 92-133 33.5-104.5 33.5-160.5c0-30.667-3-58.834-9-84.5s-14-49.335-24-71.002-21.334-41-34-58-25.668-32.167-39-45.5c34-22 64.832-47.667 92.5-77s51.166-60.166 70.5-92.5 34.5-69 45.5-110S1168 519.335 1168 474c0-67.332-13.168-131.5-39.5-192.5s-62.334-113.5-108-157.5-99-78-160-102S734.665-14 666-14c-26 0-52 2-78 6v188c13.332-3.332 26.332-5.832 39-7.5s25.666-2.5 39-2.5c43.332 0 83.832 8.168 121.5 24.5S858 233.335 886 262s50 62 66 100 24 75.334 24 112c0 43.334-8.334 84.167-25 122.5s-39 70-67 95-60.668 45.667-98 62S709.332 778 668 778h-80v186z"/><glyph glyph-name="agrave" unicode="à" horiz-adv-x="1120" d="M709 96c-39.333-36.667-82.833-66.67-130.5-90.003s-101.834-35-162.5-35c-50.668 0-97.168 8-139.5 24S197.665 32.83 167 60.497s-54.5 59.834-71.5 96.5-25.5 75.668-25.5 117c0 44 6.5 83 19.5 117s30.332 63.5 52 88.5 47 46 76 63 59.332 30.668 91 41 64 17.667 97 22 64.5 6.5 94.5 6.5c48 0 88.332-1.5 121-4.5s62.333-7.167 89-12.5l1 85c0 36.667-5.333 68.5-16 95.5s-25.667 49.333-45 67-42.5 30.834-69.5 39.5-57.167 13-90.5 13c-31.333 0-61.333-2.166-90-6.5s-55.5-10-80.5-17-48-15-69-24-38.833-18.5-53.5-28.5l-61 129c24.667 16 51.667 30.834 81 44.5s60.166 25.335 92.5 35.002 65.332 17.333 99 23 66.833 8.5 99.5 8.5c60 0 114-7.167 162-21.5s88.667-36.5 122-66.5 59-68.167 77-114.5 27-101.833 27-166.5l-1-518h115V0H709v96zm-252 30.997c24.667 0 49.334 2.998 74 8.998s48 14.167 70 24.5 42.334 22.333 61 36 34.335 27.834 47.002 42.5l1 234h-216c-36 0-68.833-4-98.5-12s-55.334-19.666-77-35-38.5-34.332-50.5-57-18-48.666-18-78c0-27.332 5-51.165 15-71.498s24.166-37.333 42.5-51 40.165-24 65.498-31 53.333-10.5 84-10.5zM446 1178l-287 282v17h248l184-299H446z"/><glyph glyph-name="aacute" unicode="á" horiz-adv-x="1120" d="M709 96c-39.333-36.667-82.833-66.67-130.5-90.003s-101.834-35-162.5-35c-50.668 0-97.168 8-139.5 24S197.665 32.83 167 60.497s-54.5 59.834-71.5 96.5-25.5 75.668-25.5 117c0 44 6.5 83 19.5 117s30.332 63.5 52 88.5 47 46 76 63 59.332 30.668 91 41 64 17.667 97 22 64.5 6.5 94.5 6.5c48 0 88.332-1.5 121-4.5s62.333-7.167 89-12.5l1 85c0 36.667-5.333 68.5-16 95.5s-25.667 49.333-45 67-42.5 30.834-69.5 39.5-57.167 13-90.5 13c-31.333 0-61.333-2.166-90-6.5s-55.5-10-80.5-17-48-15-69-24-38.833-18.5-53.5-28.5l-61 129c24.667 16 51.667 30.834 81 44.5s60.166 25.335 92.5 35.002 65.332 17.333 99 23 66.833 8.5 99.5 8.5c60 0 114-7.167 162-21.5s88.667-36.5 122-66.5 59-68.167 77-114.5 27-101.833 27-166.5l-1-518h115V0H709v96zm-252 30.997c24.667 0 49.334 2.998 74 8.998s48 14.167 70 24.5 42.334 22.333 61 36 34.335 27.834 47.002 42.5l1 234h-216c-36 0-68.833-4-98.5-12s-55.334-19.666-77-35-38.5-34.332-50.5-57-18-48.666-18-78c0-27.332 5-51.165 15-71.498s24.166-37.333 42.5-51 40.165-24 65.498-31 53.333-10.5 84-10.5zM594 1477h240v-17l-299-282H381z"/><glyph glyph-name="acircumflex" unicode="â" horiz-adv-x="1120" d="M709 96c-39.333-36.667-82.833-66.67-130.5-90.003s-101.834-35-162.5-35c-50.668 0-97.168 8-139.5 24S197.665 32.83 167 60.497s-54.5 59.834-71.5 96.5-25.5 75.668-25.5 117c0 44 6.5 83 19.5 117s30.332 63.5 52 88.5 47 46 76 63 59.332 30.668 91 41 64 17.667 97 22 64.5 6.5 94.5 6.5c48 0 88.332-1.5 121-4.5s62.333-7.167 89-12.5l1 85c0 36.667-5.333 68.5-16 95.5s-25.667 49.333-45 67-42.5 30.834-69.5 39.5-57.167 13-90.5 13c-31.333 0-61.333-2.166-90-6.5s-55.5-10-80.5-17-48-15-69-24-38.833-18.5-53.5-28.5l-61 129c24.667 16 51.667 30.834 81 44.5s60.166 25.335 92.5 35.002 65.332 17.333 99 23 66.833 8.5 99.5 8.5c60 0 114-7.167 162-21.5s88.667-36.5 122-66.5 59-68.167 77-114.5 27-101.833 27-166.5l-1-518h115V0H709v96zm-252 30.997c24.667 0 49.334 2.998 74 8.998s48 14.167 70 24.5 42.334 22.333 61 36 34.335 27.834 47.002 42.5l1 234h-216c-36 0-68.833-4-98.5-12s-55.334-19.666-77-35-38.5-34.332-50.5-57-18-48.666-18-78c0-27.332 5-51.165 15-71.498s24.166-37.333 42.5-51 40.165-24 65.498-31 53.333-10.5 84-10.5zM262 1176l250 313h63l252-313H678l-133 155-135-155H262z"/><glyph glyph-name="atilde" unicode="ã" horiz-adv-x="1120" d="M709 96c-39.333-36.667-82.833-66.67-130.5-90.003s-101.834-35-162.5-35c-50.668 0-97.168 8-139.5 24S197.665 32.83 167 60.497s-54.5 59.834-71.5 96.5-25.5 75.668-25.5 117c0 44 6.5 83 19.5 117s30.332 63.5 52 88.5 47 46 76 63 59.332 30.668 91 41 64 17.667 97 22 64.5 6.5 94.5 6.5c48 0 88.332-1.5 121-4.5s62.333-7.167 89-12.5l1 85c0 36.667-5.333 68.5-16 95.5s-25.667 49.333-45 67-42.5 30.834-69.5 39.5-57.167 13-90.5 13c-31.333 0-61.333-2.166-90-6.5s-55.5-10-80.5-17-48-15-69-24-38.833-18.5-53.5-28.5l-61 129c24.667 16 51.667 30.834 81 44.5s60.166 25.335 92.5 35.002 65.332 17.333 99 23 66.833 8.5 99.5 8.5c60 0 114-7.167 162-21.5s88.667-36.5 122-66.5 59-68.167 77-114.5 27-101.833 27-166.5l-1-518h115V0H709v96zm-252 30.997c24.667 0 49.334 2.998 74 8.998s48 14.167 70 24.5 42.334 22.333 61 36 34.335 27.834 47.002 42.5l1 234h-216c-36 0-68.833-4-98.5-12s-55.334-19.666-77-35-38.5-34.332-50.5-57-18-48.666-18-78c0-27.332 5-51.165 15-71.498s24.166-37.333 42.5-51 40.165-24 65.498-31 53.333-10.5 84-10.5zM391 1415c33.333 0 62.166-5.5 86.5-16.5s47-23 68-36 41.832-24.833 62.5-35.5 44-16 70-16c18.666 0 36.833 6.333 54.5 19s29.5 33 35.5 61l119-35c-13.333-56.667-39.333-100.5-78-131.5s-85-46.5-139-46.5c-37.333 0-69 5.167-95 15.5s-49.667 21.5-71 33.5l-60 33.5c-18.667 10.333-39 15.5-61 15.5-10 0-20.167-.667-30.5-2s-20.5-4.5-30.5-9.5-19.167-12.667-27.5-23-14.833-24.833-19.5-43.5l-109 53c8.667 31.333 21 57.5 37 78.5s34 37.833 54 50.5 41.5 21.667 64.5 27 46.167 8 69.5 8z"/><glyph glyph-name="adieresis" unicode="ä" horiz-adv-x="1120" d="M709 96c-39.333-36.667-82.833-66.67-130.5-90.003s-101.834-35-162.5-35c-50.668 0-97.168 8-139.5 24S197.665 32.83 167 60.497s-54.5 59.834-71.5 96.5-25.5 75.668-25.5 117c0 44 6.5 83 19.5 117s30.332 63.5 52 88.5 47 46 76 63 59.332 30.668 91 41 64 17.667 97 22 64.5 6.5 94.5 6.5c48 0 88.332-1.5 121-4.5s62.333-7.167 89-12.5l1 85c0 36.667-5.333 68.5-16 95.5s-25.667 49.333-45 67-42.5 30.834-69.5 39.5-57.167 13-90.5 13c-31.333 0-61.333-2.166-90-6.5s-55.5-10-80.5-17-48-15-69-24-38.833-18.5-53.5-28.5l-61 129c24.667 16 51.667 30.834 81 44.5s60.166 25.335 92.5 35.002 65.332 17.333 99 23 66.833 8.5 99.5 8.5c60 0 114-7.167 162-21.5s88.667-36.5 122-66.5 59-68.167 77-114.5 27-101.833 27-166.5l-1-518h115V0H709v96zm-252 30.997c24.667 0 49.334 2.998 74 8.998s48 14.167 70 24.5 42.334 22.333 61 36 34.335 27.834 47.002 42.5l1 234h-216c-36 0-68.833-4-98.5-12s-55.334-19.666-77-35-38.5-34.332-50.5-57-18-48.666-18-78c0-27.332 5-51.165 15-71.498s24.166-37.333 42.5-51 40.165-24 65.498-31 53.333-10.5 84-10.5zM148 1360c0 17.333 3.5 33.833 10.5 49.5s16.333 29.334 28 41 25.334 21 41 28S259.67 1489 277 1489c16.668 0 32.668-3.5 48-10.5s28.667-16.332 40-28 20.333-25.333 27-41 10-32.167 10-49.5c0-18-3.333-35-10-51s-15.667-30.167-27-42.5-24.666-22-40-29-31.332-10.5-48-10.5c-17.332 0-33.832 3.5-49.5 10.5s-29.333 16.667-41 29-21 26.5-28 42.5-10.5 33-10.5 51zm459 0c0 17.333 3.5 33.833 10.5 49.5s16.333 29.334 28 41 25.334 21 41 28S718.67 1489 736 1489c16.668 0 32.5-3.5 47.5-10.5s28.334-16.332 40-28 20.835-25.333 27.502-41 10-32.167 10-49.5c0-18-3.333-35-10-51s-15.834-30.167-27.5-42.5-25-22-40-29-30.834-10.5-47.5-10.5c-17.334 0-33.834 3.5-49.5 10.5s-29.335 16.667-41.002 29-21 26.5-28 42.5-10.5 33-10.5 51z"/><glyph glyph-name="aring" unicode="å" horiz-adv-x="1120" d="M709 96c-39.333-36.667-82.833-66.67-130.5-90.003s-101.834-35-162.5-35c-50.668 0-97.168 8-139.5 24S197.665 32.83 167 60.497s-54.5 59.834-71.5 96.5-25.5 75.668-25.5 117c0 44 6.5 83 19.5 117s30.332 63.5 52 88.5 47 46 76 63 59.332 30.668 91 41 64 17.667 97 22 64.5 6.5 94.5 6.5c48 0 88.332-1.5 121-4.5s62.333-7.167 89-12.5l1 85c0 36.667-5.333 68.5-16 95.5s-25.667 49.333-45 67-42.5 30.834-69.5 39.5-57.167 13-90.5 13c-31.333 0-61.333-2.166-90-6.5s-55.5-10-80.5-17-48-15-69-24-38.833-18.5-53.5-28.5l-61 129c24.667 16 51.667 30.834 81 44.5s60.166 25.335 92.5 35.002 65.332 17.333 99 23 66.833 8.5 99.5 8.5c60 0 114-7.167 162-21.5s88.667-36.5 122-66.5 59-68.167 77-114.5 27-101.833 27-166.5l-1-518h115V0H709v96zm-252 30.997c24.667 0 49.334 2.998 74 8.998s48 14.167 70 24.5 42.334 22.333 61 36 34.335 27.834 47.002 42.5l1 234h-216c-36 0-68.833-4-98.5-12s-55.334-19.666-77-35-38.5-34.332-50.5-57-18-48.666-18-78c0-27.332 5-51.165 15-71.498s24.166-37.333 42.5-51 40.165-24 65.498-31 53.333-10.5 84-10.5zM421 1343c0-14 2.833-27.167 8.5-39.5s13.334-23.333 23-33 20.668-17.334 33-23 25.5-8.5 39.5-8.5 27.334 2.832 40 8.5 23.835 13.333 33.502 23 17.334 20.667 23 33 8.5 25.5 8.5 39.5-2.832 27.333-8.5 40-13.333 23.834-23 33.5-20.834 17.335-33.5 23.002-26 8.5-40 8.5-27.168-2.833-39.5-8.5-23.334-13.334-33-23-17.335-20.835-23.002-33.502-8.5-26-8.5-40zm104 256c34.667 0 67.667-6.833 99-20.5s58.5-32 81.5-55 41.333-50.167 55-81.5 20.5-64.333 20.5-99-6.833-67.5-20.5-98.5-32-58.167-55-81.5-50.167-41.833-81.5-55.5-64.333-20.5-99-20.5-67.5 6.833-98.5 20.5-58.167 32.167-81.5 55.5-41.833 50.5-55.5 81.5-20.5 63.833-20.5 98.5 6.833 67.667 20.5 99 32.167 58.5 55.5 81.5 50.5 41.333 81.5 55 63.833 20.5 98.5 20.5z"/><glyph glyph-name="ae" unicode="æ" horiz-adv-x="1784" d="M481 606c88 0 158.668-7.003 212-21.003v3l1 92c.668 36.667-4.332 68.5-15 95.5s-25.833 49.333-45.5 67-43.334 30.834-71 39.5-58.168 13-91.5 13c-31.334 0-61.334-2.166-90-6.5s-55.5-10-80.5-17-48-15-69-24-38.834-18.5-53.5-28.5l-61 129c24.666 16 51.666 30.834 81 44.5s60.165 25.335 92.498 35.002 65.333 17.333 99 23 66.834 8.5 99.5 8.5c76.668 0 143.168-11.833 199.5-35.5S789 963 821 913c41.334 46.667 91.5 83.334 150.5 110s127.834 40 206.5 40c78 0 143.168-11.832 195.5-35.5s95-55 128-94 58-83.5 75-133.5 28.834-101 35.5-153c3.334-25.332 5.5-51 6.5-77s1.5-51.332 1.5-76H874c0-36 3-70 9-102s16.334-64.666 31-98 49.168-66.832 103.5-100.5S1133.333 143 1202 143c54 0 106.5 7.5 157.5 22.5S1464 204 1520 236l75-127c-68-46.666-136.332-81.333-205-104s-140-34-214-34c-78.666 0-150 14.167-214 42.5S844 84.666 800 142c-21.332-26-46.165-49.668-74.498-71S666.334 31.665 633 17 564.67-9 528-17s-73.333-12-110-12c-56 0-106.5 8-151.5 24S183 32.83 151 60.5 94.333 120.332 77 157s-26 75.667-26 117c0 43.333 6.5 81.666 19.5 115s30.333 62.332 52 87 47 45.333 76 62 59.333 30 91 40 64 17.167 97 21.5S451 606 481 606zm-43-479.003c64.668 0 121.836 12.167 171.503 36.5s91.5 56.5 125.5 96.5c-25.333 62.667-40 135-44 217h-216c-36 0-68.833-4-98.5-12s-55.334-19.667-77-35-38.5-34.333-50.5-57-18-48.667-18-78c0-28 5-52.5 15-73.5s24.166-38.5 42.5-52.5 40.165-24.5 65.498-31.5 53.334-10.5 84-10.5zm727 780c-43.333 0-81.164-6.17-113.497-18.502s-59.833-30-82.5-53-40.834-51.167-54.5-84.5-23.835-70.666-30.502-112h537c-2.666 38.668-8.833 74.335-18.5 107.002s-24.5 61-44.5 85-45.667 42.667-77 56-70 20-116 20z"/><glyph glyph-name="ccedilla" unicode="ç" horiz-adv-x="1116" d="M848 760c-28 50-63.502 86.67-106.502 110.003s-92.833 35-149.5 35c-43.333 0-84-9-122-27s-71.167-43.667-99.5-77-50.666-73.833-67-121.5S279 578.67 279 520.003c0-58 8.168-110.334 24.5-157s38.834-86.5 67.5-119.5 61.835-58.334 99.502-76 78.167-26.5 121.5-26.5c64 0 119.667 15.5 167 46.5s85 76.5 113 136.5l154-76c-20-42.668-44.667-81-74-115s-62.5-63-99.5-87-77.667-42.5-122-55.5-91.166-19.5-140.5-19.5c-72 0-138.5 13.5-199.5 40.5s-113.666 64.832-158 113.5-78.832 106.666-103.5 174-37 141-37 221 13 153.666 39 221S192.67 866.167 238 914.5s98.334 86.167 159 113.5 125.668 41 195 41c65.334 0 127.167-11.333 185.5-34S887 978 931 932h105V760H848zM322.998-302.997c36.667.667 69.835 7.166 99.502 19.5s55.667 28.5 78 48.5 40.666 43.5 55 70.5 24.165 55.832 29.498 86.5l150-45c-12-48.668-30.667-92.168-56-130.5s-55.5-70.667-90.5-97-74.167-46.5-117.5-60.5-89-21-137-21z"/><glyph glyph-name="egrave" unicode="è" d="M276 494c0-29.333 2.166-56.165 6.5-80.498s10.5-47.5 18.5-69.5c24.666-66.667 64.166-116.834 118.5-150.5S535.33 143 604 143c54 0 106.5 7.5 157.5 22.5S866 204 922 236l75-127C929 62.333 860.665 27.666 792 5S652-29 578-29c-70 0-134.834 11.667-194.5 35s-111 58-154 104-76.668 103.333-101 172S92 430.667 92 522c0 74 10.332 143.833 31 209.5s51.5 123 92.5 172S307.33 991.333 368 1020s131.333 43 212 43c78 0 143.167-11.833 195.5-35.5s95-55 128-94 58-83.5 75-133.5 28.833-101 35.5-153c3.333-25.333 5.5-51 6.5-77s1.5-51.333 1.5-76H276zm291 413c-43.334 0-81.165-6.168-113.498-18.5s-59.833-30-82.5-53-40.834-51.168-54.5-84.5S292.666 680.332 286 639h537c-2.667 38.667-8.834 74.334-18.5 107S780 807 760 831s-45.668 42.668-77 56-70 20-116 20zm-61 271l-287 282v17h248l184-299H506z"/><glyph glyph-name="eacute" unicode="é" d="M276 494c0-29.333 2.166-56.165 6.5-80.498s10.5-47.5 18.5-69.5c24.666-66.667 64.166-116.834 118.5-150.5S535.33 143 604 143c54 0 106.5 7.5 157.5 22.5S866 204 922 236l75-127C929 62.333 860.665 27.666 792 5S652-29 578-29c-70 0-134.834 11.667-194.5 35s-111 58-154 104-76.668 103.333-101 172S92 430.667 92 522c0 74 10.332 143.833 31 209.5s51.5 123 92.5 172S307.33 991.333 368 1020s131.333 43 212 43c78 0 143.167-11.833 195.5-35.5s95-55 128-94 58-83.5 75-133.5 28.833-101 35.5-153c3.333-25.333 5.5-51 6.5-77s1.5-51.333 1.5-76H276zm291 413c-43.334 0-81.165-6.168-113.498-18.5s-59.833-30-82.5-53-40.834-51.168-54.5-84.5S292.666 680.332 286 639h537c-2.667 38.667-8.834 74.334-18.5 107S780 807 760 831s-45.668 42.668-77 56-70 20-116 20zm86 570h240v-17l-299-282H440z"/><glyph glyph-name="ecircumflex" unicode="ê" d="M276 494c0-29.333 2.166-56.165 6.5-80.498s10.5-47.5 18.5-69.5c24.666-66.667 64.166-116.834 118.5-150.5S535.33 143 604 143c54 0 106.5 7.5 157.5 22.5S866 204 922 236l75-127C929 62.333 860.665 27.666 792 5S652-29 578-29c-70 0-134.834 11.667-194.5 35s-111 58-154 104-76.668 103.333-101 172S92 430.667 92 522c0 74 10.332 143.833 31 209.5s51.5 123 92.5 172S307.33 991.333 368 1020s131.333 43 212 43c78 0 143.167-11.833 195.5-35.5s95-55 128-94 58-83.5 75-133.5 28.833-101 35.5-153c3.333-25.333 5.5-51 6.5-77s1.5-51.333 1.5-76H276zm291 413c-43.334 0-81.165-6.168-113.498-18.5s-59.833-30-82.5-53-40.834-51.168-54.5-84.5S292.666 680.332 286 639h537c-2.667 38.667-8.834 74.334-18.5 107S780 807 760 831s-45.668 42.668-77 56-70 20-116 20zm-246 269l250 313h63l252-313H737l-133 155-135-155H321z"/><glyph glyph-name="edieresis" unicode="ë" d="M276 494c0-29.333 2.166-56.165 6.5-80.498s10.5-47.5 18.5-69.5c24.666-66.667 64.166-116.834 118.5-150.5S535.33 143 604 143c54 0 106.5 7.5 157.5 22.5S866 204 922 236l75-127C929 62.333 860.665 27.666 792 5S652-29 578-29c-70 0-134.834 11.667-194.5 35s-111 58-154 104-76.668 103.333-101 172S92 430.667 92 522c0 74 10.332 143.833 31 209.5s51.5 123 92.5 172S307.33 991.333 368 1020s131.333 43 212 43c78 0 143.167-11.833 195.5-35.5s95-55 128-94 58-83.5 75-133.5 28.833-101 35.5-153c3.333-25.333 5.5-51 6.5-77s1.5-51.333 1.5-76H276zm291 413c-43.334 0-81.165-6.168-113.498-18.5s-59.833-30-82.5-53-40.834-51.168-54.5-84.5S292.666 680.332 286 639h537c-2.667 38.667-8.834 74.334-18.5 107S780 807 760 831s-45.668 42.668-77 56-70 20-116 20zm-360 453c0 17.333 3.5 33.833 10.5 49.5s16.334 29.334 28 41 25.335 21 41.002 28 32.167 10.5 49.5 10.5c16.667 0 32.667-3.5 48-10.5s28.666-16.332 40-28 20.332-25.333 27-41 10-32.167 10-49.5c0-18-3.334-35-10-51s-15.668-30.167-27-42.5-24.667-22-40-29-31.333-10.5-48-10.5c-17.333 0-33.833 3.5-49.5 10.5s-29.334 16.667-41 29-21 26.5-28 42.5-10.5 33-10.5 51zm459 0c0 17.333 3.5 33.833 10.5 49.5s16.334 29.334 28 41 25.335 21 41.002 28 32.167 10.5 49.5 10.5c16.667 0 32.5-3.5 47.5-10.5s28.333-16.332 40-28 20.834-25.333 27.5-41 10-32.167 10-49.5c0-18-3.332-35-10-51s-15.833-30.167-27.5-42.5-25-22-40-29-30.833-10.5-47.5-10.5c-17.333 0-33.833 3.5-49.5 10.5s-29.334 16.667-41 29-21 26.5-28 42.5-10.5 33-10.5 51z"/><glyph glyph-name="igrave" unicode="ì" horiz-adv-x="657" d="M92 1036h338V172h156V0H94v172h148v692H92v172zm160 142l-287 282v17h248l184-299H252z"/><glyph glyph-name="iacute" unicode="í" horiz-adv-x="657" d="M92 1036h338V172h156V0H94v172h148v692H92v172zm300 441h240v-17l-299-282H179z"/><glyph glyph-name="icircumflex" unicode="î" horiz-adv-x="657" d="M92 1036h338V172h156V0H94v172h148v692H92v172zm-30 140l210 313h73l212-313H403l-93 155-95-155H62z"/><glyph glyph-name="idieresis" unicode="ï" horiz-adv-x="657" d="M92 1036h338V172h156V0H94v172h148v692H92v172zm-77 324c0 35.333 12.667 65.666 38 91s55.666 38 91 38c16.666 0 32.833-3.5 48.5-10.5s29-16.168 40-27.5 19.833-25 26.5-41 10-32.668 10-50c0-18-3.333-35.168-10-51.5s-15.5-30.667-26.5-43-24.333-21.833-40-28.5-31.834-10-48.5-10c-35.334 0-65.667 13.333-91 40s-38 57.667-38 93zm315 0c0 35.333 12.667 65.666 38 91s55.666 38 91 38c16.666 0 32.833-3.5 48.5-10.5s29-16.168 40-27.5 19.833-25 26.5-41 10-32.668 10-50c0-18-3.333-35.168-10-51.5s-15.5-30.667-26.5-43-24.333-21.833-40-28.5-31.834-10-48.5-10c-35.334 0-65.667 13.333-91 40s-38 57.667-38 93z"/><glyph glyph-name="eth" unicode="ð" horiz-adv-x="1270" d="M666 1526l89.003-162.002 170 55 53-164-138-45 194-352c34-62 62-121.667 84-179s33-115.666 33-175c0-76-14.5-145.166-43.5-207.5s-67.833-115.665-116.5-159.998-104.5-78.833-167.5-103.5-128.5-37-196.5-37c-72 0-140.167 11.833-204.5 35.5s-120.833 58.334-169.5 104-87.334 101.5-116 167.5-43 141.334-43 226c0 68.668 13.332 132 40 190s62.166 107.668 106.5 149S335.667 941.668 393 965s116.667 35 178 35c26 0 55.333-1.333 88-4s69.667-12.667 111-30l-112 186-149-48-52 164 109 35-134 223h234zm-16.997-690.002c-49.333 0-96.166-7.164-140.5-21.497s-83.332-35.5-117-63.5-60.5-62.832-80.5-104.5-30-89.833-30-144.5c0-49.333 9.168-94.333 27.5-135s43.167-75.667 74.5-105 67.666-52 109-68 85-24 131-24c48.666 0 93.833 7.5 135.5 22.5s77.834 36.667 108.5 65 54.668 63.166 72 104.5 26 88 26 140c0 51.332-8.832 97.665-26.5 138.998s-41.333 76.5-71 105.5-63.5 51.167-101.5 66.5-77 23-117 23z"/><glyph glyph-name="ntilde" unicode="ñ" horiz-adv-x="1366" d="M782 172h145.998v473c0 79.334-20.167 139.5-60.5 180.5s-98.166 61.5-173.5 61.5c-43.332 0-87-10.332-131-31s-85.666-46.333-125-77V172h146V0H100v172h144v692H100v172h330V914h2c22 19.333 45.5 37.666 70.5 55s51.168 32.332 78.5 45 55.834 22.666 85.5 30 60.835 11 93.502 11c55.333 0 105.333-7.668 150-23s82.667-38.667 114-70 55.5-71.5 72.5-120.5S1122 734.667 1122 668V172h144V0H782v172zM554.998 1415c33.333 0 62.166-5.5 86.5-16.5s47-23 68-36 41.832-24.833 62.5-35.5 44-16 70-16c18.666 0 36.833 6.333 54.5 19s29.5 33 35.5 61l119-35c-13.333-56.667-39.333-100.5-78-131.5s-85-46.5-139-46.5c-37.333 0-69 5.167-95 15.5s-49.667 21.5-71 33.5l-60 33.5c-18.667 10.333-39 15.5-61 15.5-10 0-20.167-.667-30.5-2s-20.5-4.5-30.5-9.5-19.167-12.667-27.5-23-14.833-24.833-19.5-43.5l-109 53c8.667 31.333 21 57.5 37 78.5s34 37.833 54 50.5 41.5 21.667 64.5 27 46.167 8 69.5 8z"/><glyph glyph-name="ograve" unicode="ò" horiz-adv-x="1219" d="M86 518c.667 82 13.83 156.672 39.498 224.005s61.5 125.166 107.5 173.5 100.667 85.5 164 111.5 133 39 209 39c76.667 0 146.834-13 210.5-39s118.168-62.834 163.5-110.5 80.667-105.168 106-172.5 38-142 38-224c0-80.668-12.667-154.835-38-222.502s-60.666-125.834-106-174.5-99.832-86.5-163.5-113.5-133.833-40.5-210.5-40.5c-78 0-148.667 13.332-212 40s-117.666 64.166-163 112.5S150.334 227.667 125 295 86.667 436.668 86 518zm196.997.005c0-59.333 8.5-113 25.5-161s40.333-88.833 70-122.5 64-59.667 103-78 80.5-27.5 124.5-27.5c46 0 88.833 9 128.5 27s74.167 43.833 103.5 77.5 52.333 74.5 69 122.5 25 102 25 162c0 62.667-8.333 118.334-25 167s-39.5 89.335-68.5 122.002-63.5 57.334-103.5 74-83 25-129 25c-44 0-85.5-8.332-124.5-25s-73.333-41.333-103-74-53-73.334-70-122-25.5-104.335-25.5-167.002zm251 659.995l-287 282v17h248l184-299h-145z"/><glyph glyph-name="oacute" unicode="ó" horiz-adv-x="1219" d="M86 518c.667 82 13.83 156.672 39.498 224.005s61.5 125.166 107.5 173.5 100.667 85.5 164 111.5 133 39 209 39c76.667 0 146.834-13 210.5-39s118.168-62.834 163.5-110.5 80.667-105.168 106-172.5 38-142 38-224c0-80.668-12.667-154.835-38-222.502s-60.666-125.834-106-174.5-99.832-86.5-163.5-113.5-133.833-40.5-210.5-40.5c-78 0-148.667 13.332-212 40s-117.666 64.166-163 112.5S150.334 227.667 125 295 86.667 436.668 86 518zm196.997.005c0-59.333 8.5-113 25.5-161s40.333-88.833 70-122.5 64-59.667 103-78 80.5-27.5 124.5-27.5c46 0 88.833 9 128.5 27s74.167 43.833 103.5 77.5 52.333 74.5 69 122.5 25 102 25 162c0 62.667-8.333 118.334-25 167s-39.5 89.335-68.5 122.002-63.5 57.334-103.5 74-83 25-129 25c-44 0-85.5-8.332-124.5-25s-73.333-41.333-103-74-53-73.334-70-122-25.5-104.335-25.5-167.002zm399 958.995h240v-17l-299-282h-154z"/><glyph glyph-name="ocircumflex" unicode="ô" horiz-adv-x="1219" d="M86 518c.667 82 13.83 156.672 39.498 224.005s61.5 125.166 107.5 173.5 100.667 85.5 164 111.5 133 39 209 39c76.667 0 146.834-13 210.5-39s118.168-62.834 163.5-110.5 80.667-105.168 106-172.5 38-142 38-224c0-80.668-12.667-154.835-38-222.502s-60.666-125.834-106-174.5-99.832-86.5-163.5-113.5-133.833-40.5-210.5-40.5c-78 0-148.667 13.332-212 40s-117.666 64.166-163 112.5S150.334 227.667 125 295 86.667 436.668 86 518zm196.997.005c0-59.333 8.5-113 25.5-161s40.333-88.833 70-122.5 64-59.667 103-78 80.5-27.5 124.5-27.5c46 0 88.833 9 128.5 27s74.167 43.833 103.5 77.5 52.333 74.5 69 122.5 25 102 25 162c0 62.667-8.333 118.334-25 167s-39.5 89.335-68.5 122.002-63.5 57.334-103.5 74-83 25-129 25c-44 0-85.5-8.332-124.5-25s-73.333-41.333-103-74-53-73.334-70-122-25.5-104.335-25.5-167.002zm67 657.995l250 313h63l252-313h-149l-133 155-135-155h-148z"/><glyph glyph-name="otilde" unicode="õ" horiz-adv-x="1219" d="M86 518c.667 82 13.83 156.672 39.498 224.005s61.5 125.166 107.5 173.5 100.667 85.5 164 111.5 133 39 209 39c76.667 0 146.834-13 210.5-39s118.168-62.834 163.5-110.5 80.667-105.168 106-172.5 38-142 38-224c0-80.668-12.667-154.835-38-222.502s-60.666-125.834-106-174.5-99.832-86.5-163.5-113.5-133.833-40.5-210.5-40.5c-78 0-148.667 13.332-212 40s-117.666 64.166-163 112.5S150.334 227.667 125 295 86.667 436.668 86 518zm196.997.005c0-59.333 8.5-113 25.5-161s40.333-88.833 70-122.5 64-59.667 103-78 80.5-27.5 124.5-27.5c46 0 88.833 9 128.5 27s74.167 43.833 103.5 77.5 52.333 74.5 69 122.5 25 102 25 162c0 62.667-8.333 118.334-25 167s-39.5 89.335-68.5 122.002-63.5 57.334-103.5 74-83 25-129 25c-44 0-85.5-8.332-124.5-25s-73.333-41.333-103-74-53-73.334-70-122-25.5-104.335-25.5-167.002zm196 896.995c33.333 0 62.166-5.5 86.5-16.5s47-23 68-36 41.832-24.833 62.5-35.5 44-16 70-16c18.666 0 36.833 6.333 54.5 19s29.5 33 35.5 61l119-35c-13.333-56.667-39.333-100.5-78-131.5s-85-46.5-139-46.5c-37.333 0-69 5.167-95 15.5s-49.667 21.5-71 33.5l-60 33.5c-18.667 10.333-39 15.5-61 15.5-10 0-20.167-.667-30.5-2s-20.5-4.5-30.5-9.5-19.167-12.667-27.5-23-14.833-24.833-19.5-43.5l-109 53c8.667 31.333 21 57.5 37 78.5s34 37.833 54 50.5 41.5 21.667 64.5 27 46.167 8 69.5 8z"/><glyph glyph-name="odieresis" unicode="ö" horiz-adv-x="1219" d="M86 518c.667 82 13.83 156.672 39.498 224.005s61.5 125.166 107.5 173.5 100.667 85.5 164 111.5 133 39 209 39c76.667 0 146.834-13 210.5-39s118.168-62.834 163.5-110.5 80.667-105.168 106-172.5 38-142 38-224c0-80.668-12.667-154.835-38-222.502s-60.666-125.834-106-174.5-99.832-86.5-163.5-113.5-133.833-40.5-210.5-40.5c-78 0-148.667 13.332-212 40s-117.666 64.166-163 112.5S150.334 227.667 125 295 86.667 436.668 86 518zm196.997.005c0-59.333 8.5-113 25.5-161s40.333-88.833 70-122.5 64-59.667 103-78 80.5-27.5 124.5-27.5c46 0 88.833 9 128.5 27s74.167 43.833 103.5 77.5 52.333 74.5 69 122.5 25 102 25 162c0 62.667-8.333 118.334-25 167s-39.5 89.335-68.5 122.002-63.5 57.334-103.5 74-83 25-129 25c-44 0-85.5-8.332-124.5-25s-73.333-41.333-103-74-53-73.334-70-122-25.5-104.335-25.5-167.002zm-47 841.995c0 17.333 3.5 33.833 10.5 49.5s16.333 29.334 28 41 25.334 21 41 28 32.168 10.5 49.5 10.5c16.668 0 32.668-3.5 48-10.5s28.667-16.332 40-28 20.333-25.333 27-41 10-32.167 10-49.5c0-18-3.333-35-10-51s-15.667-30.167-27-42.5-24.666-22-40-29-31.332-10.5-48-10.5c-17.332 0-33.832 3.5-49.5 10.5s-29.333 16.667-41 29-21 26.5-28 42.5-10.5 33-10.5 51zm459 0c0 17.333 3.5 33.833 10.5 49.5s16.333 29.334 28 41 25.334 21 41 28 32.168 10.5 49.5 10.5c16.668 0 32.5-3.5 47.5-10.5s28.334-16.332 40-28 20.835-25.333 27.502-41 10-32.167 10-49.5c0-18-3.334-35-10-51s-15.835-30.167-27.502-42.5-25-22-40-29-30.833-10.5-47.5-10.5c-17.333 0-33.833 3.5-49.5 10.5s-29.334 16.667-41 29-21 26.5-28 42.5-10.5 33-10.5 51z"/><glyph glyph-name="divide" unicode="÷" horiz-adv-x="1126" d="M414 907c0 17.333 3.5 33.833 10.5 49.5s16.333 29.334 28 41 25.5 21 41.5 28 33 10.5 51 10.5c17.333 0 33.833-3.5 49.5-10.5s29.334-16.332 41-28 21-25.333 28-41S674 924.333 674 907c0-18-3.5-35-10.5-51s-16.332-30.167-28-42.5-25.333-22-41-29S562.333 774 545 774c-18 0-35 3.5-51 10.5s-29.833 16.667-41.5 29-21 26.5-28 42.5-10.5 33-10.5 51zm0-786c0 17.333 3.5 33.833 10.5 49.5s16.333 29.334 28 41 25.5 21 41.5 28 33 10.5 51 10.5c17.333 0 33.833-3.5 49.5-10.5s29.334-16.332 41-28 21-25.333 28-41S674 138.333 674 121c0-18-3.5-35-10.5-51s-16.332-30.167-28-42.5-25.333-22-41-29S562.333-12 545-12c-18 0-35 3.5-51 10.5s-29.833 16.667-41.5 29-21 26.5-28 42.5-10.5 33-10.5 51zM51 614h1024V452H51v162z"/><glyph glyph-name="oslash" unicode="ø" horiz-adv-x="1219" d="M213 145c-39.333 48-69.333 103.335-90 166.002s-31 131.667-31 207c0 81.333 12.5 155.666 37.5 223s60.333 125.165 106 173.498S335.667 1000.333 399 1027s133 40 209 40c52 0 100.667-6 146-18s87.333-29.333 126-52l133 170h198l-211-270c40-48 71-103.667 93-167s33-133.333 33-210c0-82.667-12.167-157.834-36.5-225.5s-59-125.668-104-174S886 34.832 822 8.5 686.667-31 608-31c-53.333 0-103 6.333-149 19s-88.667 30.667-128 54L251-61H52zm669 601.002l-441-564c24.667-16.666 51-29.333 79-38s57.333-13 88-13c46 0 88.833 9 128.5 27s74.167 43.667 103.5 77 52.333 73.833 69 121.5 25 101.5 25 161.5c0 46-4.5 88-13.5 126s-21.833 72-38.5 102zm-547-445l439 561.004c-24 15.333-50 26.666-78 34s-57.333 11-88 11c-44 0-85.5-8.5-124.5-25.5s-73.333-41.834-103-74.5-53-73.335-70-122.002-25.5-104.334-25.5-167c0-42 4.333-81.168 13-117.5s21-69.5 37-99.5z"/><glyph glyph-name="ugrave" unicode="ù" horiz-adv-x="1350" d="M724 1036h334V172h115V0H871v96c-46.668-36-97.5-64-152.5-84S604.665-18 542-18c-52 0-99.168 7.5-141.5 22.5s-78.334 38.332-108 70S240 146.332 224 195s-24 106.667-24 174v495H60v172h334V391c0-79.333 18.332-139.333 55-180s89.333-61 158-61c40.667 0 83.5 7.333 128.5 22S823 207 863 233v631H724v172zm-222 142l-287 282v17h248l184-299H502z"/><glyph glyph-name="uacute" unicode="ú" horiz-adv-x="1350" d="M724 1036h334V172h115V0H871v96c-46.668-36-97.5-64-152.5-84S604.665-18 542-18c-52 0-99.168 7.5-141.5 22.5s-78.334 38.332-108 70S240 146.332 224 195s-24 106.667-24 174v495H60v172h334V391c0-79.333 18.332-139.333 55-180s89.333-61 158-61c40.667 0 83.5 7.333 128.5 22S823 207 863 233v631H724v172zm-75 441h240v-17l-299-282H436z"/><glyph glyph-name="ucircumflex" unicode="û" horiz-adv-x="1350" d="M724 1036h334V172h115V0H871v96c-46.668-36-97.5-64-152.5-84S604.665-18 542-18c-52 0-99.168 7.5-141.5 22.5s-78.334 38.332-108 70S240 146.332 224 195s-24 106.667-24 174v495H60v172h334V391c0-79.333 18.332-139.333 55-180s89.333-61 158-61c40.667 0 83.5 7.333 128.5 22S823 207 863 233v631H724v172zm-407 140l250 313h63l252-313H733l-133 155-135-155H317z"/><glyph glyph-name="udieresis" unicode="ü" horiz-adv-x="1350" d="M724 1036h334V172h115V0H871v96c-46.668-36-97.5-64-152.5-84S604.665-18 542-18c-52 0-99.168 7.5-141.5 22.5s-78.334 38.332-108 70S240 146.332 224 195s-24 106.667-24 174v495H60v172h334V391c0-79.333 18.332-139.333 55-180s89.333-61 158-61c40.667 0 83.5 7.333 128.5 22S823 207 863 233v631H724v172zm-521 324c0 17.333 3.5 33.833 10.5 49.5s16.332 29.334 28 41 25.333 21 41 28 32.167 10.5 49.5 10.5c16.667 0 32.667-3.5 48-10.5s28.666-16.332 40-28 20.332-25.333 27-41 10-32.167 10-49.5c0-18-3.334-35-10-51s-15.668-30.167-27-42.5-24.667-22-40-29-31.333-10.5-48-10.5c-17.333 0-33.833 3.5-49.5 10.5s-29.334 16.667-41 29-21 26.5-28 42.5-10.5 33-10.5 51zm459 0c0 17.333 3.5 33.833 10.5 49.5s16.332 29.334 28 41 25.333 21 41 28 32.167 10.5 49.5 10.5c16.667 0 32.5-3.5 47.5-10.5s28.333-16.332 40-28 20.834-25.333 27.5-41 10-32.167 10-49.5c0-18-3.332-35-10-51s-15.833-30.167-27.5-42.5-25-22-40-29-30.833-10.5-47.5-10.5c-17.333 0-33.833 3.5-49.5 10.5s-29.334 16.667-41 29-21 26.5-28 42.5-10.5 33-10.5 51z"/><glyph glyph-name="yacute" unicode="ý" d="M31 1036h393V864H301l243-661 254 661H676v172h393V864H962L501-299h142v-172H225v172h126L461-14 115 864H31v172zm598 441h240v-17l-299-282H416z"/><glyph glyph-name="thorn" unicode="þ" horiz-adv-x="1253" d="M57 1577h328V950c44 34 92 61 144 81s105.667 30 161 30c68 0 130.333-12.667 187-38s105.5-61 146.5-107 72.833-101.167 95.5-165.5 34-135.5 34-213.5c0-83.333-12.667-158.833-38-226.5s-60.5-125.834-105.5-174.5S911 49.83 849 23.5 719-16 645-16c-51.333 0-99.5 7.332-144.5 22S417 40.332 385 65v-364h162v-172H55v172h144v1704H57v172zm584-680c-48.667 0-95.33-9.998-139.998-29.998s-83.334-47-116-81v-557c21.332-22 52.665-41.5 93.998-58.5s93.333-25.5 156-25.5c42.667 0 83.667 8 123 24s74 40.167 104 72.5 54 72.5 72 120.5 27 104 27 168c0 58.667-8.5 110.667-25.5 156s-40 83.666-69 115S803.667 856.166 765 872.5 685 897 641 897z"/><glyph glyph-name="ydieresis" unicode="ÿ" d="M31 1036h393V864H301l243-661 254 661H676v172h393V864H962L501-299h142v-172H225v172h126L461-14 115 864H31v172zm151 324c0 17.333 3.5 33.833 10.5 49.5s16.333 29.334 28 41 25.334 21 41 28S293.67 1489 311 1489c16.668 0 32.668-3.5 48-10.5s28.667-16.332 40-28 20.333-25.333 27-41 10-32.167 10-49.5c0-18-3.333-35-10-51s-15.667-30.167-27-42.5-24.666-22-40-29-31.332-10.5-48-10.5c-17.332 0-33.832 3.5-49.5 10.5s-29.333 16.667-41 29-21 26.5-28 42.5-10.5 33-10.5 51zm459 0c0 17.333 3.5 33.833 10.5 49.5s16.333 29.334 28 41 25.334 21 41 28S752.67 1489 770 1489c16.668 0 32.5-3.5 47.5-10.5s28.334-16.332 40-28 20.835-25.333 27.502-41 10-32.167 10-49.5c0-18-3.333-35-10-51s-15.834-30.167-27.5-42.5-25-22-40-29-30.834-10.5-47.5-10.5c-17.334 0-33.834 3.5-49.5 10.5s-29.335 16.667-41.002 29-21 26.5-28 42.5-10.5 33-10.5 51z"/><glyph glyph-name="Amacron" unicode="Ā" horiz-adv-x="1542" d="M1040 172h126l-120 344H463L346 172h156V0H10v172h132l472 1344h295l471-1344h152V0h-492v172zM520 682h468l-236 678zm590 1026H352v117h758v-117z"/><glyph glyph-name="amacron" unicode="ā" horiz-adv-x="1120" d="M709 96c-39.333-36.667-82.833-66.67-130.5-90.003s-101.834-35-162.5-35c-50.668 0-97.168 8-139.5 24S197.665 32.83 167 60.497s-54.5 59.834-71.5 96.5-25.5 75.668-25.5 117c0 44 6.5 83 19.5 117s30.332 63.5 52 88.5 47 46 76 63 59.332 30.668 91 41 64 17.667 97 22 64.5 6.5 94.5 6.5c48 0 88.332-1.5 121-4.5s62.333-7.167 89-12.5l1 85c0 36.667-5.333 68.5-16 95.5s-25.667 49.333-45 67-42.5 30.834-69.5 39.5-57.167 13-90.5 13c-31.333 0-61.333-2.166-90-6.5s-55.5-10-80.5-17-48-15-69-24-38.833-18.5-53.5-28.5l-61 129c24.667 16 51.667 30.834 81 44.5s60.166 25.335 92.5 35.002 65.332 17.333 99 23 66.833 8.5 99.5 8.5c60 0 114-7.167 162-21.5s88.667-36.5 122-66.5 59-68.167 77-114.5 27-101.833 27-166.5l-1-518h115V0H709v96zm-252 30.997c24.667 0 49.334 2.998 74 8.998s48 14.167 70 24.5 42.334 22.333 61 36 34.335 27.834 47.002 42.5l1 234h-216c-36 0-68.833-4-98.5-12s-55.334-19.666-77-35-38.5-34.332-50.5-57-18-48.666-18-78c0-27.332 5-51.165 15-71.498s24.166-37.333 42.5-51 40.165-24 65.498-31 53.333-10.5 84-10.5zM875 1229H117v117h758v-117z"/><glyph glyph-name="Abreve" unicode="Ă" horiz-adv-x="1542" d="M1040 172h126l-120 344H463L346 172h156V0H10v172h132l472 1344h295l471-1344h152V0h-492v172zM520 682h468l-236 678zm248 946c-50.667 0-97.834 8.334-141.5 25s-82 39.668-115 69-59.334 64.167-79 104.5S402 1910.666 400 1958h121c.666-28.668 7.333-56 20-82s30-48.834 52-68.5 48-35.335 78-47.002 62.333-17.5 97-17.5 67 5.667 97 17 56 26.833 78 46.5 39.333 42.5 52 68.5 19.667 53.667 21 83h121c-2-47.333-13-91.166-33-131.5s-46.5-75.165-79.5-104.498-71.5-52.333-115.5-69-91-25-141-25z"/><glyph glyph-name="abreve" unicode="ă" horiz-adv-x="1120" d="M709 96c-39.333-36.667-82.833-66.67-130.5-90.003s-101.834-35-162.5-35c-50.668 0-97.168 8-139.5 24S197.665 32.83 167 60.497s-54.5 59.834-71.5 96.5-25.5 75.668-25.5 117c0 44 6.5 83 19.5 117s30.332 63.5 52 88.5 47 46 76 63 59.332 30.668 91 41 64 17.667 97 22 64.5 6.5 94.5 6.5c48 0 88.332-1.5 121-4.5s62.333-7.167 89-12.5l1 85c0 36.667-5.333 68.5-16 95.5s-25.667 49.333-45 67-42.5 30.834-69.5 39.5-57.167 13-90.5 13c-31.333 0-61.333-2.166-90-6.5s-55.5-10-80.5-17-48-15-69-24-38.833-18.5-53.5-28.5l-61 129c24.667 16 51.667 30.834 81 44.5s60.166 25.335 92.5 35.002 65.332 17.333 99 23 66.833 8.5 99.5 8.5c60 0 114-7.167 162-21.5s88.667-36.5 122-66.5 59-68.167 77-114.5 27-101.833 27-166.5l-1-518h115V0H709v96zm-252 30.997c24.667 0 49.334 2.998 74 8.998s48 14.167 70 24.5 42.334 22.333 61 36 34.335 27.834 47.002 42.5l1 234h-216c-36 0-68.833-4-98.5-12s-55.334-19.666-77-35-38.5-34.332-50.5-57-18-48.666-18-78c0-27.332 5-51.165 15-71.498s24.166-37.333 42.5-51 40.165-24 65.498-31 53.333-10.5 84-10.5zM532 1149c-50.667 0-97.834 8.334-141.5 25s-82 39.668-115 69-59.334 64.167-79 104.5S166 1431.666 164 1479h121c.666-28.668 7.333-56 20-82s30-48.834 52-68.5 48-35.335 78-47.002 62.333-17.5 97-17.5 67 5.667 97 17 56 26.833 78 46.5 39.333 42.5 52 68.5 19.667 53.667 21 83h121c-2-47.333-13-91.166-33-131.5s-46.5-75.165-79.5-104.498-71.5-52.333-115.5-69-91-25-141-25z"/><glyph glyph-name="Aogonek" unicode="Ą" horiz-adv-x="1542" d="M10 172h130.998l473 1344h295l471-1344h131V0h-188c-34 0-65.333-5.5-94-16.5s-53.667-25.668-75-44-38.166-39.5-50.5-63.5-18.5-49-18.5-75c0-31.334 13.668-58.167 41-80.5s61-33.5 101-33.5c26 0 48.5 1.667 67.5 5s35.168 8.333 48.5 15l50-151c-15.332-8.667-39-17.667-71-27s-65.666-14-101-14c-52 0-97.5 7.5-136.5 22.5s-71.166 34.667-96.5 59-44.165 52.333-56.498 84S913-256.333 913-225c0 44.667 11 87.5 33 128.5s50.667 73.167 86 96.5v172h133l-121 344H463L346 172h156V0H10v172zm509.998 510h467l-235 678z"/><glyph glyph-name="aogonek" unicode="ą" horiz-adv-x="1042" d="M940 0c-48 0-87.667-7.835-119-23.502s-56.166-35.167-74.5-58.5-31.665-48-39.998-74-12.5-49-12.5-69c0-36 10.667-61.833 32-77.5s47-23.5 77-23.5c23.333 0 43.833 2.167 61.5 6.5s33.834 9.833 48.5 16.5l52-139c-7.332-4.667-17.832-9.667-31.5-15s-28.666-10-45-14-33.332-7.333-51-10-34.833-4-51.5-4c-48.667 0-90.834 6.5-126.5 19.5s-64.668 30-87 51-39 44.167-50 69.5-16.5 50.333-16.5 75c0 9.333.666 25.333 2 48s7.832 46.834 19.5 72.5S557.667-97.666 583-71 644.666-20.666 692 0h-2v96C650.667 60.67 607 31 559 7S457-29 397-29c-50 0-96.167 7.834-138.5 23.5s-79 37.5-110 65.5-55 60.5-72 97.5S51 233.335 51 274c0 56 10.667 103.5 32 142.5s48.666 71.5 82 97.5 70.832 45.834 112.5 59.5S360.332 596.67 401 602c15.333 2.668 29.166 4 41.5 4H481c44 0 83.332-1.666 118-5s65.666-8.332 93-15v94c0 74-20.168 128.334-60.5 163s-93.834 52-160.5 52c-62.668 0-119.668-7.832-171-23.5s-92-33.166-122-52.5l-61 129c48.666 31.334 106.5 57.667 173.5 79s133.166 32 198.5 32c60.666 0 114.833-7.167 162.5-21.5S739.667 1001 773 971s59-68.333 77-115 27-102 27-166c0-86-.5-172.333-1.5-259S874 258 874 172h117V0h-51zM438 126.998c49.333 0 97.167 11.332 143.5 34s82.5 48.333 108.5 77v239H475c-35.333 0-67.666-4-97-12s-55-19.5-77-34.5-39.166-34.167-51.5-57.5-18.5-49.333-18.5-78c0-56 19.168-98 57.5-126s88.167-42 149.5-42z"/><glyph glyph-name="Cacute" unicode="Ć" horiz-adv-x="1503" d="M1219 1116c-44.667 76-103.83 135.665-177.497 178.998s-155.834 65-246.5 65c-77.334 0-148-16.333-212-49s-118.834-76.5-164.5-131.5-81.168-118.667-106.5-191-38-148.5-38-228.5c0-94.667 14-178.5 42-251.5s64.5-133.667 109.5-182 98.5-88.666 160.5-121 131.666-48.5 209-48.5c105.332 0 197 25.5 275 76.5s144.666 134.834 200 251.5l176-83c-25.334-72-68.334-141.5-129-208.5s-135.5-121-224.5-162-187.5-61.5-295.5-61.5c-103.334 0-198.334 19.5-285 58.5S348.167 123 280.5 195s-119.333 157.334-155 256S72 652.667 72 760c0 108 17.833 210 53.5 306s85.667 179.5 150 250.5 141 127 230 168S691 1546 795 1546c92.667 0 172.667-13.166 240-39.5s124.5-57.665 171.5-93.998 87.5-75.833 121.5-118.5h106v-178h-215zm-362.996 840h240v-17l-299-282h-154z"/><glyph glyph-name="cacute" unicode="ć" horiz-adv-x="1116" d="M848 760c-28 50-63.502 86.67-106.502 110.003s-92.833 35-149.5 35c-43.333 0-84-9-122-27s-71.167-43.667-99.5-77-50.666-73.833-67-121.5S279 578.67 279 520.003c0-58 8.168-110.334 24.5-157s38.834-86.5 67.5-119.5 61.835-58.334 99.502-76 78.167-26.5 121.5-26.5c64 0 119.667 15.5 167 46.5s85 76.5 113 136.5l154-76c-20-42.668-44.667-81-74-115s-62.5-63-99.5-87-77.667-42.5-122-55.5-91.166-19.5-140.5-19.5c-72 0-138.5 13.5-199.5 40.5s-113.666 64.832-158 113.5-78.832 106.666-103.5 174-37 141-37 221 13 153.666 39 221S192.67 866.167 238 914.5s98.334 86.167 159 113.5 125.668 41 195 41c65.334 0 127.167-11.333 185.5-34S887 978 931 932h105V760H848zm-164.002 717h240v-17l-299-282h-154z"/><glyph glyph-name="Ccaron" unicode="Č" horiz-adv-x="1503" d="M1219 1116c-44.667 76-103.83 135.665-177.497 178.998s-155.834 65-246.5 65c-77.334 0-148-16.333-212-49s-118.834-76.5-164.5-131.5-81.168-118.667-106.5-191-38-148.5-38-228.5c0-94.667 14-178.5 42-251.5s64.5-133.667 109.5-182 98.5-88.666 160.5-121 131.666-48.5 209-48.5c105.332 0 197 25.5 275 76.5s144.666 134.834 200 251.5l176-83c-25.334-72-68.334-141.5-129-208.5s-135.5-121-224.5-162-187.5-61.5-295.5-61.5c-103.334 0-198.334 19.5-285 58.5S348.167 123 280.5 195s-119.333 157.334-155 256S72 652.667 72 760c0 108 17.833 210 53.5 306s85.667 179.5 150 250.5 141 127 230 168S691 1546 795 1546c92.667 0 172.667-13.166 240-39.5s124.5-57.665 171.5-93.998 87.5-75.833 121.5-118.5h106v-178h-215zm-144 851l-252-353h-49l-252 353h144l133-196 135 196h141z"/><glyph glyph-name="ccaron" unicode="č" horiz-adv-x="1116" d="M848 760c-28 50-63.502 86.67-106.502 110.003s-92.833 35-149.5 35c-43.333 0-84-9-122-27s-71.167-43.667-99.5-77-50.666-73.833-67-121.5S279 578.67 279 520.003c0-58 8.168-110.334 24.5-157s38.834-86.5 67.5-119.5 61.835-58.334 99.502-76 78.167-26.5 121.5-26.5c64 0 119.667 15.5 167 46.5s85 76.5 113 136.5l154-76c-20-42.668-44.667-81-74-115s-62.5-63-99.5-87-77.667-42.5-122-55.5-91.166-19.5-140.5-19.5c-72 0-138.5 13.5-199.5 40.5s-113.666 64.832-158 113.5-78.832 106.666-103.5 174-37 141-37 221 13 153.666 39 221S192.67 866.167 238 914.5s98.334 86.167 159 113.5 125.668 41 195 41c65.334 0 127.167-11.333 185.5-34S887 978 931 932h105V760H848zm54.998 728l-252-353h-49l-252 353h144l133-196 135 196h141z"/><glyph glyph-name="Dcaron" unicode="Ď" horiz-adv-x="1520" d="M143 1516l564 .002c69.333 0 135.333-9 198-27s121-43.333 175-76 103-71.834 147-117.5 81.5-96.5 112.5-152.5 54.833-116.168 71.5-180.5 25-131.167 25-200.5c0-70.667-8.333-138.334-25-203S1370.5 433.666 1339.5 377 1271 268.833 1227 222.5s-93-86-147-119S967.667 45 905 27 776.333 0 707 0H143v172h144v1171H143v173zm340-173V172h236c70 0 135.833 15.333 197.5 46S1032 290.5 1078 343.5s82.333 115.333 109 187 40 148.834 40 231.5c0 81.334-13.333 157.334-40 228s-63 132.168-109 184.5-99.833 93.5-161.5 123.5-127.5 45-197.5 45H483zm443 542l-252-353h-49l-252 353h144l133-196 135 196h141z"/><glyph glyph-name="dcaron" unicode="ď" horiz-adv-x="1395" d="M711 1556h327V172h152V0H852v85c-33.334-34-72-60.5-116-79.5S642-23 586-23c-70 0-135.168 12.167-195.5 36.5s-112.667 60-157 107-79 104.667-104 173S92 440 92 528c0 80 12 152.833 36 218.5s58 121.667 102 168 97 82.333 159 108 131 38.5 207 38.5c50 0 95.667-5.5 137-16.5s81-30.167 119-57.5v397H711v172zM610 139c55.332 0 101.665 8.165 138.998 24.498s71.666 40.833 103 73.5v580c-33.334 28-71.667 48.333-115 61s-87.666 19-133 19c-44 0-85.332-8.167-124-24.5s-72.5-40.166-101.5-71.5S326.667 731.334 310 686s-25-97.333-25-156c0-64 8-120.333 24-169s38.334-89.5 67-122.5 63-57.833 103-74.5 83.668-25 131-25zm729 920h-149v518l197 16z"/><glyph glyph-name="Dcroat" unicode="Đ" horiz-adv-x="1516" d="M139 1516h576c103.333 0 199.5-19.832 288.5-59.5s166.167-93.333 231.5-161 116.5-147.5 153.5-239.5 55.5-190 55.5-294c0-105.333-18.5-204.333-55.5-297s-88.167-173.5-153.5-242.5-142.5-123.333-231.5-163S818.333 0 715 0H139v172h156v504H127v172h168v495H139v173zm353-840V172.003h235c69.333 0 135.166 15.333 197.5 46s116.332 72.667 162 126 81.833 115.833 108.5 187.5 40 148.5 40 230.5-13.333 158.167-40 228.5-62.834 131.666-108.5 184-99.668 93.5-162 123.5-128.167 45-197.5 45H492V848h186V676H492z"/><glyph glyph-name="dcroat" unicode="đ" horiz-adv-x="1268" d="M1038 1120l.002-948h152V0h-338v84c-32.667-32.666-71.167-58.666-115.5-78s-94.5-29-150.5-29c-70 0-135.333 12.334-196 37s-112.834 60.168-156.5 106.5-78.168 103.667-103.5 172S92 439.333 92 528c0 79.333 12 151.833 36 217.5s58.166 122 102.5 169S327.666 997.667 389 1023s130.333 38 207 38c50.667 0 96.5-5.5 137.5-16.5S814 1014.333 852 987v133H657v172h195v92H711v172h327v-264h152v-172h-152zM610.002 139c58.667 0 107.833 10 147.5 30s71.167 43 94.5 69v579c-32.667 27.332-70.834 47.5-114.5 60.5S649.333 897 604 897c-43.334 0-84.5-8.168-123.5-24.5S407.667 832.332 379 801s-51.5-69.666-68.5-115S285 588.67 285 530c0-64 8.166-120.166 24.5-168.5s38.832-89 67.5-122 62.833-58 102.5-75 83.167-25.5 130.5-25.5z"/><glyph glyph-name="Emacron" unicode="Ē" horiz-adv-x="1286" d="M143 1516h1086v-429h-205v256H483V858h455V686H483V172h541v256h205V0H143v172h144v1171H143v173zm937 192H322v117h758v-117z"/><glyph glyph-name="emacron" unicode="ē" d="M276 494c0-29.333 2.166-56.165 6.5-80.498s10.5-47.5 18.5-69.5c24.666-66.667 64.166-116.834 118.5-150.5S535.33 143 604 143c54 0 106.5 7.5 157.5 22.5S866 204 922 236l75-127C929 62.333 860.665 27.666 792 5S652-29 578-29c-70 0-134.834 11.667-194.5 35s-111 58-154 104-76.668 103.333-101 172S92 430.667 92 522c0 74 10.332 143.833 31 209.5s51.5 123 92.5 172S307.33 991.333 368 1020s131.333 43 212 43c78 0 143.167-11.833 195.5-35.5s95-55 128-94 58-83.5 75-133.5 28.833-101 35.5-153c3.333-25.333 5.5-51 6.5-77s1.5-51.333 1.5-76H276zm291 413c-43.334 0-81.165-6.168-113.498-18.5s-59.833-30-82.5-53-40.834-51.168-54.5-84.5S292.666 680.332 286 639h537c-2.667 38.667-8.834 74.334-18.5 107S780 807 760 831s-45.668 42.668-77 56-70 20-116 20zm367 322H176v117h758v-117z"/><glyph glyph-name="Edotaccent" unicode="Ė" horiz-adv-x="1286" d="M143 1516h1086v-429h-205v256H483V858h455V686H483V172h541v256h205V0H143v172h144v1171H143v173zm471 366c0 17.333 3.5 33.833 10.5 49.5s16.333 29.334 28 41 25.5 21 41.5 28 33 10.5 51 10.5c17.333 0 33.833-3.5 49.5-10.5s29.334-16.332 41-28 21-25.333 28-41 10.5-32.167 10.5-49.5c0-18-3.5-35-10.5-51s-16.332-30.167-28-42.5-25.333-22-41-29-32.167-10.5-49.5-10.5c-18 0-35 3.5-51 10.5s-29.833 16.667-41.5 29-21 26.5-28 42.5-10.5 33-10.5 51z"/><glyph glyph-name="edotaccent" unicode="ė" d="M276 494c0-29.333 2.166-56.165 6.5-80.498s10.5-47.5 18.5-69.5c24.666-66.667 64.166-116.834 118.5-150.5S535.33 143 604 143c54 0 106.5 7.5 157.5 22.5S866 204 922 236l75-127C929 62.333 860.665 27.666 792 5S652-29 578-29c-70 0-134.834 11.667-194.5 35s-111 58-154 104-76.668 103.333-101 172S92 430.667 92 522c0 74 10.332 143.833 31 209.5s51.5 123 92.5 172S307.33 991.333 368 1020s131.333 43 212 43c78 0 143.167-11.833 195.5-35.5s95-55 128-94 58-83.5 75-133.5 28.833-101 35.5-153c3.333-25.333 5.5-51 6.5-77s1.5-51.333 1.5-76H276zm291 413c-43.334 0-81.165-6.168-113.498-18.5s-59.833-30-82.5-53-40.834-51.168-54.5-84.5S292.666 680.332 286 639h537c-2.667 38.667-8.834 74.334-18.5 107S780 807 760 831s-45.668 42.668-77 56-70 20-116 20zm-98 496c0 17.333 3.5 33.833 10.5 49.5s16.334 29.334 28 41 25.5 21 41.5 28 33 10.5 51 10.5c17.334 0 33.834-3.5 49.5-10.5s29.335-16.332 41.002-28 21-25.333 28-41 10.5-32.167 10.5-49.5c0-18-3.5-35-10.5-51s-16.333-30.167-28-42.5-25.334-22-41-29-32.168-10.5-49.5-10.5c-18 0-35 3.5-51 10.5s-29.834 16.667-41.5 29-21 26.5-28 42.5-10.5 33-10.5 51z"/><glyph glyph-name="Eogonek" unicode="Ę" horiz-adv-x="1286" d="M143 1516h1086v-429h-205v256H483V858h455V686H483V172h541v256h205V0h-19c-86-28.668-151.833-60.835-197.5-96.502s-68.5-78.5-68.5-128.5c0-27.333 10.333-50.666 31-70s48-29 82-29c26 0 50.5 2.168 73.5 6.5s41.5 9.834 55.5 16.5l43-127c-18-10.666-42.667-20.5-74-29.5s-66-13.5-104-13.5c-41.333 0-79 4.834-113 14.5s-63.333 23.335-88 41.002-44.167 39.5-58.5 65.5-21.5 56-21.5 90c0 57.333 15 107.5 45 150.5S881.333-30 924 0H143v172h144v1171H143v173z"/><glyph glyph-name="eogonek" unicode="ę" horiz-adv-x="1118" d="M899 49c-14.667-8-28.832-16.503-42.5-25.503L815-4.003c-26-18-49.5-36.167-70.5-54.5s-38.666-36.666-53-55-25.665-36.832-33.998-55.5-12.5-37.333-12.5-56c0-31.333 11.333-55.666 34-73s54.334-26 95-26c27.334 0 50.834 2.834 70.5 8.5s37.168 11.835 52.5 18.502l43-127c-18-10.668-44.332-21.168-79-31.5s-74-15.5-118-15.5c-80 0-145.332 18.166-196 54.5s-76 88.5-76 156.5c0 48 11.668 91.332 35 130s52.667 72.333 88 101h-16c-70 0-134.667 11.667-194 35s-110.5 57.833-153.5 103.5-76.833 103-101.5 172-37 149.167-37 240.5c0 74 10.333 143.667 31 209s51.334 122.666 92 172 91.5 88.332 152.5 117 131.834 43 212.5 43c96.668 0 174-18.168 232-54.5s102.668-82.167 134-137.5 51.834-116.333 61.5-183 14.5-131.334 14.5-194h-746c0-57.334 8.668-108 26-152s40.667-80.668 70-110 64.166-51.5 104.5-66.5S559.333 143 604 143c53.332 0 105.665 7.5 156.998 22.5S866 204 922 236l75-127c-4-3.334-8-6.334-12-9l-12-8-12.5-8-12.5-8c-8-5.334-16.167-10.167-24.5-14.5L899 49zM567.002 906.997c-43.333 0-81-6.167-113-18.5s-59.332-30-82-53-40.833-51.333-54.5-85-23.834-70.834-30.5-111.5h536c-2.668 38-8.668 73.5-18 106.5s-24.334 61.332-45 85-46.668 42.333-78 56-69.667 20.5-115 20.5z"/><glyph glyph-name="Ecaron" unicode="Ě" horiz-adv-x="1286" d="M143 1516h1086v-429h-205v256H483V858h455V686H483V172h541v256h205V0H143v172h144v1171H143v173zm875 451l-252-353h-49l-252 353h144l133-196 135 196h141z"/><glyph glyph-name="ecaron" unicode="ě" d="M276 494c0-29.333 2.166-56.165 6.5-80.498s10.5-47.5 18.5-69.5c24.666-66.667 64.166-116.834 118.5-150.5S535.33 143 604 143c54 0 106.5 7.5 157.5 22.5S866 204 922 236l75-127C929 62.333 860.665 27.666 792 5S652-29 578-29c-70 0-134.834 11.667-194.5 35s-111 58-154 104-76.668 103.333-101 172S92 430.667 92 522c0 74 10.332 143.833 31 209.5s51.5 123 92.5 172S307.33 991.333 368 1020s131.333 43 212 43c78 0 143.167-11.833 195.5-35.5s95-55 128-94 58-83.5 75-133.5 28.833-101 35.5-153c3.333-25.333 5.5-51 6.5-77s1.5-51.333 1.5-76H276zm291 413c-43.334 0-81.165-6.168-113.498-18.5s-59.833-30-82.5-53-40.834-51.168-54.5-84.5S292.666 680.332 286 639h537c-2.667 38.667-8.834 74.334-18.5 107S780 807 760 831s-45.668 42.668-77 56-70 20-116 20zm305 581l-252-353h-49l-252 353h144l133-196 135 196h141z"/><glyph glyph-name="Gbreve" unicode="Ğ" horiz-adv-x="1677" d="M1313-6l.002 304c-25.333-52.667-57-98.5-95-137.5s-80.333-71.167-127-96.5-96.5-44.333-149.5-57-106.833-19-161.5-19c-98.667 0-189.667 16.5-273 49.5S348.17 123 280.502 195s-119.334 157.333-155 256S72 652.667 72 760c0 108 17.832 210 53.5 306s85.666 179.667 150 251 141 127.333 230 168 185.5 61 289.5 61c96 0 178.5-13.667 247.5-41s128-60.5 177-99.5 88.166-76.167 117.5-111.5h97v-178h-215c-44.668 76-103.835 136-177.502 180s-156.167 65.333-247.5 64c-76.667 0-147-16.333-211-49s-118.833-76.667-164.5-132-81.167-119-106.5-191-38-148-38-228c0-88.667 14-171 42-247s63.667-137.667 107-185 96.833-86.5 160.5-117.5S717.667 164 795 164c128 0 233 31.167 315 93.5S1249.333 417 1282 549H858v172h641V-6h-186zM837.002 1628c-50.667 0-97.834 8.334-141.5 25s-82 39.668-115 69-59.334 64.167-79 104.5S471 1910.666 469 1958h121c.666-28.668 7.333-56 20-82s30-48.834 52-68.5 48-35.335 78-47.002 62.333-17.5 97-17.5 67 5.667 97 17 56 26.833 78 46.5 39.333 42.5 52 68.5 19.667 53.667 21 83h121c-2-47.333-13-91.166-33-131.5s-46.5-75.165-79.5-104.498-71.5-52.333-115.5-69-91-25-141-25z"/><glyph glyph-name="gbreve" unicode="ğ" horiz-adv-x="1208" d="M858 91c-34-36-73.5-64-118.5-84S643.33-23 586-23C516-23 450.83-10.83 390.5 13.5s-112.667 60-157 107-79 104.668-104 173S92 440 92 528c0 80 12 152.834 36 218.5s58 121.668 102 168 97 82.334 159 108 131 38.5 207 38.5c52 0 98.833-5.832 140.5-17.5s82.167-31.833 121.5-60.5v53h186V41c0-164-38.833-288-116.5-372S729-457 565-457c-36 0-73.667 2.667-113 8s-78.166 13.833-116.5 25.5S259.836-397 223.503-379s-69.833 40-100.5 66l100 151c20-17.333 42.833-33.333 68.5-48s53.167-27.167 82.5-37.5 59.666-18.5 91-24.5 62.665-9 93.998-9c51.333 0 95.833 5.333 133.5 16s68.667 29.5 93 56.5S828-145 840-99 858 5.333 858 76v15zm-248 48c30.666 0 58.665 2.998 83.998 8.998s48.333 13.833 69 23.5 38.834 20.834 54.5 33.5 29.168 26 40.5 40v567c-34 30-73.166 51.668-117.5 65s-89.832 20-136.5 20c-44 0-85.332-8.166-124-24.5S407.5 832.334 378.5 801s-51.832-69.666-68.5-115-25-97.332-25-156c0-64 8-120.332 24-169s38.334-89.5 67-122.5 63-57.832 103-74.5 83.668-25 131-25zm-6.002 1010c-50.667 0-97.834 8.334-141.5 25s-82 39.668-115 69-59.334 64.167-79 104.5-30.5 84.166-32.5 131.5h121c.666-28.668 7.333-56 20-82s30-48.834 52-68.5 48-35.335 78-47.002 62.333-17.5 97-17.5 67 5.667 97 17 56 26.833 78 46.5 39.333 42.5 52 68.5 19.667 53.667 21 83h121c-2-47.333-13-91.166-33-131.5s-46.5-75.165-79.5-104.498-71.5-52.333-115.5-69-91-25-141-25z"/><glyph glyph-name="Gcommaaccent" unicode="Ģ" horiz-adv-x="1677" d="M1313-6l.002 304c-25.333-52.667-57-98.5-95-137.5s-80.333-71.167-127-96.5-96.5-44.333-149.5-57-106.833-19-161.5-19c-98.667 0-189.667 16.5-273 49.5S348.17 123 280.502 195s-119.334 157.333-155 256S72 652.667 72 760c0 108 17.832 210 53.5 306s85.666 179.667 150 251 141 127.333 230 168 185.5 61 289.5 61c96 0 178.5-13.667 247.5-41s128-60.5 177-99.5 88.166-76.167 117.5-111.5h97v-178h-215c-44.668 76-103.835 136-177.502 180s-156.167 65.333-247.5 64c-76.667 0-147-16.333-211-49s-118.833-76.667-164.5-132-81.167-119-106.5-191-38-148-38-228c0-88.667 14-171 42-247s63.667-137.667 107-185 96.833-86.5 160.5-117.5S717.667 164 795 164c128 0 233 31.167 315 93.5S1249.333 417 1282 549H858v172h641V-6h-186zM788.002-41l211-84-180-348-144 53z"/><glyph glyph-name="gcommaaccent" unicode="ģ" horiz-adv-x="1208" d="M858 91c-34-36-73.5-64-118.5-84S643.33-23 586-23C516-23 450.83-10.83 390.5 13.5s-112.667 60-157 107-79 104.668-104 173S92 440 92 528c0 80 12 152.834 36 218.5s58 121.668 102 168 97 82.334 159 108 131 38.5 207 38.5c52 0 98.833-5.832 140.5-17.5s82.167-31.833 121.5-60.5v53h186V41c0-164-38.833-288-116.5-372S729-457 565-457c-36 0-73.667 2.667-113 8s-78.166 13.833-116.5 25.5S259.836-397 223.503-379s-69.833 40-100.5 66l100 151c20-17.333 42.833-33.333 68.5-48s53.167-27.167 82.5-37.5 59.666-18.5 91-24.5 62.665-9 93.998-9c51.333 0 95.833 5.333 133.5 16s68.667 29.5 93 56.5S828-145 840-99 858 5.333 858 76v15zm-248 48c30.666 0 58.665 2.998 83.998 8.998s48.333 13.833 69 23.5 38.834 20.834 54.5 33.5 29.168 26 40.5 40v567c-34 30-73.166 51.668-117.5 65s-89.832 20-136.5 20c-44 0-85.332-8.166-124-24.5S407.5 832.334 378.5 801s-51.832-69.666-68.5-115-25-97.332-25-156c0-64 8-120.332 24-169s38.334-89.5 67-122.5 63-57.832 103-74.5 83.668-25 131-25zm101.998 986l-211 84 181 349 143-54z"/><glyph glyph-name="Imacron" unicode="Ī" horiz-adv-x="770" d="M143 1516h484v-173H483V172h144V0H143v172h144v1171H143v173zm624 192H9v117h758v-117z"/><glyph glyph-name="imacron" unicode="ī" horiz-adv-x="657" d="M92 1036h338V172h156V0H94v172h148v692H92v172zm615 193H-51v117h758v-117z"/><glyph glyph-name="Iogonek" unicode="Į" horiz-adv-x="780" d="M145 1516h492v-173H479V172h156V0h-47c-26-1.333-53-6.833-81-16.5s-53.333-23-76-40S389.5-95 374.5-121 352-177 352-211c0-35.333 10.333-63 31-83s48-30 82-30c26 0 50.5 2.167 73.5 6.5S580-307.667 594-301l43-127c-18-10.667-42.667-20.5-74-29.5S497-471 459-471c-82 0-149.333 18.167-202 54.5S178-328 178-260c0 60 14.333 111.167 43 153.5S284.667-28.667 326 0H143v172h140v1171H145v173z"/><glyph glyph-name="iogonek" unicode="į" horiz-adv-x="657" d="M59 1036h338V172h156V0h-72c-26-1.333-53-6.833-81-16.5s-53.168-23-75.5-40-41-38.5-56-64.5-22.5-56-22.5-90c0-35.333 10.166-63 30.5-83s47.5-30 81.5-30c26 0 50.666 2.167 74 6.5s41.665 9.833 54.998 16.5l43-127c-17.333-10.667-41.666-20.5-73-29.5S390.667-471 352-471c-82 0-149.166 18.167-201.5 54.5S72-328 72-260c0 60 14.334 111.167 43 153.5S178.334-28.667 219 0H61v172h148v692H59v172z"/><glyph glyph-name="Idotaccent" unicode="İ" horiz-adv-x="770" d="M143 1516h484v-173H483V172h144V0H143v172h144v1171H143v173zm131 366c0 17.333 3.5 33.833 10.5 49.5s16.333 29.334 28 41 25.5 21 41.5 28 33 10.5 51 10.5c17.333 0 33.833-3.5 49.5-10.5s29.334-16.332 41-28 21-25.333 28-41 10.5-32.167 10.5-49.5c0-18-3.5-35-10.5-51s-16.332-30.167-28-42.5-25.333-22-41-29-32.167-10.5-49.5-10.5c-18 0-35 3.5-51 10.5s-29.833 16.667-41.5 29-21 26.5-28 42.5-10.5 33-10.5 51z"/><glyph glyph-name="dotlessi" unicode="ı" horiz-adv-x="657" d="M92 1036h338V172h156V0H94v172h148v692H92v172z"/><glyph glyph-name="Kcommaaccent" unicode="Ķ" horiz-adv-x="1563" d="M1147 1343v173h348v-173h-119L712 784l621-612h162V0h-408v172L485 774zM145 1516h492v-173H483V172h152V0H143v172h144v1171H145v173zM731-41l211-84-180-348-144 53z"/><glyph glyph-name="kcommaaccent" unicode="ķ" horiz-adv-x="1276" d="M92 1556h365v-172h-2V610h180l246 254h-62v172h393V864h-131L766 539l344-367h125V0h-219L592 463H455V172h86V0H98v172h170v1212H92v172zM588-41l211-84-180-348-144 53z"/><glyph glyph-name="Lacute" unicode="Ĺ" horiz-adv-x="1296" d="M143 1516h491.998v-173h-152V172h523c10.667 0 21.334 2.5 32 7.5S1058.334 191 1067 199s15.667 17.167 21 27.5 8 20.833 8 31.5v191h190V0H143v172h144v1171H143v173zm380.998 358h240v-17l-299-282h-154z"/><glyph glyph-name="lacute" unicode="ĺ" horiz-adv-x="666" d="M92 1556h336V172h156V0H92v172h150v1212H92v172zm330 363h240v-17l-299-282H209z"/><glyph glyph-name="Lcommaaccent" unicode="Ļ" horiz-adv-x="1296" d="M143 1516h491.998v-173h-152V172h523c10.667 0 21.334 2.5 32 7.5S1058.334 191 1067 199s15.667 17.167 21 27.5 8 20.833 8 31.5v191h190V0H143v172h144v1171H143v173zM597.998-41l211-84-180-348-144 53z"/><glyph glyph-name="lcommaaccent" unicode="ļ" horiz-adv-x="666" d="M92 1556h336V172h156V0H92v172h150v1212H92v172zM283-41l211-84-180-348-144 53z"/><glyph glyph-name="Lcaron" unicode="Ľ" horiz-adv-x="1296" d="M143 1516h491.998v-173h-152V172h523c10.667 0 21.334 2.5 32 7.5S1058.334 191 1067 199s15.667 17.167 21 27.5 8 20.833 8 31.5v191h190V0H143v172h144v1171H143v173zm930-495H924v518l197 16z"/><glyph glyph-name="lcaron" unicode="ľ" horiz-adv-x="780" d="M92 1556h336V172h156V0H92v172h150v1212H92v172zm622-497H565v518l197 16z"/><glyph glyph-name="Lslash" unicode="Ł" horiz-adv-x="1296" d="M143 1516h492v-173H477V786l561 304V881L477 578V172h522c22 0 42.667 8.833 62 26.5s29 37.5 29 59.5v191h196V0H143v172h138v301l-138-74v209l138 74v661H143v173z"/><glyph glyph-name="lslash" unicode="ł" horiz-adv-x="666" d="M92 1556h336V942l162 150V844L428 694V172h156V0H92v172h150v348L94 385v248l148 135v616H92v172z"/><glyph glyph-name="Nacute" unicode="Ń" horiz-adv-x="1624" d="M1081 1516h492v-173h-129V0h-256L483 1257V172h156V0H147v172h140v1171H143v175h408l692-1245 8 48v1022h-170v173zm-182 440h240v-17l-299-282H686z"/><glyph glyph-name="nacute" unicode="ń" horiz-adv-x="1366" d="M782 172h145.998v473c0 79.334-20.167 139.5-60.5 180.5s-98.166 61.5-173.5 61.5c-43.332 0-87-10.332-131-31s-85.666-46.333-125-77V172h146V0H100v172h144v692H100v172h330V914h2c22 19.333 45.5 37.666 70.5 55s51.168 32.332 78.5 45 55.834 22.666 85.5 30 60.835 11 93.502 11c55.333 0 105.333-7.668 150-23s82.667-38.667 114-70 55.5-71.5 72.5-120.5S1122 734.667 1122 668V172h144V0H782v172zm-24.002 1305h240v-17l-299-282h-154z"/><glyph glyph-name="Ncommaaccent" unicode="Ņ" horiz-adv-x="1624" d="M1081 1516h492v-173h-129V0h-256L483 1257V172h156V0H147v172h140v1171H143v175h408l692-1245 8 48v1022h-170v173zM762-41l211-84-180-348-144 53z"/><glyph glyph-name="ncommaaccent" unicode="ņ" horiz-adv-x="1366" d="M782 172h145.998v473c0 79.334-20.167 139.5-60.5 180.5s-98.166 61.5-173.5 61.5c-43.332 0-87-10.332-131-31s-85.666-46.333-125-77V172h146V0H100v172h144v692H100v172h330V914h2c22 19.333 45.5 37.666 70.5 55s51.168 32.332 78.5 45 55.834 22.666 85.5 30 60.835 11 93.502 11c55.333 0 105.333-7.668 150-23s82.667-38.667 114-70 55.5-71.5 72.5-120.5S1122 734.667 1122 668V172h144V0H782v172zM632.998-41l211-84-180-348-144 53z"/><glyph glyph-name="Ncaron" unicode="Ň" horiz-adv-x="1624" d="M1081 1516h492v-173h-129V0h-256L483 1257V172h156V0H147v172h140v1171H143v175h408l692-1245 8 48v1022h-170v173zm37 451l-252-353h-49l-252 353h144l133-196 135 196h141z"/><glyph glyph-name="ncaron" unicode="ň" horiz-adv-x="1366" d="M782 172h145.998v473c0 79.334-20.167 139.5-60.5 180.5s-98.166 61.5-173.5 61.5c-43.332 0-87-10.332-131-31s-85.666-46.333-125-77V172h146V0H100v172h144v692H100v172h330V914h2c22 19.333 45.5 37.666 70.5 55s51.168 32.332 78.5 45 55.834 22.666 85.5 30 60.835 11 93.502 11c55.333 0 105.333-7.668 150-23s82.667-38.667 114-70 55.5-71.5 72.5-120.5S1122 734.667 1122 668V172h144V0H782v172zm194.998 1316l-252-353h-49l-252 353h144l133-196 135 196h141z"/><glyph glyph-name="napostrophe" unicode="ŉ" horiz-adv-x="1366" d="M782 172h145.998v473c0 79.334-20.167 139.5-60.5 180.5s-98.166 61.5-173.5 61.5c-43.332 0-87-10.332-131-31s-85.666-46.333-125-77V172h146V0H100v172h144v692H100v172h330V914h2c22 19.333 45.5 37.666 70.5 55s51.168 32.332 78.5 45 55.834 22.666 85.5 30 60.835 11 93.502 11c55.333 0 105.333-7.668 150-23s82.667-38.667 114-70 55.5-71.5 72.5-120.5S1122 734.667 1122 668V172h144V0H782v172zM351.998 1553l211-84-180-349-144 54z"/><glyph glyph-name="Omacron" unicode="Ō" horiz-adv-x="1602" d="M799-30c-104.667 0-200.332 19.5-287 58.5S348 123 280 195 160.335 352.333 125 451 72 652 72 758c0 109.333 17.834 212 53.5 308s85.668 179.5 150 250.5 141 127 230 168S692.335 1546 799 1546c107.334 0 205.667-20.5 295-61.5s166-97 230-168 113.667-154.5 149-250.5 53-198.667 53-308-17.833-211.833-53.5-307.5-85.667-179.167-150-250.5-141-127.5-230-168.5S905.667-30 799-30zm.002 186c79.333 0 151.17 16.332 215.502 49s119.166 76.5 164.5 131.5 80.332 118.832 105 191.5 37 149.333 37 230c0 82.667-13.5 162.5-40.5 239.5s-64.668 142.167-113 195.5-104.5 94.5-168.5 123.5-130.668 43.5-200 43.5c-79.334 0-151.334-16.333-216-49s-119.668-76.5-165-131.5-80.334-119-105-192-37-149.5-37-229.5c0-93.333 13.666-176.5 41-249.5s63.5-133.667 108.5-182 98.666-88.833 161-121.5S719.668 156 799 156zM1151 1708H393v117h758v-117z"/><glyph glyph-name="omacron" unicode="ō" horiz-adv-x="1219" d="M86 518c.667 82 13.83 156.672 39.498 224.005s61.5 125.166 107.5 173.5 100.667 85.5 164 111.5 133 39 209 39c76.667 0 146.834-13 210.5-39s118.168-62.834 163.5-110.5 80.667-105.168 106-172.5 38-142 38-224c0-80.668-12.667-154.835-38-222.502s-60.666-125.834-106-174.5-99.832-86.5-163.5-113.5-133.833-40.5-210.5-40.5c-78 0-148.667 13.332-212 40s-117.666 64.166-163 112.5S150.334 227.667 125 295 86.667 436.668 86 518zm196.997.005c0-59.333 8.5-113 25.5-161s40.333-88.833 70-122.5 64-59.667 103-78 80.5-27.5 124.5-27.5c46 0 88.833 9 128.5 27s74.167 43.833 103.5 77.5 52.333 74.5 69 122.5 25 102 25 162c0 62.667-8.333 118.334-25 167s-39.5 89.335-68.5 122.002-63.5 57.334-103.5 74-83 25-129 25c-44 0-85.5-8.332-124.5-25s-73.333-41.333-103-74-53-73.334-70-122-25.5-104.335-25.5-167.002zm680 710.995h-758v117h758v-117z"/><glyph glyph-name="Ohungarumlaut" unicode="Ő" horiz-adv-x="1602" d="M799-30c-104.667 0-200.332 19.5-287 58.5S348 123 280 195 160.335 352.333 125 451 72 652 72 758c0 109.333 17.834 212 53.5 308s85.668 179.5 150 250.5 141 127 230 168S692.335 1546 799 1546c107.334 0 205.667-20.5 295-61.5s166-97 230-168 113.667-154.5 149-250.5 53-198.667 53-308-17.833-211.833-53.5-307.5-85.667-179.167-150-250.5-141-127.5-230-168.5S905.667-30 799-30zm.002 186c79.333 0 151.17 16.332 215.502 49s119.166 76.5 164.5 131.5 80.332 118.832 105 191.5 37 149.333 37 230c0 82.667-13.5 162.5-40.5 239.5s-64.668 142.167-113 195.5-104.5 94.5-168.5 123.5-130.668 43.5-200 43.5c-79.334 0-151.334-16.333-216-49s-119.668-76.5-165-131.5-80.334-119-105-192-37-149.5-37-229.5c0-93.333 13.666-176.5 41-249.5s63.5-133.667 108.5-182 98.666-88.833 161-121.5S719.668 156 799 156zM1261 1957l-233-300H876l208 300h177zm-320.995 0l-222-300h-151l195 300h178z"/><glyph glyph-name="ohungarumlaut" unicode="ő" horiz-adv-x="1219" d="M86 518c.667 82 13.83 156.672 39.498 224.005s61.5 125.166 107.5 173.5 100.667 85.5 164 111.5 133 39 209 39c76.667 0 146.834-13 210.5-39s118.168-62.834 163.5-110.5 80.667-105.168 106-172.5 38-142 38-224c0-80.668-12.667-154.835-38-222.502s-60.666-125.834-106-174.5-99.832-86.5-163.5-113.5-133.833-40.5-210.5-40.5c-78 0-148.667 13.332-212 40s-117.666 64.166-163 112.5S150.334 227.667 125 295 86.667 436.668 86 518zm196.997.005c0-59.333 8.5-113 25.5-161s40.333-88.833 70-122.5 64-59.667 103-78 80.5-27.5 124.5-27.5c46 0 88.833 9 128.5 27s74.167 43.833 103.5 77.5 52.333 74.5 69 122.5 25 102 25 162c0 62.667-8.333 118.334-25 167s-39.5 89.335-68.5 122.002-63.5 57.334-103.5 74-83 25-129 25c-44 0-85.5-8.332-124.5-25s-73.333-41.333-103-74-53-73.334-70-122-25.5-104.335-25.5-167.002zM1072 1478l-233-300H687l208 300h177zm-321.003 0l-222-300h-151l195 300h178z"/><glyph glyph-name="OE" unicode="Œ" horiz-adv-x="2335" d="M801-31c-106.667 0-204.666 20.5-294 61.5s-166.5 97.332-231.5 169-115.166 155.333-150.5 251S72 648.667 72 758s18 212 54 308 86.168 179.5 150.5 250.5 141.167 127 230.5 168 187.333 61.5 294 61.5c110.667 0 211-21.5 301-64.5s167.667-101.833 233-176.5v211h942v-429h-204v256h-541V858h455V686h-455V172h541v256h204V0h-942v213c-65.333-76.667-143-136.5-233-179.5S911.667-31 801-31zm0 189c79.334 0 151.003 15.998 215.003 47.998s118.5 75.667 163.5 131 79.833 119.166 104.5 191.5 37 148.832 37 229.5c0 79.332-12.333 155.5-37 228.5s-59.5 137.166-104.5 192.5-99.5 99.332-163.5 132-135.667 49-215 49-151.5-16.334-216.5-49-120.333-76.668-166-132-80.834-119.167-105.5-191.5-37-148.833-37-229.5 12.666-157.167 38-229.5 60.832-136.166 106.5-191.5 100.666-99 165-131S721.667 158 801 158z"/><glyph glyph-name="oe" unicode="œ" horiz-adv-x="1972" d="M86 518c.667 82 13.83 156.672 39.498 224.005s61.5 125.166 107.5 173.5 100.667 85.5 164 111.5 133 39 209 39c76.667 0 146.834-13 210.5-39s118.168-62.834 163.5-110.5 80.667-105.168 106-172.5 38-142 38-224c0-80.668-12.667-154.835-38-222.502s-60.666-125.834-106-174.5-99.832-86.5-163.5-113.5-133.833-40.5-210.5-40.5c-78 0-148.667 13.332-212 40s-117.666 64.166-163 112.5S150.334 227.667 125 295 86.667 436.668 86 518zm196.997.005c0-59.333 8.5-113 25.5-161s40.333-88.833 70-122.5 64-59.667 103-78 80.5-27.5 124.5-27.5c46 0 88.833 9 128.5 27s74.167 43.833 103.5 77.5 52.333 74.5 69 122.5 25 102 25 162c0 62.667-8.333 118.334-25 167s-39.5 89.335-68.5 122.002-63.5 57.334-103.5 74-83 25-129 25c-44 0-85.5-8.332-124.5-25s-73.333-41.333-103-74-53-73.334-70-122-25.5-104.335-25.5-167.002zm847.003-24c0-29.333 2.166-56.165 6.5-80.498s10.5-47.5 18.5-69.5c24.666-66.667 64.166-116.834 118.5-150.5s115.832-50.5 184.5-50.5c54 0 106.5 7.5 157.5 22.5s104.5 38.5 160.5 70.5l75-127c-68-46.668-136.334-81.335-205-104.002s-140-34-214-34c-70 0-134.834 11.667-194.5 35s-111 58-154 104-76.668 103.333-101 172-36.5 148.667-36.5 240c0 74 10.332 143.833 31 209.5s51.5 123 92.5 172 91.832 87.833 152.5 116.5 131.333 43 212 43c78 0 143.167-11.833 195.5-35.5s95-55 128-94 58-83.5 75-133.5 28.833-101 35.5-153c3.333-25.333 5.5-51 6.5-77s1.5-51.333 1.5-76h-746zm291 413c-43.333 0-81.164-6.168-113.497-18.5s-59.833-30-82.5-53-40.834-51.168-54.5-84.5-23.835-70.667-30.502-112h537c-2.666 38.667-8.833 74.334-18.5 107s-24.5 61-44.5 85-45.667 42.668-77 56-70 20-116 20z"/><glyph glyph-name="Racute" unicode="Ŕ" horiz-adv-x="1464" d="M143 1516h630.998c67.333 0 129.5-8.832 186.5-26.5s106.333-43.666 148-78 74.167-77.165 97.5-128.498 35-110.333 35-177c0-38-6.833-75.5-20.5-112.5s-32.667-71.333-57-103-53.166-59.834-86.5-84.5-69.665-43.668-108.998-57c16.667-7.334 33.5-17.834 50.5-31.5s33-30.335 48-50.002 28.667-42 41-67 22.166-51.833 29.5-80.5l84-330h131l2-190h-295L946 461c-20.668 82.667-52.168 143.5-94.5 182.5S751.332 702 678 702H483V172h152V0H143v172h144v1171H143v173zm339.998-173V866h291c38 0 72.833 5 104.5 15s59 25 82 45 41 44.833 54 74.5 19.5 64.167 19.5 103.5c0 75.333-22.667 134-68 176s-117.333 63-216 63h-267zm279 615h240v-17l-299-282h-154z"/><glyph glyph-name="racute" unicode="ŕ" horiz-adv-x="961" d="M845 817H655v64c-22 0-44.5-4.167-67.5-12.5s-44.5-21-64.5-38-37.5-38.667-52.5-65S444.667 708 438 672V172h176V0H100v172h143l1 692H100v172h331V893c12 21.333 25.5 41.166 40.5 59.5s31.667 34.332 50 48 38.666 24.333 61 32S629 1044 655 1044h98c30.666 0 61.333-.667 92-2V817zm-368 660h240v-17l-299-282H264z"/><glyph glyph-name="Rcommaaccent" unicode="Ŗ" horiz-adv-x="1464" d="M143 1516h630.998c67.333 0 129.5-8.832 186.5-26.5s106.333-43.666 148-78 74.167-77.165 97.5-128.498 35-110.333 35-177c0-38-6.833-75.5-20.5-112.5s-32.667-71.333-57-103-53.166-59.834-86.5-84.5-69.665-43.668-108.998-57c16.667-7.334 33.5-17.834 50.5-31.5s33-30.335 48-50.002 28.667-42 41-67 22.166-51.833 29.5-80.5l84-330h131l2-190h-295L946 461c-20.668 82.667-52.168 143.5-94.5 182.5S751.332 702 678 702H483V172h152V0H143v172h144v1171H143v173zm339.998-173V866h291c38 0 72.833 5 104.5 15s59 25 82 45 41 44.833 54 74.5 19.5 64.167 19.5 103.5c0 75.333-22.667 134-68 176s-117.333 63-216 63h-267zm199-1384l211-84-180-348-144 53z"/><glyph glyph-name="rcommaaccent" unicode="ŗ" horiz-adv-x="961" d="M845 817H655v64c-22 0-44.5-4.167-67.5-12.5s-44.5-21-64.5-38-37.5-38.667-52.5-65S444.667 708 438 672V172h176V0H100v172h143l1 692H100v172h331V893c12 21.333 25.5 41.166 40.5 59.5s31.667 34.332 50 48 38.666 24.333 61 32S629 1044 655 1044h98c30.666 0 61.333-.667 92-2V817zM315-41l211-84-180-348-144 53z"/><glyph glyph-name="Rcaron" unicode="Ř" horiz-adv-x="1464" d="M143 1516h630.998c67.333 0 129.5-8.832 186.5-26.5s106.333-43.666 148-78 74.167-77.165 97.5-128.498 35-110.333 35-177c0-38-6.833-75.5-20.5-112.5s-32.667-71.333-57-103-53.166-59.834-86.5-84.5-69.665-43.668-108.998-57c16.667-7.334 33.5-17.834 50.5-31.5s33-30.335 48-50.002 28.667-42 41-67 22.166-51.833 29.5-80.5l84-330h131l2-190h-295L946 461c-20.668 82.667-52.168 143.5-94.5 182.5S751.332 702 678 702H483V172h152V0H143v172h144v1171H143v173zm339.998-173V866h291c38 0 72.833 5 104.5 15s59 25 82 45 41 44.833 54 74.5 19.5 64.167 19.5 103.5c0 75.333-22.667 134-68 176s-117.333 63-216 63h-267zm498 626l-252-353h-49l-252 353h144l133-196 135 196h141z"/><glyph glyph-name="rcaron" unicode="ř" horiz-adv-x="961" d="M845 817H655v64c-22 0-44.5-4.167-67.5-12.5s-44.5-21-64.5-38-37.5-38.667-52.5-65S444.667 708 438 672V172h176V0H100v172h143l1 692H100v172h331V893c12 21.333 25.5 41.166 40.5 59.5s31.667 34.332 50 48 38.666 24.333 61 32S629 1044 655 1044h98c30.666 0 61.333-.667 92-2V817zm-148 671l-252-353h-49l-252 353h144l133-196 135 196h141z"/><glyph glyph-name="Sacute" unicode="Ś" horiz-adv-x="1210" d="M888 1236c-21.333 29.333-44.827 51.826-70.494 67.493s-53.834 27.667-84.5 36-61.335 12.5-92.002 12.5c-50.667 0-95-5.833-133-17.5s-69.5-27.5-94.5-47.5-43.833-43.333-56.5-70-19-54.667-19-84c0-44 7.833-79.5 23.5-106.5s35.5-48.667 59.5-65 50.5-29.166 79.5-38.5l83.5-28 202-66c60.667-19.332 114.167-41.332 160.5-66s85.166-53.833 116.5-87.5 55.165-72.5 71.498-116.5 24.5-95 24.5-153c0-62.667-12.833-120.667-38.5-174s-61.5-99.666-107.5-139S912.17 22.83 848.502.496s-133.5-33.5-209.5-33.5c-78 0-144.667 8.833-200 26.5s-101.833 41.334-139.5 71-67.834 63.5-90.5 101.5-40.335 77-53.002 117H80v172h252c0-74 7.833-126.332 23.5-157s37.5-56.166 65.5-76.5 61.333-35.665 100-45.998 81.334-15.5 128-15.5c45.334 0 86.167 5.333 122.5 16s67.333 26.167 93 46.5 45.334 45 59 74 20.5 61.833 20.5 98.5c0 40.667-8.5 75.167-25.5 103.5s-38.832 52.5-65.5 72.5-55.833 36.333-87.5 49-62.167 23.667-91.5 33l-219 62c-48 14.667-91.833 33.334-131.5 56s-73.667 50.335-102 83.002-50.166 70.833-65.5 114.5-23 94.167-23 151.5c0 58 11.334 112.333 34 163s56 95 100 133 97.834 67.833 161.5 89.5S565 1538 647 1538c54 0 103.834-6.333 149.5-19s87-30.5 124-53.5 69.668-50.667 98-83 52.167-67.833 71.5-106.5h75v-172H920c0 58.667-10.667 102.667-32 132zm-166.994 719.99h240v-17l-299-282h-154z"/><glyph glyph-name="sacute" unicode="ś" horiz-adv-x="993" d="M678.5 829.5c-13 19.667-29.83 35.668-50.498 48s-43.667 21.334-69 27-50 8.5-74 8.5c-26.667 0-51.167-3-73.5-9s-41.5-14.666-57.5-26-28.5-25.165-37.5-41.498-13.5-34.5-13.5-54.5c0-34.667 10.5-62.167 31.5-82.5s56.167-39.166 105.5-56.5l199-70c85.333-28.666 147.666-67.666 187-117s59-108.332 59-177c0-46-9.168-88.166-27.5-126.5s-44.334-71-78-98-74.168-48-121.5-63-100-22.5-158-22.5c-80.668 0-146.335 13-197.002 39s-89.667 60.334-117 103H82v172h207c0-28.666 6.167-53.166 18.5-73.5s28.666-36.832 49-49.5 43.332-22 69-28 51.833-9 78.5-9c26 0 51 3.168 75 9.5s45.167 15.667 63.5 28 32.833 27.166 43.5 44.5 16 37 16 59c0 33.332-10.833 61.665-32.5 84.998S611 393.333 559 412l-198 74c-80.667 28.667-140.5 65.167-179.5 109.5S123 695.333 123 762c0 44 8.167 84.667 24.5 122s40 69.5 71 96.5 68.833 48.167 113.5 63.5 95.667 23 153 23c74 0 136-10.333 186-31s95-56 135-106h97V758H698c0 28-6.5 51.833-19.5 71.5zM565.002 1477h240v-17l-299-282h-154z"/><glyph glyph-name="Scedilla" unicode="Ş" horiz-adv-x="1210" d="M888 1236c-21.333 29.333-44.827 51.826-70.494 67.493s-53.834 27.667-84.5 36-61.335 12.5-92.002 12.5c-50.667 0-95-5.833-133-17.5s-69.5-27.5-94.5-47.5-43.833-43.333-56.5-70-19-54.667-19-84c0-44 7.833-79.5 23.5-106.5s35.5-48.667 59.5-65 50.5-29.166 79.5-38.5l83.5-28 202-66c60.667-19.332 114.167-41.332 160.5-66s85.166-53.833 116.5-87.5 55.165-72.5 71.498-116.5 24.5-95 24.5-153c0-62.667-12.833-120.667-38.5-174s-61.5-99.666-107.5-139S912.17 22.83 848.502.496s-133.5-33.5-209.5-33.5c-78 0-144.667 8.833-200 26.5s-101.833 41.334-139.5 71-67.834 63.5-90.5 101.5-40.335 77-53.002 117H80v172h252c0-74 7.833-126.332 23.5-157s37.5-56.166 65.5-76.5 61.333-35.665 100-45.998 81.334-15.5 128-15.5c45.334 0 86.167 5.333 122.5 16s67.333 26.167 93 46.5 45.334 45 59 74 20.5 61.833 20.5 98.5c0 40.667-8.5 75.167-25.5 103.5s-38.832 52.5-65.5 72.5-55.833 36.333-87.5 49-62.167 23.667-91.5 33l-219 62c-48 14.667-91.833 33.334-131.5 56s-73.667 50.335-102 83.002-50.166 70.833-65.5 114.5-23 94.167-23 151.5c0 58 11.334 112.333 34 163s56 95 100 133 97.834 67.833 161.5 89.5S565 1538 647 1538c54 0 103.834-6.333 149.5-19s87-30.5 124-53.5 69.668-50.667 98-83 52.167-67.833 71.5-106.5h75v-172H920c0 58.667-10.667 102.667-32 132zM338.006-303.007c36.667.667 69.835 7.166 99.502 19.5s55.667 28.5 78 48.5 40.666 43.5 55 70.5 24.165 55.832 29.498 86.5l150-45c-12-48.668-30.667-92.168-56-130.5s-55.5-70.667-90.5-97-74.167-46.5-117.5-60.5-89-21-137-21z"/><glyph glyph-name="scedilla" unicode="ş" horiz-adv-x="993" d="M678.5 829.5c-13 19.667-29.83 35.668-50.498 48s-43.667 21.334-69 27-50 8.5-74 8.5c-26.667 0-51.167-3-73.5-9s-41.5-14.666-57.5-26-28.5-25.165-37.5-41.498-13.5-34.5-13.5-54.5c0-34.667 10.5-62.167 31.5-82.5s56.167-39.166 105.5-56.5l199-70c85.333-28.666 147.666-67.666 187-117s59-108.332 59-177c0-46-9.168-88.166-27.5-126.5s-44.334-71-78-98-74.168-48-121.5-63-100-22.5-158-22.5c-80.668 0-146.335 13-197.002 39s-89.667 60.334-117 103H82v172h207c0-28.666 6.167-53.166 18.5-73.5s28.666-36.832 49-49.5 43.332-22 69-28 51.833-9 78.5-9c26 0 51 3.168 75 9.5s45.167 15.667 63.5 28 32.833 27.166 43.5 44.5 16 37 16 59c0 33.332-10.833 61.665-32.5 84.998S611 393.333 559 412l-198 74c-80.667 28.667-140.5 65.167-179.5 109.5S123 695.333 123 762c0 44 8.167 84.667 24.5 122s40 69.5 71 96.5 68.833 48.167 113.5 63.5 95.667 23 153 23c74 0 136-10.333 186-31s95-56 135-106h97V758H698c0 28-6.5 51.833-19.5 71.5zM291.002-303c36.667.668 69.835 7.167 99.502 19.5s55.667 28.5 78 48.5 40.666 43.5 55 70.5S547.668-108.667 553-78l150-45c-12-48.667-30.667-92.167-56-130.5s-55.5-70.666-90.5-97-74.167-46.5-117.5-60.5-89-21-137-21z"/><glyph glyph-name="Scaron" unicode="Š" horiz-adv-x="1210" d="M888 1236c-21.333 29.333-44.827 51.826-70.494 67.493s-53.834 27.667-84.5 36-61.335 12.5-92.002 12.5c-50.667 0-95-5.833-133-17.5s-69.5-27.5-94.5-47.5-43.833-43.333-56.5-70-19-54.667-19-84c0-44 7.833-79.5 23.5-106.5s35.5-48.667 59.5-65 50.5-29.166 79.5-38.5l83.5-28 202-66c60.667-19.332 114.167-41.332 160.5-66s85.166-53.833 116.5-87.5 55.165-72.5 71.498-116.5 24.5-95 24.5-153c0-62.667-12.833-120.667-38.5-174s-61.5-99.666-107.5-139S912.17 22.83 848.502.496s-133.5-33.5-209.5-33.5c-78 0-144.667 8.833-200 26.5s-101.833 41.334-139.5 71-67.834 63.5-90.5 101.5-40.335 77-53.002 117H80v172h252c0-74 7.833-126.332 23.5-157s37.5-56.166 65.5-76.5 61.333-35.665 100-45.998 81.334-15.5 128-15.5c45.334 0 86.167 5.333 122.5 16s67.333 26.167 93 46.5 45.334 45 59 74 20.5 61.833 20.5 98.5c0 40.667-8.5 75.167-25.5 103.5s-38.832 52.5-65.5 72.5-55.833 36.333-87.5 49-62.167 23.667-91.5 33l-219 62c-48 14.667-91.833 33.334-131.5 56s-73.667 50.335-102 83.002-50.166 70.833-65.5 114.5-23 94.167-23 151.5c0 58 11.334 112.333 34 163s56 95 100 133 97.834 67.833 161.5 89.5S565 1538 647 1538c54 0 103.834-6.333 149.5-19s87-30.5 124-53.5 69.668-50.667 98-83 52.167-67.833 71.5-106.5h75v-172H920c0 58.667-10.667 102.667-32 132zm52.006 730.99l-252-353h-49l-252 353h144l133-196 135 196h141z"/><glyph glyph-name="scaron" unicode="š" horiz-adv-x="993" d="M678.5 829.5c-13 19.667-29.83 35.668-50.498 48s-43.667 21.334-69 27-50 8.5-74 8.5c-26.667 0-51.167-3-73.5-9s-41.5-14.666-57.5-26-28.5-25.165-37.5-41.498-13.5-34.5-13.5-54.5c0-34.667 10.5-62.167 31.5-82.5s56.167-39.166 105.5-56.5l199-70c85.333-28.666 147.666-67.666 187-117s59-108.332 59-177c0-46-9.168-88.166-27.5-126.5s-44.334-71-78-98-74.168-48-121.5-63-100-22.5-158-22.5c-80.668 0-146.335 13-197.002 39s-89.667 60.334-117 103H82v172h207c0-28.666 6.167-53.166 18.5-73.5s28.666-36.832 49-49.5 43.332-22 69-28 51.833-9 78.5-9c26 0 51 3.168 75 9.5s45.167 15.667 63.5 28 32.833 27.166 43.5 44.5 16 37 16 59c0 33.332-10.833 61.665-32.5 84.998S611 393.333 559 412l-198 74c-80.667 28.667-140.5 65.167-179.5 109.5S123 695.333 123 762c0 44 8.167 84.667 24.5 122s40 69.5 71 96.5 68.833 48.167 113.5 63.5 95.667 23 153 23c74 0 136-10.333 186-31s95-56 135-106h97V758H698c0 28-6.5 51.833-19.5 71.5zM784.002 1488l-252-353h-49l-252 353h144l133-196 135 196h141z"/><glyph glyph-name="Tcommaaccent" unicode="Ţ" horiz-adv-x="1434" d="M453 172h139v1180H246v-236H41v400h1352v-400h-205v236H788V172h156V0H453v172zM668-41l211-84-180-348-144 53z"/><glyph glyph-name="tcommaaccent" unicode="ţ" horiz-adv-x="762" d="M400 1036h243V885H398l-3-598c0-40.666 4.668-73.666 14-99s24.334-42.832 45-52.5 44-14.5 70-14.5c28 0 52.668 2.5 74 7.5s44.667 13.5 70 25.5l43-125C679 12.335 645.333-.832 610-10.5S533-25 485-25c-45.333 0-84.833 5.5-118.5 16.5s-62 29.5-85 55.5-40.167 60.833-51.5 104.5-17 98.167-17 163.5l3 570H51v151h167v248l182 86v-334zM332-41l211-84-180-348-144 53z"/><glyph glyph-name="Tcaron" unicode="Ť" horiz-adv-x="1434" d="M453 172h139v1180H246v-236H41v400h1352v-400h-205v236H788V172h156V0H453v172zm540 1795l-252-353h-49l-252 353h144l133-196 135 196h141z"/><glyph glyph-name="tcaron" unicode="ť" horiz-adv-x="780" d="M400 1036h243V885H398l-3-598c0-40.666 4.668-73.666 14-99s24.334-42.832 45-52.5 44-14.5 70-14.5c28 0 52.668 2.5 74 7.5s44.667 13.5 70 25.5l43-125C679 12.335 645.333-.832 610-10.5S533-25 485-25c-45.333 0-84.833 5.5-118.5 16.5s-62 29.5-85 55.5-40.167 60.833-51.5 104.5-17 98.167-17 163.5l3 570H51v151h167v248l182 86v-334zm280 64H531v518l197 16z"/><glyph glyph-name="Umacron" unicode="Ū" horiz-adv-x="1559" d="M63 1516l491.003.003v-173h-155v-706c0-84.667 9.5-156.834 28.5-216.5s45.333-108.335 79-146.002 73.667-65.166 120-82.5 97.166-26 152.5-26c57.332 0 110 7.668 158 23s89.166 41.167 123.5 77.5 61 84.666 80 145 28.5 135.5 28.5 225.5v706h-164v173h491v-173h-135V659c0-109.334-15.168-206.334-45.5-291s-71.834-155.668-124.5-213-114.668-100.834-186-130.5-148-44.5-230-44.5c-80 0-154.834 14.666-224.5 44S420.167 96.33 368.5 153s-92.333 125.833-122 207.5S202 535.667 202 641v702H63v173zm1109 192H414v117h758v-117z"/><glyph glyph-name="umacron" unicode="ū" horiz-adv-x="1350" d="M724 1036h334V172h115V0H871v96c-46.668-36-97.5-64-152.5-84S604.665-18 542-18c-52 0-99.168 7.5-141.5 22.5s-78.334 38.332-108 70S240 146.332 224 195s-24 106.667-24 174v495H60v172h334V391c0-79.333 18.332-139.333 55-180s89.333-61 158-61c40.667 0 83.5 7.333 128.5 22S823 207 863 233v631H724v172zm206 193H172v117h758v-117z"/><glyph glyph-name="Uring" unicode="Ů" horiz-adv-x="1559" d="M63 1516l491.003.003v-173h-155v-706c0-84.667 9.5-156.834 28.5-216.5s45.333-108.335 79-146.002 73.667-65.166 120-82.5 97.166-26 152.5-26c57.332 0 110 7.668 158 23s89.166 41.167 123.5 77.5 61 84.666 80 145 28.5 135.5 28.5 225.5v706h-164v173h491v-173h-135V659c0-109.334-15.168-206.334-45.5-291s-71.834-155.668-124.5-213-114.668-100.834-186-130.5-148-44.5-230-44.5c-80 0-154.834 14.666-224.5 44S420.167 96.33 368.5 153s-92.333 125.833-122 207.5S202 535.667 202 641v702H63v173zm613.003 307c0-14 2.833-27.167 8.5-39.5s13.334-23.333 23-33 20.668-17.334 33-23 25.5-8.5 39.5-8.5 27.334 2.832 40 8.5 23.835 13.333 33.502 23 17.334 20.667 23 33 8.5 25.5 8.5 39.5-2.832 27.333-8.5 40-13.333 23.834-23 33.5-20.834 17.335-33.5 23.002-26 8.5-40 8.5-27.168-2.833-39.5-8.5-23.334-13.334-33-23-17.335-20.835-23.002-33.502-8.5-26-8.5-40zm104 256c34.667 0 67.667-6.833 99-20.5s58.5-32 81.5-55 41.333-50.167 55-81.5 20.5-64.333 20.5-99-6.833-67.5-20.5-98.5-32-58.167-55-81.5-50.167-41.833-81.5-55.5-64.333-20.5-99-20.5-67.5 6.833-98.5 20.5-58.167 32.167-81.5 55.5-41.833 50.5-55.5 81.5-20.5 63.833-20.5 98.5 6.833 67.667 20.5 99 32.167 58.5 55.5 81.5 50.5 41.333 81.5 55 63.833 20.5 98.5 20.5z"/><glyph glyph-name="uring" unicode="ů" horiz-adv-x="1350" d="M724 1036h334V172h115V0H871v96c-46.668-36-97.5-64-152.5-84S604.665-18 542-18c-52 0-99.168 7.5-141.5 22.5s-78.334 38.332-108 70S240 146.332 224 195s-24 106.667-24 174v495H60v172h334V391c0-79.333 18.332-139.333 55-180s89.333-61 158-61c40.667 0 83.5 7.333 128.5 22S823 207 863 233v631H724v172zm-248 307c0-14 2.832-27.167 8.5-39.5s13.333-23.333 23-33 20.667-17.334 33-23 25.5-8.5 39.5-8.5 27.333 2.832 40 8.5 23.834 13.333 33.5 23 17.335 20.667 23.002 33 8.5 25.5 8.5 39.5-2.833 27.333-8.5 40-13.334 23.834-23 33.5-20.835 17.335-33.502 23.002-26 8.5-40 8.5-27.167-2.833-39.5-8.5-23.333-13.334-33-23-17.334-20.835-23-33.502-8.5-26-8.5-40zm104 256c34.666 0 67.666-6.833 99-20.5s58.5-32 81.5-55 41.332-50.167 55-81.5 20.5-64.333 20.5-99-6.834-67.5-20.5-98.5-32-58.167-55-81.5-50.168-41.833-81.5-55.5-64.334-20.5-99-20.5-67.5 6.833-98.5 20.5-58.168 32.167-81.5 55.5-41.834 50.5-55.5 81.5-20.5 63.833-20.5 98.5 6.832 67.667 20.5 99 32.166 58.5 55.5 81.5 50.5 41.333 81.5 55S545.33 1599 580 1599z"/><glyph glyph-name="Uhungarumlaut" unicode="Ű" horiz-adv-x="1559" d="M63 1516l491.003.003v-173h-155v-706c0-84.667 9.5-156.834 28.5-216.5s45.333-108.335 79-146.002 73.667-65.166 120-82.5 97.166-26 152.5-26c57.332 0 110 7.668 158 23s89.166 41.167 123.5 77.5 61 84.666 80 145 28.5 135.5 28.5 225.5v706h-164v173h491v-173h-135V659c0-109.334-15.168-206.334-45.5-291s-71.834-155.668-124.5-213-114.668-100.834-186-130.5-148-44.5-230-44.5c-80 0-154.834 14.666-224.5 44S420.167 96.33 368.5 153s-92.333 125.833-122 207.5S202 535.667 202 641v702H63v173zm1181 441l-233-300H859l208 300h177zm-320.997 0l-222-300h-151l195 300h178z"/><glyph glyph-name="uhungarumlaut" unicode="ű" horiz-adv-x="1350" d="M724 1036h334V172h115V0H871v96c-46.668-36-97.5-64-152.5-84S604.665-18 542-18c-52 0-99.168 7.5-141.5 22.5s-78.334 38.332-108 70S240 146.332 224 195s-24 106.667-24 174v495H60v172h334V391c0-79.333 18.332-139.333 55-180s89.333-61 158-61c40.667 0 83.5 7.333 128.5 22S823 207 863 233v631H724v172zm316 442l-233-300H655l208 300h177zm-321 0l-222-300H346l195 300h178z"/><glyph glyph-name="Uogonek" unicode="Ų" horiz-adv-x="1559" d="M1005 1516l491.003.002v-173h-135v-684c0-128-20.5-238.5-61.5-331.5s-96.167-168.167-165.5-225.5l-76-78.5c-22-23.667-40.167-46.834-54.5-69.5s-24.833-45.668-31.5-69-10-48.334-10-75c0-45.334 13.667-79 41-101s58-33 92-33c26 0 52.667 2.832 80 8.5s47.666 11.833 61 18.5l43-123c-20.668-10.667-48.668-21.834-84-33.5s-76.334-17.5-123-17.5c-36.668 0-72 4.832-106 14.5s-64.334 24.666-91 45S827.167-365.334 811.5-334 788-265 788-221c0 40.667 6.5 78.167 19.5 112.5S838.335-42.667 861-14c-14.666-2.667-28.833-4.334-42.5-5s-28.167-1-43.5-1c-80 0-155.167 15-225.5 45S418.334 98.33 367 155s-91.665 125.833-120.998 207.5-44 174.5-44 278.5v702h-139v173h491v-173h-155V641c0-86 9.5-159 28.5-219s45.167-108.833 78.5-146.5 73.666-65.334 121-83S726.666 166 784 166s109.833 8.166 157.5 24.5 88.167 43.332 121.5 81 59.333 86.833 78 147.5 28 134.667 28 222v702h-164v173z"/><glyph glyph-name="uogonek" unicode="ų" horiz-adv-x="1198" d="M20 1036h334.003V391c0-79.332 18.167-139.332 54.5-180s89.166-61 158.5-61c40 0 82.832 7.168 128.5 21.5s88.166 34.834 127.5 61.5v631h-139v172h334V172h115V0h-19c-86-28.666-151.834-60.833-197.5-96.5s-68.5-78.5-68.5-128.5c0-27.333 10.166-50.666 30.5-70s47.832-29 82.5-29c25.332 0 49.665 2.168 72.998 6.5s42 9.834 56 16.5l43-127c-18-10.666-42.666-20.5-74-29.5S992.67-471 954-471c-16 0-31.5.668-46.5 2s-30.166 3.334-45.5 6c-28.666 5.334-54.5 14.167-77.5 26.5s-42.832 27-59.5 44-29.333 36.5-38 58.5-13 46.667-13 74c0 57.333 15.333 107.833 46 151.5S787.667-28 831 2v94c-47.333-35.333-98.333-63.166-153-83.5S564.666-18 502-18C440.665-18 388.165-8.83 344.5 9.5S265.33 56.168 238 94.5s-47.167 86.833-59.5 145.5S160 369 160 451v413H20v172z"/><glyph glyph-name="Ydieresis" unicode="Ÿ" horiz-adv-x="1354" d="M51 1516h492v-173H399l285-487 305 487H831v173h492v-173h-129L768 697V172h156V0H432v172h139v530l-402 641H51v173zm288 323c0 17.333 3.5 33.833 10.5 49.5s16.333 29.334 28 41 25.334 21 41 28S450.67 1968 468 1968c16.668 0 32.668-3.5 48-10.5s28.667-16.332 40-28 20.333-25.333 27-41 10-32.167 10-49.5c0-18-3.333-35-10-51s-15.667-30.167-27-42.5-24.666-22-40-29-31.332-10.5-48-10.5c-17.332 0-33.832 3.5-49.5 10.5s-29.333 16.667-41 29-21 26.5-28 42.5-10.5 33-10.5 51zm459 0c0 17.333 3.5 33.833 10.5 49.5s16.333 29.334 28 41 25.334 21 41 28S909.67 1968 927 1968c16.668 0 32.5-3.5 47.5-10.5s28.334-16.332 40-28 20.835-25.333 27.502-41 10-32.167 10-49.5c0-18-3.333-35-10-51s-15.834-30.167-27.5-42.5-25-22-40-29-30.834-10.5-47.5-10.5c-17.334 0-33.834 3.5-49.5 10.5s-29.335 16.667-41.002 29-21 26.5-28 42.5-10.5 33-10.5 51z"/><glyph glyph-name="Zacute" unicode="Ź" horiz-adv-x="1214" d="M1163 1292L250 172h711v252h196V0H51v227l900 1116H264v-256H68v429h1095v-224zm-473 664h240v-17l-299-282H477z"/><glyph glyph-name="zacute" unicode="ź" horiz-adv-x="924" d="M76 115l525 766H270V735H86v301h741V918L303 156h354v176h193V0H76v115zm457 1362h240v-17l-299-282H320z"/><glyph glyph-name="Zdotaccent" unicode="Ż" horiz-adv-x="1214" d="M1163 1292L250 172h711v252h196V0H51v227l900 1116H264v-256H68v429h1095v-224zm-657 590c0 17.333 3.5 33.833 10.5 49.5s16.333 29.334 28 41 25.5 21 41.5 28 33 10.5 51 10.5c17.333 0 33.833-3.5 49.5-10.5s29.334-16.332 41-28 21-25.333 28-41 10.5-32.167 10.5-49.5c0-18-3.5-35-10.5-51s-16.332-30.167-28-42.5-25.333-22-41-29-32.167-10.5-49.5-10.5c-18 0-35 3.5-51 10.5s-29.833 16.667-41.5 29-21 26.5-28 42.5-10.5 33-10.5 51z"/><glyph glyph-name="zdotaccent" unicode="ż" horiz-adv-x="924" d="M76 115l525 766H270V735H86v301h741V918L303 156h354v176h193V0H76v115zm272 1288c0 17.333 3.5 33.833 10.5 49.5s16.333 29.334 28 41 25.5 21 41.5 28 33 10.5 51 10.5c17.333 0 33.833-3.5 49.5-10.5s29.334-16.332 41-28 21-25.333 28-41 10.5-32.167 10.5-49.5c0-18-3.5-35-10.5-51s-16.332-30.167-28-42.5-25.333-22-41-29-32.167-10.5-49.5-10.5c-18 0-35 3.5-51 10.5s-29.833 16.667-41.5 29-21 26.5-28 42.5-10.5 33-10.5 51z"/><glyph glyph-name="Zcaron" unicode="Ž" horiz-adv-x="1214" d="M1163 1292L250 172h711v252h196V0H51v227l900 1116H264v-256H68v429h1095v-224zm-254 675l-252-353h-49l-252 353h144l133-196 135 196h141z"/><glyph glyph-name="zcaron" unicode="ž" horiz-adv-x="924" d="M76 115l525 766H270V735H86v301h741V918L303 156h354v176h193V0H76v115zm676 1373l-252-353h-49l-252 353h144l133-196 135 196h141z"/><glyph glyph-name="florin" unicode="ƒ" horiz-adv-x="729" d="M223 1036h198.996l29 162c10.667 60 28 112.5 52 157.5s53.333 82.168 88 111.5 73.834 51.5 117.5 66.5S799.332 1556 850 1556c70.667 0 126.167-6 166.5-18s72.833-25 97.5-39l-82-133c-18.667 10.668-44.5 20.168-77.5 28.5s-67.833 12.5-104.5 12.5c-56 0-102.833-17-140.5-51s-62.5-84.666-74.5-152l-29-168h242l-27-151h-241l-174-998c-11.333-60-28.666-112.5-52-157.5s-52.332-82.166-87-111.5-74.166-51.5-118.5-66.5S56.667-471 6-471c-70.666 0-126.166 6.168-166.5 18.5s-72.832 25.167-97.5 38.5l82 133c19.334-10.667 45.334-20.167 78-28.5S-30.666-322 6-322c56 0 102.833 17.167 140.5 51.5S209-185.667 221-119L395 885H197z"/><glyph glyph-name="Scommaaccent" unicode="Ș" horiz-adv-x="1210" d="M888 1236c-21.333 29.333-44.827 51.826-70.494 67.493s-53.834 27.667-84.5 36-61.335 12.5-92.002 12.5c-50.667 0-95-5.833-133-17.5s-69.5-27.5-94.5-47.5-43.833-43.333-56.5-70-19-54.667-19-84c0-44 7.833-79.5 23.5-106.5s35.5-48.667 59.5-65 50.5-29.166 79.5-38.5l83.5-28 202-66c60.667-19.332 114.167-41.332 160.5-66s85.166-53.833 116.5-87.5 55.165-72.5 71.498-116.5 24.5-95 24.5-153c0-62.667-12.833-120.667-38.5-174s-61.5-99.666-107.5-139S912.17 22.83 848.502.496s-133.5-33.5-209.5-33.5c-78 0-144.667 8.833-200 26.5s-101.833 41.334-139.5 71-67.834 63.5-90.5 101.5-40.335 77-53.002 117H80v172h252c0-74 7.833-126.332 23.5-157s37.5-56.166 65.5-76.5 61.333-35.665 100-45.998 81.334-15.5 128-15.5c45.334 0 86.167 5.333 122.5 16s67.333 26.167 93 46.5 45.334 45 59 74 20.5 61.833 20.5 98.5c0 40.667-8.5 75.167-25.5 103.5s-38.832 52.5-65.5 72.5-55.833 36.333-87.5 49-62.167 23.667-91.5 33l-219 62c-48 14.667-91.833 33.334-131.5 56s-73.667 50.335-102 83.002-50.166 70.833-65.5 114.5-23 94.167-23 151.5c0 58 11.334 112.333 34 163s56 95 100 133 97.834 67.833 161.5 89.5S565 1538 647 1538c54 0 103.834-6.333 149.5-19s87-30.5 124-53.5 69.668-50.667 98-83 52.167-67.833 71.5-106.5h75v-172H920c0 58.667-10.667 102.667-32 132zM555.006-41.007l211-84-180-348-144 53z"/><glyph glyph-name="scommaaccent" unicode="ș" horiz-adv-x="993" d="M678.5 829.5c-13 19.667-29.83 35.668-50.498 48s-43.667 21.334-69 27-50 8.5-74 8.5c-26.667 0-51.167-3-73.5-9s-41.5-14.666-57.5-26-28.5-25.165-37.5-41.498-13.5-34.5-13.5-54.5c0-34.667 10.5-62.167 31.5-82.5s56.167-39.166 105.5-56.5l199-70c85.333-28.666 147.666-67.666 187-117s59-108.332 59-177c0-46-9.168-88.166-27.5-126.5s-44.334-71-78-98-74.168-48-121.5-63-100-22.5-158-22.5c-80.668 0-146.335 13-197.002 39s-89.667 60.334-117 103H82v172h207c0-28.666 6.167-53.166 18.5-73.5s28.666-36.832 49-49.5 43.332-22 69-28 51.833-9 78.5-9c26 0 51 3.168 75 9.5s45.167 15.667 63.5 28 32.833 27.166 43.5 44.5 16 37 16 59c0 33.332-10.833 61.665-32.5 84.998S611 393.333 559 412l-198 74c-80.667 28.667-140.5 65.167-179.5 109.5S123 695.333 123 762c0 44 8.167 84.667 24.5 122s40 69.5 71 96.5 68.833 48.167 113.5 63.5 95.667 23 153 23c74 0 136-10.333 186-31s95-56 135-106h97V758H698c0 28-6.5 51.833-19.5 71.5zM446.002-41l211-84-180-348-144 53z"/><glyph glyph-name="uni021A" unicode="Ț" horiz-adv-x="1434" d="M453 172h139v1180H246v-236H41v400h1352v-400h-205v236H788V172h156V0H453v172zM668-41l211-84-180-348-144 53z"/><glyph glyph-name="uni021B" unicode="ț" horiz-adv-x="762" d="M400 1036h243V885H398l-3-598c0-40.666 4.668-73.666 14-99s24.334-42.832 45-52.5 44-14.5 70-14.5c28 0 52.668 2.5 74 7.5s44.667 13.5 70 25.5l43-125C679 12.335 645.333-.832 610-10.5S533-25 485-25c-45.333 0-84.833 5.5-118.5 16.5s-62 29.5-85 55.5-40.167 60.833-51.5 104.5-17 98.167-17 163.5l3 570H51v151h167v248l182 86v-334zM332-41l211-84-180-348-144 53z"/><glyph glyph-name="apostrophe" unicode="ʼ" horiz-adv-x="340" d="M133 1520l211-84-180-349-144 54z"/><glyph glyph-name="circumflex" unicode="ˆ" horiz-adv-x="860" d="M217 1176l250 313h63l252-313H633l-133 155-135-155H217z"/><glyph glyph-name="caron" unicode="ˇ" horiz-adv-x="860" d="M776 1488l-252-353h-49l-252 353h144l133-196 135 196h141z"/><glyph glyph-name="breve" unicode="˘" horiz-adv-x="1008" d="M487 1149c-50.667 0-97.834 8.334-141.5 25s-82 39.668-115 69-59.334 64.167-79 104.5S121 1431.666 119 1479h121c.666-28.668 7.333-56 20-82s30-48.834 52-68.5 48-35.335 78-47.002 62.333-17.5 97-17.5 67 5.667 97 17 56 26.833 78 46.5 39.333 42.5 52 68.5 19.667 53.667 21 83h121c-2-47.333-13-91.166-33-131.5s-46.5-75.165-79.5-104.498-71.5-52.333-115.5-69-91-25-141-25z"/><glyph glyph-name="dotaccent" unicode="˙" horiz-adv-x="612" d="M174 1403c0 17.333 3.5 33.833 10.5 49.5s16.333 29.334 28 41 25.5 21 41.5 28 33 10.5 51 10.5c17.333 0 33.833-3.5 49.5-10.5s29.334-16.332 41-28 21-25.333 28-41 10.5-32.167 10.5-49.5c0-18-3.5-35-10.5-51s-16.332-30.167-28-42.5-25.333-22-41-29-32.167-10.5-49.5-10.5c-18 0-35 3.5-51 10.5s-29.833 16.667-41.5 29-21 26.5-28 42.5-10.5 33-10.5 51z"/><glyph glyph-name="ring" unicode="˚" horiz-adv-x="1200" d="M506 1343c0-14 2.833-27.167 8.5-39.5s13.334-23.333 23-33 20.668-17.334 33-23 25.5-8.5 39.5-8.5 27.334 2.832 40 8.5 23.835 13.333 33.502 23 17.334 20.667 23 33 8.5 25.5 8.5 39.5-2.832 27.333-8.5 40-13.333 23.834-23 33.5-20.834 17.335-33.5 23.002-26 8.5-40 8.5-27.168-2.833-39.5-8.5-23.334-13.334-33-23-17.335-20.835-23.002-33.502-8.5-26-8.5-40zm104 256c34.667 0 67.667-6.833 99-20.5s58.5-32 81.5-55 41.333-50.167 55-81.5 20.5-64.333 20.5-99-6.833-67.5-20.5-98.5-32-58.167-55-81.5-50.167-41.833-81.5-55.5-64.333-20.5-99-20.5-67.5 6.833-98.5 20.5-58.167 32.167-81.5 55.5-41.833 50.5-55.5 81.5-20.5 63.833-20.5 98.5 6.833 67.667 20.5 99 32.167 58.5 55.5 81.5 50.5 41.333 81.5 55 63.833 20.5 98.5 20.5z"/><glyph glyph-name="ogonek" unicode="˛" horiz-adv-x="539" d="M469 29C425 9.667 388-9 358-27s-54.333-36.5-73-55.5-32-38.5-40-58.5-12-41.334-12-64c0-12.668 2.667-23.335 8-32.002s12.333-15.5 21-20.5 18.5-8.667 29.5-11 22.5-3.5 34.5-3.5c25.333 0 47 2.167 65 6.5s33.667 9.5 47 15.5l49-166c-7.333-4-17.666-8.333-31-13s-28.332-9.167-45-13.5-34-7.833-52-10.5-34.666-4-50-4c-40.666 0-78 4.5-112 13.5s-63.5 22.167-88.5 39.5S64-365.17 50-339.502s-21 55.5-21 89.5 6 65.833 18 95.5 27.834 56.834 47.5 81.5S136.67-26.166 162-6.5s51.167 37 77.5 52 52 27.5 77 37.5 47.167 17.667 66.5 23z"/><glyph glyph-name="tilde" unicode="˜" horiz-adv-x="999" d="M313 1415c33.333 0 62.166-5.5 86.5-16.5s47-23 68-36 41.832-24.833 62.5-35.5 44-16 70-16c18.666 0 36.833 6.333 54.5 19s29.5 33 35.5 61l119-35c-13.333-56.667-39.333-100.5-78-131.5s-85-46.5-139-46.5c-37.333 0-69 5.167-95 15.5s-49.667 21.5-71 33.5l-60 33.5c-18.667 10.333-39 15.5-61 15.5-10 0-20.167-.667-30.5-2s-20.5-4.5-30.5-9.5-19.167-12.667-27.5-23-14.833-24.833-19.5-43.5l-109 53c8.667 31.333 21 57.5 37 78.5s34 37.833 54 50.5 41.5 21.667 64.5 27 46.167 8 69.5 8z"/><glyph glyph-name="hungarumlaut" unicode="˝" horiz-adv-x="1341" d="M1064 1478l-233-300H679l208 300h177zm-321 0l-222-300H370l195 300h178z"/><glyph glyph-name="Gamma" unicode="Γ" horiz-adv-x="1229" d="M143 172h140v1180H145v164h1072v-400h-205v236H479V172h156V0H143v172z"/><glyph glyph-name="Pi" unicode="Π" horiz-adv-x="1762" d="M145 1516h1473v-173h-143V172h143V0h-491v172h151v1171H483V172h152V0H143v172h144v1171H145v173z"/><glyph glyph-name="pi" unicode="π" horiz-adv-x="1382" d="M1104-16c-48 0-90.335 6-127.002 18s-67.667 30.667-93 56-44.5 57.833-57.5 97.5-19.5 86.167-19.5 139.5v569h-371V172h150V0h-492v172h148v692h-150v172h1141V864h-232V328c0-26 .833-50 2.5-72s5.834-40.5 12.5-55.5 17.5-26.833 32.5-35.5 36.168-13 63.5-13c23.334 0 43.834 2 61.5 6s36.835 10.667 57.502 20l31-160c-22-10.667-45.333-19-70-25s-54-9-88-9z"/><glyph glyph-name="uni0400" unicode="Ѐ" horiz-adv-x="1286" d="M143 1516h1086v-429h-205v256H483V858h455V686H483V172h541v256h205V0H143v172h144v1171H143v173zm508 141l-287 282v17h248l184-299H651z"/><glyph glyph-name="uni0401" unicode="Ё" horiz-adv-x="1286" d="M143 1516h1086v-429h-205v256H483V858h455V686H483V172h541v256h205V0H143v172h144v1171H143v173zm215 323c0 17.333 3.5 33.833 10.5 49.5s16.333 29.334 28 41 25.5 21 41.5 28 33 10.5 51 10.5c17.333 0 33.833-3.5 49.5-10.5s29.334-16.332 41-28 21-25.333 28-41 10.5-32.167 10.5-49.5c0-18-3.5-35-10.5-51s-16.332-30.167-28-42.5-25.333-22-41-29-32.167-10.5-49.5-10.5c-18 0-35 3.5-51 10.5s-29.833 16.667-41.5 29-21 26.5-28 42.5-10.5 33-10.5 51zm459 0c0 17.333 3.5 33.833 10.5 49.5s16.333 29.334 28 41 25.5 21 41.5 28 33 10.5 51 10.5c17.333 0 33.833-3.5 49.5-10.5s29.334-16.332 41-28 21-25.333 28-41 10.5-32.167 10.5-49.5c0-18-3.5-35-10.5-51s-16.332-30.167-28-42.5-25.333-22-41-29-32.167-10.5-49.5-10.5c-18 0-35 3.5-51 10.5s-29.833 16.667-41.5 29-21 26.5-28 42.5-10.5 33-10.5 51z"/><glyph glyph-name="uni0402" unicode="Ђ" horiz-adv-x="1761" d="M1663 453c0-70-11.664-133.67-34.997-191.004s-55.833-105.833-97.5-145.5-91.834-70.334-150.5-92-123.335-32.5-194.002-32.5h-41v158c10.668 0 20.835.332 30.502 1s19.167 1.666 28.5 3c38.667 5.332 74.334 14.832 107 28.5s60.668 32.333 84 56 41.667 53 55 88 20 76.5 20 124.5c0 42-8.5 81.167-25.5 117.5s-40.833 67.333-71.5 93-66.834 45.667-108.5 60-87.168 21.5-136.5 21.5c-78.668 0-146.835-8.167-204.502-24.5s-113.5-33.5-167.5-51.5v-495h151v-172H416v172h143v1180H246v-236H41v400h1223v-400h-205v236H756v-519c68 24.667 131 42.834 189 54.5s119 17.5 183 17.5c79.333 0 151.833-11.166 217.5-33.5s122-53.665 169-93.998 83.5-88.166 109.5-143.5 39-115.665 39-180.998z"/><glyph glyph-name="uni0403" unicode="Ѓ" horiz-adv-x="1229" d="M143 172h140v1180H145v164h1072v-400h-205v236H479V172h156V0H143v172zm584 1802h240v-17l-299-282H514z"/><glyph glyph-name="uni0404" unicode="Є" horiz-adv-x="1503" d="M1212 1116c-43.333 76.667-98.828 136.165-166.495 178.498s-153.5 63.5-257.5 63.5c-66.667 0-128.667-12.333-186-37s-107.833-58.167-151.5-100.5-80.167-92.5-109.5-150.5-50-119.667-62-185h884v-170h-895c5.333-75.333 21.666-146.5 49-213.5s63.665-125.333 108.998-175 98.666-89.167 160-118.5 128.665-44 201.998-44c57.334 0 109.334 6.833 156 20.5s88.668 34.5 126 62.5 71.5 62.5 102.5 103.5 59.168 88.833 84.5 143.5l181-82c-31.332-66-67.832-125.5-109.5-178.5s-89.833-98.667-144.5-137-114.834-68.166-180.5-89.5S866-25 788-25C682-25 584.5-4.167 495.5 37.5S330.33 135.834 267 207.5s-112.667 155-148 250S66 653.333 66 760s17.667 207.334 53 302 85.166 177.835 149.5 249.502 140.5 128.334 228.5 170 185 62.5 291 62.5c63.332 0 120.832-5.832 172.5-17.5s99.333-28.333 143-50 84-47.834 121-78.5 73.167-65.335 108.5-104.002h94v-178h-215z"/><glyph glyph-name="uni0405" unicode="Ѕ" horiz-adv-x="1210" d="M888 1236c-21.333 29.333-44.827 51.826-70.494 67.493s-53.834 27.667-84.5 36-61.335 12.5-92.002 12.5c-50.667 0-95-5.833-133-17.5s-69.5-27.5-94.5-47.5-43.833-43.333-56.5-70-19-54.667-19-84c0-44 7.833-79.5 23.5-106.5s35.5-48.667 59.5-65 50.5-29.166 79.5-38.5l83.5-28 202-66c60.667-19.332 114.167-41.332 160.5-66s85.166-53.833 116.5-87.5 55.165-72.5 71.498-116.5 24.5-95 24.5-153c0-62.667-12.833-120.667-38.5-174s-61.5-99.666-107.5-139S912.17 22.83 848.502.496s-133.5-33.5-209.5-33.5c-78 0-144.667 8.833-200 26.5s-101.833 41.334-139.5 71-67.834 63.5-90.5 101.5-40.335 77-53.002 117H80v172h252c0-74 7.833-126.332 23.5-157s37.5-56.166 65.5-76.5 61.333-35.665 100-45.998 81.334-15.5 128-15.5c45.334 0 86.167 5.333 122.5 16s67.333 26.167 93 46.5 45.334 45 59 74 20.5 61.833 20.5 98.5c0 40.667-8.5 75.167-25.5 103.5s-38.832 52.5-65.5 72.5-55.833 36.333-87.5 49-62.167 23.667-91.5 33l-219 62c-48 14.667-91.833 33.334-131.5 56s-73.667 50.335-102 83.002-50.166 70.833-65.5 114.5-23 94.167-23 151.5c0 58 11.334 112.333 34 163s56 95 100 133 97.834 67.833 161.5 89.5S565 1538 647 1538c54 0 103.834-6.333 149.5-19s87-30.5 124-53.5 69.668-50.667 98-83 52.167-67.833 71.5-106.5h75v-172H920c0 58.667-10.667 102.667-32 132z"/><glyph glyph-name="uni0406" unicode="І" horiz-adv-x="780" d="M143 1516h484v-173H483V172h144V0H143v172h144v1171H143v173z"/><glyph glyph-name="uni0407" unicode="Ї" horiz-adv-x="770" d="M143 1516h484v-173H483V172h144V0H143v172h144v1171H143v173zm-38 323c0 35.333 12.667 65.666 38 91s55.666 38 91 38c16.666 0 32.833-3.5 48.5-10.5s29-16.168 40-27.5 19.833-25 26.5-41 10-32.668 10-50c0-18-3.333-35.168-10-51.5s-15.5-30.667-26.5-43-24.333-21.833-40-28.5-31.834-10-48.5-10c-35.334 0-65.667 13.333-91 40s-38 57.667-38 93zm315 0c0 35.333 12.667 65.666 38 91s55.666 38 91 38c16.666 0 32.833-3.5 48.5-10.5s29-16.168 40-27.5 19.833-25 26.5-41 10-32.668 10-50c0-18-3.333-35.168-10-51.5s-15.5-30.667-26.5-43-24.333-21.833-40-28.5-31.834-10-48.5-10c-35.334 0-65.667 13.333-91 40s-38 57.667-38 93z"/><glyph glyph-name="uni0408" unicode="Ј" horiz-adv-x="670" d="M135 1516h491v-173H499V172c0-14.667-3.5-31.834-10.5-51.5s-16-40.5-27-62.5S437.67 13.5 423-9.5L379-77c-35.332-51.334-75.332-105-120-161L87-223c39.334 60 74.667 117.332 106 172l39 71.5C244.667 44.83 256 68.33 266 91s18.167 43.833 24.5 63.5S300 191 300 205v1138H135v173z"/><glyph glyph-name="uni0409" unicode="Љ" horiz-adv-x="2186" d="M979 172h141.996v1171h-500V752c0-109.334-9.167-210.167-27.5-302.5s-45-171.833-80-238.5-78.333-118.5-130-155.5S272.33 0 204.996 0h-174v311h189V164c44.667 14.667 81 40.5 109 77.5s49.833 80.833 65.5 131.5 26.334 107 32 169 8.5 126.333 8.5 193v608h-170v173h1218v-173h-166V883h322c70.668 0 135-11 193-33s107.5-52.167 148.5-90.5 72.834-84 95.5-137 34-110.167 34-171.5c0-62-11.666-120.167-35-174.5s-56.165-102-98.498-143-92.166-73.5-149.5-97.5S1706.334 0 1637 0H979v172zm338 539V171.994h209c56 0 107.167 3.833 153.5 11.5s86 21.334 119 41 58.667 46.835 77 81.502 27.5 79.334 27.5 134c0 37.334-5.5 72.334-16.5 105s-28 61.335-51 86.002-52.333 44.166-88 58.5S1670 711 1622 711h-305z"/><glyph glyph-name="uni040A" unicode="Њ" horiz-adv-x="2198" d="M145 1516h491.997v-173h-154V881h678v462h-145v173h491v-173h-149V883h293c70.667 0 135-11 193-33s107.5-52.167 148.5-90.5 72.833-84 95.5-137 34-110.167 34-171.5c0-62-11.667-120.167-35-174.5s-56.166-102-98.5-143S1896.333 60 1839 36 1718.332 0 1649 0H991v172h170v539H483V172h152V0H143v172h144v1171H145v173zm1213-805V172h284c83.333 0 149.666 25 199 75s74 114.332 74 193c0 37.332-5.5 72.332-16.5 105s-28.168 61.333-51.5 86-52.667 44.167-88 58.5-77 21.5-125 21.5h-276z"/><glyph glyph-name="uni040B" unicode="Ћ" horiz-adv-x="1843" d="M1276 172h158v322c0 54-5.832 97.834-17.5 131.5s-29.833 59.668-54.5 78-56.167 30.667-94.5 37-83.166 9.5-134.5 9.5c-75.332 0-142.332-6.833-201-20.5S814.668 698 756 676V172h151V0H416v172h143v1180H246v-236H41v400h1223v-400h-205v236H756V831c60 20.667 120.667 38.5 182 53.5s127 22.5 197 22.5c70.667 0 135-5.5 193-16.5s107.5-31.167 148.5-60.5 72.5-69.5 94.5-120.5 33-116.833 33-197.5V172h163V0h-491v172z"/><glyph glyph-name="uni040C" unicode="Ќ" horiz-adv-x="1563" d="M1147 1343v173h348v-173h-119L712 784l621-612h162V0h-408v172L485 774zM145 1516h492v-173H483V172h152V0H143v172h144v1171H145v173zm832 440h240v-17l-299-282H764z"/><glyph glyph-name="uni040D" unicode="Ѝ" horiz-adv-x="1843" d="M143 1516h502v-173H485V242l839 1274h376v-172h-142V172h142V0h-492v172h153v1098L518 0H144v172h149v1171H143v173zm744 141l-287 282v17h248l184-299H887z"/><glyph glyph-name="uni040E" unicode="Ў" horiz-adv-x="1300" d="M870 1516l418-.002v-173h-90l-424-981c-24.666-57.333-50-109.5-76-156.5s-54.332-87.167-85-120.5-64.833-59.166-102.5-77.5S429.666-20 381-20c-31.334 0-66.5 1.668-105.5 5S206-6.667 184 0h-4v311h188V133c16.666 0 33.166 1 49.5 3s33.332 8.834 51 20.5S504.332 186.334 523 211s38 60 58 106l17 39-225.5 494L147 1343H24v173h457v-173H356l328-776 317 776H870v173zm-199 114c-50.666 0-97.833 8.334-141.5 25s-82 39.668-115 69-59.333 64.167-79 104.5S305 1912.666 303 1960h121c.667-28.668 7.334-56 20-82s30-48.834 52-68.5 48-35.335 78-47.002 62.334-17.5 97-17.5 67 5.667 97 17 56 26.833 78 46.5 39.334 42.5 52 68.5 19.668 53.667 21 83h121c-2-47.333-13-91.166-33-131.5s-46.5-75.165-79.5-104.498-71.5-52.333-115.5-69-91-25-141-25z"/><glyph glyph-name="uni040F" unicode="Џ" horiz-adv-x="1782" d="M1147 1516h491v-173h-143V162h143V0H997v-348H809V0H143v162h144v1181H143v173h492v-173H483V162h815v1181h-151v173z"/><glyph glyph-name="uni0410" unicode="А" horiz-adv-x="1542" d="M1040 172h126l-120 344H463L346 172h156V0H10v172h132l472 1344h295l471-1344h152V0h-492v172zM520 682h468l-236 678z"/><glyph glyph-name="uni0411" unicode="Б" horiz-adv-x="1352" d="M119 172h141v1180H143v164h1067v-400h-204v236H457V883h321c71.332 0 136-11 194-33s107.5-52.167 148.5-90.5 72.666-84 95-137S1249 512.333 1249 451c0-62-11.5-120.167-34.5-174.5s-55.668-102-98-143S1024.332 60 967 36 846 0 776 0H119v172zm338 539l-.002-539h313c83.333 0 149.5 25 198.5 75s73.5 114.332 73.5 193c0 37.332-5.333 72.332-16 105s-27.667 61.333-51 86-52.666 44.167-88 58.5S810 711 762 711H457z"/><glyph glyph-name="uni0412" unicode="В" horiz-adv-x="1323" d="M143 172h143.998v1171h-144v175l682-2c61.333 0 119-11.5 173-34.5s101-54.332 141-94 71.5-86.5 94.5-140.5 34.5-112 34.5-174c0-64.666-18-123.666-54-177s-87.333-96-154-128c32.667-17.332 62.334-37.5 89-60.5s49.335-48.166 68.002-75.5 33.167-56.332 43.5-87 15.5-62 15.5-94c0-63.332-11.5-122.332-34.5-177S1187 171.668 1147 131s-86.833-72.667-140.5-96S895.333 0 834 0H143v172zm339.998 502V172.003h353c32 0 61.666 8 89 24s51.332 36.833 72 62.5 36.833 54.834 48.5 87.5 17.5 66 17.5 100c0 29.334-6 57.667-18 85s-28.167 51.666-48.5 73-44.333 38.332-72 51-57.167 19-88.5 19h-353zm0 669V847.998h344c32 0 61.833 6.333 89.5 19s51.667 29.667 72 51 36.5 46 48.5 74 18 57 18 87c0 32.667-6 64.834-18 96.5s-28.333 59.835-49 84.502-44.834 44.667-72.5 60-57.168 23-88.5 23h-344z"/><glyph glyph-name="uni0413" unicode="Г" horiz-adv-x="1229" d="M143 172h140v1180H145v164h1072v-400h-205v236H479V172h156V0H143v172z"/><glyph glyph-name="uni0414" unicode="Д" horiz-adv-x="1620" d="M61 172h52c58.666 5.332 106.333 24 143 56s66 73.332 88 124 37 108.833 45 174.5 12 135.167 12 208.5v608H242v173h1235v-173h-146V172h146v-520h-197V0H256v-348H61v520zm533 549c0-135.334-14-248-42-338s-70-160.334-126-211h709v1171H594V721z"/><glyph glyph-name="uni0415" unicode="Е" horiz-adv-x="1286" d="M143 1516h1086v-429h-205v256H483V858h455V686H483V172h541v256h205V0H143v172h144v1171H143v173z"/><glyph glyph-name="uni0416" unicode="Ж" horiz-adv-x="2120" d="M819 172h140v520H846L469 172V0H80v172h172l451 610-476 561H109v173h329v-173l392-479h129v479H821v173h492v-173h-158V864h129l402 479v173h325v-173h-119l-485-563 473-608h162V0h-385v172l-389 520h-113V172h156V0H819v172z"/><glyph glyph-name="uni0417" unicode="З" horiz-adv-x="1210" d="M92 498l246 .004v-146c20.668-58.667 55.168-104.334 103.5-137s110.167-49 185.5-49c34 0 67.333 7.166 100 21.5s62 33.832 88 58.5 46.5 54 61.5 88 22.5 70.666 22.5 110c0 41.332-7.5 79-22.5 113s-35.5 63-61.5 87-56.333 42.5-91 55.5-71.334 19.5-110 19.5h-86v151h70c44 0 83.332 6.5 118 19.5s64.333 30.832 89 53.5 43.5 49 56.5 79 19.5 62.666 19.5 98c0 26-5.5 53.666-16.5 83S836.333 1259.668 813 1285s-52.333 46.166-87 62.5-76 24.5-124 24.5c-35.333 0-68-6.5-98-19.5s-56-28.334-78-46-39.5-36-52.5-55S352 1216 348 1202v-98H102v172h84c36 78 90.833 142.5 164.5 193.5S507.334 1546 600 1546c71.334 0 136-11.834 194-35.5s107.5-55 148.5-94 72.668-83.5 95-133.5 33.5-101 33.5-153c0-66.668-16.332-129.335-49-188.002s-87.333-107-164-145c62.667-24.667 116.5-67 161.5-127s67.5-136 67.5-228c0-65.333-12.5-126-37.5-182s-59.333-104.167-103-144.5-94.5-72-152.5-95S673.333-14 606-14c-54.667 0-105.834 7.167-153.5 21.5s-91 35.833-130 64.5S249.33 136.167 220 178.5 167.332 270 150 326H92v172z"/><glyph glyph-name="uni0418" unicode="И" horiz-adv-x="1843" d="M143 1516h502v-173H485V242l839 1274h376v-172h-142V172h142V0h-492v172h153v1098L518 0H144v172h149v1171H143v173z"/><glyph glyph-name="uni0419" unicode="Й" horiz-adv-x="1843" d="M143 1516h502v-173H485V242l839 1274h376v-172h-142V172h142V0h-492v172h153v1098L518 0H144v172h149v1171H143v173zm764 112c-50.667 0-97.834 8.334-141.5 25s-82 39.668-115 69-59.334 64.167-79 104.5S541 1910.666 539 1958h121c.666-28.668 7.333-56 20-82s30-48.834 52-68.5 48-35.335 78-47.002 62.333-17.5 97-17.5 67 5.667 97 17 56 26.833 78 46.5 39.333 42.5 52 68.5 19.667 53.667 21 83h121c-2-47.333-13-91.166-33-131.5s-46.5-75.165-79.5-104.498-71.5-52.333-115.5-69-91-25-141-25z"/><glyph glyph-name="uni041A" unicode="К" horiz-adv-x="1563" d="M1147 1343v173h348v-173h-119L712 784l621-612h162V0h-408v172L485 774zM145 1516h492v-173H483V172h152V0H143v172h144v1171H145v173z"/><glyph glyph-name="uni041B" unicode="Л" horiz-adv-x="1647" d="M1012 172h149v1171H621V752c0-109.334-9.332-210.167-28-302.5S547.668 277.667 513 211 435 92.5 383 55.5 271.667 0 205 0H31v311h188V164c45.333 14.667 82 40.5 110 77.5s49.833 80.833 65.5 131.5 26.167 107 31.5 169 8 126.333 8 193v608H264v173h1239v-173h-145V172h145V0h-491v172z"/><glyph glyph-name="uni041C" unicode="М" horiz-adv-x="2175" d="M143 172h144v1153H143v191h480l481-1309 487 1309h455v-191h-143V172h143V0h-492v172h162v1164L1186 0h-170L479 1339V172h156V0H143v172z"/><glyph glyph-name="uni041D" unicode="Н" horiz-adv-x="1843" d="M1208 1516h492v-172h-144V172h144V0h-492v172h152v545H483V172h152V0H143v172h144v1172H143v172h492v-172H483V885h877v459h-152v172z"/><glyph glyph-name="uni041E" unicode="О" horiz-adv-x="1602" d="M799-30c-104.667 0-200.332 19.5-287 58.5S348 123 280 195 160.335 352.333 125 451 72 652 72 758c0 109.333 17.834 212 53.5 308s85.668 179.5 150 250.5 141 127 230 168S692.335 1546 799 1546c107.334 0 205.667-20.5 295-61.5s166-97 230-168 113.667-154.5 149-250.5 53-198.667 53-308-17.833-211.833-53.5-307.5-85.667-179.167-150-250.5-141-127.5-230-168.5S905.667-30 799-30zm.002 186c79.333 0 151.17 16.332 215.502 49s119.166 76.5 164.5 131.5 80.332 118.832 105 191.5 37 149.333 37 230c0 82.667-13.5 162.5-40.5 239.5s-64.668 142.167-113 195.5-104.5 94.5-168.5 123.5-130.668 43.5-200 43.5c-79.334 0-151.334-16.333-216-49s-119.668-76.5-165-131.5-80.334-119-105-192-37-149.5-37-229.5c0-93.333 13.666-176.5 41-249.5s63.5-133.667 108.5-182 98.666-88.833 161-121.5S719.668 156 799 156z"/><glyph glyph-name="uni041F" unicode="П" horiz-adv-x="1762" d="M145 1516h1473v-173h-143V172h143V0h-491v172h151v1171H483V172h152V0H143v172h144v1171H145v173z"/><glyph glyph-name="uni0420" unicode="Р" horiz-adv-x="1272" d="M143 1516h613c68 0 130.5-8.834 187.5-26.5s106.334-43.668 148-78 74-77.167 97-128.5 34.5-110.333 34.5-177c0-55.333-11.332-107.5-34-156.5s-54.666-91.833-96-128.5-90.832-65.667-148.5-87-121.833-32-192.5-32H483V172h152V0H143v172h144v1171H143v173zm340-173V866h273c38 0 72.833 5.166 104.5 15.5s59 25.5 82 45.5 41 45 54 75 19.5 64.666 19.5 104c0 74.666-22.667 132.833-68 174.5S830.334 1343 731 1343H483z"/><glyph glyph-name="uni0421" unicode="С" horiz-adv-x="1503" d="M1219 1116c-44.667 76-103.83 135.665-177.497 178.998s-155.834 65-246.5 65c-77.334 0-148-16.333-212-49s-118.834-76.5-164.5-131.5-81.168-118.667-106.5-191-38-148.5-38-228.5c0-94.667 14-178.5 42-251.5s64.5-133.667 109.5-182 98.5-88.666 160.5-121 131.666-48.5 209-48.5c105.332 0 197 25.5 275 76.5s144.666 134.834 200 251.5l176-83c-25.334-72-68.334-141.5-129-208.5s-135.5-121-224.5-162-187.5-61.5-295.5-61.5c-103.334 0-198.334 19.5-285 58.5S348.167 123 280.5 195s-119.333 157.334-155 256S72 652.667 72 760c0 108 17.833 210 53.5 306s85.667 179.5 150 250.5 141 127 230 168S691 1546 795 1546c92.667 0 172.667-13.166 240-39.5s124.5-57.665 171.5-93.998 87.5-75.833 121.5-118.5h106v-178h-215z"/><glyph glyph-name="uni0422" unicode="Т" horiz-adv-x="1434" d="M453 172h139v1180H246v-236H41v400h1352v-400h-205v236H788V172h156V0H453v172z"/><glyph glyph-name="uni0423" unicode="У" horiz-adv-x="1300" d="M870 1516l418-.002v-173h-90l-424-981c-24.666-57.333-50-109.5-76-156.5s-54.332-87.167-85-120.5-64.833-59.166-102.5-77.5S429.666-20 381-20c-31.334 0-66.5 1.668-105.5 5S206-6.667 184 0h-4v311h188V133c16.666 0 33.166 1 49.5 3s33.332 8.834 51 20.5S504.332 186.334 523 211s38 60 58 106l17 39-225.5 494L147 1343H24v173h457v-173H356l328-776 317 776H870v173z"/><glyph glyph-name="uni0424" unicode="Ф" horiz-adv-x="1540" d="M543 1597h450v-151H868v-121h19c94 0 179.167-12.667 255.5-38s141.5-60.5 195.5-105.5 96-99.167 126-162.5 45-133.333 45-210c0-75.333-15-144.666-45-208s-72.333-117.832-127-163.5-120.167-81.166-196.5-106.5-160.833-38-253.5-38h-19V172h146V0H522v172h150v121h-15c-92.667 0-177.167 12.668-253.5 38S261.667 391.835 207 437.5 110 537.67 80 601 35 733.668 35 809c0 76.667 14.333 146.667 43 210s70 117.5 124 162.5 119.5 80.167 196.5 105.5 163.167 38 258.5 38h15v121H543v151zm325-432V455.002h21c76.667 0 141.5 8.5 194.5 25.5s96 41.167 129 72.5 57 68.5 72 111.5 22.5 90.5 22.5 142.5c0 50.667-7.167 98.167-21.5 142.5s-38 82.166-71 113.5-76 56.165-129 74.498S967 1165 889 1165h-21zM238 807.002c0-52 7.83-99.5 23.498-142.5s40.167-80.168 73.5-111.5 76.333-55.5 129-72.5 116.334-25.5 191-25.5h17v710h-17c-74.666 0-138.666-9.168-192-27.5S366.334 1094.334 333 1063s-57.5-68.833-72.5-112.5-22.5-91.5-22.5-143.5z"/><glyph glyph-name="uni0425" unicode="Х" horiz-adv-x="1552" d="M950 1516h492v-173h-112L920 774l428-602h94V0H950v172h185L811 623 485 172h177V0H170v172h99l432 603-408 568H170v173h492v-173H516l295-415 298 415H950v173z"/><glyph glyph-name="uni0426" unicode="Ц" horiz-adv-x="1782" d="M1147 1516h491v-173h-143V162h207v-510h-189V0H143v162h144v1181H143v173h492v-173H483V162h815v1181h-151v173z"/><glyph glyph-name="uni0427" unicode="Ч" horiz-adv-x="1577" d="M70 1516h467v-173H395V956c0-54.667 4.834-98.667 14.5-132s26.5-59.166 50.5-77.5 55.334-30.665 94-36.998 86.668-9.5 144-9.5c66 0 132 6.833 198 20.5s132 31.5 198 53.5v569H942v173h492v-173h-144v-1171h144v-172H942v172h152v422c-64.666-20.667-130.333-37.834-197-51.5S764 522 698 522c-77.333 0-146.833 5.5-208.5 16.5s-114 31.166-157 60.5-76 69.665-99 120.998S199 837.333 199 918v425H70v173z"/><glyph glyph-name="uni0428" unicode="Ш" horiz-adv-x="2339" d="M145 1516h492v-173H485V162h584v1181H915v173h492v-173h-141V162h581v1181h-143v173h491v-173h-151V162h147V0H143v162h146v1181H145v173z"/><glyph glyph-name="uni0429" unicode="Щ" horiz-adv-x="2339" d="M1704 1516h491v-173h-151V162h235v-510h-188V0H143v162h146v1181H145v173h492v-173H485V162h584v1181H915v173h492v-173h-141V162h581v1181h-143v173z"/><glyph glyph-name="uni042A" unicode="Ъ" horiz-adv-x="1608" d="M401 172h141.997v1180h-305v-236h-205v400h870v-164h-164V883h322c70.667 0 135-11 193-33s107.5-52.167 148.5-90.5 72.833-84 95.5-137 34-110.167 34-171.5c0-62-11.667-120.167-35-174.5s-56.166-102-98.5-143S1306.333 60 1249 36 1128.332 0 1059 0H401v172zm337.997 539V172h314c83.333 0 149.5 25 198.5 75s73.5 114.332 73.5 193c0 37.332-5.5 72.332-16.5 105s-28 61.333-51 86-52.333 44.167-88 58.5-77.5 21.5-125.5 21.5h-305z"/><glyph glyph-name="uni042B" unicode="Ы" horiz-adv-x="1929" d="M119 1516h491v-173H455V883h321c71.332 0 136-11 194-33s107.5-52.167 148.5-90.5 72.666-84 95-137S1247 512.333 1247 451c0-62-11.5-120.167-34.5-174.5s-55.668-102-98-143S1022.332 60 965 36 844 0 774 0H117v172h141v1171H119v173zm1206 0h492v-173h-158V172h156V0h-492v172h139v1171h-137v173zM455 711V172h313c83.332 0 149.5 25 198.5 75S1040 361.33 1040 440c0 37.332-5.334 72.332-16 105s-27.668 61.333-51 86-52.834 44.167-88.5 58.5S807.33 711 760 711H455z"/><glyph glyph-name="uni042C" unicode="Ь" horiz-adv-x="1349" d="M147 1516h491v-173H481V883h321c71.332 0 136-11 194-33s107.5-52.167 148.5-90.5 72.666-84 95-137S1273 512.333 1273 451c0-62-11.5-120.167-34.5-174.5s-55.668-102-98-143S1048.332 60 991 36 870 0 800 0H143v172h141v1171H147v173zm334-805V172h313c83.332 0 149.5 25 198.5 75S1066 361.33 1066 440c0 37.332-5.334 72.332-16 105s-27.668 61.333-51 86-52.834 44.167-88.5 58.5S833.33 711 786 711H481z"/><glyph glyph-name="uni042D" unicode="Э" horiz-adv-x="1602" d="M498 848l783.996.003c-8 69.333-25.333 135.166-52 197.5s-61.5 116.665-104.5 162.998-92.833 82.834-149.5 109.5-120 40-190 40c-51.333 0-97.166-5.5-137.5-16.5s-76.5-26.666-108.5-47-60.666-45.5-86-75.5-49-64.332-71-103h-215v178h94c34 38.668 68.834 73.335 104.5 104.002s74 56.834 115 78.5 86.334 38.335 136 50.002 105.835 17.5 168.502 17.5c106.667 0 203.334-20.833 290-62.5s160.835-98.334 222.502-170S1407.334 1156.668 1440 1062s49-195.334 49-302-16.332-207.5-49-302.5-79.5-178.668-140.5-251S1164.67 76.834 1078 34.5s-184-63.5-292-63.5c-77.332 0-148.5 10.667-213.5 32S449 54.502 397 93.502s-98 85.333-138 139-75 113.5-105 179.5l180 82c26-53.333 54-100.833 84-142.5s63-76.834 99-105.5 75.834-50.168 119.5-64.5S730 160 786 160c71.334 0 136.667 14.332 196 43s110.5 67.166 153.5 115.5S1213 422.166 1239 484.5s41 126.833 45 193.5H498v170z"/><glyph glyph-name="uni042E" unicode="Ю" horiz-adv-x="2255" d="M145 1516l492.002.002v-173h-158v-456h254c14 94 41.5 181 82.5 261s92.833 149.667 155.5 209 135 105.666 217 139 170.667 50 266 50c108 0 206.333-20.5 295-61.5s165.167-97 229.5-168 114.166-154.5 149.5-250.5 53-198.668 53-308-17.668-211.834-53-307.5-85.5-179.335-150.5-251.002-141.834-128-230.5-169S1560.666-31 1454-31c-104 0-199.333 19.5-286 58.5s-162 92-226 159S827.167 332.333 789.5 423 730.333 611 725 715H479V172h156V0H143v172h140v1171H145v173zM1454 158.002c79.333 0 151.002 16 215.002 48s118.667 75.666 164 131 80.166 119.165 104.5 191.498S1974 677.333 1974 758c0 79.333-12.168 155.5-36.5 228.5s-59.167 137.167-104.5 192.5-100 99.333-164 132-135.667 49-215 49-151.333-16.333-216-49-119.834-76.667-165.5-132S991.666 1059.834 967 987.5 930 838.67 930 758s12.667-157.166 38-229.5 60.833-136.165 106.5-191.498 100.5-99 164.5-131 135.667-48 215-48z"/><glyph glyph-name="uni042F" unicode="Я" horiz-adv-x="1464" d="M872 172h140v530H819c-73.333 0-131.166-19.332-173.5-58S571.67 544.335 551 461L438 0H143l2 190h131l84 330c11.334 48 29.667 90.334 55 127s52.333 64.668 81 84c-40 15.334-76.333 36.334-109 63s-60.667 56.668-84 90-41.833 69.167-55.5 107.5S227 1068 227 1106c0 66.667 12.667 125.667 38 177s60.166 94 104.5 128 95.832 60 154.5 78 122.333 27 191 27l645 2v-175h-152V172h156V0H872v172zm-438 932c0-78 24.333-137.167 73-177.5S618 866 694 866h318v477H739c-99.333 0-175-20.667-227-62s-78-100.333-78-177z"/><glyph glyph-name="uni0430" unicode="а" horiz-adv-x="1042" d="M709 96c-39.333-36.667-82.833-66.67-130.5-90.003s-101.834-35-162.5-35c-50.668 0-97.168 8-139.5 24S197.665 32.83 167 60.497s-54.5 59.834-71.5 96.5-25.5 75.668-25.5 117c0 44 6.5 83 19.5 117s30.332 63.5 52 88.5 47 46 76 63 59.332 30.668 91 41 64 17.667 97 22 64.5 6.5 94.5 6.5c48 0 88.332-1.5 121-4.5s62.333-7.167 89-12.5l1 85c0 36.667-5.333 68.5-16 95.5s-25.667 49.333-45 67-42.5 30.834-69.5 39.5-57.167 13-90.5 13c-31.333 0-61.333-2.166-90-6.5s-55.5-10-80.5-17-48-15-69-24-38.833-18.5-53.5-28.5l-61 129c24.667 16 51.667 30.834 81 44.5s60.166 25.335 92.5 35.002 65.332 17.333 99 23 66.833 8.5 99.5 8.5c60 0 114-7.167 162-21.5s88.667-36.5 122-66.5 59-68.167 77-114.5 27-101.833 27-166.5l-1-518h115V0H709v96zm-252 30.997c24.667 0 49.334 2.998 74 8.998s48 14.167 70 24.5 42.334 22.333 61 36 34.335 27.834 47.002 42.5l1 234h-216c-36 0-68.833-4-98.5-12s-55.334-19.666-77-35-38.5-34.332-50.5-57-18-48.666-18-78c0-27.332 5-51.165 15-71.498s24.166-37.333 42.5-51 40.165-24 65.498-31 53.333-10.5 84-10.5z"/><glyph glyph-name="uni0431" unicode="б" horiz-adv-x="1225" d="M279 897c39.333 54.667 88.668 97 148 127s130 45 212 45c79.334 0 149.334-14.667 210-44s111.5-69 152.5-119 72-108.333 93-175 31.5-137 31.5-211c0-82-12.166-157-36.5-225s-59-126-104-174-99.332-85.333-163-112S687.335-31 608-31c-80.666 0-153.333 15-218 45S270.5 84.667 225.5 136 145.667 246.833 121 314.5 84 453.334 84 528c0 66 .333 129.668 1 191s1 117.334 1 168c1.333 90 16.333 172.5 45 247.5s69 139.168 121 192.5 113.833 94.667 185.5 124 150.5 44 236.5 44h178v61h223v-229H680c-61.333 0-117-11.667-167-35s-92.333-53-127-89-61.167-76.5-79.5-121.5S279 992.667 279 950v-53zm329.002-766c45.333 0 88.168 8.828 128.5 26.495s75.5 43.334 105.5 77 53.834 74.335 71.5 122.002 26.5 101.5 26.5 161.5c0 62.667-8.166 118.334-24.5 167S876.67 774.333 848.003 807s-62.833 57.5-102.5 74.5-82.834 25.5-129.5 25.5c-43.334 0-84.5-8.5-123.5-25.5S418.667 840.665 388 810s-55.168-68.168-73.5-112.5S286.334 604.332 285 551v-16c0-64.667 8.5-121.834 25.5-171.5s40.167-91.668 69.5-126 63.5-60.667 102.5-79 80.833-27.5 125.5-27.5z"/><glyph glyph-name="uni0432" unicode="в" horiz-adv-x="1253" d="M110 0v172.002h119v692H110v172h613c124 0 221.834-28.333 293.5-85s107.5-131.334 107.5-224c0-45.334-13.332-85.334-40-120s-65.333-63-116-85c52-23.334 92.333-54.334 121-93s43-83.335 43-134.002c0-42.667-9.5-81.667-28.5-117s-46-66.333-81-93-77-47.5-126-62.5S792.333 0 731 0H110zm307 446.002l.002-274h316c64 0 111 9.833 141 29.5s45 49.5 45 89.5c0 39.333-15.333 75-46 107s-77.334 48-140 48H417zm.002 418v-274h308c64 0 111 11.5 141 34.5s45 53.833 45 92.5c0 42-15.332 77-46 105s-77.333 42-140 42h-308z"/><glyph glyph-name="uni0433" unicode="г" horiz-adv-x="1058" d="M110 172h152v700H110v164h889V678H804v194H450V172h152V0H110v172z"/><glyph glyph-name="uni0434" unicode="д" horiz-adv-x="1437" d="M100 170l31 4c52 8 96 27.5 132 58.5s65.333 71 88 120 39 106 49 171S415 659 415 735v129H252v172h1054V864h-163V174h184v-461h-193V0H293v-287H100v457zm494 500c0-116-14.832-215.667-44.5-299S474.668 222 414 174h540v690H594V670z"/><glyph glyph-name="uni0435" unicode="е" d="M276 494c0-29.333 2.166-56.165 6.5-80.498s10.5-47.5 18.5-69.5c24.666-66.667 64.166-116.834 118.5-150.5S535.33 143 604 143c54 0 106.5 7.5 157.5 22.5S866 204 922 236l75-127C929 62.333 860.665 27.666 792 5S652-29 578-29c-70 0-134.834 11.667-194.5 35s-111 58-154 104-76.668 103.333-101 172S92 430.667 92 522c0 74 10.332 143.833 31 209.5s51.5 123 92.5 172S307.33 991.333 368 1020s131.333 43 212 43c78 0 143.167-11.833 195.5-35.5s95-55 128-94 58-83.5 75-133.5 28.833-101 35.5-153c3.333-25.333 5.5-51 6.5-77s1.5-51.333 1.5-76H276zm291 413c-43.334 0-81.165-6.168-113.498-18.5s-59.833-30-82.5-53-40.834-51.168-54.5-84.5S292.666 680.332 286 639h537c-2.667 38.667-8.834 74.334-18.5 107S780 807 760 831s-45.668 42.668-77 56-70 20-116 20z"/><glyph glyph-name="uni0436" unicode="ж" horiz-adv-x="1827" d="M819 442H686L438 170V0H63v172h125l324 346-319 346H63v172h396V864h-70l254-274h176v274H711v172h295V590h180l252 274h-68v172h393V864h-129l-317-346 323-346h125V0h-219l-403 442h-137V172h108V0H819v442z"/><glyph glyph-name="uni0437" unicode="з" horiz-adv-x="975" d="M707 776c0 48-17.828 86-53.495 114s-91.834 42-168.5 42c-35.334 0-66.667-4.832-94-14.5s-51.166-22.333-71.5-38-36.332-34.334-48-56-18.833-44.835-21.5-69.502h-195v172h74c35.333 47.333 84.166 87.5 146.5 120.5s132.165 49.5 209.498 49.5c66 0 124.167-9 174.5-27s93-41.333 128-70 61.333-61.667 79-99 26.5-75.333 26.5-114c0-18.667-2-39.667-6-63s-12.167-45.833-24.5-67.5-29.833-42.167-52.5-61.5-51.667-35-87-47c34-12.667 62.667-28.167 86-46.5s41.833-38 55.5-59 23.5-42.833 29.5-65.5 9-43.667 9-63c0-47.333-10.833-91.166-32.5-131.5s-51.667-75.5-90-105.5-83.166-53.5-134.5-70.5-106.332-25.5-165-25.5c-53.332 0-104.5 6.668-153.5 20s-93 33-132 59-72.166 57.5-99.5 94.5-45 78.834-53 125.5l182 43c12.668-62 41.168-107.332 85.5-136s101.167-43 170.5-43c32.667 0 63.667 3.5 93 10.5s54.666 17.334 76 31 38.165 31.335 50.498 53.002S719 285 719 315c0 26-6.166 48.667-18.5 68s-28.665 35.166-48.998 47.5-43.833 21.5-70.5 27.5-54.334 9-83 9h-99v156h68c65.332 0 121.665 11.832 168.998 35.5s71 62.833 71 117.5z"/><glyph glyph-name="uni0438" unicode="и" horiz-adv-x="1445" d="M110 1036h492V864H438V233l543 803h354V860h-135V172h135V0H843v172h168v645L456 0H112v172h137v692H110v172z"/><glyph glyph-name="uni0439" unicode="й" horiz-adv-x="1445" d="M110 1036h492V864H438V233l543 803h354V860h-135V172h135V0H843v172h168v645L456 0H112v172h137v692H110v172zm637 113c-50.667 0-97.834 8.334-141.5 25s-82 39.668-115 69-59.334 64.167-79 104.5S381 1431.666 379 1479h121c.666-28.668 7.333-56 20-82s30-48.834 52-68.5 48-35.335 78-47.002 62.333-17.5 97-17.5 67 5.667 97 17 56 26.833 78 46.5 39.333 42.5 52 68.5 19.667 53.667 21 83h121c-2-47.333-13-91.166-33-131.5s-46.5-75.165-79.5-104.498-71.5-52.333-115.5-69-91-25-141-25z"/><glyph glyph-name="uni043A" unicode="к" horiz-adv-x="1293" d="M110 1036h443V864h-99V610h180l246 254h-61v172h393V864h-131L766 539l323-367h125V0H995L591 463H454V172h99V0H110v172h158v692H110v172z"/><glyph glyph-name="uni043B" unicode="л" horiz-adv-x="1300" d="M698 172h158.002v692h-326V616c0-86-4.333-161-13-225s-21.5-118.833-38.5-164.5-38.167-83.167-63.5-112.5-54.333-52.666-87-70-68.834-29.332-108.5-36S136.666-2 90-2H53v168c56 0 102.833 7.168 140.5 21.5s68 39.167 91 74.5 39.667 83.833 50 145.5S350 547 350 641l2 223H215v172h959V864h-130V172h146V0H698v172z"/></font>
</defs>
</svg>
