<svg><defs><font horiz-adv-x="1182"><font-face font-family="Arvo" font-weight="700" font-style="italic" units-per-em="2048" panose-1="2 6 9 3 4 2 2 9 3 4" ascent="1638" descent="-410" x-height="1036" cap-height="1516" bbox="-246 -543 2798 2042" underline-thickness="50" underline-position="-50" unicode-range="U+0020-U+FB02"/><glyph glyph-name=".notdef" horiz-adv-x="1024" d="M102 0v1092h820V0H102zm102 102h616v888H204V102z"/><glyph glyph-name="space" horiz-adv-x="492"/><glyph glyph-name="exclam" unicode="!" horiz-adv-x="866" d="M533 1577h375L622 516H329zM246 145c0 24.667 4.667 47.834 14 69.5s22 40.5 38 56.5 34.833 28.668 56.5 38 45.167 14 70.5 14c24 0 46.667-4.666 68-14s40-22 56-38 28.667-34.832 38-56.5 14-44.833 14-69.5-4.667-47.834-14-69.5S565 35 549 19 514.333-9.67 493-19s-44-14-68-14c-25.333 0-48.833 4.666-70.5 14S314 3 298 19s-28.667 34.832-38 56.5-14 44.833-14 69.5z"/><glyph glyph-name="quotedbl" unicode="&quot;" horiz-adv-x="913" d="M465 1059H246l71 518 289 16zm430 0H676l72 518 288 16z"/><glyph glyph-name="numbersign" unicode="#" horiz-adv-x="1835" d="M539 1198h199l128 299h326l-127-299h320l128 299h326l-128-299h206l-123-274h-199l-155-363h205l-123-274h-198L1202 0H874l122 287H678L557 0H225l123 287H143l123 274h199l156 363H416zm256-637h318l155 363H949z"/><glyph glyph-name="dollar" unicode="$" horiz-adv-x="1292" d="M344-229L397.002-.002c-75.333 21.333-136.166 55.833-182.5 103.5s-73.5 105.167-81.5 172.5h-113l60 256h364l-18-76c-9.332-59.333 3-106.833 37-142.5s90.668-53.5 170-53.5c37.334 0 70.834 5 100.5 15s55 23.833 76 41.5 37 38.667 48 63 16.5 50.833 16.5 79.5c0 22-4.666 41-14 57s-21.832 29.833-37.5 41.5-33.833 21.834-54.5 30.5-42.667 16.668-66 24l-172 60c-40 13.334-76.5 31.834-109.5 55.5s-61.333 51.5-85 83.5-42.167 68.168-55.5 108.5-20 83.5-20 129.5c0 72 11.833 136 35.5 192s57 104.334 100 145 94.833 73.168 155.5 97.5 127.667 41.167 201 50.5l53 229h332l-58-249c72.667-22 130.667-54.167 174-96.5s68.666-89.5 76-141.5h115l-60-256h-362l11 49c6.666 30.667 6.666 58.167 0 82.5s-18.668 44.833-36 61.5-39 29.334-65 38-54.668 13-86 13c-32.668 0-63.668-3.166-93-9.5s-55-16.332-77-30-39.5-31.166-52.5-52.5S604 1125.334 604 1096c0-26 5.5-47.167 16.5-63.5s25.166-29.833 42.5-40.5 36.5-19.5 57.5-26.5L782 944l207-76c85.332-30.667 147.665-77 186.998-139s59-137.667 59-227c0-72-12.333-137.5-37-196.5S1138.5 195 1093.5 151s-98.667-80-161-108S801-4.333 725-15l-49-214H344z"/><glyph glyph-name="percent" unicode="%" horiz-adv-x="1927" d="M168 1108c0 61.333 12.5 119.498 37.5 174.498s59.334 103.167 103 144.5 94.668 74 153 98 120.834 36 187.5 36c50.668 0 97-9.167 139-27.5s78-43 108-74 53.334-66.667 70-107 25-82.833 25-127.5c0-59.333-12.166-116.166-36.5-170.5s-58-102.165-101-143.498-93.832-74.5-152.5-99.5S578.668 774 510 774c-51.333 0-98 9.333-140 28s-78 43.5-108 74.5S208.833 943 192.5 983s-24.5 81.667-24.5 125zm438 176c-19.332 0-37.832-3.332-55.5-10s-33.166-16.166-46.5-28.5-23.832-27-31.5-44S461 1165.67 461 1145c0-26.666 7.834-49.333 23.5-68s38.5-28 68.5-28c18.668 0 37.168 3.667 55.5 11s34.667 17.5 49 30.5 25.833 28.167 34.5 45.5 13 36 13 56c0 28.667-8.667 51.167-26 67.5s-41.666 24.5-73 24.5zm959 256h383L547-16H164zM1104 283c0 40 5.666 79.168 17 117.5s27.5 74.334 48.5 108 46.166 64.668 75.5 93 61.832 52.667 97.5 73 74.166 36.166 115.5 47.5 84.332 17 129 17c50.666 0 96.833-9.168 138.5-27.5s77.5-43 107.5-74 53.167-67 69.5-108S1927 445.665 1927 401c0-60-12-117-36-171s-57.333-101.5-100-142.5-93.5-73.668-152.5-98S1515.333-47 1446-47c-50.667 0-97 9-139 27s-78 42.166-108 72.5-53.333 65.5-70 105.5-25 81.666-25 125zm438 180c-19.333 0-37.833-3.5-55.5-10.5s-33.167-16.666-46.5-29-23.833-27.332-31.5-45S1397 341 1397 319c0-24.666 8.167-46.166 24.5-64.5S1461 227 1491 227c18.667 0 37 3.668 55 11s34 17.5 48 30.5 25.167 28.334 33.5 46S1640 351 1640 371c0 28.668-8.833 51.168-26.5 67.5S1572 463 1542 463z"/><glyph glyph-name="ampersand" unicode="&" horiz-adv-x="1300" d="M1016-59L893.002 106.998c-59.333-41.333-124.833-73.666-196.5-97s-150.834-35-237.5-35c-60.668 0-116.5 11.168-167.5 33.5s-95 52.167-132 89.5-66 80.833-87 130.5S41 330.332 41 384.998c0 51.334 7.166 96.834 21.5 136.5S97.666 597.834 125 631.5s60.666 65.334 100 95 71.832 52.335 97.5 68.002 39.833 24.167 42.5 25.5c-34.667 47.333-58.167 91.833-70.5 133.5s-18.5 85.5-18.5 131.5c0 68 11.667 130.167 35 186.5s56 104.666 98 145 92.5 71.665 151.5 93.998S684.667 1544 756 1544c56 0 107.667-10 155-30s88-46.333 122-79 60.5-69.834 79.5-111.5 28.5-84.168 28.5-127.5c0-47.334-6.5-89.667-19.5-127s-31.333-71.333-55-102-52-59.167-85-85.5S912 829.667 872 805l-37.5-23-38.5-22 133-169c15.333 30 28.333 59.333 39 88s19.667 57 27 85h291c-15.333-72.667-36.5-144.5-63.5-215.5S1161.333 410.333 1120 347l166-210zM358.002 407.998c0-18 3.165-35.33 9.498-51.998s15.5-31.334 27.5-44 26.833-22.835 44.5-30.502 37.834-11.5 60.5-11.5c40 0 78.334 6.5 115 19.5s71.335 30.5 104.002 52.5l-199 269c-25.333-14-48-28-68-42s-37-29-51-45-24.667-33.333-32-52-11-40-11-64zM758 1022c32 20.667 55 42.332 69 65s21 50 21 82c0 30-9.5 55.666-28.5 77s-44.5 32-76.5 32c-23.333 0-45.333-4.168-66-12.5s-38.834-20-54.5-35-28.168-32.668-37.5-53-14-42.834-14-67.5c0-18.668 3.332-38.168 10-58.5s26.333-51.167 59-92.5l64 32.5c20 10.333 38 20.5 54 30.5z"/><glyph glyph-name="quotesingle" unicode="'" horiz-adv-x="483" d="M465 1059H246l71 518 289 16z"/><glyph glyph-name="parenleft" unicode="(" horiz-adv-x="874" d="M354-467c-31.333 54-58.837 112.834-82.504 176.5s-43.5 129.835-59.5 198.502-28 138.667-36 210-12 141.333-12 210c0 130.667 15.833 259.334 47.5 386s77.834 250.168 138.5 370.5 134.835 237.667 222.502 352 187.5 225.166 299.5 332.5l207-172c-86.667-87.334-165.667-179-237-275s-132.666-195.834-184-299.5S566.834 812.166 538.5 702.5 496 481 496 367c0-57.333 3.167-116.333 9.5-177S521 69.5 533 10.5 559.833-105 577.5-159s38.167-103.333 61.5-148z"/><glyph glyph-name="parenright" unicode=")" horiz-adv-x="874" d="M623 1769c31.333-54 58.836-112.832 82.503-176.5s43.5-129.833 59.5-198.5 28-138.5 36-209.5 12-140.833 12-209.5c0-131.333-15.833-260.166-47.5-386.5S687.67 338.67 627.003 218s-135-238.333-223-353-188-225.334-300-332l-206 172c86.666 86.666 165.666 178.166 237 274.5S267.667 175.83 319 279.5 410.168 490 438.5 600 481 822 481 936c0 57.332-3.167 116.332-9.5 177S456 1233.332 444 1292s-27 115.167-45 169.5-38.333 103.833-61 148.5z"/><glyph glyph-name="asterisk" unicode="*" horiz-adv-x="983" d="M708 1368l253 76 22-256-248-74 94-192-237-148-92 191-185-195-186 170 181 192-208 72 134 242 208-74 56 244h264z"/><glyph glyph-name="plus" unicode="+" horiz-adv-x="1237" d="M166 723h366l86 373h297l-86-373h367l-63-274H765L678 72H381l87 377H102z"/><glyph glyph-name="comma" unicode="," horiz-adv-x="532" d="M205 283l305-107-285-541-205 78z"/><glyph glyph-name="hyphen" unicode="-" horiz-adv-x="831" d="M143 449l64 274h627l-64-274H143z"/><glyph glyph-name="period" unicode="." horiz-adv-x="539" d="M102 145c0 24.667 4.667 47.834 14 69.5s22 40.5 38 56.5 34.833 28.668 56.5 38 45.167 14 70.5 14c24 0 46.667-4.666 68-14s40-22 56-38 28.667-34.832 38-56.5 14-44.833 14-69.5-4.667-47.834-14-69.5S421 35 405 19 370.333-9.67 349-19s-44-14-68-14c-25.333 0-48.833 4.666-70.5 14S170 3 154 19s-28.667 34.832-38 56.5-14 44.833-14 69.5z"/><glyph glyph-name="slash" unicode="/" horiz-adv-x="983" d="M860 1556h277L313 0H31z"/><glyph glyph-name="zero" unicode="0" horiz-adv-x="1360" d="M551-14C470.333-14 401.667-.67 345 25.997s-103 63.5-139 110.5-62.333 102.667-79 167-25 133.833-25 208.5c0 73.333 7.667 149.666 23 229s38.333 156.832 69 232.5 68.667 147.5 114 215.5 98 127.5 158 178.5 127 91.5 201 121.5 155.333 45 244 45c81.333 0 150.5-13.668 207.5-41s103.333-64.834 139-112.5 61.667-103.668 78-168 24.5-133.167 24.5-206.5c0-79.333-8-159.666-24-241S1296.5 605.333 1265.5 530 1196 383.832 1150 317.5s-99-124-159-173-126.833-87.667-200.5-116S637-14 551-14zm72 306.997c39.334 0 77.003 10.667 113.003 32s69.167 49.833 99.5 85.5 57.833 76.834 82.5 123.5 45.834 95.335 63.5 146.002 31.168 101.5 40.5 152.5 14 99.166 14 144.5c0 36-3.166 69.332-9.5 100s-17 57.5-32 80.5-35 41-60 54-55.832 19.5-92.5 19.5c-39.332 0-77-10.834-113-32.5s-69.5-50.5-100.5-86.5-59-77.334-84-124-46.166-95.335-63.5-146.002-30.832-101.5-40.5-152.5-14.5-98.5-14.5-142.5c0-36.667 3.168-70.5 9.5-101.5s17.167-57.833 32.5-80.5 35.666-40.334 61-53 56.665-19 93.998-19z"/><glyph glyph-name="one" unicode="1" horiz-adv-x="813" d="M84 274h174l182 792-266-140 82 348 473 246 145-2L588 274h172L696 0H20z"/><glyph glyph-name="two" unicode="2" horiz-adv-x="1137" d="M18 260l654.003 557c36 29.332 67.167 56.332 93.5 81s47.833 48.5 64.5 71.5 29 45.832 37 68.5 12 46.666 12 72c0 16.666-3 33-9 49s-15 30-27 42-26.833 21.666-44.5 29-38.167 11-61.5 11c-32.667 0-60.834-5.168-84.5-15.5s-44-24.5-61-42.5-31-39-42-63-20.168-49.334-27.5-76h-329c18 78.666 44.666 148.833 80 210.5s78.165 113.667 128.498 156S509 1485 573 1507s133 33 207 33c65.334 0 125-11 179-33s100.168-51.833 138.5-89.5 68.167-81.5 89.5-131.5 32-103.333 32-160c0-34-2.833-66.833-8.5-98.5s-15.5-63-29.5-94-32.667-61.5-56-91.5-52.333-60-87-90L523 307h497L948 0H-41z"/><glyph glyph-name="three" unicode="3" horiz-adv-x="1204" d="M907 1108c0 18-3.335 35.5-10.002 52.5s-16.667 32.334-30 46-29.833 24.5-49.5 32.5-42.167 12-67.5 12c-24.667 0-47.667-4.166-69-12.5s-40.166-19.5-56.5-33.5-30.165-30.166-41.498-48.5-19.333-37.832-24-58.5c-2-7.332-3.5-13.165-4.5-17.498s-2.167-10.166-3.5-17.5l-358 2c14 70 38.833 134.668 74.5 194s80.5 110.5 134.5 153.5 116.167 76.668 186.5 101 147.166 36.5 230.5 36.5c64.666 0 124.333-10 179-30s101.834-47.166 141.5-81.5 70.668-74.332 93-120 33.5-93.833 33.5-144.5c0-46-5.332-88.5-16-127.5s-26-74.167-46-105.5-44-59.166-72-83.5-59.332-45.165-94-62.498c16-11.333 30.5-25.5 43.5-42.5s24.168-36.167 33.5-57.5 16.667-44.666 22-70 8-51.332 8-78c0-78.666-17.5-152.333-52.5-221s-83-128.5-144-179.5S815.333 55.337 732 26.004s-173-44-269-44c-70 0-132.667 11.5-188 34.5s-101.5 54.167-138.5 93.5-63.5 85.333-79.5 138-19.333 108.667-10 168c1.333 9.333 2 19.666 2 31s2 24.665 6 39.998h342c-6-34.667-6.833-64.834-2.5-90.5s12.666-46.835 25-63.502 28.5-29.167 48.5-37.5 43-12.5 69-12.5c32 0 63 5.667 93 17s56.5 27 79.5 47 41.5 43.333 55.5 70 21 55 21 85c0 48-14.668 84.833-44 110.5S670 651 614 651H475l64 273h141c34.666 0 66 5 94 15s51.832 23.5 71.5 40.5 34.833 36.5 45.5 58.5 16 45.333 16 70z"/><glyph glyph-name="four" unicode="4" horiz-adv-x="1251" d="M76 670l737 846h363L449 668h298l68 293 315 4-69-297h211l-58-254h-211l-33-140h187L1094 0H418l63 274h175l33 140H20z"/><glyph glyph-name="five" unicode="5" horiz-adv-x="1163" d="M502 937c29.333 9.333 60.665 16.998 93.998 22.998s71 9 113 9c58 0 112.333-8.333 163-25s95-41.167 133-73.5 68-72.166 90-119.5 33-101.665 33-162.998c0-92.667-17.5-177-52.5-253s-82.833-141.167-143.5-195.5-131.5-96.333-212.5-126S551.665-31 458.998-31c-61.333 0-119 9.333-173 28s-101 45.5-141 80.5-71.167 77.833-93.5 128.5-31.833 107.667-28.5 171l329 84c-3.333-31.333-1.166-59.333 6.5-84s19.5-45.667 35.5-63 35.5-30.666 58.5-40 48.834-14 77.5-14c38.668 0 74.5 7.5 107.5 22.5s61.5 35 85.5 60 42.668 53.834 56 86.5 20 66.335 20 101.002c0 23.333-4.332 45.666-13 67s-21 40.165-37 56.498-35.5 29.333-58.5 39S641.333 707 612 707c-21.332 0-41.165-1-59.498-3s-36.166-5-53.5-9-34.332-9-51-15-34.333-13-53-21l-258 50 187 807h962l-72-306H565z"/><glyph glyph-name="six" unicode="6" horiz-adv-x="1133" d="M1142 1516L697.998 974.998h13c62 0 117.5-12.333 166.5-37s90.833-57.334 125.5-98 61.167-86.668 79.5-138 27.5-103.667 27.5-157c0-76-15.833-147.667-47.5-215s-74-126.166-127-176.5S821.33 63.334 751.998 34s-142-44-218-44c-61.333 0-115.833 6.833-163.5 20.5s-89 32-124 55-64.333 49.5-88 79.5-42.667 61.667-57 95-24.666 67.166-31 101.5S61 408.33 61 439c0 40 4.668 78.832 14 116.5S96.833 629 112.5 663s33.335 66.332 53.002 97 40.167 59.333 61.5 86l528 670h387zM595.998 718.998c-75.333 0-139.333-35.335-192-106.002-14-21.333-26.167-45-36.5-71s-15.5-55.667-15.5-89c0-24 3.667-47.167 11-69.5s18.5-42.166 33.5-59.5 34-31.165 57-41.498 50.167-15.5 81.5-15.5c34 0 66.5 7 97.5 21s58.333 33 82 57 42.667 52.5 57 85.5 21.5 68.5 21.5 106.5c0 55.333-16.333 99.5-49 132.5s-82 49.5-148 49.5z"/><glyph glyph-name="seven" unicode="7" horiz-adv-x="1243" d="M143 274h150l161.5 240L618 755l159 232.5L925 1204H534l-40-172H166l113 484h1148l-53-226-354.5-499.5L662 274h157L756 0H80z"/><glyph glyph-name="eight" unicode="8" horiz-adv-x="1196" d="M860 1544c60.667 0 116.667-8.998 168-26.998s95.5-43.833 132.5-77.5 65.833-75 86.5-124 31-104.5 31-166.5c0-38-6-74.5-18-109.5s-28.833-68.333-50.5-100-47.334-61-77-88-62.5-51.167-98.5-72.5c40-37.333 71.5-80 94.5-128s34.5-98.333 34.5-151c0-70-16.5-136.667-49.5-200s-78.5-119.333-136.5-168-126.334-87.334-205-116-164-43-256-43c-69.334 0-132.167 11.832-188.5 35.5s-104.166 55-143.5 94-69.665 83.666-90.998 134-32 102.5-32 156.5c0 44 7 86 21 126s33.5 77.5 58.5 112.5 54.833 67.332 89.5 97 72.667 55.833 114 78.5c-30.667 33.333-54.334 70.166-71 110.5s-25 81.832-25 124.5c0 69.332 16 134.5 48 195.5s75.666 114.166 131 159.5S547.166 1478.166 621.5 1504.5 775.333 1544 860 1544zM371 432.002c0-23.333 4.668-45.167 14-65.5s22.5-38.333 39.5-54 37.334-28 61-37 50.168-13.5 79.5-13.5c36.668 0 72 6.5 106 19.5s64.334 30.333 91 52 48 46.667 64 75 24 57.5 24 87.5c0 22.667-4.666 44.167-14 64.5s-22.5 38-39.5 53-37.332 26.833-61 35.5-49.833 13-78.5 13c-37.333 0-73.166-6.167-107.5-18.5s-64.832-29-91.5-50-47.833-45.5-63.5-73.5-23.5-57.333-23.5-88zM551 1055c0-19.333 3.833-37.67 11.5-55.002s18.667-32.5 33-45.5 31.666-23.167 52-30.5 42.832-11 67.5-11c30.666 0 60.666 5.333 90 16s55.332 25 78 43 40.833 38.833 54.5 62.5 20.5 48.167 20.5 73.5c0 20-4 38.833-12 56.5s-19.167 33.334-33.5 47-31.5 24.335-51.5 32.002-42 11.5-66 11.5c-32 0-62.667-5.667-92-17s-55.166-26.333-77.5-45-40.332-40-54-64-20.5-48.667-20.5-74z"/><glyph glyph-name="nine" unicode="9" horiz-adv-x="1118" d="M92 0l448 549h-14c-62 0-117.5 12.332-166.5 37S268.67 643.332 234 684s-61.166 86.667-79.5 138S127 925.666 127 979c0 50.666 7.168 99.666 21.5 147s34.334 91.5 60 132.5S265 1337 301 1371s75.334 63 118 87 88 42.666 136 56 97.334 20 148 20c62 0 116.668-6.834 164-20.5s88.5-32 123.5-55 64.334-49.5 88-79.5 42.668-61.668 57-95 24.667-67.167 31-101.5 9.5-66.833 9.5-97.5c0-40-4.667-78.667-14-116s-21.833-73-37.5-107-33.5-66.5-53.5-97.5-40.333-59.833-61-86.5L479 0H92zm549 805c75.334 0 139.334 35.334 192 106 14 20.668 26.168 44 36.5 70s15.5 56 15.5 90c0 24-3.666 47.168-11 69.5s-18.5 42.167-33.5 59.5-34 31.166-57 41.5-50.166 15.5-81.5 15.5c-34 0-66.5-7-97.5-21s-58.332-33-82-57-42.666-52.5-57-85.5S444 1025 444 987c0-55.334 16.334-99.5 49-132.5S575 805 641 805z"/><glyph glyph-name="colon" unicode=":" horiz-adv-x="600" d="M259 976.5c9.333 21.667 22 40.5 38 56.5s34.833 28.667 56.5 38 45.167 14 70.5 14c24 0 46.667-4.667 68-14s40-22 56-38 28.667-34.833 38-56.5 14-44.834 14-69.5-4.667-47.835-14-69.502-22-40.5-38-56.5-34.667-28.667-56-38-44-14-68-14c-25.333 0-48.833 4.667-70.5 14s-40.5 22-56.5 38-28.667 34.833-38 56.5-14 44.834-14 69.5 4.667 47.835 14 69.502zm-163-762c9.333 21.667 22 40.5 38 56.5s34.833 28.667 56.5 38 45.167 14 70.5 14c24 0 46.667-4.667 68-14s40-22 56-38 28.667-34.833 38-56.5 14-44.834 14-69.5-4.667-47.835-14-69.502-22-40.5-38-56.5-34.667-28.667-56-38-44-14-68-14c-25.333 0-48.833 4.667-70.5 14s-40.5 22-56.5 38-28.667 34.833-38 56.5-14 44.834-14 69.5 4.667 47.835 14 69.502z"/><glyph glyph-name="semicolon" unicode=";" horiz-adv-x="610" d="M270 976.5c9.333 21.667 22 40.5 38 56.5s34.833 28.667 56.5 38 45.167 14 70.5 14c24 0 46.667-4.667 68-14s40-22 56-38 28.667-34.833 38-56.5 14-44.834 14-69.5-4.667-47.835-14-69.502-22-40.5-38-56.5-34.667-28.667-56-38-44-14-68-14c-25.333 0-48.833 4.667-70.5 14s-40.5 22-56.5 38-28.667 34.833-38 56.5-14 44.834-14 69.5 4.667 47.835 14 69.502zM143 283l305-107-284-541-205 78z"/><glyph glyph-name="less" unicode="<" horiz-adv-x="971" d="M158 705l813 270-68-287-450-124 393-130-58-254-686 285z"/><glyph glyph-name="equal" unicode="=" horiz-adv-x="1176" d="M166 526h872l-63-274H102zm115 498h872l-63-274H217z"/><glyph glyph-name="greater" unicode=">" horiz-adv-x="971" d="M854 451L41 180l68 287 449 123-392 131 57 254 686-285z"/><glyph glyph-name="question" unicode="?" horiz-adv-x="1085" d="M305 471c8 42 17.33 78.998 27.997 110.998s23 60.5 37 85.5 29.667 47.333 47 67 36.833 38.334 58.5 56 45.5 35.168 71.5 52.5l86 56c33.333 22 60.333 43.168 81 63.5s36.667 40.167 48 59.5 19 38.666 23 58 6 39 6 59c0 16-2.667 30.832-8 44.5s-12.666 25.333-22 35-20 17.167-32 22.5-25 8-39 8-28.832-2.333-44.5-7-30.5-13-44.5-25-26.832-28.667-38.5-50-20.833-48.666-27.5-82l-330 33c15.333 72 38.333 135 69 189s68.334 99.168 113 135.5 95.668 63.667 153 82 120.334 27.5 189 27.5c58.668 0 113.335-9.333 164.002-28s94.833-44.5 132.5-77.5 67.334-72.5 89-118.5 32.5-96 32.5-150c0-40-3.166-78.333-9.5-115s-18-72.167-35-106.5-40.832-67.666-71.5-100-70-63.832-118-94.5c-25.332-16.666-49-31.5-71-44.5s-42.666-25.832-62-38.5-37-25.5-53-38.5-30.5-27.666-43.5-44-24.332-34.665-34-54.998-17.833-43.833-24.5-70.5H305zm112.997-148.002c24 0 46.667-4.667 68-14s40-22 56-38 28.667-34.833 38-56.5 14-44.834 14-69.5-4.667-47.835-14-69.502-22-40.5-38-56.5-34.667-28.667-56-38-44-14-68-14c-25.333 0-48.833 4.667-70.5 14s-40.5 22-56.5 38-28.667 34.833-38 56.5-14 44.834-14 69.5 4.667 47.835 14 69.502 22 40.5 38 56.5 34.833 28.667 56.5 38 45.167 14 70.5 14z"/><glyph glyph-name="at" unicode="@" horiz-adv-x="2140" d="M1677 956l-148.998-647c-4-14-6-27-6-39s2-22.333 6-31 9.667-15.5 17-20.5 16.666-7.5 28-7.5c32.666 0 61.666 8.833 87 26.5s47.332 40.334 66 68 34.5 58.335 47.5 92.002 23.5 66.667 31.5 99 13.666 62 17 89 5 47.5 5 61.5c0 73.333-13.334 142.5-40 207.5s-64.5 122-113.5 171-108 87.667-177 116-145.834 42.5-230.5 42.5c-78 0-153.668-9.5-227-28.5s-142.167-45.833-206.5-80.5-123-76.334-176-125-98.667-103.168-137-163.5-68-125.5-89-195.5-31.5-143.334-31.5-220c0-86 13.167-164 39.5-234s63.5-130 111.5-180 105.667-88.5 173-115.5 142.333-40.5 225-40.5c66 0 134.167 10.5 204.5 31.5s140.833 50.166 211.5 87.5l84-227c-93.333-50-184.5-88.5-273.5-115.5S996.335-463 907.002-463c-76 0-148 9.5-216 28.5s-131 45.832-189 80.5-110.333 76.333-157 125-86.5 103-119.5 163-58.333 124.667-76 194-26.5 142-26.5 218c0 104 13.667 203.333 41 298s65.833 182.834 115.5 264.5 109.667 155.668 180 222 148.333 123 234 170 178 83.334 277 109 202.167 38.5 309.5 38.5c81.333 0 158.166-9.5 230.5-28.5s138.832-45.5 199.5-79.5 115-74.5 163-121.5 88.832-99 122.5-156 59.333-117.832 77-182.5 26.5-131.333 26.5-200c0-62.667-6.333-123.334-19-182s-30.834-113.835-54.5-165.502-52.835-99-87.502-142-73.834-80-117.5-111-91.668-55-144-72S1568.332-18 1509-18c-54 0-100.5 9.5-139.5 28.5S1300 56.667 1278 92c-42.667-35.333-89.5-62.166-140.5-80.5S1034.333-16 981-16c-63.333 0-120.333 11-171 33s-93.834 51.668-129.5 89-63.168 80.667-82.5 130-29 101.666-29 157c0 62 8.332 119.166 25 171.5s39.333 99.832 68 142.5 62 80.333 100 113 78.667 60 122 82 88 38.667 134 50 91 17 135 17c49.333 0 91.833-6 127.5-18s68.5-27.667 98.5-47l12 52h286zm-576.5-672c19.667 5.333 38.833 13 57.5 23s36.5 22.333 53.5 37 32.833 31.334 47.5 50l38 162c-4.667 19.334-12 37-22 53s-22 29.668-36 41-29.833 20.167-47.5 26.5-36.5 9.5-56.5 9.5c-32 0-63.333-6.833-94-20.5s-58-32-82-55-43.333-49.667-58-80-22-62.5-22-96.5c0-24 4-45.667 12-65s19.167-36 33.5-50 31.5-24.667 51.5-32 42-11 66-11c19.333 0 38.833 2.667 58.5 8z"/><glyph glyph-name="A" unicode="A" horiz-adv-x="1479" d="M907 274h84l-16 209H557L446 274h127L510 0h-612l63 274H89l689 1242h436l114-1242h192L1456 0H844zM711 772h243l-30 402z"/><glyph glyph-name="B" unicode="B" horiz-adv-x="1516" d="M125 274h153l224 967H330l63 275h766c64 0 120.667-9.666 170-29s90.833-46.165 124.5-80.498 59.167-74.833 76.5-121.5 26-97.334 26-152c0-56.668-9.333-111.5-28-164.5S1478.333 868 1435 826c-32-30-71.333-56.334-118-79 5.333-4 10-8 14-12 34-31.334 59.667-67.334 77-108s26-84.335 26-131.002c0-82.667-13.5-155-40.5-217S1328 165.333 1278 124s-110.333-72.333-181-93S947.333 0 860 0H61zm585 353l-82-353h249c34.666 0 65.5 5.168 92.5 15.5s49.666 25 68 44 32.332 41.668 42 68S1094 457 1094 489c0 19.334-3 37.5-9 54.5s-14.668 31.668-26 44-25.667 22-43 29-37.333 10.5-60 10.5H710zm143 614l-79-340.002h232c30 0 58 4.5 84 13.5s48.5 22 67.5 39 34 37.333 45 61 16.5 50.167 16.5 79.5c0 20-3.168 38.833-9.5 56.5s-15.5 33.334-27.5 47-27.168 24.335-45.5 32.002-39.5 11.5-63.5 11.5H853z"/><glyph glyph-name="C" unicode="C" horiz-adv-x="1493" d="M1133.5 1165.5c-43.667 28.333-97.837 42.5-162.504 42.5-45.333 0-89.333-7.167-132-21.5s-82.834-34.333-120.5-60-72-56.167-103-91.5-57.668-74-80-116-39.667-86.5-52-133.5-18.5-95.167-18.5-144.5c0-50 7-95.5 21-136.5s34.167-76.333 60.5-106 58-52.667 95-69 78.5-24.5 124.5-24.5c36.667 0 71 5 103 15s61.833 23.833 89.5 41.5 52.834 38.334 75.5 62S1077.332 472.67 1096 500l317-158c-76-120-171.5-212.166-286.5-276.5S878.33-31 726.998-31c-90.667 0-174.167 15.5-250.5 46.5S334.165 90 278.498 146s-99 123.168-130 201.5-46.5 165.167-46.5 260.5c0 94.667 12 183.5 36 266.5s57.167 159.167 99.5 228.5 92.333 131.333 150 186 120.334 100.834 188 138.5 138.668 66.5 213 86.5 149.5 30 225.5 30c60.668 0 116.668-6.332 168-19s98.334-30.666 141-54 76.835-47.832 102.502-73.5 46.167-48.5 61.5-68.5h190l-63-274h-389c-17.333 45.334-47.833 82.167-91.5 110.5z"/><glyph glyph-name="D" unicode="D" horiz-adv-x="1585" d="M412 1516h608c91.332 0 175.332-14 252-42s142.833-68.5 198.5-121.5 99-118.168 130-195.5 46.5-165.334 46.5-264c0-83.334-9.667-163.167-29-239.5S1570.334 506 1533 440s-83.332-126-138-180-117.333-100.333-188-139-149.167-68.5-235.5-89.5S792 0 692 0H61l64 274h155l224 967H348zm443-275L630 274h107c48.668 0 95.835 7.167 141.502 21.5s88.667 34.333 129 60 77.333 56.5 111 92.5 62.667 75.833 87 119.5 43.166 90.5 56.5 140.5 20 102 20 156c0 70-8.834 129-26.5 177s-41.335 86.833-71.002 116.5-63.834 51-102.5 64-79 19.5-121 19.5H855z"/><glyph glyph-name="E" unicode="E" horiz-adv-x="1505" d="M393 1516h1297l-119-517h-350l55 242H855l-76-326h337l-67-290H712l-82-351h396l61 269h351L1313 0H61l64 274h155l224 967H330z"/><glyph glyph-name="F" unicode="F" horiz-adv-x="1450" d="M348 1516h1305l-119-517h-348l55 242H851l-81-348h363l-68-291H702l-76-328h175L737 0H61l64 274h151l224 967H285z"/><glyph glyph-name="G" unicode="G" horiz-adv-x="1610" d="M1133 0l53.002 227.998c-26.667-42.667-61.167-84.167-103.5-124.5s-94.333-72.833-156-97.5-124.834-37-189.5-37c-87.334 0-168.334 15.5-243 46.5s-139.5 74.5-194.5 130.5-98.168 123.167-129.5 201.5-47 165.166-47 260.5c0 94.666 12 183.5 36 266.5s57.166 159.166 99.5 228.5 92.332 131.332 150 186 120.166 100.833 187.5 138.5 138.165 66.5 212.498 86.5 149.5 30 225.5 30c52 0 102.667-5.5 152-16.5s95.5-26.333 138.5-46 81.333-42.667 115-69 61.834-54.166 84.5-83.5h178l-64-274h-389c-8.666 20.668-20.833 40.668-36.5 60s-34.5 36.334-56.5 51-46.833 26.335-74.5 35.002-57.834 13-90.5 13c-68 0-132.668-16-194-48s-115-74.667-161-128-82.668-114.333-110-183-41-140-41-214c0-50 6.832-96 20.5-138s33.333-78.5 59-109.5 57-55.167 94-72.5 78.833-26 125.5-26c43.333 0 85.833 6.5 127.5 19.5s80 31 115 54 64.667 49 89 78 42.833 58.5 55.5 88.5H852l63 274h705L1432 0h-299z"/><glyph glyph-name="H" unicode="H" horiz-adv-x="1946" d="M1413 1516h676l-64-275h-155l-224-967h175L1757 0h-676l64 274h151l90 388H720l-90-388h171L737 0H61l64 274h155l224 967H332l63 275h676l-63-275H855l-72-309h665l72 309h-170z"/><glyph glyph-name="I" unicode="I" horiz-adv-x="926" d="M393 1516h676l-63-275H855L630 274h171L737 0H61l64 274h155l224 967H330z"/><glyph glyph-name="J" unicode="J" horiz-adv-x="782" d="M352 1516h676l-63-275H816L569 172c-28-54-53-95.5-75-124.5S431.667-24.333 373-81c-51.333-52.667-109.333-107.667-174-165l-281 23L50-78.5C82-42.167 114.5-1 147.5 45s60.167 99.333 81.5 160l239 1036H289z"/><glyph glyph-name="K" unicode="K" horiz-adv-x="1745" d="M1370 1243l64 273h618l-63-275h-134l-642-477 350-490h147L1649 0h-564l64 274-377 519zm-977 273h676l-63-275H855L630 274h171L737 0H61l64 274h155l224 967H330z"/><glyph glyph-name="L" unicode="L" horiz-adv-x="1317" d="M393 1516h676l-63-275H853L628 274h287c24 0 44.5 7.833 61.5 23.5s28.833 35.167 35.5 58.5l49 201h338L1272 0H61l64 274h153l224 967H330z"/><glyph glyph-name="M" unicode="M" horiz-adv-x="2406" d="M115 274h136l224 967H301l64 275h688l181-1016 619 1016h707l-63-275h-154l-225-967h149L2204 0h-613l64 274h115l189 814L1282 18H981L782 1100 583 274h144L664 0H51z"/><glyph glyph-name="N" unicode="N" horiz-adv-x="1786" d="M1358 1516h612l-63-275h-130L1491 0h-344L761 935 608 274h129L674 0H61l64 274h135l223 967H319l64 275h516l374-936 154 661h-133z"/><glyph glyph-name="O" unicode="O" horiz-adv-x="1597" d="M748-31c-90.667 0-174.167 15.5-250.5 46.5S355.167 90 299.5 146s-99 123.166-130 201.5S123 512.664 123 607.997c0 94.667 12 183.5 36 266.5s57.167 159.167 99.5 228.5 92.333 131.333 150 186 120.167 100.834 187.5 138.5 138.166 66.5 212.5 86.5 149.5 30 225.5 30c94.666 0 180.5-15.666 257.5-47s142.666-75.165 197-131.498 96.332-123.833 126-202.5 44.5-165.334 44.5-260c0-92.668-11.168-180-33.5-262s-53.834-157.668-94.5-227-89-131.5-145-186.5-117.834-101.668-185.5-140-139.668-67.667-216-88S829.332-31 748-31zm38 336c44.667 0 88.335 7.17 131.002 21.502s82.667 34.166 120 59.5 71.666 55.665 103 90.998 58.165 74 80.498 116 39.833 86.667 52.5 134 19 95.666 19 145c0 50-6.833 95.5-20.5 136.5s-33.5 76.332-59.5 106-57.667 52.666-95 69-79.333 24.5-126 24.5c-68 0-132.667-15.668-194-47s-115-73.334-161-126-82.667-113-110-181-41-139-41-213c0-50 7-95.5 21-136.5s34.167-76.334 60.5-106 58-52.668 95-69S740 305 786 305z"/><glyph glyph-name="P" unicode="P" horiz-adv-x="1354" d="M393 1516h704.998c69.333 0 131.333-10.5 186-31.5s100.834-49.832 138.5-86.5 66.335-79.833 86.002-129.5 29.5-103.167 29.5-160.5c0-73.333-11.833-143-35.5-209s-61.667-123.833-114-173.5S1268 636.333 1184 607s-186.333-44-307-44H697l-67-289h171L737 0H61l64 274h155l224 967H330zm461.998-275l-95-407h106c45.334 0 86.5 4.833 123.5 14.5s68.668 24.5 95 44.5 46.667 45 61 75 21.5 65.667 21.5 107c0 50.667-17.167 91-51.5 121s-85.833 45-154.5 45h-106z"/><glyph glyph-name="Q" unicode="Q" horiz-adv-x="1556" d="M619-23c-50 7.333-97.668 20-143 38-76 31.332-141.834 75-197.5 131s-99 123.166-130 201.5S102 512.664 102 607.997c0 94.667 12 183.5 36 266.5s57.166 159.167 99.5 228.5 92.332 131.333 150 186 120.333 100.834 188 138.5 138.667 66.5 213 86.5 149.5 30 225.5 30c94.667 0 180.5-15.666 257.5-47s142.667-75.165 197-131.498 96.166-123.833 125.5-202.5 44-165.334 44-260c0-92.668-11.168-180-33.5-262s-53.834-157.668-94.5-227-89-131.5-145-186.5-117.834-101.668-185.5-140S1039.664 20 962.997 0c-27.333-7.334-54.666-13.334-82-18l69-27c66.668-40 120.668-60.334 162-61 38.668 0 73 6.332 103 19s53 30 69 52 29 46 39 72l199-111c-17.332-48.668-41.5-92.668-72.5-132s-66.832-73-107.5-101-84.5-49.668-131.5-65-94.832-23-143.5-23c-25.332 0-49.665 3.5-72.998 10.5s-46.333 15.832-69 26.5-45 22.166-67 34.5-44.333 23.832-67 34.5-46 19.5-70 26.5-48.667 10.5-74 10.5c-16.667 0-31-.668-43-2s-26.333-4.667-43-10zm147 328c44.666 0 88.165 7.17 130.498 21.502s82.333 34.166 120 59.5 72 55.665 103 90.998 57.833 74 80.5 116 40.334 86.667 53 134 19 95.666 19 145c0 50-7 95.5-21 136.5s-34 76.332-60 106-57.5 52.666-94.5 69-78.832 24.5-125.5 24.5c-45.332 0-89.332-7.168-132-21.5s-82.833-34.334-120.5-60-72-56.168-103-91.5-57.667-74-80-116-39.666-86.5-52-133.5S465 690.33 465 641c0-50 7-95.5 21-136.5s34.168-76.334 60.5-106 58-52.668 95-69S720 305 766 305z"/><glyph glyph-name="R" unicode="R" horiz-adv-x="1483" d="M373 1516l807-.002c66.667 0 124.334-11.333 173-34s88.668-52.167 120-88.5 54.5-77.666 69.5-124S1565 1176 1565 1128c0-65.332-9.332-123.665-28-174.998s-47.666-97-87-137-78-69.333-116-88l-81-39c6.668-6 15.668-15.833 27-29.5s21.667-35 31-64 14.666-63.5 16-103.5l6-218h144L1413 0H963l24 360c2.666 42.667 1.166 79.5-4.5 110.5s-16.668 56.333-33 76-38.167 34.167-65.5 43.5-61.333 14-102 14h-96l-77-330h128L674 0H61l64 274h134l225 967H309zm461-275l-86-366.998h190c41.334 0 78.834 4.167 112.5 12.5s62.5 21.166 86.5 38.5 42.5 39.332 55.5 66 19.5 58 19.5 94c0 47.332-13.832 85.165-41.5 113.498s-73.833 42.5-138.5 42.5H834z"/><glyph glyph-name="S" unicode="S" horiz-adv-x="1268" d="M80 532l364-.002c-18-67.333-24.332-115-19-143s16.5-51.333 33.5-70 40-33.167 69-43.5 64.168-15.5 105.5-15.5c37.334 0 70.834 5 100.5 15s55 23.833 76 41.5 37 38.667 48 63 16.5 50.833 16.5 79.5c0 22-4.666 41-14 57s-21.832 29.833-37.5 41.5-33.833 21.834-54.5 30.5-42.667 16.668-66 24l-172 60c-40 13.334-76.5 31.834-109.5 55.5s-61.333 51.5-85 83.5-42.167 68.168-55.5 108.5-20 83.5-20 129.5c0 82 15.333 153.834 46 215.5s73.5 113 128.5 154 120.667 71.834 197 92.5 160.166 31 251.5 31c66 0 126-7.666 180-23s100.5-35.832 139.5-61.5 68.666-54.333 89-86 32.832-63.5 37.5-95.5h115l-60-256h-362c14 62 18 105 12 129s-17.668 44.667-35 62-39.167 30.5-65.5 39.5-55.5 13.5-87.5 13.5c-32.667 0-63.667-3.167-93-9.5s-55-16.333-77-30-39.5-31.167-52.5-52.5-19.5-46.666-19.5-76c0-26 5.5-47.166 16.5-63.5s28.667-30.665 53-42.998S734 962 782 944l207-76c85.333-30.667 147.666-77 187-139s59-137.667 59-227c0-82.667-16.168-156.5-48.5-221.5S1109.332 160.333 1052 115 926.167 35 846.5 11 680-25 586-25c-70 0-133.833 8.667-191.5 26S288 42.833 248 74.5 179.667 140 163 176s-27 69.333-31 100H20z"/><glyph glyph-name="T" unicode="T" horiz-adv-x="1368" d="M342 274h157l225 967H530l-43-186H143l107 461h1425l-106-461h-344l43 186h-194L849 274h169L954 0H279z"/><glyph glyph-name="U" unicode="U" horiz-adv-x="1534" d="M281 1516h612l-64-275H713L567 612c-14-66.667-18-118.5-12-155.5s19-68.833 39-95.5 44.667-46 74-58 64-18 104-18c38.667 0 73.5 5.5 104.5 16.5s58.833 29.333 83.5 55 46.5 59.334 65.5 101S1061 550.67 1075 612l145 629h-137l64 275h612l-63-275h-130l-155-674c-24-105.332-56.333-195.832-97-271.5s-89.667-137.666-147-186S1043.834 25.67 969.5 3 812.336-31 721.003-31c-75.333 0-144.5 11.168-207.5 33.5s-117.333 53.667-163 94-80.334 89-104 146S209.166 360 205.5 424s2.833 133.667 19.5 209l142 608H217z"/><glyph glyph-name="V" unicode="V" horiz-adv-x="1399" d="M1114 1516h612l-63-275h-120L834 0H426L319 1241H164l63 275h613l-64-275H663l62-784 443 784h-117z"/><glyph glyph-name="W" unicode="W" horiz-adv-x="2200" d="M1915 1516h612l-63-275h-119L1696 0h-410l-8 975L801 0H391l-69 1241H158l63 275h613l-64-275H645l39-829 530 1104h361l16-1100 417 825h-157z"/><glyph glyph-name="X" unicode="X" horiz-adv-x="1618" d="M1208 1516h676l-63-275h-125l-558-491 312-476h170L1556 0H881l63 274h118L892 534 597 274h101L635 0H-41l64 274h121l584 512-297 455H258l64 275h675l-63-275H817l156-239 272 239h-100z"/><glyph glyph-name="Y" unicode="Y" horiz-adv-x="1393" d="M248 1516h612l-63-275H692l133-328 25 26 262 302h-88l63 275h613l-64-275h-101L941 615l-79-341h170L969 0H293l63 274h160l82 361-280 606H184z"/><glyph glyph-name="Z" unicode="Z" horiz-adv-x="1320" d="M1455 1202L481 274h430l59 258h348L1195 0H20l71 313 956 928H642l-59-262H239l125 537h1163z"/><glyph glyph-name="bracketleft" unicode="[" horiz-adv-x="772" d="M451 1835h567l-57-246H737L360-41h224l-58-248H-41z"/><glyph glyph-name="backslash" unicode="\" horiz-adv-x="829" d="M164 1589h235L584-88H342z"/><glyph glyph-name="bracketright" unicode="]" horiz-adv-x="711" d="M412 1589H188l58 246h567L322-289h-568l58 248H35z"/><glyph glyph-name="asciicircum" unicode="^" horiz-adv-x="1073" d="M932 1516l219-791H903l-138 524-394-524H102l600 791h230z"/><glyph glyph-name="underscore" unicode="_" horiz-adv-x="1083" d="M-23-90h1024l-59-256H-82z"/><glyph glyph-name="grave" unicode="`" horiz-adv-x="774" d="M461 1178l-293 286v25h326l196-311H461z"/><glyph glyph-name="a" unicode="a" horiz-adv-x="1391" d="M786 79c-24.667-26-57.333-48-98-66-43.333-19.332-94.333-29-153-29-54 0-107 9.668-159 29s-98.167 48.167-138.5 86.5-73 85.833-98 142.5S102 364 102 438c0 64 8.333 123.833 25 179.5s39.667 106.667 69 153S260.166 858 300.5 894s84.332 66.333 132 91 98 43.5 151 56.5S690.33 1061 745 1061c30.666 0 56.833-2 78.5-6s46.5-10 74.5-18 60.667-25.333 98-52l12 51h340l-177-762h191L1298 0H768zm37 293L867 427l50 216c-8 15.333-18.332 30.166-31 44.5s-28.5 26.832-47.5 37.5-39.666 18.833-62 24.5-44.832 8.5-67.5 8.5c-36 0-70.332-7.167-103-21.5s-61.166-33.666-85.5-58S476.67 625.334 462 592s-22-69-22-107c0-32 5-60 15-84s23.668-44 41-60 37.334-28 60-36 47-12 73-12c22 0 44.5 2.833 67.5 8.5s45.168 14.334 66.5 26 41.334 26.5 60 44.5z"/><glyph glyph-name="b" unicode="b" horiz-adv-x="1327" d="M264 1556h537.003l-136-589c24.667 25.332 57 47 97 65 43.333 19.332 94.333 29 153 29 56.667 0 111-9.834 163-29.5s98-48.668 138-87 72-85.834 96-142.5 36-122 36-196c0-91.334-16.833-175.167-50.5-251.5s-79.5-142-137.5-197-126.167-97.667-204.5-128S793.67-16 705.003-16c-24.667 0-49.334 2-74 6S582.667-.5 560 6.5 516.668 21.667 498 31c-16.667 8-31 16.667-43 26L442 0H102l296 1282H201zm363.003-884c-16-15.334-30.333-33-43-53l-50-219c7.333-15.332 16.333-29 27-41 14.667-15.332 31.5-28.332 50.5-39s39.5-18.833 61.5-24.5 44.667-8.5 68-8.5c36 0 70.333 7.167 103 21.5s61.167 33.666 85.5 58 43.833 53 58.5 86 22 68.5 22 106.5c0 32-5 60-15 84s-23.667 44-41 60-37.333 28.166-60 36.5-47 12.5-73 12.5c-22 0-44.5-2.834-67.5-8.5s-45.167-14.5-66.5-26.5-41.333-27-60-45z"/><glyph glyph-name="c" unicode="c" horiz-adv-x="1171" d="M852 668c-10.667 28-30.33 50.667-58.998 68s-59.667 26-93 26c-37.333 0-72.5-7.5-105.5-22.5s-61.833-35.667-86.5-62-44.167-57-58.5-92-21.5-72.5-21.5-112.5c0-30 4.833-56.833 14.5-80.5s22.5-44 38.5-61 34.667-30 56-39 43.666-13.5 67-13.5c55.332 0 101.5 12.833 138.5 38.5S810 376.667 834 418l272-148c-21.334-41.333-49.334-80-84-116s-75-67.333-121-94-96.834-47.5-152.5-62.5S633.666-25 571-25c-67.333 0-129.5 12.167-186.5 36.5S278 68.833 236 110.5 161.167 201 137.5 257 102 372.667 102 436c0 95.333 17.167 181.833 51.5 259.5s80.5 144 138.5 199S417.167 992 493.5 1022s156.833 45 241.5 45c53.333 0 102.666-7.667 148-23s86.332-36.333 123-63c16.666-12 32.333-25 47-39h192l-63-274H852z"/><glyph glyph-name="d" unicode="d" horiz-adv-x="1405" d="M920 1556h546.003l-295-1282h191l-64-274h-530l18 78c-10.667-12-23.334-23.334-38-34-16.668-12-36-22.668-58-32s-46-16.667-72-22-53.668-8-83-8c-68 0-128.834 12.333-182.5 37s-99 57.834-136 99.5-65.334 90-85 145-29.5 113.168-29.5 174.5c0 64 8.332 123.834 25 179.5s39.666 106.668 69 153S260.167 858 300.5 894s84.334 66.334 132 91 98 43.5 151 56.5S690.335 1061 745 1061c23.334 0 47.334-1.832 72-5.5s48.5-8.833 71.5-15.5 44.168-14.667 63.5-24c17.334-8 31.667-17 43-27l68 293H856zM765.003 343c40.667 22 74.667 51.665 102 88.998l52 226c-6 12-13.667 23.333-23 34-14.667 16-31.667 29.333-51 40s-40.166 18.667-62.5 24-44.832 8-67.5 8c-36 0-69.832-6.833-101.5-20.5s-59.5-32.5-83.5-56.5-42.832-52.333-56.5-85-20.5-68-20.5-106c0-28.667 4.5-54.667 13.5-78s21.168-43.166 36.5-59.5 33.667-29 55-38 44.333-13.5 69-13.5c48 0 94 12 138 36z"/><glyph glyph-name="e" unicode="e" horiz-adv-x="1178" d="M428 440c1.333-16 3.998-31.333 7.998-46 6.667-25.333 17.834-47.5 33.5-66.5s36.168-34 61.5-45 56-16.5 92-16.5c26.668 0 51.168 2.667 73.5 8s43.5 12.833 63.5 22.5 39.168 21.167 57.5 34.5 36.5 28 54.5 44l220-193c-67.332-72-145-124.833-233-158.5S676.333-27 575-27C509.667-27 448.334-16.333 391 5S283.667 56.833 241 96.5 164.5 184.334 139.5 241 102 361.336 102 432.003c0 95.333 17.167 182 51.5 260S234 836.835 292 892.502s125.167 98.667 201.5 129 156.833 45.5 241.5 45.5c67.333 0 129.333-11.833 186-35.5s105.5-55.334 146.5-95 73-85.5 96-137.5 34.5-106 34.5-162c0-13.334-.667-28.334-2-45s-3.333-33.835-6-51.502-6-35.167-10-52.5-8.333-33.333-13-48H428zm42.998 240c-2.667-4.667-5.002-9.332-7.002-14h433c-1.333 18-7.166 35.5-17.5 52.5s-24 32.168-41 45.5-37 24.167-60 32.5-48.5 12.5-76.5 12.5c-33.332 0-65.165-5-95.498-15s-57-24.5-80-43.5-41.5-42.5-55.5-70.5z"/><glyph glyph-name="f" unicode="f" horiz-adv-x="801" d="M182 1036h202l40 170c14.667 64.666 37 120.5 67 167.5s65.5 85.832 106.5 116.5 86.833 53.166 137.5 67.5 104 21.5 160 21.5c38.667 0 73.667-3.168 105-9.5s58.5-14.167 81.5-23.5 42-19.5 57-30.5 25.167-21.167 30.5-30.5l-184-232c-11.333 11.333-23.833 20-37.5 26s-33.167 9-58.5 9c-30 0-58-10-84-30s-43.667-49.667-53-89l-31-133h221l-68-293H652L369-471H31L315 743H115z"/><glyph glyph-name="g" unicode="g" horiz-adv-x="1303" d="M777 79c-24.667-21.333-58.333-39.67-101-55.002-44.667-16-94.667-24-150-24-52.667 0-104.834 9.333-156.5 28s-97.835 46.334-138.502 83-73.667 82.335-99 137.002-38 118-38 190c0 89.333 16.5 172 49.5 248s78.333 141.833 136 197.5 125.667 99.167 204 130.5 162.833 47 253.5 47c26 0 51.833-2.167 77.5-6.5s49.834-10 72.5-17 56-23.167 100-48.5l17 72h339L1108 43c-23.332-102-55.832-186.167-97.5-252.5s-90.666-118.833-147-157.5S744-432.667 674-448s-145-23-225-23c-106 0-197.832 12.167-275.5 36.5S31.333-378-20-338L156-74c40-28.667 86-52.5 138-71.5S402.333-174 463-174c34 0 67 3 99 9s61.668 17.333 89 34 51.334 39.5 72 68.5S759.334 3.667 770 49zm40 298.997c14.668 14 28 30.33 40 48.998l54 232c-23.332 36-46 59.833-68 71.5s-44 20.167-66 25.5-45.332 8-70 8c-36 0-70.332-7.167-103-21.5s-61.166-33.666-85.5-58-43.832-53-58.5-86-22-68.5-22-106.5c0-32 5-60 15-84s23.668-44 41-60 37.334-28.166 60-36.5 47-12.5 73-12.5c22 0 44.168 2.834 66.5 8.5s44 14.335 65 26.002 40.5 26.5 58.5 44.5z"/><glyph glyph-name="h" unicode="h" horiz-adv-x="1370" d="M893 557c5.333 25.333 6.83 48.5 4.496 69.5s-7.666 39-16 54S861.832 707 847.5 715s-30.5 12-48.5 12c-34 0-76-13-126-39-26.667-14-54.334-31.666-83-53l-146-635h-350l296 1282h-187l63 274h537l-140-604 1 1c30 23.334 61 43.5 93 60.5s65 30.168 99 39.5 69 14 105 14c58 0 108.832-9.832 152.5-29.5s78.333-48 104-85 41.834-81.832 48.5-134.5 2.335-112.333-12.998-179l-84-365h191L1296 0H764z"/><glyph glyph-name="i" unicode="i" horiz-adv-x="778" d="M207 1036h532L563 274h191L690 0H158l176 762H143zm227 334c0 24.667 4.5 47.834 13.5 69.5S469 1480 485 1496s34.833 28.668 56.5 38 45.167 14 70.5 14c24 0 46.667-4.666 68-14s40-22 56-38 28.667-34.832 38-56.5 14-44.833 14-69.5-4.667-47.834-14-69.5-22-40.5-38-56.5-34.667-28.668-56-38-44-14-68-14c-25.333 0-48.833 4.666-70.5 14s-40.5 22-56.5 38-28.5 34.832-37.5 56.5-13.5 44.833-13.5 69.5z"/><glyph glyph-name="j" unicode="j" horiz-adv-x="707" d="M176 1036h569L506-2c-19.333-84-46-155.5-80-214.5s-75.167-107.333-123.5-145-103.833-65-166.5-82S4-469-72-469l39 264c22 0 43.333 3.667 64 11s39.667 18.333 57 33 32.5 32.667 45.5 54S156-61 162-33l184 795H113zm238 334c0 24.667 4.5 47.834 13.5 69.5S449 1480 465 1496s34.833 28.668 56.5 38 45.167 14 70.5 14c24 0 46.667-4.666 68-14s40-22 56-38 28.667-34.832 38-56.5 14-44.833 14-69.5-4.667-47.834-14-69.5-22-40.5-38-56.5-34.667-28.668-56-38-44-14-68-14c-25.333 0-48.833 4.666-70.5 14s-40.5 22-56.5 38-28.5 34.832-37.5 56.5-13.5 44.833-13.5 69.5z"/><glyph glyph-name="k" unicode="k" horiz-adv-x="1311" d="M262 1556h539L599 682h114l159 169 43 185h457l-63-274h-140L934 539l135-265h156L1161 0H860L664 406H535L442 0H102l296 1282H199z"/><glyph glyph-name="l" unicode="l" horiz-adv-x="729" d="M262 1556h539L505 274h189L631 0H102l296 1282H199z"/><glyph glyph-name="m" unicode="m" horiz-adv-x="2083" d="M207 1036l517.995-.002-19-93c37.333 28.667 72 51 104 67s65 28.5 99 37.5 69 13.5 105 13.5c88 0 159-22 213-66 35.333-28.667 61-64.667 77-108 52 50.667 107.667 91.667 167 123 64 34 132 51 204 51 58 0 108.833-9.667 152.5-29s78.5-47 104.5-83 42.333-80.167 49-132.5 2.334-111.5-13-177.5l-84-365h189l-64-274h-530l129 557c5.334 25.333 6.834 48.5 4.5 69.5s-7.665 39-15.998 54-19.666 26.5-34 34.5-30.832 12-49.5 12c-34 0-76-13-126-39-25.332-13.333-52.332-30.666-81-52l-147-636h-350l129 557c6 25.334 7.834 48.5 5.5 69.5s-7.665 39-15.998 54-19.667 26.5-34 34.5-30.833 12-49.5 12c-34 0-76-13-126-39-26-13.332-53.333-30.665-82-51.998L489 0H139l176 762H143z"/><glyph glyph-name="n" unicode="n" horiz-adv-x="1421" d="M207 1036h525.998l-15-74-1-10c30 22.666 61 42 93 58s65 28.5 99 37.5 69 13.5 105 13.5c58 0 108.667-9.668 152-29s78-47 104-83 42.5-80.168 49.5-132.5 2.833-111.5-12.5-177.5l-85-365h189l-63-274h-531l129 557c6 25.332 7.833 48.5 5.5 69.5s-7.666 39-16 54S915.834 707 901.5 715s-30.833 12-49.5 12c-34 0-76-13-126-39-26-13.334-53-30.667-81-52L498 0H147l176 762H143z"/><glyph glyph-name="o" unicode="o" d="M102 436c0 95.333 17.166 181.833 51.5 259.5s80.5 144 138.5 199S417.165 992 493.5 1022s156.832 45 241.5 45c65.332 0 126.5-12 183.5-36s106.5-56.833 148.5-98.5 75-90.667 99-147 36-116.833 36-181.5c0-91.333-16.168-175.333-48.5-252s-76.667-143-133-199-123-99.667-200-131S660.333-25 571-25c-67.333 0-129.5 12.167-186.5 36.5S278 68.833 236 110.5 161.167 201 137.5 257 102 372.667 102 436zm326 37c0-29.333 4.327-56.163 12.994-80.496s20.834-45.333 36.5-63 34.335-31.334 56.002-41 45.167-14.5 70.5-14.5c34.667 0 68.334 7.5 101 22.5s61.835 35.666 87.502 62 46.167 57.332 61.5 93 23 74.166 23 115.5c0 34-4.833 63.5-14.5 88.5s-22.5 45.832-38.5 62.5-34.667 29.166-56 37.5-44 12.5-68 12.5c-38 0-73.5-7.834-106.5-23.5s-61.667-36.835-86-63.502-43.666-57.834-58-93.5S428 513.666 428 473z"/><glyph glyph-name="p" unicode="p" horiz-adv-x="1366" d="M203 1036h520.002l-11-73c24.667 26.666 57.667 49.333 99 68 44 20 95.333 30 154 30 56 0 110-9.833 162-29.5s98-48.667 138-87 72-85.833 96-142.5 36-122 36-196c0-64-8.333-123.833-25-179.5s-39.667-106.5-69-152.5-64.166-87-104.5-123-84.332-66.333-132-91-98-43.5-151-56.5S808.67-16 754.003-16c-24.666 0-49.333 2-74 6s-48.334 9.5-71 16.5S565.666 21.667 547 31c-17.333 8-32 16.667-44 26l-59-254h201l-63-274H41L327 762H139zm473.002-364c-15.333-14.668-29.334-31.666-42-51l-51-220c6.666-15.332 15.333-29 26-41 14.667-16 31.667-29.332 51-40s40.333-18.833 63-24.5 45.334-8.5 68-8.5c36 0 70.168 7.167 102.5 21.5s60.667 33.666 85 58 43.833 53 58.5 86 22 68.5 22 106.5c0 32-5 60-15 84s-23.667 44-41 60-37.333 28.166-60 36.5-47 12.5-73 12.5c-22 0-44.5-2.834-67.5-8.5s-45.167-14.5-66.5-26.5-41.333-27-60-45z"/><glyph glyph-name="q" unicode="q" horiz-adv-x="1317" d="M793 80c-24-26.667-57-48.998-99-66.998-43.333-19.333-94.333-29-153-29-54 0-106.833 9.667-158.5 29s-97.667 48.166-138 86.5-73 85.832-98 142.5S109 364 109 438c0 64 8.167 123.832 24.5 179.5s39.166 106.666 68.5 153S266.164 858 306.497 894s84.333 66.332 132 91 98 43.5 151 56.5 107.167 19.5 162.5 19.5c22.667 0 46.334-2 71-6s48.335-9.5 71.002-16.5 43.667-15.168 63-24.5c18-8.668 33.333-18.335 46-29.002l15 51h336L1069-197h182l-63-274H666zm36 292.002c16 15.333 30.333 32.996 43 52.996l51 218c-8 15.333-17.667 29.333-29 42-14 16-30.5 29.333-49.5 40s-39.667 18.834-62 24.5-44.833 8.5-67.5 8.5c-36 0-70.333-7.166-103-21.5s-61.167-33.665-85.5-57.998-43.833-53.166-58.5-86.5-22-69-22-107c0-32 5-60 15-84s23.667-44 41-60 37.333-28 60-36 47-12 73-12c22 0 44.5 2.834 67.5 8.5s45.167 14.335 66.5 26.002 41.333 26.5 60 44.5z"/><glyph glyph-name="r" unicode="r" horiz-adv-x="1145" d="M1153 633l-326-.002 25 104c-22.667 0-43.5-2.333-62.5-7s-37.333-11.667-55-21-34.834-21-51.5-35c-11.334-9.333-22.667-19.666-34-31l-86-369h217L717 0H158l176 762H143l64 274h530l-20-90c27.333 24.668 60 45.335 98 62.002 42 18.667 91.333 28 148 28h284z"/><glyph glyph-name="s" unicode="s" horiz-adv-x="1018" d="M722 792c-27.333 14-62.664 21-105.997 21-18 0-35.167-1.5-51.5-4.5s-30.5-7.666-42.5-14-21.5-14.332-28.5-24-10.5-20.833-10.5-33.5c0-10 4.167-20.333 12.5-31s24.166-18.667 47.5-24l164-35c51.332-11.333 95-27.333 131-48s65.332-44.334 88-71 39.166-55.168 49.5-85.5 15.5-60.5 15.5-90.5c0-68.668-14-127.168-42-175.5S884.168 88.665 838.502 58 741.334 4.83 684.002-9.5 568.668-31 510.002-31c-98 0-176 13.332-234 40-32 15.332-58.668 34.332-80 57h-165l63 274h299c-4.668-28.668-5.168-49.5-1.5-62.5s11.166-24.668 22.5-35S439.667 224.332 457 219s37-8 59-8c46 0 82.5 8.333 109.5 25s40.5 39 40.5 67c0 16.667-6 31-18 43s-34 22.333-66 31l-131 33c-47.332 12-88.832 28.833-124.5 50.5S261 507 237 535s-42.166 58.5-54.5 91.5S164 693 164 727c0 56 12.5 105.333 37.5 148s58.834 78.167 101.5 106.5 91.668 49.666 147 64 113.667 21.5 175 21.5c44 0 84.5-3.834 121.5-11.5s69.833-18.168 98.5-31.5c16.667-7.334 31.667-15 45-23h210l-64-274H766c-3.333 30.666-18 52.333-44 65z"/><glyph glyph-name="t" unicode="t" horiz-adv-x="890" d="M145 1036h193l59 248 383 164-98-412h190l-63-274H617l-87-371c-10-37.334-14.333-67-13-89s8.5-37.834 21.5-47.5S566.667 240 584 240c14 0 29.167 1.332 45.5 4s33.833 6.666 52.5 12l4-229c-21.333-8-42.333-15.334-63-22S580.5-7.17 557.5-11.5s-47.333-7.667-73-10S431-25 401-25c-48 0-90.167 5.5-126.5 16.5s-65 29.5-86 55.5-33.667 60.833-38 104.5S152 249.667 168 315l105 447H82z"/><glyph glyph-name="u" unicode="u" horiz-adv-x="1356" d="M846 1036h477.002l-177-762h191l-63-274h-500l19 81c-20.667-16.667-42.334-31.334-65-44C699.333 21 668 8.83 634 .5S562.667-12 522-12c-68 0-129.168 13-183.5 39S246 86.83 224 128.5s-35.5 86.833-40.5 135.5.832 102.667 17.5 162l77 336H111l63 274h488L526 451c-6.668-28.667-8-54.5-4-77.5s12.332-42.667 25-59 29.166-28.833 49.5-37.5 43.5-13 69.5-13c21.332 0 42.665 3.667 63.998 11s41.5 17.5 60.5 30.5S828 335 846 355l94 407H782z"/><glyph glyph-name="v" unicode="v" horiz-adv-x="1133" d="M104 1036h512l-63-274h-81l69-421 258 421h-88l63 274h512l-63-274h-96L635 0H297L156 762H41z"/><glyph glyph-name="w" unicode="w" horiz-adv-x="1780" d="M94 1036h512l-63-274h-67l24-316 340 590h334l61-630 205 356h-92l63 274h512l-63-274h-96L1305 0H969l-66 614h-4L539 0H215l-82 762H31z"/><glyph glyph-name="x" unicode="x" horiz-adv-x="1237" d="M678 274h73l-97 118-157-118h74L508 0H10l64 274h75l328 264-175 224H180l64 274h512l-64-274h-80l89-104 136 104h-63l64 274h512l-64-274h-101L880 516l189-242h107L1112 0H614z"/><glyph glyph-name="y" unicode="y" horiz-adv-x="1126" d="M106 1036h512l-63-274h-77l66-393 246 393h-85l63 274h512l-63-274h-81L502-197h125l-74-274H-20l73 274h136L315 3 148 762H43z"/><glyph glyph-name="z" unicode="z" horiz-adv-x="1150" d="M62 164l574 606H430l-36-156H134l96 422h907l-41-180-578-588h222l43 183h260L940 0H25z"/><glyph glyph-name="braceleft" unicode="{" horiz-adv-x="817" d="M1117 1784l-75-327.998c-15.334-.667-29.334-1.667-42-3s-24.335-3.333-35.002-6c-15.333-4-28.5-9.333-39.5-16s-20.5-16-28.5-28-14.833-27-20.5-45-11.5-40-17.5-66l-86-370c-6-27.333-13.333-51.666-22-73s-23.167-43.665-43.5-66.998-50.5-43.333-90.5-60c17.333-10.667 33.333-25.334 48-44s22.334-44.335 23-77.002-3.332-65.667-12-99l-87-379c-6.666-30-10.5-54.667-11.5-74s2.334-34.666 10-46 20.5-19.5 38.5-24.5 42.668-8.166 74-9.5l-72-307c-68.666-5.332-134.333-8-197-8-16.667 0-32.5.668-47.5 2s-32.5 4-52.5 8-39.833 11.5-59.5 22.5-35.667 25.5-48 43.5-21.166 39.834-26.5 65.5-7.332 49.168-6 70.5 3.5 41.5 6.5 60.5 5.5 33.668 7.5 44 4.334 20.834 7 31.5l74 322c13.334 57.334 22 103.834 26 139.5s4.334 64.168 1 85.5-10.332 36.667-21 46-24.333 15.666-41 19-61 8.332-133 15l45 190c66.667 6 115.334 13.5 146 22.5s54.168 21.5 70.5 37.5 30.167 37.5 41.5 64.5 22 61.832 32 104.5l91 396 16 61.5c5.333 19.666 14 44.5 26 74.5s29.333 59.666 52 89 48.334 53.165 77 71.498 60.5 31.5 95.5 39.5 73.168 12 114.5 12c62.668 0 110.335-1.333 143.002-4z"/><glyph glyph-name="bar" unicode="|" horiz-adv-x="631" d="M522 1729h273L334-270H61z"/><glyph glyph-name="braceright" unicode="}" horiz-adv-x="938" d="M-27-10c15.333.667 29.334 1.665 42 2.998s25.5 3.666 38.5 7 25 8.332 36 15 20.5 16 28.5 28 14.834 27 20.5 45 11.5 40 17.5 66l86 370c18.668 60 42.835 105.832 72.502 137.5s57.5 52.5 83.5 62.5c-43.333 36.666-66.5 71.833-69.5 105.5s-1.833 61.834 3.5 84.5l94 409c6.667 30 10.5 54.668 11.5 74s-2.333 34.667-10 46-20.5 19.5-38.5 24.5-42.667 8.167-74 9.5l72 307 51.5 4c34.333 2.667 82.833 4 145.5 4 46.667-2.667 80-6 100-10s39.833-11.5 59.5-22.5 35.667-25.5 48-43.5 21.166-39.833 26.5-65.5 6.832-53.834 4.5-84.5-8.834-71.335-19.5-122.002l-74-322c-13.334-57.333-22-103.833-26-139.5s-4.334-64.167-1-85.5 10.332-36.666 21-46 24.333-15.665 41-18.998 61-8.333 133-15l-45-190c-66.667-6-116.834-13.667-150.5-23s-57.168-21.833-70.5-37.5-25.667-37-37-64-22-61.833-32-104.5l-90-418c-4.667-20-15.334-53.333-32-100s-36.335-83.667-59.002-111-48.5-49.666-77.5-67-61.333-29.665-97-36.998S132-346 90-346c-62.667 0-126.667 2.667-192 8z"/><glyph glyph-name="asciitilde" unicode="~" horiz-adv-x="905" d="M-8 512c0 20 1.665 42 4.998 66s8.833 48.167 16.5 72.5 18.167 47.833 31.5 70.5 30 42.834 50 60.5 44 31.835 72 42.502 60.333 16 97 16c16 0 34.5-3.667 55.5-11s43.167-16.333 66.5-27 47.333-22.334 72-35 48.5-24.335 71.5-35.002 44.333-19.334 64-26 36.834-10 51.5-10c31.334 0 54.5 9.166 69.5 27.5S739.667 771 745 811l185-41c0-30-4.166-63.5-12.5-100.5S894 597.665 872 565s-52-60.668-90-84-87-35-147-35c-36.666 0-72.666 7.832-108 23.5s-69.165 32.333-101.498 50L335 568c-28 14.667-53 22-75 22-12.667 0-24.667-1.833-36-5.5s-21.333-10-30-19-15.667-20.833-21-35.5-8.333-33-9-55z"/><glyph glyph-name="NOBREAKSPACE" horiz-adv-x="492"/><glyph glyph-name="exclamdown" unicode="¡" horiz-adv-x="948" d="M559-543H184L471 518h293zM846 889c0-24.667-4.667-47.834-14-69.5S810 779 794 763s-34.833-28.668-56.5-38-45.167-14-70.5-14c-24 0-46.667 4.666-68 14s-40 22-56 38-28.667 34.832-38 56.5-14 44.833-14 69.5 4.667 47.834 14 69.5 22 40.5 38 56.5 34.667 28.668 56 38 44 14 68 14c25.333 0 48.833-4.666 70.5-14s40.5-22 56.5-38 28.667-34.832 38-56.5 14-44.833 14-69.5z"/><glyph glyph-name="cent" unicode="¢" horiz-adv-x="1171" d="M295-242l61.002 266c-38.667 18.668-73.667 42.335-105 71.002s-58 60.667-80 96-39 73.666-51 115-18 84.665-18 129.998c0 81.333 12.667 156.333 38 225s60 129.5 104 182.5 95.833 97.167 155.5 132.5 123.834 60.666 192.5 76l65 277h332l-70-299c50-22 94.668-51.334 134-88h192l-63-274h-330c-10.666 28-30.333 50.666-59 68s-59.667 26-93 26c-37.333 0-72.5-7.5-105.5-22.5s-61.833-35.668-86.5-62-44.167-57-58.5-92-21.5-72.5-21.5-112.5c0-30 4.833-56.834 14.5-80.5s22.5-44 38.5-61 34.667-30 56-39 43.666-13.5 67-13.5c55.332 0 101.5 12.832 138.5 38.5S810 376.665 834 418l272-148c-18-35.334-41-68.834-69-100.5s-60.334-60-97-85S863.166 38.33 819.5 21 729-8.668 679-16l-52-226H295z"/><glyph glyph-name="sterling" unicode="£" horiz-adv-x="1180" d="M209 829h99.004l-1 45c0 96.667 14.333 181.5 43 254.5s67.167 134 115.5 183 104 85.667 167 110 129.167 36.5 198.5 36.5c71.333 0 134.166-9.167 188.5-27.5s99-45.833 134-82.5 59.666-82.5 74-137.5 16.832-119.167 7.5-192.5l-326-12c5.332 26.667 6.5 49.834 3.5 69.5s-8.834 36.168-17.5 49.5-19.835 23.334-33.502 30-28.5 10-44.5 10c-19.333 0-38.166-3.666-56.5-11s-34.5-19-48.5-35-25.166-37-33.5-63-12.5-57.666-12.5-95c2-63.332 4.334-107.332 7-132h267l-57-245h-171c-.666-50.666-10.333-103.333-29-158s-45-105.334-79-152h420l-63-274h-900l64 274h161c17.333 36 31.666 75.332 43 118s16.165 75.833 14.498 99.5S339 546 335 584H152z"/><glyph glyph-name="currency" unicode="¤" horiz-adv-x="1497" d="M270 662c0 67.333 11.332 131.33 34 191.997s54 116.334 94 167l-142 208 303 229 149-217c34.666 12.668 70.166 22.335 106.5 29.002s73.5 10 111.5 10 74.166-4.5 108.5-13.5 66.832-21.5 97.5-37.5l254 223 213-248-253-221c9.332-25.334 16.665-51.667 21.998-79s8-55 8-83c0-68-11.667-132.5-35-193.5s-55.333-117.167-96-168.5l133-191-303-227-140 199c-34.667-12-70-21.167-106-27.5s-72.667-9.5-110-9.5c-38.667 0-75.667 4.5-111 13.5s-68.666 22.167-100 39.5L274 53 61 299l236 206c-9.332 24.667-16.165 50-20.498 76s-6.5 53-6.5 81zm293 31.997c0-28.667 4.834-55.334 14.5-80s23.168-46 40.5-64 38.5-32.168 63.5-42.5 52.5-15.5 82.5-15.5c40 0 79 8 117 24s71.834 37.666 101.5 65 53.5 59 71.5 95 27 74.332 27 115c0 28.666-4.832 55.5-14.5 80.5s-23.333 46.666-41 65-38.834 32.665-63.5 42.998-51.668 15.5-81 15.5c-40.668 0-80-8.167-118-24.5s-71.834-38.166-101.5-65.5S608 845.83 590 809.498s-27-74.833-27-115.5z"/><glyph glyph-name="yen" unicode="¥" horiz-adv-x="1511" d="M264 1516h613l-64-275H700l139-317 282 317h-81l64 275h612l-63-275h-111l-323-317h145l-57-248H959l-16-72h347l-57-248H886l-19-82h182L985 0H309l64 274h155l19 82H184l58 248h362l15 72H258l57 248h173l-161 317H201z"/><glyph glyph-name="brokenbar" unicode="¦" horiz-adv-x="647" d="M423 1729h273L521 979H249zM135 481h272L235-268H-37z"/><glyph glyph-name="section" unicode="§" horiz-adv-x="1223" d="M2 72l368.996.005-18-77-3-19c-2-12.667-.833-29 3.5-49s13-37 26-51 30.667-24.833 53-32.5 49.5-11.5 81.5-11.5c29.333 0 55.333 3.833 78 11.5s41.834 18 57.5 31 27.668 28.333 36 46 12.5 36.5 12.5 56.5c0 16.667-3.832 30.5-11.5 41.5s-17.666 20.5-30 28.5-26 14.833-41 20.5l-44.5 16.5-196 68c-34 12-64.832 28.833-92.5 50.5s-51.166 47.667-70.5 78-34.165 64.833-44.498 103.5-15.5 80.667-15.5 126c0 82 17.167 152.167 51.5 210.5s80.833 106.166 139.5 143.5c-20 30-35.667 64.166-47 102.5s-17 81.5-17 129.5c0 73.332 14.833 138.165 44.5 194.498s70.167 103.5 121.5 141.5 111.833 66.833 181.5 86.5 144.167 29.5 223.5 29.5c64.667 0 122.834-7.333 174.5-22s95.835-33.834 132.502-57.5 65.5-50.668 86.5-81 33.5-60.834 37.5-91.5h108l-64-274H954l18 78c2.667 24.666 1.167 47-4.5 67s-15.167 37-28.5 51-30 24.832-50 32.5-42.667 11.5-68 11.5c-23.333 0-45.833-2.5-67.5-7.5s-40.667-12.834-57-23.5-29.333-24.335-39-41.002-14.5-36.666-14.5-60c0-20 4.833-36.166 14.5-48.5s22-22.332 37-30 31.833-14.166 50.5-19.5 36.667-11.332 54-18l143-52c44.667-16.666 83.334-33.666 116-51s59.5-38.5 80.5-63.5 36.5-55.332 46.5-91 15-80.166 15-133.5c0-35.332-4.332-69.832-13-103.5s-21-66-37-97-35.5-60.166-58.5-87.5-48.832-52.665-77.5-75.998c19.334-28 34.334-61.167 45-99.5s16-79.833 16-124.5c0-74-15-141.833-45-203.5s-71.5-114.834-124.5-159.5S789.67-407.334 717-432s-151.333-37-236-37c-55.333 0-107.5 6-156.5 18S232-421.5 194-398.5s-69.5 50.833-94.5 83.5S58-245 50-203H-61zm515.996 475.005c0-16 3.17-29.5 9.502-40.5s14.5-20.168 24.5-27.5 21.5-13.667 34.5-19 26.5-10.333 40.5-15l71-26c20 4 37.833 10.5 53.5 19.5s28.667 19.833 39 32.5 18.333 26.5 24 41.5 8.5 31.167 8.5 48.5c0 18.667-4.667 34.167-14 46.5s-24 23.833-44 34.5l-92 36c-19.333-.667-38.333-3.5-57-8.5s-35.334-12.5-50-22.5-26.335-23.167-35.002-39.5-13-36.5-13-60.5z"/><glyph glyph-name="dieresis" unicode="¨" horiz-adv-x="940" d="M47 1343c0 24.667 4.5 47.834 13.5 69.5s21.5 40.668 37.5 57 34.833 29.167 56.5 38.5 45.167 14 70.5 14c24 0 46.667-4.667 68-14s40-22.166 56-38.5 28.667-35.332 38-57 14-44.833 14-69.5-4.667-47.834-14-69.5-22-40.5-38-56.5-34.667-28.668-56-38-44-14-68-14c-25.333 0-48.833 4.666-70.5 14s-40.5 22-56.5 38-28.5 34.832-37.5 56.5S47 1318.332 47 1343zm479 0c0 24.667 4.667 47.834 14 69.5s22 40.668 38 57 34.833 29.167 56.5 38.5 45.167 14 70.5 14c24 0 46.667-4.667 68-14s40-22.166 56-38.5 28.667-35.332 38-57 14-44.833 14-69.5-4.667-47.834-14-69.5-22-40.5-38-56.5-34.667-28.668-56-38-44-14-68-14c-25.333 0-48.833 4.666-70.5 14s-40.5 22-56.5 38-28.667 34.832-38 56.5-14 44.833-14 69.5z"/><glyph glyph-name="copyright" unicode="©" horiz-adv-x="1919" d="M102 831c0 78.667 10.167 154.5 30.5 227.5s49 141.167 86 204.5S300 1384 352 1436s109.667 96.5 173 133.5 131.5 65.667 204.5 86S878.667 1686 958 1686c78.667 0 154.667-10.167 228-30.5s141.833-49 205.5-86 121.667-81.5 174-133.5 97.166-109.667 134.5-173 66.165-131.5 86.498-204.5 30.5-148.833 30.5-227.5c0-79.333-10.167-155.5-30.5-228.5s-49.166-141.167-86.5-204.5-82.165-121-134.498-173-110.333-96.5-174-133.5-132.167-65.667-205.5-86S1036.667-25 958-25c-79.333 0-155.5 10.167-228.5 30.5s-141.167 49-204.5 86S404 173 352 225s-96.5 109.667-133.5 173-65.667 131.5-86 204.5S102 751.667 102 831zm228 0c0-58.667 7.33-115 21.998-169s35.5-104.333 62.5-151 59.5-89.167 97.5-127.5 80.333-71 127-98 96.834-47.833 150.5-62.5S899.334 201 958 201s115 7.333 169 22 104.167 35.5 150.5 62.5 88.5 59.667 126.5 98 70.5 80.833 97.5 127.5 47.833 97 62.5 151 22 110.333 22 169-7.333 115-22 169-35.5 104.167-62.5 150.5-59.5 88.666-97.5 127-80.167 71-126.5 98-96.5 47.832-150.5 62.5-110.333 22-169 22c-58 0-114-7.334-168-22s-104.333-35.5-151-62.5-89-59.668-127-98-70.5-80.667-97.5-127S366.667 1054 352 1000s-22-110.333-22-169zm818 142c-21.333 28-47.5 49.502-78.5 64.502s-64.5 22.5-100.5 22.5c-32.668 0-62.668-5.833-90-17.5s-51.167-28-71.5-49-36.5-45.5-48.5-73.5-18-57.667-18-89 6-61 18-89 28.167-52.333 48.5-73 44.166-36.834 71.5-48.5S936.33 603 969 603c35.332 0 68.332 6.832 99 20.5s57.666 34.5 81 62.5l190-191c-46.668-49.334-101.5-88.5-164.5-117.5S1043 334 969 334c-68.668 0-133.168 13-193.5 39s-113 61.5-158 106.5S537 577 511 637s-39 124.666-39 194 13 134.165 39 194.498 61.5 112.833 106.5 157.5 97.666 80 158 106 124.832 39 193.5 39c74.666 0 143.833-14.333 207.5-43s118.5-67.667 164.5-117z"/><glyph glyph-name="ordfeminine" unicode="ª" horiz-adv-x="1032" d="M644 891c-26.667-19.333-56.166-35.167-88.5-47.5S486 825 444 825c-38 0-71.666 6-101 18s-54.332 27.833-75 47.5-36.333 42.334-47 68-16 52.168-16 79.5c0 38 8.5 72.168 25.5 102.5s40.833 56.167 71.5 77.5 67.167 37.666 109.5 49 88.833 17 139.5 17c34 0 65.833-1.5 95.5-4.5s56.834-6.834 81.5-11.5c0 .666.168 1.333.5 2s.5 1.334.5 2c6.668 32.668-2.332 57.5-27 74.5s-60 25.5-106 25.5c-42 0-81.166-3.832-117.5-11.5S405 1340.335 367 1323l-39 137c57.334 35.334 115.167 62 173.5 80s118.5 27 180.5 27c32.667 0 64.167-2.832 94.5-8.5s57.833-14.5 82.5-26.5 46-27.5 64-46.5 31.333-41.5 40-67.5c3.333-10.666 5.833-21.666 7.5-33s2.5-23.665 2.5-36.998c0-18.667-1.5-39.334-4.5-62s-7.167-46.835-12.5-72.502-11.333-52-18-79l-21-81.5h95l-47-211H633zm35 151l17 80H554c-16 0-31.5-.833-46.5-2.5s-28-4.667-39-9-19.832-10.833-26.5-19.5-10-20-10-34c0-13.333 6.334-26.333 19-39s34.335-19 65.002-19c31.333 0 60.666 3.5 88 10.5s52.332 17.833 75 32.5z"/><glyph glyph-name="guillemotleft" unicode="«" horiz-adv-x="1069" d="M796 545l167-389H739L563 535l19 73 329 361h240zm-440 0l166-389H299L123 535l18 73 330 361h240z"/><glyph glyph-name="logicalnot" unicode="¬" horiz-adv-x="1821" d="M1780 1036l-183-788h-286l119 514H242l63 274h1475z"/><glyph glyph-name="SOFTHYPHEN" unicode="­" horiz-adv-x="0"/><glyph glyph-name="registered" unicode="®" horiz-adv-x="2048" d="M528 585h95v497h-91v211h532c52.667 0 98.667-8.334 138-25s72.166-38.168 98.5-64.5 46.165-55.5 59.498-87.5 20-63 20-93c0-34.668-5.833-66.668-17.5-96s-30.167-55.667-55.5-79-54-41.333-86-54c23.333-9.333 42-23 56-41s25-47.333 33-88l15-80h78V373h-328l-15 194c-3.333 42-8.166 70.333-14.5 85s-16.165 26-29.498 34-36.333 12-69 12h-66V585h79V373H528v212zm353 497V900h66c46 0 82.333 6.5 109 19.5s40 36.168 40 69.5c0 29.334-12.667 52.167-38 68.5s-59.333 24.5-102 24.5h-75zM102 831c0 78.667 10.167 154.5 30.5 227.5s49 141.167 86 204.5S300 1384 352 1436s109.667 96.5 173 133.5 131.5 65.667 204.5 86S878.667 1686 958 1686c78.667 0 154.667-10.167 228-30.5s141.833-49 205.5-86 121.667-81.5 174-133.5 97.166-109.667 134.5-173 66.165-131.5 86.498-204.5 30.5-148.833 30.5-227.5c0-79.333-10.167-155.5-30.5-228.5s-49.166-141.167-86.5-204.5-82.165-121-134.498-173-110.333-96.5-174-133.5-132.167-65.667-205.5-86S1036.667-25 958-25c-79.333 0-155.5 10.167-228.5 30.5s-141.167 49-204.5 86S404 173 352 225s-96.5 109.667-133.5 173-65.667 131.5-86 204.5S102 751.667 102 831zm215 0c0-60 7.5-117.5 22.5-172.5s36.332-106.333 64-154 60.833-91 99.5-130 81.834-72.333 129.5-100 98.835-49 153.502-64 112-22.5 172-22.5 117.5 7.5 172.5 22.5 106.167 36.333 153.5 64 90.333 61 129 100 71.834 82.333 99.5 130 49 99 64 154 22.5 112.5 22.5 172.5-7.5 117.5-22.5 172.5-36.332 106.167-64 153.5-60.833 90.5-99.5 129.5-81.667 72.333-129 100-98.5 49-153.5 64-112.5 22.5-172.5 22.5c-59.333 0-116.5-7.5-171.5-22.5s-106.333-36.333-154-64-90.834-61-129.5-100-71.835-82.167-99.502-129.5-49-98.5-64-153.5S317 891 317 831z"/><glyph glyph-name="macron" unicode="¯" horiz-adv-x="831" d="M750 1176H62l43 215h688z"/><glyph glyph-name="degree" unicode="°" horiz-adv-x="815" d="M410 1706c42.667 0 82.67-7.83 120.002-23.497s69.666-37.334 97-65 48.832-60.5 64.5-98.5 23.5-79.334 23.5-124c0-43.334-7.834-83.834-23.5-121.5s-37.168-70.668-64.5-99-59.667-50.667-97-67-77.333-24.5-120-24.5c-43.333 0-83.833 8.167-121.5 24.5s-70.334 38.666-98 67-49.335 61.665-65.002 99.998S102 1353.668 102 1397c0 42.667 8 82.667 24 120s38 70 66 98 60.667 50.167 98 66.5 77.333 24.5 120 24.5zm-151.998-317c0-19.333 4-38 12-56s18.667-33.833 32-47.5 28.666-24.5 46-32.5 35.665-12 54.998-12c22.667 0 43.5 3.667 62.5 11s35.167 17.666 48.5 31 23.833 29.332 31.5 48 11.5 39.333 11.5 62-3.667 43.667-11 63-17.666 35.666-31 49-29.165 23.832-47.498 31.5-38.166 11.5-59.5 11.5-41-4-59-12-33.832-19.168-47.5-33.5-24.333-31.167-32-50.5-11.5-40.333-11.5-63z"/><glyph glyph-name="plusminus" unicode="±" horiz-adv-x="1298" d="M219 957h363l63 296h297l-63-296h364l-67-297H811l-71-291H443l71 291H152zM64 274h1024L1025 0H1z"/><glyph glyph-name="twosuperior" unicode="²" horiz-adv-x="860" d="M250 1034l314.997 201c16.667 10.668 30.334 21 41 31s18.835 19.168 24.502 27.5 9.5 15.834 11.5 22.5 3 12.335 3 17.002c0 9.333-3.5 17.166-10.5 23.5s-17.834 9.5-32.5 9.5c-13.334 0-24.334-2.5-33-7.5s-15.668-11-21-18-9.334-14-12-21-4.668-12.5-6-16.5H305c10 47.332 26.5 88.332 49.5 123s50.5 63.333 82.5 86 67.5 39.5 106.5 50.5 79.832 16.5 122.5 16.5c28.666 0 57.166-3.833 85.5-11.5s53.5-19.334 75.5-35 39.832-35.5 53.5-59.5 20.5-52 20.5-84c0-26-3.168-48.834-9.5-68.5S876.332 1283 865 1267s-25.5-30.834-42.5-44.5-35.833-27.835-56.5-42.502l-190-133h249l-47-205H205z"/><glyph glyph-name="threesuperior" unicode="³" horiz-adv-x="797" d="M580 1343c0 10.667-3.008 19.83-9.008 27.498s-16 11.5-30 11.5c-19.333 0-36.666-5.167-52-15.5s-26-28.833-32-55.5h-219c6.668 38 19.5 73.5 38.5 106.5s43.334 61.667 73 86 64.335 43.333 104.002 57 83.834 20.5 132.5 20.5c32.668 0 63.168-5.167 91.5-15.5s52.834-24.5 73.5-42.5 36.835-39.333 48.502-64 17.5-51 17.5-79c0-19.333-2.5-37-7.5-53s-11.5-30.667-19.5-44-16.667-25.166-26-35.5-18.333-19.165-27-26.498c10-10.667 18-26 24-46s9-40.333 9-61c0-35.333-9.667-69.833-29-103.5s-45.5-63.5-78.5-89.5-71.167-47-114.5-63-88.666-24-136-24c-49.332 0-91.165 6.833-125.498 20.5s-61.5 32.5-81.5 56.5-32.667 52.333-38 85-3.666 68 5 106h219c-2-10-2.5-19.833-1.5-29.5s3.834-18.334 8.5-26 11.168-14 19.5-19 18.834-7.5 31.5-7.5 24.335 2.5 35.002 7.5 20 11.332 28 19 14.167 15.833 18.5 24.5 6.5 17 6.5 25c0 10-4 19.333-12 28s-23.333 13-46 13H377l31 133h112c12 0 21.833 2.833 29.5 8.5s13.667 12.334 18 20 7.5 15.668 9.5 24 3 15.167 3 20.5z"/><glyph glyph-name="acute" unicode="´" horiz-adv-x="680" d="M256 1489h326v-25l-306-286H41z"/><glyph glyph-name="mu" unicode="µ" horiz-adv-x="1348" d="M0-471l348 1507h320L528 435c-4-26.667-3.5-50.5 1.5-71.5s13.834-38.833 26.5-53.5 28.835-26 48.502-34 42.167-12 67.5-12c16 0 32.167 2.167 48.5 6.5s32.166 10.5 47.5 18.5 30.165 17.5 44.498 28.5S840 341 852 355l158 681h319l-176-762h162L1251 0H780l19 81c-18-14.667-36.833-27.834-56.5-39.5S701.833 20 679.5 12s-46-14-71-18-51.833-6-80.5-6c-17.333 0-34.5 1-51.5 3S443-4.335 427-1L319-471H0z"/><glyph glyph-name="paragraph" unicode="¶" horiz-adv-x="1446" d="M483 533c-40 12.667-76.833 30.165-110.5 52.498s-63 49.333-88 81-44.5 68.167-58.5 109.5-21 87-21 137c0 54.667 8.333 107.667 25 159s40.334 99.333 71 144 67.668 85.334 111 122 91.667 68.335 145 95.002 111 47.167 173 61.5 127.333 21.5 196 21.5h684l-64-275h-141L1034-362H741l371 1603H940L569-362H276z"/><glyph glyph-name="periodcentered" unicode="·" horiz-adv-x="539" d="M322 831c24 0 46.667-4.667 68-14s40-22 56-38 28.667-34.833 38-56.5 14-44.834 14-69.5-4.667-47.835-14-69.502-22-40.5-38-56.5-34.667-28.667-56-38-44-14-68-14c-25.333 0-48.833 4.667-70.5 14s-40.5 22-56.5 38-28.667 34.833-38 56.5-14 44.834-14 69.5 4.667 47.835 14 69.502 22 40.5 38 56.5 34.833 28.667 56.5 38 45.167 14 70.5 14z"/><glyph glyph-name="cedilla" unicode="¸" horiz-adv-x="705" d="M102-289c34.667 8 64.83 18.832 90.498 32.5s47.834 30.333 66.5 50 34.335 42.667 47.002 69S329.334-81 338-47l264-92c-19.332-46-43.332-87.167-72-123.5S468.5-330 431.5-356s-77.332-47.167-121-63.5S220.668-447 172-453z"/><glyph glyph-name="onesuperior" unicode="¹" horiz-adv-x="715" d="M229 1034h131l57 250-157-67 53 233 269 127h112l-125-543h121l-45-194H184z"/><glyph glyph-name="ordmasculine" unicode="º" horiz-adv-x="823" d="M651 1577c48.667 0 93.5-9 134.5-27s76.5-42 106.5-72 53.334-64.332 70-103 25-78.666 25-120c0-56-11.166-109.166-33.5-159.5s-53.332-94.165-93-131.498-86.666-67-141-89-113.832-33-178.5-33c-49.332 0-94.5 8.5-135.5 25.5s-76.332 40.167-106 69.5-52.833 63.666-69.5 103-25 81.665-25 126.998c0 58 11.167 112 33.5 162s53.5 93.333 93.5 130 87.167 65.5 141.5 86.5S587 1577 651 1577zm-82-508c24.668 0 47.668 4.67 69 14.002s40 21.666 56 37 28.5 33 37.5 53 13.5 40.666 13.5 62c0 16-2.832 31-8.5 45s-13.666 26-24 36-23 17.832-38 23.5-31.5 8.5-49.5 8.5c-24.666 0-48-4.334-70-13s-41.166-20.335-57.5-35.002-29.332-31.834-39-51.5S444 1208 444 1186c0-16.668 2.834-32.168 8.5-46.5s13.668-26.667 24-37 23.334-18.5 39-24.5 33.5-9 53.5-9z"/><glyph glyph-name="guillemotright" unicode="»" horiz-adv-x="1069" d="M386 579L229 969h224l176-379-19-74-329-360H41zm440 0L670 969h223l176-379-18-74-330-360H481z"/><glyph glyph-name="onequarter" unicode="¼" horiz-adv-x="2025" d="M286 1034h131l57 250-157-67 53 233 269 127h112l-125-543h121l-45-194H241zm1340 543h301L303-61H-4zM1137 348l377 416h215l-381-422h168l39 166h202l-39-166h107l-37-160h-106L1641 0h-203l41 182h-377z"/><glyph glyph-name="onehalf" unicode="½" horiz-adv-x="1964" d="M286 1034h131l57 250-157-67 53 233 269 127h112l-125-543h121l-45-194H241zm1340 543h301L303-61H-4zM1151 193l322 221c34 23.332 55.334 43.5 64 60.5s13 27.5 13 31.5c0 10.666-3.332 18.5-10 23.5s-17 7.5-31 7.5c-22.666 0-39.833-6.834-51.5-20.5S1438 488.33 1434 473h-226c11.333 48 28.166 89.332 50.5 124s49.665 63.333 81.998 86 67.833 39.5 106.5 50.5 79.334 16.5 122 16.5c30 0 59-3.5 87-10.5s52.834-18.333 74.5-34 39.335-35.5 53.002-59.5 20.5-53 20.5-87c0-27.333-3.667-50.5-11-69.5s-15.5-34.667-24.5-47-17.833-22-26.5-29l-18-14.5-243-174h250L1679 0h-573z"/><glyph glyph-name="threequarters" unicode="¾" horiz-adv-x="2025" d="M1667 1577h301L344-61H37zM1178 348l377 416h215l-381-422h168l39 166h202l-39-166h107l-37-160h-106L1682 0h-203l41 182h-377zm-594 951c0 10.667-3.008 19.83-9.008 27.498s-16 11.5-30 11.5c-19.333 0-36.666-5.167-52-15.5s-26-28.833-32-55.5h-219c6.668 38 19.5 73.5 38.5 106.5s43.334 61.667 73 86 64.335 43.333 104.002 57 83.834 20.5 132.5 20.5c32.668 0 63.168-5.167 91.5-15.5s52.834-24.5 73.5-42.5 36.835-39.333 48.502-64 17.5-51 17.5-79c0-19.333-2.5-37-7.5-53s-11.5-30.667-19.5-44-16.667-25.166-26-35.5-18.333-19.165-27-26.498c10-10.667 18-26 24-46s9-40.333 9-61c0-35.333-9.667-69.833-29-103.5s-45.5-63.5-78.5-89.5-71.167-47-114.5-63-88.666-24-136-24c-49.332 0-91.165 6.833-125.498 20.5s-61.5 32.5-81.5 56.5-32.667 52.333-38 85-3.666 68 5 106h219c-2-10-2.5-19.833-1.5-29.5s3.834-18.334 8.5-26 11.168-14 19.5-19 18.834-7.5 31.5-7.5 24.335 2.5 35.002 7.5 20 11.332 28 19 14.167 15.833 18.5 24.5 6.5 17 6.5 25c0 10-4 19.333-12 28s-23.333 13-46 13H381l31 133h112c12 0 21.833 2.833 29.5 8.5s13.667 12.334 18 20 7.5 15.668 9.5 24 3 15.167 3 20.5z"/><glyph glyph-name="questiondown" unicode="¿" horiz-adv-x="1044" d="M883 563c-8-42-17.495-78.997-28.495-110.997s-23.333-60.5-37-85.5-29.334-47.333-47-67-37.335-38.334-59.002-56-45.5-35.168-71.5-52.5l-85-56c-33.333-22-60.333-43.168-81-63.5s-36.667-40.167-48-59.5-19-38.5-23-57.5-6-38.5-6-58.5c0-16.667 2.667-31.834 8-45.5s12.5-25.335 21.5-35.002 19.667-17.166 32-22.5 25.5-8 39.5-8 28.833 2.334 44.5 7 30.5 13 44.5 25 26.833 28.668 38.5 50 20.834 48.667 27.5 82l330-33c-15.332-72-38.332-135-69-189s-68.333-99.167-113-135.5-95.667-63.666-153-82-120.333-27.5-189-27.5c-58.667 0-113.334 9.334-164 28S200.167-445.33 162.5-412s-67.333 73-89 119S41-197 41-143c0 40 3.167 78.334 9.5 115s18 72.168 35 106.5 40.667 67.5 71 99.5S226 241.335 274 272c25.333 16.668 49.166 31.668 71.5 45l62.5 38.5c19.332 12.334 37 25 53 38s30.5 27.668 43.5 44 24.332 34.667 34 55 17.833 43.833 24.5 70.5h320zm62.005 326.003c0-24.667-4.667-47.834-14-69.5s-22-40.5-38-56.5-34.833-28.668-56.5-38-45.167-14-70.5-14c-24 0-46.667 4.666-68 14s-40 22-56 38-28.667 34.832-38 56.5-14 44.833-14 69.5 4.667 47.834 14 69.5 22 40.5 38 56.5 34.667 28.668 56 38 44 14 68 14c25.333 0 48.833-4.666 70.5-14s40.5-22 56.5-38 28.667-34.832 38-56.5 14-44.833 14-69.5z"/><glyph glyph-name="Agrave" unicode="À" horiz-adv-x="1479" d="M907 274h84l-16 209H557L446 274h127L510 0h-612l63 274H89l689 1242h436l114-1242h192L1456 0H844zM711 772h243l-30 402zm223 886l-293 286v25h326l196-311H934z"/><glyph glyph-name="Aacute" unicode="Á" horiz-adv-x="1479" d="M907 274h84l-16 209H557L446 274h127L510 0h-612l63 274H89l689 1242h436l114-1242h192L1456 0H844zM711 772h243l-30 402zm323 1197h326v-25l-306-286H819z"/><glyph glyph-name="Acircumflex" unicode="Â" horiz-adv-x="1479" d="M907 274h84l-16 209H557L446 274h127L510 0h-612l63 274H89l689 1242h436l114-1242h192L1456 0H844zM711 772h243l-30 402zm-132 886l357 325h239l197-325h-248l-96 157-172-157H579z"/><glyph glyph-name="Atilde" unicode="Ã" horiz-adv-x="1479" d="M907 274h84l-16 209H557L446 274h127L510 0h-612l63 274H89l689 1242h436l114-1242h192L1456 0H844zM711 772h243l-30 402zm114 1187c28 0 55.002-4.832 81.002-14.5s51.5-20.333 76.5-32 49.333-22.334 73-32 47.167-14.5 70.5-14.5c28 0 52.833 5 74.5 15s41.167 27.666 58.5 53l158-70c-10-30-24.167-58-42.5-84s-39.5-48.834-63.5-68.5-50.333-35-79-46-58.667-16.5-90-16.5c-34.667 0-66 4.5-94 13.5s-54.5 19-79.5 30-49.5 21.166-73.5 30.5-49.333 14-76 14c-30 0-55.333-6.168-76-18.5s-37.667-27.167-51-44.5l-152 70c9.333 36 25.166 67.333 47.5 94s47.165 49 74.498 67 55.5 31.5 84.5 40.5 55.167 13.5 78.5 13.5z"/><glyph glyph-name="Adieresis" unicode="Ä" horiz-adv-x="1479" d="M907 274h84l-16 209H557L446 274h127L510 0h-612l63 274H89l689 1242h436l114-1242h192L1456 0H844zM711 772h243l-30 402zm-89 1049c0 24.667 4.5 47.834 13.5 69.5s21.5 40.668 37.5 57 34.833 29.167 56.5 38.5 45.167 14 70.5 14c24 0 46.667-4.667 68-14s40-22.166 56-38.5 28.667-35.332 38-57 14-44.833 14-69.5-4.667-47.834-14-69.5-22-40.5-38-56.5-34.667-28.668-56-38-44-14-68-14c-25.333 0-48.833 4.666-70.5 14s-40.5 22-56.5 38-28.5 34.832-37.5 56.5-13.5 44.833-13.5 69.5zm479 0c0 24.667 4.667 47.834 14 69.5s22 40.668 38 57 34.833 29.167 56.5 38.5 45.167 14 70.5 14c24 0 46.667-4.667 68-14s40-22.166 56-38.5 28.667-35.332 38-57 14-44.833 14-69.5-4.667-47.834-14-69.5-22-40.5-38-56.5-34.667-28.668-56-38-44-14-68-14c-25.333 0-48.833 4.666-70.5 14s-40.5 22-56.5 38-28.667 34.832-38 56.5-14 44.833-14 69.5z"/><glyph glyph-name="Aring" unicode="Å" horiz-adv-x="1479" d="M907 274h83.997l-16 209h-418l-111-209h127l-63-274h-612l63 274h128l627 1130c-22.667 24-40.167 50.833-52.5 80.5s-18.5 61.167-18.5 94.5c0 39.333 8.833 76.333 26.5 111s41.834 65 72.5 91 66.335 46.5 107.002 61.5 84 22.5 130 22.5 89.5-7.5 130.5-22.5 76.832-35.5 107.5-61.5 55-56.333 73-91 27-71.667 27-111c0-38-8.168-73.833-24.5-107.5s-39.167-63.5-68.5-89.5l102-1108h192L1456 0H844zM710.997 772h243l-30 402zm143 807c0-16 3.333-30.833 10-44.5s15.667-25.5 27-35.5 24.833-18 40.5-24 32.167-9 49.5-9c18 0 34.667 3 50 9s28.666 14 40 24 20.165 21.833 26.498 35.5 9.5 28.5 9.5 44.5c0 15.333-3.167 29.833-9.5 43.5s-15.166 25.5-26.5 35.5-24.665 17.833-39.998 23.5-32 8.5-50 8.5c-17.333 0-33.833-2.833-49.5-8.5s-29.167-13.5-40.5-23.5-20.333-21.833-27-35.5-10-28.167-10-43.5z"/><glyph glyph-name="AE" unicode="Æ" horiz-adv-x="2191" d="M-80 274H57l967 1242h1352l-119-517h-350l55 242h-421l-76-326h337l-67-290h-337l-82-351h396l62 269h350L1999 0H903l28 121 84 362H613L450 274h146L532 0h-675zm1162 498l104 448-349-448h245z"/><glyph glyph-name="Ccedilla" unicode="Ç" horiz-adv-x="1493" d="M1133.5 1165.5c-43.667 28.333-97.837 42.5-162.504 42.5-45.333 0-89.333-7.167-132-21.5s-82.834-34.333-120.5-60-72-56.167-103-91.5-57.668-74-80-116-39.667-86.5-52-133.5-18.5-95.167-18.5-144.5c0-50 7-95.5 21-136.5s34.167-76.333 60.5-106 58-52.667 95-69 78.5-24.5 124.5-24.5c36.667 0 71 5 103 15s61.833 23.833 89.5 41.5 52.834 38.334 75.5 62S1077.332 472.67 1096 500l317-158c-76-120-171.5-212.166-286.5-276.5S878.33-31 726.998-31c-90.667 0-174.167 15.5-250.5 46.5S334.165 90 278.498 146s-99 123.168-130 201.5-46.5 165.167-46.5 260.5c0 94.667 12 183.5 36 266.5s57.167 159.167 99.5 228.5 92.333 131.333 150 186 120.334 100.834 188 138.5 138.668 66.5 213 86.5 149.5 30 225.5 30c60.668 0 116.668-6.332 168-19s98.334-30.666 141-54 76.835-47.832 102.502-73.5 46.167-48.5 61.5-68.5h190l-63-274h-389c-17.333 45.334-47.833 82.167-91.5 110.5zM339.997-289c34.667 8 64.83 18.832 90.498 32.5s47.834 30.333 66.5 50 34.335 42.667 47.002 69 23.334 56.5 32 90.5l264-92c-19.332-46-43.332-87.167-72-123.5s-61.5-67.5-98.5-93.5-77.332-47.167-121-63.5-89.833-27.5-138.5-33.5z"/><glyph glyph-name="Egrave" unicode="È" horiz-adv-x="1505" d="M393 1516h1297l-119-517h-350l55 242H855l-76-326h337l-67-290H712l-82-351h396l61 269h351L1313 0H61l64 274h155l224 967H330zm647 142l-293 286v25h326l196-311h-229z"/><glyph glyph-name="Eacute" unicode="É" horiz-adv-x="1505" d="M393 1516h1297l-119-517h-350l55 242H855l-76-326h337l-67-290H712l-82-351h396l61 269h351L1313 0H61l64 274h155l224 967H330zm747 453h326v-25l-306-286H925z"/><glyph glyph-name="Ecircumflex" unicode="Ê" horiz-adv-x="1505" d="M393 1516h1297l-119-517h-350l55 242H855l-76-326h337l-67-290H712l-82-351h396l61 269h351L1313 0H61l64 274h155l224 967H330zm292 142l357 325h239l197-325h-248l-96 157-172-157H685z"/><glyph glyph-name="Edieresis" unicode="Ë" horiz-adv-x="1505" d="M393 1516h1297l-119-517h-350l55 242H855l-76-326h337l-67-290H712l-82-351h396l61 269h351L1313 0H61l64 274h155l224 967H330zm225 305c0 24.667 4.5 47.834 13.5 69.5s21.5 40.668 37.5 57 34.833 29.167 56.5 38.5 45.167 14 70.5 14c24 0 46.667-4.667 68-14s40-22.166 56-38.5 28.667-35.332 38-57 14-44.833 14-69.5-4.667-47.834-14-69.5-22-40.5-38-56.5-34.667-28.668-56-38-44-14-68-14c-25.333 0-48.833 4.666-70.5 14s-40.5 22-56.5 38-28.5 34.832-37.5 56.5-13.5 44.833-13.5 69.5zm479 0c0 24.667 4.667 47.834 14 69.5s22 40.668 38 57 34.833 29.167 56.5 38.5 45.167 14 70.5 14c24 0 46.667-4.667 68-14s40-22.166 56-38.5 28.667-35.332 38-57 14-44.833 14-69.5-4.667-47.834-14-69.5-22-40.5-38-56.5-34.667-28.668-56-38-44-14-68-14c-25.333 0-48.833 4.666-70.5 14s-40.5 22-56.5 38-28.667 34.832-38 56.5-14 44.833-14 69.5z"/><glyph glyph-name="Igrave" unicode="Ì" horiz-adv-x="926" d="M393 1516h676l-63-275H855L630 274h171L737 0H61l64 274h155l224 967H330zm283 142l-293 286v25h326l196-311H676z"/><glyph glyph-name="Iacute" unicode="Í" horiz-adv-x="926" d="M393 1516h676l-63-275H855L630 274h171L737 0H61l64 274h155l224 967H330zm383 453h326v-25l-306-286H561z"/><glyph glyph-name="Icircumflex" unicode="Î" horiz-adv-x="926" d="M393 1516h676l-63-275H855L630 274h171L737 0H61l64 274h155l224 967H330zm-38 142l357 325h239l197-325H900l-96 157-172-157H355z"/><glyph glyph-name="Idieresis" unicode="Ï" horiz-adv-x="926" d="M393 1516h676l-63-275H855L630 274h171L737 0H61l64 274h155l224 967H330zm31 305c0 44 15.333 81.668 46 113s68.667 47 114 47c22 0 42.5-4 61.5-12s35.667-19.166 50-33.5 25.666-31.5 34-51.5 12.5-41 12.5-63c0-21.332-4.168-42-12.5-62s-19.667-37.166-34-51.5-31-25.5-50-33.5-39.5-12-61.5-12c-45.333 0-83.333 15.668-114 47s-46 68.667-46 112zm377 0c0 44 15.333 81.668 46 113s68.667 47 114 47c21.333 0 41.666-4 61-12s36.165-19.166 50.498-33.5 25.5-31.5 33.5-51.5 12-41 12-63c0-21.332-4-42-12-62s-19.167-37.166-33.5-51.5-31.166-25.5-50.5-33.5-39.665-12-60.998-12c-45.333 0-83.333 15.668-114 47s-46 68.667-46 112z"/><glyph glyph-name="Eth" unicode="Ð" horiz-adv-x="1585" d="M88 640l64 274h195l76 327H267l64 275h608c91.332 0 175.332-14 252-42s142.833-68.5 198.5-121.5 99-118.168 130-195.5 46.5-165.334 46.5-264c0-83.334-9.667-163.167-29-239.5S1489.334 506 1452 440s-83.332-126-138-180-117.333-100.333-188-139-149.167-68.5-235.5-89.5S711 0 611 0H-20l64 274h155l85 366H88zm686 601l-76-327h252l-64-274H634l-85-366h107c48.668 0 95.835 7.167 141.502 21.5s88.667 34.333 129 60 77.333 56.5 111 92.5 62.667 75.833 87 119.5 43.166 90.5 56.5 140.5 20 102 20 156c0 70-8.834 129-26.5 177s-41.335 86.833-71.002 116.5-63.834 51-102.5 64-79 19.5-121 19.5H774z"/><glyph glyph-name="Ntilde" unicode="Ñ" horiz-adv-x="1786" d="M1358 1516h612l-63-275h-130L1491 0h-344L761 935 608 274h129L674 0H61l64 274h135l223 967H319l64 275h516l374-936 154 661h-133zm-387 443c28 0 55.002-4.832 81.002-14.5s51.5-20.333 76.5-32 49.333-22.334 73-32 47.167-14.5 70.5-14.5c28 0 52.833 5 74.5 15s41.167 27.666 58.5 53l158-70c-10-30-24.167-58-42.5-84s-39.5-48.834-63.5-68.5-50.333-35-79-46-58.667-16.5-90-16.5c-34.667 0-66 4.5-94 13.5s-54.5 19-79.5 30-49.5 21.166-73.5 30.5-49.333 14-76 14c-30 0-55.333-6.168-76-18.5s-37.667-27.167-51-44.5l-152 70c9.333 36 25.166 67.333 47.5 94s47.165 49 74.498 67 55.5 31.5 84.5 40.5 55.167 13.5 78.5 13.5z"/><glyph glyph-name="Ograve" unicode="Ò" horiz-adv-x="1597" d="M748-31c-90.667 0-174.167 15.5-250.5 46.5S355.167 90 299.5 146s-99 123.166-130 201.5S123 512.664 123 607.997c0 94.667 12 183.5 36 266.5s57.167 159.167 99.5 228.5 92.333 131.333 150 186 120.167 100.834 187.5 138.5 138.166 66.5 212.5 86.5 149.5 30 225.5 30c94.666 0 180.5-15.666 257.5-47s142.666-75.165 197-131.498 96.332-123.833 126-202.5 44.5-165.334 44.5-260c0-92.668-11.168-180-33.5-262s-53.834-157.668-94.5-227-89-131.5-145-186.5-117.834-101.668-185.5-140-139.668-67.667-216-88S829.332-31 748-31zm38 336c44.667 0 88.335 7.17 131.002 21.502s82.667 34.166 120 59.5 71.666 55.665 103 90.998 58.165 74 80.498 116 39.833 86.667 52.5 134 19 95.666 19 145c0 50-6.833 95.5-20.5 136.5s-33.5 76.332-59.5 106-57.667 52.666-95 69-79.333 24.5-126 24.5c-68 0-132.667-15.668-194-47s-115-73.334-161-126-82.667-113-110-181-41-139-41-213c0-50 7-95.5 21-136.5s34.167-76.334 60.5-106 58-52.668 95-69S740 305 786 305zm105 1393l-293 286v25h326l196-311H891z"/><glyph glyph-name="Oacute" unicode="Ó" horiz-adv-x="1597" d="M748-31c-90.667 0-174.167 15.5-250.5 46.5S355.167 90 299.5 146s-99 123.166-130 201.5S123 512.664 123 607.997c0 94.667 12 183.5 36 266.5s57.167 159.167 99.5 228.5 92.333 131.333 150 186 120.167 100.834 187.5 138.5 138.166 66.5 212.5 86.5 149.5 30 225.5 30c94.666 0 180.5-15.666 257.5-47s142.666-75.165 197-131.498 96.332-123.833 126-202.5 44.5-165.334 44.5-260c0-92.668-11.168-180-33.5-262s-53.834-157.668-94.5-227-89-131.5-145-186.5-117.834-101.668-185.5-140-139.668-67.667-216-88S829.332-31 748-31zm38 336c44.667 0 88.335 7.17 131.002 21.502s82.667 34.166 120 59.5 71.666 55.665 103 90.998 58.165 74 80.498 116 39.833 86.667 52.5 134 19 95.666 19 145c0 50-6.833 95.5-20.5 136.5s-33.5 76.332-59.5 106-57.667 52.666-95 69-79.333 24.5-126 24.5c-68 0-132.667-15.668-194-47s-115-73.334-161-126-82.667-113-110-181-41-139-41-213c0-50 7-95.5 21-136.5s34.167-76.334 60.5-106 58-52.668 95-69S740 305 786 305zm406 1704h326v-25l-306-286H977z"/><glyph glyph-name="Ocircumflex" unicode="Ô" horiz-adv-x="1597" d="M748-31c-90.667 0-174.167 15.5-250.5 46.5S355.167 90 299.5 146s-99 123.166-130 201.5S123 512.664 123 607.997c0 94.667 12 183.5 36 266.5s57.167 159.167 99.5 228.5 92.333 131.333 150 186 120.167 100.834 187.5 138.5 138.166 66.5 212.5 86.5 149.5 30 225.5 30c94.666 0 180.5-15.666 257.5-47s142.666-75.165 197-131.498 96.332-123.833 126-202.5 44.5-165.334 44.5-260c0-92.668-11.168-180-33.5-262s-53.834-157.668-94.5-227-89-131.5-145-186.5-117.834-101.668-185.5-140-139.668-67.667-216-88S829.332-31 748-31zm38 336c44.667 0 88.335 7.17 131.002 21.502s82.667 34.166 120 59.5 71.666 55.665 103 90.998 58.165 74 80.498 116 39.833 86.667 52.5 134 19 95.666 19 145c0 50-6.833 95.5-20.5 136.5s-33.5 76.332-59.5 106-57.667 52.666-95 69-79.333 24.5-126 24.5c-68 0-132.667-15.668-194-47s-115-73.334-161-126-82.667-113-110-181-41-139-41-213c0-50 7-95.5 21-136.5s34.167-76.334 60.5-106 58-52.668 95-69S740 305 786 305zm-49 1393l357 325h239l197-325h-248l-96 157-172-157H737z"/><glyph glyph-name="Otilde" unicode="Õ" horiz-adv-x="1597" d="M748-31c-90.667 0-174.167 15.5-250.5 46.5S355.167 90 299.5 146s-99 123.166-130 201.5S123 512.664 123 607.997c0 94.667 12 183.5 36 266.5s57.167 159.167 99.5 228.5 92.333 131.333 150 186 120.167 100.834 187.5 138.5 138.166 66.5 212.5 86.5 149.5 30 225.5 30c94.666 0 180.5-15.666 257.5-47s142.666-75.165 197-131.498 96.332-123.833 126-202.5 44.5-165.334 44.5-260c0-92.668-11.168-180-33.5-262s-53.834-157.668-94.5-227-89-131.5-145-186.5-117.834-101.668-185.5-140-139.668-67.667-216-88S829.332-31 748-31zm38 336c44.667 0 88.335 7.17 131.002 21.502s82.667 34.166 120 59.5 71.666 55.665 103 90.998 58.165 74 80.498 116 39.833 86.667 52.5 134 19 95.666 19 145c0 50-6.833 95.5-20.5 136.5s-33.5 76.332-59.5 106-57.667 52.666-95 69-79.333 24.5-126 24.5c-68 0-132.667-15.668-194-47s-115-73.334-161-126-82.667-113-110-181-41-139-41-213c0-50 7-95.5 21-136.5s34.167-76.334 60.5-106 58-52.668 95-69S740 305 786 305zm103 1694c28 0 55.003-4.832 81.003-14.5s51.5-20.333 76.5-32 49.333-22.334 73-32 47.167-14.5 70.5-14.5c28 0 52.833 5 74.5 15s41.167 27.666 58.5 53l158-70c-10-30-24.167-58-42.5-84s-39.5-48.834-63.5-68.5-50.333-35-79-46-58.667-16.5-90-16.5c-34.667 0-66 4.5-94 13.5s-54.5 19-79.5 30-49.5 21.166-73.5 30.5-49.333 14-76 14c-30 0-55.333-6.168-76-18.5s-37.667-27.167-51-44.5l-152 70c9.333 36 25.166 67.333 47.5 94s47.165 49 74.498 67 55.5 31.5 84.5 40.5S865.67 1999 889 1999z"/><glyph glyph-name="Odieresis" unicode="Ö" horiz-adv-x="1597" d="M748-31c-90.667 0-174.167 15.5-250.5 46.5S355.167 90 299.5 146s-99 123.166-130 201.5S123 512.664 123 607.997c0 94.667 12 183.5 36 266.5s57.167 159.167 99.5 228.5 92.333 131.333 150 186 120.167 100.834 187.5 138.5 138.166 66.5 212.5 86.5 149.5 30 225.5 30c94.666 0 180.5-15.666 257.5-47s142.666-75.165 197-131.498 96.332-123.833 126-202.5 44.5-165.334 44.5-260c0-92.668-11.168-180-33.5-262s-53.834-157.668-94.5-227-89-131.5-145-186.5-117.834-101.668-185.5-140-139.668-67.667-216-88S829.332-31 748-31zm38 336c44.667 0 88.335 7.17 131.002 21.502s82.667 34.166 120 59.5 71.666 55.665 103 90.998 58.165 74 80.498 116 39.833 86.667 52.5 134 19 95.666 19 145c0 50-6.833 95.5-20.5 136.5s-33.5 76.332-59.5 106-57.667 52.666-95 69-79.333 24.5-126 24.5c-68 0-132.667-15.668-194-47s-115-73.334-161-126-82.667-113-110-181-41-139-41-213c0-50 7-95.5 21-136.5s34.167-76.334 60.5-106 58-52.668 95-69S740 305 786 305zM670 1861c0 24.667 4.5 47.834 13.5 69.5s21.5 40.668 37.5 57 34.834 29.167 56.5 38.5 45.168 14 70.5 14c24 0 46.668-4.667 68-14s40-22.166 56-38.5 28.668-35.332 38-57 14-44.833 14-69.5-4.666-47.834-14-69.5-22-40.5-38-56.5-34.666-28.668-56-38-44-14-68-14c-25.332 0-48.832 4.666-70.5 14s-40.5 22-56.5 38-28.5 34.832-37.5 56.5-13.5 44.833-13.5 69.5zm479 0c0 24.667 4.667 47.834 14 69.5s22 40.668 38 57 34.833 29.167 56.5 38.5 45.167 14 70.5 14c24 0 46.667-4.667 68-14s40-22.166 56-38.5 28.667-35.332 38-57 14-44.833 14-69.5-4.667-47.834-14-69.5-22-40.5-38-56.5-34.667-28.668-56-38-44-14-68-14c-25.333 0-48.833 4.666-70.5 14s-40.5 22-56.5 38-28.667 34.832-38 56.5-14 44.833-14 69.5z"/><glyph glyph-name="multiply" unicode="×" horiz-adv-x="1262" d="M466 680l-259 377 254 192 247-359 427 372 188-215-453-393 252-365L868 98 629 444 219 88 31 301z"/><glyph glyph-name="Oslash" unicode="Ø" horiz-adv-x="1597" d="M219 247c-31.333 50-55.168 105.165-71.5 165.498s-24.5 125.5-24.5 195.5c0 94.667 12 183.5 36 266.5s57.166 159.167 99.5 228.5 92.332 131.333 150 186 120.166 100.834 187.5 138.5S734.33 1494 809 1514s149.666 30 225 30c72.666 0 140-9.332 202-28s118-45 168-79l139 140h301l-291-293c34-52 60.166-110 78.5-174s27.5-133 27.5-207c0-92.666-11.168-180-33.5-262s-53.834-157.666-94.5-227-89-131.5-145-186.5-117.834-101.666-185.5-140S1060.83 19.834 984.5-.5 829.332-31 748-31C674-31 605-20.833 541-.5S419 49 367 87L220-61H-87zm697.998 79.498c42.667 14.333 82.668 34.17 120 59.502s71.667 55.666 103 91 58.166 74 80.5 116 39.832 86.666 52.5 134 19 95.665 19 144.998c0 23.333-1.668 45.833-5 67.5s-8 42.167-14 61.5l-647-653c22-14 46.332-24.667 73-32s55.666-11 87-11c44.666 0 88.333 7.167 131 21.5zM488.498 582c2.334-18.666 5.835-36.664 10.502-53.997l641 644c-21.333 11.333-44.333 20.166-69 26.5s-51.334 9.5-80 9.5c-68 0-132.668-15.668-194-47s-115-73.334-161-126-82.668-113-110-181-41-139-41-213c0-20.668 1.166-40.335 3.5-59.002z"/><glyph glyph-name="Ugrave" unicode="Ù" horiz-adv-x="1534" d="M281 1516h612l-64-275H713L567 612c-14-66.667-18-118.5-12-155.5s19-68.833 39-95.5 44.667-46 74-58 64-18 104-18c38.667 0 73.5 5.5 104.5 16.5s58.833 29.333 83.5 55 46.5 59.334 65.5 101S1061 550.67 1075 612l145 629h-137l64 275h612l-63-275h-130l-155-674c-24-105.332-56.333-195.832-97-271.5s-89.667-137.666-147-186S1043.834 25.67 969.5 3 812.336-31 721.003-31c-75.333 0-144.5 11.168-207.5 33.5s-117.333 53.667-163 94-80.334 89-104 146S209.166 360 205.5 424s2.833 133.667 19.5 209l142 608H217zm698 142l-293 286v25h326l196-311H979z"/><glyph glyph-name="Uacute" unicode="Ú" horiz-adv-x="1534" d="M281 1516h612l-64-275H713L567 612c-14-66.667-18-118.5-12-155.5s19-68.833 39-95.5 44.667-46 74-58 64-18 104-18c38.667 0 73.5 5.5 104.5 16.5s58.833 29.333 83.5 55 46.5 59.334 65.5 101S1061 550.67 1075 612l145 629h-137l64 275h612l-63-275h-130l-155-674c-24-105.332-56.333-195.832-97-271.5s-89.667-137.666-147-186S1043.834 25.67 969.5 3 812.336-31 721.003-31c-75.333 0-144.5 11.168-207.5 33.5s-117.333 53.667-163 94-80.334 89-104 146S209.166 360 205.5 424s2.833 133.667 19.5 209l142 608H217zm798 453h326v-25l-306-286H864z"/><glyph glyph-name="Ucircumflex" unicode="Û" horiz-adv-x="1534" d="M281 1516h612l-64-275H713L567 612c-14-66.667-18-118.5-12-155.5s19-68.833 39-95.5 44.667-46 74-58 64-18 104-18c38.667 0 73.5 5.5 104.5 16.5s58.833 29.333 83.5 55 46.5 59.334 65.5 101S1061 550.67 1075 612l145 629h-137l64 275h612l-63-275h-130l-155-674c-24-105.332-56.333-195.832-97-271.5s-89.667-137.666-147-186S1043.834 25.67 969.5 3 812.336-31 721.003-31c-75.333 0-144.5 11.168-207.5 33.5s-117.333 53.667-163 94-80.334 89-104 146S209.166 360 205.5 424s2.833 133.667 19.5 209l142 608H217zm343 142l357 325h239l197-325h-248l-96 157-172-157H624z"/><glyph glyph-name="Udieresis" unicode="Ü" horiz-adv-x="1534" d="M281 1516h612l-64-275H713L567 612c-14-66.667-18-118.5-12-155.5s19-68.833 39-95.5 44.667-46 74-58 64-18 104-18c38.667 0 73.5 5.5 104.5 16.5s58.833 29.333 83.5 55 46.5 59.334 65.5 101S1061 550.67 1075 612l145 629h-137l64 275h612l-63-275h-130l-155-674c-24-105.332-56.333-195.832-97-271.5s-89.667-137.666-147-186S1043.834 25.67 969.5 3 812.336-31 721.003-31c-75.333 0-144.5 11.168-207.5 33.5s-117.333 53.667-163 94-80.334 89-104 146S209.166 360 205.5 424s2.833 133.667 19.5 209l142 608H217zm276 305c0 24.667 4.5 47.834 13.5 69.5s21.5 40.668 37.5 57 34.833 29.167 56.5 38.5 45.167 14 70.5 14c24 0 46.667-4.667 68-14s40-22.166 56-38.5 28.667-35.332 38-57 14-44.833 14-69.5-4.667-47.834-14-69.5-22-40.5-38-56.5-34.667-28.668-56-38-44-14-68-14c-25.333 0-48.833 4.666-70.5 14s-40.5 22-56.5 38-28.5 34.832-37.5 56.5-13.5 44.833-13.5 69.5zm479 0c0 24.667 4.667 47.834 14 69.5s22 40.668 38 57 34.833 29.167 56.5 38.5 45.167 14 70.5 14c24 0 46.667-4.667 68-14s40-22.166 56-38.5 28.667-35.332 38-57 14-44.833 14-69.5-4.667-47.834-14-69.5-22-40.5-38-56.5-34.667-28.668-56-38-44-14-68-14c-25.333 0-48.833 4.666-70.5 14s-40.5 22-56.5 38-28.667 34.832-38 56.5-14 44.833-14 69.5z"/><glyph glyph-name="Yacute" unicode="Ý" horiz-adv-x="1393" d="M248 1516h612l-63-275H692l133-328 25 26 262 302h-88l63 275h613l-64-275h-101L941 615l-79-341h170L969 0H293l63 274h160l82 361-280 606H184zm784 453h326v-25l-306-286H817z"/><glyph glyph-name="Thorn" unicode="Þ" horiz-adv-x="1370" d="M393 1516h524.998l-37-158-36-158h185c69.333 0 131.333-9.833 186-29.5s101-47 139-82 67.167-76.333 87.5-124 30.5-99.5 30.5-155.5c0-57.333-10.833-112-32.5-164s-54-99-97-141-96.5-77.333-160.5-106-138.333-48-223-58c-21.333-2.667-43.166-4.667-65.5-6s-42.165-2-59.498-2H644L567 0H61l64 274h155l223 967H330zm387.998-590l-75-324h128c14.667 0 28.667.5 42 1.5s26.333 2.168 39 3.5c30.667 4 57.834 10.834 81.5 20.5s43.668 22.168 60 37.5 28.667 33.334 37 54 12.5 44.668 12.5 72c0 41.334-16.167 74.167-48.5 98.5s-83.833 36.5-154.5 36.5h-122z"/><glyph glyph-name="germandbls" unicode="ß" horiz-adv-x="1479" d="M84 274h188l209 906c13.333 57.333 36.833 110.166 70.5 158.5s75.167 90.165 124.5 125.498 105 63 167 83 128.333 30 199 30c62.667 0 119.5-9.833 170.5-29.5s94.667-46.167 131-79.5 64.5-72 84.5-116 30-90 30-138c0-44-5.667-83.333-17-118s-26-65.5-44-92.5-38.667-50.167-62-69.5-47-35.666-71-49c48-36 85.833-82 113.5-138s41.5-117.332 41.5-184c0-94-16.667-176.832-50-248.5s-79-131.666-137-180S1106 49.667 1028 25 866.667-12 778-12c-13.333 0-29.5.5-48.5 1.5S694.667-8 682-6l68 289c9.333-2 20-3.666 32-5s23-2 33-2c33.333 0 65.666 6.334 97 19s59.332 30.168 84 52.5 44.333 48.5 59 78.5 22 62 22 96c0 22.668-3.833 44.335-11.5 65.002s-18.834 38.5-33.5 53.5-32.168 27-52.5 36S936.332 690 911 690h-67l65 289h74c23.333 0 45.166 4.833 65.5 14.5s38 22.667 53 39 26.666 35.333 35 57 12.5 44.167 12.5 67.5c0 40-11.834 73.5-35.5 100.5S1055.33 1298 1010 1298c-24 0-46.668-4.167-68-12.5s-40.667-20-58-35-32.333-33.333-45-55-22-45.5-28-71.5L551 0H20z"/><glyph glyph-name="agrave" unicode="à" horiz-adv-x="1391" d="M786 79c-24.667-26-57.333-48-98-66-43.333-19.332-94.333-29-153-29-54 0-107 9.668-159 29s-98.167 48.167-138.5 86.5-73 85.833-98 142.5S102 364 102 438c0 64 8.333 123.833 25 179.5s39.667 106.667 69 153S260.166 858 300.5 894s84.332 66.333 132 91 98 43.5 151 56.5S690.33 1061 745 1061c30.666 0 56.833-2 78.5-6s46.5-10 74.5-18 60.667-25.333 98-52l12 51h340l-177-762h191L1298 0H768zm37 293L867 427l50 216c-8 15.333-18.332 30.166-31 44.5s-28.5 26.832-47.5 37.5-39.666 18.833-62 24.5-44.832 8.5-67.5 8.5c-36 0-70.332-7.167-103-21.5s-61.166-33.666-85.5-58S476.67 625.334 462 592s-22-69-22-107c0-32 5-60 15-84s23.668-44 41-60 37.334-28 60-36 47-12 73-12c22 0 44.5 2.833 67.5 8.5s45.168 14.334 66.5 26 41.334 26.5 60 44.5zm-110 806l-293 286v25h326l196-311H713z"/><glyph glyph-name="aacute" unicode="á" horiz-adv-x="1391" d="M786 79c-24.667-26-57.333-48-98-66-43.333-19.332-94.333-29-153-29-54 0-107 9.668-159 29s-98.167 48.167-138.5 86.5-73 85.833-98 142.5S102 364 102 438c0 64 8.333 123.833 25 179.5s39.667 106.667 69 153S260.166 858 300.5 894s84.332 66.333 132 91 98 43.5 151 56.5S690.33 1061 745 1061c30.666 0 56.833-2 78.5-6s46.5-10 74.5-18 60.667-25.333 98-52l12 51h340l-177-762h191L1298 0H768zm37 293L867 427l50 216c-8 15.333-18.332 30.166-31 44.5s-28.5 26.832-47.5 37.5-39.666 18.833-62 24.5-44.832 8.5-67.5 8.5c-36 0-70.332-7.167-103-21.5s-61.166-33.666-85.5-58S476.67 625.334 462 592s-22-69-22-107c0-32 5-60 15-84s23.668-44 41-60 37.334-28 60-36 47-12 73-12c22 0 44.5 2.833 67.5 8.5s45.168 14.334 66.5 26 41.334 26.5 60 44.5zm-10 1117h326v-25l-306-286H598z"/><glyph glyph-name="acircumflex" unicode="â" horiz-adv-x="1391" d="M786 79c-24.667-26-57.333-48-98-66-43.333-19.332-94.333-29-153-29-54 0-107 9.668-159 29s-98.167 48.167-138.5 86.5-73 85.833-98 142.5S102 364 102 438c0 64 8.333 123.833 25 179.5s39.667 106.667 69 153S260.166 858 300.5 894s84.332 66.333 132 91 98 43.5 151 56.5S690.33 1061 745 1061c30.666 0 56.833-2 78.5-6s46.5-10 74.5-18 60.667-25.333 98-52l12 51h340l-177-762h191L1298 0H768zm37 293L867 427l50 216c-8 15.333-18.332 30.166-31 44.5s-28.5 26.832-47.5 37.5-39.666 18.833-62 24.5-44.832 8.5-67.5 8.5c-36 0-70.332-7.167-103-21.5s-61.166-33.666-85.5-58S476.67 625.334 462 592s-22-69-22-107c0-32 5-60 15-84s23.668-44 41-60 37.334-28 60-36 47-12 73-12c22 0 44.5 2.833 67.5 8.5s45.168 14.334 66.5 26 41.334 26.5 60 44.5zm-433 806l357 325h239l197-325H935l-96 157-172-157H390z"/><glyph glyph-name="atilde" unicode="ã" horiz-adv-x="1391" d="M786 79c-24.667-26-57.333-48-98-66-43.333-19.332-94.333-29-153-29-54 0-107 9.668-159 29s-98.167 48.167-138.5 86.5-73 85.833-98 142.5S102 364 102 438c0 64 8.333 123.833 25 179.5s39.667 106.667 69 153S260.166 858 300.5 894s84.332 66.333 132 91 98 43.5 151 56.5S690.33 1061 745 1061c30.666 0 56.833-2 78.5-6s46.5-10 74.5-18 60.667-25.333 98-52l12 51h340l-177-762h191L1298 0H768zm37 293L867 427l50 216c-8 15.333-18.332 30.166-31 44.5s-28.5 26.832-47.5 37.5-39.666 18.833-62 24.5-44.832 8.5-67.5 8.5c-36 0-70.332-7.167-103-21.5s-61.166-33.666-85.5-58S476.67 625.334 462 592s-22-69-22-107c0-32 5-60 15-84s23.668-44 41-60 37.334-28 60-36 47-12 73-12c22 0 44.5 2.833 67.5 8.5s45.168 14.334 66.5 26 41.334 26.5 60 44.5zM635 1479c28 0 55.003-4.832 81.003-14.5s51.5-20.333 76.5-32 49.333-22.334 73-32 47.167-14.5 70.5-14.5c28 0 52.833 5 74.5 15s41.167 27.666 58.5 53l158-70c-10-30-24.167-58-42.5-84s-39.5-48.834-63.5-68.5-50.333-35-79-46-58.667-16.5-90-16.5c-34.667 0-66 4.5-94 13.5s-54.5 19-79.5 30-49.5 21.166-73.5 30.5-49.333 14-76 14c-30 0-55.333-6.168-76-18.5s-37.667-27.167-51-44.5l-152 70c9.333 36 25.166 67.333 47.5 94s47.165 49 74.498 67 55.5 31.5 84.5 40.5S611.67 1479 635 1479z"/><glyph glyph-name="adieresis" unicode="ä" horiz-adv-x="1391" d="M786 79c-24.667-26-57.333-48-98-66-43.333-19.332-94.333-29-153-29-54 0-107 9.668-159 29s-98.167 48.167-138.5 86.5-73 85.833-98 142.5S102 364 102 438c0 64 8.333 123.833 25 179.5s39.667 106.667 69 153S260.166 858 300.5 894s84.332 66.333 132 91 98 43.5 151 56.5S690.33 1061 745 1061c30.666 0 56.833-2 78.5-6s46.5-10 74.5-18 60.667-25.333 98-52l12 51h340l-177-762h191L1298 0H768zm37 293L867 427l50 216c-8 15.333-18.332 30.166-31 44.5s-28.5 26.832-47.5 37.5-39.666 18.833-62 24.5-44.832 8.5-67.5 8.5c-36 0-70.332-7.167-103-21.5s-61.166-33.666-85.5-58S476.67 625.334 462 592s-22-69-22-107c0-32 5-60 15-84s23.668-44 41-60 37.334-28 60-36 47-12 73-12c22 0 44.5 2.833 67.5 8.5s45.168 14.334 66.5 26 41.334 26.5 60 44.5zm-496 971c0 24.667 4.5 47.834 13.5 69.5s21.5 40.668 37.5 57 34.834 29.167 56.5 38.5 45.168 14 70.5 14c24 0 46.668-4.667 68-14s40-22.166 56-38.5 28.668-35.332 38-57 14-44.833 14-69.5-4.666-47.834-14-69.5-22-40.5-38-56.5-34.666-28.668-56-38-44-14-68-14c-25.332 0-48.832 4.666-70.5 14s-40.5 22-56.5 38-28.5 34.832-37.5 56.5-13.5 44.833-13.5 69.5zm479 0c0 24.667 4.668 47.834 14 69.5s22 40.668 38 57 34.834 29.167 56.5 38.5 45.168 14 70.5 14c24 0 46.668-4.667 68-14s40-22.166 56-38.5 28.668-35.332 38-57 14-44.833 14-69.5-4.666-47.834-14-69.5-22-40.5-38-56.5-34.666-28.668-56-38-44-14-68-14c-25.332 0-48.832 4.666-70.5 14s-40.5 22-56.5 38-28.666 34.832-38 56.5-14 44.833-14 69.5z"/><glyph glyph-name="aring" unicode="å" horiz-adv-x="1391" d="M786 79c-24.667-26-57.333-48-98-66-43.333-19.332-94.333-29-153-29-54 0-107 9.668-159 29s-98.167 48.167-138.5 86.5-73 85.833-98 142.5S102 364 102 438c0 64 8.333 123.833 25 179.5s39.667 106.667 69 153S260.166 858 300.5 894s84.332 66.333 132 91 98 43.5 151 56.5S690.33 1061 745 1061c30.666 0 56.833-2 78.5-6s46.5-10 74.5-18 60.667-25.333 98-52l12 51h340l-177-762h191L1298 0H768zm37 293L867 427l50 216c-8 15.333-18.332 30.166-31 44.5s-28.5 26.832-47.5 37.5-39.666 18.833-62 24.5-44.832 8.5-67.5 8.5c-36 0-70.332-7.167-103-21.5s-61.166-33.666-85.5-58S476.67 625.334 462 592s-22-69-22-107c0-32 5-60 15-84s23.668-44 41-60 37.334-28 60-36 47-12 73-12c22 0 44.5 2.833 67.5 8.5s45.168 14.334 66.5 26 41.334 26.5 60 44.5zm33 1354c43.334 0 84.334-8.333 123-25s72.5-39.334 101.5-68 51.834-62.335 68.5-101.002 25-79.667 25-123-8.332-84.333-25-123-39.5-72.5-68.5-101.5-62.832-51.833-101.5-68.5-79.666-25-123-25-84.332 8.333-123 25-72.333 39.5-101 68.5-51.334 62.833-68 101.5-25 79.667-25 123 8.332 84.333 25 123 39.333 72.334 68 101 62.334 51.335 101 68.002 79.668 25 123 25zm-125-317c0-17.333 3.334-33.666 10-49s15.668-28.665 27-39.998 24.5-20.166 39.5-26.5 31.168-9.5 48.5-9.5 33.5 3.168 48.5 9.5 28 15.167 39 26.5 19.668 24.666 26 40 9.5 31.665 9.5 48.998-3.166 33.5-9.5 48.5-15 28-26 39-24 19.667-39 26-31.166 9.5-48.5 9.5-33.5-3.167-48.5-9.5-28.166-15-39.5-26-20.332-24-27-39-10-31.167-10-48.5z"/><glyph glyph-name="ae" unicode="æ" horiz-adv-x="1849" d="M530 637c46 0 87.168-2.162 123.5-6.495s70.167-10.166 101.5-17.5l7 30c6 26 6.5 48.5 1.5 67.5s-14.667 34.668-29 47-33.166 21.334-56.5 27-50 8.5-80 8.5c-31.332 0-60.832-1.5-88.5-4.5s-54.5-7.5-80.5-13.5-51.332-13.5-76-22.5-49.333-19.5-74-31.5l-52 194c36 22.668 72.5 43 109.5 61s74.5 33.168 112.5 45.5 76.5 21.667 115.5 28 78.833 9.5 119.5 9.5c66.667 0 127-8.5 181-25.5s98.667-43.5 134-79.5c52.667 36 110 63.833 172 83.5s127 29.5 195 29.5c66.667 0 128.334-11.833 185-35.5s105.668-55.334 147-95 73.5-85.5 96.5-137.5 34.5-106 34.5-162c0-13.334-.666-28.334-2-45s-3.332-33.835-6-51.502-6-35.167-10-52.5-8.332-33.333-13-48h-739c1.334-16.667 3.834-32.334 7.5-47s9.168-28.668 16.5-42 16.334-25.167 27-35.5 23-19.166 37-26.5 29.834-13 47.5-17 37.168-6 58.5-6c26.668 0 51.335 2.668 74.002 8s44 12.834 64 22.5 39.167 21.168 57.5 34.5 36.5 28 54.5 44l219-193c-33.333-36-69.5-67-108.5-93s-80.333-47.666-124-65-89.334-30.165-137-38.498-96.5-12.5-146.5-12.5c-40 0-78.5 4-115.5 12s-72 19.667-105 35S922 54.17 894 76.505s-52.668 47.832-74 76.5c-26-26.668-53.668-50.835-83-72.502s-61.167-40.334-95.5-56-72-27.835-113-36.502-86.167-13-135.5-13c-58.667 0-110 8-154 24s-80.667 37.5-110 64.5-51.333 58.168-66 93.5-22 72.334-22 111c0 36.668 5.167 71.168 15.5 103.5s25.333 62.167 45 89.5 43.667 51.833 72 73.5 60.666 40.167 97 55.5S346.666 617 390 625s90 12 140 12zm-88-425.995c60.668 0 115.834 9.835 165.5 29.502s95.5 45.5 137.5 77.5c-2.666 11.333-4.666 22.666-6 34l-4 34c-1.332 12.666-2 24.666-2 36H530c-24 0-47.832-1.334-71.5-4s-45-8.335-64-17.002-34.5-21.167-46.5-37.5-18-37.833-18-64.5c0-25.333 9-46.333 27-63s46.334-25 85-25zm891 598.002c-26.667 0-52.334-3.166-77-9.5s-47.5-15.665-68.5-27.998-39.5-27.334-55.5-45-28.668-37.835-38-60.502h434c-1.334 18-7.167 35.5-17.5 52.5s-24 32.167-41 45.5-37 24.166-60 32.5-48.5 12.5-76.5 12.5z"/><glyph glyph-name="ccedilla" unicode="ç" horiz-adv-x="1171" d="M852 668c-10.667 28-30.33 50.667-58.998 68s-59.667 26-93 26c-37.333 0-72.5-7.5-105.5-22.5s-61.833-35.667-86.5-62-44.167-57-58.5-92-21.5-72.5-21.5-112.5c0-30 4.833-56.833 14.5-80.5s22.5-44 38.5-61 34.667-30 56-39 43.666-13.5 67-13.5c55.332 0 101.5 12.833 138.5 38.5S810 376.667 834 418l272-148c-21.334-41.333-49.334-80-84-116s-75-67.333-121-94-96.834-47.5-152.5-62.5S633.666-25 571-25c-67.333 0-129.5 12.167-186.5 36.5S278 68.833 236 110.5 161.167 201 137.5 257 102 372.667 102 436c0 95.333 17.167 181.833 51.5 259.5s80.5 144 138.5 199S417.167 992 493.5 1022s156.833 45 241.5 45c53.333 0 102.666-7.667 148-23s86.332-36.333 123-63c16.666-12 32.333-25 47-39h192l-63-274H852zM208.003-289c34.667 8 64.83 18.832 90.498 32.5s47.835 30.333 66.502 50 34.334 42.667 47 69S435.338-81 444.005-47l264-92c-19.333-46-43.333-87.167-72-123.5s-61.5-67.5-98.5-93.5-77.333-47.167-121-63.5-89.834-27.5-138.5-33.5z"/><glyph glyph-name="egrave" unicode="è" horiz-adv-x="1178" d="M428 440c1.333-16 3.998-31.333 7.998-46 6.667-25.333 17.834-47.5 33.5-66.5s36.168-34 61.5-45 56-16.5 92-16.5c26.668 0 51.168 2.667 73.5 8s43.5 12.833 63.5 22.5 39.168 21.167 57.5 34.5 36.5 28 54.5 44l220-193c-67.332-72-145-124.833-233-158.5S676.333-27 575-27C509.667-27 448.334-16.333 391 5S283.667 56.833 241 96.5 164.5 184.334 139.5 241 102 361.336 102 432.003c0 95.333 17.167 182 51.5 260S234 836.835 292 892.502s125.167 98.667 201.5 129 156.833 45.5 241.5 45.5c67.333 0 129.333-11.833 186-35.5s105.5-55.334 146.5-95 73-85.5 96-137.5 34.5-106 34.5-162c0-13.334-.667-28.334-2-45s-3.333-33.835-6-51.502-6-35.167-10-52.5-8.333-33.333-13-48H428zm42.998 240c-2.667-4.667-5.002-9.332-7.002-14h433c-1.333 18-7.166 35.5-17.5 52.5s-24 32.168-41 45.5-37 24.167-60 32.5-48.5 12.5-76.5 12.5c-33.332 0-65.165-5-95.498-15s-57-24.5-80-43.5-41.5-42.5-55.5-70.5zm229.998 498l-293 286v25h326l196-311h-229z"/><glyph glyph-name="eacute" unicode="é" horiz-adv-x="1178" d="M428 440c1.333-16 3.998-31.333 7.998-46 6.667-25.333 17.834-47.5 33.5-66.5s36.168-34 61.5-45 56-16.5 92-16.5c26.668 0 51.168 2.667 73.5 8s43.5 12.833 63.5 22.5 39.168 21.167 57.5 34.5 36.5 28 54.5 44l220-193c-67.332-72-145-124.833-233-158.5S676.333-27 575-27C509.667-27 448.334-16.333 391 5S283.667 56.833 241 96.5 164.5 184.334 139.5 241 102 361.336 102 432.003c0 95.333 17.167 182 51.5 260S234 836.835 292 892.502s125.167 98.667 201.5 129 156.833 45.5 241.5 45.5c67.333 0 129.333-11.833 186-35.5s105.5-55.334 146.5-95 73-85.5 96-137.5 34.5-106 34.5-162c0-13.334-.667-28.334-2-45s-3.333-33.835-6-51.502-6-35.167-10-52.5-8.333-33.333-13-48H428zm42.998 240c-2.667-4.667-5.002-9.332-7.002-14h433c-1.333 18-7.166 35.5-17.5 52.5s-24 32.168-41 45.5-37 24.167-60 32.5-48.5 12.5-76.5 12.5c-33.332 0-65.165-5-95.498-15s-57-24.5-80-43.5-41.5-42.5-55.5-70.5zm329.998 809h326v-25l-306-286h-235z"/><glyph glyph-name="ecircumflex" unicode="ê" horiz-adv-x="1178" d="M428 440c1.333-16 3.998-31.333 7.998-46 6.667-25.333 17.834-47.5 33.5-66.5s36.168-34 61.5-45 56-16.5 92-16.5c26.668 0 51.168 2.667 73.5 8s43.5 12.833 63.5 22.5 39.168 21.167 57.5 34.5 36.5 28 54.5 44l220-193c-67.332-72-145-124.833-233-158.5S676.333-27 575-27C509.667-27 448.334-16.333 391 5S283.667 56.833 241 96.5 164.5 184.334 139.5 241 102 361.336 102 432.003c0 95.333 17.167 182 51.5 260S234 836.835 292 892.502s125.167 98.667 201.5 129 156.833 45.5 241.5 45.5c67.333 0 129.333-11.833 186-35.5s105.5-55.334 146.5-95 73-85.5 96-137.5 34.5-106 34.5-162c0-13.334-.667-28.334-2-45s-3.333-33.835-6-51.502-6-35.167-10-52.5-8.333-33.333-13-48H428zm42.998 240c-2.667-4.667-5.002-9.332-7.002-14h433c-1.333 18-7.166 35.5-17.5 52.5s-24 32.168-41 45.5-37 24.167-60 32.5-48.5 12.5-76.5 12.5c-33.332 0-65.165-5-95.498-15s-57-24.5-80-43.5-41.5-42.5-55.5-70.5zm-125.002 498l357 325h239l197-325h-248l-96 157-172-157h-277z"/><glyph glyph-name="edieresis" unicode="ë" horiz-adv-x="1178" d="M428 440c1.333-16 3.998-31.333 7.998-46 6.667-25.333 17.834-47.5 33.5-66.5s36.168-34 61.5-45 56-16.5 92-16.5c26.668 0 51.168 2.667 73.5 8s43.5 12.833 63.5 22.5 39.168 21.167 57.5 34.5 36.5 28 54.5 44l220-193c-67.332-72-145-124.833-233-158.5S676.333-27 575-27C509.667-27 448.334-16.333 391 5S283.667 56.833 241 96.5 164.5 184.334 139.5 241 102 361.336 102 432.003c0 95.333 17.167 182 51.5 260S234 836.835 292 892.502s125.167 98.667 201.5 129 156.833 45.5 241.5 45.5c67.333 0 129.333-11.833 186-35.5s105.5-55.334 146.5-95 73-85.5 96-137.5 34.5-106 34.5-162c0-13.334-.667-28.334-2-45s-3.333-33.835-6-51.502-6-35.167-10-52.5-8.333-33.333-13-48H428zm42.998 240c-2.667-4.667-5.002-9.332-7.002-14h433c-1.333 18-7.166 35.5-17.5 52.5s-24 32.168-41 45.5-37 24.167-60 32.5-48.5 12.5-76.5 12.5c-33.332 0-65.165-5-95.498-15s-57-24.5-80-43.5-41.5-42.5-55.5-70.5zm-144.002 663c0 24.667 4.5 47.834 13.5 69.5s21.5 40.668 37.5 57 34.833 29.167 56.5 38.5 45.167 14 70.5 14c24 0 46.667-4.667 68-14s40-22.166 56-38.5 28.667-35.332 38-57 14-44.833 14-69.5-4.667-47.834-14-69.5-22-40.5-38-56.5-34.667-28.668-56-38-44-14-68-14c-25.333 0-48.833 4.666-70.5 14s-40.5 22-56.5 38-28.5 34.832-37.5 56.5-13.5 44.833-13.5 69.5zm479 0c0 24.667 4.667 47.834 14 69.5s22 40.668 38 57 34.833 29.167 56.5 38.5 45.167 14 70.5 14c24 0 46.667-4.667 68-14s40-22.166 56-38.5 28.667-35.332 38-57 14-44.833 14-69.5-4.667-47.834-14-69.5-22-40.5-38-56.5-34.667-28.668-56-38-44-14-68-14c-25.333 0-48.833 4.666-70.5 14s-40.5 22-56.5 38-28.667 34.832-38 56.5-14 44.833-14 69.5z"/><glyph glyph-name="igrave" unicode="ì" horiz-adv-x="860" d="M141 1036h564L528 274h240L705 0H123l176 762H78zm295 142l-293 286v25h326l196-311H436z"/><glyph glyph-name="iacute" unicode="í" horiz-adv-x="860" d="M141 1036h564L528 274h240L705 0H123l176 762H78zm444 453h326v-25l-306-286H370z"/><glyph glyph-name="icircumflex" unicode="î" horiz-adv-x="860" d="M141 1036h564L528 274h240L705 0H123l176 762H78zm-41 142l323 325h246l164-325H585l-66 157-142-157H100z"/><glyph glyph-name="idieresis" unicode="ï" horiz-adv-x="860" d="M141 1036h564L528 274h240L705 0H123l176 762H78zm92 306c0 44 15.333 81.668 46 113s68.667 47 114 47c22 0 42.5-4 61.5-12s35.667-19.166 50-33.5 25.666-31.5 34-51.5 12.5-41 12.5-63c0-21.332-4.168-42-12.5-62s-19.667-37.166-34-51.5-31-25.5-50-33.5-39.5-12-61.5-12c-45.333 0-83.333 15.668-114 47s-46 68.667-46 112zm377 0c0 44 15.333 81.668 46 113s68.667 47 114 47c21.333 0 41.666-4 61-12s36.165-19.166 50.498-33.5 25.5-31.5 33.5-51.5 12-41 12-63c0-21.332-4-42-12-62s-19.167-37.166-33.5-51.5-31.166-25.5-50.5-33.5-39.665-12-60.998-12c-45.333 0-83.333 15.668-114 47s-46 68.667-46 112z"/><glyph glyph-name="eth" unicode="ð" d="M453 1360l65.997 21c-31.333 30.666-63.666 60.333-97 89l-104 86h405l52.5-36c17-12 33.168-24.667 48.5-38l189 63 85-261-71-24c30-46 56-94.167 78-144.5s40.168-102.833 54.5-157.5 25-111.667 32-171 10.5-120.333 10.5-183c0-38.667-4.5-81-13.5-127s-23.666-92.333-44-139-46.665-91.834-78.998-135.5-72-82.335-119-116.002S845 25.83 783 5.498s-132.668-30.5-212-30.5c-67.334 0-129.5 12.167-186.5 36.5S278 68.83 236 110.498s-74.834 90.5-98.5 146.5-35.5 115.667-35.5 179 7.832 122.666 23.5 178 36.833 105.832 63.5 151.5 58 86.333 94 122 74.667 65.834 116 90.5 84 43.335 128 56.002 87.667 19 131 19c23.333 0 44.5.167 63.5.5s36.167-.167 51.5-1.5c-10 18-20.333 35.5-31 52.5l-33 51.5-170-56zm423.497-774c-.333 6.666-.5 13.334-.5 20s-.168 13.335-.5 20.002-6.334 22.834-18 48.5-32.835 47.668-63.502 66-62 27.5-94 27.5c-25.333 0-49.5-3.332-72.5-10s-44.667-16.333-65-29-38.666-27.834-55-45.5-30.5-37.335-42.5-59.002-21.166-45.334-27.5-71-9.5-52.5-9.5-80.5c0-23.334 2.834-46.834 8.5-70.5s15.335-45 29.002-64 31.667-34.5 54-46.5 50.5-18 84.5-18c32 0 64.333 7.5 97 22.5s62 35.666 88 62 47.167 57.332 63.5 93 24.5 74.166 24.5 115.5c0 6-.167 12.332-.5 19z"/><glyph glyph-name="ntilde" unicode="ñ" horiz-adv-x="1421" d="M207 1036h525.998l-15-74-1-10c30 22.666 61 42 93 58s65 28.5 99 37.5 69 13.5 105 13.5c58 0 108.667-9.668 152-29s78-47 104-83 42.5-80.168 49.5-132.5 2.833-111.5-12.5-177.5l-85-365h189l-63-274h-531l129 557c6 25.332 7.833 48.5 5.5 69.5s-7.666 39-16 54S915.834 707 901.5 715s-30.833 12-49.5 12c-34 0-76-13-126-39-26-13.334-53-30.667-81-52L498 0H147l176 762H143zm507.998 443c28 0 55.002-4.832 81.002-14.5s51.5-20.333 76.5-32 49.333-22.334 73-32 47.167-14.5 70.5-14.5c28 0 52.833 5 74.5 15s41.167 27.666 58.5 53l158-70c-10-30-24.167-58-42.5-84s-39.5-48.834-63.5-68.5-50.333-35-79-46-58.667-16.5-90-16.5c-34.667 0-66 4.5-94 13.5s-54.5 19-79.5 30-49.5 21.166-73.5 30.5-49.333 14-76 14c-30 0-55.333-6.168-76-18.5s-37.667-27.167-51-44.5l-152 70c9.333 36 25.166 67.333 47.5 94s47.165 49 74.498 67 55.5 31.5 84.5 40.5 55.167 13.5 78.5 13.5z"/><glyph glyph-name="ograve" unicode="ò" d="M102 436c0 95.333 17.166 181.833 51.5 259.5s80.5 144 138.5 199S417.165 992 493.5 1022s156.832 45 241.5 45c65.332 0 126.5-12 183.5-36s106.5-56.833 148.5-98.5 75-90.667 99-147 36-116.833 36-181.5c0-91.333-16.168-175.333-48.5-252s-76.667-143-133-199-123-99.667-200-131S660.333-25 571-25c-67.333 0-129.5 12.167-186.5 36.5S278 68.833 236 110.5 161.167 201 137.5 257 102 372.667 102 436zm326 37c0-29.333 4.327-56.163 12.994-80.496s20.834-45.333 36.5-63 34.335-31.334 56.002-41 45.167-14.5 70.5-14.5c34.667 0 68.334 7.5 101 22.5s61.835 35.666 87.502 62 46.167 57.332 61.5 93 23 74.166 23 115.5c0 34-4.833 63.5-14.5 88.5s-22.5 45.832-38.5 62.5-34.667 29.166-56 37.5-44 12.5-68 12.5c-38 0-73.5-7.834-106.5-23.5s-61.667-36.835-86-63.502-43.666-57.834-58-93.5S428 513.666 428 473zm212.994 705l-293 286v25h326l196-311h-229z"/><glyph glyph-name="oacute" unicode="ó" d="M102 436c0 95.333 17.166 181.833 51.5 259.5s80.5 144 138.5 199S417.165 992 493.5 1022s156.832 45 241.5 45c65.332 0 126.5-12 183.5-36s106.5-56.833 148.5-98.5 75-90.667 99-147 36-116.833 36-181.5c0-91.333-16.168-175.333-48.5-252s-76.667-143-133-199-123-99.667-200-131S660.333-25 571-25c-67.333 0-129.5 12.167-186.5 36.5S278 68.833 236 110.5 161.167 201 137.5 257 102 372.667 102 436zm326 37c0-29.333 4.327-56.163 12.994-80.496s20.834-45.333 36.5-63 34.335-31.334 56.002-41 45.167-14.5 70.5-14.5c34.667 0 68.334 7.5 101 22.5s61.835 35.666 87.502 62 46.167 57.332 61.5 93 23 74.166 23 115.5c0 34-4.833 63.5-14.5 88.5s-22.5 45.832-38.5 62.5-34.667 29.166-56 37.5-44 12.5-68 12.5c-38 0-73.5-7.834-106.5-23.5s-61.667-36.835-86-63.502-43.666-57.834-58-93.5S428 513.666 428 473zm372.994 1016h326v-25l-306-286h-235z"/><glyph glyph-name="ocircumflex" unicode="ô" d="M102 436c0 95.333 17.166 181.833 51.5 259.5s80.5 144 138.5 199S417.165 992 493.5 1022s156.832 45 241.5 45c65.332 0 126.5-12 183.5-36s106.5-56.833 148.5-98.5 75-90.667 99-147 36-116.833 36-181.5c0-91.333-16.168-175.333-48.5-252s-76.667-143-133-199-123-99.667-200-131S660.333-25 571-25c-67.333 0-129.5 12.167-186.5 36.5S278 68.833 236 110.5 161.167 201 137.5 257 102 372.667 102 436zm326 37c0-29.333 4.327-56.163 12.994-80.496s20.834-45.333 36.5-63 34.335-31.334 56.002-41 45.167-14.5 70.5-14.5c34.667 0 68.334 7.5 101 22.5s61.835 35.666 87.502 62 46.167 57.332 61.5 93 23 74.166 23 115.5c0 34-4.833 63.5-14.5 88.5s-22.5 45.832-38.5 62.5-34.667 29.166-56 37.5-44 12.5-68 12.5c-38 0-73.5-7.834-106.5-23.5s-61.667-36.835-86-63.502-43.666-57.834-58-93.5S428 513.666 428 473zm-82.006 705l357 325h239l197-325h-248l-96 157-172-157h-277z"/><glyph glyph-name="otilde" unicode="õ" d="M102 436c0 95.333 17.166 181.833 51.5 259.5s80.5 144 138.5 199S417.165 992 493.5 1022s156.832 45 241.5 45c65.332 0 126.5-12 183.5-36s106.5-56.833 148.5-98.5 75-90.667 99-147 36-116.833 36-181.5c0-91.333-16.168-175.333-48.5-252s-76.667-143-133-199-123-99.667-200-131S660.333-25 571-25c-67.333 0-129.5 12.167-186.5 36.5S278 68.833 236 110.5 161.167 201 137.5 257 102 372.667 102 436zm326 37c0-29.333 4.327-56.163 12.994-80.496s20.834-45.333 36.5-63 34.335-31.334 56.002-41 45.167-14.5 70.5-14.5c34.667 0 68.334 7.5 101 22.5s61.835 35.666 87.502 62 46.167 57.332 61.5 93 23 74.166 23 115.5c0 34-4.833 63.5-14.5 88.5s-22.5 45.832-38.5 62.5-34.667 29.166-56 37.5-44 12.5-68 12.5c-38 0-73.5-7.834-106.5-23.5s-61.667-36.835-86-63.502-43.666-57.834-58-93.5S428 513.666 428 473zm147.994 1006c28 0 55.002-4.832 81.002-14.5s51.5-20.333 76.5-32 49.333-22.334 73-32 47.167-14.5 70.5-14.5c28 0 52.833 5 74.5 15s41.167 27.666 58.5 53l158-70c-10-30-24.167-58-42.5-84s-39.5-48.834-63.5-68.5-50.333-35-79-46-58.667-16.5-90-16.5c-34.667 0-66 4.5-94 13.5s-54.5 19-79.5 30-49.5 21.166-73.5 30.5-49.333 14-76 14c-30 0-55.333-6.168-76-18.5s-37.667-27.167-51-44.5l-152 70c9.333 36 25.166 67.333 47.5 94s47.165 49 74.498 67 55.5 31.5 84.5 40.5 55.167 13.5 78.5 13.5z"/><glyph glyph-name="odieresis" unicode="ö" d="M102 436c0 95.333 17.166 181.833 51.5 259.5s80.5 144 138.5 199S417.165 992 493.5 1022s156.832 45 241.5 45c65.332 0 126.5-12 183.5-36s106.5-56.833 148.5-98.5 75-90.667 99-147 36-116.833 36-181.5c0-91.333-16.168-175.333-48.5-252s-76.667-143-133-199-123-99.667-200-131S660.333-25 571-25c-67.333 0-129.5 12.167-186.5 36.5S278 68.833 236 110.5 161.167 201 137.5 257 102 372.667 102 436zm326 37c0-29.333 4.327-56.163 12.994-80.496s20.834-45.333 36.5-63 34.335-31.334 56.002-41 45.167-14.5 70.5-14.5c34.667 0 68.334 7.5 101 22.5s61.835 35.666 87.502 62 46.167 57.332 61.5 93 23 74.166 23 115.5c0 34-4.833 63.5-14.5 88.5s-22.5 45.832-38.5 62.5-34.667 29.166-56 37.5-44 12.5-68 12.5c-38 0-73.5-7.834-106.5-23.5s-61.667-36.835-86-63.502-43.666-57.834-58-93.5S428 513.666 428 473zm-91.006 870c0 24.667 4.5 47.834 13.5 69.5s21.5 40.668 37.5 57 34.833 29.167 56.5 38.5 45.167 14 70.5 14c24 0 46.667-4.667 68-14s40-22.166 56-38.5 28.667-35.332 38-57 14-44.833 14-69.5-4.667-47.834-14-69.5-22-40.5-38-56.5-34.667-28.668-56-38-44-14-68-14c-25.333 0-48.833 4.666-70.5 14s-40.5 22-56.5 38-28.5 34.832-37.5 56.5-13.5 44.833-13.5 69.5zm479 0c0 24.667 4.667 47.834 14 69.5s22 40.668 38 57 34.833 29.167 56.5 38.5 45.167 14 70.5 14c24 0 46.667-4.667 68-14s40-22.166 56-38.5 28.667-35.332 38-57 14-44.833 14-69.5-4.667-47.834-14-69.5-22-40.5-38-56.5-34.667-28.668-56-38-44-14-68-14c-25.333 0-48.833 4.666-70.5 14s-40.5 22-56.5 38-28.667 34.832-38 56.5-14 44.833-14 69.5z"/><glyph glyph-name="divide" unicode="÷" horiz-adv-x="1100" d="M693 1085c24 0 46.667-4.667 68-14s40-22 56-38 28.667-34.833 38-56.5 14-44.834 14-69.5-4.667-47.835-14-69.502-22-40.5-38-56.5-34.667-28.667-56-38-44-14-68-14c-25.333 0-48.833 4.667-70.5 14s-40.5 22-56.5 38-28.667 34.833-38 56.5-14 44.834-14 69.5 4.667 47.835 14 69.502 22 40.5 38 56.5 34.833 28.667 56.5 38 45.167 14 70.5 14zM530 323c24 0 46.667-4.667 68-14s40-22 56-38 28.667-34.833 38-56.5 14-44.834 14-69.5-4.667-47.835-14-69.502-22-40.5-38-56.5-34.667-28.667-56-38-44-14-68-14c-25.333 0-48.833 4.667-70.5 14s-40.5 22-56.5 38-28.667 34.833-38 56.5-14 44.834-14 69.5 4.667 47.835 14 69.502 22 40.5 38 56.5 34.833 28.667 56.5 38 45.167 14 70.5 14zM50 383l64 275h975l-64-275H50z"/><glyph glyph-name="oslash" unicode="ø" d="M125.5 611c15.667 56 37.498 107.668 65.498 155s61.5 89.5 100.5 126.5 82 68.5 129 94.5 97.167 45.834 150.5 59.5 108 20.5 164 20.5c46 0 90-6.166 132-18.5s81-29.832 117-52.5l108 108h292l-253-256c22.667-36 40.167-74.832 52.5-116.5s18.5-85.5 18.5-131.5c0-60.666-7.333-118.333-22-173s-35.5-105.334-62.5-152-59.5-89-97.5-127-80.333-70.168-127-96.5-97.167-46.667-151.5-61S630.332-31 570.998-31c-46 0-89.666 5.833-131 17.5S360.334 14.667 325 36l-96-97H-70l243 244c-22.667 36-40.167 75-52.5 117S102 386 102 432c0 63.333 7.833 123 23.5 179zm773.498-46c0 10.668-.667 21.002-2 31.002s-3.333 19.667-6 29l-347-351c8.667-2.667 17.667-4.667 27-6s19-2 29-2c38 0 75 7.833 111 23.5s67.833 37 95.5 64 50 58.667 67 95 25.5 75.166 25.5 116.5zm-484-157.998L765.996 760c-9.333 3.333-19.166 5.833-29.5 7.5s-20.832 2.5-31.5 2.5c-41.332 0-80.165-8.167-116.498-24.5s-68-38.166-95-65.5-48.333-59.165-64-95.498-23.5-74.833-23.5-115.5c0-21.333 3-42 9-62z"/><glyph glyph-name="ugrave" unicode="ù" horiz-adv-x="1356" d="M846 1036h477.002l-177-762h191l-63-274h-500l19 81c-20.667-16.667-42.334-31.334-65-44C699.333 21 668 8.83 634 .5S562.667-12 522-12c-68 0-129.168 13-183.5 39S246 86.83 224 128.5s-35.5 86.833-40.5 135.5.832 102.667 17.5 162l77 336H111l63 274h488L526 451c-6.668-28.667-8-54.5-4-77.5s12.332-42.667 25-59 29.166-28.833 49.5-37.5 43.5-13 69.5-13c21.332 0 42.665 3.667 63.998 11s41.5 17.5 60.5 30.5S828 335 846 355l94 407H782zm-165.998 142l-293 286v25h326l196-311h-229z"/><glyph glyph-name="uacute" unicode="ú" horiz-adv-x="1356" d="M846 1036h477.002l-177-762h191l-63-274h-500l19 81c-20.667-16.667-42.334-31.334-65-44C699.333 21 668 8.83 634 .5S562.667-12 522-12c-68 0-129.168 13-183.5 39S246 86.83 224 128.5s-35.5 86.833-40.5 135.5.832 102.667 17.5 162l77 336H111l63 274h488L526 451c-6.668-28.667-8-54.5-4-77.5s12.332-42.667 25-59 29.166-28.833 49.5-37.5 43.5-13 69.5-13c21.332 0 42.665 3.667 63.998 11s41.5 17.5 60.5 30.5S828 335 846 355l94 407H782zm-65.998 453h326v-25l-306-286h-235z"/><glyph glyph-name="ucircumflex" unicode="û" horiz-adv-x="1356" d="M846 1036h477.002l-177-762h191l-63-274h-500l19 81c-20.667-16.667-42.334-31.334-65-44C699.333 21 668 8.83 634 .5S562.667-12 522-12c-68 0-129.168 13-183.5 39S246 86.83 224 128.5s-35.5 86.833-40.5 135.5.832 102.667 17.5 162l77 336H111l63 274h488L526 451c-6.668-28.667-8-54.5-4-77.5s12.332-42.667 25-59 29.166-28.833 49.5-37.5 43.5-13 69.5-13c21.332 0 42.665 3.667 63.998 11s41.5 17.5 60.5 30.5S828 335 846 355l94 407H782zm-465.998 142l357 325h239l197-325h-248l-96 157-172-157h-277z"/><glyph glyph-name="udieresis" unicode="ü" horiz-adv-x="1356" d="M846 1036h477.002l-177-762h191l-63-274h-500l19 81c-20.667-16.667-42.334-31.334-65-44C699.333 21 668 8.83 634 .5S562.667-12 522-12c-68 0-129.168 13-183.5 39S246 86.83 224 128.5s-35.5 86.833-40.5 135.5.832 102.667 17.5 162l77 336H111l63 274h488L526 451c-6.668-28.667-8-54.5-4-77.5s12.332-42.667 25-59 29.166-28.833 49.5-37.5 43.5-13 69.5-13c21.332 0 42.665 3.667 63.998 11s41.5 17.5 60.5 30.5S828 335 846 355l94 407H782zm-498.998 307c0 24.667 4.5 47.834 13.5 69.5s21.5 40.668 37.5 57 34.833 29.167 56.5 38.5 45.167 14 70.5 14c24 0 46.667-4.667 68-14s40-22.166 56-38.5 28.667-35.332 38-57 14-44.833 14-69.5-4.667-47.834-14-69.5-22-40.5-38-56.5-34.667-28.668-56-38-44-14-68-14c-25.333 0-48.833 4.666-70.5 14s-40.5 22-56.5 38-28.5 34.832-37.5 56.5-13.5 44.833-13.5 69.5zm479 0c0 24.667 4.667 47.834 14 69.5s22 40.668 38 57 34.833 29.167 56.5 38.5 45.167 14 70.5 14c24 0 46.667-4.667 68-14s40-22.166 56-38.5 28.667-35.332 38-57 14-44.833 14-69.5-4.667-47.834-14-69.5-22-40.5-38-56.5-34.667-28.668-56-38-44-14-68-14c-25.333 0-48.833 4.666-70.5 14s-40.5 22-56.5 38-28.667 34.832-38 56.5-14 44.833-14 69.5z"/><glyph glyph-name="yacute" unicode="ý" horiz-adv-x="1126" d="M106 1036h512l-63-274h-77l66-393 246 393h-85l63 274h512l-63-274h-81L502-197h125l-74-274H-20l73 274h136L315 3 148 762H43zm650 484h326v-25l-306-286H541z"/><glyph glyph-name="thorn" unicode="þ" horiz-adv-x="1343" d="M283 1556l534-.002-137-593c23.334 27.333 56.5 50.5 99.5 69.5s93.834 28.5 152.5 28.5c66 0 125.668-11.833 179-35.5s98.667-56.167 136-97.5 66.166-89.833 86.5-145.5 30.5-115.167 30.5-178.5c0-91.333-16.834-175.166-50.5-251.5s-79.5-142-137.5-197-126.168-97.666-204.5-128S809.665-18 721-18c-22 0-45 1.668-69 5s-47.334 8-70 14-43.668 13.334-63 22S483.332 41.334 470 52l-57-249h162l-63-274h-676l64 274H73l341 1479H219zm559-815.002c-47.332 0-92.502-12.002-135.502-36.002s-78.833-56-107.5-96l-52-222c8.667-18 20.334-33.667 35-47s31.168-24.5 49.5-33.5 37.834-15.833 58.5-20.5 41.335-7 62.002-7c36 0 70 7 102 21s59.833 33.167 83.5 57.5 42.334 53 56 86 20.5 68.167 20.5 105.5c0 28.667-4.332 54.834-13 78.5S980.335 671.332 965 688s-33.5 29.667-54.5 39-43.832 14-68.5 14z"/><glyph glyph-name="ydieresis" unicode="ÿ" horiz-adv-x="1126" d="M106 1036h512l-63-274h-77l66-393 246 393h-85l63 274h512l-63-274h-81L502-197h125l-74-274H-20l73 274h136L315 3 148 762H43zm171 336c0 24.667 4.5 47.834 13.5 69.5s21.5 40.668 37.5 57 34.833 29.167 56.5 38.5 45.167 14 70.5 14c24 0 46.667-4.667 68-14s40-22.166 56-38.5 28.667-35.332 38-57 14-44.833 14-69.5-4.667-47.834-14-69.5-22-40.5-38-56.5-34.667-28.668-56-38-44-14-68-14c-25.333 0-48.833 4.666-70.5 14s-40.5 22-56.5 38-28.5 34.832-37.5 56.5-13.5 44.833-13.5 69.5zm479 0c0 24.667 4.667 47.834 14 69.5s22 40.668 38 57 34.833 29.167 56.5 38.5 45.167 14 70.5 14c24 0 46.667-4.667 68-14s40-22.166 56-38.5 28.667-35.332 38-57 14-44.833 14-69.5-4.667-47.834-14-69.5-22-40.5-38-56.5-34.667-28.668-56-38-44-14-68-14c-25.333 0-48.833 4.666-70.5 14s-40.5 22-56.5 38-28.667 34.832-38 56.5-14 44.833-14 69.5z"/><glyph glyph-name="Amacron" unicode="Ā" horiz-adv-x="1479" d="M907 274h84l-16 209H557L446 274h127L510 0h-612l63 274H89l689 1242h436l114-1242h192L1456 0H844zM711 772h243l-30 402zm590 884H613l43 215h688z"/><glyph glyph-name="amacron" unicode="ā" horiz-adv-x="1391" d="M786 79c-24.667-26-57.333-48-98-66-43.333-19.332-94.333-29-153-29-54 0-107 9.668-159 29s-98.167 48.167-138.5 86.5-73 85.833-98 142.5S102 364 102 438c0 64 8.333 123.833 25 179.5s39.667 106.667 69 153S260.166 858 300.5 894s84.332 66.333 132 91 98 43.5 151 56.5S690.33 1061 745 1061c30.666 0 56.833-2 78.5-6s46.5-10 74.5-18 60.667-25.333 98-52l12 51h340l-177-762h191L1298 0H768zm37 293L867 427l50 216c-8 15.333-18.332 30.166-31 44.5s-28.5 26.832-47.5 37.5-39.666 18.833-62 24.5-44.832 8.5-67.5 8.5c-36 0-70.332-7.167-103-21.5s-61.166-33.666-85.5-58S476.67 625.334 462 592s-22-69-22-107c0-32 5-60 15-84s23.668-44 41-60 37.334-28 60-36 47-12 73-12c22 0 44.5 2.833 67.5 8.5s45.168 14.334 66.5 26 41.334 26.5 60 44.5zm257 804H392l43 215h688z"/><glyph glyph-name="Abreve" unicode="Ă" horiz-adv-x="1479" d="M907 274h84l-16 209H557L446 274h127L510 0h-612l63 274H89l689 1242h436l114-1242h192L1456 0H844zM711 772h243l-30 402zm287 865c-63.333 0-119.002 7.17-167.002 21.502s-89.667 35.333-125 63-65.166 61.5-89.5 101.5-44.5 86-60.5 138h252c13.334-40 35.834-70.5 67.5-91.5s72.5-31.5 122.5-31.5c48 0 87.334 9.667 118 29s54.335 50.666 71.002 94h250c-14.667-51.334-34-97-58-137s-53.833-73.834-89.5-101.5S1212 1673.666 1164 1659s-103.333-22-166-22z"/><glyph glyph-name="abreve" unicode="ă" horiz-adv-x="1391" d="M786 79c-24.667-26-57.333-48-98-66-43.333-19.332-94.333-29-153-29-54 0-107 9.668-159 29s-98.167 48.167-138.5 86.5-73 85.833-98 142.5S102 364 102 438c0 64 8.333 123.833 25 179.5s39.667 106.667 69 153S260.166 858 300.5 894s84.332 66.333 132 91 98 43.5 151 56.5S690.33 1061 745 1061c30.666 0 56.833-2 78.5-6s46.5-10 74.5-18 60.667-25.333 98-52l12 51h340l-177-762h191L1298 0H768zm37 293L867 427l50 216c-8 15.333-18.332 30.166-31 44.5s-28.5 26.832-47.5 37.5-39.666 18.833-62 24.5-44.832 8.5-67.5 8.5c-36 0-70.332-7.167-103-21.5s-61.166-33.666-85.5-58S476.67 625.334 462 592s-22-69-22-107c0-32 5-60 15-84s23.668-44 41-60 37.334-28 60-36 47-12 73-12c22 0 44.5 2.833 67.5 8.5s45.168 14.334 66.5 26 41.334 26.5 60 44.5zm-60 785c-63.332 0-119 7.17-167 21.502s-89.668 35.333-125 63-65.167 61.5-89.5 101.5-44.5 86-60.5 138h252c13.333-40 35.833-70.5 67.5-91.5s72.5-31.5 122.5-31.5c48 0 87.333 9.667 118 29s54.334 50.666 71 94h250c-14.666-51.334-34-97-58-137s-53.832-73.834-89.5-101.5S977 1193.666 929 1179s-103.332-22-166-22z"/><glyph glyph-name="Aogonek" unicode="Ą" horiz-adv-x="1479" d="M-39 274H88l690 1242h436l113-1242h193L1456 0h-194c-62 0-116.834-6.5-164.5-19.5s-87.5-30-119.5-51-56.5-44.168-73.5-69.5-25.5-50.334-25.5-75c0-26 8.166-43.834 24.5-53.5S935.33-283 950-283c26 0 47.832 2.166 65.5 6.5s33.5 9.832 47.5 16.5l49-170c-14.668-8-39.168-16.834-73.5-26.5S969.332-471 934-471c-41.333 0-79.333 4.832-114 14.5s-65.334 23.333-92 41-47.5 39.5-62.5 65.5-22.5 56-22.5 90c0 57.333 19.832 107.5 59.5 150.5S789.332-30 844 0l63 274h84l-16 209H557L446 274h127L510 0h-612zm750 498h241l-28 402z"/><glyph glyph-name="aogonek" unicode="ą" horiz-adv-x="1391" d="M1348 1036l-177-762.002h191l-64-274h-120c-38.667 0-79.5-6.167-122.5-18.5s-82.167-28.666-117.5-49-65-43.5-89-69.5-36-52.666-36-80c0-26 9.167-43.832 27.5-53.5S875.666-285 891-285c26 0 46.832 2.168 62.5 6.5s30.166 9.834 43.5 16.5l50-170c-15.334-8-40-16.832-74-26.5S904-473 868-473c-40.668 0-78.5 4.834-113.5 14.5s-65.668 23.335-92 41.002-47 39.5-62 65.5-22.5 56-22.5 90c0 53.333 18 102.5 54 147.5S713.33-31.333 768 0l18 78c-25.334-27.333-59.167-49.833-101.5-67.5S592.334-16 535-16c-53.332 0-106 9.833-158 29.5s-98.5 48.667-139.5 87S163.67 186.333 139 243s-37 121.667-37 195c0 96 18.168 182.5 54.5 259.5S240.668 840 300 894s128 95.333 206 124 157.667 43 239 43c48 0 95.167-7.167 141.5-21.5S969 1007 995 985l13 51h340zM629 292.998c42 0 84.83 10.502 128.498 31.502s79.834 54.833 108.5 101.5l49 217c-17.332 36.667-45.165 65-83.498 85s-79.166 30-122.5 30c-36 0-70.332-7.167-103-21.5s-61.333-33.833-86-58.5-44.167-53.334-58.5-86S440 523.664 440 484.997c0-64 18.5-112 55.5-144s81.5-48 133.5-48z"/><glyph glyph-name="Cacute" unicode="Ć" horiz-adv-x="1493" d="M1133.5 1165.5c-43.667 28.333-97.837 42.5-162.504 42.5-45.333 0-89.333-7.167-132-21.5s-82.834-34.333-120.5-60-72-56.167-103-91.5-57.668-74-80-116-39.667-86.5-52-133.5-18.5-95.167-18.5-144.5c0-50 7-95.5 21-136.5s34.167-76.333 60.5-106 58-52.667 95-69 78.5-24.5 124.5-24.5c36.667 0 71 5 103 15s61.833 23.833 89.5 41.5 52.834 38.334 75.5 62S1077.332 472.67 1096 500l317-158c-76-120-171.5-212.166-286.5-276.5S878.33-31 726.998-31c-90.667 0-174.167 15.5-250.5 46.5S334.165 90 278.498 146s-99 123.168-130 201.5-46.5 165.167-46.5 260.5c0 94.667 12 183.5 36 266.5s57.167 159.167 99.5 228.5 92.333 131.333 150 186 120.334 100.834 188 138.5 138.668 66.5 213 86.5 149.5 30 225.5 30c60.668 0 116.668-6.332 168-19s98.334-30.666 141-54 76.835-47.832 102.502-73.5 46.167-48.5 61.5-68.5h190l-63-274h-389c-17.333 45.334-47.833 82.167-91.5 110.5zM1056 1969h326v-25l-306-286H841z"/><glyph glyph-name="cacute" unicode="ć" horiz-adv-x="1171" d="M852 668c-10.667 28-30.33 50.667-58.998 68s-59.667 26-93 26c-37.333 0-72.5-7.5-105.5-22.5s-61.833-35.667-86.5-62-44.167-57-58.5-92-21.5-72.5-21.5-112.5c0-30 4.833-56.833 14.5-80.5s22.5-44 38.5-61 34.667-30 56-39 43.666-13.5 67-13.5c55.332 0 101.5 12.833 138.5 38.5S810 376.667 834 418l272-148c-21.334-41.333-49.334-80-84-116s-75-67.333-121-94-96.834-47.5-152.5-62.5S633.666-25 571-25c-67.333 0-129.5 12.167-186.5 36.5S278 68.833 236 110.5 161.167 201 137.5 257 102 372.667 102 436c0 95.333 17.167 181.833 51.5 259.5s80.5 144 138.5 199S417.167 992 493.5 1022s156.833 45 241.5 45c53.333 0 102.666-7.667 148-23s86.332-36.333 123-63c16.666-12 32.333-25 47-39h192l-63-274H852zm-115.997 821h326v-25l-306-286h-235z"/><glyph glyph-name="Ccaron" unicode="Č" horiz-adv-x="1493" d="M1133.5 1165.5c-43.667 28.333-97.837 42.5-162.504 42.5-45.333 0-89.333-7.167-132-21.5s-82.834-34.333-120.5-60-72-56.167-103-91.5-57.668-74-80-116-39.667-86.5-52-133.5-18.5-95.167-18.5-144.5c0-50 7-95.5 21-136.5s34.167-76.333 60.5-106 58-52.667 95-69 78.5-24.5 124.5-24.5c36.667 0 71 5 103 15s61.833 23.833 89.5 41.5 52.834 38.334 75.5 62S1077.332 472.67 1096 500l317-158c-76-120-171.5-212.166-286.5-276.5S878.33-31 726.998-31c-90.667 0-174.167 15.5-250.5 46.5S334.165 90 278.498 146s-99 123.168-130 201.5-46.5 165.167-46.5 260.5c0 94.667 12 183.5 36 266.5s57.167 159.167 99.5 228.5 92.333 131.333 150 186 120.334 100.834 188 138.5 138.668 66.5 213 86.5 149.5 30 225.5 30c60.668 0 116.668-6.332 168-19s98.334-30.666 141-54 76.835-47.832 102.502-73.5 46.167-48.5 61.5-68.5h190l-63-274h-389c-17.333 45.334-47.833 82.167-91.5 110.5zM1546 1982l-356-325H950l-196 325h248l96-157 172 157h276z"/><glyph glyph-name="ccaron" unicode="č" horiz-adv-x="1171" d="M852 668c-10.667 28-30.33 50.667-58.998 68s-59.667 26-93 26c-37.333 0-72.5-7.5-105.5-22.5s-61.833-35.667-86.5-62-44.167-57-58.5-92-21.5-72.5-21.5-112.5c0-30 4.833-56.833 14.5-80.5s22.5-44 38.5-61 34.667-30 56-39 43.666-13.5 67-13.5c55.332 0 101.5 12.833 138.5 38.5S810 376.667 834 418l272-148c-21.334-41.333-49.334-80-84-116s-75-67.333-121-94-96.834-47.5-152.5-62.5S633.666-25 571-25c-67.333 0-129.5 12.167-186.5 36.5S278 68.833 236 110.5 161.167 201 137.5 257 102 372.667 102 436c0 95.333 17.167 181.833 51.5 259.5s80.5 144 138.5 199S417.167 992 493.5 1022s156.833 45 241.5 45c53.333 0 102.666-7.667 148-23s86.332-36.333 123-63c16.666-12 32.333-25 47-39h192l-63-274H852zm327 835l-356-325H583l-196 325h248l96-157 172 157h276z"/><glyph glyph-name="Dcaron" unicode="Ď" horiz-adv-x="1585" d="M412 1516h608c91.332 0 175.332-14 252-42s142.833-68.5 198.5-121.5 99-118.168 130-195.5 46.5-165.334 46.5-264c0-83.334-9.667-163.167-29-239.5S1570.334 506 1533 440s-83.332-126-138-180-117.333-100.333-188-139-149.167-68.5-235.5-89.5S792 0 692 0H61l64 274h155l224 967H348zm443-275L630 274h107c48.668 0 95.835 7.167 141.502 21.5s88.667 34.333 129 60 77.333 56.5 111 92.5 62.667 75.833 87 119.5 43.166 90.5 56.5 140.5 20 102 20 156c0 70-8.834 129-26.5 177s-41.335 86.833-71.002 116.5-63.834 51-102.5 64-79 19.5-121 19.5H855zm351 660l-356-325H610l-196 325h248l96-157 172 157h276z"/><glyph glyph-name="dcaron" unicode="ď" horiz-adv-x="1638" d="M920 1556h546.003l-295-1282h191l-64-274h-530l18 78c-10.667-12-23.334-23.334-38-34-16.668-12-36-22.668-58-32s-46-16.667-72-22-53.668-8-83-8c-68 0-128.834 12.333-182.5 37s-99 57.834-136 99.5-65.334 90-85 145-29.5 113.168-29.5 174.5c0 64 8.332 123.834 25 179.5s39.666 106.668 69 153S260.167 858 300.5 894s84.334 66.334 132 91 98 43.5 151 56.5S690.335 1061 745 1061c23.334 0 47.334-1.832 72-5.5s48.5-8.833 71.5-15.5 44.168-14.667 63.5-24c17.334-8 31.667-17 43-27l68 293H856zM765.003 343c40.667 22 74.667 51.665 102 88.998l52 226c-6 12-13.667 23.333-23 34-14.667 16-31.667 29.333-51 40s-40.166 18.667-62.5 24-44.832 8-67.5 8c-36 0-69.832-6.833-101.5-20.5s-59.5-32.5-83.5-56.5-42.832-52.333-56.5-85-20.5-68-20.5-106c0-28.667 4.5-54.667 13.5-78s21.168-43.166 36.5-59.5 33.667-29 55-38 44.333-13.5 69-13.5c48 0 94 12 138 36zM1737 1059h-219l71 518 289 16z"/><glyph glyph-name="Dcroat" unicode="Đ" horiz-adv-x="1585" d="M88 640l64 274h195l76 327H267l64 275h608c91.332 0 175.332-14 252-42s142.833-68.5 198.5-121.5 99-118.168 130-195.5 46.5-165.334 46.5-264c0-83.334-9.667-163.167-29-239.5S1489.334 506 1452 440s-83.332-126-138-180-117.333-100.333-188-139-149.167-68.5-235.5-89.5S711 0 611 0H-20l64 274h155l85 366H88zm686 601l-76-327h252l-64-274H634l-85-366h107c48.668 0 95.835 7.167 141.502 21.5s88.667 34.333 129 60 77.333 56.5 111 92.5 62.667 75.833 87 119.5 43.166 90.5 56.5 140.5 20 102 20 156c0 70-8.834 129-26.5 177s-41.335 86.833-71.002 116.5-63.834 51-102.5 64-79 19.5-121 19.5H774z"/><glyph glyph-name="dcroat" unicode="đ" horiz-adv-x="1423" d="M1360 1100l-94-413-95-413h191l-31.5-136.5L1298 0H768c2.668 13.332 5.668 26.165 9 38.498s6.334 25.5 9 39.5c-22.666-27.333-55.833-50.166-99.5-68.5S592.333-18 535-18c-68.667 0-129.667 12.168-183 36.5s-98.333 57.334-135 99-65 90.168-85 145.5-30 113.667-30 175c0 96 18.167 182.5 54.5 259.5s84.166 142.5 143.5 196.5 128 95.333 206 124 157.666 43 239 43c22 0 45-1.667 69-5s47.332-8.166 70-14.5 43.5-13.832 62.5-22.5 35.166-18.666 48.5-30c4 19.334 8.5 37.834 13.5 55.5s9.5 36.168 13.5 55.5H868c11.332 46 22 91.668 32 137s20.666 91 32 137h151c2.666 15.334 5.833 30.5 9.5 45.5s7.5 29.834 11.5 44.5c2.667 15.334 6 30.834 10 46.5l12 45.5h340c-6.667-31.332-13.667-61.665-21-90.998l-22-91h136l-32.5-137-31.5-137h-135zM627 307c46 0 90.502 10.998 133.502 32.998s78.833 52.667 107.5 92l26 111.5 26 111.5c-18 36-46.5 63.167-85.5 81.5s-78.833 27.5-119.5 27.5c-35.333 0-69.166-6.833-101.5-20.5s-60.332-32.5-84-56.5-42.333-52.333-56-85-20.5-68-20.5-106c0-57.333 16.667-103.166 50-137.5s74.666-51.5 124-51.5z"/><glyph glyph-name="Emacron" unicode="Ē" horiz-adv-x="1505" d="M393 1516h1297l-119-517h-350l55 242H855l-76-326h337l-67-290H712l-82-351h396l61 269h351L1313 0H61l64 274h155l224 967H330zm1014 140H719l43 215h688z"/><glyph glyph-name="emacron" unicode="ē" horiz-adv-x="1178" d="M428 440c1.333-16 3.998-31.333 7.998-46 6.667-25.333 17.834-47.5 33.5-66.5s36.168-34 61.5-45 56-16.5 92-16.5c26.668 0 51.168 2.667 73.5 8s43.5 12.833 63.5 22.5 39.168 21.167 57.5 34.5 36.5 28 54.5 44l220-193c-67.332-72-145-124.833-233-158.5S676.333-27 575-27C509.667-27 448.334-16.333 391 5S283.667 56.833 241 96.5 164.5 184.334 139.5 241 102 361.336 102 432.003c0 95.333 17.167 182 51.5 260S234 836.835 292 892.502s125.167 98.667 201.5 129 156.833 45.5 241.5 45.5c67.333 0 129.333-11.833 186-35.5s105.5-55.334 146.5-95 73-85.5 96-137.5 34.5-106 34.5-162c0-13.334-.667-28.334-2-45s-3.333-33.835-6-51.502-6-35.167-10-52.5-8.333-33.333-13-48H428zm42.998 240c-2.667-4.667-5.002-9.332-7.002-14h433c-1.333 18-7.166 35.5-17.5 52.5s-24 32.168-41 45.5-37 24.167-60 32.5-48.5 12.5-76.5 12.5c-33.332 0-65.165-5-95.498-15s-57-24.5-80-43.5-41.5-42.5-55.5-70.5zM1067 1176H379l43 215h688z"/><glyph glyph-name="Edotaccent" unicode="Ė" horiz-adv-x="1505" d="M393 1516h1297l-119-517h-350l55 242H855l-76-326h337l-67-290H712l-82-351h396l61 269h351L1313 0H61l64 274h155l224 967H330zm503 334c0 24.667 4.5 47.834 13.5 69.5S931 1960 947 1976s34.833 28.668 56.5 38 45.167 14 70.5 14c24 0 46.667-4.666 68-14s40-22 56-38 28.667-34.832 38-56.5 14-44.833 14-69.5-4.667-47.834-14-69.5-22-40.5-38-56.5-34.667-28.668-56-38-44-14-68-14c-25.333 0-48.833 4.666-70.5 14s-40.5 22-56.5 38-28.5 34.832-37.5 56.5-13.5 44.833-13.5 69.5z"/><glyph glyph-name="edotaccent" unicode="ė" horiz-adv-x="1178" d="M428 440c1.333-16 3.998-31.333 7.998-46 6.667-25.333 17.834-47.5 33.5-66.5s36.168-34 61.5-45 56-16.5 92-16.5c26.668 0 51.168 2.667 73.5 8s43.5 12.833 63.5 22.5 39.168 21.167 57.5 34.5 36.5 28 54.5 44l220-193c-67.332-72-145-124.833-233-158.5S676.333-27 575-27C509.667-27 448.334-16.333 391 5S283.667 56.833 241 96.5 164.5 184.334 139.5 241 102 361.336 102 432.003c0 95.333 17.167 182 51.5 260S234 836.835 292 892.502s125.167 98.667 201.5 129 156.833 45.5 241.5 45.5c67.333 0 129.333-11.833 186-35.5s105.5-55.334 146.5-95 73-85.5 96-137.5 34.5-106 34.5-162c0-13.334-.667-28.334-2-45s-3.333-33.835-6-51.502-6-35.167-10-52.5-8.333-33.333-13-48H428zm42.998 240c-2.667-4.667-5.002-9.332-7.002-14h433c-1.333 18-7.166 35.5-17.5 52.5s-24 32.168-41 45.5-37 24.167-60 32.5-48.5 12.5-76.5 12.5c-33.332 0-65.165-5-95.498-15s-57-24.5-80-43.5-41.5-42.5-55.5-70.5zm85.998 690c0 24.667 4.5 47.834 13.5 69.5s21.5 40.5 37.5 56.5 34.833 28.668 56.5 38 45.167 14 70.5 14c24 0 46.667-4.666 68-14s40-22 56-38 28.667-34.832 38-56.5 14-44.833 14-69.5-4.667-47.834-14-69.5-22-40.5-38-56.5-34.667-28.668-56-38-44-14-68-14c-25.333 0-48.833 4.666-70.5 14s-40.5 22-56.5 38-28.5 34.832-37.5 56.5-13.5 44.833-13.5 69.5z"/><glyph glyph-name="Eogonek" unicode="Ę" horiz-adv-x="1505" d="M393 1516l1297 .002-119-517h-350l55 242H854l-76-326h338l-67-290H711l-80-351h395l61 269h351l-125-543h-2c-56 0-105.167-6.833-147.5-20.5s-77.5-31.334-105.5-53-49.167-45.168-63.5-70.5-21.5-49-21.5-71c0-26 8.167-43.834 24.5-53.5s31.833-14.5 46.5-14.5c26 0 48 2.166 66 6.5s33.667 9.832 47 16.5l49-170c-14.667-8-39.167-16.834-73.5-26.5S1063.334-471 1028-471c-40.666 0-78.5 4.832-113.5 14.5s-65.832 23.333-92.5 41-47.5 39.5-62.5 65.5-22.5 56-22.5 90c0 53.333 18.5 102.166 55.5 146.5S874-31.334 926 0H61l64 274h156l223 967H330z"/><glyph glyph-name="eogonek" unicode="ę" horiz-adv-x="1178" d="M324-260c0 52 12.168 98.833 36.5 140.5S415.668-42 453-12c-50.667 10.667-97.167 28.667-139.5 54S234.334 99.166 203 137.5s-56 82-74 131S102 372 102 432c0 95.332 17.168 182 51.5 260S234 836.665 292 892s125.168 98.332 201.5 129 156.834 46 241.5 46c67.334 0 129.334-12 186-36s105.335-55.668 146.002-95 72.667-85 96-137 35-106 35-162c0-27.334-2.667-59.834-8-97.5s-13-70.835-23-99.502h-739c1.333-16 4-31.167 8-45.5s9.667-28.5 17-42.5c6.667-12 15.5-23.5 26.5-34.5s23.333-20.167 37-27.5 29.334-13.166 47-17.5 37.5-6.5 59.5-6.5c52.668 0 98.168 10.334 136.5 31s75.834 46.668 112.5 78l110-96.5 110-96.5c-74-79.332-163-136-267-170-34-13.332-67-28.5-99-45.5s-60.332-35.166-85-54.5-44.5-39.832-59.5-61.5-22.5-43.5-22.5-65.5c0-26 8.168-43.832 24.5-53.5s32.167-14.5 47.5-14.5c26 0 47.833 2.168 65.5 6.5s33.167 9.834 46.5 16.5l25-85 25-85c-15.333-8-40-16.832-74-26.5s-69-14.5-105-14.5c-40.667 0-78.334 4.834-113 14.5S435.666-433.166 409-415.5 361.5-376 346.5-350 324-294 324-260zM702 809c-52.666 0-100.834-12.333-144.5-37S482.33 712 463 666h434c-1.334 17.333-7.167 34.5-17.5 51.5s-24 32.333-41 46-37.167 24.667-60.5 33-48.666 12.5-76 12.5z"/><glyph glyph-name="Ecaron" unicode="Ě" horiz-adv-x="1505" d="M393 1516h1297l-119-517h-350l55 242H855l-76-326h337l-67-290H712l-82-351h396l61 269h351L1313 0H61l64 274h155l224 967H330zm1171 467l-356-325H968l-196 325h248l96-157 172 157h276z"/><glyph glyph-name="ecaron" unicode="ě" horiz-adv-x="1178" d="M428 440c1.333-16 3.998-31.333 7.998-46 6.667-25.333 17.834-47.5 33.5-66.5s36.168-34 61.5-45 56-16.5 92-16.5c26.668 0 51.168 2.667 73.5 8s43.5 12.833 63.5 22.5 39.168 21.167 57.5 34.5 36.5 28 54.5 44l220-193c-67.332-72-145-124.833-233-158.5S676.333-27 575-27C509.667-27 448.334-16.333 391 5S283.667 56.833 241 96.5 164.5 184.334 139.5 241 102 361.336 102 432.003c0 95.333 17.167 182 51.5 260S234 836.835 292 892.502s125.167 98.667 201.5 129 156.833 45.5 241.5 45.5c67.333 0 129.333-11.833 186-35.5s105.5-55.334 146.5-95 73-85.5 96-137.5 34.5-106 34.5-162c0-13.334-.667-28.334-2-45s-3.333-33.835-6-51.502-6-35.167-10-52.5-8.333-33.333-13-48H428zm42.998 240c-2.667-4.667-5.002-9.332-7.002-14h433c-1.333 18-7.166 35.5-17.5 52.5s-24 32.168-41 45.5-37 24.167-60 32.5-48.5 12.5-76.5 12.5c-33.332 0-65.165-5-95.498-15s-57-24.5-80-43.5-41.5-42.5-55.5-70.5zM1224 1503l-356-325H628l-196 325h248l96-157 172 157h276z"/><glyph glyph-name="Gbreve" unicode="Ğ" horiz-adv-x="1610" d="M1133 0l53.002 227.998c-26.667-42.667-61.167-84.167-103.5-124.5s-94.333-72.833-156-97.5-124.834-37-189.5-37c-87.334 0-168.334 15.5-243 46.5s-139.5 74.5-194.5 130.5-98.168 123.167-129.5 201.5-47 165.166-47 260.5c0 94.666 12 183.5 36 266.5s57.166 159.166 99.5 228.5 92.332 131.332 150 186 120.166 100.833 187.5 138.5 138.165 66.5 212.498 86.5 149.5 30 225.5 30c52 0 102.667-5.5 152-16.5s95.5-26.333 138.5-46 81.333-42.667 115-69 61.834-54.166 84.5-83.5h178l-64-274h-389c-8.666 20.668-20.833 40.668-36.5 60s-34.5 36.334-56.5 51-46.833 26.335-74.5 35.002-57.834 13-90.5 13c-68 0-132.668-16-194-48s-115-74.667-161-128-82.668-114.333-110-183-41-140-41-214c0-50 6.832-96 20.5-138s33.333-78.5 59-109.5 57-55.167 94-72.5 78.833-26 125.5-26c43.333 0 85.833 6.5 127.5 19.5s80 31 115 54 64.667 49 89 78 42.833 58.5 55.5 88.5H852l63 274h705L1432 0h-299zM999.002 1636C935.67 1636 880 1643.17 832 1657.502s-89.667 35.333-125 63-65.166 61.5-89.5 101.5-44.5 86-60.5 138h252c13.334-40 35.834-70.5 67.5-91.5s72.5-31.5 122.5-31.5c48 0 87.334 9.667 118 29s54.335 50.666 71.002 94h250c-14.667-51.334-34-97-58-137s-53.833-73.834-89.5-101.5-77.5-48.835-125.5-63.502-103.333-22-166-22z"/><glyph glyph-name="gbreve" unicode="ğ" horiz-adv-x="1303" d="M777 79c-24.667-21.333-58.333-39.67-101-55.002-44.667-16-94.667-24-150-24-52.667 0-104.834 9.333-156.5 28s-97.835 46.334-138.502 83-73.667 82.335-99 137.002-38 118-38 190c0 89.333 16.5 172 49.5 248s78.333 141.833 136 197.5 125.667 99.167 204 130.5 162.833 47 253.5 47c26 0 51.833-2.167 77.5-6.5s49.834-10 72.5-17 56-23.167 100-48.5l17 72h339L1108 43c-23.332-102-55.832-186.167-97.5-252.5s-90.666-118.833-147-157.5S744-432.667 674-448s-145-23-225-23c-106 0-197.832 12.167-275.5 36.5S31.333-378-20-338L156-74c40-28.667 86-52.5 138-71.5S402.333-174 463-174c34 0 67 3 99 9s61.668 17.333 89 34 51.334 39.5 72 68.5S759.334 3.667 770 49zm40 298.997c14.668 14 28 30.33 40 48.998l54 232c-23.332 36-46 59.833-68 71.5s-44 20.167-66 25.5-45.332 8-70 8c-36 0-70.332-7.167-103-21.5s-61.166-33.666-85.5-58-43.832-53-58.5-86-22-68.5-22-106.5c0-32 5-60 15-84s23.668-44 41-60 37.334-28.166 60-36.5 47-12.5 73-12.5c22 0 44.168 2.834 66.5 8.5s44 14.335 65 26.002 40.5 26.5 58.5 44.5zM833 1157c-63.332 0-119 7.17-167 21.502s-89.668 35.333-125 63-65.167 61.5-89.5 101.5-44.5 86-60.5 138h252c13.333-40 35.833-70.5 67.5-91.5s72.5-31.5 122.5-31.5c48 0 87.333 9.667 118 29s54.334 50.666 71 94h250c-14.666-51.334-34-97-58-137s-53.832-73.834-89.5-101.5S1047 1193.666 999 1179s-103.332-22-166-22z"/><glyph glyph-name="Gcommaaccent" unicode="Ģ" horiz-adv-x="1610" d="M1133 0l53.002 227.998c-26.667-42.667-61.167-84.167-103.5-124.5s-94.333-72.833-156-97.5-124.834-37-189.5-37c-87.334 0-168.334 15.5-243 46.5s-139.5 74.5-194.5 130.5-98.168 123.167-129.5 201.5-47 165.166-47 260.5c0 94.666 12 183.5 36 266.5s57.166 159.166 99.5 228.5 92.332 131.332 150 186 120.166 100.833 187.5 138.5 138.165 66.5 212.498 86.5 149.5 30 225.5 30c52 0 102.667-5.5 152-16.5s95.5-26.333 138.5-46 81.333-42.667 115-69 61.834-54.166 84.5-83.5h178l-64-274h-389c-8.666 20.668-20.833 40.668-36.5 60s-34.5 36.334-56.5 51-46.833 26.335-74.5 35.002-57.834 13-90.5 13c-68 0-132.668-16-194-48s-115-74.667-161-128-82.668-114.333-110-183-41-140-41-214c0-50 6.832-96 20.5-138s33.333-78.5 59-109.5 57-55.167 94-72.5 78.833-26 125.5-26c43.333 0 85.833 6.5 127.5 19.5s80 31 115 54 64.667 49 89 78 42.833 58.5 55.5 88.5H852l63 274h705L1432 0h-299zM700.002-29.002l289-104-197-338-206 72z"/><glyph glyph-name="gcommaaccent" unicode="ģ" horiz-adv-x="1303" d="M777 79c-24.667-21.333-58.333-39.67-101-55.002-44.667-16-94.667-24-150-24-52.667 0-104.834 9.333-156.5 28s-97.835 46.334-138.502 83-73.667 82.335-99 137.002-38 118-38 190c0 89.333 16.5 172 49.5 248s78.333 141.833 136 197.5 125.667 99.167 204 130.5 162.833 47 253.5 47c26 0 51.833-2.167 77.5-6.5s49.834-10 72.5-17 56-23.167 100-48.5l17 72h339L1108 43c-23.332-102-55.832-186.167-97.5-252.5s-90.666-118.833-147-157.5S744-432.667 674-448s-145-23-225-23c-106 0-197.832 12.167-275.5 36.5S31.333-378-20-338L156-74c40-28.667 86-52.5 138-71.5S402.333-174 463-174c34 0 67 3 99 9s61.668 17.333 89 34 51.334 39.5 72 68.5S759.334 3.667 770 49zm40 298.997c14.668 14 28 30.33 40 48.998l54 232c-23.332 36-46 59.833-68 71.5s-44 20.167-66 25.5-45.332 8-70 8c-36 0-70.332-7.167-103-21.5s-61.166-33.666-85.5-58-43.832-53-58.5-86-22-68.5-22-106.5c0-32 5-60 15-84s23.668-44 41-60 37.334-28.166 60-36.5 47-12.5 73-12.5c22 0 44.168 2.834 66.5 8.5s44 14.335 65 26.002 40.5 26.5 58.5 44.5zM881 1112l-289 105 197 337 206-71z"/><glyph glyph-name="Imacron" unicode="Ī" horiz-adv-x="926" d="M393 1516h676l-63-275H855L630 274h171L737 0H61l64 274h155l224 967H330zm692 140H397l43 215h688z"/><glyph glyph-name="imacron" unicode="ī" horiz-adv-x="860" d="M141 1036h564L528 274h240L705 0H123l176 762H78zm711 140H164l43 215h688z"/><glyph glyph-name="Iogonek" unicode="Į" horiz-adv-x="926" d="M393 1516l676.003-.004-63-275h-152l-223-967h170l-64-274h-315c-34-1.333-68.167-9.166-102.5-23.5s-65.5-32.165-93.5-53.498-50.5-44.166-67.5-68.5-25.5-47.5-25.5-69.5c0-26 8.167-43.832 24.5-53.5s32.166-14.5 47.5-14.5c26 0 47.832 2.168 65.5 6.5s33.166 9.834 46.5 16.5l50-170c-15.334-8-40-16.832-74-26.5s-69-14.5-105-14.5c-40.668 0-78.335 4.834-113.002 14.5S9.668-433.166-17-415.5-64.5-376-79.5-350s-22.5 56-22.5 90c0 57.333 18 107.5 54 150.5S31.333-30 82 0l63 274h136l223 967H330z"/><glyph glyph-name="iogonek" unicode="į" horiz-adv-x="778" d="M207 1036l532-.003-176-762h191l-64-274H555c-38-1.333-77.5-8.166-118.5-20.5s-79-28.665-114-48.998-63.667-43.5-86-69.5-33.5-52-33.5-78 9.167-43.834 27.5-53.5S265.666-285 281-285c25.332 0 46 2.166 62 6.5s30.666 9.832 44 16.5l49-170c-14.668-8-39.168-16.834-73.5-26.5S293.332-473 258-473c-40.667 0-78.5 4.832-113.5 14.5s-65.833 23.333-92.5 41S4.5-378-10.5-352-33-296-33-262c0 53.333 18.167 102.5 54.5 147.5S103.333-31.333 158 0l176 762H143zm227 334c0 49.333 17.167 91.336 51.5 126.003s76.5 52 126.5 52c24.667 0 47.667-4.667 69-14s39.833-21.833 55.5-37.5 28.167-34.5 37.5-56.5 14-45.333 14-70-4.667-47.834-14-69.5-21.833-40.335-37.5-56.002-34.167-28.333-55.5-38-44.333-14.5-69-14.5c-50 0-92.167 17.333-126.5 52s-51.5 76.667-51.5 126z"/><glyph glyph-name="Idotaccent" unicode="İ" horiz-adv-x="926" d="M393 1516h676l-63-275H855L630 274h171L737 0H61l64 274h155l224 967H330zm139 334c0 24.667 4.5 47.834 13.5 69.5S567 1960 583 1976s34.833 28.668 56.5 38 45.167 14 70.5 14c24 0 46.667-4.666 68-14s40-22 56-38 28.667-34.832 38-56.5 14-44.833 14-69.5-4.667-47.834-14-69.5-22-40.5-38-56.5-34.667-28.668-56-38-44-14-68-14c-25.333 0-48.833 4.666-70.5 14s-40.5 22-56.5 38-28.5 34.832-37.5 56.5-13.5 44.833-13.5 69.5z"/><glyph glyph-name="dotlessi" unicode="ı" horiz-adv-x="860" d="M141 1036h564L528 274h240L705 0H123l176 762H78z"/><glyph glyph-name="Kcommaaccent" unicode="Ķ" horiz-adv-x="1745" d="M1370 1243l64 273h618l-63-275h-134l-642-477 350-490h147L1649 0h-564l64 274-377 519zm-977 273h676l-63-275H855L630 274h171L737 0H61l64 274h155l224 967H330zM784-29l289-104-197-338-206 72z"/><glyph glyph-name="kcommaaccent" unicode="ķ" horiz-adv-x="1311" d="M262 1556h539L599 682h114l159 169 43 185h457l-63-274h-140L934 539l135-265h156L1161 0H860L664 406H535L442 0H102l296 1282H199zM568-29l289-104-197-338-206 72z"/><glyph glyph-name="Lacute" unicode="Ĺ" horiz-adv-x="1317" d="M393 1516h676l-63-275H853L628 274h287c24 0 44.5 7.833 61.5 23.5s28.833 35.167 35.5 58.5l49 201h338L1272 0H61l64 274h153l224 967H330zm340 370h326v-25l-306-286H518z"/><glyph glyph-name="lacute" unicode="ĺ" horiz-adv-x="729" d="M262 1556h539L505 274h189L631 0H102l296 1282H199zm432 404h326v-25l-306-286H479z"/><glyph glyph-name="Lcommaaccent" unicode="Ļ" horiz-adv-x="1317" d="M393 1516h676l-63-275H853L628 274h287c24 0 44.5 7.833 61.5 23.5s28.833 35.167 35.5 58.5l49 201h338L1272 0H61l64 274h153l224 967H330zM571-29l289-104-197-338-206 72z"/><glyph glyph-name="lcommaaccent" unicode="ļ" horiz-adv-x="729" d="M262 1556h539L505 274h189L631 0H102l296 1282H199zM277-29l289-104-197-338-206 72z"/><glyph glyph-name="Lcaron" unicode="Ľ" horiz-adv-x="1330" d="M393 1516h676l-63-275H853L628 274h287c24 0 44.5 7.833 61.5 23.5s28.833 35.167 35.5 58.5l49 201h338L1272 0H61l64 274h153l224 967H330zm979-517h-219l71 518 289 16z"/><glyph glyph-name="lcaron" unicode="ľ" horiz-adv-x="967" d="M262 1556h539L505 274h189L631 0H102l296 1282H199zm804-497H847l71 518 289 16z"/><glyph glyph-name="Lslash" unicode="Ł" horiz-adv-x="1317" d="M393 1516h676l-63-275H852l-43-190 434 204-78-350-438-207-98-424h286c23.333 0 43.5 8 60.5 24s29.167 35.333 36.5 58l49 201h338L1272 0H61l64 274h154l55 240L80 395l78 350 258 121 86 375H330z"/><glyph glyph-name="lslash" unicode="ł" horiz-adv-x="729" d="M262 1556h539l-115-495 313 147-77-350-316-149-100-435h188L631 0H102l121 528-282-133 77 350 287 136 92 401H199z"/><glyph glyph-name="Nacute" unicode="Ń" horiz-adv-x="1786" d="M1358 1516h612l-63-275h-130L1491 0h-344L761 935 608 274h129L674 0H61l64 274h135l223 967H319l64 275h516l374-936 154 661h-133zm-142 453h326v-25l-306-286h-235z"/><glyph glyph-name="nacute" unicode="ń" horiz-adv-x="1421" d="M207 1036h525.998l-15-74-1-10c30 22.666 61 42 93 58s65 28.5 99 37.5 69 13.5 105 13.5c58 0 108.667-9.668 152-29s78-47 104-83 42.5-80.168 49.5-132.5 2.833-111.5-12.5-177.5l-85-365h189l-63-274h-531l129 557c6 25.332 7.833 48.5 5.5 69.5s-7.666 39-16 54S915.834 707 901.5 715s-30.833 12-49.5 12c-34 0-76-13-126-39-26-13.334-53-30.667-81-52L498 0H147l176 762H143zm789.998 453h326v-25l-306-286h-235z"/><glyph glyph-name="Ncommaaccent" unicode="Ņ" horiz-adv-x="1786" d="M1358 1516h612l-63-275h-130L1491 0h-344L761 935 608 274h129L674 0H61l64 274h135l223 967H319l64 275h516l374-936 154 661h-133zM721-29l289-104-197-338-206 72z"/><glyph glyph-name="ncommaaccent" unicode="ņ" horiz-adv-x="1421" d="M207 1036h525.998l-15-74-1-10c30 22.666 61 42 93 58s65 28.5 99 37.5 69 13.5 105 13.5c58 0 108.667-9.668 152-29s78-47 104-83 42.5-80.168 49.5-132.5 2.833-111.5-12.5-177.5l-85-365h189l-63-274h-531l129 557c6 25.332 7.833 48.5 5.5 69.5s-7.666 39-16 54S915.834 707 901.5 715s-30.833 12-49.5 12c-34 0-76-13-126-39-26-13.334-53-30.667-81-52L498 0H147l176 762H143zM529.998-29l289-104-197-338-206 72z"/><glyph glyph-name="Ncaron" unicode="Ň" horiz-adv-x="1786" d="M1358 1516h612l-63-275h-130L1491 0h-344L761 935 608 274h129L674 0H61l64 274h135l223 967H319l64 275h516l374-936 154 661h-133zm282 467l-356-325h-240l-196 325h248l96-157 172 157h276z"/><glyph glyph-name="ncaron" unicode="ň" horiz-adv-x="1421" d="M207 1036h525.998l-15-74-1-10c30 22.666 61 42 93 58s65 28.5 99 37.5 69 13.5 105 13.5c58 0 108.667-9.668 152-29s78-47 104-83 42.5-80.168 49.5-132.5 2.833-111.5-12.5-177.5l-85-365h189l-63-274h-531l129 557c6 25.332 7.833 48.5 5.5 69.5s-7.666 39-16 54S915.834 707 901.5 715s-30.833 12-49.5 12c-34 0-76-13-126-39-26-13.334-53-30.667-81-52L498 0H147l176 762H143zm1077 467l-356-325H688l-196 325h248l96-157 172 157h276z"/><glyph glyph-name="napostrophe" unicode="ŉ" horiz-adv-x="1421" d="M207 1036h525.998l-15-74-1-10c30 22.666 61 42 93 58s65 28.5 99 37.5 69 13.5 105 13.5c58 0 108.667-9.668 152-29s78-47 104-83 42.5-80.168 49.5-132.5 2.833-111.5-12.5-177.5l-85-365h189l-63-274h-531l129 557c6 25.332 7.833 48.5 5.5 69.5s-7.666 39-16 54S915.834 707 901.5 715s-30.833 12-49.5 12c-34 0-76-13-126-39-26-13.334-53-30.667-81-52L498 0H147l176 762H143zm416.998 457l288-104-196-338-207 71z"/><glyph glyph-name="Omacron" unicode="Ō" horiz-adv-x="1597" d="M748-31c-90.667 0-174.167 15.5-250.5 46.5S355.167 90 299.5 146s-99 123.166-130 201.5S123 512.664 123 607.997c0 94.667 12 183.5 36 266.5s57.167 159.167 99.5 228.5 92.333 131.333 150 186 120.167 100.834 187.5 138.5 138.166 66.5 212.5 86.5 149.5 30 225.5 30c94.666 0 180.5-15.666 257.5-47s142.666-75.165 197-131.498 96.332-123.833 126-202.5 44.5-165.334 44.5-260c0-92.668-11.168-180-33.5-262s-53.834-157.668-94.5-227-89-131.5-145-186.5-117.834-101.668-185.5-140-139.668-67.667-216-88S829.332-31 748-31zm38 336c44.667 0 88.335 7.17 131.002 21.502s82.667 34.166 120 59.5 71.666 55.665 103 90.998 58.165 74 80.498 116 39.833 86.667 52.5 134 19 95.666 19 145c0 50-6.833 95.5-20.5 136.5s-33.5 76.332-59.5 106-57.667 52.666-95 69-79.333 24.5-126 24.5c-68 0-132.667-15.668-194-47s-115-73.334-161-126-82.667-113-110-181-41-139-41-213c0-50 7-95.5 21-136.5s34.167-76.334 60.5-106 58-52.668 95-69S740 305 786 305zm614 1391H712l43 215h688z"/><glyph glyph-name="omacron" unicode="ō" d="M102 436c0 95.333 17.166 181.833 51.5 259.5s80.5 144 138.5 199S417.165 992 493.5 1022s156.832 45 241.5 45c65.332 0 126.5-12 183.5-36s106.5-56.833 148.5-98.5 75-90.667 99-147 36-116.833 36-181.5c0-91.333-16.168-175.333-48.5-252s-76.667-143-133-199-123-99.667-200-131S660.333-25 571-25c-67.333 0-129.5 12.167-186.5 36.5S278 68.833 236 110.5 161.167 201 137.5 257 102 372.667 102 436zm326 37c0-29.333 4.327-56.163 12.994-80.496s20.834-45.333 36.5-63 34.335-31.334 56.002-41 45.167-14.5 70.5-14.5c34.667 0 68.334 7.5 101 22.5s61.835 35.666 87.502 62 46.167 57.332 61.5 93 23 74.166 23 115.5c0 34-4.833 63.5-14.5 88.5s-22.5 45.832-38.5 62.5-34.667 29.166-56 37.5-44 12.5-68 12.5c-38 0-73.5-7.834-106.5-23.5s-61.667-36.835-86-63.502-43.666-57.834-58-93.5S428 513.666 428 473zm638.99 703h-688l43 215h688z"/><glyph glyph-name="Ohungarumlaut" unicode="Ő" horiz-adv-x="1597" d="M748-31c-90.667 0-174.167 15.5-250.5 46.5S355.167 90 299.5 146s-99 123.166-130 201.5S123 512.664 123 607.997c0 94.667 12 183.5 36 266.5s57.167 159.167 99.5 228.5 92.333 131.333 150 186 120.167 100.834 187.5 138.5 138.166 66.5 212.5 86.5 149.5 30 225.5 30c94.666 0 180.5-15.666 257.5-47s142.666-75.165 197-131.498 96.332-123.833 126-202.5 44.5-165.334 44.5-260c0-92.668-11.168-180-33.5-262s-53.834-157.668-94.5-227-89-131.5-145-186.5-117.834-101.668-185.5-140-139.668-67.667-216-88S829.332-31 748-31zm38 336c44.667 0 88.335 7.17 131.002 21.502s82.667 34.166 120 59.5 71.666 55.665 103 90.998 58.165 74 80.498 116 39.833 86.667 52.5 134 19 95.666 19 145c0 50-6.833 95.5-20.5 136.5s-33.5 76.332-59.5 106-57.667 52.666-95 69-79.333 24.5-126 24.5c-68 0-132.667-15.668-194-47s-115-73.334-161-126-82.667-113-110-181-41-139-41-213c0-50 7-95.5 21-136.5s34.167-76.334 60.5-106 58-52.668 95-69S740 305 786 305zm850 1737l-281-320h-188l208 320h261zm-398 0l-256-320H796l184 320h258z"/><glyph glyph-name="ohungarumlaut" unicode="ő" d="M102 436c0 95.333 17.166 181.833 51.5 259.5s80.5 144 138.5 199S417.165 992 493.5 1022s156.832 45 241.5 45c65.332 0 126.5-12 183.5-36s106.5-56.833 148.5-98.5 75-90.667 99-147 36-116.833 36-181.5c0-91.333-16.168-175.333-48.5-252s-76.667-143-133-199-123-99.667-200-131S660.333-25 571-25c-67.333 0-129.5 12.167-186.5 36.5S278 68.833 236 110.5 161.167 201 137.5 257 102 372.667 102 436zm326 37c0-29.333 4.327-56.163 12.994-80.496s20.834-45.333 36.5-63 34.335-31.334 56.002-41 45.167-14.5 70.5-14.5c34.667 0 68.334 7.5 101 22.5s61.835 35.666 87.502 62 46.167 57.332 61.5 93 23 74.166 23 115.5c0 34-4.833 63.5-14.5 88.5s-22.5 45.832-38.5 62.5-34.667 29.166-56 37.5-44 12.5-68 12.5c-38 0-73.5-7.834-106.5-23.5s-61.667-36.835-86-63.502-43.666-57.834-58-93.5S428 513.666 428 473zm899.99 1049l-281-320h-188l208 320h261zm-397.996 0l-256-320h-186l184 320h258z"/><glyph glyph-name="OE" unicode="Œ" horiz-adv-x="2109" d="M737 0c-94 0-178.834 17-254.5 51S342.33 130.665 289 188s-94.334 124.665-123 201.998-43 159-43 245c0 121.333 23.832 235.333 71.5 342s112.833 199.834 195.5 279.5S570 1399.334 682 1446s232 70 360 70h1242l-119-517h-350l55 240h-410l-76-324h306l-72-290h-301l-80-351h383l61 269h353L1909 0H737zM481 670c0-53.334 7.166-104 21.5-152s34.165-90 59.498-126 56.5-64.667 93.5-86 77.833-32 122.5-32h127l223 967h-90c-68 0-135.167-14.667-201.5-44s-125.666-70-178-122-95-112.833-128-182.5S481 748.666 481 670z"/><glyph glyph-name="oe" unicode="œ" horiz-adv-x="1950" d="M102 436c0 96 17.17 182.5 51.504 259.5s80.5 143.168 138.5 198.5 125.167 98 201.5 128 156.833 45 241.5 45c71.333 0 136.666-14 196-42S1041.668 959 1085 911c57.333 50.668 121.833 89.335 193.5 116.002s147.834 40 228.5 40c67.334 0 129.334-12 186-36s105.5-55.667 146.5-95 73-85 96-137 34.5-106 34.5-162c0-27.333-2.666-59.833-8-97.5s-13-70.834-23-99.5h-739c1.334-24.668 6.167-47.5 14.5-68.5s20.666-39.334 37-55 36.165-28 59.498-37 51.333-13.5 84-13.5c53.333 0 99 10.332 137 31s75.667 46.666 113 78l109-96.5 110-96.5c-67.333-72-145-124.834-233-158.5S1448.667-27 1348-27c-72.667 0-140 13-202 39s-115 63-159 111C932.333 75 869.833 38.333 799.5 13S653-25 571-25c-66.667 0-128.667 12-186 36s-106.833 57.166-148.5 99.5S162 201.666 138 257s-36 115-36 179zm326.004 37c0-58.666 16.332-106.497 49-143.497s75-55.5 127-55.5c34 0 67.5 7.5 100.5 22.5s62.332 35.5 88 61.5 46.166 57.167 61.5 93.5 23 74.833 23 115.5c0 34-4.834 63.667-14.5 89s-22.668 46.166-39 62.5-35.167 28.665-56.5 36.998-43.666 12.5-67 12.5c-38 0-73.332-7.832-106-23.5s-61.333-36.833-86-63.5-44.167-57.667-58.5-93-21.5-73.666-21.5-115zM1475 809.004c-53.333 0-101.834-12.333-145.5-37s-75.168-60-94.5-106h434c-1.334 17.333-7.167 34.5-17.5 51.5s-24 32.333-41 46-37 24.667-60 33-48.167 12.5-75.5 12.5z"/><glyph glyph-name="Racute" unicode="Ŕ" horiz-adv-x="1483" d="M373 1516l807-.002c66.667 0 124.334-11.333 173-34s88.668-52.167 120-88.5 54.5-77.666 69.5-124S1565 1176 1565 1128c0-65.332-9.332-123.665-28-174.998s-47.666-97-87-137-78-69.333-116-88l-81-39c6.668-6 15.668-15.833 27-29.5s21.667-35 31-64 14.666-63.5 16-103.5l6-218h144L1413 0H963l24 360c2.666 42.667 1.166 79.5-4.5 110.5s-16.668 56.333-33 76-38.167 34.167-65.5 43.5-61.333 14-102 14h-96l-77-330h128L674 0H61l64 274h134l225 967H309zm461-275l-86-366.998h190c41.334 0 78.834 4.167 112.5 12.5s62.5 21.166 86.5 38.5 42.5 39.332 55.5 66 19.5 58 19.5 94c0 47.332-13.832 85.165-41.5 113.498s-73.833 42.5-138.5 42.5H834zm223 727h326v-25l-306-286H842z"/><glyph glyph-name="racute" unicode="ŕ" horiz-adv-x="1145" d="M1153 633l-326-.002 25 104c-22.667 0-43.5-2.333-62.5-7s-37.333-11.667-55-21-34.834-21-51.5-35c-11.334-9.333-22.667-19.666-34-31l-86-369h217L717 0H158l176 762H143l64 274h530l-20-90c27.333 24.668 60 45.335 98 62.002 42 18.667 91.333 28 148 28h284zm-262 856h326v-25l-306-286H676z"/><glyph glyph-name="Rcommaaccent" unicode="Ŗ" horiz-adv-x="1483" d="M373 1516l807-.002c66.667 0 124.334-11.333 173-34s88.668-52.167 120-88.5 54.5-77.666 69.5-124S1565 1176 1565 1128c0-65.332-9.332-123.665-28-174.998s-47.666-97-87-137-78-69.333-116-88l-81-39c6.668-6 15.668-15.833 27-29.5s21.667-35 31-64 14.666-63.5 16-103.5l6-218h144L1413 0H963l24 360c2.666 42.667 1.166 79.5-4.5 110.5s-16.668 56.333-33 76-38.167 34.167-65.5 43.5-61.333 14-102 14h-96l-77-330h128L674 0H61l64 274h134l225 967H309zm461-275l-86-366.998h190c41.334 0 78.834 4.167 112.5 12.5s62.5 21.166 86.5 38.5 42.5 39.332 55.5 66 19.5 58 19.5 94c0 47.332-13.832 85.165-41.5 113.498s-73.833 42.5-138.5 42.5H834zM653-29l289-104-197-338-206 72z"/><glyph glyph-name="rcommaaccent" unicode="ŗ" horiz-adv-x="1145" d="M1153 633l-326-.002 25 104c-22.667 0-43.5-2.333-62.5-7s-37.333-11.667-55-21-34.834-21-51.5-35c-11.334-9.333-22.667-19.666-34-31l-86-369h217L717 0H158l176 762H143l64 274h530l-20-90c27.333 24.668 60 45.335 98 62.002 42 18.667 91.333 28 148 28h284zM299-29.002l289-104-197-338-206 72z"/><glyph glyph-name="Rcaron" unicode="Ř" horiz-adv-x="1483" d="M373 1516l807-.002c66.667 0 124.334-11.333 173-34s88.668-52.167 120-88.5 54.5-77.666 69.5-124S1565 1176 1565 1128c0-65.332-9.332-123.665-28-174.998s-47.666-97-87-137-78-69.333-116-88l-81-39c6.668-6 15.668-15.833 27-29.5s21.667-35 31-64 14.666-63.5 16-103.5l6-218h144L1413 0H963l24 360c2.666 42.667 1.166 79.5-4.5 110.5s-16.668 56.333-33 76-38.167 34.167-65.5 43.5-61.333 14-102 14h-96l-77-330h128L674 0H61l64 274h134l225 967H309zm461-275l-86-366.998h190c41.334 0 78.834 4.167 112.5 12.5s62.5 21.166 86.5 38.5 42.5 39.332 55.5 66 19.5 58 19.5 94c0 47.332-13.832 85.165-41.5 113.498s-73.833 42.5-138.5 42.5H834zm646 741l-356-325H884l-196 325h248l96-157 172 157h276z"/><glyph glyph-name="rcaron" unicode="ř" horiz-adv-x="1145" d="M1153 633l-326-.002 25 104c-22.667 0-43.5-2.333-62.5-7s-37.333-11.667-55-21-34.834-21-51.5-35c-11.334-9.333-22.667-19.666-34-31l-86-369h217L717 0H158l176 762H143l64 274h530l-20-90c27.333 24.668 60 45.335 98 62.002 42 18.667 91.333 28 148 28h284zm111 870l-356-325H668l-196 325h248l96-157 172 157h276z"/><glyph glyph-name="Sacute" unicode="Ś" horiz-adv-x="1268" d="M80 532l364-.002c-18-67.333-24.332-115-19-143s16.5-51.333 33.5-70 40-33.167 69-43.5 64.168-15.5 105.5-15.5c37.334 0 70.834 5 100.5 15s55 23.833 76 41.5 37 38.667 48 63 16.5 50.833 16.5 79.5c0 22-4.666 41-14 57s-21.832 29.833-37.5 41.5-33.833 21.834-54.5 30.5-42.667 16.668-66 24l-172 60c-40 13.334-76.5 31.834-109.5 55.5s-61.333 51.5-85 83.5-42.167 68.168-55.5 108.5-20 83.5-20 129.5c0 82 15.333 153.834 46 215.5s73.5 113 128.5 154 120.667 71.834 197 92.5 160.166 31 251.5 31c66 0 126-7.666 180-23s100.5-35.832 139.5-61.5 68.666-54.333 89-86 32.832-63.5 37.5-95.5h115l-60-256h-362c14 62 18 105 12 129s-17.668 44.667-35 62-39.167 30.5-65.5 39.5-55.5 13.5-87.5 13.5c-32.667 0-63.667-3.167-93-9.5s-55-16.333-77-30-39.5-31.167-52.5-52.5-19.5-46.666-19.5-76c0-26 5.5-47.166 16.5-63.5s28.667-30.665 53-42.998S734 962 782 944l207-76c85.333-30.667 147.666-77 187-139s59-137.667 59-227c0-82.667-16.168-156.5-48.5-221.5S1109.332 160.333 1052 115 926.167 35 846.5 11 680-25 586-25c-70 0-133.833 8.667-191.5 26S288 42.833 248 74.5 179.667 140 163 176s-27 69.333-31 100H20zm826 1436h326v-25l-306-286H691z"/><glyph glyph-name="sacute" unicode="ś" horiz-adv-x="1018" d="M722 792c-27.333 14-62.664 21-105.997 21-18 0-35.167-1.5-51.5-4.5s-30.5-7.666-42.5-14-21.5-14.332-28.5-24-10.5-20.833-10.5-33.5c0-10 4.167-20.333 12.5-31s24.166-18.667 47.5-24l164-35c51.332-11.333 95-27.333 131-48s65.332-44.334 88-71 39.166-55.168 49.5-85.5 15.5-60.5 15.5-90.5c0-68.668-14-127.168-42-175.5S884.168 88.665 838.502 58 741.334 4.83 684.002-9.5 568.668-31 510.002-31c-98 0-176 13.332-234 40-32 15.332-58.668 34.332-80 57h-165l63 274h299c-4.668-28.668-5.168-49.5-1.5-62.5s11.166-24.668 22.5-35S439.667 224.332 457 219s37-8 59-8c46 0 82.5 8.333 109.5 25s40.5 39 40.5 67c0 16.667-6 31-18 43s-34 22.333-66 31l-131 33c-47.332 12-88.832 28.833-124.5 50.5S261 507 237 535s-42.166 58.5-54.5 91.5S164 693 164 727c0 56 12.5 105.333 37.5 148s58.834 78.167 101.5 106.5 91.668 49.666 147 64 113.667 21.5 175 21.5c44 0 84.5-3.834 121.5-11.5s69.833-18.168 98.5-31.5c16.667-7.334 31.667-15 45-23h210l-64-274H766c-3.333 30.666-18 52.333-44 65zm-35.998 697h326v-25l-306-286h-235z"/><glyph glyph-name="Scedilla" unicode="Ş" horiz-adv-x="1268" d="M80 532l364-.002c-18-67.333-24.332-115-19-143s16.5-51.333 33.5-70 40-33.167 69-43.5 64.168-15.5 105.5-15.5c37.334 0 70.834 5 100.5 15s55 23.833 76 41.5 37 38.667 48 63 16.5 50.833 16.5 79.5c0 22-4.666 41-14 57s-21.832 29.833-37.5 41.5-33.833 21.834-54.5 30.5-42.667 16.668-66 24l-172 60c-40 13.334-76.5 31.834-109.5 55.5s-61.333 51.5-85 83.5-42.167 68.168-55.5 108.5-20 83.5-20 129.5c0 82 15.333 153.834 46 215.5s73.5 113 128.5 154 120.667 71.834 197 92.5 160.166 31 251.5 31c66 0 126-7.666 180-23s100.5-35.832 139.5-61.5 68.666-54.333 89-86 32.832-63.5 37.5-95.5h115l-60-256h-362c14 62 18 105 12 129s-17.668 44.667-35 62-39.167 30.5-65.5 39.5-55.5 13.5-87.5 13.5c-32.667 0-63.667-3.167-93-9.5s-55-16.333-77-30-39.5-31.167-52.5-52.5-19.5-46.666-19.5-76c0-26 5.5-47.166 16.5-63.5s28.667-30.665 53-42.998S734 962 782 944l207-76c85.333-30.667 147.666-77 187-139s59-137.667 59-227c0-82.667-16.168-156.5-48.5-221.5S1109.332 160.333 1052 115 926.167 35 846.5 11 680-25 586-25c-70 0-133.833 8.667-191.5 26S288 42.833 248 74.5 179.667 140 163 176s-27 69.333-31 100H20zm178-821.002c34.668 8 64.832 18.832 90.5 32.5s47.833 30.333 66.5 50 34.334 42.667 47 69 23.335 56.5 32.002 90.5l264-92c-19.333-46-43.333-87.167-72-123.5s-61.5-67.5-98.5-93.5-77.333-47.167-121-63.5-89.834-27.5-138.5-33.5z"/><glyph glyph-name="scedilla" unicode="ş" horiz-adv-x="1018" d="M722 792c-27.333 14-62.664 21-105.997 21-18 0-35.167-1.5-51.5-4.5s-30.5-7.666-42.5-14-21.5-14.332-28.5-24-10.5-20.833-10.5-33.5c0-10 4.167-20.333 12.5-31s24.166-18.667 47.5-24l164-35c51.332-11.333 95-27.333 131-48s65.332-44.334 88-71 39.166-55.168 49.5-85.5 15.5-60.5 15.5-90.5c0-68.668-14-127.168-42-175.5S884.168 88.665 838.502 58 741.334 4.83 684.002-9.5 568.668-31 510.002-31c-98 0-176 13.332-234 40-32 15.332-58.668 34.332-80 57h-165l63 274h299c-4.668-28.668-5.168-49.5-1.5-62.5s11.166-24.668 22.5-35S439.667 224.332 457 219s37-8 59-8c46 0 82.5 8.333 109.5 25s40.5 39 40.5 67c0 16.667-6 31-18 43s-34 22.333-66 31l-131 33c-47.332 12-88.832 28.833-124.5 50.5S261 507 237 535s-42.166 58.5-54.5 91.5S164 693 164 727c0 56 12.5 105.333 37.5 148s58.834 78.167 101.5 106.5 91.668 49.666 147 64 113.667 21.5 175 21.5c44 0 84.5-3.834 121.5-11.5s69.833-18.168 98.5-31.5c16.667-7.334 31.667-15 45-23h210l-64-274H766c-3.333 30.666-18 52.333-44 65zM167.002-289c34.667 8 64.83 18.833 90.498 32.5s47.834 30.334 66.5 50 34.335 42.668 47.002 69 23.334 56.5 32 90.5l264-92c-19.332-46-43.332-87.166-72-123.5s-61.5-67.5-98.5-93.5-77.332-47.166-121-63.5-89.833-27.5-138.5-33.5z"/><glyph glyph-name="Scaron" unicode="Š" horiz-adv-x="1268" d="M80 532l364-.002c-18-67.333-24.332-115-19-143s16.5-51.333 33.5-70 40-33.167 69-43.5 64.168-15.5 105.5-15.5c37.334 0 70.834 5 100.5 15s55 23.833 76 41.5 37 38.667 48 63 16.5 50.833 16.5 79.5c0 22-4.666 41-14 57s-21.832 29.833-37.5 41.5-33.833 21.834-54.5 30.5-42.667 16.668-66 24l-172 60c-40 13.334-76.5 31.834-109.5 55.5s-61.333 51.5-85 83.5-42.167 68.168-55.5 108.5-20 83.5-20 129.5c0 82 15.333 153.834 46 215.5s73.5 113 128.5 154 120.667 71.834 197 92.5 160.166 31 251.5 31c66 0 126-7.666 180-23s100.5-35.832 139.5-61.5 68.666-54.333 89-86 32.832-63.5 37.5-95.5h115l-60-256h-362c14 62 18 105 12 129s-17.668 44.667-35 62-39.167 30.5-65.5 39.5-55.5 13.5-87.5 13.5c-32.667 0-63.667-3.167-93-9.5s-55-16.333-77-30-39.5-31.167-52.5-52.5-19.5-46.666-19.5-76c0-26 5.5-47.166 16.5-63.5s28.667-30.665 53-42.998S734 962 782 944l207-76c85.333-30.667 147.666-77 187-139s59-137.667 59-227c0-82.667-16.168-156.5-48.5-221.5S1109.332 160.333 1052 115 926.167 35 846.5 11 680-25 586-25c-70 0-133.833 8.667-191.5 26S288 42.833 248 74.5 179.667 140 163 176s-27 69.333-31 100H20zm1264 1450l-356-325H748l-196 325h248l96-157 172 157h276z"/><glyph glyph-name="scaron" unicode="š" horiz-adv-x="1018" d="M722 792c-27.333 14-62.664 21-105.997 21-18 0-35.167-1.5-51.5-4.5s-30.5-7.666-42.5-14-21.5-14.332-28.5-24-10.5-20.833-10.5-33.5c0-10 4.167-20.333 12.5-31s24.166-18.667 47.5-24l164-35c51.332-11.333 95-27.333 131-48s65.332-44.334 88-71 39.166-55.168 49.5-85.5 15.5-60.5 15.5-90.5c0-68.668-14-127.168-42-175.5S884.168 88.665 838.502 58 741.334 4.83 684.002-9.5 568.668-31 510.002-31c-98 0-176 13.332-234 40-32 15.332-58.668 34.332-80 57h-165l63 274h299c-4.668-28.668-5.168-49.5-1.5-62.5s11.166-24.668 22.5-35S439.667 224.332 457 219s37-8 59-8c46 0 82.5 8.333 109.5 25s40.5 39 40.5 67c0 16.667-6 31-18 43s-34 22.333-66 31l-131 33c-47.332 12-88.832 28.833-124.5 50.5S261 507 237 535s-42.166 58.5-54.5 91.5S164 693 164 727c0 56 12.5 105.333 37.5 148s58.834 78.167 101.5 106.5 91.668 49.666 147 64 113.667 21.5 175 21.5c44 0 84.5-3.834 121.5-11.5s69.833-18.168 98.5-31.5c16.667-7.334 31.667-15 45-23h210l-64-274H766c-3.333 30.666-18 52.333-44 65zm397 711l-356-325H523l-196 325h248l96-157 172 157h276z"/><glyph glyph-name="Tcommaaccent" unicode="Ţ" horiz-adv-x="1368" d="M342 274h157l225 967H530l-43-186H143l107 461h1425l-106-461h-344l43 186h-194L849 274h169L954 0H279zM473-29l289-104-197-338-206 72z"/><glyph glyph-name="tcommaaccent" unicode="ţ" horiz-adv-x="762" d="M145 1036h193l59 248 383 164-98-412h190l-63-274H617l-87-371c-10-37.334-14.333-67-13-89s8.5-37.834 21.5-47.5S566.667 240 584 240c14 0 29.167 1.332 45.5 4s33.833 6.666 52.5 12l4-229c-21.333-8-42.333-15.334-63-22S580.5-7.17 557.5-11.5s-47.333-7.667-73-10S431-25 401-25c-48 0-90.167 5.5-126.5 16.5s-65 29.5-86 55.5-33.667 60.833-38 104.5S152 249.667 168 315l105 447H82zM317-29l289-104-197-338-206 72z"/><glyph glyph-name="Tcaron" unicode="Ť" horiz-adv-x="1368" d="M342 274h157l225 967H530l-43-186H143l107 461h1425l-106-461h-344l43 186h-194L849 274h169L954 0H279zm1075 1708l-356-325H821l-196 325h248l96-157 172 157h276z"/><glyph glyph-name="tcaron" unicode="ť" horiz-adv-x="820" d="M145 1036h193l59 248 383 164-98-412h190l-63-274H617l-87-371c-10-37.334-14.333-67-13-89s8.5-37.834 21.5-47.5S566.667 240 584 240c14 0 29.167 1.332 45.5 4s33.833 6.666 52.5 12l4-229c-21.333-8-42.333-15.334-63-22S580.5-7.17 557.5-11.5s-47.333-7.667-73-10S431-25 401-25c-48 0-90.167 5.5-126.5 16.5s-65 29.5-86 55.5-33.667 60.833-38 104.5S152 249.667 168 315l105 447H82zm898 23H824l71 518 289 16z"/><glyph glyph-name="Umacron" unicode="Ū" horiz-adv-x="1534" d="M281 1516h612l-64-275H713L567 612c-14-66.667-18-118.5-12-155.5s19-68.833 39-95.5 44.667-46 74-58 64-18 104-18c38.667 0 73.5 5.5 104.5 16.5s58.833 29.333 83.5 55 46.5 59.334 65.5 101S1061 550.67 1075 612l145 629h-137l64 275h612l-63-275h-130l-155-674c-24-105.332-56.333-195.832-97-271.5s-89.667-137.666-147-186S1043.834 25.67 969.5 3 812.336-31 721.003-31c-75.333 0-144.5 11.168-207.5 33.5s-117.333 53.667-163 94-80.334 89-104 146S209.166 360 205.5 424s2.833 133.667 19.5 209l142 608H217zm1065 140H658l43 215h688z"/><glyph glyph-name="umacron" unicode="ū" horiz-adv-x="1356" d="M846 1036h477.002l-177-762h191l-63-274h-500l19 81c-20.667-16.667-42.334-31.334-65-44C699.333 21 668 8.83 634 .5S562.667-12 522-12c-68 0-129.168 13-183.5 39S246 86.83 224 128.5s-35.5 86.833-40.5 135.5.832 102.667 17.5 162l77 336H111l63 274h488L526 451c-6.668-28.667-8-54.5-4-77.5s12.332-42.667 25-59 29.166-28.833 49.5-37.5 43.5-13 69.5-13c21.332 0 42.665 3.667 63.998 11s41.5 17.5 60.5 30.5S828 335 846 355l94 407H782zm254 140H412l43 215h688z"/><glyph glyph-name="Uring" unicode="Ů" horiz-adv-x="1534" d="M281 1516l495-.003-63-275-146-629c-8-37.333-12-72.666-12-106 0-29.332 3.832-57.332 11.5-84s20-50.166 37-70.5 39.332-36.5 67-48.5 61.5-18 101.5-18c38.666 0 73.5 5.5 104.5 16.5s58.832 29.334 83.5 55 46.5 59.335 65.5 101.002S1061 550.665 1075 612l207 904h477l-63-275h-131l-154-674c-24-105.334-56.334-195.834-97-271.5s-89.668-137.668-147-186S1043.832 25.665 969.5 3 812.334-31 721-31C645.67-31 576.5-19.835 513.5 2.5s-117.332 54.332-163 96-81.333 92.333-107 152S205 377.667 205 453c0 26.667 1.5 55 4.5 85s8.167 61.667 15.5 95l142 608H217zm630 210c0-17.333 3.166-33.333 9.5-48s15-27.5 26-38.5 24-19.667 39-26 31.166-9.5 48.5-9.5 33.5 3.167 48.5 9.5 28 15 39 26 19.666 23.833 26 38.5 9.5 30.667 9.5 48-3.168 33.5-9.5 48.5-15 28-26 39-24 19.667-39 26-31.168 9.5-48.5 9.5-33.5-3.167-48.5-9.5-28-15-39-26-19.668-24-26-39-9.5-31.167-9.5-48.5zm123 299c40.667 0 79.167-7.833 115.5-23.5s68.166-37.167 95.5-64.5 48.832-59.166 64.5-95.5 23.5-74.832 23.5-115.5-7.834-79.166-23.5-115.5-37.168-68-64.5-95-59.167-48.5-95.5-64.5-74.833-24-115.5-24c-41.333 0-80 8-116 24s-67.667 37.5-95 64.5-48.833 58.668-64.5 95S735 1685.335 735 1726s7.833 79.168 23.5 115.5 37.167 68.167 64.5 95.5 59 48.833 95 64.5 74.667 23.5 116 23.5z"/><glyph glyph-name="uring" unicode="ů" horiz-adv-x="1356" d="M846 1036h477.002l-177-762h191l-63-274h-500l19 81c-20.667-16.667-42.334-31.334-65-44C699.333 21 668 8.83 634 .5S562.667-12 522-12c-68 0-129.168 13-183.5 39S246 86.83 224 128.5s-35.5 86.833-40.5 135.5.832 102.667 17.5 162l77 336H111l63 274h488L526 451c-6.668-28.667-8-54.5-4-77.5s12.332-42.667 25-59 29.166-28.833 49.5-37.5 43.5-13 69.5-13c21.332 0 42.665 3.667 63.998 11s41.5 17.5 60.5 30.5S828 335 846 355l94 407H782zm-39.998 690c43.333 0 84.333-8.333 123-25s72.5-39.334 101.5-68 51.833-62.335 68.5-101.002 25-79.667 25-123-8.333-84.333-25-123-39.5-72.5-68.5-101.5-62.833-51.833-101.5-68.5-79.667-25-123-25-84.333 8.333-123 25-72.334 39.5-101 68.5-51.335 62.833-68.002 101.5-25 79.667-25 123 8.333 84.333 25 123 39.334 72.334 68 101 62.335 51.335 101.002 68.002 79.667 25 123 25zm-125-317c0-17.333 3.333-33.666 10-49s15.667-28.665 27-39.998 24.5-20.166 39.5-26.5 31.167-9.5 48.5-9.5 33.5 3.168 48.5 9.5 28 15.167 39 26.5 19.667 24.666 26 40 9.5 31.665 9.5 48.998-3.167 33.5-9.5 48.5-15 28-26 39-24 19.667-39 26-31.167 9.5-48.5 9.5-33.5-3.167-48.5-9.5-28.167-15-39.5-26-20.333-24-27-39-10-31.167-10-48.5z"/><glyph glyph-name="Uhungarumlaut" unicode="Ű" horiz-adv-x="1534" d="M281 1516h612l-64-275H713L567 612c-14-66.667-18-118.5-12-155.5s19-68.833 39-95.5 44.667-46 74-58 64-18 104-18c38.667 0 73.5 5.5 104.5 16.5s58.833 29.333 83.5 55 46.5 59.334 65.5 101S1061 550.67 1075 612l145 629h-137l64 275h612l-63-275h-130l-155-674c-24-105.332-56.333-195.832-97-271.5s-89.667-137.666-147-186S1043.834 25.67 969.5 3 812.336-31 721.003-31c-75.333 0-144.5 11.168-207.5 33.5s-117.333 53.667-163 94-80.334 89-104 146S209.166 360 205.5 424s2.833 133.667 19.5 209l142 608H217zm1325 486l-281-320h-188l208 320h261zm-398 0l-256-320H766l184 320h258z"/><glyph glyph-name="uhungarumlaut" unicode="ű" horiz-adv-x="1356" d="M846 1036h477.002l-177-762h191l-63-274h-500l19 81c-20.667-16.667-42.334-31.334-65-44C699.333 21 668 8.83 634 .5S562.667-12 522-12c-68 0-129.168 13-183.5 39S246 86.83 224 128.5s-35.5 86.833-40.5 135.5.832 102.667 17.5 162l77 336H111l63 274h488L526 451c-6.668-28.667-8-54.5-4-77.5s12.332-42.667 25-59 29.166-28.833 49.5-37.5 43.5-13 69.5-13c21.332 0 42.665 3.667 63.998 11s41.5 17.5 60.5 30.5S828 335 846 355l94 407H782zm461 486l-281-320H838l208 320h261zm-397.998 0l-256-320h-186l184 320h258z"/><glyph glyph-name="Uogonek" unicode="Ų" horiz-adv-x="1534" d="M1147 1516h612.004l-63-275h-131l-154-674c-20.667-87.333-44.334-161.333-71-222S1281.668 232.166 1245 188.5s-79.334-80.835-128-111.502-104.335-59-167.002-85l-84-38.5c-31.333-14.333-61-30-89-47s-51.167-36-69.5-57-27.5-42.5-27.5-64.5c0-26 8.167-43.833 24.5-53.5s32.166-14.5 47.5-14.5c26 0 47.832 2.167 65.5 6.5s33.166 9.833 46.5 16.5l49-170c-14.668-8-39.168-16.833-73.5-26.5s-69.167-14.5-104.5-14.5c-40.667 0-78.5 4.833-113.5 14.5s-65.833 23.334-92.5 41-47.5 39.5-62.5 65.5-22.5 56-22.5 90c0 52 14.333 97.834 43 137.5S552-48 596-18C537.333-7.333 484.166 11 436.5 37s-88.668 59.168-123 99.5-61 87-80 140S205 388.333 205 453c0 27.334 1.666 56 5 86s8.332 61.334 15 94l142 608H217l64 275h612l-64-275H713L567 612c-4-18.666-7-36.666-9-54s-3-34.665-3-51.998c0-28.667 3.832-56.334 11.5-83s20-50.168 37-70.5 39.5-36.667 67.5-49S732.665 285 772 285c38 0 72.832 5.333 104.5 16s59.666 29 84 55 45.832 59.833 64.5 101.5 35.333 93.167 50 154.5l146 629h-138z"/><glyph glyph-name="uogonek" unicode="ų" horiz-adv-x="1356" d="M1147 274l190.003-.004-63-274h-103c-38-1.333-77.5-8.166-118.5-20.5S973.67-49.168 939.003-69.5s-63.334-43.5-86-69.5-34-52-34-78 9.166-43.833 27.5-53.5 35.165-14.5 50.498-14.5c26 0 46.834 2.167 62.5 6.5s30.5 9.833 44.5 16.5l49-170c-15.332-8-40-16.833-74-26.5s-69-14.5-105-14.5c-40.666 0-78.333 4.833-113 14.5s-65.334 23.334-92 41-47.5 39.5-62.5 65.5-22.5 56-22.5 90c0 53.334 18 102.5 54 147.5S719.33-31.333 774 0l19 82c-36-31.332-75.834-54.832-119.5-70.5S579.33-12 522-12c-47.334 0-93.667 6.5-139 19.5S300 42 270 72c-18.667 18.668-34.834 39.335-48.5 62.002s-23.668 48.334-30 77-9.167 60.668-8.5 96 6.667 75 18 119l78 336H111l63 274h488L526 451c-13.333-57.332-6.333-102.832 21-136.5S614 264 666 264c32.667 0 64.667 8.168 96 24.5s59.333 38.167 84 65.5l94 408H782l64 274h477z"/><glyph glyph-name="Ydieresis" unicode="Ÿ" horiz-adv-x="1393" d="M248 1516h612l-63-275H692l133-328 25 26 262 302h-88l63 275h613l-64-275h-101L941 615l-79-341h170L969 0H293l63 274h160l82 361-280 606H184zm262 305c0 24.667 4.5 47.834 13.5 69.5s21.5 40.668 37.5 57 34.833 29.167 56.5 38.5 45.167 14 70.5 14c24 0 46.667-4.667 68-14s40-22.166 56-38.5 28.667-35.332 38-57 14-44.833 14-69.5-4.667-47.834-14-69.5-22-40.5-38-56.5-34.667-28.668-56-38-44-14-68-14c-25.333 0-48.833 4.666-70.5 14s-40.5 22-56.5 38-28.5 34.832-37.5 56.5-13.5 44.833-13.5 69.5zm479 0c0 24.667 4.667 47.834 14 69.5s22 40.668 38 57 34.833 29.167 56.5 38.5 45.167 14 70.5 14c24 0 46.667-4.667 68-14s40-22.166 56-38.5 28.667-35.332 38-57 14-44.833 14-69.5-4.667-47.834-14-69.5-22-40.5-38-56.5-34.667-28.668-56-38-44-14-68-14c-25.333 0-48.833 4.666-70.5 14s-40.5 22-56.5 38-28.667 34.832-38 56.5-14 44.833-14 69.5z"/><glyph glyph-name="Zacute" unicode="Ź" horiz-adv-x="1320" d="M1455 1202L481 274h430l59 258h348L1195 0H20l71 313 956 928H642l-59-262H239l125 537h1163zm-486 766h326v-25l-306-286H754z"/><glyph glyph-name="zacute" unicode="ź" horiz-adv-x="1150" d="M62 164l574 606H430l-36-156H134l96 422h907l-41-180-578-588h222l43 183h260L940 0H25zm669 1325h326v-25l-306-286H516z"/><glyph glyph-name="Zdotaccent" unicode="Ż" horiz-adv-x="1320" d="M1455 1202L481 274h430l59 258h348L1195 0H20l71 313 956 928H642l-59-262H239l125 537h1163zm-693 647c0 24.667 4.5 47.834 13.5 69.5S797 1959 813 1975s34.833 28.668 56.5 38 45.167 14 70.5 14c24 0 46.667-4.666 68-14s40-22 56-38 28.667-34.832 38-56.5 14-44.833 14-69.5-4.667-47.834-14-69.5-22-40.5-38-56.5-34.667-28.668-56-38-44-14-68-14c-25.333 0-48.833 4.666-70.5 14s-40.5 22-56.5 38-28.5 34.832-37.5 56.5-13.5 44.833-13.5 69.5z"/><glyph glyph-name="zdotaccent" unicode="ż" horiz-adv-x="1150" d="M62 164l574 606H430l-36-156H134l96 422h907l-41-180-578-588h222l43 183h260L940 0H25zm460 1206c0 24.667 4.5 47.834 13.5 69.5S557 1480 573 1496s34.833 28.668 56.5 38 45.167 14 70.5 14c24 0 46.667-4.666 68-14s40-22 56-38 28.667-34.832 38-56.5 14-44.833 14-69.5-4.667-47.834-14-69.5-22-40.5-38-56.5-34.667-28.668-56-38-44-14-68-14c-25.333 0-48.833 4.666-70.5 14s-40.5 22-56.5 38-28.5 34.832-37.5 56.5-13.5 44.833-13.5 69.5z"/><glyph glyph-name="Zcaron" unicode="Ž" horiz-adv-x="1320" d="M1455 1202L481 274h430l59 258h348L1195 0H20l71 313 956 928H642l-59-262H239l125 537h1163zm-63 780l-356-325H796l-196 325h248l96-157 172 157h276z"/><glyph glyph-name="zcaron" unicode="ž" horiz-adv-x="1150" d="M62 164l574 606H430l-36-156H134l96 422h907l-41-180-578-588h222l43 183h260L940 0H25zm1087 1339l-356-325H553l-196 325h248l96-157 172 157h276z"/><glyph glyph-name="florin" unicode="ƒ" horiz-adv-x="815" d="M315 1036h156l41 172c13.333 60 36.166 113.333 68.5 160s70 85.667 113 117 89.332 54.833 139 70.5S933 1579 985 1579c76.666 0 134.833-9.833 174.5-29.5s66.834-38.5 81.5-56.5l-162-211c-13.332 10.667-28.832 19.5-46.5 26.5S992.335 1319 965 1319c-36 0-69.332-11.667-100-35s-51.333-57.333-62-102l-35-146h190l-61-262H709L508-100c-15.333-60-38.666-113.333-70-160s-68.5-85.667-111.5-117-89.666-54.833-140-70.5S85.67-471 35-471c-76.666 0-134.833 9.833-174.5 29.5S-206.334-403-221-385l162 211c13.332-10.667 28.832-19.5 46.5-26.5S27.665-211 55-211c36 0 69.332 11.667 100 35s51.333 57.333 62 102l195 848H254z"/><glyph glyph-name="Scommaaccent" unicode="Ș" horiz-adv-x="1268" d="M80 532l364-.002c-18-67.333-24.332-115-19-143s16.5-51.333 33.5-70 40-33.167 69-43.5 64.168-15.5 105.5-15.5c37.334 0 70.834 5 100.5 15s55 23.833 76 41.5 37 38.667 48 63 16.5 50.833 16.5 79.5c0 22-4.666 41-14 57s-21.832 29.833-37.5 41.5-33.833 21.834-54.5 30.5-42.667 16.668-66 24l-172 60c-40 13.334-76.5 31.834-109.5 55.5s-61.333 51.5-85 83.5-42.167 68.168-55.5 108.5-20 83.5-20 129.5c0 82 15.333 153.834 46 215.5s73.5 113 128.5 154 120.667 71.834 197 92.5 160.166 31 251.5 31c66 0 126-7.666 180-23s100.5-35.832 139.5-61.5 68.666-54.333 89-86 32.832-63.5 37.5-95.5h115l-60-256h-362c14 62 18 105 12 129s-17.668 44.667-35 62-39.167 30.5-65.5 39.5-55.5 13.5-87.5 13.5c-32.667 0-63.667-3.167-93-9.5s-55-16.333-77-30-39.5-31.167-52.5-52.5-19.5-46.666-19.5-76c0-26 5.5-47.166 16.5-63.5s28.667-30.665 53-42.998S734 962 782 944l207-76c85.333-30.667 147.666-77 187-139s59-137.667 59-227c0-82.667-16.168-156.5-48.5-221.5S1109.332 160.333 1052 115 926.167 35 846.5 11 680-25 586-25c-70 0-133.833 8.667-191.5 26S288 42.833 248 74.5 179.667 140 163 176s-27 69.333-31 100H20zM489-29.002l289-104-197-338-206 72z"/><glyph glyph-name="scommaaccent" unicode="ș" horiz-adv-x="1018" d="M722 792c-27.333 14-62.664 21-105.997 21-18 0-35.167-1.5-51.5-4.5s-30.5-7.666-42.5-14-21.5-14.332-28.5-24-10.5-20.833-10.5-33.5c0-10 4.167-20.333 12.5-31s24.166-18.667 47.5-24l164-35c51.332-11.333 95-27.333 131-48s65.332-44.334 88-71 39.166-55.168 49.5-85.5 15.5-60.5 15.5-90.5c0-68.668-14-127.168-42-175.5S884.168 88.665 838.502 58 741.334 4.83 684.002-9.5 568.668-31 510.002-31c-98 0-176 13.332-234 40-32 15.332-58.668 34.332-80 57h-165l63 274h299c-4.668-28.668-5.168-49.5-1.5-62.5s11.166-24.668 22.5-35S439.667 224.332 457 219s37-8 59-8c46 0 82.5 8.333 109.5 25s40.5 39 40.5 67c0 16.667-6 31-18 43s-34 22.333-66 31l-131 33c-47.332 12-88.832 28.833-124.5 50.5S261 507 237 535s-42.166 58.5-54.5 91.5S164 693 164 727c0 56 12.5 105.333 37.5 148s58.834 78.167 101.5 106.5 91.668 49.666 147 64 113.667 21.5 175 21.5c44 0 84.5-3.834 121.5-11.5s69.833-18.168 98.5-31.5c16.667-7.334 31.667-15 45-23h210l-64-274H766c-3.333 30.666-18 52.333-44 65zM369.002-29l289-104-197-338-206 72z"/><glyph glyph-name="uni021A" unicode="Ț" horiz-adv-x="1368" d="M342 274h157l225 967H530l-43-186H143l107 461h1425l-106-461h-344l43 186h-194L849 274h169L954 0H279zM473-29l289-104-197-338-206 72z"/><glyph glyph-name="uni021B" unicode="ț" horiz-adv-x="762" d="M145 1036h193l59 248 383 164-98-412h190l-63-274H617l-87-371c-10-37.334-14.333-67-13-89s8.5-37.834 21.5-47.5S566.667 240 584 240c14 0 29.167 1.332 45.5 4s33.833 6.666 52.5 12l4-229c-21.333-8-42.333-15.334-63-22S580.5-7.17 557.5-11.5s-47.333-7.667-73-10S431-25 401-25c-48 0-90.167 5.5-126.5 16.5s-65 29.5-86 55.5-33.667 60.833-38 104.5S152 249.667 168 315l105 447H82zM215-29l289-104-197-338-206 72z"/><glyph glyph-name="apostrophe" unicode="ʼ" horiz-adv-x="340" d="M111 1493l288-104-196-338-207 71z"/><glyph glyph-name="circumflex" unicode="ˆ" horiz-adv-x="991" d="M100 1178l357 325h239l197-325H645l-96 157-172-157H100z"/><glyph glyph-name="caron" unicode="ˇ" horiz-adv-x="991" d="M954 1503l-356-325H358l-196 325h248l96-157 172 157h276z"/><glyph glyph-name="breve" unicode="˘" horiz-adv-x="987" d="M483 1157c-63.333 0-119.002 7.17-167.002 21.502s-89.667 35.333-125 63-65.166 61.5-89.5 101.5-44.5 86-60.5 138h252c13.334-40 35.834-70.5 67.5-91.5s72.5-31.5 122.5-31.5c48 0 87.334 9.667 118 29s54.335 50.666 71.002 94h250c-14.667-51.334-34-97-58-137s-53.833-73.834-89.5-101.5S697 1193.666 649 1179s-103.333-22-166-22z"/><glyph glyph-name="dotaccent" unicode="˙" horiz-adv-x="539" d="M92 1370c0 24.667 4.5 47.834 13.5 69.5S127 1480 143 1496s34.833 28.668 56.5 38 45.167 14 70.5 14c24 0 46.667-4.666 68-14s40-22 56-38 28.667-34.832 38-56.5 14-44.833 14-69.5-4.667-47.834-14-69.5-22-40.5-38-56.5-34.667-28.668-56-38-44-14-68-14c-25.333 0-48.833 4.666-70.5 14s-40.5 22-56.5 38-28.5 34.832-37.5 56.5S92 1345.332 92 1370z"/><glyph glyph-name="ring" unicode="˚" horiz-adv-x="1200" d="M606 1726c43.333 0 84.333-8.333 123-25s72.5-39.334 101.5-68 51.833-62.335 68.5-101.002 25-79.667 25-123-8.333-84.333-25-123-39.5-72.5-68.5-101.5-62.833-51.833-101.5-68.5-79.667-25-123-25-84.333 8.333-123 25-72.334 39.5-101 68.5-51.335 62.833-68.002 101.5-25 79.667-25 123 8.333 84.333 25 123 39.334 72.334 68 101S444.334 1684.334 483 1701s79.667 25 123 25zm-125-317c0-17.333 3.333-33.666 10-49s15.667-28.665 27-39.998 24.5-20.166 39.5-26.5 31.167-9.5 48.5-9.5 33.5 3.168 48.5 9.5 28 15.167 39 26.5 19.667 24.666 26 40 9.5 31.665 9.5 48.998-3.167 33.5-9.5 48.5-15 28-26 39-24 19.667-39 26-31.167 9.5-48.5 9.5-33.5-3.167-48.5-9.5-28.167-15-39.5-26-20.333-24-27-39-10-31.167-10-48.5z"/><glyph glyph-name="ogonek" unicode="˛" horiz-adv-x="664" d="M543 29C499 9.667 462.004-9 432.004-27s-54.333-36.5-73-55.5-32-38.5-40-58.5-12-41.334-12-64c0-12.668 2.667-23.335 8-32.002s12.166-15.5 20.5-20.5 18-8.667 29-11 22.5-3.5 34.5-3.5c26 0 48 2.167 66 6.5s33.666 9.5 47 15.5l49-166c-7.334-4-17.834-8.333-31.5-13s-28.835-9.167-45.502-13.5-33.834-7.833-51.5-10.5-34.168-4-49.5-4c-40.668 0-78.168 4.5-112.5 13.5s-64 22.167-89 39.5-44.5 38.833-58.5 64.5-21 55.5-21 89.5 6 65.833 18 95.5 28 56.834 48 81.5S210.667-26.166 236-6.5s51 37 77 52 51.666 27.667 77 38S437.666 101.333 457 106z"/><glyph glyph-name="tilde" unicode="˜" horiz-adv-x="903" d="M295 1479c28 0 55.002-4.832 81.002-14.5s51.5-20.333 76.5-32 49.333-22.334 73-32 47.167-14.5 70.5-14.5c28 0 52.833 5 74.5 15s41.167 27.666 58.5 53l158-70c-10-30-24.167-58-42.5-84s-39.5-48.834-63.5-68.5-50.333-35-79-46-58.667-16.5-90-16.5c-34.667 0-66 4.5-94 13.5s-54.5 19-79.5 30-49.5 21.166-73.5 30.5-49.333 14-76 14c-30 0-55.333-6.168-76-18.5s-37.667-27.167-51-44.5l-152 70c9.333 36 25.166 67.333 47.5 94s47.165 49 74.498 67 55.5 31.5 84.5 40.5 55.167 13.5 78.5 13.5z"/><glyph glyph-name="hungarumlaut" unicode="˝" horiz-adv-x="1044" d="M836 1516l-281-320H367l208 320h261zm-398 0l-256-320H-4l184 320h258z"/><glyph glyph-name="Gamma" unicode="Γ" horiz-adv-x="1253" d="M98 274h159l226 977H337l62 265h1140l-106-461h-328l45 196H833L608 274h165L710 0H34z"/><glyph glyph-name="Pi" unicode="Π" horiz-adv-x="1872" d="M380 1516h1621l-64-274h-156l-223-968h176L1670 0H994l64 274h150l223 969H839L616 274h153L706 0H46l64 274h156l223 968H316z"/><glyph glyph-name="pi" unicode="π" horiz-adv-x="1624" d="M1041.5-4c-36.333 9.333-64.665 27.332-84.998 54s-31.833 62.5-34.5 107.5 4 103.832 20 176.5l96 428h-225l-113-488h129l-63-274h-608l63 274h137l113 488h-137l63 274h1172l-64-274h-125l-92-395c-4-19.334-5.667-35.5-5-48.5s3.667-23.668 9-32 13.166-14.167 23.5-17.5 22.5-5 36.5-5c13.332 0 26.165 1 38.498 3s23.166 4.333 32.5 7L1411 8c-10.668-2.667-25-5.667-43-9s-38.168-6.333-60.5-9-45.167-4.667-68.5-6-45-2-65-2c-52 0-96.167 4.667-132.5 14z"/><glyph glyph-name="uni0400" unicode="Ѐ" horiz-adv-x="1505" d="M393 1516h1297l-119-517h-350l55 242H855l-76-326h337l-67-290H712l-82-351h396l61 269h351L1313 0H61l64 274h155l224 967H330zm647 142l-293 286v25h326l196-311h-229z"/><glyph glyph-name="uni0401" unicode="Ё" horiz-adv-x="1505" d="M393 1516h1297l-119-517h-350l55 242H855l-76-326h337l-67-290H712l-82-351h396l61 269h351L1313 0H61l64 274h155l224 967H330zm229 305c0 24.667 4.5 47.834 13.5 69.5s21.5 40.668 37.5 57 34.833 29.167 56.5 38.5 45.167 14 70.5 14c24 0 46.667-4.667 68-14s40-22.166 56-38.5 28.667-35.332 38-57 14-44.833 14-69.5-4.667-47.834-14-69.5-22-40.5-38-56.5-34.667-28.668-56-38-44-14-68-14c-25.333 0-48.833 4.666-70.5 14s-40.5 22-56.5 38-28.5 34.832-37.5 56.5-13.5 44.833-13.5 69.5zm479 0c0 24.667 4.667 47.834 14 69.5s22 40.668 38 57 34.833 29.167 56.5 38.5 45.167 14 70.5 14c24 0 46.667-4.667 68-14s40-22.166 56-38.5 28.667-35.332 38-57 14-44.833 14-69.5-4.667-47.834-14-69.5-22-40.5-38-56.5-34.667-28.668-56-38-44-14-68-14c-25.333 0-48.833 4.666-70.5 14s-40.5 22-56.5 38-28.667 34.832-38 56.5-14 44.833-14 69.5z"/><glyph glyph-name="uni0402" unicode="Ђ" horiz-adv-x="1784" d="M1675 1055h-327l45 196h-188l-89-383c49.333 12 100.166 21.166 152.5 27.5s99.832 9.5 142.5 9.5c75.332 0 141-9.668 197-29s102.5-45.834 139.5-79.5 64.666-73.5 83-119.5 27.5-95.668 27.5-149c0-59.334-8.334-114-25-164s-39.168-95.168-67.5-135.5-61.5-76-99.5-107-78-56.834-120-77.5S1460.83 7.83 1416.5-2.5 1329.332-18 1288-18h-33c-10 0-20 .666-30 2l67 288h29c23.333 0 48.5 2.832 75.5 8.5s52 16.166 75 31.5 42.167 36.332 57.5 63 23 61.333 23 104c0 28-6 51.5-18 70.5s-28 34.333-48 46-43.333 20.167-70 25.5-55 8-85 8c-52 0-101.833-3.833-149.5-11.5s-91.167-18.167-130.5-31.5l-73-312h152L1067 0H391l64 274h173l227 977H655l-45-196H285l106 461h1391z"/><glyph glyph-name="uni0403" unicode="Ѓ" horiz-adv-x="1229" d="M98 274h159l226 977H337l62 265h1140l-106-461h-328l45 196H833L608 274h165L710 0H34zm992 1694h326v-25l-306-286H875z"/><glyph glyph-name="uni0404" unicode="Є" horiz-adv-x="1503" d="M1225 1055c-18 44.667-48.497 81.332-91.497 110s-97.167 43-162.5 43c-45.333 0-89.166-7.168-131.5-21.5s-81.832-33.667-118.5-58-70.833-54-102.5-89-58.167-72.833-79.5-113.5h622l-59-264h-637v-21c0-49.333 7.167-94.833 21.5-136.5s34.5-77.167 60.5-106.5 57.333-52.166 94-68.5 78.334-24.5 125-24.5c74 0 138.168 18.834 192.5 56.5s100.167 83.835 137.5 138.502l317-158c-76.667-120-172.334-212.167-287-276.5s-247.668-96.5-399-96.5c-90 0-173.334 15.333-250 46s-142.5 74-197.5 130-98.334 123.333-130 202-47.5 165.667-47.5 261c0 142 26.332 270.667 79 386s121.666 213.666 207 295S570.667 1433.166 680 1477.5s220.667 66.5 334 66.5c108 0 201.167-19.5 279.5-58.5s142.833-91.167 193.5-156.5h190l-63-274h-389z"/><glyph glyph-name="uni0405" unicode="Ѕ" horiz-adv-x="1268" d="M80 532l364-.002c-18-67.333-24.332-115-19-143s16.5-51.333 33.5-70 40-33.167 69-43.5 64.168-15.5 105.5-15.5c37.334 0 70.834 5 100.5 15s55 23.833 76 41.5 37 38.667 48 63 16.5 50.833 16.5 79.5c0 22-4.666 41-14 57s-21.832 29.833-37.5 41.5-33.833 21.834-54.5 30.5-42.667 16.668-66 24l-172 60c-40 13.334-76.5 31.834-109.5 55.5s-61.333 51.5-85 83.5-42.167 68.168-55.5 108.5-20 83.5-20 129.5c0 82 15.333 153.834 46 215.5s73.5 113 128.5 154 120.667 71.834 197 92.5 160.166 31 251.5 31c66 0 126-7.666 180-23s100.5-35.832 139.5-61.5 68.666-54.333 89-86 32.832-63.5 37.5-95.5h115l-60-256h-362c14 62 18 105 12 129s-17.668 44.667-35 62-39.167 30.5-65.5 39.5-55.5 13.5-87.5 13.5c-32.667 0-63.667-3.167-93-9.5s-55-16.333-77-30-39.5-31.167-52.5-52.5-19.5-46.666-19.5-76c0-26 5.5-47.166 16.5-63.5s28.667-30.665 53-42.998S734 962 782 944l207-76c85.333-30.667 147.666-77 187-139s59-137.667 59-227c0-82.667-16.168-156.5-48.5-221.5S1109.332 160.333 1052 115 926.167 35 846.5 11 680-25 586-25c-70 0-133.833 8.667-191.5 26S288 42.833 248 74.5 179.667 140 163 176s-27 69.333-31 100H20z"/><glyph glyph-name="uni0406" unicode="І" horiz-adv-x="780" d="M393 1516h676l-63-275H855L630 274h171L737 0H61l64 274h155l224 967H330z"/><glyph glyph-name="uni0407" unicode="Ї" horiz-adv-x="926" d="M393 1516h676l-63-275H855L630 274h171L737 0H61l64 274h155l224 967H330zm31 305c0 44 15.333 81.668 46 113s68.667 47 114 47c22 0 42.5-4 61.5-12s35.667-19.166 50-33.5 25.666-31.5 34-51.5 12.5-41 12.5-63c0-21.332-4.168-42-12.5-62s-19.667-37.166-34-51.5-31-25.5-50-33.5-39.5-12-61.5-12c-45.333 0-83.333 15.668-114 47s-46 68.667-46 112zm377 0c0 44 15.333 81.668 46 113s68.667 47 114 47c21.333 0 41.666-4 61-12s36.165-19.166 50.498-33.5 25.5-31.5 33.5-51.5 12-41 12-63c0-21.332-4-42-12-62s-19.167-37.166-33.5-51.5-31.166-25.5-50.5-33.5-39.665-12-60.998-12c-45.333 0-83.333 15.668-114 47s-46 68.667-46 112z"/><glyph glyph-name="uni0408" unicode="Ј" horiz-adv-x="782" d="M352 1516h676l-63-275H816L569 172c-28-54-53-95.5-75-124.5S431.667-24.333 373-81c-51.333-52.667-109.333-107.667-174-165l-281 23L50-78.5C82-42.167 114.5-1 147.5 45s60.167 99.333 81.5 160l239 1036H289z"/><glyph glyph-name="uni0409" unicode="Љ" horiz-adv-x="2257" d="M1020 274h171.998l223 969h-301l-180-547c-30-91.334-63.833-179-101.5-263s-82-158-133-222-110.667-115.168-179-153.5S372.332 0 280.998 0H31l96 414h279l-37-158c24.668 12 46.835 29.332 66.502 52s39 52.166 58 88.5 38.167 80 57.5 131S591.333 639 614 709l179 534H549l63 273h1411l-63-273h-195l-67-291h205c69.333 0 131.333-10.168 186-30.5s100.834-48.667 138.5-85c37.667-36.333 66.334-79 86-128 19.667-49 29.5-102.167 29.5-159.5 0-74-12-144-36-210s-61.833-124.333-113.5-175S2074 73.333 1990 44 1803.667 0 1683 0H956zm614 404l-92-404h131c49.333 0 92.5 5.834 129.5 17.5s68.333 28.5 94 50.5 45 47.668 58 77 19.5 61.667 19.5 97c0 57.333-18.333 98.666-55 124s-88 38-154 38h-131z"/><glyph glyph-name="uni040A" unicode="Њ" horiz-adv-x="2163" d="M1315 1516h676l-64-275h-151l-68-289h205c69.333 0 131.333-10.168 186-30.5s100.834-48.667 138.5-85c37.667-36.333 66.334-79 86-128 19.667-49 29.5-102.167 29.5-159.5 0-74-12-144-36-210s-61.833-124.333-113.5-175S2084 73.333 2000 44 1814 0 1694 0H967l63 274h172l92 404H764l-92-404h170L778 0H102l64 274h156l223 967H373l63 275h676l-63-275H895l-68-289h531l67 289h-174zm330-838l-93-404h131c49.333 0 92.5 5.834 129.5 17.5S1881 320 1907 342s45.5 47.668 58.5 77 19.5 61.667 19.5 97c0 57.333-18.5 98.666-55.5 124s-88.167 38-153.5 38h-131z"/><glyph glyph-name="uni040B" unicode="Ћ" horiz-adv-x="1804" d="M1220 274h157.998l22 91c12.667 51.334 16.167 93.167 10.5 125.5s-18.667 57-39 74-47.666 28.5-82 34.5-73.832 9-118.5 9c-48 0-94.832-2-140.5-6S938 592 890 584l-71-310h159L915 0H266l63 274h158l225 977H513l-45-196H143l106 461h1393l-107-461h-327l45 196h-209l-86-374c52 8 106 14.667 162 20s109.668 8 161 8c83.334 0 158.5-7.167 225.5-21.5s121.334-40.5 163-78.5 69.335-90.167 83.002-156.5S1760.667 497 1736 393l-27-119h160L1806 0h-650z"/><glyph glyph-name="uni040C" unicode="Ќ" horiz-adv-x="1563" d="M1237 1968h326v-25l-306-286h-235zm133-725l64 273h618l-63-275h-134l-642-477 350-490h147L1649 0h-564l64 274-377 519zm-977 273h676l-63-275H855L630 274h171L737 0H61l64 274h155l224 967H330z"/><glyph glyph-name="uni040D" unicode="Ѝ" horiz-adv-x="1843" d="M410 1516h575l-63-275H797L627 502l874 1016h447l-64-277h-123l-223-967h123L1597 0h-575l63 274h129l166 725L510 0H61l64 274h127l221 967H346zm762 141l-293 286v25h326l196-311h-229z"/><glyph glyph-name="uni040E" unicode="Ў" horiz-adv-x="1444" d="M1079 1241l32 137.502 32 137.5h612l-31.5-137.5-31.5-137.5h-136l-311.5-473-312.5-473c-74-112-151.168-191.167-231.5-237.5S539-11.998 457-11.998h-41.5c-12.334 0-24.5.667-36.5 2l-85 7c-25.334 2-51.667 3-79 3h-98l47.5 206.5 48.5 207.5h309l-20-85-21-85c18 1.333 34.833 4.333 50.5 9s30.667 11.167 45 19.5 28 18.166 41 29.5S643 326.666 655 342L554 791.5 453 1241H313l32 137.5 32 137.5h612l-31.5-137.5L926 1241H821c15.333-82 29.5-162.833 42.5-242.5L905 756l145.5 242.5L1196 1241h-117zm-27 395c-63.333 0-119.002 7.17-167.002 21.502s-89.667 35.333-125 63-65.166 61.5-89.5 101.5-44.5 86-60.5 138h252c13.334-40 35.834-70.5 67.5-91.5s72.5-31.5 122.5-31.5c48 0 87.334 9.667 118 29s54.335 50.666 71.002 94h250c-14.667-51.334-34-97-58-137s-53.833-73.834-89.5-101.5S1266 1672.666 1218 1658s-103.333-22-166-22z"/><glyph glyph-name="uni040F" unicode="Џ" horiz-adv-x="1838" d="M1333 1516h676l-64-275h-156l-225-969h154L1654 0h-635l-80-348H630L710 0H61l63 272h146l225 969H323l63 275h676l-63-275H845L620 272h594l225 969h-170z"/><glyph glyph-name="uni0410" unicode="А" horiz-adv-x="1479" d="M907 274h84l-16 209H557L446 274h127L510 0h-612l63 274H89l689 1242h436l114-1242h192L1456 0H844zM711 772h243l-30 402z"/><glyph glyph-name="uni0411" unicode="Б" horiz-adv-x="1473" d="M150 274h172l225 977H403l62 265h1188l-107-461h-327l45 196H897l-70-299h205c70 0 132.167-10.168 186.5-30.5s100.333-48.667 138-85 66.5-79 86.5-128 30-102.167 30-159.5c0-74-12-144-36-210s-62-124.333-114-175-120-90.667-204-120S933 0 813 0H86zm614 404l-92-404h131c49.333 0 92.333 5.834 129 17.5s68 28.5 94 50.5 45.5 47.668 58.5 77 19.5 61.667 19.5 97c0 57.333-18.5 98.666-55.5 124s-88.167 38-153.5 38H764z"/><glyph glyph-name="uni0412" unicode="В" horiz-adv-x="1516" d="M125 274h153l224 967H330l63 275h766c64 0 120.667-9.666 170-29s90.833-46.165 124.5-80.498 59.167-74.833 76.5-121.5 26-97.334 26-152c0-56.668-9.333-111.5-28-164.5S1478.333 868 1435 826c-32-30-71.333-56.334-118-79 5.333-4 10-8 14-12 34-31.334 59.667-67.334 77-108s26-84.335 26-131.002c0-82.667-13.5-155-40.5-217S1328 165.333 1278 124s-110.333-72.333-181-93S947.333 0 860 0H61zm585 353l-82-353h249c34.666 0 65.5 5.168 92.5 15.5s49.666 25 68 44 32.332 41.668 42 68S1094 457 1094 489c0 19.334-3 37.5-9 54.5s-14.668 31.668-26 44-25.667 22-43 29-37.333 10.5-60 10.5H710zm143 614l-79-340.002h232c30 0 58 4.5 84 13.5s48.5 22 67.5 39 34 37.333 45 61 16.5 50.167 16.5 79.5c0 20-3.168 38.833-9.5 56.5s-15.5 33.334-27.5 47-27.168 24.335-45.5 32.002-39.5 11.5-63.5 11.5H853z"/><glyph glyph-name="uni0413" unicode="Г" horiz-adv-x="1253" d="M111 274h159l226 977H350l62 265h1140l-106-461h-328l45 196H846L621 274h165L723 0H47z"/><glyph glyph-name="uni0414" unicode="Д" horiz-adv-x="1737" d="M43 272h158c38 14 70.666 34.333 98 61s50.832 58.667 70.5 96 37.333 79.333 53 126L473 707l170 536H406l63 273h1411l-63-273h-152l-225-971h186l-143-620h-332l78 348H311l-80-348h-331zm739 412c-22.668-74-49.168-146.5-79.5-217.5S634 330.667 588 272h502l225 971H958z"/><glyph glyph-name="uni0415" unicode="Е" horiz-adv-x="1505" d="M393 1516h1297l-119-517h-350l55 242H855l-76-326h337l-67-290H712l-82-351h396l61 269h351L1313 0H61l64 274h155l224 967H330z"/><glyph glyph-name="uni0416" unicode="Ж" horiz-adv-x="2304" d="M821 274h158l86 371H924L590 274 526 0H23l63 274h123l502 512-299 455H297l65 275h517l-66-273 176-323h139l74 321h-158l64 275h649l-63-275h-160l-74-321h137l322 323 63 273h517l-64-275h-113l-510-455 269-512h123L2138 0h-504l66 274-164 371h-139l-86-371h159L1407 0H758z"/><glyph glyph-name="uni0417" unicode="З" horiz-adv-x="1270" d="M123 262c10.667 50.667 21.828 100.83 33.495 150.496s22.834 99.834 33.5 150.5h363c-6.666-26-12.5-52-17.5-78s-10.832-51.666-17.5-77c4-44 20.334-75.832 49-95.5s68.335-29.5 119.002-29.5c32.667 0 64 5.668 94 17s57 27 81 47 43.167 43.334 57.5 70 21.5 55 21.5 85c0 43.334-14.667 79-44 107s-72 42-128 42h-139l31.5 136.5 31.5 136.5h142c34 0 65.333 5 94 15s52.5 23.334 71.5 40 34 36.168 45 58.5 16.5 45.834 16.5 70.5c0 18-3.5 35.5-10.5 52.5s-17.333 32.334-31 46-30 24.5-49 32.5-41.5 12-67.5 12c-23.333 0-46.166-3.666-68.5-11S791.333 1222.832 772 1210.5s-36.5-26.666-51.5-43-25.834-33.5-32.5-51.5c0-17.332-3.668-36-11-56s-12.334-39.666-15-59H299c10.666 50.668 22.166 101 34.5 151s24.165 100.334 35.498 151h106c27.333 36.668 58 70 92 100s71.167 55.834 111.5 77.5 83.5 38.668 129.5 51 94 18.5 144 18.5c61.333 0 118.333-9.832 171-29.5s98.167-47 136.5-82 68.333-76.666 90-125 32.5-101.832 32.5-160.5c0-39.332-5.667-76.5-17-111.5s-27.333-67.5-48-97.5-45-57.332-73-82-58.333-46.333-91-65c31.333-23.333 57-60.666 77-112s30-104.332 30-159c0-73.332-16.833-143.165-50.5-209.498s-78.5-124-134.5-173-120.5-88.167-193.5-117.5-149.167-44-228.5-44c-57.333 0-109.166 6.333-155.5 19S409.834 32.334 373.5 57s-67 54.168-92 88.5S237 218.668 223 262H123z"/><glyph glyph-name="uni0418" unicode="И" horiz-adv-x="1805" d="M410 1516h575l-63-275H797L627 502l874 1016h447l-64-277h-123l-223-967h123L1597 0h-575l63 274h129l166 725L510 0H61l64 274h127l221 967H346z"/><glyph glyph-name="uni0419" unicode="Й" horiz-adv-x="1843" d="M410 1516h575l-63-275H797L627 502l874 1016h447l-64-277h-123l-223-967h123L1597 0h-575l63 274h129l166 725L510 0H61l64 274h127l221 967H346zm788 120c-63.333 0-119.002 7.17-167.002 21.502s-89.667 35.333-125 63-65.166 61.5-89.5 101.5-44.5 86-60.5 138h252c13.334-40 35.834-70.5 67.5-91.5s72.5-31.5 122.5-31.5c48 0 87.334 9.667 118 29s54.335 50.666 71.002 94h250c-14.667-51.334-34-97-58-137s-53.833-73.834-89.5-101.5S1412 1672.666 1364 1658s-103.333-22-166-22z"/><glyph glyph-name="uni041A" unicode="К" horiz-adv-x="1614" d="M1370 1243l64 273h618l-63-275h-134l-642-477 350-490h147L1649 0h-564l64 274-377 519zm-977 273h676l-63-275H855L630 274h171L737 0H61l64 274h155l224 967H330z"/><glyph glyph-name="uni041B" unicode="Л" horiz-adv-x="1880" d="M1071 274h175.998l223 969h-356l-180-547c-30-91.333-63.833-179-101.5-263s-82-158-133-222-110.667-115.167-179-153.5S372.332 0 280.998 0H31l96 414h279l-37-158c24.668 12 46.835 29.333 66.502 52s39 52.167 58 88.5 38.167 80 57.5 131S591.333 639 614 709l179 534H549l63 273h1411l-63-273h-139l-224-969h150L1683 0h-675z"/><glyph glyph-name="uni041C" unicode="М" horiz-adv-x="2419" d="M115 274h136l224 967H301l64 275h688l181-1016 619 1016h707l-63-275h-154l-225-967h149L2204 0h-613l64 274h115l189 814L1282 18H981L782 1100 583 274h144L664 0H51z"/><glyph glyph-name="uni041D" unicode="Н" horiz-adv-x="1946" d="M1413 1516h676l-64-275h-155l-224-967h175L1757 0h-676l64 274h151l90 388H720l-90-388h171L737 0H61l64 274h155l224 967H332l63 275h676l-63-275H855l-72-309h665l72 309h-170z"/><glyph glyph-name="uni041E" unicode="О" horiz-adv-x="1597" d="M748-31c-90.667 0-174.167 15.5-250.5 46.5S355.167 90 299.5 146s-99 123.166-130 201.5S123 512.664 123 607.997c0 94.667 12 183.5 36 266.5s57.167 159.167 99.5 228.5 92.333 131.333 150 186 120.167 100.834 187.5 138.5 138.166 66.5 212.5 86.5 149.5 30 225.5 30c94.666 0 180.5-15.666 257.5-47s142.666-75.165 197-131.498 96.332-123.833 126-202.5 44.5-165.334 44.5-260c0-92.668-11.168-180-33.5-262s-53.834-157.668-94.5-227-89-131.5-145-186.5-117.834-101.668-185.5-140-139.668-67.667-216-88S829.332-31 748-31zm38 336c44.667 0 88.335 7.17 131.002 21.502s82.667 34.166 120 59.5 71.666 55.665 103 90.998 58.165 74 80.498 116 39.833 86.667 52.5 134 19 95.666 19 145c0 50-6.833 95.5-20.5 136.5s-33.5 76.332-59.5 106-57.667 52.666-95 69-79.333 24.5-126 24.5c-68 0-132.667-15.668-194-47s-115-73.334-161-126-82.667-113-110-181-41-139-41-213c0-50 7-95.5 21-136.5s34.167-76.334 60.5-106 58-52.668 95-69S740 305 786 305z"/><glyph glyph-name="uni041F" unicode="П" horiz-adv-x="1888" d="M395 1516h1621l-64-274h-156l-223-968h176L1685 0h-676l64 274h150l223 969H854L631 274h153L721 0H61l64 274h156l223 968H331z"/><glyph glyph-name="uni0420" unicode="Р" horiz-adv-x="1395" d="M393 1516h704.998c69.333 0 131.333-10.5 186-31.5s100.834-49.832 138.5-86.5 66.335-79.833 86.002-129.5 29.5-103.167 29.5-160.5c0-73.333-11.833-143-35.5-209s-61.667-123.833-114-173.5S1268 636.333 1184 607s-186.333-44-307-44H697l-67-289h171L737 0H61l64 274h155l224 967H330zm461.998-275l-95-407h106c45.334 0 86.5 4.833 123.5 14.5s68.668 24.5 95 44.5 46.667 45 61 75 21.5 65.667 21.5 107c0 50.667-17.167 91-51.5 121s-85.833 45-154.5 45h-106z"/><glyph glyph-name="uni0421" unicode="С" horiz-adv-x="1513" d="M1133.5 1165.5c-43.667 28.333-97.837 42.5-162.504 42.5-45.333 0-89.333-7.167-132-21.5s-82.834-34.333-120.5-60-72-56.167-103-91.5-57.668-74-80-116-39.667-86.5-52-133.5-18.5-95.167-18.5-144.5c0-50 7-95.5 21-136.5s34.167-76.333 60.5-106 58-52.667 95-69 78.5-24.5 124.5-24.5c36.667 0 71 5 103 15s61.833 23.833 89.5 41.5 52.834 38.334 75.5 62S1077.332 472.67 1096 500l317-158c-76-120-171.5-212.166-286.5-276.5S878.33-31 726.998-31c-90.667 0-174.167 15.5-250.5 46.5S334.165 90 278.498 146s-99 123.168-130 201.5-46.5 165.167-46.5 260.5c0 94.667 12 183.5 36 266.5s57.167 159.167 99.5 228.5 92.333 131.333 150 186 120.334 100.834 188 138.5 138.668 66.5 213 86.5 149.5 30 225.5 30c60.668 0 116.668-6.332 168-19s98.334-30.666 141-54 76.835-47.832 102.502-73.5 46.167-48.5 61.5-68.5h190l-63-274h-389c-17.333 45.334-47.833 82.167-91.5 110.5z"/><glyph glyph-name="uni0422" unicode="Т" horiz-adv-x="1368" d="M342 274h157l225 967H530l-43-186H143l107 461h1425l-106-461h-344l43 186h-194L849 274h169L954 0H279z"/><glyph glyph-name="uni0423" unicode="У" horiz-adv-x="1444" d="M1079 1241l32 137.502 32 137.5h612l-31.5-137.5-31.5-137.5h-136l-311.5-473-312.5-473c-74-112-151.168-191.167-231.5-237.5S539-11.998 457-11.998h-41.5c-12.334 0-24.5.667-36.5 2l-85 7c-25.334 2-51.667 3-79 3h-98l47.5 206.5 48.5 207.5h309l-20-85-21-85c18 1.333 34.833 4.333 50.5 9s30.667 11.167 45 19.5 28 18.166 41 29.5S643 326.666 655 342L554 791.5 453 1241H313l32 137.5 32 137.5h612l-31.5-137.5L926 1241H821c15.333-82 29.5-162.833 42.5-242.5L905 756l145.5 242.5L1196 1241h-117z"/><glyph glyph-name="uni0424" unicode="Ф" horiz-adv-x="1599" d="M758 1587l631 .003-52-219h-149l-21-90c71.333-2.667 138-13.167 200-31.5s116.667-44.333 164-78 84.5-74 111.5-121 40.5-99.833 40.5-158.5c0-84.667-18.667-158.834-56-222.5s-88.833-116.335-154.5-158.002-142.5-73.333-230.5-95-182.667-33.167-284-34.5l-24-105h172L1042 0H367l63 274h172l25 105c-70 2.667-135.667 13.167-197 31.5s-114.833 44-160.5 77-81.5 72.667-107.5 119-39 98.833-39 157.5c0 86 19.833 161 59.5 225s92.167 116.833 157.5 158.5 141 73.167 227 94.5 175.667 33.333 269 36l20 90H707zm588-707.997c0 30-7.167 55.5-21.5 76.5s-32.833 38-55.5 51-47.667 23-75 30-54 11.167-80 12.5l-102-441c36.667 1.333 74.5 7.5 113.5 18.5s74.833 27.5 107.5 49.5 59.667 49.667 81 83 32 73.333 32 120zm-885-99c0-28.667 6.833-53.5 20.5-74.5s31-38.668 52-53 44.5-25 70.5-32 51.333-11.168 76-12.5l102 441c-34-1.334-69.833-7.167-107.5-17.5s-72.5-26.5-104.5-48.5-58.167-49.667-78.5-83-30.5-73.333-30.5-120z"/><glyph glyph-name="uni0425" unicode="Х" horiz-adv-x="1618" d="M1208 1516h676l-63-275h-125l-558-491 312-476h170L1556 0H881l63 274h118L892 534 597 274h101L635 0H-41l64 274h121l584 512-297 455H258l64 275h675l-63-275H817l156-239 272 239h-100z"/><glyph glyph-name="uni0426" unicode="Ц" horiz-adv-x="1867" d="M1339 1516h676l-64-275h-155l-223-967h293l-144-622h-309l80 348H61l63 274h157l223 967H332l63 275h677l-63-275H855L632 274h590l224 967h-170z"/><glyph glyph-name="uni0427" unicode="Ч" horiz-adv-x="1708" d="M408 1516l612.004.002-64-275h-120l-45-188c-12.667-52-15.834-94-9.5-126s19.665-57 39.998-75 47.5-29.667 81.5-35 73.667-8 119-8 89.5 1.667 132.5 5 86.167 8.333 129.5 15l94 412h-135l64 275h612l-64-275h-126l-224-967h156l-64-274h-675l63 274h170l62 265c-50.667-8.667-102.667-15.334-156-20s-104-7-152-7c-83.333 0-159.333 7.166-228 21.5s-125.334 40.665-170 78.998S436.166 703 420.5 769s-11.167 151 13.5 255l49 217H344z"/><glyph glyph-name="uni0428" unicode="Ш" horiz-adv-x="2607" d="M2030 1516h676l-64-275h-156l-223-967h156L2355 0H25l63 274h156l224 967H305l64 275h665l-63-275H817L594 274h496l223 967h-170l63 275h676l-63-275h-156l-223-967h473l223 967h-170z"/><glyph glyph-name="uni0429" unicode="Щ" horiz-adv-x="2566" d="M2038 1516h676l-64-275h-156l-223-967h301l-143-622h-309l80 348H25l63 274h164l223 967H303l64 275h675l-63-275H825L602 274h496l223 967h-170l63 275h676l-63-275h-156l-223-967h473l223 967h-170z"/><glyph glyph-name="uni042A" unicode="Ъ" horiz-adv-x="1544" d="M303 274h181.998l226 977h-164l-45-196h-328l107 461h1003l-61-265h-162l-70-299h195c69.333 0 131.333-10.168 186-30.5s100.834-48.667 138.5-85 66.335-79 86.002-128S1626 606.333 1626 549c0-74-12-144-36-210s-61.833-124.333-113.5-175S1357 73.333 1273 44 1087 0 967 0H240zm624.998 404l-92-404h120c49.333 0 92.5 5.834 129.5 17.5s68.5 28.5 94.5 50.5 45.333 47.668 58 77 19 61.667 19 97c0 57.333-18.333 98.666-55 124s-87.667 38-153 38h-121z"/><glyph glyph-name="uni042B" unicode="Ы" horiz-adv-x="2230" d="M434 1516h676l-63-275H895l-68-289h205c70 0 132.167-10.168 186.5-30.5s100.333-48.667 138-85 66.5-79 86.5-128 30-102.167 30-159.5c0-74-12-144-36-210s-62-124.333-114-175-120-90.667-204-120S933 0 813 0H86l64 274h172l223 967H371zm330-838l-92-404h131c49.333 0 92.333 5.834 129 17.5s68 28.5 94 50.5 45.5 47.668 58.5 77 19.5 61.667 19.5 97c0 57.333-18.5 98.666-55.5 124s-88.167 38-153.5 38H764zm933 838h676l-63-275h-151l-225-967h171L2041 0h-676l64 274h155l224 967h-174z"/><glyph glyph-name="uni042C" unicode="Ь" horiz-adv-x="1386" d="M434 1516h676l-63-275H895l-68-289h205c70 0 132.167-10.168 186.5-30.5s100.333-48.667 138-85 66.5-79 86.5-128 30-102.167 30-159.5c0-74-12-144-36-210s-62-124.333-114-175-120-90.667-204-120S933 0 813 0H86l64 274h172l223 967H371zm330-838l-92-404h131c49.333 0 92.333 5.834 129 17.5s68 28.5 94 50.5 45.5 47.668 58.5 77 19.5 61.667 19.5 97c0 57.333-18.5 98.666-55.5 124s-88.167 38-153.5 38H764z"/><glyph glyph-name="uni042D" unicode="Э" horiz-adv-x="1671" d="M645 641l31.998 137.5c10 45 20.667 90.5 32 136.5h671c-5.333 57.333-22.333 108.666-51 154-13.333 22-29.333 41.5-48 58.5s-38.5 31.666-59.5 44-44.167 21.5-69.5 27.5-52.333 9-81 9c-69.333 0-132.333-13.668-189-41s-105-64.667-145-112h-329c0 1.333.333 2 1 2s1 .667 1 2c-4.667-1.333-8.667-2-12-2s-7-.667-11-2l32.5 139 33.5 139h133c31.333 28.667 67.5 55.667 108.5 81s84.667 47.833 131 67.5 95.5 35 147.5 46 104.333 16.5 157 16.5c94.667 0 179.5-15.667 254.5-47s138.833-75 191.5-131 93-123.667 121-203 42-166 42-260c0-139.333-24.667-266.333-74-381s-115.666-213-199-295S1285.834 81.5 1175.5 36.5 949-31 827-31c-81.333 0-156.166 12-224.5 36s-128.165 56.5-179.498 97.5-92.333 89.5-123 145.5-48.667 116.667-54 182l172 45.5 172 44.5c5.333-30 15.166-58 29.5-84s33.832-48.833 58.5-68.5 54-35 88-46S839 305 883 305c46 0 92.666 8.5 140 25.5s91.832 40.5 133.5 70.5 79.166 65.5 112.5 106.5S1328.666 593 1348 641H645z"/></font>
</defs>
</svg>
