<svg><defs><font horiz-adv-x="1235"><font-face font-family="Arvo" font-weight="400" font-style="italic" units-per-em="2048" panose-1="2 6 6 3 4 2 2 2 3 4" ascent="1638" descent="-410" x-height="1036" cap-height="1516" bbox="-281.001 -3014 2507 2078" underline-thickness="50" underline-position="-50" unicode-range="U+0020-U+FB02"/><glyph glyph-name=".notdef" horiz-adv-x="1024" d="M102 0v1092h820V0H102zm102 102h616v888H204V102z"/><glyph glyph-name="space" horiz-adv-x="449"/><glyph glyph-name="exclam" unicode="!" horiz-adv-x="842" d="M514 1577h260L462 410H284zM198 119c0 18 3.5 35 10.5 51s16.5 29.833 28.5 41.5 26 21 42 28 33.333 10.5 52 10.5c18 0 35-3.5 51-10.5s29.833-16.333 41.5-28 21-25.5 28-41.5 10.5-33 10.5-51-3.5-35.167-10.5-51.5-16.333-30.666-28-43S398 2.336 382-4.997s-33-11-51-11c-18.667 0-36 3.667-52 11s-30 17.166-42 29.5-21.5 26.665-28.5 42.998S198 101 198 119z"/><glyph glyph-name="quotedbl" unicode="&quot;" horiz-adv-x="745" d="M288 1059H163l71 510 183 12zm286 0H450l71 510 182 12z"/><glyph glyph-name="numbersign" unicode="#" horiz-adv-x="1455" d="M374 1184h240l135 313h201l-134-313h358l134 313h201l-134-313h226l-90-172h-209l-192-451h243l-88-172h-228L872 0H669l166 389H478L313 0H106l167 389H34l92 172h221l193 451H284zm177-623h357l193 451H743z"/><glyph glyph-name="dollar" unicode="$" horiz-adv-x="1278" d="M384-181l77.003 334.996c-18.667 2.667-42.834 7.834-72.5 15.5s-59 21.168-88 40.5-51.5 42.167-67.5 68.5-26 54.5-30 84.5h-80l17.5 68.5 17.5 68.5h233l-8-31c-2.668-10-5.168-23.167-7.5-39.5s1-33 10-50 22.666-31.333 41-43 41.5-20.334 69.5-26 60-8.5 96-8.5c38 0 72.666 4.332 104 13s58.5 20.833 81.5 36.5 40.832 34.334 53.5 56 19 45.5 19 71.5c0 28.668-9.668 52.168-29 70.5s-37.334 32.334-54 42-38 17.168-64 22.5l-158 43c-35.334 9.334-66.5 21.667-93.5 37s-50 33.5-69 54.5-33.334 44.833-43 71.5-14.5 55.667-14.5 87c0 51.333 10.832 97.833 32.5 139.5s52.833 77.334 93.5 107 90 52.5 148 68.5c35.333 9.334 73.333 16 114 20l74 317h196l-75-324c4.667-1.332 18-4.5 40-9.5s47.833-15.666 77.5-32 54.334-35.665 74-57.998 33.168-46.833 40.5-73.5h82l-17.5-68.5-17.5-68.5h-225c1.334 3.333 2.167 6.5 2.5 9.5s2.166 11.5 5.5 25.5 1.165 30.167-6.502 48.5-20.5 33.833-38.5 46.5-40 22.334-66 29-53.666 10-83 10c-40.666 0-77.166-4.166-109.5-12.5s-59.832-19.665-82.5-33.998-40.166-31.666-52.5-52S513 953 513 929c0-21.332 4.834-38.832 14.5-52.5S549.67 851.668 565 843s32.167-15.667 50.5-21l53.5-16 153-49c74.667-23.333 130.667-55.333 168-96s56-93 56-157c0-54-11.833-103-35.5-147s-56.667-81.5-99-112.5-86.333-53-132-66S693.333 157 658 153l-77-334H384z"/><glyph glyph-name="percent" unicode="%" horiz-adv-x="1671" d="M192.5 1258c21.667 47.333 51.334 88.833 89 124.5s81.668 64 132 85S517.668 1499 575 1499c41.333 0 79.5-7.667 114.5-23s65.333-35.833 91-61.5 45.667-55 60-88S862 1259 862 1223c0-50.667-10.5-99.5-31.5-146.5s-50-88.5-87-124.5-81-64.667-132-86-106.167-32-165.5-32c-42.667 0-81.5 7.5-116.5 22.5s-65 35.167-90 60.5-44.5 54.5-58.5 87.5-21 67.5-21 103.5c0 52.667 10.833 102.667 32.5 150zm278.5 61.5c-26-10.333-49.166-24.5-69.5-42.5s-36.665-39-48.998-63-18.5-49.667-18.5-77c0-20.667 3.167-39.667 9.5-57s15.5-32.333 27.5-45 26.333-22.5 43-29.5 35.667-10.5 57-10.5c26.667 0 53 5.5 79 16.5s49 25.833 69 44.5 36.167 40.5 48.5 65.5 18.5 51.167 18.5 78.5c0 19.333-3.333 37.333-10 54s-15.834 31-27.5 43-25.835 21.333-42.502 28-35 10-55 10c-27.333 0-54-5.167-80-15.5zm950 220.5h225L246-16H20zM844 239c0 43.333 5 81.5 15 114.5s24 63.832 42 92.5 39.668 55 65 79 53.334 44.666 84 62 63.668 30.665 99 39.998 72 14 110 14c41.334 0 79.5-7.5 114.5-22.5s65.334-35.333 91-61 45.668-55 60-88 21.5-67.5 21.5-103.5c0-50.667-10.5-99.5-31.5-146.5s-50-88.667-87-125-80.832-65.333-131.5-87-106-32.5-166-32.5c-42.666 0-81.5 7.667-116.5 23s-65 35.833-90 61.5-44.5 54.834-58.5 87.5-21 63.335-21 92.002zm311.5 222.5c-25.667-10.334-48.498-24.502-68.498-42.502s-36.167-39-48.5-63-18.5-50-18.5-78c0-41.333 12-75.166 36-101.5s57-39.5 99-39.5c26.667 0 53 5.5 79 16.5s49 25.834 69 44.5 36.167 40.335 48.5 65.002 18.5 51 18.5 79c0 19.333-3.333 37.166-10 53.5s-15.834 30.5-27.5 42.5-25.835 21.5-42.502 28.5-35 10.5-55 10.5c-27.333 0-53.833-5.168-79.5-15.5z"/><glyph glyph-name="ampersand" unicode="&" horiz-adv-x="1382" d="M1075-20L921 193.003c-32.666-33.333-67-63.666-103-91s-73.666-50.832-113-70.5-80.5-35-123.5-46-87.5-16.5-133.5-16.5c-54 0-103.666 10-149 30s-84.665 47.5-117.998 82.5-59.333 76-78 123-28 97.5-28 151.5c0 55.334 10.667 107.167 32 155.5s49.5 92.166 84.5 131.5 75 74 120 104 91.167 54.666 138.5 74l-41 56.5c-14.667 20.332-28.334 43-41 68s-23.335 52.666-32.002 83-13 64.165-13 101.498c0 58.668 11.833 113.168 35.5 163.5s55.667 94 96 131 87.833 66.168 142.5 87.5 113 32 175 32c47.333 0 91.666-8.666 133-26s77.332-40.832 108-70.5 54.833-63.666 72.5-102S1112 1267 1112 1225c0-46-5.333-86.832-16-122.5s-26.167-68-46.5-97-45.666-55.666-76-80S908.67 876.67 870 852c-24.666-16.666-49.833-32-75.5-46s-52.167-27.666-79.5-41l226-288c32 50 59.833 99.168 83.5 147.5s43.167 92.167 58.5 131.5h180c-25.333-67.333-56-136.5-92-207.5S1093.667 409 1047 343l194-247zM458 657.003c-28.666-12-55.668-28.168-81-48.5s-47.5-43.5-66.5-69.5-34-54.168-45-84.5-16.5-61.167-16.5-92.5c0-32 5.332-61.833 16-89.5s25.833-51.5 45.5-71.5 43.334-35.667 71-47 58.168-17 91.5-17c34 0 66.834 4.667 98.5 14s62.168 22.166 91.5 38.5 57.5 35.832 84.5 58.5 52.5 47.333 76.5 74l-277 370-45-17.5-44-17.5zM839 1020c25.332 22.667 47.663 49.333 66.996 80s29 64 29 100c0 24.667-4.667 48-14 70s-22 41.333-38 58-35 29.834-57 39.5-45.667 14.5-71 14.5c-36.667 0-71-6.332-103-19s-59.667-30-83-52-41.833-47.666-55.5-77-20.5-61-20.5-95c0-22.666 2.833-43.833 8.5-63.5s13.834-39.167 24.5-58.5 23.668-39.166 39-59.5l51-66.5c40.668 17.334 79.835 36.167 117.502 56.5s72.834 44.5 105.5 72.5z"/><glyph glyph-name="quotesingle" unicode="'" horiz-adv-x="414" d="M275 1059H150l71 510 183 12z"/><glyph glyph-name="parenleft" unicode="(" horiz-adv-x="825" d="M432-369c-30 52-56.998 108.332-80.998 169s-44.333 123.666-61 189-29.334 132.332-38 201-13 137.666-13 207c0 135.332 14.666 264.5 44 387.5s72.665 240.332 129.998 352 123.833 215 199.5 310S777.334 1631.665 880 1717l124-124c-92.666-85.334-172-168.5-238-249.5S642.5 1171 593.5 1069 507 861 481 751s-39-225-39-345c0-61.334 3.168-122.167 9.5-182.5s15.834-118.666 28.5-175 28.668-110.332 48-162 41.667-99.833 67-144.5z"/><glyph glyph-name="parenright" unicode=")" horiz-adv-x="948" d="M482 1712c30.667-52 58-108.17 82-168.503s44.166-123.333 60.5-189 28.832-132.834 37.5-201.5 13-137.668 13-207c0-130-15.334-253.334-46-370s-74.668-229.668-132-339-127-213.667-209-313-176-197-282-293l-118 118c90 83.333 171 171.333 243 264s133.332 188.834 184 288.5 89.666 202.5 117 308.5 41 215.334 41 328c0 61.334-3.168 122-9.5 182s-16 118.334-29 175S405.33 1405.833 386 1457.5s-41.667 99.833-67 144.5z"/><glyph glyph-name="asterisk" unicode="*" horiz-adv-x="829" d="M535 1300l260 78 12-137-257-76 101-202-125-70-98 202-184-194-109 82 190 199-225 78 66 122 225-79 55 243h146z"/><glyph glyph-name="plus" unicode="+" horiz-adv-x="1270" d="M140 786h416l98 424h195l-98-424h415l-39-172H711l-98-428H419l98 428H101z"/><glyph glyph-name="comma" unicode="," horiz-adv-x="569" d="M205 283l219-86-256-537-171 67z"/><glyph glyph-name="hyphen" unicode="-" horiz-adv-x="856" d="M137 496l40 172h571l-40-172H137z"/><glyph glyph-name="period" unicode="." horiz-adv-x="514" d="M50 119c0 18 3.5 35 10.5 51S77 199.833 89 211.5s26 21 42 28 33.333 10.5 52 10.5c18 0 35-3.5 51-10.5s29.833-16.333 41.5-28 21-25.5 28-41.5 10.5-33 10.5-51-3.5-35.167-10.5-51.5-16.333-30.666-28-43S250 2.336 234-4.997s-33-11-51-11c-18.667 0-36 3.667-52 11s-30 17.166-42 29.5S67.5 51.166 60.5 67.5 50 101 50 119z"/><glyph glyph-name="slash" unicode="/" horiz-adv-x="1001" d="M1039 1556h248L150 0H-98z"/><glyph glyph-name="zero" unicode="0" horiz-adv-x="1409" d="M594-18c-78.667 0-146.5 13-203.5 39S286.667 82.833 250 128.5s-63.667 99.667-81 162S143 420 143 492c0 73.333 7.833 150.333 23.5 231s38.667 159.834 69 237.5 67.666 151.5 112 221.5 95.165 131.5 152.498 184.5 121 95.168 191 126.5 145.667 47 227 47c80 0 148.5-13.832 205.5-41.5s103.667-65 140-112 62.833-101.666 79.5-164 25-128.5 25-198.5c0-76.666-8-155.5-24-236.5s-39.5-160.166-70.5-237.5-68.833-150.332-113.5-219-95.667-128.833-153-180.5-120.666-92.667-190-123S673.334-18 594-18zm22 184c52 0 101.5 13.17 148.5 39.502s90.667 61.666 131 106 76.666 95.332 109 153 60 117.666 83 180 40.666 124.832 53 187.5 18.5 121.333 18.5 176c0 47.333-4.5 92.5-13.5 135.5s-23.668 80.667-44 113-47.334 58-81 77-75.5 28.5-125.5 28.5c-51.334 0-100.5-13.833-147.5-41.5s-90.5-64.667-130.5-111-76.334-99.166-109-158.5-60.5-120.832-83.5-184.5-40.834-126.833-53.5-189.5-19-120.334-19-173c0-46.668 4.5-90.5 13.5-131.5S389.33 295.667 410 265s47.833-54.835 81.5-72.502S566.667 166 616 166z"/><glyph glyph-name="one" unicode="1" horiz-adv-x="844" d="M182 172h147l254 1109-343-167 47 209 477 236h80L524 172h150L635 0H143z"/><glyph glyph-name="two" unicode="2" horiz-adv-x="1143" d="M14 154l679.997 638.997 83 78c29.333 27.333 56.333 56.333 81 87s45.167 62.5 61.5 95.5 24.5 67.5 24.5 103.5c0 27.333-5 52.833-15 76.5s-24.167 44.334-42.5 62-40.666 31.5-67 41.5-55.832 15-88.5 15c-34 0-66.832-5.5-98.5-16.5s-60.666-27-87-48-49.5-47-69.5-78-35.332-66.832-46-107.5h-207c16 68.668 41.5 130.335 76.5 185.002s76.5 100.833 124.5 138.5 101 66.5 159 86.5 117.668 30 179 30c56.668 0 108.335-9.5 155.002-28.5s86.833-44.833 120.5-77.5 59.667-70.834 78-114.5 27.5-90.168 27.5-139.5c0-39.334-3.5-75.667-10.5-109s-19.667-67-38-101-43.833-70.167-76.5-108.5-75-81.833-127-130.5L290 172h621L872 0H-20z"/><glyph glyph-name="three" unicode="3" horiz-adv-x="1124" d="M938 1151c0 28.667-5.497 56.502-16.497 83.502s-26.333 50.833-46 71.5-43.334 37.167-71 49.5-58.168 18.5-91.5 18.5c-41.334 0-78-5.333-110-16s-59.834-25-83.5-43-43.168-38.5-58.5-61.5-27-46.833-35-71.5c-1.334-3.333-2.167-5.833-2.5-7.5s-.833-3.5-1.5-5.5-1.5-4.667-2.5-8-2.167-8-3.5-14l-201 2c10 60.667 30.333 115.5 61 164.5s68.667 90.833 114 125.5 97.166 61.167 155.5 79.5 120.165 27.5 185.498 27.5c58.668 0 113.168-8.5 163.5-25.5s94-41.333 131-73 66.168-69.834 87.5-114.5 32-95 32-151c0-40.668-5.166-80.5-15.5-119.5s-27-75.668-50-110-52.832-65.334-89.5-93S909 808.666 857 790c22-10.667 42.5-24.834 61.5-42.5S954 709 968 685s24.834-50.334 32.5-79 11.5-59.335 11.5-92.002c0-78-14.332-150.167-43-216.5s-68.5-123.833-119.5-172.5-111.332-86.834-181-114.5-145.833-41.5-228.5-41.5c-47.333 0-93.5 6.832-138.5 20.5s-86 33-123 58-68.333 55.332-94 91-42.834 75.5-51.5 119.5c-4 17.332-7 35.332-9 54s-2.334 38.333-1 59h200c.666-32 6.5-61.833 17.5-89.5s26.832-52 47.5-73 45.833-37.5 75.5-49.5 63.5-18 101.5-18c49.333 0 94.833 9.333 136.5 28s77.5 44.167 107.5 76.5 53.5 70 70.5 113 25.5 88.833 25.5 137.5c0 32.667-5.667 62.5-17 89.5s-27 50-47 69-43.833 33.833-71.5 44.5-58.167 16-91.5 16h-89l35 157h74c50 0 95.833 7.667 137.5 23s77.5 35.833 107.5 61.5 53.333 55.334 70 89 25 68.835 25 105.502z"/><glyph glyph-name="four" unicode="4" horiz-adv-x="1153" d="M59 596l752 920h231L298 610h392l58 250 200 14-61-264h225l-41-172H847l-62-266h145L891 0H399l39 172h150l62 266H20z"/><glyph glyph-name="five" unicode="5" horiz-adv-x="1192" d="M415 910c37.333 20.667 75.164 36.33 113.497 46.997s81.833 16 130.5 16c60.667 0 117.334-10 170-30s98.335-48.5 137.002-85.5 69-81.5 91-133.5 33-109.667 33-173c0-64-8.168-122.667-24.5-176s-38.667-101.666-67-145-62-81.165-101-113.498-81-59.5-126-81.5S679.333-3.5 630-14.5 531-31 481-31c-62 0-119 8.332-171 25s-97.833 39.666-137.5 69S100 127 74 167 30 250.33 20 297l183 78c7.333-30 18.833-58.668 34.5-86s35.834-51.5 60.5-72.5 53.668-37.834 87-50.5 71.667-19 115-19c46.667 0 93 8.666 139 26s87.333 42.5 124 75.5 66.5 73.832 89.5 122.5S887 475.665 887 539c0 37.332-6.333 72-19 104s-30.667 59.832-54 83.5-51.333 42.333-84 56S661 803 621 803c-54 0-105.333-9.333-154-28s-91.667-43.667-129-75l-154 29 185 787h864l-41-173H516z"/><glyph glyph-name="six" unicode="6" horiz-adv-x="1229" d="M1049 1516L604.002 976.998c25.333 7.333 47.333 12 66 14s35.334 3 50 3c64 0 123-11 177-33s100.668-52.167 140-90.5 70-83.5 92-135.5 33-108 33-168c0-87.333-16.832-166.5-50.5-237.5s-78.333-131.667-134-182-119.834-89.166-192.5-116.5-148-41-226-41c-70 0-133.168 11.334-189.5 34s-104.334 53.5-144 92.5S155.333 200.667 134 252s-32 106-32 164c0 36.668 4 73.835 12 111.502s20.832 77 38.5 118 40.666 84 69 129S284.666 867.667 326 919l479 597h244zM681.002 838.998c-66.667 0-127-15.834-181-47.5s-96.332-70.5-127-116.5-50.166-88.668-58.5-128-12.5-79.667-12.5-121c0-38 6.334-73.333 19-106s31-61 55-85 53.168-42.833 87.5-56.5 73.5-20.5 117.5-20.5c49.334 0 96.834 9.5 142.5 28.5s86.168 46 121.5 81 63.667 77.5 85 127.5 32 105.667 32 167c0 42.667-7.667 81.167-23 115.5s-36 63.5-62 87.5-56 42.333-90 55-69.333 19-106 19z"/><glyph glyph-name="seven" unicode="7" horiz-adv-x="1212" d="M100 172h138c61.333 105.333 126.833 212 196.5 320L643 807l201.5 290 176.5 246H448l-32-137H221l72 310h1001l-34-150-202.5-275.5-212-298.5L637 482c-68-104.667-131.667-208-191-310h146L553 0H61z"/><glyph glyph-name="eight" unicode="8" horiz-adv-x="1247" d="M844 1544c52 0 100.166-8.835 144.5-26.502s82.665-42.167 114.998-73.5 57.5-68.166 75.5-110.5 27-88.165 27-137.498c0-41.333-6.333-81-19-119s-30.334-73.5-53-106.5-49.5-63.167-80.5-90.5-64.834-51-101.5-71c46.666-36.667 83.666-81.334 111-134s41-109 41-169c0-72-14.668-139.834-44-203.5s-70-119-122-166S824.163 52.33 752.497 25 602.662-16 517.995-16c-65.333 0-123.666 10.666-175 32s-94.832 50.332-130.5 87-63 79-82 127-28.5 99-28.5 153c0 51.332 8.334 100.5 25 147.5S166.832 621 196.5 661s64.834 75.832 105.5 107.5S387.334 826.332 436 847c-33.333 32-59.333 69.167-78 111.5s-28 86.833-28 133.5c0 62 14 120.5 42 175.5s65.5 103 112.5 144 101.667 73.333 164 97S776 1544 844 1544zM297 398.998c0-35.333 5.497-67.5 16.497-96.5s27-53.668 48-74 46.667-36.167 77-47.5 64.5-17 102.5-17c56.667 0 107.834 9.167 153.5 27.5s84.5 43 116.5 74 56.668 66.333 74 106 26 81.167 26 124.5c0 32-5.832 62.167-17.5 90.5s-28.166 52.833-49.5 73.5-46.665 37-75.998 49-62 18-98 18c-50 0-97.668-8.833-143-26.5s-85-41.5-119-71.5-61-64.833-81-104.5-30-81.5-30-125.5zM511.996 1098c0-27.333 4.832-52.832 14.5-76.5s23.333-44.333 41-62 39-31.5 64-41.5 52.833-15 83.5-15c38 0 75.333 7.333 112 22s69.5 34.667 98.5 60 52.333 54.833 70 88.5 26.5 69.167 26.5 106.5c0 28.667-4.667 55-14 79s-22.5 44.667-39.5 62-37.833 30.833-62.5 40.5-52.334 14.5-83 14.5c-41.334 0-80.667-7.667-118-23s-70.333-35.666-99-61-51.5-54.832-68.5-88.5-25.5-68.833-25.5-105.5z"/><glyph glyph-name="nine" unicode="9" horiz-adv-x="1294" d="M295 0l447 543.002c-25.333-8-47.5-12.833-66.5-14.5s-35.5-2.5-49.5-2.5c-64 0-123 11-177 33s-100.667 52.167-140 90.5-70 83.5-92 135.5-33 108-33 168c0 87.333 16.833 166.5 50.5 237.5s78.334 131.667 134 182 119.835 89.166 192.502 116.5 148 41 226 41c70 0 133.167-11.334 189.5-34s104.333-53.5 144-92.5 70.167-84.168 91.5-135.5 32-106 32-164c0-36.668-4-73.835-12-111.502s-20.833-77-38.5-118-40.834-84-69.5-129S1060.666 652.333 1020 601L539 0H295zm370 681.002c80.667 0 150 20 208 60s106.666 102.667 146 188c9.332 26.667 15.832 53.667 19.5 81s5.5 55.333 5.5 84c0 38-6.334 73.333-19 106s-31 61-55 85-53.168 42.833-87.5 56.5-73.5 20.5-117.5 20.5c-49.334 0-96.834-9.5-142.5-28.5s-86.168-46-121.5-81-63.667-77.5-85-127.5-32-105.667-32-167c0-43.333 7.667-82 23-116s36-63 62-87 56-42.333 90-55 69.333-19 106-19z"/><glyph glyph-name="colon" unicode=":" horiz-adv-x="543" d="M256-2095c0 17.333 3.5 33.833 10.5 49.5s16.333 29.334 28 41 25.5 21 41.5 28 33 10.5 51 10.5c17.333 0 33.833-3.5 49.5-10.5s29.334-16.332 41-28 21-25.333 28-41 10.5-32.167 10.5-49.5c0-18-3.5-35-10.5-51s-16.332-30.167-28-42.5-25.333-22-41-29-32.167-10.5-49.5-10.5c-18 0-35 3.5-51 10.5s-29.833 16.667-41.5 29-21 26.5-28 42.5-10.5 33-10.5 51zM93-2881c0 17.333 3.5 33.833 10.5 49.5s16.333 29.334 28 41c11.667 11.667 25.5 21 41.5 28s33 10.5 51 10.5c17.333 0 33.833-3.5 49.5-10.5s29.334-16.333 41-28 21-25.334 28-41c7-15.667 10.5-32.167 10.5-49.5 0-18-3.5-35-10.5-51s-16.332-30.167-28-42.5-25.333-22-41-29-32.167-10.5-49.5-10.5c-18 0-35 3.5-51 10.5s-29.833 16.667-41.5 29-21 26.5-28 42.5-10.5 33-10.5 51z"/><glyph glyph-name="semicolon" unicode=";" horiz-adv-x="555" d="M242-2095c0 17.333 3.5 33.833 10.5 49.5s16.333 29.334 28 41 25.5 21 41.5 28 33 10.5 51 10.5c17.333 0 33.833-3.5 49.5-10.5s29.334-16.332 41-28 21-25.333 28-41 10.5-32.167 10.5-49.5c0-18-3.5-35-10.5-51s-16.332-30.167-28-42.5-25.333-22-41-29-32.167-10.5-49.5-10.5c-18 0-35 3.5-51 10.5s-29.833 16.667-41.5 29-21 26.5-28 42.5-10.5 33-10.5 51zM104 283l219-86L67-340l-171 67z"/><glyph glyph-name="less" unicode="<" horiz-adv-x="1067" d="M26 653l850 295-45-186-611-192 521-203-37-164L-7 508z"/><glyph glyph-name="equal" unicode="=" horiz-adv-x="1053" d="M169 508h750l-39-172H130zm84 369h750l-39-172H214z"/><glyph glyph-name="greater" unicode=">" horiz-adv-x="1067" d="M782 498L-68 203l45 186 611 192L67 784l37 164 711-305z"/><glyph glyph-name="question" unicode="?" horiz-adv-x="1128" d="M299 414c9.333 46 18.832 86.83 28.5 122.497s20.5 67.5 32.5 95.5 25.332 53 40 75 31.833 42.833 51.5 62.5 42.167 38.834 67.5 57.5 54.333 38.668 87 60l123.5 80c35.667 23.334 65.334 46.5 89 69.5s41.5 47.668 53.5 74 18 57.5 18 93.5c0 24-4.666 46.5-14 67.5s-22.832 39.5-40.5 55.5-39 28.5-64 37.5-53.5 13.5-85.5 13.5c-37.332 0-72.5-6-105.5-18s-63.332-31.666-91-59-48.666-56.665-63-87.998-21.5-56.667-21.5-76l-207 18c15.334 62.667 38.667 119.5 70 170.5s69 94.5 113 130.5 93.833 63.833 149.5 83.5S646 1569 710 1569c63.333 0 119.333-9.833 168-29.5s89.5-45.5 122.5-77.5 58-68.333 75-109 25.5-82 25.5-124c0-48-6.333-91.333-19-130s-31-74.5-55-107.5-53.833-64-89.5-93S861 841 815 813l-87-51c-25.333-14.667-48.166-29.5-68.5-44.5s-38.165-30.833-53.498-47.5-29.333-36.667-42-60-24.334-50.833-35-82.5S507.666 458 497 414H299zm69-158.003c18 0 35-3.5 51-10.5s29.832-16.333 41.5-28 21-25.5 28-41.5 10.5-33 10.5-51-3.5-35.167-10.5-51.5-16.334-30.666-28-43S435 8.333 419 1s-33-11-51-11c-18.668 0-36 3.666-52 11s-30 17.165-42 29.498-21.5 26.666-28.5 43-10.5 33.5-10.5 51.5 3.5 35 10.5 51 16.5 29.832 28.5 41.5 26 21 42 28 33.332 10.5 52 10.5z"/><glyph glyph-name="at" unicode="@" horiz-adv-x="2351" d="M1681 956l-154-663.003c-6.668-34-7.168-61-1.5-81s15.166-35.333 28.5-46 31-16 53-16c56 0 106.5 15.167 151.5 45.5s83.5 70.166 115.5 119.5 56.666 105.332 74 168 26 126.333 26 191c0 92-15.668 176.667-47 254s-75.834 144.166-133.5 200.5-127 100.165-208 131.498-170.834 47-269.5 47c-86.668 0-172-11.167-256-33.5s-163.834-54.166-239.5-95.5S675 1086.83 611 1028.498s-119.334-123.333-166-195-83.168-149-109.5-232S296 431.33 296 339.997c0-92.667 15.332-179.334 46-260s74.166-150.668 130.5-210 124.332-106.167 204-140.5 168.166-51.5 265.5-51.5c76.666 0 153 10.167 229 30.5s149 49.166 219 86.5l57-157c-85.334-46-171-81.5-257-106.5s-176.334-37.5-271-37.5c-79.334 0-154.667 10-226 30s-137.333 48.332-198 85-115.5 80.5-164.5 131.5-90.667 107.332-125 169-60.833 127.833-79.5 198.5-28 144-28 220c0 111.333 15.667 217.5 47 318.5s74.833 194.5 130.5 280.5 122 163.833 199 233.5 161 129 252 178 187.333 86.667 289 113 205.5 39.5 311.5 39.5c85.333 0 165.5-9.667 240.5-29s143.833-46.5 206.5-81.5 118.5-77.167 167.5-126.5 90.5-103.666 124.5-163 59.833-122.832 77.5-190.5 26.5-137.833 26.5-210.5c0-60-6.333-119.167-19-177.5s-30.834-113.666-54.5-166-52.668-100.665-87-144.998-73.167-82.667-116.5-115S1802.167 29 1750.5 11 1643.666-16 1585-16c-64.668 0-115.668 12.333-153 37s-63.667 57.667-79 99c-48-35.333-100.333-62.833-157-82.5S1080.333 8 1019 8c-59.333 0-113.333 10.833-162 32.5S766.833 91.334 732.5 128s-61 79.168-80 127.5S624 354.668 624 408c0 51.333 7.5 100.5 22.5 147.5s36 90.5 63 130.5 59 76.333 96 109S883 855.5 927 878.5s90.5 40.667 139.5 53S1165.333 950 1216 950c51.333 0 99-7.333 143-22s83-35.667 117-63l21 91h184zm-625-763.003c31.333 0 61.5 4.002 90.5 12.002s56.166 19 81.5 33 48.832 30.666 70.5 50 40.833 40.665 57.5 63.998l64 272c-14 44-41.333 79.333-82 106s-91 40-151 40c-48 0-94.167-9.667-138.5-29s-83.5-45-117.5-77-61.167-68.833-81.5-110.5-30.5-84.834-30.5-129.5c0-32 5.333-62.168 16-90.5s26-52.834 46-73.5 44.667-37 74-49 63-18 101-18z"/><glyph glyph-name="A" unicode="A" horiz-adv-x="1458" d="M919 172h127l-37 342H435L244 172h136L342 0h-492l39 172H20l760 1344h323l158-1344h150L1372 0H880zM531 686h459l-75 688z"/><glyph glyph-name="B" unicode="B" horiz-adv-x="1500" d="M114 172h134l270 1171H370l41 173h678c56.668 0 107.168-9 151.5-27s81.667-43.168 112-75.5 53.333-70.834 69-115.5 23.5-93.668 23.5-147c0-95.334-24-177-72-245s-116-119-204-153c44-32 77.833-72.668 101.5-122s35.5-104.667 35.5-166c0-70-14.167-133.667-42.5-191s-67-106.333-116-147S1041 55 975 33 838.333 0 763 0H75zm458 502L457 171.995h335c44.668 0 85.335 7.167 122.002 21.5s68 33.833 94 58.5 46 53.834 60 87.5 21 70.168 21 109.5c0 34-4.333 64.834-13 92.5s-20.834 51.335-36.5 71.002-34.668 34.834-57 45.5-46.834 16-73.5 16H572zm153 669L612 848h330c40 0 77.333 6.5 112 19.5s64.834 31.5 90.5 55.5 46 52.667 61 86 22.5 70.333 22.5 111c0 31.333-3.666 60.5-11 87.5s-18.5 50.5-33.5 70.5-33.832 35.833-56.5 47.5-49 17.5-79 17.5H725z"/><glyph glyph-name="C" unicode="C" horiz-adv-x="1468" d="M1394 322c-38.667-54.667-81.664-103.498-128.997-146.498s-99.333-79.333-156-109-118-52.334-184-68-137-23.5-213-23.5c-91.333 0-175.833 17.166-253.5 51.5S313.67 108.333 257.003 169s-101.168 132.5-133.5 215.5-48.5 173.166-48.5 270.5c0 83.332 9.832 163.332 29.5 240s47.5 147.833 83.5 213.5 79.666 125.334 131 179 108.832 99.5 172.5 137.5 132.666 67.334 207 88 152.5 31 234.5 31c113.332 0 214.165-22.832 302.498-68.5s160.834-108.833 217.5-189.5h156l-41-172h-276c-14.666 34-34.166 65.333-58.5 94s-52.665 53.167-84.998 73.5-68.5 36.166-108.5 47.5-83 17-129 17c-88 0-169.333-17.834-244-53.5s-139.334-84.168-194-145.5S375.666 1014.167 345 932.5 299 764 299 672c0-76.668 12-145.835 36-207.502s56-114 96-157 86.333-76 139-99S677.667 174 735 174c100.667 0 189.167 20.833 265.5 62.5S1144 340.667 1202 424z"/><glyph glyph-name="D" unicode="D" horiz-adv-x="1561" d="M425 1516h549c88.667 0 168.834-16.833 240.5-50.5s132.668-79.667 183-138 89-126.5 116-204.5 40.5-161 40.5-249c0-87.333-10.5-169.5-31.5-246.5s-50.666-148-89-213-84.832-123-139.5-174-115.333-94.333-182-130-138.667-63-216-82S737.667 0 653 0H75l39 172h132l270 1171H385zm298-173L455.003 172h220c55.333 0 110 7.333 164 22s105.5 36 154.5 64 94.333 62 136 102 77.667 85.333 108 136 54.166 106.334 71.5 167 26 125.668 26 195c0 64.668-9.168 126.168-27.5 184.5s-44.334 109.834-78 154.5-74.335 80.168-122.002 106.5S1006.668 1343 948 1343H723z"/><glyph glyph-name="E" unicode="E" horiz-adv-x="1415" d="M411 1516h1100l-100-433h-207l61 260H725L614 858h446l-43-172H575L457 172h534l61 262h209L1161 0H75l39 172h134l270 1171H370z"/><glyph glyph-name="F" unicode="F" horiz-adv-x="1331" d="M407 1516h1102l-98-429h-197l57 256H721L610 856h522l-39-172H570L453 172h153L567 0H75l39 172h130l270 1171H366z"/><glyph glyph-name="G" unicode="G" horiz-adv-x="1616" d="M1155 0l49.99 222c-61.332-84-134.165-146.166-218.498-186.5S810.66-25 711.992-25c-91.333 0-176 17.5-254 52.5s-145.333 83.168-202 144.5-101 133.334-133 216-48 171.668-48 267c0 82.668 9.667 162 29 238s47 147 83 213 79.5 125.834 130.5 179.5 108.333 99.668 172 138 132.834 68 207.5 89 153.335 31.5 236.002 31.5c63.333 0 122-7.332 176-22s103-34 147-58 82.5-51.5 115.5-82.5 60.167-62.832 81.5-95.5h156l-41-172h-276c-14.667 34-34.167 65.334-58.5 94s-52.666 53.168-85 73.5-68.5 36.167-108.5 47.5-83 17-129 17c-60 0-116.666-8-170-24s-102.665-38.833-147.998-68.5-86.166-65-122.5-106S403.332 1061 378 1011s-44.833-103.667-58.5-161-20.5-116.666-20.5-178c0-72.666 11.5-139.5 34.5-200.5s54.167-113.5 93.5-157.5 85.5-78.332 138.5-103 109.5-37 169.5-37c60.667 0 117.834 8.5 171.5 25.5s102.668 41.668 147 74 83.834 71.667 118.5 118S1235.334 490.333 1258 549H835l41 176h643L1355 0h-200z"/><glyph glyph-name="H" unicode="H" horiz-adv-x="1933" d="M1476 1516h492l-41-173h-137L1522 172h149L1632 0h-492l39 172h134l126 545H582L457 172h149L567 0H75l39 172h134l270 1171H370l41 173h492l-41-173H725L620 885h858l105 458h-148z"/><glyph glyph-name="I" unicode="I" horiz-adv-x="883" d="M425 1516h492l-41-173H735L467 172h139L567 0H75l39 172h144l270 1171H385z"/><glyph glyph-name="J" unicode="J" horiz-adv-x="762" d="M390 1516h491l-41-173H699L428 172c-9.334-28-29.667-62.5-61-103.5s-70.333-88.333-117-142S151-182 93-238l-168 15C-21.667-163 25-106.833 65-54.5s76.5 102.333 109.5 150S228 179.667 236 205l263 1138H349z"/><glyph glyph-name="K" unicode="K" horiz-adv-x="1642" d="M1390 1343l41 173h389l-41-173h-94L848 754l468-582h158L1435 0h-407l39 172-469 602zm-979 173h492l-41-173H725L457 172h149L567 0H75l39 172h134l270 1171H370z"/><glyph glyph-name="L" unicode="L" horiz-adv-x="1376" d="M411 1516h492l-41-173H725L457 172h505c28.666 0 50.833 7.667 66.5 23s26.167 34.333 31.5 57l47 197h201L1204 0H75l39 172h134l270 1171H370z"/><glyph glyph-name="M" unicode="M" horiz-adv-x="2290" d="M114 172h136l270 1171H370l41 173h459l197-1301 784 1301h473l-41-173h-137L1876 172h159L1996 0h-491l39 172h132l266 1154L1142 0H911L709 1323 443 172h163L567 0H75z"/><glyph glyph-name="N" unicode="N" horiz-adv-x="1786" d="M1370 1516h491l-39-173h-136L1378 0h-262L703 1255 454 172h152L567 0H75l39 172h133l271 1171H368l41 173h416l408-1246 246 1073h-148z"/><glyph glyph-name="O" unicode="O" horiz-adv-x="1577" d="M712-31c-85.333 0-166.5 16.33-243.5 48.998s-144.667 78.834-203 138.5-104.666 131.668-139 216S75 551 75 655c0 87.334 10.334 169.834 31 247.5S155.67 1052 193 1118s82.167 125.334 134.5 178 110.333 97.335 174 134.002 131.834 64.834 204.5 84.5 148.335 29.5 227.002 29.5c85.333 0 166.5-14.832 243.5-44.5s144.667-72.833 203-129.5 104.666-126.167 139-208.5S1570 985.667 1570 881c0-89.333-10-174-30-254s-48.168-153.667-84.5-221-80.334-128-132-182-109.335-99.833-173.002-137.5S1018 19.833 944-.5 792.667-31 712-31zm23 202.998c57.333 0 112.333 8 165 24s101.667 38.834 147 68.5 86.5 65.335 123.5 107.002S1239 459.667 1265 511s46.167 106.666 60.5 166 21.5 121.665 21.5 186.998c0 72.667-10.833 138.334-32.5 197s-51.834 108.835-90.5 150.502-84.668 73.667-138 96-111.667 33.5-175 33.5c-82.667 0-161-16.667-235-50s-139-79.833-195-139.5-100.333-130.334-133-212-49-170.835-49-267.502c0-71.333 10.833-137.5 32.5-198.5s51.834-113.833 90.5-158.5 84.668-79.667 138-105 111.667-38 175-38z"/><glyph glyph-name="P" unicode="P" horiz-adv-x="1313" d="M409 1516l608 .002c58 0 111-10 159-30s89.332-47.167 124-81.5 61.5-74.5 80.5-120.5 28.5-95 28.5-147c0-68.667-13-132.334-39-191S1305.83 836.666 1255.5 794s-112.667-76.167-187-100.5S909 657 813 657H566L455 172h151L567 0H75l39 172h132l270 1171H368zm314-173L605.997 829.002h229c54 0 103.333 6.5 148 19.5s83 32 115 57 56.667 55.833 74 92.5 26 78.667 26 126c0 28-4.667 55.167-14 81.5s-23.666 49.666-43 70-44 36.665-74 48.998-65.666 18.5-107 18.5H723z"/><glyph glyph-name="Q" unicode="Q" horiz-adv-x="1559" d="M601-21C527.667-8.333 459.168 16.666 395.5 54s-119.333 85.165-167 143.498-85.167 126-112.5 203-41 161.833-41 254.5c0 87.333 10.333 169.833 31 247.5s49.667 149.5 87 215.5 82.166 125.333 134.5 178 110.332 97.334 174 134 131.833 64.835 204.5 84.502 148.334 29.5 227 29.5c85.334 0 166.5-14.833 243.5-44.5s144.668-72.834 203-129.5 104.667-126.168 139-208.5S1570 985.665 1570 881c0-85.334-9-166-27-242s-43.667-146.834-77-212.5-73.5-125.168-120.5-178.5-99.667-99.5-158-138.5S1066 39.33 998 16 858.667-22 784-28c28-8.668 53.167-19.835 75.5-33.502l66.5-39.5c22-12.667 45.333-23.5 70-32.5s53.667-13.5 87-13.5c38 0 74.167 9.5 108.5 28.5s60.833 48.167 79.5 87.5l135-69c-16.667-37.333-39-70.166-67-98.5s-58.833-52-92.5-71-68.167-33.166-103.5-42.5-69-14-101-14c-33.333 0-63.5 3.834-90.5 11.5s-52.333 17.168-76 28.5-46.167 23.334-67.5 36-42.5 23.835-63.5 33.502-42.333 17-64 22-45.167 5.5-70.5 1.5c-20.667-2-37.667-5.333-51-10zm134 193c57.334 0 112.334 8 165 24s101.668 38.833 147 68.5 86.5 65.334 123.5 107S1239 459.67 1265 511s46.168 106.667 60.5 166 21.5 121.666 21.5 187c0 72.666-10.832 138.333-32.5 197s-51.833 108.834-90.5 150.5-84.667 73.668-138 96-111.666 33.5-175 33.5c-82.666 0-161-16.666-235-50s-139-79.832-195-139.5-100.332-130.333-133-212-49-170.834-49-267.5c0-71.334 10.834-137.5 32.5-198.5s51.835-113.834 90.502-158.5 84.667-79.668 138-105 111.666-38 175-38z"/><glyph glyph-name="R" unicode="R" horiz-adv-x="1438" d="M409 1516h617c58 0 110.667-8.666 158-26s87.833-41.665 121.5-72.998 59.667-68.833 78-112.5 27.5-91.5 27.5-143.5c0-54-9.167-103.833-27.5-149.5s-43-86.334-74-122-67-66.335-108-92.002-84.167-45.834-129.5-60.5c26-18.668 48-46.668 66-84s27.667-81.667 29-133l6-348h129L1263 0H970l-6 461c-1.333 83.333-20.333 144.333-57 183s-92 58-166 58H578L457 172h149L567 0H75l39 172h134l270 1171H368zm316-173L617 870.003h237c50 0 96.166 5.667 138.5 17s78.832 28.666 109.5 52 54.666 52.665 72 87.998 26 76.667 26 124c0 28-4.668 53.833-14 77.5s-23.834 44-43.5 61-44.668 30.167-75 39.5-66.167 14-107.5 14H725z"/><glyph glyph-name="S" unicode="S" horiz-adv-x="1278" d="M1080 1137c8 35.333 6.507 66.667-4.493 94s-28.5 50.5-52.5 69.5-53 33.333-87 43-70 14.5-108 14.5c-55.333 0-104.833-7.333-148.5-22s-80.5-34.667-110.5-60-53-54.833-69-88.5-24-69.167-24-106.5c0-33.333 6.333-60.333 19-81s28.667-37.667 48-51 40.833-24 64.5-32l68.5-24 187-68c48-16 90-35 126-57s66-47.5 90-76.5 42-62 54-99 18-78.833 18-125.5c0-74-14.333-141.667-43-203s-68.834-113.833-120.5-157.5S873.67 29 801.004 5s-153-36-241-36c-79.333 0-146.5 8.5-201.5 25.5s-100.167 40-135.5 69-61.833 62.167-79.5 99.5-28.834 76.666-33.5 118h-95l39 159h272l-18-74c-9.334-72 11.666-125.668 63-161s125.665-53 222.998-53c50 0 96 7 138 21s78.167 33.5 108.5 58.5 54.166 55 71.5 90 26 73.166 26 114.5c0 32-5.668 59.666-17 83s-26.834 43.5-46.5 60.5-42.668 31.666-69 44-54.5 23.5-84.5 33.5l-174 56C456.334 741.665 387.667 784.332 341 841s-70 129.334-70 218c0 68 13 131.168 39 189.5s63.834 109 113.5 152 110 76.668 181 101S756 1538 846 1538c56.668 0 108.668-6.332 156-19s89.167-30.333 125.5-53 67-50 92-82 43.167-67.333 54.5-106h101l-39-160h-260z"/><glyph glyph-name="T" unicode="T" horiz-adv-x="1362" d="M348 172h140l272 1180H393l-53-236H135l92 400h1352l-93-400h-204l53 236H967L697 172h142L800 0H309z"/><glyph glyph-name="U" unicode="U" horiz-adv-x="1581" d="M282 1516l492-.003-39-173H595l-161-704c-5.332-23.333-10.165-48.166-14.498-74.5s-6.5-56.165-6.5-89.498c-.667-36.668 5-72.835 17-108.502s30.667-67.667 56-96 57.666-51.166 97-68.5 86.332-26 141-26c55.332 0 106.5 7.834 153.5 23.5s89.5 41.668 127.5 78 71.5 84 100.5 143S1159 552.333 1179 639l162 704h-152l39 173h492l-39-173h-133l-166-722c-26-114-60.5-211.832-103.5-293.5s-93.168-148.666-150.5-201S1006.667 35.834 936 11.5 788.666-25 706-25c-72.667 0-140.167 10.833-202.5 32.5s-116 53-161 94-80 91.167-105 150.5-36.833 127-35.5 203c0 30 2 59.833 6 89.5s9.667 61.167 17 94.5l162 704H243z"/><glyph glyph-name="V" unicode="V" horiz-adv-x="1470" d="M1174 1516h492l-39-173h-133L748 0H443L314 1343H175l39 173h491l-39-173H526l99-1169 645 1169h-135z"/><glyph glyph-name="W" unicode="W" horiz-adv-x="2271" d="M2016 1516h491l-39-173h-138L1627 0h-285l-53 1171L703 0H418l-89 1343H175l39 173h491l-39-173H534l69-1148 659 1321h213l49-1321 605 1148h-152z"/><glyph glyph-name="X" unicode="X" horiz-adv-x="1487" d="M1115 1516h491l-41-173h-104L910 764l284-592h150L1305 0H814l38 172h137L771 618 347 172h118L426 0H-65l39 172H95l590 621-268 550H271l41 173h491l-41-173H632l193-402 382 402h-133z"/><glyph glyph-name="Y" unicode="Y" horiz-adv-x="1323" d="M214 1516h491l-39-173H544l175-473 411 473h-122l39 173h492l-39-173h-123L791 687 671 172h141L773 0H281l39 172h141l120 519-259 652H175z"/><glyph glyph-name="Z" unicode="Z" horiz-adv-x="1298" d="M1390 1298L238 178h681l57 252h207L1085 0H-25l51 231 1135 1108H501l-59-258H235l100 435h1102z"/><glyph glyph-name="bracketleft" unicode="[" horiz-adv-x="762" d="M466 1720h424l-34-151H636L262-61h219l-35-152H22z"/><glyph glyph-name="backslash" unicode="\" horiz-adv-x="700" d="M101 1581h162L597-25H435z"/><glyph glyph-name="bracketright" unicode="]" horiz-adv-x="762" d="M554 1569H334l35 151h424L349-213H-75l35 152h219z"/><glyph glyph-name="asciicircum" unicode="^" horiz-adv-x="1229" d="M781 1516l225-791H867l-167 627-466-627H81l589 791h111z"/><glyph glyph-name="underscore" unicode="_" horiz-adv-x="1049" d="M-93-154H931l-24-102H-117z"/><glyph glyph-name="grave" unicode="`" horiz-adv-x="590" d="M387 1178l-287 282v17h248l184-299H387z"/><glyph glyph-name="a" unicode="a" horiz-adv-x="1307" d="M771 70c-44.667-30-89.5-52.168-134.5-66.5S545-18 497-18C440.33-18 387.33-7 338 15s-92.167 52-128.5 90-65 82.832-86 134.5S92 346.665 92 406c0 96.666 17 185.333 51 266s80.167 150 138.5 208 126.333 103 204 135 160.167 48 247.5 48c50 0 97-7.5 141-22.5s80-34.5 108-58.5l13 54h201L996 172h161L1118 0H755zm-227 84c24.666 0 49.833 3.002 75.5 9.002s50.167 13.667 73.5 23 45.333 20.166 66 32.5 39 25.165 55 38.498l129 554c-17.333 22-44.333 40.833-81 56.5S777.333 891 718 891c-51.333 0-102-10.5-152-31.5s-94.667-51.333-134-91-71.333-88.334-96-146S299 499.33 299 426c0-42.668 6-80.835 18-114.502s28.667-62.167 50-85.5 47.166-41.166 77.5-53.5S508 154 544 154z"/><glyph glyph-name="b" unicode="b" horiz-adv-x="1272" d="M252 1556h392L509 971c89.332 61.333 182 92 278 92 56.666 0 109.666-11 159-33s92.165-52 128.498-90 65-82.833 86-134.5 31.5-107.167 31.5-166.5c0-64.667-7.667-125.667-23-183s-37-110.333-65-159-61.667-92.5-101-131.5-82.666-72-130-99S774.834 18.667 720.5 4 609.667-18 551-18c-51.333 0-99 7.667-143 23s-80 35-108 59L285 0H85l318 1384H211zm488-665c-47.334 0-94.835-9.5-142.502-28.5s-91.5-45.167-131.5-78.5l-127-549c17.333-22 44.5-41 81.5-57s85.5-24 145.5-24c51.333 0 102 10.5 152 31.5s94.833 51.333 134.5 91 71.834 88.167 96.5 145.5 37 122.666 37 196c0 42.666-6 80.833-18 114.5s-28.832 62.167-50.5 85.5-47.666 41.333-78 54-63.5 19-99.5 19z"/><glyph glyph-name="c" unicode="c" horiz-adv-x="1135" d="M921 731c-10.667 26.667-24.83 49.998-42.497 69.998s-37.834 36.667-60.5 50-47.335 23.333-74.002 30-54.333 10-83 10c-36.667 0-75.834-9.5-117.5-28.5s-80.335-46.833-116.002-83.5-65.167-81.667-88.5-135-35-114.333-35-183c0-50 7.333-94.167 22-132.5s34.334-70.5 59-96.5 53.335-45.5 86.002-58.5 67.334-19.5 104-19.5c26.668 0 51.668 2.167 75 6.5s45.5 11.666 66.5 22 41.5 23.832 61.5 40.5 39.668 37.333 59 62l145-109c-26-36.667-55.332-67.834-88-93.5s-67-46.5-103-62.5-73.166-27.5-111.5-34.5-76.165-10.5-113.498-10.5c-68 0-130.833 12.166-188.5 36.5s-107.334 57.832-149 100.5-74.335 92.833-98.002 150.5S95 382.332 95 448.998c0 90.668 17 173.835 51 249.502S224.667 839.334 280 894s117.833 97.168 187.5 127.5S607.667 1067 679 1067c33.333 0 66.666-3.166 100-9.5s65.332-16.332 96-30 59.333-30.833 86-51.5 50.667-45 72-73h125l-28-172H921z"/><glyph glyph-name="d" unicode="d" horiz-adv-x="1285" d="M923 1556l373.998.002-319-1384h172l-39-172h-373l15 67c-38-26-77.833-47-119.5-63s-86.5-24-134.5-24c-59.333 0-114.666 11.333-166 34s-96.165 54-134.498 94-68.5 87.167-90.5 141.5-33 113.166-33 176.5c0 92 16.333 177 49 255s77.167 145.666 133.5 203 122 102.165 197 134.498S609.667 1067 695 1067c53.333 0 103-7.667 149-23s86-36.333 120-63l93 403H882zM545.998 154.002c42 0 85.5 9.333 130.5 28s85.833 46 122.5 82l124 537c-24.667 28.667-56.667 50.834-96 66.5s-87.333 23.5-144 23.5c-50 0-99.167-10.5-147.5-31.5s-91.166-50.832-128.5-89.5-67.5-85.666-90.5-141-34.5-117-34.5-185c0-44.666 6.5-84.833 19.5-120.5s31.168-66 54.5-91 51.167-44.333 83.5-58 67.833-20.5 106.5-20.5z"/><glyph glyph-name="e" unicode="e" horiz-adv-x="1171" d="M318 483c-.667-9.333-1.33-17.333-1.996-24s-1-13-1-19c0-42 6.833-81 20.5-117s32.667-67.167 57-93.5 53.333-47 87-62 70.5-22.5 110.5-22.5c53.333 0 104.166 10.833 152.5 32.5s88.832 53.167 121.5 94.5l148-108c-22.668-30-49.668-57-81-81s-66-44.5-104-61.5-78.5-30-121.5-39S618.67-31 574.003-31c-64 0-123.834 10.667-179.5 32S290.168 53.333 248.5 94s-74.334 90.5-98 149.5S115 369.333 115 444c0 86 15.166 166.833 45.5 242.5s72.332 141.667 126 198S403.667 985.333 477 1018s152.665 49 237.998 49c66 0 124.833-11.167 176.5-33.5S987 981.667 1023 945s63.333-79 82-127 28-97.333 28-148c0-34-1.833-66.833-5.5-98.5s-8.167-61.167-13.5-88.5H318zm370.005 414c-40 0-77.5-6.33-112.5-18.998s-66.834-30.334-95.5-53-54-49.335-76-80.002-40-64-54-100h590c.666 41.333-4.834 77.833-16.5 109.5s-28.668 58-51 79-49.167 36.833-80.5 47.5-66 16-104 16z"/><glyph glyph-name="f" unicode="f" horiz-adv-x="811" d="M168 1036h211.997l42 183c14.667 64 35.334 118.667 62 164s58.168 82.333 94.5 111 77.167 49.667 122.5 63 94.333 20 147 20c32 0 61.5-2 88.5-6s51.5-9 73.5-15 41.667-12.5 59-19.5 32-13.833 44-20.5l-103-154c-17.333 11.333-41.166 21.333-71.5 30s-63.165 13-98.498 13c-53.334 0-98.667-14.833-136-44.5s-64.333-80.5-81-152.5l-40-172h282l-41-172H544L238-471H35L340 864H127z"/><glyph glyph-name="g" unicode="g" horiz-adv-x="1249" d="M783 64C741 34.667 697.833 13.664 653.5.997s-92.166-19-143.5-19c-56.666 0-109.666 11-159 33s-92.165 52-128.498 90-65 82.833-86 134.5-31.5 107.167-31.5 166.5c0 96.667 17 185.334 51 266s80.167 150 138.5 208 126.333 103 204 135 160.167 48 247.5 48c50 0 97-7.5 141-22.5s80-34.5 108-58.5l13 54h203l-238-1024c-20-86.666-46.667-160.5-80-221.5s-74-110.832-122-149.5-103.833-67-167.5-85-135.834-27-216.5-27c-36.668 0-74.668 3-114 9s-77.834 15.168-115.5 27.5-73.168 27.834-106.5 46.5-62.667 40.668-88 66l129 146c16-17.332 35.333-33.165 58-47.498s47.667-26.834 75-37.5 56.166-19 86.5-25 61.165-9 92.498-9c48 0 91.667 5.166 131 15.5s74.5 28.332 105.5 54 58 60.333 81 104S765-16 783 64zm-226 89.997c52 0 100.668 9.334 146 28s87 44 125 76l128 552c-17.332 22-44.332 41-81 57s-84.666 24-144 24c-51.332 0-102-10.5-152-31.5s-94.666-51.332-134-91-71.332-88.333-96-146-37-123.167-37-196.5c0-42.667 6-80.834 18-114.5s28.668-62.168 50-85.5 47.167-41.167 77.5-53.5 63.5-18.5 99.5-18.5z"/><glyph glyph-name="h" unicode="h" horiz-adv-x="1307" d="M936 641c18.667 78.667 12.5 138.002-18.5 178.002s-82.833 60-155.5 60c-44.667 0-91-9.667-139-29s-94-45-138-77l-178-773H105l318 1384H223l41 172h402l-145-626c48.667 38 100.667 68.333 156 91s112.333 34 171 34c53.333 0 101.5-8 144.5-24s78-40.333 105-73 45-73.334 54-122 6.167-105.335-8.5-170.002l-114-494h147L1137 0H787z"/><glyph glyph-name="i" unicode="i" horiz-adv-x="725" d="M200 1036h387L387 172h166L514 0H145l200 864H159zm191 365c0 18 3.5 35 10.5 51s16.5 29.833 28.5 41.5 26 21 42 28 33.333 10.5 52 10.5c18 0 35-3.5 51-10.5s29.833-16.333 41.5-28 21-25.5 28-41.5 10.5-33 10.5-51-3.5-35.167-10.5-51.5-16.333-30.666-28-43-25.5-22.165-41.5-29.498-33-11-51-11c-18.667 0-36 3.667-52 11s-30 17.166-42 29.5-21.5 26.665-28.5 42.998S391 1383 391 1401z"/><glyph glyph-name="j" unicode="j" horiz-adv-x="668" d="M185 1036h405L332-76c-14-60.667-34.332-115.167-61-163.5s-59-89.333-97-123S93.17-422.334 45.5-441-54-469.67-110-471l16 145c60 8.666 108.668 36.333 146 83s64.667 108.667 82 186l214 921H144zm211 365c0 18 3.5 35 10.5 51s16.5 29.833 28.5 41.5 26 21 42 28 33.334 10.5 52 10.5c18 0 35-3.5 51-10.5s29.834-16.333 41.5-28 21-25.5 28-41.5 10.5-33 10.5-51-3.5-35.167-10.5-51.5-16.332-30.666-28-43-25.5-22.165-41.5-29.498-33-11-51-11c-18.666 0-36 3.667-52 11s-30 17.166-42 29.5-21.5 26.665-28.5 42.998S396 1383 396 1401z"/><glyph glyph-name="k" unicode="k" d="M279 1556h387L443 592h112l340 288 37 156h336l-41-172h-107L731 535l250-365h125L1067 0H848L537 469H415L307 0H105l318 1384H238z"/><glyph glyph-name="l" unicode="l" horiz-adv-x="653" d="M264 1556h402L346 172h172L479 0H105l318 1384H223z"/><glyph glyph-name="m" unicode="m" horiz-adv-x="2100" d="M192 1036h387.002l-25-106c47.333 39.334 99.166 70 155.5 92s115.832 33 178.5 33c70.666 0 131.666-14.332 183-43s87.665-72 108.998-130c24.667 25.334 51.667 48.5 81 69.5s60.5 39.168 93.5 54.5 67.667 27.334 104 36 73.5 13 111.5 13c53.333 0 101.5-8 144.5-24s78.167-40.332 105.5-73 45.333-73.333 54-122 5.667-105.334-9-170l-114-494h149L1861 0h-352l149 641c18.667 78.666 12.667 138-18 178s-82.667 60-156 60c-52 0-101.333-11.168-148-33.5s-91-53.167-133-92.5L1030 0H827l149 641c18.667 78.667 12.667 138-18 178s-82.667 60-156 60c-52 0-101.333-11.167-148-33.5S563 792 521 752L348 0H145l200 864H151z"/><glyph glyph-name="n" unicode="n" horiz-adv-x="1368" d="M188 1036l391 .002-25-106c47.334 39.333 99.167 70 155.5 92s115.833 33 178.5 33c53.333 0 101.5-8 144.5-24s78.167-40.333 105.5-73 45.333-73.334 54-122 5.667-105.335-9-170.002l-114-494h147L1177 0H827l149 641c18.667 78.667 12.667 138-18 178s-82.667 60-156 60c-52 0-101.333-11.167-148-33.5S563 792 521 752L348 0H145l200 864H147z"/><glyph glyph-name="o" unicode="o" d="M75 449c0 57.333 7.166 112.33 21.5 164.997s34.665 102 60.998 148 58 87.667 95 125 77.833 69.333 122.5 96 92.5 47.334 143.5 62 103.833 22 158.5 22c68.667 0 132.334-12.166 191-36.5S977.334 972.833 1020 930.5s76.167-92 100.5-149S1157 663.33 1157 598c0-58-7.333-113.668-22-167s-35.167-103-61.5-149-57.833-88-94.5-126-77.5-70.334-122.5-97S763.333 11.664 712-3.003s-104.666-22-160-22c-69.332 0-133 12.167-191 36.5S252.67 69.33 210 111.998s-75.833 92.834-99.5 150.5S75 382.334 75 449zm209 13.997c0-46.667 6.828-89.165 20.495-127.498s32.834-71 57.5-98 54.335-48 89.002-63 72.667-22.5 114-22.5c48.667 0 96.167 10.666 142.5 32s87.166 51 122.5 89 63.832 83.666 85.5 137 32.5 112 32.5 176c0 46.666-7.168 88.666-21.5 126s-34.167 69.332-59.5 96-55.166 47.166-89.5 61.5-71.832 21.5-112.5 21.5c-49.332 0-96.832-10.5-142.5-31.5s-86.166-50.334-121.5-88S337.333 688.664 316 635.997s-32-110.334-32-173z"/><glyph glyph-name="p" unicode="p" horiz-adv-x="1333" d="M189 1036h393l-14-68c46 32 92 55.834 138 71.5s94 23.5 144 23.5c56.666 0 109.833-11 159.5-33s92.667-52 129-90 65-82.832 86-134.5S1256 698.335 1256 639c0-96.666-17-185.333-51-266s-80.167-150-138.5-208-126.333-103-204-135S702.333-18 615-18c-50.667 0-98.167 7.5-142.5 22.5S391.667 39 363 63l-83-362h171l-39-172H35L346 864H148zm614-145c-46.668 0-93.834-9.5-141.5-28.5S570 817.67 530 785L403 236c17.332-22 44.165-41.166 80.498-57.5s84.833-24.5 145.5-24.5c51.333 0 102 10.5 152 31.5s94.833 51.334 134.5 91 71.834 88.168 96.5 145.5 37 122.667 37 196c0 42.667-6 80.834-18 114.5s-28.832 62.168-50.5 85.5-47.5 41.334-77.5 54-63.332 19-100 19z"/><glyph glyph-name="q" unicode="q" horiz-adv-x="1246" d="M754 70c-44.667-30-89.502-52.168-134.502-66.5s-91.5-21.5-139.5-21.5c-56.667 0-109.667 11-159 33s-92.166 52-128.5 90-65 82.832-86 134.5S75 346.665 75 406c0 96.666 17 185.333 51 266s80.168 150 138.5 208 126.334 103 204 135 160.168 48 247.5 48c50 0 96.834-7.5 140.5-22.5S936.334 1006.333 965 983l15 53h197L868-299h182l-39-172H630zm-227.002 84c46 0 92.668 9.167 140 27.5S757.666 225 797 257l127 555c-17.333 21.333-44.166 39.833-80.5 55.5S759.667 891 701 891c-51.332 0-102-10.5-152-31.5s-94.666-51.333-134-91-71.332-88.334-96-146S282 499.33 282 426c0-42.668 6-80.835 18-114.502s28.668-62.167 50-85.5 47.167-41.166 77.5-53.5 63.5-18.5 99.5-18.5z"/><glyph glyph-name="r" unicode="r" horiz-adv-x="1053" d="M958 750l-203.003.004 29 122c-64.667 0-119.667-16.5-165-49.5s-82.666-76.5-112-130.5l-120-520h172l-39-172h-375l200 864h-198l41 172h391l-33-142c18.668 21.333 38.668 41.166 60 59.5s43.834 34.165 67.5 47.498 48.335 23.833 74.002 31.5 51.5 11.5 77.5 11.5c24 0 44.666-.333 62-1s35.832-1.834 55.5-3.5 46.833-4.835 81.5-9.502z"/><glyph glyph-name="s" unicode="s" horiz-adv-x="1012" d="M749 748c-.667 26-5.835 49.002-15.502 69.002s-23 36.833-40 50.5-37 24-60 31-47.833 10.5-74.5 10.5-52-3.167-76-9.5-45-15.833-63-28.5-32.167-28-42.5-46-15.5-38.333-15.5-61c0-26.667 8.5-48.834 25.5-66.5s43.833-33.835 80.5-48.502l193-69c58.667-21.333 103.334-54.5 134-99.5S841 381 841 317c0-57.333-10.5-107.666-31.5-151S759.333 86.336 722 57.003s-81.832-51.333-133.5-66-108.166-22-169.5-22c-37.332 0-73 3-107 9s-65.5 15.167-94.5 27.5-54.332 27.666-76 46S103 91 91 115H-15l41 172h211c-3.332-26 0-49 10-69s24.334-36.834 43-50.5S330.834 143.666 356.5 137s52.834-10 81.5-10 55.5 3.667 80.5 11 46.834 18 65.5 32 33.5 31.333 44.5 52 16.5 44.334 16.5 71c0 25.334-9 48.5-27 69.5s-46 38.168-84 51.5l-184 67c-59.332 23.334-105 57.5-137 102.5S165 679 165 735c0 49.334 8.668 94.334 26 135s43 75.668 77 105 76.668 52 128 68 111 24 179 24c39.334 0 75.667-3.832 109-11.5s63-18.166 89-31.5 48.333-28.832 67-46.5 33.667-36.833 45-57.5h112l-41-172H749z"/><glyph glyph-name="t" unicode="t" horiz-adv-x="778" d="M186 1036h173l61 248 211 86-79-334h218l-41-172H511L379 305c-3.332-13.332-6.5-26.832-9.5-40.5S365 236.335 365 221c0-30 8.168-51.166 24.5-63.5S431.668 139 467 139c38 0 83.667 11 137 33l17-143C585.667 12.335 551.667-.832 519-10.5S450-25 410-25c-42 0-80.333 5.167-115 15.5s-63.334 27.333-86 51-37.668 54.667-45 93-4.667 85.5 8 141.5l144 588H145z"/><glyph glyph-name="u" unicode="u" horiz-adv-x="1290" d="M843 1036l335.997.004-200-864h155l-39-172h-348l24 105c-21.333-22-44.333-40.833-69-56.5s-49.834-28.334-75.5-38-51-16.835-76-21.502-48.168-7-69.5-7c-45.334 0-88.167 6.5-128.5 19.5s-74.166 32.167-101.5 57.5c-16.666 16.667-32.166 36.167-46.5 58.5s-25.5 49.166-33.5 80.5-11.666 67.665-11 108.998 7.335 89.333 20.002 144l95 413H135l41 172h340L393 510c-29.334-124-30.5-215-3.5-273s84.166-87 171.5-87c38.666 0 72.833 6.5 102.5 19.5s56.667 31.167 81 54.5 44.833 48 61.5 74l132 566H802z"/><glyph glyph-name="v" unicode="v" horiz-adv-x="1155" d="M135 1036h379l-41-172h-79l62-639 407 639h-84l41 172h378l-41-172h-79L484-16H308L192 864H95z"/><glyph glyph-name="w" unicode="w" horiz-adv-x="1649" d="M136 1036h379l-41-172h-80l33-624 416 796h192l41-796 334 624h-96l41 172h379l-41-172h-90L1121-16H925l-37 794h-4L470-16H273l-74 880H95z"/><glyph glyph-name="x" unicode="x" horiz-adv-x="1137" d="M626 172h75L555 410 318 172h64L344 0H-35L4 172h85l389 365-227 327H143l41 172h379l-41-172h-66l137-222 225 222h-73l41 172h379l-41-172h-74L676 523l234-351h95L966 0H587z"/><glyph glyph-name="y" unicode="y" horiz-adv-x="1165" d="M148 1036h379l-41-172h-79l61-639 408 639h-85l41 172h379l-41-172h-87L342-299h101l-43-172H-10l43 172h101L319-9 205 864h-98z"/><glyph glyph-name="z" unicode="z" horiz-adv-x="995" d="M10 117l718 760H391l-35-148H159l72 307h790l-26-121-714-755h366l41 178h196L806 0H-15z"/><glyph glyph-name="braceleft" unicode="{" horiz-adv-x="713" d="M34 670l15.497 63.496 15.5 63.5c18.667 0 36.5 3.5 53.5 10.5s33.167 16.667 48.5 29 29.666 26.833 43 43.5 25.332 34.834 36 54.5 20 40.5 28 62.5 14.666 44 20 66l86 373c10 42 24.666 79.334 44 112s41.5 60.335 66.5 83.002 51.332 39.834 79 51.5 54.833 17.5 81.5 17.5h137c-5.333-21.332-10.166-42.5-14.5-63.5s-9.165-42.166-14.498-63.5h-69c-18 0-34-4.5-48-13.5s-26.668-22-38-39-21.334-37.832-30-62.5-16.668-52.666-24-84l-39.5-174-39.5-174c-9.334-41.332-22.167-78-38.5-110s-35-60-56-84-43.5-44-67.5-60-48.667-28.332-74-37c-.667-.666-1-1.333-1-2s-.333-1.334-1-2c12.667-5.334 24.667-12 36-20s21.5-17.168 30.5-27.5 16.833-22.334 23.5-36 12-28.5 16-44.5c5.333-22 7.5-46.334 6.5-73s-5.167-56.668-12.5-90l-40-174-40-174c-7.333-32-12.166-60-14.5-84s-1.832-44.668 1.5-62c2-8.668 4.668-16.168 8-22.5s7.5-11.667 12.5-16 11-7.666 18-10S293.67-106 303-106h69l-14-63.5-14-63.5H206c-26 0-50.332 5.834-73 17.5S91.5-186.666 76.5-164 51.67-113.666 47-81s-2 70 8 112l86 372c9.334 40 13.334 79 12 117s-9.332 69.668-24 95c-3.332 5.334-6.832 10.5-10.5 15.5S110.668 640 106 644s-9.667 7.668-15 11-11 6.167-17 8.5-12.333 4-19 5-13.667 1.5-21 1.5z"/><glyph glyph-name="bar" unicode="|" horiz-adv-x="519" d="M393 1726h176L108-270H-68z"/><glyph glyph-name="braceright" unicode="}" horiz-adv-x="734" d="M-70-233c5.333 21.333 10.168 42.502 14.5 63.502s9.167 42.167 14.5 63.5h69c18 0 34 4.5 48 13.5s26.667 22 38 39 21.333 37.667 30 62 16.667 52.166 24 83.5l40 174 40 174c9.333 40.666 22.166 77.166 38.5 109.5s34.665 60.5 54.998 84.5 42.666 44 67 60 49.165 28.332 74.498 37c.667.666 1 1.333 1 2s.333 1.334 1 2c-13.333 5.334-25.5 12-36.5 20s-21 17.168-30 27.5-16.833 22.334-23.5 36-12 28.5-16 44.5c-5.333 22-7.666 46.334-7 73s5 56.668 13 90l40.5 174 39.5 174c6.668 31.334 11.335 59.334 14.002 84s2.167 45.5-1.5 62.5-10.5 30-20.5 39-24 13.5-42 13.5h-69l14 63.5 14 63.5h138c22 0 42.667-4.5 62-13.5s36.166-22 50.5-39 25.665-37.832 33.998-62.5 12.5-52.666 12.5-84c0-6-1-15.5-3-28.5s-6-33.166-12-60.5l-11-50-68-299c-5.333-22-8.833-44-10.5-66s-1.667-42.832 0-62.5 5.334-37.833 11-54.5 13.335-31.167 23.002-43.5 21.334-22 35-29 29.835-10.5 48.502-10.5l-15.5-63.5-15.5-63.5c-18.667 0-36.667-3.5-54-10.5s-33.5-16.667-48.5-29-29.167-27-42.5-44-25.333-35.333-36-55-20-40.5-28-62.5-14.667-44-20-66l-42.5-186.5c-21-93-35.5-154.833-43.5-185.5-10-42-24.667-79.333-44-112s-41.5-60.334-66.5-83S176-203.834 148-215.5 93-233 67-233H-70z"/><glyph glyph-name="asciitilde" unicode="~" horiz-adv-x="1229" d="M141 483c30 56 65.333 99.333 106 130s90.667 46 150 46c38.667 0 78.5-7.5 119.5-22.5s80.833-31.333 119.5-49l109-49c34-15 63.667-22.5 89-22.5 28.667 0 57.5 11.5 86.5 34.5s60.167 62.167 93.5 117.5l73-115c-30-56-65.167-99.333-105.5-130S891 377 831 377c-26 0-52.333 3.5-79 10.5s-53.5 15.833-80.5 26.5-53.333 22.167-79 34.5l-74 34.5c-23.667 10.667-46 19.5-67 26.5S411.667 520 395 520c-28.667 0-57.5-11.333-86.5-34s-60.167-61.667-93.5-117z"/><glyph glyph-name="NOBREAKSPACE" horiz-adv-x="449"/><glyph glyph-name="exclamdown" unicode="¡" horiz-adv-x="850" d="M294-528H34L346 639h178zm52 1464c0 18 3.5 35 10.5 51s16.5 29.833 28.5 41.5 26 21 42 28 33.333 10.5 52 10.5c18 0 35-3.5 51-10.5s29.833-16.333 41.5-28 21-25.5 28-41.5 10.5-33 10.5-51-3.5-35.167-10.5-51.5-16.333-30.666-28-43-25.5-22.165-41.5-29.498-33-11-51-11c-18.667 0-36 3.667-52 11s-30 17.166-42 29.5-21.5 26.665-28.5 42.998S346 918 346 936z"/><glyph glyph-name="cent" unicode="¢" horiz-adv-x="1135" d="M352-242L409.002 2.997c-66.667 25.333-122.167 60.5-166.5 105.5s-78.166 96.333-101.5 154-35 119.834-35 186.5c0 90.668 17 173.835 51 249.502s78.668 140.833 134 195.5 114.667 95.834 178 123.5 124.666 43.5 184 47.5l57 246h197l-62-268c51.332-17.332 92-38 122-62s55.666-50 77-78h125l-29-172H931c-10.668 26.668-24.835 50-42.502 70s-37.834 36.668-60.5 50-47.335 23.334-74.002 30-54.334 10-83 10c-24 0-49.5-4.332-76.5-13s-53.668-21.333-80-38-51.5-37.167-75.5-61.5-45.168-52.5-63.5-84.5-33-67.5-44-106.5-16.5-81.167-16.5-126.5c0-50 7.332-94.167 22-132.5s34.333-70.5 59-96.5 53.334-45.5 86-58.5S549 154 585 154c26.668 0 51.668 2.167 75 6.5s45.5 11.666 66.5 22S768 206.33 788 223s39.668 37.333 59 62l146-109c-26-36.667-55.332-67.834-88-93.5S837.833 36 801.5 20 729.834-7.17 695.5-13.5 628.667-23.668 598-25l-50-217H352z"/><glyph glyph-name="sterling" unicode="£" horiz-adv-x="1006" d="M57 657l33 146h199c-4 28.668-7.168 57.5-9.5 86.5S276 947.67 276 977c0 64 8 122.5 24 175.5s38.832 99.5 68.5 139.5 65.666 73 108 99 83.5 43 123.5 51 78.666 12 116 12c50 0 94.832-9 134.5-27s71.666-42.666 96-74 40.332-68.665 48-111.998 4.5-90.333-9.5-141l-166-10c5.332 25.333 7.165 50 5.498 74s-7.167 45.333-16.5 64-22.666 33.667-40 45-38.665 17-63.998 17c-44 0-81-8.167-111-24.5s-54-38-72-65-30.667-58.167-38-93.5-10.333-72-9-110c.667-25.333 1.834-55.5 3.5-90.5s4.168-69.5 7.5-103.5h278l-32-146H496c2-28 3.668-54.833 5-80.5s2-49.167 2-70.5c0-66-18.832-128.5-56.5-187.5s-90.833-109.167-159.5-150.5h483l-39-168H-68l39 168H81c46 23.333 85 51.166 117 83.5s57.5 67.665 76.5 105.998 31.667 79.333 38 123 9 76 8 97S316 625 310 657H57z"/><glyph glyph-name="currency" unicode="¤" horiz-adv-x="1305" d="M235 680c0 68.667 14.002 132.832 42.002 192.5s65.667 112.5 113 158.5l-126 177 143 117 133-190c37.333 18 76 32 116 42s80.667 15 122 15 80.166-6 116.5-18 69.832-28.668 100.5-50l190 166 113-131-188-166c15.332-28 27-57.5 35-88.5s12-63.5 12-97.5c0-66-13-127.668-39-185s-61-108.667-105-154l121-169-147-113-123 172c-39.334-20-80.167-35.5-122.5-46.5s-85.5-16.5-129.5-16.5c-41.333 0-80.333 6-117 18s-70.334 29-101 51L188 184 75 317l205 179c-14.668 28-25.835 57.333-33.502 88S235 646.667 235 680zm176.002 13.998c0-32 5.336-61.664 16.003-88.997s25.667-51.332 45-72 42.666-36.833 70-48.5 58-17.5 92-17.5c44 0 87.166 9 129.5 27s80 42.167 113 72.5 59.666 65.666 80 106 30.5 83.165 30.5 128.498c0 32-5.334 61.667-16 89s-25.835 51.333-45.502 72-43.334 36.834-71 48.5-58.168 17.5-91.5 17.5c-44.668 0-88-9-130-27s-79.5-42.166-112.5-72.5-59.5-65.832-79.5-106.5-30-83.333-30-128z"/><glyph glyph-name="yen" unicode="¥" horiz-adv-x="1384" d="M217 1516h491l-39-173H547l175-473 411 473h-122l39 173h492l-39-173h-123L938 848h163l-32-141H798l-34-148h270l-33-141H731l-57-246h141L776 0H284l39 172h141l57 246H251l33 141h270l33 148H319l33 141h170l-197 495H178z"/><glyph glyph-name="brokenbar" unicode="¦" horiz-adv-x="647" d="M423 1729h177L425 979H249zM135 481h176L139-268H-37z"/><glyph glyph-name="section" unicode="§" horiz-adv-x="1202" d="M-84-25h260l-7-37c-9.334-46-7.834-86.833 4.5-122.5s37.165-62.334 74.498-80 78.333-26.5 123-26.5c50 0 96.833 9.666 140.5 29s77.167 50 100.5 92 35 84.332 35 127c0 27.332-4.667 51-14 71s-21.5 37.166-36.5 51.5-31.667 26.165-50 35.498-36.833 17.333-55.5 24l-149 54c-47.333 16.667-90.833 41-130.5 73s-67.834 71-84.5 117-25 93.667-25 143c0 87.333 23.5 162.333 70.5 225s114.166 111.334 201.5 146c-58 65.334-87 145.334-87 240 0 60.668 10.832 116.168 32.5 166.5s53.5 93.667 95.5 130 94 64.5 156 84.5 133 30 213 30c61.332 0 118-8.167 170-24.5s96.5-43.333 133.5-81 59.832-80.834 68.5-129.5h89l-39-166h-250l8 36c5.332 34-1 67-19 99s-44.5 54.666-79.5 68-70.168 20-105.5 20c-43.334 0-81.5-5.334-114.5-16s-60.668-25.168-83-43.5-39.167-40-50.5-65-17-51.834-17-80.5c0-24 4.5-45 13.5-63s20.5-33.668 34.5-47 30-24.834 48-34.5 36-18.168 54-25.5l158-61c80-31.334 142.333-73 187-125s67-117.668 67-197c0-60-10.833-117.168-32.5-171.5s-52.167-99.667-91.5-136-91.666-67.166-157-92.5c57.334-60 86-135.332 86-226 0-72-13-136.332-39-193s-61.832-104.666-107.5-144-99.666-69.5-162-90.5S423.334-473 350-473c-72.667 0-139.5 12.834-200.5 38.5S44.333-372.666 17-326s-42.333 92-45 136h-93zm393 576c0-33.333 6.83-61.33 20.496-83.998s31.334-40.334 53-53 56.5-28.335 104.5-47.002l58-23c46 1.333 87.334 8.166 124 20.5s67.835 29.332 93.502 51 45.334 47.166 59 76.5S842 553.33 842 588c0 26.666-5.332 49.666-16 69s-24.666 35.832-42 49.5-49.332 29.833-96 48.5l-50 17c-54-1.333-101.5-8.333-142.5-21s-75.332-29.167-103-49.5S344 658 330 632s-21-53-21-81z"/><glyph glyph-name="dieresis" unicode="¨" horiz-adv-x="1039" d="M162 1360c0 17.333 3.5 33.833 10.5 49.5s16.333 29.334 28 41 25.334 21 41 28S273.67 1489 291 1489c16.668 0 32.668-3.5 48-10.5s28.667-16.332 40-28 20.333-25.333 27-41 10-32.167 10-49.5c0-18-3.333-35-10-51s-15.667-30.167-27-42.5-24.666-22-40-29-31.332-10.5-48-10.5c-17.332 0-33.832 3.5-49.5 10.5s-29.333 16.667-41 29-21 26.5-28 42.5-10.5 33-10.5 51zm459 0c0 17.333 3.5 33.833 10.5 49.5s16.333 29.334 28 41 25.334 21 41 28S732.67 1489 750 1489c16.668 0 32.5-3.5 47.5-10.5s28.334-16.332 40-28 20.835-25.333 27.502-41 10-32.167 10-49.5c0-18-3.333-35-10-51s-15.834-30.167-27.5-42.5-25-22-40-29-30.834-10.5-47.5-10.5c-17.334 0-33.834 3.5-49.5 10.5s-29.335 16.667-41.002 29-21 26.5-28 42.5-10.5 33-10.5 51z"/><glyph glyph-name="copyright" unicode="©" horiz-adv-x="1919" d="M102 831c0 78.667 10.167 154.5 30.5 227.5s49 141.167 86 204.5S300 1384 352 1436s109.667 96.5 173 133.5 131.5 65.667 204.5 86S878.667 1686 958 1686c78.667 0 154.667-10.167 228-30.5s141.833-49 205.5-86 121.667-81.5 174-133.5 97.166-109.667 134.5-173 66.165-131.5 86.498-204.5 30.5-148.833 30.5-227.5c0-79.333-10.167-155.5-30.5-228.5s-49.166-141.167-86.5-204.5-82.165-121-134.498-173-110.333-96.5-174-133.5-132.167-65.667-205.5-86S1036.667-25 958-25c-79.333 0-155.5 10.167-228.5 30.5s-141.167 49-204.5 86S404 173 352 225s-96.5 109.667-133.5 173-65.667 131.5-86 204.5S102 751.667 102 831zm181 0c0-94.667 17.5-183.167 52.5-265.5s83-154 144-215 132.5-109 214.5-144S864 154 958 154s181.833 17.5 263.5 52.5 153.334 83 215 144 110 132.667 145 215S1634 736.333 1634 831c0 93.333-17.5 183.166-52.5 269.5s-83.332 158.165-145 215.498-133.333 103.5-215 138.5-169.5 52.5-263.5 52.5-182-17.5-264-52.5-153.5-81.167-214.5-138.5-109-129.166-144-215.5S283 924.334 283 831zm907 228c-32 30.667-65.5 53.002-100.5 67.002s-71.832 21-110.5 21c-42.666 0-82.666-8.167-120-24.5s-69.832-38.833-97.5-67.5-49.5-62-65.5-100-24-78.333-24-121 8-82.667 24-120 37.834-70 65.5-98 60.168-50 97.5-66 77.334-24 120-24c37.334 0 73.5 7.5 108.5 22.5s62.834 34.167 83.5 57.5l134-129c-15.332-20-35-38.833-59-56.5s-50.332-33-79-46-59.166-23.333-91.5-31-64.5-11.5-96.5-11.5c-70 0-135.5 13-196.5 39s-114.166 61.667-159.5 107-81 98.5-107 159.5-39 126.5-39 196.5c0 69.333 13 134.5 39 195.5s61.668 114.333 107 160 98.5 81.667 159.5 108 126.5 39.5 196.5 39.5c38.668 0 75.168-4.167 109.5-12.5s66.334-19.333 96-33 56.668-29.334 81-47 46.167-35.835 65.5-54.502z"/><glyph glyph-name="ordfeminine" unicode="ª" horiz-adv-x="834" d="M540 908c-28.667-23.333-58.335-40.835-89.002-52.502s-67-17.5-109-17.5c-33.333 0-63.833 4.833-91.5 14.5s-51.5 22.667-71.5 39-35.5 35.333-46.5 57-16.5 44.834-16.5 69.5c0 46 10.333 84.5 31 115.5s47.5 55.834 80.5 74.5 70.167 32 111.5 40 82.333 12 123 12c31.333 0 60-1.5 86-4.5s48.667-6.5 68-10.5l12 49c10.667 44.668 4 77.335-20 98.002s-59 31-105 31c-43.333 0-83.166-4.5-119.5-13.5S315.334 1389.333 288 1376l-26 97c41.333 24.667 86 43.667 134 57s96 20 144 20c36 0 69-3.667 99-11s55.667-18.5 77-33.5 38-34.333 50-58 18-51.5 18-83.5c0-10-2.5-28-7.5-54S747 1176.333 703 987h81l-29-131H528zm-166 45.998c37.332 0 72.83 5.998 106.498 17.998s61.834 28.333 84.5 49l31 136H440c-24 0-46.832-2.833-68.5-8.5s-40.5-13.667-56.5-24-28.832-23.166-38.5-38.5S262 1053.332 262 1034c0-25.333 10-45 30-59s47.334-21 82-21z"/><glyph glyph-name="guillemotleft" unicode="«" horiz-adv-x="981" d="M673 545l131-373H618L479 567l319 391h197zm-424 0l131-373H194L55 567l319 391h197z"/><glyph glyph-name="logicalnot" unicode="¬" horiz-adv-x="1382" d="M1273 999l-131-567H954l92 395H141l39 172h1093z"/><glyph glyph-name="SOFTHYPHEN" unicode="­" horiz-adv-x="0"/><glyph glyph-name="registered" unicode="®" horiz-adv-x="1919" d="M102 831c0 78.667 10.167 154.5 30.5 227.5s49 141.167 86 204.5S300 1384 352 1436s109.667 96.5 173 133.5 131.5 65.667 204.5 86S878.667 1686 958 1686c78.667 0 154.667-10.167 228-30.5s141.833-49 205.5-86 121.667-81.5 174-133.5 97.166-109.667 134.5-173 66.165-131.5 86.498-204.5 30.5-148.833 30.5-227.5c0-79.333-10.167-155.5-30.5-228.5s-49.166-141.167-86.5-204.5-82.165-121-134.498-173-110.333-96.5-174-133.5-132.167-65.667-205.5-86S1036.667-25 958-25c-79.333 0-155.5 10.167-228.5 30.5s-141.167 49-204.5 86S404 173 352 225s-96.5 109.667-133.5 173-65.667 131.5-86 204.5S102 751.667 102 831zm181 0c0-94.667 17.5-183.17 52.5-265.503s83-154 144-215 132.5-109 214.5-144 170-52.5 264-52.5 181.833 17.5 263.5 52.5 153.334 83 215 144 110 132.667 145 215 52.5 170.833 52.5 265.5c0 62.667-17.5 144.834-52.5 246.5s-83.332 181.168-145 238.5-133.333 103.5-215 138.5-169.5 52.5-263.5 52.5-182-17.5-264-52.5-153.5-81.166-214.5-138.5-109-129.165-144-215.498S283 924.332 283 831zm272-313.003l98 .004v670H551v158h483c48.668 0 92.668-7 132-21s72.667-33.332 100-58 48.5-53.833 63.5-87.5 22.5-69.834 22.5-108.5c0-32.668-3.333-61.668-10-87s-16.834-47.834-30.5-67.5-30.5-36.835-50.5-51.502-43-27.667-69-39c20.666-11.333 39.166-28.833 55.5-52.5s28.5-52.834 36.5-87.5l41-168h82l2-158h-256l-51 254c-9.334 56-30.667 96.332-64 121s-76.333 37-129 37h-67v-254h92v-158H555v158zM842 1188l.002-260h143c49.333 0 88.666 10.168 118 30.5s44 53.167 44 98.5c0 41.333-13.834 73.5-41.5 96.5S1035 1188 977 1188H842z"/><glyph glyph-name="macron" unicode="¯" horiz-adv-x="922" d="M864 1229H121l26 117h744z"/><glyph glyph-name="degree" unicode="°" horiz-adv-x="682" d="M340 1737c32.667 0 63.5-6.333 92.5-19s54.5-30 76.5-52 39.333-47.5 52-76.5 19-59.833 19-92.5-6.333-63.334-19-92-30-53.835-52-75.502-47.5-38.667-76.5-51-59.833-18.5-92.5-18.5-63.5 6.167-92.5 18.5-54.167 29.333-75.5 51-38.333 46.834-51 75.5-19 59.335-19 92.002 6.333 63.5 19 92.5 29.667 54.5 51 76.5 46.5 39.333 75.5 52 59.833 19 92.5 19zm-135-240c0-18.667 3.5-36.167 10.5-52.5s16.667-30.666 29-43 26.666-22 43-29S321.33 1362 340 1362s36.166 3.5 52.5 10.5 30.832 16.668 43.5 29 22.666 26.667 30 43 11 33.833 11 52.5-3.668 36.167-11 52.5-17.334 30.833-30 43.5-27.168 22.667-43.5 30-33.834 11-52.5 11-36.168-3.667-52.5-11-30.667-17.333-43-30-22-27.167-29-43.5-10.5-33.833-10.5-52.5z"/><glyph glyph-name="plusminus" unicode="±" horiz-adv-x="1105" d="M86 771h419l78 344h183l-78-344h422l-43-182H646l-88-354H376l87 354H43zM-57 172H967L928 0H-96z"/><glyph glyph-name="twosuperior" unicode="²" horiz-adv-x="609" d="M-5 944l338 277c18 14 34.333 27.334 49 40s27.167 25 37.5 37 18.333 24.5 24 37.5 8.5 27.168 8.5 42.5c0 21.334-8.667 40-26 56s-41.333 24-72 24c-35.333 0-65.666-10-91-30s-42.332-46-51-78H88c8 34.668 20.668 66.168 38 94.5s38.167 52.5 62.5 72.5 51.5 35.334 81.5 46 62 16 96 16c30.667 0 59.5-5 86.5-15s50.667-23.5 71-40.5 36.333-37 48-60S589 1415.67 589 1389c0-36-7.5-69.832-22.5-101.5s-42.833-64.833-83.5-99.5L205 963h284l-29-121H-27z"/><glyph glyph-name="threesuperior" unicode="³" horiz-adv-x="622" d="M467 1379c0 23.333-8.998 43.5-26.998 60.5s-42.667 25.5-74 25.5c-73.333 0-119-32.667-137-98h-137c6 34.667 23 70.5 51 107.5s62.333 64.5 103 82.5 84.667 27 132 27c42 0 79.667-8.5 113-25.5s59.5-40.833 78.5-71.5 28.5-63.334 28.5-98c0-78-43.667-135-131-171 50-27.334 75-70 75-128 0-42-12-83.334-36-124s-59.833-72.835-107.5-96.502-100.167-35.5-157.5-35.5c-38.667 0-76.334 8-113 24s-64.835 39.667-84.502 71-29.5 73-29.5 125h133c0-66 35.667-99 107-99 42 0 77.667 11.333 107 34s44 52.334 44 89c0 57.334-35.333 86-106 86h-58l25 107h55c42.667 0 77.667 10.334 105 31s41 46.335 41 77.002z"/><glyph glyph-name="acute" unicode="´" horiz-adv-x="645" d="M297 1477h240v-17l-299-282H84z"/><glyph glyph-name="mu" unicode="µ" d="M-89-471l349.002 1507h200l-135-583c-15.333-56-21.333-107-18-153s21.833-82.167 55.5-108.5 81.167-40.166 142.5-41.5c31.333 0 63.666 7 97 21s62.332 32.334 87 55 45.333 47 62 73l172 737h201l-200-864h202l-39-172h-395l23 105c-20.667-22-43.334-40.832-68-56.5S597.166 20 571.5 10 520.333-7.165 495-11.5 446.334-18 425-18c-37.332 0-72.832 4.334-106.5 13S254.668 16.336 228 33.003l-116-504H-89z"/><glyph glyph-name="paragraph" unicode="¶" horiz-adv-x="1343" d="M519 702c-52.667 4-100 14.833-142 32.5s-77.832 40.667-107.5 69-52.333 61.5-68 99.5-23.5 79.667-23.5 125c0 76 14.667 144.167 44 204.5S292.5 1344 345.5 1386s116.333 74.167 190 96.5S690.667 1516 780 1516h618l-41-173h-94L868-369H681l395 1712H853L458-369H272z"/><glyph glyph-name="periodcentered" unicode="·" horiz-adv-x="612" d="M223-2332c0 17.333 3.5 33.833 10.5 49.5s16.333 29.334 28 41c11.667 11.667 25.5 21 41.5 28s33 10.5 51 10.5c17.333 0 33.833-3.5 49.5-10.5s29.334-16.333 41-28 21-25.334 28-41c7-15.667 10.5-32.167 10.5-49.5 0-18-3.5-35-10.5-51s-16.332-30.167-28-42.5-25.333-22-41-29-32.167-10.5-49.5-10.5c-18 0-35 3.5-51 10.5s-29.833 16.667-41.5 29-21 26.5-28 42.5-10.5 33-10.5 51z"/><glyph glyph-name="cedilla" unicode="¸" horiz-adv-x="940" d="M182-303c36.667.667 69.835 7.166 99.502 19.5s55.667 28.5 78 48.5 40.666 43.5 55 70.5S438.666-108.67 444-78l150-45c-12-48.668-30.667-92.168-56-130.5s-55.5-70.667-90.5-97S373.333-397 330-411s-89-21-137-21z"/><glyph glyph-name="onesuperior" unicode="¹" horiz-adv-x="486" d="M100 956h84l103 436-161-75 35 143 244 119h61L324 956h81l-26-116H75z"/><glyph glyph-name="ordmasculine" unicode="º" horiz-adv-x="772" d="M75 1153c0 60.667 11.67 116.5 35.002 167.5s54.833 95 94.5 132 85.5 66 137.5 87 107 31.5 165 31.5c46 0 88.5-7.667 127.5-23s72.667-36.5 101-63.5 50.666-58.667 67-95S827 1314 827 1272c0-61.333-10.834-118-32.5-170S742.666 1005.167 704 967.5s-84.334-67-137-88S457 848 395 848c-46 0-88.668 8.167-128 24.5S193.832 911 165.5 939 115 999.333 99 1036s-24 75.667-24 117zm156.002 10c0-25.333 4.5-49.165 13.5-71.498s21.334-41.666 37-58 34-29.165 55-38.498 43.834-14 68.5-14c36 0 70.168 6.667 102.5 20s60.667 32.166 85 56.5 43.833 53.665 58.5 87.998 22 72.5 22 114.5c0 26.667-4.667 51-14 73s-22 40.5-38 55.5-34.833 26.667-56.5 35-44.834 12.5-69.5 12.5c-34.668 0-68-6.333-100-19s-60.168-30.834-84.5-54.5-43.667-52.335-58-86.002-21.5-71.5-21.5-113.5z"/><glyph glyph-name="guillemotright" unicode="»" horiz-adv-x="981" d="M335 586L204 958h187l139-395-320-391H14zm424 0L628 958h187l139-395-320-391H438z"/><glyph glyph-name="onequarter" unicode="¼" horiz-adv-x="2058" d="M223 896h84l103 436-161-75 35 143 244 119h61L447 896h81l-26-116H198zm1493 681h220L301-61H82zM1169 303l387 457h148l-379-455h182l39 164h135l-39-164h113l-25-110h-112L1572 0h-135l45 195h-336z"/><glyph glyph-name="onehalf" unicode="½" horiz-adv-x="1956" d="M223 896h84l103 436-161-75 35 143 244 119h61L447 896h81l-26-116H198zm1493 681h220L301-61H82zM1198 121l338 276c31.333 23.334 57 47.334 77 72s30 48.668 30 72c0 20-6.833 36.834-20.5 50.5S1588.333 612 1561 612c-32.667 0-60.667-9.5-84-28.5s-38.333-42.832-45-71.5h-156c8 38 22 72 42 102s43.667 55.334 71 76 58 36.168 92 46.5 68.667 15.5 104 15.5c30 0 58.333-4.832 85-14.5s50-22.666 70-39 35.667-36.165 47-59.498 17-49.333 17-78c0-20.667-1.333-38.834-4-54.5s-7-30.668-13-45-15.167-28.334-27.5-42S1732 391.666 1714 377l-282-236h274L1673 0h-503z"/><glyph glyph-name="threequarters" unicode="¾" horiz-adv-x="2214" d="M1736 1577h220L321-61H102zM1190 303l387 457h148l-379-455h182l39 164h135l-39-164h113l-25-110h-112L1593 0h-135l45 195h-336zM479 1333c0 23.333-8.998 43.5-26.998 60.5s-42.667 25.5-74 25.5c-73.333 0-119-32.667-137-98h-137c6 34.667 23 70.5 51 107.5s62.333 64.5 103 82.5 84.667 27 132 27c42 0 79.667-8.5 113-25.5s59.5-40.833 78.5-71.5 28.5-63.334 28.5-98c0-78-43.667-135-131-171 50-27.334 75-70 75-128 0-42-12-83.334-36-124s-59.833-72.835-107.5-96.502-100.167-35.5-157.5-35.5c-38.667 0-76.334 8-113 24s-64.835 39.667-84.502 71-29.5 73-29.5 125h133c0-66 35.667-99 107-99 42 0 77.667 11.333 107 34s44 52.334 44 89c0 57.334-35.333 86-106 86h-58l25 107h55c42.667 0 77.667 10.334 105 31s41 46.335 41 77.002z"/><glyph glyph-name="questiondown" unicode="¿" horiz-adv-x="1000" d="M735 623c-9.333-46.667-19.005-87.834-29.005-123.5s-21-67.5-33-95.5-25.333-53-40-75-31.667-42.834-51-62.5-41.666-38.835-67-57.502-54.332-38.334-87-59l-124.5-80c-35.666-23.334-65.333-46.667-89-70s-41.5-48.166-53.5-74.5-18-57.5-18-93.5c0-24 4.667-46.5 14-67.5s22.833-39.5 40.5-55.5 39.167-28.5 64.5-37.5 54-13.5 86-13.5c36.667 0 70.334 6 101 18s57.668 28.668 81 50 43.334 46.834 60 76.5 29.335 62.168 38.002 97.5l207-19c-15.333-63.332-38.666-120.332-70-171s-69-94-113-130-93.832-63.666-149.5-83-115.5-29-179.5-29c-63.332 0-119.332 9.834-168 29.5s-89.5 45.5-122.5 77.5-58 68.168-75 108.5-25.5 81.5-25.5 123.5c0 48 6.334 91.334 19 130s31.168 74.5 55.5 107.5 54.334 64 90 93 76.5 57.5 122.5 85.5l87 51c25.334 14.668 48 29.5 68 44.5s37.834 30.834 53.5 47.5 29.835 36.668 42.502 60 24.333 50.834 35 82.5S526 578.334 536 623h199zm74.995 309c0-18-3.5-35-10.5-51s-16.5-29.833-28.5-41.5-26-21-42-28-33.333-10.5-52-10.5c-18 0-35 3.5-51 10.5s-29.833 16.333-41.5 28-21 25.5-28 41.5-10.5 33-10.5 51 3.5 35.167 10.5 51.5 16.333 30.666 28 43 25.5 22.165 41.5 29.498 33 11 51 11c18.667 0 36-3.667 52-11s30-17.166 42-29.5 21.5-26.665 28.5-42.998 10.5-33.5 10.5-51.5z"/><glyph glyph-name="Agrave" unicode="À" horiz-adv-x="1458" d="M919 172h127l-37 342H435L244 172h136L342 0h-492l39 172H20l760 1344h323l158-1344h150L1372 0H880zM531 686h459l-75 688zm298 971l-287 282v17h248l184-299H829z"/><glyph glyph-name="Aacute" unicode="Á" horiz-adv-x="1458" d="M919 172h127l-37 342H435L244 172h136L342 0h-492l39 172H20l760 1344h323l158-1344h150L1372 0H880zM531 686h459l-75 688zm497 1270h240v-17l-299-282H815z"/><glyph glyph-name="Acircumflex" unicode="Â" horiz-adv-x="1458" d="M919 172h127l-37 342H435L244 172h136L342 0h-492l39 172H20l760 1344h323l158-1344h150L1372 0H880zM531 686h459l-75 688zm141 964l297 273h111l151-273h-170l-64 125-119-125H672z"/><glyph glyph-name="Atilde" unicode="Ã" horiz-adv-x="1458" d="M919 172h127l-37 342H435L244 172h136L342 0h-492l39 172H20l760 1344h323l158-1344h150L1372 0H880zM531 686h459l-75 688zm338 1208c33.333 0 62.166-5.5 86.5-16.5s47-23 68-36 41.832-24.833 62.5-35.5 44-16 70-16c18.666 0 36.833 6.333 54.5 19s29.5 33 35.5 61l119-35c-13.333-56.667-39.333-100.5-78-131.5s-85-46.5-139-46.5c-37.333 0-69 5.167-95 15.5s-49.667 21.5-71 33.5l-60 33.5c-18.667 10.333-39 15.5-61 15.5-10 0-20.167-.667-30.5-2s-20.5-4.5-30.5-9.5-19.167-12.667-27.5-23-14.833-24.833-19.5-43.5l-109 53c8.667 31.333 21 57.5 37 78.5s34 37.833 54 50.5 41.5 21.667 64.5 27 46.167 8 69.5 8z"/><glyph glyph-name="Adieresis" unicode="Ä" horiz-adv-x="1458" d="M919 172h127l-37 342H435L244 172h136L342 0h-492l39 172H20l760 1344h323l158-1344h150L1372 0H880zM531 686h459l-75 688zm94 1153c0 17.333 3.5 33.833 10.5 49.5s16.333 29.334 28 41 25.334 21 41 28S736.67 1968 754 1968c16.668 0 32.668-3.5 48-10.5s28.667-16.332 40-28 20.333-25.333 27-41 10-32.167 10-49.5c0-18-3.333-35-10-51s-15.667-30.167-27-42.5-24.666-22-40-29-31.332-10.5-48-10.5c-17.332 0-33.832 3.5-49.5 10.5s-29.333 16.667-41 29-21 26.5-28 42.5-10.5 33-10.5 51zm459 0c0 17.333 3.5 33.833 10.5 49.5s16.333 29.334 28 41 25.334 21 41 28 32.168 10.5 49.5 10.5c16.668 0 32.5-3.5 47.5-10.5s28.334-16.332 40-28 20.835-25.333 27.502-41 10-32.167 10-49.5c0-18-3.333-35-10-51s-15.834-30.167-27.5-42.5-25-22-40-29-30.834-10.5-47.5-10.5c-17.334 0-33.834 3.5-49.5 10.5s-29.335 16.667-41.002 29-21 26.5-28 42.5-10.5 33-10.5 51z"/><glyph glyph-name="Aring" unicode="Å" horiz-adv-x="1456" d="M920 172l127-.002-37 342H434l-190-342h137l-39-172h-492l39 172H20l734 1298c-19.334 23.333-34.834 49.333-46.5 78s-17.5 58.667-17.5 90c0 34.667 6.832 67.667 20.5 99s32.166 58.5 55.5 81.5 50.332 41.333 81 55 63.666 20.5 99 20.5c34 0 66.832-6.833 98.5-20.5s59-32 82-55 41.332-50.167 55-81.5 20.5-64.333 20.5-99c0-39.333-8.168-75.666-24.5-109s-38.167-61.665-65.5-84.998l150-1272h149L1372 0H881zM530 685.998h461l-76 688zM842 1638c0-27.333 10.5-51.5 31.5-72.5s45.166-31.5 72.5-31.5 51.665 10.5 72.998 31.5 32 45.167 32 72.5-10.667 51.666-32 73-45.666 32-73 32-51.5-10.668-72.5-32-31.5-45.667-31.5-73z"/><glyph glyph-name="AE" unicode="Æ" horiz-adv-x="1991" d="M-132 172H-5l990 1344h1101l-100-433h-207l62 260h-541l-111-485h447l-43-172h-443l-118-514h534l62 262h209L1736 0H651l39 172h133l79 342H490L238 172h122L321 0h-491zM942 686l148 642-473-642h325z"/><glyph glyph-name="Ccedilla" unicode="Ç" horiz-adv-x="1468" d="M1394 322c-38.667-54.667-81.664-103.498-128.997-146.498s-99.333-79.333-156-109-118-52.334-184-68-137-23.5-213-23.5c-91.333 0-175.833 17.166-253.5 51.5S313.67 108.333 257.003 169s-101.168 132.5-133.5 215.5-48.5 173.166-48.5 270.5c0 83.332 9.832 163.332 29.5 240s47.5 147.833 83.5 213.5 79.666 125.334 131 179 108.832 99.5 172.5 137.5 132.666 67.334 207 88 152.5 31 234.5 31c113.332 0 214.165-22.832 302.498-68.5s160.834-108.833 217.5-189.5h156l-41-172h-276c-14.666 34-34.166 65.333-58.5 94s-52.665 53.167-84.998 73.5-68.5 36.166-108.5 47.5-83 17-129 17c-88 0-169.333-17.834-244-53.5s-139.334-84.168-194-145.5S375.666 1014.167 345 932.5 299 764 299 672c0-76.668 12-145.835 36-207.502s56-114 96-157 86.333-76 139-99S677.667 174 735 174c100.667 0 189.167 20.833 265.5 62.5S1144 340.667 1202 424zM551.003-302.998c36.667.667 69.835 7.166 99.502 19.5s55.667 28.5 78 48.5 40.666 43.5 55 70.5 24.165 55.832 29.498 86.5l150-45c-12-48.668-30.667-92.168-56-130.5s-55.5-70.667-90.5-97-74.167-46.5-117.5-60.5-89-21-137-21z"/><glyph glyph-name="Egrave" unicode="È" horiz-adv-x="1415" d="M411 1516h1100l-100-433h-207l61 260H725L614 858h446l-43-172H575L457 172h534l61 262h209L1161 0H75l39 172h134l270 1171H370zm465 142l-287 282v17h248l184-299H876z"/><glyph glyph-name="Eacute" unicode="É" horiz-adv-x="1415" d="M411 1516h1100l-100-433h-207l61 260H725L614 858h446l-43-172H575L457 172h534l61 262h209L1161 0H75l39 172h134l270 1171H370zm664 441h240v-17l-299-282H862z"/><glyph glyph-name="Ecircumflex" unicode="Ê" horiz-adv-x="1415" d="M411 1516h1100l-100-433h-207l61 260H725L614 858h446l-43-172H575L457 172h534l61 262h209L1161 0H75l39 172h134l270 1171H370zm342 135l297 273h111l151-273h-170l-64 125-119-125H753z"/><glyph glyph-name="Edieresis" unicode="Ë" horiz-adv-x="1415" d="M411 1516h1100l-100-433h-207l61 260H725L614 858h446l-43-172H575L457 172h534l61 262h209L1161 0H75l39 172h134l270 1171H370zm261 324c0 17.333 3.5 33.833 10.5 49.5s16.333 29.334 28 41 25.334 21 41 28S783.67 1969 801 1969c16.668 0 32.668-3.5 48-10.5s28.667-16.332 40-28 20.333-25.333 27-41 10-32.167 10-49.5c0-18-3.333-35-10-51s-15.667-30.167-27-42.5-24.666-22-40-29-31.332-10.5-48-10.5c-17.332 0-33.832 3.5-49.5 10.5s-29.333 16.667-41 29-21 26.5-28 42.5-10.5 33-10.5 51zm459 0c0 17.333 3.5 33.833 10.5 49.5s16.333 29.334 28 41 25.334 21 41 28 32.168 10.5 49.5 10.5c16.668 0 32.5-3.5 47.5-10.5s28.334-16.332 40-28 20.835-25.333 27.502-41 10-32.167 10-49.5c0-18-3.333-35-10-51s-15.834-30.167-27.5-42.5-25-22-40-29-30.834-10.5-47.5-10.5c-17.334 0-33.834 3.5-49.5 10.5s-29.335 16.667-41.002 29-21 26.5-28 42.5-10.5 33-10.5 51z"/><glyph glyph-name="Igrave" unicode="Ì" horiz-adv-x="883" d="M425 1516h492l-41-173H735L467 172h139L567 0H75l39 172h144l270 1171H385zm187 142l-287 282v17h248l184-299H612z"/><glyph glyph-name="Iacute" unicode="Í" horiz-adv-x="883" d="M425 1516h492l-41-173H735L467 172h139L567 0H75l39 172h144l270 1171H385zm402 441h240v-17l-299-282H614z"/><glyph glyph-name="Icircumflex" unicode="Î" horiz-adv-x="883" d="M425 1516h492l-41-173H735L467 172h139L567 0H75l39 172h144l270 1171H385zm21 135l267 273h112l120-273H785l-44 125-105-125H446z"/><glyph glyph-name="Idieresis" unicode="Ï" horiz-adv-x="883" d="M425 1516h492l-41-173H735L467 172h139L567 0H75l39 172h144l270 1171H385zm-9 324c0 35.333 12.667 65.666 38 91s55.666 38 91 38c16.666 0 32.833-3.5 48.5-10.5s29-16.168 40-27.5 19.833-25 26.5-41 10-32.668 10-50c0-18-3.333-35.168-10-51.5s-15.5-30.667-26.5-43-24.333-21.833-40-28.5-31.834-10-48.5-10c-35.334 0-65.667 13.333-91 40s-38 57.667-38 93zm316 0c0 35.333 12.667 65.666 38 91s55.666 38 91 38c16 0 32-3.5 48-10.5s29.332-16.168 40-27.5 19.5-25 26.5-41 10.5-32.668 10.5-50c0-18-3.5-35.168-10.5-51.5s-15.834-30.667-26.5-43-24-21.833-40-28.5-32-10-48-10c-35.334 0-65.667 13.333-91 40s-38 57.667-38 93z"/><glyph glyph-name="Eth" unicode="Ð" horiz-adv-x="1561" d="M184 690l39 172h182l111 481H385l40 173h549c88.667 0 168.834-16.833 240.5-50.5s132.668-79.667 183-138 89-126.5 116-204.5 40.5-161 40.5-249c0-87.333-10.5-169.5-31.5-246.5s-50.666-148-89-213-84.832-123-139.5-174-115.333-94.333-182-130-138.667-63-216-82S737.667 0 653 0H75l39 172h132l119 518H184zm539 653L613.003 862h241l-39-172h-242l-118-518h220c55.333 0 110 7.332 164 22s105.5 36 154.5 64 94.333 62 136 102 77.667 85.332 108 136 54.166 106.333 71.5 167 26 125.667 26 195c0 64.667-9.168 126.167-27.5 184.5s-44.334 109.833-78 154.5-74.335 80.167-122.002 106.5S1006.668 1343 948 1343H723z"/><glyph glyph-name="Ntilde" unicode="Ñ" horiz-adv-x="1786" d="M1370 1516h491l-39-173h-136L1378 0h-262L703 1255 454 172h152L567 0H75l39 172h133l271 1171H368l41 173h416l408-1246 246 1073h-148zm-305 379c33.333 0 62.166-5.5 86.5-16.5s47-23 68-36 41.832-24.833 62.5-35.5 44-16 70-16c18.666 0 36.833 6.333 54.5 19s29.5 33 35.5 61l119-35c-13.333-56.667-39.333-100.5-78-131.5s-85-46.5-139-46.5c-37.333 0-69 5.167-95 15.5s-49.667 21.5-71 33.5l-60 33.5c-18.667 10.333-39 15.5-61 15.5-10 0-20.167-.667-30.5-2s-20.5-4.5-30.5-9.5-19.167-12.667-27.5-23-14.833-24.833-19.5-43.5l-109 53c8.667 31.333 21 57.5 37 78.5s34 37.833 54 50.5 41.5 21.667 64.5 27 46.167 8 69.5 8z"/><glyph glyph-name="Ograve" unicode="Ò" horiz-adv-x="1577" d="M712-31c-85.333 0-166.5 16.33-243.5 48.998s-144.667 78.834-203 138.5-104.666 131.668-139 216S75 551 75 655c0 87.334 10.334 169.834 31 247.5S155.67 1052 193 1118s82.167 125.334 134.5 178 110.333 97.335 174 134.002 131.834 64.834 204.5 84.5 148.335 29.5 227.002 29.5c85.333 0 166.5-14.832 243.5-44.5s144.667-72.833 203-129.5 104.666-126.167 139-208.5S1570 985.667 1570 881c0-89.333-10-174-30-254s-48.168-153.667-84.5-221-80.334-128-132-182-109.335-99.833-173.002-137.5S1018 19.833 944-.5 792.667-31 712-31zm23 202.998c57.333 0 112.333 8 165 24s101.667 38.834 147 68.5 86.5 65.335 123.5 107.002S1239 459.667 1265 511s46.167 106.666 60.5 166 21.5 121.665 21.5 186.998c0 72.667-10.833 138.334-32.5 197s-51.834 108.835-90.5 150.502-84.668 73.667-138 96-111.667 33.5-175 33.5c-82.667 0-161-16.667-235-50s-139-79.833-195-139.5-100.333-130.334-133-212-49-170.835-49-267.502c0-71.333 10.833-137.5 32.5-198.5s51.834-113.833 90.5-158.5 84.668-79.667 138-105 111.667-38 175-38zM856 1698l-287 282v17h248l184-299H856z"/><glyph glyph-name="Oacute" unicode="Ó" horiz-adv-x="1577" d="M712-31c-85.333 0-166.5 16.33-243.5 48.998s-144.667 78.834-203 138.5-104.666 131.668-139 216S75 551 75 655c0 87.334 10.334 169.834 31 247.5S155.67 1052 193 1118s82.167 125.334 134.5 178 110.333 97.335 174 134.002 131.834 64.834 204.5 84.5 148.335 29.5 227.002 29.5c85.333 0 166.5-14.832 243.5-44.5s144.667-72.833 203-129.5 104.666-126.167 139-208.5S1570 985.667 1570 881c0-89.333-10-174-30-254s-48.168-153.667-84.5-221-80.334-128-132-182-109.335-99.833-173.002-137.5S1018 19.833 944-.5 792.667-31 712-31zm23 202.998c57.333 0 112.333 8 165 24s101.667 38.834 147 68.5 86.5 65.335 123.5 107.002S1239 459.667 1265 511s46.167 106.666 60.5 166 21.5 121.665 21.5 186.998c0 72.667-10.833 138.334-32.5 197s-51.834 108.835-90.5 150.502-84.668 73.667-138 96-111.667 33.5-175 33.5c-82.667 0-161-16.667-235-50s-139-79.833-195-139.5-100.333-130.334-133-212-49-170.835-49-267.502c0-71.333 10.833-137.5 32.5-198.5s51.834-113.833 90.5-158.5 84.668-79.667 138-105 111.667-38 175-38zM1055 1997h240v-17l-299-282H842z"/><glyph glyph-name="Ocircumflex" unicode="Ô" horiz-adv-x="1577" d="M712-31c-85.333 0-166.5 16.33-243.5 48.998s-144.667 78.834-203 138.5-104.666 131.668-139 216S75 551 75 655c0 87.334 10.334 169.834 31 247.5S155.67 1052 193 1118s82.167 125.334 134.5 178 110.333 97.335 174 134.002 131.834 64.834 204.5 84.5 148.335 29.5 227.002 29.5c85.333 0 166.5-14.832 243.5-44.5s144.667-72.833 203-129.5 104.666-126.167 139-208.5S1570 985.667 1570 881c0-89.333-10-174-30-254s-48.168-153.667-84.5-221-80.334-128-132-182-109.335-99.833-173.002-137.5S1018 19.833 944-.5 792.667-31 712-31zm23 202.998c57.333 0 112.333 8 165 24s101.667 38.834 147 68.5 86.5 65.335 123.5 107.002S1239 459.667 1265 511s46.167 106.666 60.5 166 21.5 121.665 21.5 186.998c0 72.667-10.833 138.334-32.5 197s-51.834 108.835-90.5 150.502-84.668 73.667-138 96-111.667 33.5-175 33.5c-82.667 0-161-16.667-235-50s-139-79.833-195-139.5-100.333-130.334-133-212-49-170.835-49-267.502c0-71.333 10.833-137.5 32.5-198.5s51.834-113.833 90.5-158.5 84.668-79.667 138-105 111.667-38 175-38zM733 1691l297 273h111l151-273h-170l-64 125-119-125H733z"/><glyph glyph-name="Otilde" unicode="Õ" horiz-adv-x="1577" d="M712-31c-85.333 0-166.5 16.33-243.5 48.998s-144.667 78.834-203 138.5-104.666 131.668-139 216S75 551 75 655c0 87.334 10.334 169.834 31 247.5S155.67 1052 193 1118s82.167 125.334 134.5 178 110.333 97.335 174 134.002 131.834 64.834 204.5 84.5 148.335 29.5 227.002 29.5c85.333 0 166.5-14.832 243.5-44.5s144.667-72.833 203-129.5 104.666-126.167 139-208.5S1570 985.667 1570 881c0-89.333-10-174-30-254s-48.168-153.667-84.5-221-80.334-128-132-182-109.335-99.833-173.002-137.5S1018 19.833 944-.5 792.667-31 712-31zm23 202.998c57.333 0 112.333 8 165 24s101.667 38.834 147 68.5 86.5 65.335 123.5 107.002S1239 459.667 1265 511s46.167 106.666 60.5 166 21.5 121.665 21.5 186.998c0 72.667-10.833 138.334-32.5 197s-51.834 108.835-90.5 150.502-84.668 73.667-138 96-111.667 33.5-175 33.5c-82.667 0-161-16.667-235-50s-139-79.833-195-139.5-100.333-130.334-133-212-49-170.835-49-267.502c0-71.333 10.833-137.5 32.5-198.5s51.834-113.833 90.5-158.5 84.668-79.667 138-105 111.667-38 175-38zM895 1935c33.333 0 62.166-5.5 86.5-16.5s47-23 68-36 41.832-24.833 62.5-35.5 44-16 70-16c18.666 0 36.833 6.333 54.5 19s29.5 33 35.5 61l119-35c-13.333-56.667-39.333-100.5-78-131.5s-85-46.5-139-46.5c-37.333 0-69 5.167-95 15.5s-49.667 21.5-71 33.5l-60 33.5c-18.667 10.333-39 15.5-61 15.5-10 0-20.167-.667-30.5-2s-20.5-4.5-30.5-9.5-19.167-12.667-27.5-23-14.833-24.833-19.5-43.5l-109 53c8.667 31.333 21 57.5 37 78.5s34 37.833 54 50.5 41.5 21.667 64.5 27 46.167 8 69.5 8z"/><glyph glyph-name="Odieresis" unicode="Ö" horiz-adv-x="1577" d="M712-31c-85.333 0-166.5 16.33-243.5 48.998s-144.667 78.834-203 138.5-104.666 131.668-139 216S75 551 75 655c0 87.334 10.334 169.834 31 247.5S155.67 1052 193 1118s82.167 125.334 134.5 178 110.333 97.335 174 134.002 131.834 64.834 204.5 84.5 148.335 29.5 227.002 29.5c85.333 0 166.5-14.832 243.5-44.5s144.667-72.833 203-129.5 104.666-126.167 139-208.5S1570 985.667 1570 881c0-89.333-10-174-30-254s-48.168-153.667-84.5-221-80.334-128-132-182-109.335-99.833-173.002-137.5S1018 19.833 944-.5 792.667-31 712-31zm23 202.998c57.333 0 112.333 8 165 24s101.667 38.834 147 68.5 86.5 65.335 123.5 107.002S1239 459.667 1265 511s46.167 106.666 60.5 166 21.5 121.665 21.5 186.998c0 72.667-10.833 138.334-32.5 197s-51.834 108.835-90.5 150.502-84.668 73.667-138 96-111.667 33.5-175 33.5c-82.667 0-161-16.667-235-50s-139-79.833-195-139.5-100.333-130.334-133-212-49-170.835-49-267.502c0-71.333 10.833-137.5 32.5-198.5s51.834-113.833 90.5-158.5 84.668-79.667 138-105 111.667-38 175-38zM651 1880c0 17.333 3.5 33.833 10.5 49.5s16.333 29.334 28 41 25.334 21 41 28S762.67 2009 780 2009c16.668 0 32.668-3.5 48-10.5s28.667-16.332 40-28 20.333-25.333 27-41 10-32.167 10-49.5c0-18-3.333-35-10-51s-15.667-30.167-27-42.5-24.666-22-40-29-31.332-10.5-48-10.5c-17.332 0-33.832 3.5-49.5 10.5s-29.333 16.667-41 29-21 26.5-28 42.5-10.5 33-10.5 51zm459 0c0 17.333 3.5 33.833 10.5 49.5s16.333 29.334 28 41 25.334 21 41 28 32.168 10.5 49.5 10.5c16.668 0 32.5-3.5 47.5-10.5s28.334-16.332 40-28 20.835-25.333 27.502-41 10-32.167 10-49.5c0-18-3.333-35-10-51s-15.834-30.167-27.5-42.5-25-22-40-29-30.834-10.5-47.5-10.5c-17.334 0-33.834 3.5-49.5 10.5s-29.335 16.667-41.002 29-21 26.5-28 42.5-10.5 33-10.5 51z"/><glyph glyph-name="multiply" unicode="×" horiz-adv-x="1221" d="M510 702l-256 426 160 117 244-405 450 422 133-140-480-452 273-451-164-113-257 425-459-431L20 242z"/><glyph glyph-name="Oslash" unicode="Ø" horiz-adv-x="1577" d="M1280 1536l228-.002-124-171c56-55.333 101-123.666 135-205s51-174.332 51-279c0-89.332-10-174-30-254s-48.168-153.666-84.5-221-80.334-128-132-182-109.335-99.832-173.002-137.5-132.5-66.666-206.5-87-151.333-30.5-232-30.5c-105.333 0-203 24-293 72l-45-61h-228l124 171c-61.333 63.334-109.166 137.167-143.5 221.5S75 550.998 75 654.998c0 87.333 10.334 169.833 31 247.5s49.668 149.5 87 215.5 82.167 125.333 134.5 178 110.333 97.334 174 134 131.834 64.835 204.5 84.502S854.334 1544 933 1544c110 0 210.333-23.667 301-71zm-174-238c-66.667 28.667-131.667 43.002-195 43.002-82.667 0-161-16.667-235-50s-139-79.833-195-139.5-100.333-130.334-133-212S299 768.666 299 672c0-71.333 10-135.333 30-192s45.333-105 76-145zM735 172c57.332 0 112.332 8 165 24s101.666 38.833 147 68.5 86.5 65.334 123.5 107S1239 459.67 1265 511s46.166 106.667 60.5 166 21.5 121.666 21.5 187c0 72.666-9.668 134.833-29 186.5s-42.334 95.167-69 130.5L546 216c62.666-29.333 125.666-44 189-44z"/><glyph glyph-name="Ugrave" unicode="Ù" horiz-adv-x="1581" d="M282 1516l492-.003-39-173H595l-161-704c-5.332-23.333-10.165-48.166-14.498-74.5s-6.5-56.165-6.5-89.498c-.667-36.668 5-72.835 17-108.502s30.667-67.667 56-96 57.666-51.166 97-68.5 86.332-26 141-26c55.332 0 106.5 7.834 153.5 23.5s89.5 41.668 127.5 78 71.5 84 100.5 143S1159 552.333 1179 639l162 704h-152l39 173h492l-39-173h-133l-166-722c-26-114-60.5-211.832-103.5-293.5s-93.168-148.666-150.5-201S1006.667 35.834 936 11.5 788.666-25 706-25c-72.667 0-140.167 10.833-202.5 32.5s-116 53-161 94-80 91.167-105 150.5-36.833 127-35.5 203c0 30 2 59.833 6 89.5s9.667 61.167 17 94.5l162 704H243zm611 142l-287 282v17h248l184-299H893z"/><glyph glyph-name="Uacute" unicode="Ú" horiz-adv-x="1581" d="M282 1516l492-.003-39-173H595l-161-704c-5.332-23.333-10.165-48.166-14.498-74.5s-6.5-56.165-6.5-89.498c-.667-36.668 5-72.835 17-108.502s30.667-67.667 56-96 57.666-51.166 97-68.5 86.332-26 141-26c55.332 0 106.5 7.834 153.5 23.5s89.5 41.668 127.5 78 71.5 84 100.5 143S1159 552.333 1179 639l162 704h-152l39 173h492l-39-173h-133l-166-722c-26-114-60.5-211.832-103.5-293.5s-93.168-148.666-150.5-201S1006.667 35.834 936 11.5 788.666-25 706-25c-72.667 0-140.167 10.833-202.5 32.5s-116 53-161 94-80 91.167-105 150.5-36.833 127-35.5 203c0 30 2 59.833 6 89.5s9.667 61.167 17 94.5l162 704H243zm825 441h240v-17l-299-282H894z"/><glyph glyph-name="Ucircumflex" unicode="Û" horiz-adv-x="1581" d="M282 1516l492-.003-39-173H595l-161-704c-5.332-23.333-10.165-48.166-14.498-74.5s-6.5-56.165-6.5-89.498c-.667-36.668 5-72.835 17-108.502s30.667-67.667 56-96 57.666-51.166 97-68.5 86.332-26 141-26c55.332 0 106.5 7.834 153.5 23.5s89.5 41.668 127.5 78 71.5 84 100.5 143S1159 552.333 1179 639l162 704h-152l39 173h492l-39-173h-133l-166-722c-26-114-60.5-211.832-103.5-293.5s-93.168-148.666-150.5-201S1006.667 35.834 936 11.5 788.666-25 706-25c-72.667 0-140.167 10.833-202.5 32.5s-116 53-161 94-80 91.167-105 150.5-36.833 127-35.5 203c0 30 2 59.833 6 89.5s9.667 61.167 17 94.5l162 704H243zm488 135l297 273h111l151-273h-170l-64 125-119-125H770z"/><glyph glyph-name="Udieresis" unicode="Ü" horiz-adv-x="1581" d="M282 1516l492-.003-39-173H595l-161-704c-5.332-23.333-10.165-48.166-14.498-74.5s-6.5-56.165-6.5-89.498c-.667-36.668 5-72.835 17-108.502s30.667-67.667 56-96 57.666-51.166 97-68.5 86.332-26 141-26c55.332 0 106.5 7.834 153.5 23.5s89.5 41.668 127.5 78 71.5 84 100.5 143S1159 552.333 1179 639l162 704h-152l39 173h492l-39-173h-133l-166-722c-26-114-60.5-211.832-103.5-293.5s-93.168-148.666-150.5-201S1006.667 35.834 936 11.5 788.666-25 706-25c-72.667 0-140.167 10.833-202.5 32.5s-116 53-161 94-80 91.167-105 150.5-36.833 127-35.5 203c0 30 2 59.833 6 89.5s9.667 61.167 17 94.5l162 704H243zm407 324c0 17.333 3.5 33.833 10.5 49.5s16.334 29.334 28 41 25.335 21 41.002 28 32.167 10.5 49.5 10.5c16.667 0 32.667-3.5 48-10.5s28.666-16.332 40-28 20.332-25.333 27-41 10-32.167 10-49.5c0-18-3.334-35-10-51s-15.668-30.167-27-42.5-24.667-22-40-29-31.333-10.5-48-10.5c-17.333 0-33.833 3.5-49.5 10.5s-29.334 16.667-41 29-21 26.5-28 42.5-10.5 33-10.5 51zm459 0c0 17.333 3.5 33.833 10.5 49.5s16.333 29.334 28 41 25.334 21 41 28 32.168 10.5 49.5 10.5c16.668 0 32.5-3.5 47.5-10.5s28.334-16.332 40-28 20.835-25.333 27.502-41 10-32.167 10-49.5c0-18-3.333-35-10-51s-15.834-30.167-27.5-42.5-25-22-40-29-30.834-10.5-47.5-10.5c-17.334 0-33.834 3.5-49.5 10.5s-29.335 16.667-41.002 29-21 26.5-28 42.5-10.5 33-10.5 51z"/><glyph glyph-name="Yacute" unicode="Ý" horiz-adv-x="1323" d="M214 1516h491l-39-173H544l175-473 411 473h-122l39 173h492l-39-173h-123L791 687 671 172h141L773 0H281l39 172h141l120 519-259 652H175zm743 441h240v-17l-299-282H744z"/><glyph glyph-name="Thorn" unicode="Þ" horiz-adv-x="1320" d="M425 1516h492l-41-173H735l-31-135h272c58.668 0 112.835-7.668 162.502-23s92.5-37.834 128.5-67.5 64.167-65.835 84.5-108.502 30.5-91 30.5-145c0-69.333-12.833-133.166-38.5-191.5s-62.334-108.665-110-150.998-105.335-75.333-173.002-99S917 387 833 387H516l-49-215h139L567 0H75l39 172h144l270 1171H385zm240-480L556 559h291c46 0 88.668 6.167 128 18.5s73.5 30.5 102.5 54.5 51.834 54 68.5 90 25 78 25 126c0 56.667-19 102.167-57 136.5s-98.332 51.5-181 51.5H665z"/><glyph glyph-name="germandbls" unicode="ß" horiz-adv-x="1348" d="M-9 172l195 .002 233 1008c14 61.333 35.168 116.5 63.5 165.5s63 90.667 104 125 88.334 60.666 142 79S841.67 1577 907 1577c56 0 106.834-9.168 152.5-27.5s84.835-43.667 117.502-76 58-70.5 76-114.5 27-91.333 27-142c0-42-5.833-79.667-17.5-113s-26.667-63.166-45-89.5-38.833-49.5-61.5-69.5-45-38-67-54c22.667-18 44-38.5 64-61.5s37.5-48.332 52.5-76 26.667-57.5 35-89.5 12.5-65.666 12.5-101c0-85.332-16.333-163.165-49-233.498s-77-130.5-133-180.5-121.667-88.667-197-116-155.333-41-240-41c-13.333 0-29 .5-47 1.5s-33.667 2.5-47 4.5l43 184c13.333-3.333 25.666-5.5 37-6.5s23.665-1.5 36.998-1.5c50 0 98.667 9.167 146 27.5s89.5 44 126.5 77 66.667 72 89 117 33.5 94.167 33.5 147.5c0 38-6.667 72.833-20 104.5s-31.333 58.667-54 81-49 39.666-79 52-61.667 18.5-95 18.5h-80l44 186h75c30 0 59.167 5.166 87.5 15.5S984 1025.668 1006 1045s39.667 42.5 53 69.5 20 57.5 20 91.5c0 26.667-4.5 51.334-13.5 74s-22 42.168-39 58.5-37.667 29.167-62 38.5-51.833 14-82.5 14c-32 0-62.333-5.833-91-17.5s-54.667-27.834-78-48.5-43.333-45.335-60-74.002-29-60-37-94L350 0H-48z"/><glyph glyph-name="agrave" unicode="à" horiz-adv-x="1307" d="M783 70c-44.667-30-89.5-52.168-134.5-66.5S557-18 509-18C452.33-18 399.33-7 350 15s-92.167 52-128.5 90-65 82.832-86 134.5S104 346.665 104 406c0 96.666 17 185.333 51 266s80.167 150 138.5 208 126.333 103 204 135 160.167 48 247.5 48c50 0 97-7.5 141-22.5s80-34.5 108-58.5l13 54h201l-200-864h161L1130 0H767zm-227 84c24.666 0 49.833 3.002 75.5 9.002s50.167 13.667 73.5 23 45.333 20.166 66 32.5 39 25.165 55 38.498l129 554c-17.333 22-44.333 40.833-81 56.5S789.333 891 730 891c-51.333 0-102-10.5-152-31.5s-94.667-51.333-134-91-71.333-88.334-96-146S311 499.33 311 426c0-42.668 6-80.835 18-114.502s28.667-62.167 50-85.5 47.166-41.166 77.5-53.5S520 154 556 154zm138 1024l-287 282v17h248l184-299H694z"/><glyph glyph-name="aacute" unicode="á" horiz-adv-x="1307" d="M783 70c-44.667-30-89.5-52.168-134.5-66.5S557-18 509-18C452.33-18 399.33-7 350 15s-92.167 52-128.5 90-65 82.832-86 134.5S104 346.665 104 406c0 96.666 17 185.333 51 266s80.167 150 138.5 208 126.333 103 204 135 160.167 48 247.5 48c50 0 97-7.5 141-22.5s80-34.5 108-58.5l13 54h201l-200-864h161L1130 0H767zm-227 84c24.666 0 49.833 3.002 75.5 9.002s50.167 13.667 73.5 23 45.333 20.166 66 32.5 39 25.165 55 38.498l129 554c-17.333 22-44.333 40.833-81 56.5S789.333 891 730 891c-51.333 0-102-10.5-152-31.5s-94.667-51.333-134-91-71.333-88.334-96-146S311 499.33 311 426c0-42.668 6-80.835 18-114.502s28.667-62.167 50-85.5 47.166-41.166 77.5-53.5S520 154 556 154zm307 1323h240v-17l-299-282H650z"/><glyph glyph-name="acircumflex" unicode="â" horiz-adv-x="1307" d="M783 70c-44.667-30-89.5-52.168-134.5-66.5S557-18 509-18C452.33-18 399.33-7 350 15s-92.167 52-128.5 90-65 82.832-86 134.5S104 346.665 104 406c0 96.666 17 185.333 51 266s80.167 150 138.5 208 126.333 103 204 135 160.167 48 247.5 48c50 0 97-7.5 141-22.5s80-34.5 108-58.5l13 54h201l-200-864h161L1130 0H767zm-227 84c24.666 0 49.833 3.002 75.5 9.002s50.167 13.667 73.5 23 45.333 20.166 66 32.5 39 25.165 55 38.498l129 554c-17.333 22-44.333 40.833-81 56.5S789.333 891 730 891c-51.333 0-102-10.5-152-31.5s-94.667-51.333-134-91-71.333-88.334-96-146S311 499.33 311 426c0-42.668 6-80.835 18-114.502s28.667-62.167 50-85.5 47.166-41.166 77.5-53.5S520 154 556 154zm-4 1017l297 273h111l151-273H941l-64 125-119-125H552z"/><glyph glyph-name="atilde" unicode="ã" horiz-adv-x="1307" d="M771 70c-44.667-30-89.5-52.168-134.5-66.5S545-18 497-18C440.33-18 387.33-7 338 15s-92.167 52-128.5 90-65 82.832-86 134.5S92 346.665 92 406c0 96.666 17 185.333 51 266s80.167 150 138.5 208 126.333 103 204 135 160.167 48 247.5 48c50 0 97-7.5 141-22.5s80-34.5 108-58.5l13 54h201L996 172h161L1118 0H755zm-227 84c24.666 0 49.833 3.002 75.5 9.002s50.167 13.667 73.5 23 45.333 20.166 66 32.5 39 25.165 55 38.498l129 554c-17.333 22-44.333 40.833-81 56.5S777.333 891 718 891c-51.333 0-102-10.5-152-31.5s-94.667-51.333-134-91-71.333-88.334-96-146S299 499.33 299 426c0-42.668 6-80.835 18-114.502s28.667-62.167 50-85.5 47.166-41.166 77.5-53.5S508 154 544 154zm109 1261c33.332 0 62.165-5.5 86.498-16.5s47-23 68-36 41.833-24.833 62.5-35.5 44-16 70-16c18.667 0 36.834 6.333 54.5 19s29.5 33 35.5 61l119-35c-13.332-56.667-39.332-100.5-78-131.5s-85-46.5-139-46.5c-37.332 0-69 5.167-95 15.5s-49.666 21.5-71 33.5l-60 33.5c-18.666 10.333-39 15.5-61 15.5-10 0-20.166-.667-30.5-2s-20.5-4.5-30.5-9.5-19.166-12.667-27.5-23-14.832-24.833-19.5-43.5l-109 53c8.668 31.333 21 57.5 37 78.5s34 37.833 54 50.5 41.5 21.667 64.5 27 46.168 8 69.5 8z"/><glyph glyph-name="adieresis" unicode="ä" horiz-adv-x="1307" d="M783 70c-44.667-30-89.5-52.168-134.5-66.5S557-18 509-18C452.33-18 399.33-7 350 15s-92.167 52-128.5 90-65 82.832-86 134.5S104 346.665 104 406c0 96.666 17 185.333 51 266s80.167 150 138.5 208 126.333 103 204 135 160.167 48 247.5 48c50 0 97-7.5 141-22.5s80-34.5 108-58.5l13 54h201l-200-864h161L1130 0H767zm-227 84c24.666 0 49.833 3.002 75.5 9.002s50.167 13.667 73.5 23 45.333 20.166 66 32.5 39 25.165 55 38.498l129 554c-17.333 22-44.333 40.833-81 56.5S789.333 891 730 891c-51.333 0-102-10.5-152-31.5s-94.667-51.333-134-91-71.333-88.334-96-146S311 499.33 311 426c0-42.668 6-80.835 18-114.502s28.667-62.167 50-85.5 47.166-41.166 77.5-53.5S520 154 556 154zM451 1360c0 17.333 3.5 33.833 10.5 49.5s16.332 29.334 28 41 25.333 21 41 28 32.167 10.5 49.5 10.5c16.667 0 32.667-3.5 48-10.5s28.666-16.332 40-28 20.332-25.333 27-41 10-32.167 10-49.5c0-18-3.334-35-10-51s-15.668-30.167-27-42.5-24.667-22-40-29-31.333-10.5-48-10.5c-17.333 0-33.833 3.5-49.5 10.5s-29.334 16.667-41 29-21 26.5-28 42.5-10.5 33-10.5 51zm459 0c0 17.333 3.5 33.833 10.5 49.5s16.332 29.334 28 41 25.333 21 41 28 32.167 10.5 49.5 10.5c16.667 0 32.5-3.5 47.5-10.5s28.333-16.332 40-28 20.834-25.333 27.5-41 10-32.167 10-49.5c0-18-3.332-35-10-51s-15.833-30.167-27.5-42.5-25-22-40-29-30.833-10.5-47.5-10.5c-17.333 0-33.833 3.5-49.5 10.5s-29.334 16.667-41 29-21 26.5-28 42.5-10.5 33-10.5 51z"/><glyph glyph-name="aring" unicode="å" horiz-adv-x="1307" d="M771 70c-44.667-30-89.5-52.168-134.5-66.5S545-18 497-18C440.33-18 387.33-7 338 15s-92.167 52-128.5 90-65 82.832-86 134.5S92 346.665 92 406c0 96.666 17 185.333 51 266s80.167 150 138.5 208 126.333 103 204 135 160.167 48 247.5 48c50 0 97-7.5 141-22.5s80-34.5 108-58.5l13 54h201L996 172h161L1118 0H755zm-227 84c24.666 0 49.833 3.002 75.5 9.002s50.167 13.667 73.5 23 45.333 20.166 66 32.5 39 25.165 55 38.498l129 554c-17.333 22-44.333 40.833-81 56.5S777.333 891 718 891c-51.333 0-102-10.5-152-31.5s-94.667-51.333-134-91-71.333-88.334-96-146S299 499.33 299 426c0-42.668 6-80.835 18-114.502s28.667-62.167 50-85.5 47.166-41.166 77.5-53.5S508 154 544 154zm169 1188c0-14 2.832-27.167 8.5-39.5s13.333-23.333 23-33 20.667-17.334 33-23 25.5-8.5 39.5-8.5 27.333 2.832 40 8.5 23.834 13.333 33.5 23 17.335 20.667 23.002 33 8.5 25.5 8.5 39.5-2.833 27.333-8.5 40-13.334 23.834-23 33.5-20.835 17.335-33.502 23.002-26 8.5-40 8.5-27.167-2.833-39.5-8.5-23.333-13.334-33-23-17.334-20.835-23-33.502-8.5-26-8.5-40zm104 256c34.666 0 67.666-6.833 99-20.5s58.5-32 81.5-55 41.332-50.167 55-81.5 20.5-64.333 20.5-99-6.834-67.5-20.5-98.5-32-58.167-55-81.5-50.168-41.833-81.5-55.5-64.334-20.5-99-20.5-67.5 6.833-98.5 20.5-58.168 32.167-81.5 55.5-41.834 50.5-55.5 81.5-20.5 63.833-20.5 98.5 6.832 67.667 20.5 99 32.166 58.5 55.5 81.5 50.5 41.333 81.5 55S782.33 1598 817 1598z"/><glyph glyph-name="ae" unicode="æ" horiz-adv-x="1755" d="M508 606c45.333 0 85.17-1.838 119.503-5.505s64.166-8.834 89.5-15.5l23 95c8.666 36.666 10.666 68.5 6 95.5s-14.668 49.332-30 67-35.834 30.833-61.5 39.5-55.168 13-88.5 13c-31.334 0-61.834-2.167-91.5-6.5s-58-10-85-17-52-15-75-24-43.168-18.5-60.5-28.5l-30 129c28 16 58.332 30.833 91 44.5s66.166 25.334 100.5 35 69 17.335 104 23.002 68.832 8.5 101.5 8.5c72.666 0 133.5-11.167 182.5-33.5s84.832-57.5 107.5-105.5c52 46 111.166 82 177.5 108s137.832 39 214.5 39c66 0 124.832-11.167 176.5-33.5s95.5-51.833 131.5-88.5 63.332-79 82-127 28-97.333 28-148c0-34-1.834-66.833-5.5-98.5s-8.168-61.167-13.5-88.5h-796c-.668-9.333-1.168-17.333-1.5-24s-.5-13-.5-19c0-42 6.832-81 20.5-117s32.5-67.167 56.5-93.5 52.832-47 86.5-62 70.5-22.5 110.5-22.5c54 0 105 10.833 153 32.5s88.666 53.167 122 94.5l147-108c-22.668-30-49.668-57-81-81s-66-44.5-104-61.5-78.5-30-121.5-39-86.834-13.5-131.5-13.5c-42.668 0-83.5 4.833-122.5 14.5s-75.5 23.667-109.5 42-64.834 41-92.5 68-51.5 57.833-71.5 92.5c-26-35.333-55.168-66.333-87.5-93s-67-49-104-67-75.5-31.667-115.5-41-81-14-123-14c-48 0-92.834 5.333-134.5 16S123.667 14.33 93 36.997s-54.833 51.168-72.5 85.5-26.5 75.5-26.5 123.5c0 49.334 8 92.334 24 129S55.5 443.333 82.5 470s58 48.833 93 66.5 71.5 31.667 109.5 42S361.167 596 399.5 600s74.5 6 108.5 6zM355.004 126.995c69.333 0 135.332 15.5 198 46.5s118 74.832 166 131.5c-5.334 21.332-9.334 43.5-12 66.5s-4 47.166-4 72.5c0 10.666.332 21.666 1 33h-230c-40.668 0-78.668-4.668-114-14s-66.167-22.667-92.5-40-47-38.833-62-64.5-22.5-54.5-22.5-86.5c0-49.333 15.5-85.833 46.5-109.5s72.833-35.5 125.5-35.5zm920.996 770c-39.333 0-76.5-6.332-111.5-19s-67-30.333-96-53-54.5-49.334-76.5-80-40-64-54-100h590c.666 41.332-4.834 77.832-16.5 109.5s-28.668 58-51 79-49.167 36.832-80.5 47.5-66 16-104 16z"/><glyph glyph-name="ccedilla" unicode="ç" horiz-adv-x="1135" d="M921 731c-10.667 26.667-24.83 49.998-42.497 69.998s-37.834 36.667-60.5 50-47.335 23.333-74.002 30-54.333 10-83 10c-36.667 0-75.834-9.5-117.5-28.5s-80.335-46.833-116.002-83.5-65.167-81.667-88.5-135-35-114.333-35-183c0-50 7.333-94.167 22-132.5s34.334-70.5 59-96.5 53.335-45.5 86.002-58.5 67.334-19.5 104-19.5c26.668 0 51.668 2.167 75 6.5s45.5 11.666 66.5 22 41.5 23.832 61.5 40.5 39.668 37.333 59 62l145-109c-26-36.667-55.332-67.834-88-93.5s-67-46.5-103-62.5-73.166-27.5-111.5-34.5-76.165-10.5-113.498-10.5c-68 0-130.833 12.166-188.5 36.5s-107.334 57.832-149 100.5-74.335 92.833-98.002 150.5S95 382.332 95 448.998c0 90.668 17 173.835 51 249.502S224.667 839.334 280 894s117.833 97.168 187.5 127.5S607.667 1067 679 1067c33.333 0 66.666-3.166 100-9.5s65.332-16.332 96-30 59.333-30.833 86-51.5 50.667-45 72-73h125l-28-172H921zM307.004-303.002c36.667.667 69.835 7.166 99.502 19.5s55.667 28.5 78 48.5 40.666 43.5 55 70.5 24.165 55.832 29.498 86.5l150-45c-12-48.668-30.667-92.168-56-130.5s-55.5-70.667-90.5-97-74.167-46.5-117.5-60.5-89-21-137-21z"/><glyph glyph-name="egrave" unicode="è" horiz-adv-x="1171" d="M318 483c-.667-9.333-1.33-17.333-1.996-24s-1-13-1-19c0-42 6.833-81 20.5-117s32.667-67.167 57-93.5 53.333-47 87-62 70.5-22.5 110.5-22.5c53.333 0 104.166 10.833 152.5 32.5s88.832 53.167 121.5 94.5l148-108c-22.668-30-49.668-57-81-81s-66-44.5-104-61.5-78.5-30-121.5-39S618.67-31 574.003-31c-64 0-123.834 10.667-179.5 32S290.168 53.333 248.5 94s-74.334 90.5-98 149.5S115 369.333 115 444c0 86 15.166 166.833 45.5 242.5s72.332 141.667 126 198S403.667 985.333 477 1018s152.665 49 237.998 49c66 0 124.833-11.167 176.5-33.5S987 981.667 1023 945s63.333-79 82-127 28-97.333 28-148c0-34-1.833-66.833-5.5-98.5s-8.167-61.167-13.5-88.5H318zm370.005 414c-40 0-77.5-6.33-112.5-18.998s-66.834-30.334-95.5-53-54-49.335-76-80.002-40-64-54-100h590c.666 41.333-4.834 77.833-16.5 109.5s-28.668 58-51 79-49.167 36.833-80.5 47.5-66 16-104 16zm-78 281l-287 282v17h248l184-299h-145z"/><glyph glyph-name="eacute" unicode="é" horiz-adv-x="1171" d="M318 483c-.667-9.333-1.33-17.333-1.996-24s-1-13-1-19c0-42 6.833-81 20.5-117s32.667-67.167 57-93.5 53.333-47 87-62 70.5-22.5 110.5-22.5c53.333 0 104.166 10.833 152.5 32.5s88.832 53.167 121.5 94.5l148-108c-22.668-30-49.668-57-81-81s-66-44.5-104-61.5-78.5-30-121.5-39S618.67-31 574.003-31c-64 0-123.834 10.667-179.5 32S290.168 53.333 248.5 94s-74.334 90.5-98 149.5S115 369.333 115 444c0 86 15.166 166.833 45.5 242.5s72.332 141.667 126 198S403.667 985.333 477 1018s152.665 49 237.998 49c66 0 124.833-11.167 176.5-33.5S987 981.667 1023 945s63.333-79 82-127 28-97.333 28-148c0-34-1.833-66.833-5.5-98.5s-8.167-61.167-13.5-88.5H318zm370.005 414c-40 0-77.5-6.33-112.5-18.998s-66.834-30.334-95.5-53-54-49.335-76-80.002-40-64-54-100h590c.666 41.333-4.834 77.833-16.5 109.5s-28.668 58-51 79-49.167 36.833-80.5 47.5-66 16-104 16zm121 580h240v-17l-299-282h-154z"/><glyph glyph-name="ecircumflex" unicode="ê" horiz-adv-x="1171" d="M318 483c-.667-9.333-1.33-17.333-1.996-24s-1-13-1-19c0-42 6.833-81 20.5-117s32.667-67.167 57-93.5 53.333-47 87-62 70.5-22.5 110.5-22.5c53.333 0 104.166 10.833 152.5 32.5s88.832 53.167 121.5 94.5l148-108c-22.668-30-49.668-57-81-81s-66-44.5-104-61.5-78.5-30-121.5-39S618.67-31 574.003-31c-64 0-123.834 10.667-179.5 32S290.168 53.333 248.5 94s-74.334 90.5-98 149.5S115 369.333 115 444c0 86 15.166 166.833 45.5 242.5s72.332 141.667 126 198S403.667 985.333 477 1018s152.665 49 237.998 49c66 0 124.833-11.167 176.5-33.5S987 981.667 1023 945s63.333-79 82-127 28-97.333 28-148c0-34-1.833-66.833-5.5-98.5s-8.167-61.167-13.5-88.5H318zm370.005 414c-40 0-77.5-6.33-112.5-18.998s-66.834-30.334-95.5-53-54-49.335-76-80.002-40-64-54-100h590c.666 41.333-4.834 77.833-16.5 109.5s-28.668 58-51 79-49.167 36.833-80.5 47.5-66 16-104 16zm-201 274l297 273h111l151-273h-170l-64 125-119-125h-206z"/><glyph glyph-name="edieresis" unicode="ë" horiz-adv-x="1171" d="M318 483c-.667-9.333-1.33-17.333-1.996-24s-1-13-1-19c0-42 6.833-81 20.5-117s32.667-67.167 57-93.5 53.333-47 87-62 70.5-22.5 110.5-22.5c53.333 0 104.166 10.833 152.5 32.5s88.832 53.167 121.5 94.5l148-108c-22.668-30-49.668-57-81-81s-66-44.5-104-61.5-78.5-30-121.5-39S618.67-31 574.003-31c-64 0-123.834 10.667-179.5 32S290.168 53.333 248.5 94s-74.334 90.5-98 149.5S115 369.333 115 444c0 86 15.166 166.833 45.5 242.5s72.332 141.667 126 198S403.667 985.333 477 1018s152.665 49 237.998 49c66 0 124.833-11.167 176.5-33.5S987 981.667 1023 945s63.333-79 82-127 28-97.333 28-148c0-34-1.833-66.833-5.5-98.5s-8.167-61.167-13.5-88.5H318zm370.005 414c-40 0-77.5-6.33-112.5-18.998s-66.834-30.334-95.5-53-54-49.335-76-80.002-40-64-54-100h590c.666 41.333-4.834 77.833-16.5 109.5s-28.668 58-51 79-49.167 36.833-80.5 47.5-66 16-104 16zm-282 463c0 17.333 3.5 33.833 10.5 49.5s16.332 29.334 28 41 25.333 21 41 28 32.167 10.5 49.5 10.5c16.667 0 32.667-3.5 48-10.5s28.666-16.332 40-28 20.332-25.333 27-41 10-32.167 10-49.5c0-18-3.334-35-10-51s-15.668-30.167-27-42.5-24.667-22-40-29-31.333-10.5-48-10.5c-17.333 0-33.833 3.5-49.5 10.5s-29.334 16.667-41 29-21 26.5-28 42.5-10.5 33-10.5 51zm459 0c0 17.333 3.5 33.833 10.5 49.5s16.332 29.334 28 41 25.333 21 41 28 32.167 10.5 49.5 10.5c16.667 0 32.5-3.5 47.5-10.5s28.333-16.332 40-28 20.834-25.333 27.5-41 10-32.167 10-49.5c0-18-3.332-35-10-51s-15.833-30.167-27.5-42.5-25-22-40-29-30.833-10.5-47.5-10.5c-17.333 0-33.833 3.5-49.5 10.5s-29.334 16.667-41 29-21 26.5-28 42.5-10.5 33-10.5 51z"/><glyph glyph-name="igrave" unicode="ì" horiz-adv-x="725" d="M198 1036h387L385 172h166L512 0H143l200 864H157zm214 142l-287 282v17h248l184-299H412z"/><glyph glyph-name="iacute" unicode="í" horiz-adv-x="725" d="M198 1036h387L385 172h166L512 0H143l200 864H157zm347 441h240v-17l-299-282H332z"/><glyph glyph-name="icircumflex" unicode="î" horiz-adv-x="725" d="M198 1036h387L385 172h166L512 0H143l200 864H157zm0 135l267 273h112l120-273H537l-44 125-105-125H198z"/><glyph glyph-name="idieresis" unicode="ï" horiz-adv-x="725" d="M198 1036h387L385 172h166L512 0H143l200 864H157zm3 324c0 35.333 12.667 65.666 38 91s55.666 38 91 38c16.666 0 32.833-3.5 48.5-10.5s29-16.168 40-27.5 19.833-25 26.5-41 10-32.668 10-50c0-18-3.333-35.168-10-51.5s-15.5-30.667-26.5-43-24.333-21.833-40-28.5-31.834-10-48.5-10c-35.334 0-65.667 13.333-91 40s-38 57.667-38 93zm316 0c0 35.333 12.667 65.666 38 91s55.666 38 91 38c16 0 32-3.5 48-10.5s29.332-16.168 40-27.5 19.5-25 26.5-41 10.5-32.668 10.5-50c0-18-3.5-35.168-10.5-51.5s-15.834-30.667-26.5-43-24-21.833-40-28.5-32-10-48-10c-35.334 0-65.667 13.333-91 40s-38 57.667-38 93z"/><glyph glyph-name="eth" unicode="ð" horiz-adv-x="1251" d="M674 1532l76.003-128.007 156 64 66-159-133-55 179-298c24-40 45.5-79.667 64.5-119s34.333-84.166 46-134.5 17.5-100.5 17.5-150.5c0-60.666-15.833-130.5-47.5-209.5s-78.834-147.5-141.5-205.5-132-99.5-208-124.5-142-37.5-198-37.5c-72 0-137.5 12.168-196.5 36.5s-109.334 57.834-151 100.5-74 92.835-97 150.502-34.5 119.834-34.5 186.5c0 57.334 7.166 112.334 21.5 165s34.5 101.835 60.5 147.502 57.166 87.334 93.5 125S323.667 956.333 367 983s89.667 47.333 139 62 100.333 22 153 22c21.333 0 41-1 59-3l-69 112-169-69-66 159 143 59-127 207h244zm271.003-946.007c0 44-5 82.5-15 115.5s-26.5 64.5-49.5 94.5-54.168 53.333-93.5 70-81 25-125 25c-53.334 0-106.5-14.667-159.5-44s-96.668-67.833-131-115.5-58-95.5-71-143.5-19.5-89.667-19.5-125c0-42.667 5.5-82.834 16.5-120.5s27.832-70.668 50.5-99 51.666-50.667 87-67 77.665-24.5 126.998-24.5c44.668 0 89.835 10 135.502 30s86.834 48.667 123.5 86 66.5 82.833 89.5 136.5 34.5 114.167 34.5 181.5z"/><glyph glyph-name="ntilde" unicode="ñ" horiz-adv-x="1368" d="M188 1036l391 .002-25-106c47.334 39.333 99.167 70 155.5 92s115.833 33 178.5 33c53.333 0 101.5-8 144.5-24s78.167-40.333 105.5-73 45.333-73.334 54-122 5.667-105.335-9-170.002l-114-494h147L1177 0H827l149 641c18.667 78.667 12.667 138-18 178s-82.667 60-156 60c-52 0-101.333-11.167-148-33.5S563 792 521 752L348 0H145l200 864H147zm537 379c33.334 0 62.167-5.5 86.5-16.5s47-23 68-36 41.833-24.833 62.5-35.5 44-16 70-16c18.667 0 36.834 6.333 54.5 19s29.5 33 35.5 61l119-35c-13.332-56.667-39.332-100.5-78-131.5s-85-46.5-139-46.5c-37.332 0-69 5.167-95 15.5s-49.666 21.5-71 33.5l-60 33.5c-18.666 10.333-39 15.5-61 15.5-10 0-20.166-.667-30.5-2s-20.5-4.5-30.5-9.5-19.166-12.667-27.5-23-14.832-24.833-19.5-43.5l-109 53c8.668 31.333 21 57.5 37 78.5s34 37.833 54 50.5 41.5 21.667 64.5 27 46.168 8 69.5 8z"/><glyph glyph-name="ograve" unicode="ò" d="M75 449c0 57.333 7.166 112.33 21.5 164.997s34.665 102 60.998 148 58 87.667 95 125 77.833 69.333 122.5 96 92.5 47.334 143.5 62 103.833 22 158.5 22c68.667 0 132.334-12.166 191-36.5S977.334 972.833 1020 930.5s76.167-92 100.5-149S1157 663.33 1157 598c0-58-7.333-113.668-22-167s-35.167-103-61.5-149-57.833-88-94.5-126-77.5-70.334-122.5-97S763.333 11.664 712-3.003s-104.666-22-160-22c-69.332 0-133 12.167-191 36.5S252.67 69.33 210 111.998s-75.833 92.834-99.5 150.5S75 382.334 75 449zm209 13.997c0-46.667 6.828-89.165 20.495-127.498s32.834-71 57.5-98 54.335-48 89.002-63 72.667-22.5 114-22.5c48.667 0 96.167 10.666 142.5 32s87.166 51 122.5 89 63.832 83.666 85.5 137 32.5 112 32.5 176c0 46.666-7.168 88.666-21.5 126s-34.167 69.332-59.5 96-55.166 47.166-89.5 61.5-71.832 21.5-112.5 21.5c-49.332 0-96.832-10.5-142.5-31.5s-86.166-50.334-121.5-88S337.333 688.664 316 635.997s-32-110.334-32-173zM621.994 1178l-287 282v17h248l184-299h-145z"/><glyph glyph-name="oacute" unicode="ó" d="M75 449c0 57.333 7.166 112.33 21.5 164.997s34.665 102 60.998 148 58 87.667 95 125 77.833 69.333 122.5 96 92.5 47.334 143.5 62 103.833 22 158.5 22c68.667 0 132.334-12.166 191-36.5S977.334 972.833 1020 930.5s76.167-92 100.5-149S1157 663.33 1157 598c0-58-7.333-113.668-22-167s-35.167-103-61.5-149-57.833-88-94.5-126-77.5-70.334-122.5-97S763.333 11.664 712-3.003s-104.666-22-160-22c-69.332 0-133 12.167-191 36.5S252.67 69.33 210 111.998s-75.833 92.834-99.5 150.5S75 382.334 75 449zm209 13.997c0-46.667 6.828-89.165 20.495-127.498s32.834-71 57.5-98 54.335-48 89.002-63 72.667-22.5 114-22.5c48.667 0 96.167 10.666 142.5 32s87.166 51 122.5 89 63.832 83.666 85.5 137 32.5 112 32.5 176c0 46.666-7.168 88.666-21.5 126s-34.167 69.332-59.5 96-55.166 47.166-89.5 61.5-71.832 21.5-112.5 21.5c-49.332 0-96.832-10.5-142.5-31.5s-86.166-50.334-121.5-88S337.333 688.664 316 635.997s-32-110.334-32-173zM802.994 1477h240v-17l-299-282h-154z"/><glyph glyph-name="ocircumflex" unicode="ô" d="M75 449c0 57.333 7.166 112.33 21.5 164.997s34.665 102 60.998 148 58 87.667 95 125 77.833 69.333 122.5 96 92.5 47.334 143.5 62 103.833 22 158.5 22c68.667 0 132.334-12.166 191-36.5S977.334 972.833 1020 930.5s76.167-92 100.5-149S1157 663.33 1157 598c0-58-7.333-113.668-22-167s-35.167-103-61.5-149-57.833-88-94.5-126-77.5-70.334-122.5-97S763.333 11.664 712-3.003s-104.666-22-160-22c-69.332 0-133 12.167-191 36.5S252.67 69.33 210 111.998s-75.833 92.834-99.5 150.5S75 382.334 75 449zm209 13.997c0-46.667 6.828-89.165 20.495-127.498s32.834-71 57.5-98 54.335-48 89.002-63 72.667-22.5 114-22.5c48.667 0 96.167 10.666 142.5 32s87.166 51 122.5 89 63.832 83.666 85.5 137 32.5 112 32.5 176c0 46.666-7.168 88.666-21.5 126s-34.167 69.332-59.5 96-55.166 47.166-89.5 61.5-71.832 21.5-112.5 21.5c-49.332 0-96.832-10.5-142.5-31.5s-86.166-50.334-121.5-88S337.333 688.664 316 635.997s-32-110.334-32-173zM456.994 1202l297 273h111l151-273h-170l-64 125-119-125h-206z"/><glyph glyph-name="otilde" unicode="õ" d="M75 449c0 57.333 7.166 112.33 21.5 164.997s34.665 102 60.998 148 58 87.667 95 125 77.833 69.333 122.5 96 92.5 47.334 143.5 62 103.833 22 158.5 22c68.667 0 132.334-12.166 191-36.5S977.334 972.833 1020 930.5s76.167-92 100.5-149S1157 663.33 1157 598c0-58-7.333-113.668-22-167s-35.167-103-61.5-149-57.833-88-94.5-126-77.5-70.334-122.5-97S763.333 11.664 712-3.003s-104.666-22-160-22c-69.332 0-133 12.167-191 36.5S252.67 69.33 210 111.998s-75.833 92.834-99.5 150.5S75 382.334 75 449zm209 13.997c0-46.667 6.828-89.165 20.495-127.498s32.834-71 57.5-98 54.335-48 89.002-63 72.667-22.5 114-22.5c48.667 0 96.167 10.666 142.5 32s87.166 51 122.5 89 63.832 83.666 85.5 137 32.5 112 32.5 176c0 46.666-7.168 88.666-21.5 126s-34.167 69.332-59.5 96-55.166 47.166-89.5 61.5-71.832 21.5-112.5 21.5c-49.332 0-96.832-10.5-142.5-31.5s-86.166-50.334-121.5-88S337.333 688.664 316 635.997s-32-110.334-32-173zM624.994 1446c33.333 0 62.166-5.5 86.5-16.5s47-23 68-36 41.832-24.833 62.5-35.5 44-16 70-16c18.666 0 36.833 6.333 54.5 19s29.5 33 35.5 61l119-35c-13.333-56.667-39.333-100.5-78-131.5s-85-46.5-139-46.5c-37.333 0-69 5.167-95 15.5s-49.667 21.5-71 33.5l-60 33.5c-18.667 10.333-39 15.5-61 15.5-10 0-20.167-.667-30.5-2s-20.5-4.5-30.5-9.5-19.167-12.667-27.5-23-14.833-24.833-19.5-43.5l-109 53c8.667 31.333 21 57.5 37 78.5s34 37.833 54 50.5 41.5 21.667 64.5 27 46.167 8 69.5 8z"/><glyph glyph-name="odieresis" unicode="ö" d="M75 449c0 57.333 7.166 112.33 21.5 164.997s34.665 102 60.998 148 58 87.667 95 125 77.833 69.333 122.5 96 92.5 47.334 143.5 62 103.833 22 158.5 22c68.667 0 132.334-12.166 191-36.5S977.334 972.833 1020 930.5s76.167-92 100.5-149S1157 663.33 1157 598c0-58-7.333-113.668-22-167s-35.167-103-61.5-149-57.833-88-94.5-126-77.5-70.334-122.5-97S763.333 11.664 712-3.003s-104.666-22-160-22c-69.332 0-133 12.167-191 36.5S252.67 69.33 210 111.998s-75.833 92.834-99.5 150.5S75 382.334 75 449zm209 13.997c0-46.667 6.828-89.165 20.495-127.498s32.834-71 57.5-98 54.335-48 89.002-63 72.667-22.5 114-22.5c48.667 0 96.167 10.666 142.5 32s87.166 51 122.5 89 63.832 83.666 85.5 137 32.5 112 32.5 176c0 46.666-7.168 88.666-21.5 126s-34.167 69.332-59.5 96-55.166 47.166-89.5 61.5-71.832 21.5-112.5 21.5c-49.332 0-96.832-10.5-142.5-31.5s-86.166-50.334-121.5-88S337.333 688.664 316 635.997s-32-110.334-32-173zM399.994 1391c0 17.333 3.5 33.833 10.5 49.5s16.333 29.334 28 41 25.334 21 41 28 32.168 10.5 49.5 10.5c16.668 0 32.668-3.5 48-10.5s28.667-16.332 40-28 20.333-25.333 27-41 10-32.167 10-49.5c0-18-3.333-35-10-51s-15.667-30.167-27-42.5-24.666-22-40-29-31.332-10.5-48-10.5c-17.332 0-33.832 3.5-49.5 10.5s-29.333 16.667-41 29-21 26.5-28 42.5-10.5 33-10.5 51zm459 0c0 17.333 3.5 33.833 10.5 49.5s16.333 29.334 28 41 25.334 21 41 28 32.168 10.5 49.5 10.5c16.668 0 32.5-3.5 47.5-10.5s28.334-16.332 40-28 20.835-25.333 27.502-41 10-32.167 10-49.5c0-18-3.333-35-10-51s-15.834-30.167-27.5-42.5-25-22-40-29-30.834-10.5-47.5-10.5c-17.334 0-33.834 3.5-49.5 10.5s-29.335 16.667-41.002 29-21 26.5-28 42.5-10.5 33-10.5 51z"/><glyph glyph-name="divide" unicode="÷" horiz-adv-x="1310" d="M225 614l39 172h946l-39-172H225zm425 475c0 18 3.5 35 10.5 51s16.5 29.833 28.5 41.5 26 21 42 28 33.333 10.5 52 10.5c18 0 35-3.5 51-10.5s29.833-16.333 41.5-28 21-25.5 28-41.5 10.5-33 10.5-51-3.5-35.167-10.5-51.5-16.333-30.666-28-43-25.5-22.165-41.5-29.498-33-11-51-11c-18.667 0-36 3.667-52 11s-30 17.166-42 29.5-21.5 26.665-28.5 42.998S650 1071 650 1089zM496 303c0 18 3.5 35 10.5 51s16.5 29.833 28.5 41.5 26 21 42 28 33.333 10.5 52 10.5c18 0 35-3.5 51-10.5s29.833-16.333 41.5-28 21-25.5 28-41.5 10.5-33 10.5-51-3.5-35.167-10.5-51.5-16.333-30.666-28-43-25.5-22.165-41.5-29.498-33-11-51-11c-18.667 0-36 3.667-52 11s-30 17.166-42 29.5-21.5 26.665-28.5 42.998S496 285 496 303z"/><glyph glyph-name="oslash" unicode="ø" d="M1106 1135h219l-258-259c60-78 90-170.667 90-278 0-58-7.334-113.667-22-167s-35.168-103-61.5-149-57.834-88-94.5-126-77.5-70.333-122.5-97S763.33 11.666 712-3 607.332-25 552-25c-69.333 0-127.666 9.832-175 29.5S291 45 261 67l-97-97H-55l209 209c-17.332 26-34.832 60.832-52.5 104.5S75 382.332 75 449c0 57.333 7.168 112.333 21.5 165s34.667 102 61 148 58 87.667 95 125 77.833 69.333 122.5 96 92.5 47.334 143.5 62 103.833 22 158.5 22c68.667 0 125.5-9.332 170.5-28s80.833-37.333 107.5-56zM397 204c52.666-34.667 108.667-52 168-52 48.667 0 96.167 10.667 142.5 32s87.166 51 122.5 89 63.832 83.667 85.5 137S948 522 948 586c0 46.667-9.668 94-29 142zM284 463c0-46.667 6.998-90.33 20.998-130.998l514 515c-41.333 29.333-92.666 44-154 44-49.332 0-96.832-10.5-142.5-31.5s-86.166-50.333-121.5-88-63.665-82.834-84.998-135.5S284 525.666 284 463z"/><glyph glyph-name="ugrave" unicode="ù" horiz-adv-x="1290" d="M843 1036l335.997.004-200-864h155l-39-172h-348l24 105c-21.333-22-44.333-40.833-69-56.5s-49.834-28.334-75.5-38-51-16.835-76-21.502-48.168-7-69.5-7c-45.334 0-88.167 6.5-128.5 19.5s-74.166 32.167-101.5 57.5c-16.666 16.667-32.166 36.167-46.5 58.5s-25.5 49.166-33.5 80.5-11.666 67.665-11 108.998 7.335 89.333 20.002 144l95 413H135l41 172h340L393 510c-29.334-124-30.5-215-3.5-273s84.166-87 171.5-87c38.666 0 72.833 6.5 102.5 19.5s56.667 31.167 81 54.5 44.833 48 61.5 74l132 566H802zm-211.003 142l-287 282v17h248l184-299h-145z"/><glyph glyph-name="uacute" unicode="ú" horiz-adv-x="1290" d="M843 1036l335.997.004-200-864h155l-39-172h-348l24 105c-21.333-22-44.333-40.833-69-56.5s-49.834-28.334-75.5-38-51-16.835-76-21.502-48.168-7-69.5-7c-45.334 0-88.167 6.5-128.5 19.5s-74.166 32.167-101.5 57.5c-16.666 16.667-32.166 36.167-46.5 58.5s-25.5 49.166-33.5 80.5-11.666 67.665-11 108.998 7.335 89.333 20.002 144l95 413H135l41 172h340L393 510c-29.334-124-30.5-215-3.5-273s84.166-87 171.5-87c38.666 0 72.833 6.5 102.5 19.5s56.667 31.167 81 54.5 44.833 48 61.5 74l132 566H802zm-46.003 441h240v-17l-299-282h-154z"/><glyph glyph-name="ucircumflex" unicode="û" horiz-adv-x="1290" d="M843 1036l335.997.004-200-864h155l-39-172h-348l24 105c-21.333-22-44.333-40.833-69-56.5s-49.834-28.334-75.5-38-51-16.835-76-21.502-48.168-7-69.5-7c-45.334 0-88.167 6.5-128.5 19.5s-74.166 32.167-101.5 57.5c-16.666 16.667-32.166 36.167-46.5 58.5s-25.5 49.166-33.5 80.5-11.666 67.665-11 108.998 7.335 89.333 20.002 144l95 413H135l41 172h340L393 510c-29.334-124-30.5-215-3.5-273s84.166-87 171.5-87c38.666 0 72.833 6.5 102.5 19.5s56.667 31.167 81 54.5 44.833 48 61.5 74l132 566H802zm-389.003 135l297 273h111l151-273h-170l-64 125-119-125h-206z"/><glyph glyph-name="udieresis" unicode="ü" horiz-adv-x="1290" d="M843 1036l335.997.004-200-864h155l-39-172h-348l24 105c-21.333-22-44.333-40.833-69-56.5s-49.834-28.334-75.5-38-51-16.835-76-21.502-48.168-7-69.5-7c-45.334 0-88.167 6.5-128.5 19.5s-74.166 32.167-101.5 57.5c-16.666 16.667-32.166 36.167-46.5 58.5s-25.5 49.166-33.5 80.5-11.666 67.665-11 108.998 7.335 89.333 20.002 144l95 413H135l41 172h340L393 510c-29.334-124-30.5-215-3.5-273s84.166-87 171.5-87c38.666 0 72.833 6.5 102.5 19.5s56.667 31.167 81 54.5 44.833 48 61.5 74l132 566H802zm-470.003 324c0 17.333 3.5 33.833 10.5 49.5s16.333 29.334 28 41 25.334 21 41 28 32.168 10.5 49.5 10.5c16.668 0 32.668-3.5 48-10.5s28.667-16.332 40-28 20.333-25.333 27-41 10-32.167 10-49.5c0-18-3.333-35-10-51s-15.667-30.167-27-42.5-24.666-22-40-29-31.332-10.5-48-10.5c-17.332 0-33.832 3.5-49.5 10.5s-29.333 16.667-41 29-21 26.5-28 42.5-10.5 33-10.5 51zm459 0c0 17.333 3.5 33.833 10.5 49.5s16.333 29.334 28 41 25.334 21 41 28 32.168 10.5 49.5 10.5c16.668 0 32.5-3.5 47.5-10.5s28.334-16.332 40-28 20.835-25.333 27.502-41 10-32.167 10-49.5c0-18-3.334-35-10-51s-15.835-30.167-27.502-42.5-25-22-40-29-30.833-10.5-47.5-10.5c-17.333 0-33.833 3.5-49.5 10.5s-29.334 16.667-41 29-21 26.5-28 42.5-10.5 33-10.5 51z"/><glyph glyph-name="yacute" unicode="ý" horiz-adv-x="1165" d="M148 1036h379l-41-172h-79l61-639 408 639h-85l41 172h379l-41-172h-87L342-299h101l-43-172H-10l43 172h101L319-9 205 864h-98zm550 472h240v-17l-299-282H485z"/><glyph glyph-name="thorn" unicode="þ" horiz-adv-x="1255" d="M235 1556h393L493 971c89.333 61.334 182.333 92 279 92 56.667 0 109.667-11 159-33s92.166-52 128.5-90 65-82.832 86-134.5S1177 698.335 1177 639c0-96.666-17-185.333-51-266s-80.168-150-138.5-208-126.334-103-204-135S623.33-18 536-18c-51.334 0-99.167 7.667-143.5 23S312 40 284 64l-84-363h137l-38-172h-492l39 172H0l388 1683H194zm489-665c-46.667 0-94.003-9.5-142.003-28.5s-92-45.166-132-78.5l-126-548c16.667-22 43.334-41.166 80-57.5S489.333 154 550 154c51.332 0 102 10.5 152 31.5s94.832 51.334 134.5 91S908.332 364.67 933 422s37 122.667 37 196c0 42.667-6 80.834-18 114.5s-28.833 62.168-50.5 85.5-47.5 41.334-77.5 54-63.333 19-100 19z"/><glyph glyph-name="ydieresis" unicode="ÿ" horiz-adv-x="1165" d="M148 1036h379l-41-172h-79l61-639 408 639h-85l41 172h379l-41-172h-87L342-299h101l-43-172H-10l43 172h101L319-9 205 864h-98zm194 355c0 17.333 3.5 33.833 10.5 49.5s16.333 29.334 28 41 25.334 21 41 28S453.67 1520 471 1520c16.668 0 32.668-3.5 48-10.5s28.667-16.332 40-28 20.333-25.333 27-41 10-32.167 10-49.5c0-18-3.333-35-10-51s-15.667-30.167-27-42.5-24.666-22-40-29-31.332-10.5-48-10.5c-17.332 0-33.832 3.5-49.5 10.5s-29.333 16.667-41 29-21 26.5-28 42.5-10.5 33-10.5 51zm459 0c0 17.333 3.5 33.833 10.5 49.5s16.333 29.334 28 41 25.334 21 41 28S912.67 1520 930 1520c16.668 0 32.5-3.5 47.5-10.5s28.334-16.332 40-28 20.835-25.333 27.502-41 10-32.167 10-49.5c0-18-3.333-35-10-51s-15.834-30.167-27.5-42.5-25-22-40-29-30.834-10.5-47.5-10.5c-17.334 0-33.834 3.5-49.5 10.5s-29.335 16.667-41.002 29-21 26.5-28 42.5-10.5 33-10.5 51z"/><glyph glyph-name="Amacron" unicode="Ā" horiz-adv-x="1458" d="M919 172h127l-37 342H435L244 172h136L342 0h-492l39 172H20l760 1344h323l158-1344h150L1372 0H880zM531 686h459l-75 688zm800 1022H588l26 117h744z"/><glyph glyph-name="amacron" unicode="ā" horiz-adv-x="1307" d="M771 70c-44.667-30-89.5-52.168-134.5-66.5S545-18 497-18C440.33-18 387.33-7 338 15s-92.167 52-128.5 90-65 82.832-86 134.5S92 346.665 92 406c0 96.666 17 185.333 51 266s80.167 150 138.5 208 126.333 103 204 135 160.167 48 247.5 48c50 0 97-7.5 141-22.5s80-34.5 108-58.5l13 54h201L996 172h161L1118 0H755zm-227 84c24.666 0 49.833 3.002 75.5 9.002s50.167 13.667 73.5 23 45.333 20.166 66 32.5 39 25.165 55 38.498l129 554c-17.333 22-44.333 40.833-81 56.5S777.333 891 718 891c-51.333 0-102-10.5-152-31.5s-94.667-51.333-134-91-71.333-88.334-96-146S299 499.33 299 426c0-42.668 6-80.835 18-114.502s28.667-62.167 50-85.5 47.166-41.166 77.5-53.5S508 154 544 154zm572 1075H373l26 117h744z"/><glyph glyph-name="Abreve" unicode="Ă" horiz-adv-x="1458" d="M919 172h127l-37 342H435L244 172h136L342 0h-492l39 172H20l760 1344h323l158-1344h150L1372 0H880zM531 686h459l-75 688zm447 943c-55.333 0-105.324 7.83-149.99 23.498s-82.335 38.834-113.002 69.5-52.834 65.835-66.5 105.502-19.168 83.5-16.5 131.5h141c1.332-61.333 18.165-109.833 50.498-145.5s87.166-53.5 164.5-53.5c65.332 0 119.165 18.5 161.498 55.5s71.166 84.833 86.5 143.5h145c-8.668-48-25.335-91.833-50.002-131.5s-53.834-74.5-87.5-104.5-74.335-53.167-122.002-69.5S1026 1629 978 1629z"/><glyph glyph-name="abreve" unicode="ă" horiz-adv-x="1307" d="M771 70c-44.667-30-89.5-52.168-134.5-66.5S545-18 497-18C440.33-18 387.33-7 338 15s-92.167 52-128.5 90-65 82.832-86 134.5S92 346.665 92 406c0 96.666 17 185.333 51 266s80.167 150 138.5 208 126.333 103 204 135 160.167 48 247.5 48c50 0 97-7.5 141-22.5s80-34.5 108-58.5l13 54h201L996 172h161L1118 0H755zm-227 84c24.666 0 49.833 3.002 75.5 9.002s50.167 13.667 73.5 23 45.333 20.166 66 32.5 39 25.165 55 38.498l129 554c-17.333 22-44.333 40.833-81 56.5S777.333 891 718 891c-51.333 0-102-10.5-152-31.5s-94.667-51.333-134-91-71.333-88.334-96-146S299 499.33 299 426c0-42.668 6-80.835 18-114.502s28.667-62.167 50-85.5 47.166-41.166 77.5-53.5S508 154 544 154zm219 995c-55.334 0-105.325 7.83-149.992 23.498s-82.334 38.834-113 69.5-52.835 65.835-66.502 105.502-19.167 83.5-16.5 131.5h141c1.333-61.333 18.166-109.833 50.5-145.5s87.165-53.5 164.498-53.5c65.333 0 119.166 18.5 161.5 55.5s71.165 84.833 86.498 143.5h145c-8.667-48-25.334-91.833-50-131.5s-53.835-74.5-87.502-104.5-74.334-53.167-122-69.5S811 1149 763 1149z"/><glyph glyph-name="Aogonek" unicode="Ą" horiz-adv-x="1456" d="M-111 172l131-.002 760 1344h324l158-1344h149l-39-172h-151c-53.334-2.667-100.834-11.167-142.5-25.5s-76.835-32.166-105.502-53.5-50.5-44.832-65.5-70.5-22.5-50.833-22.5-75.5c0-27.333 10.167-50.666 30.5-70s47.5-29 81.5-29c26 0 50.667 2.168 74 6.5s41.666 9.834 55 16.5l43-127c-17.334-10.666-41.667-20.5-73-29.5s-66.333-13.5-105-13.5c-40.667 0-78.167 4.834-112.5 14.5s-63.666 23.335-88 41.002S746.834-376 732.5-350 711-294 711-260c0 60 17 111.5 51 154.5S835.667-27.333 881 0l39 172h127l-37 342H434L244 172h137L342 0h-492zm641 513.998h461l-76 688z"/><glyph glyph-name="aogonek" unicode="ą" horiz-adv-x="1319" d="M1208 1036l-200-864h161L1130 0h-100c-32.668-1.334-64.335-9.167-95.002-23.5s-58.334-32.5-83-54.5-44.5-45.833-59.5-71.5-22.5-50.834-22.5-75.5c0-27.334 10.166-50.667 30.5-70s47.832-29 82.5-29c26 0 50.5 2.167 73.5 6.5s41.5 9.833 55.5 16.5l43-127c-18-10.667-42.668-20.5-74-29.5s-66-13.5-104-13.5c-41.334 0-79 4.833-113 14.5s-63.334 23.334-88 41-44.168 39.5-58.5 65.5-21.5 56-21.5 90c0 61.334 17.332 113.167 52 155.5s74.666 77.166 120 104.5l16 70c-44.668-30-89.5-52.168-134.5-66.5s-91.5-21.5-139.5-21.5c-57.334 0-110.667 10.832-160 32.5s-92 51.666-128 90-64.667 83-86 134-32 106.832-32 167.5c0 96.666 17.167 185.333 51.5 266s80.5 150 138.5 208 125.833 103 203.5 135 160.167 48 247.5 48c50.667 0 97.834-7.833 141.5-23.5S966.334 1004.333 995 981l13 55h200zM557 154c50.666 0 100.5 10.497 149.5 31.497s89.167 44.5 120.5 70.5l127 555c-17.333 22-44.166 40.833-80.5 56.5s-83.832 23.5-142.5 23.5c-52 0-102.832-10.667-152.5-32s-94.333-51.666-134-91S372.666 680.333 348 623s-37-123-37-197c0-86 22.5-152.834 67.5-200.5S483 154 557 154z"/><glyph glyph-name="Cacute" unicode="Ć" horiz-adv-x="1468" d="M1394 322c-38.667-54.667-81.664-103.498-128.997-146.498s-99.333-79.333-156-109-118-52.334-184-68-137-23.5-213-23.5c-91.333 0-175.833 17.166-253.5 51.5S313.67 108.333 257.003 169s-101.168 132.5-133.5 215.5-48.5 173.166-48.5 270.5c0 83.332 9.832 163.332 29.5 240s47.5 147.833 83.5 213.5 79.666 125.334 131 179 108.832 99.5 172.5 137.5 132.666 67.334 207 88 152.5 31 234.5 31c113.332 0 214.165-22.832 302.498-68.5s160.834-108.833 217.5-189.5h156l-41-172h-276c-14.666 34-34.166 65.333-58.5 94s-52.665 53.167-84.998 73.5-68.5 36.166-108.5 47.5-83 17-129 17c-88 0-169.333-17.834-244-53.5s-139.334-84.168-194-145.5S375.666 1014.167 345 932.5 299 764 299 672c0-76.668 12-145.835 36-207.502s56-114 96-157 86.333-76 139-99S677.667 174 735 174c100.667 0 189.167 20.833 265.5 62.5S1144 340.667 1202 424zM997.003 1874h240v-17l-299-282h-154z"/><glyph glyph-name="cacute" unicode="ć" horiz-adv-x="1135" d="M921 731c-10.667 26.667-24.83 49.998-42.497 69.998s-37.834 36.667-60.5 50-47.335 23.333-74.002 30-54.333 10-83 10c-36.667 0-75.834-9.5-117.5-28.5s-80.335-46.833-116.002-83.5-65.167-81.667-88.5-135-35-114.333-35-183c0-50 7.333-94.167 22-132.5s34.334-70.5 59-96.5 53.335-45.5 86.002-58.5 67.334-19.5 104-19.5c26.668 0 51.668 2.167 75 6.5s45.5 11.666 66.5 22 41.5 23.832 61.5 40.5 39.668 37.333 59 62l145-109c-26-36.667-55.332-67.834-88-93.5s-67-46.5-103-62.5-73.166-27.5-111.5-34.5-76.165-10.5-113.498-10.5c-68 0-130.833 12.166-188.5 36.5s-107.334 57.832-149 100.5-74.335 92.833-98.002 150.5S95 382.332 95 448.998c0 90.668 17 173.835 51 249.502S224.667 839.334 280 894s117.833 97.168 187.5 127.5S607.667 1067 679 1067c33.333 0 66.666-3.166 100-9.5s65.332-16.332 96-30 59.333-30.833 86-51.5 50.667-45 72-73h125l-28-172H921zm-103.996 777h240v-17l-299-282h-154z"/><glyph glyph-name="Ccaron" unicode="Č" horiz-adv-x="1468" d="M1394 322c-38.667-54.667-81.664-103.498-128.997-146.498s-99.333-79.333-156-109-118-52.334-184-68-137-23.5-213-23.5c-91.333 0-175.833 17.166-253.5 51.5S313.67 108.333 257.003 169s-101.168 132.5-133.5 215.5-48.5 173.166-48.5 270.5c0 83.332 9.832 163.332 29.5 240s47.5 147.833 83.5 213.5 79.666 125.334 131 179 108.832 99.5 172.5 137.5 132.666 67.334 207 88 152.5 31 234.5 31c113.332 0 214.165-22.832 302.498-68.5s160.834-108.833 217.5-189.5h156l-41-172h-276c-14.666 34-34.166 65.333-58.5 94s-52.665 53.167-84.998 73.5-68.5 36.166-108.5 47.5-83 17-129 17c-88 0-169.333-17.834-244-53.5s-139.334-84.168-194-145.5S375.666 1014.167 345 932.5 299 764 299 672c0-76.668 12-145.835 36-207.502s56-114 96-157 86.333-76 139-99S677.667 174 735 174c100.667 0 189.167 20.833 265.5 62.5S1144 340.667 1202 424zm8 1601l-297-273H992l-149 273h166l67-129 129 129h197z"/><glyph glyph-name="ccaron" unicode="č" horiz-adv-x="1135" d="M921 731c-10.667 26.667-24.83 49.998-42.497 69.998s-37.834 36.667-60.5 50-47.335 23.333-74.002 30-54.333 10-83 10c-36.667 0-75.834-9.5-117.5-28.5s-80.335-46.833-116.002-83.5-65.167-81.667-88.5-135-35-114.333-35-183c0-50 7.333-94.167 22-132.5s34.334-70.5 59-96.5 53.335-45.5 86.002-58.5 67.334-19.5 104-19.5c26.668 0 51.668 2.167 75 6.5s45.5 11.666 66.5 22 41.5 23.832 61.5 40.5 39.668 37.333 59 62l145-109c-26-36.667-55.332-67.834-88-93.5s-67-46.5-103-62.5-73.166-27.5-111.5-34.5-76.165-10.5-113.498-10.5c-68 0-130.833 12.166-188.5 36.5s-107.334 57.832-149 100.5-74.335 92.833-98.002 150.5S95 382.332 95 448.998c0 90.668 17 173.835 51 249.502S224.667 839.334 280 894s117.833 97.168 187.5 127.5S607.667 1067 679 1067c33.333 0 66.666-3.166 100-9.5s65.332-16.332 96-30 59.333-30.833 86-51.5 50.667-45 72-73h125l-28-172H921zm205 713l-297-273H716l-149 273h166l67-129 129 129h197z"/><glyph glyph-name="Dcaron" unicode="Ď" horiz-adv-x="1561" d="M425 1516h549c88.667 0 168.834-16.833 240.5-50.5s132.668-79.667 183-138 89-126.5 116-204.5 40.5-161 40.5-249c0-87.333-10.5-169.5-31.5-246.5s-50.666-148-89-213-84.832-123-139.5-174-115.333-94.333-182-130-138.667-63-216-82S737.667 0 653 0H75l39 172h132l270 1171H385zm298-173L455.003 172h220c55.333 0 110 7.333 164 22s105.5 36 154.5 64 94.333 62 136 102 77.667 85.333 108 136 54.166 106.334 71.5 167 26 125.668 26 195c0 64.668-9.168 126.168-27.5 184.5s-44.334 109.834-78 154.5-74.335 80.168-122.002 106.5S1006.668 1343 948 1343H723zm470 499l-297-273H783l-149 273h166l67-129 129 129h197z"/><glyph glyph-name="dcaron" unicode="ď" horiz-adv-x="1395" d="M923 1556l373.998.002-319-1384h172l-39-172h-373l15 67c-38-26-77.833-47-119.5-63s-86.5-24-134.5-24c-59.333 0-114.666 11.333-166 34s-96.165 54-134.498 94-68.5 87.167-90.5 141.5-33 113.166-33 176.5c0 92 16.333 177 49 255s77.167 145.666 133.5 203 122 102.165 197 134.498S609.667 1067 695 1067c53.333 0 103-7.667 149-23s86-36.333 120-63l93 403H882zM545.998 154.002c42 0 85.5 9.333 130.5 28s85.833 46 122.5 82l124 537c-24.667 28.667-56.667 50.834-96 66.5s-87.333 23.5-144 23.5c-50 0-99.167-10.5-147.5-31.5s-91.166-50.832-128.5-89.5-67.5-85.666-90.5-141-34.5-117-34.5-185c0-44.666 6.5-84.833 19.5-120.5s31.168-66 54.5-91 51.167-44.333 83.5-58 67.833-20.5 106.5-20.5zM1461 1059h-125l71 510 183 12z"/><glyph glyph-name="Dcroat" unicode="Đ" horiz-adv-x="1561" d="M184 690l39 172h182l111 481H385l40 173h549c88.667 0 168.834-16.833 240.5-50.5s132.668-79.667 183-138 89-126.5 116-204.5 40.5-161 40.5-249c0-87.333-10.5-169.5-31.5-246.5s-50.666-148-89-213-84.832-123-139.5-174-115.333-94.333-182-130-138.667-63-216-82S737.667 0 653 0H75l39 172h132l119 518H184zm539 653L613.003 862h241l-39-172h-242l-118-518h220c55.333 0 110 7.332 164 22s105.5 36 154.5 64 94.333 62 136 102 77.667 85.332 108 136 54.166 106.333 71.5 167 26 125.667 26 195c0 64.667-9.168 126.167-27.5 184.5s-44.334 109.833-78 154.5-74.335 80.167-122.002 106.5S1006.668 1343 948 1343H723z"/><glyph glyph-name="dcroat" unicode="đ" horiz-adv-x="1307" d="M1202 1139l-111.503-483.5-111.5-483.5h172l-19.5-86-19.5-86h-373c2.667 10.667 5.167 21.834 7.5 33.5s4.833 23.168 7.5 34.5C716.664 40.67 676.83 19.17 634.497 3.5S547.333-20 500-20C441.33-20 386-8.5 334 14.5s-97.168 54.334-135.5 94-68.334 86.835-90 141.502-32.5 113.334-32.5 176c0 91.334 16.332 176.334 49 255s77 146.668 133 204 121.832 102 197.5 134 155.833 48 240.5 48c26 0 51.667-2 77-6s49.333-9.832 72-17.5 44.167-16.666 64.5-27 38.833-22.165 55.5-35.498c6.667 27.333 12.667 53.666 18 79s11.333 51.665 18 78.998H815l19.5 86 19.5 86h186l8.5 36.5 8.5 36.5H883l20 86 21 86h374l-28.5-122.5-28.5-122.5h184c-6.667-28.667-13-57.334-19-86s-12.667-57.335-20-86.002h-184zM546.997 154c42 0 85.17 9.17 129.503 27.502s85.166 45.166 122.5 80.5l62 269.5L924 801c-24.668 28.666-56.5 50.833-95.5 66.5s-87.168 23.5-144.5 23.5c-50.668 0-99.835-10.667-147.502-32s-90.334-51.333-128-90-68-85.334-91-140-34.5-116.335-34.5-185.002c0-90 24.5-160.833 73.5-212.5s112.5-77.5 190.5-77.5z"/><glyph glyph-name="Emacron" unicode="Ē" horiz-adv-x="1415" d="M411 1516h1100l-100-433h-207l61 260H725L614 858h446l-43-172H575L457 172h534l61 262h209L1161 0H75l39 172h134l270 1171H370zm967 193H635l26 117h744z"/><glyph glyph-name="emacron" unicode="ē" horiz-adv-x="1171" d="M318 483c-.667-9.333-1.33-17.333-1.996-24s-1-13-1-19c0-42 6.833-81 20.5-117s32.667-67.167 57-93.5 53.333-47 87-62 70.5-22.5 110.5-22.5c53.333 0 104.166 10.833 152.5 32.5s88.832 53.167 121.5 94.5l148-108c-22.668-30-49.668-57-81-81s-66-44.5-104-61.5-78.5-30-121.5-39S618.67-31 574.003-31c-64 0-123.834 10.667-179.5 32S290.168 53.333 248.5 94s-74.334 90.5-98 149.5S115 369.333 115 444c0 86 15.166 166.833 45.5 242.5s72.332 141.667 126 198S403.667 985.333 477 1018s152.665 49 237.998 49c66 0 124.833-11.167 176.5-33.5S987 981.667 1023 945s63.333-79 82-127 28-97.333 28-148c0-34-1.833-66.833-5.5-98.5s-8.167-61.167-13.5-88.5H318zm370.005 414c-40 0-77.5-6.33-112.5-18.998s-66.834-30.334-95.5-53-54-49.335-76-80.002-40-64-54-100h590c.666 41.333-4.834 77.833-16.5 109.5s-28.668 58-51 79-49.167 36.833-80.5 47.5-66 16-104 16zM1112 1229H369l26 117h744z"/><glyph glyph-name="Edotaccent" unicode="Ė" horiz-adv-x="1415" d="M411 1516h1100l-100-433h-207l61 260H725L614 858h446l-43-172H575L457 172h534l61 262h209L1161 0H75l39 172h134l270 1171H370zm463-2636c0 17.333 3.5 33.833 10.5 49.5s16.333 29.334 28 41 25.5 21 41.5 28 33 10.5 51 10.5c17.333 0 33.833-3.5 49.5-10.5s29.334-16.332 41-28 21-25.333 28-41 10.5-32.167 10.5-49.5c0-18-3.5-35-10.5-51s-16.332-30.167-28-42.5-25.333-22-41-29-32.167-10.5-49.5-10.5c-18 0-35 3.5-51 10.5s-29.833 16.667-41.5 29-21 26.5-28 42.5-10.5 33-10.5 51z"/><glyph glyph-name="edotaccent" unicode="ė" horiz-adv-x="1171" d="M318 483c-.667-9.333-1.33-17.333-1.996-24s-1-13-1-19c0-42 6.833-81 20.5-117s32.667-67.167 57-93.5 53.333-47 87-62 70.5-22.5 110.5-22.5c53.333 0 104.166 10.833 152.5 32.5s88.832 53.167 121.5 94.5l148-108c-22.668-30-49.668-57-81-81s-66-44.5-104-61.5-78.5-30-121.5-39S618.67-31 574.003-31c-64 0-123.834 10.667-179.5 32S290.168 53.333 248.5 94s-74.334 90.5-98 149.5S115 369.333 115 444c0 86 15.166 166.833 45.5 242.5s72.332 141.667 126 198S403.667 985.333 477 1018s152.665 49 237.998 49c66 0 124.833-11.167 176.5-33.5S987 981.667 1023 945s63.333-79 82-127 28-97.333 28-148c0-34-1.833-66.833-5.5-98.5s-8.167-61.167-13.5-88.5H318zm370.005 414c-40 0-77.5-6.33-112.5-18.998s-66.834-30.334-95.5-53-54-49.335-76-80.002-40-64-54-100h590c.666 41.333-4.834 77.833-16.5 109.5s-28.668 58-51 79-49.167 36.833-80.5 47.5-66 16-104 16zm-18-2497c0 17.333 3.5 33.833 10.5 49.5s16.332 29.334 28 41 25.5 21 41.5 28 33 10.5 51 10.5c17.332 0 33.832-3.5 49.5-10.5s29.333-16.332 41-28 21-25.333 28-41 10.5-32.167 10.5-49.5c0-18-3.5-35-10.5-51s-16.333-30.167-28-42.5-25.334-22-41-29-32.168-10.5-49.5-10.5c-18 0-35 3.5-51 10.5s-29.834 16.667-41.5 29-21 26.5-28 42.5-10.5 33-10.5 51z"/><glyph glyph-name="Eogonek" unicode="Ę" horiz-adv-x="1413" d="M412 1516h1099l-100-433h-207l62 260H725L614 858h447l-43-172H575L457 172h534l62 262h209L1161 0h-18c-49.333-1.333-93.5-9.166-132.5-23.5S938.333-56 911-78s-48.5-45.832-63.5-71.5S825-200.332 825-225c0-27.333 10.333-50.666 31-70s48-29 82-29c26 0 50.667 2.168 74 6.5s41.666 9.834 55 16.5l43-127c-18-10.666-42.668-20.5-74-29.5S970-471 932-471c-41.334 0-79 4.834-113 14.5s-63.334 23.335-88 41.002-44.168 39.5-58.5 65.5-21.5 56-21.5 90c0 61.333 13.666 113.166 41 155.5S755-27.334 799 0H76l39 172h133l270 1171H371z"/><glyph glyph-name="eogonek" unicode="ę" horiz-adv-x="1169" d="M379-260c0 49.333 11.665 93.332 34.998 132s52 73 86 103c-54.667 7.332-105.667 23.165-153 47.498s-88 56.333-122 96-60.5 86.834-79.5 141.5-28.5 116-28.5 184c0 86 15.333 167 46 243s72.667 142 126 198 116.5 100.334 189.5 133 152.5 49 238.5 49c65.333 0 124-11.332 176-34s96-52.333 132-89 63.333-79 82-127 28-97 28-147c0-34.667-1.833-67.667-5.5-99s-8.167-60.666-13.5-88h-797c0-9.332-.333-17-1-23s-1-12.666-1-20c0-42 6.833-80.832 20.5-116.5s32.834-66.833 57.5-93.5 53.668-47.5 87-62.5 70-22.5 110-22.5c53.334 0 104.167 11 152.5 33s88.833 53.333 121.5 94l74-53.5c24.667-17 49.334-35.167 74-54.5-49.332-65.333-118.332-116-207-152-41.332-18.667-77.665-37-108.998-55s-57.833-36.5-79.5-55.5-38-38.667-49-59-16.5-42.833-16.5-67.5c0-27.333 10.167-50.666 30.5-70s47.833-29 82.5-29c26 0 50.5 2.168 73.5 6.5S781-307.667 795-301c6.667-22 13.667-43.166 21-63.5l22-63.5c-18-10.666-42.667-20.5-74-29.5S697.667-471 659-471c-40.667 0-78 4.834-112 14.5s-63.333 23.335-88 41.002-44.167 39.5-58.5 65.5-21.5 56-21.5 90zM689.998 897c-79.333 0-148.668-23.832-208-71.5s-102.667-107.833-130-180.5h590c1.333 41.333-4.167 77.666-16.5 109s-29.333 57.5-51 78.5-48.167 37-79.5 48-66.333 16.5-105 16.5z"/><glyph glyph-name="Ecaron" unicode="Ě" horiz-adv-x="1415" d="M411 1516h1100l-100-433h-207l61 260H725L614 858h446l-43-172H575L457 172h534l61 262h209L1161 0H75l39 172h134l270 1171H370zm1003 408l-297-273h-113l-149 273h166l67-129 129 129h197z"/><glyph glyph-name="ecaron" unicode="ě" horiz-adv-x="1171" d="M318 483c-.667-9.333-1.33-17.333-1.996-24s-1-13-1-19c0-42 6.833-81 20.5-117s32.667-67.167 57-93.5 53.333-47 87-62 70.5-22.5 110.5-22.5c53.333 0 104.166 10.833 152.5 32.5s88.832 53.167 121.5 94.5l148-108c-22.668-30-49.668-57-81-81s-66-44.5-104-61.5-78.5-30-121.5-39S618.67-31 574.003-31c-64 0-123.834 10.667-179.5 32S290.168 53.333 248.5 94s-74.334 90.5-98 149.5S115 369.333 115 444c0 86 15.166 166.833 45.5 242.5s72.332 141.667 126 198S403.667 985.333 477 1018s152.665 49 237.998 49c66 0 124.833-11.167 176.5-33.5S987 981.667 1023 945s63.333-79 82-127 28-97.333 28-148c0-34-1.833-66.833-5.5-98.5s-8.167-61.167-13.5-88.5H318zm370.005 414c-40 0-77.5-6.33-112.5-18.998s-66.834-30.334-95.5-53-54-49.335-76-80.002-40-64-54-100h590c.666 41.333-4.834 77.833-16.5 109.5s-28.668 58-51 79-49.167 36.833-80.5 47.5-66 16-104 16zM1148 1444l-297-273H738l-149 273h166l67-129 129 129h197z"/><glyph glyph-name="Gbreve" unicode="Ğ" horiz-adv-x="1616" d="M1155 0l49.99 222c-61.332-84-134.165-146.166-218.498-186.5S810.66-25 711.992-25c-91.333 0-176 17.5-254 52.5s-145.333 83.168-202 144.5-101 133.334-133 216-48 171.668-48 267c0 82.668 9.667 162 29 238s47 147 83 213 79.5 125.834 130.5 179.5 108.333 99.668 172 138 132.834 68 207.5 89 153.335 31.5 236.002 31.5c63.333 0 122-7.332 176-22s103-34 147-58 82.5-51.5 115.5-82.5 60.167-62.832 81.5-95.5h156l-41-172h-276c-14.667 34-34.167 65.334-58.5 94s-52.666 53.168-85 73.5-68.5 36.167-108.5 47.5-83 17-129 17c-60 0-116.666-8-170-24s-102.665-38.833-147.998-68.5-86.166-65-122.5-106S403.332 1061 378 1011s-44.833-103.667-58.5-161-20.5-116.666-20.5-178c0-72.666 11.5-139.5 34.5-200.5s54.167-113.5 93.5-157.5 85.5-78.332 138.5-103 109.5-37 169.5-37c60.667 0 117.834 8.5 171.5 25.5s102.668 41.668 147 74 83.834 71.667 118.5 118S1235.334 490.333 1258 549H835l41 176h643L1355 0h-200zM971.99 1628c-55.332 0-105.323 7.83-149.99 23.498s-82.334 38.834-113 69.5-52.835 65.835-66.502 105.502-19.167 83.5-16.5 131.5h141c1.333-61.333 18.166-109.833 50.5-145.5s87.165-53.5 164.498-53.5c65.333 0 119.166 18.5 161.5 55.5s71.165 84.833 86.498 143.5h145c-8.667-48-25.334-91.833-50-131.5s-53.835-74.5-87.502-104.5-74.334-53.167-122-69.5-95.5-24.5-143.5-24.5z"/><glyph glyph-name="gbreve" unicode="ğ" horiz-adv-x="1249" d="M783 64C741 34.667 697.833 13.664 653.5.997s-92.166-19-143.5-19c-56.666 0-109.666 11-159 33s-92.165 52-128.498 90-65 82.833-86 134.5-31.5 107.167-31.5 166.5c0 96.667 17 185.334 51 266s80.167 150 138.5 208 126.333 103 204 135 160.167 48 247.5 48c50 0 97-7.5 141-22.5s80-34.5 108-58.5l13 54h203l-238-1024c-20-86.666-46.667-160.5-80-221.5s-74-110.832-122-149.5-103.833-67-167.5-85-135.834-27-216.5-27c-36.668 0-74.668 3-114 9s-77.834 15.168-115.5 27.5-73.168 27.834-106.5 46.5-62.667 40.668-88 66l129 146c16-17.332 35.333-33.165 58-47.498s47.667-26.834 75-37.5 56.166-19 86.5-25 61.165-9 92.498-9c48 0 91.667 5.166 131 15.5s74.5 28.332 105.5 54 58 60.333 81 104S765-16 783 64zm-226 89.997c52 0 100.668 9.334 146 28s87 44 125 76l128 552c-17.332 22-44.332 41-81 57s-84.666 24-144 24c-51.332 0-102-10.5-152-31.5s-94.666-51.332-134-91-71.332-88.333-96-146-37-123.167-37-196.5c0-42.667 6-80.834 18-114.5s28.668-62.168 50-85.5 47.167-41.167 77.5-53.5 63.5-18.5 99.5-18.5zM790 1149c-55.332 0-105.323 7.83-149.99 23.498s-82.334 38.834-113 69.5-52.835 65.835-66.502 105.502-19.167 83.5-16.5 131.5h141c1.333-61.333 18.166-109.833 50.5-145.5s87.165-53.5 164.498-53.5c65.333 0 119.166 18.5 161.5 55.5s71.165 84.833 86.498 143.5h145c-8.667-48-25.334-91.833-50-131.5s-53.835-74.5-87.502-104.5-74.334-53.167-122-69.5S838 1149 790 1149z"/><glyph glyph-name="Gcommaaccent" unicode="Ģ" horiz-adv-x="1616" d="M1155 0l49.99 222c-61.332-84-134.165-146.166-218.498-186.5S810.66-25 711.992-25c-91.333 0-176 17.5-254 52.5s-145.333 83.168-202 144.5-101 133.334-133 216-48 171.668-48 267c0 82.668 9.667 162 29 238s47 147 83 213 79.5 125.834 130.5 179.5 108.333 99.668 172 138 132.834 68 207.5 89 153.335 31.5 236.002 31.5c63.333 0 122-7.332 176-22s103-34 147-58 82.5-51.5 115.5-82.5 60.167-62.832 81.5-95.5h156l-41-172h-276c-14.667 34-34.167 65.334-58.5 94s-52.666 53.168-85 73.5-68.5 36.167-108.5 47.5-83 17-129 17c-60 0-116.666-8-170-24s-102.665-38.833-147.998-68.5-86.166-65-122.5-106S403.332 1061 378 1011s-44.833-103.667-58.5-161-20.5-116.666-20.5-178c0-72.666 11.5-139.5 34.5-200.5s54.167-113.5 93.5-157.5 85.5-78.332 138.5-103 109.5-37 169.5-37c60.667 0 117.834 8.5 171.5 25.5s102.668 41.668 147 74 83.834 71.667 118.5 118S1235.334 490.333 1258 549H835l41 176h643L1355 0h-200zM642.99-41l211-84-180-348-144 53z"/><glyph glyph-name="gcommaaccent" unicode="ģ" horiz-adv-x="1249" d="M783 64C741 34.667 697.833 13.664 653.5.997s-92.166-19-143.5-19c-56.666 0-109.666 11-159 33s-92.165 52-128.498 90-65 82.833-86 134.5-31.5 107.167-31.5 166.5c0 96.667 17 185.334 51 266s80.167 150 138.5 208 126.333 103 204 135 160.167 48 247.5 48c50 0 97-7.5 141-22.5s80-34.5 108-58.5l13 54h203l-238-1024c-20-86.666-46.667-160.5-80-221.5s-74-110.832-122-149.5-103.833-67-167.5-85-135.834-27-216.5-27c-36.668 0-74.668 3-114 9s-77.834 15.168-115.5 27.5-73.168 27.834-106.5 46.5-62.667 40.668-88 66l129 146c16-17.332 35.333-33.165 58-47.498s47.667-26.834 75-37.5 56.166-19 86.5-25 61.165-9 92.498-9c48 0 91.667 5.166 131 15.5s74.5 28.332 105.5 54 58 60.333 81 104S765-16 783 64zm-226 89.997c52 0 100.668 9.334 146 28s87 44 125 76l128 552c-17.332 22-44.332 41-81 57s-84.666 24-144 24c-51.332 0-102-10.5-152-31.5s-94.666-51.332-134-91-71.332-88.333-96-146-37-123.167-37-196.5c0-42.667 6-80.834 18-114.5s28.668-62.168 50-85.5 47.167-41.167 77.5-53.5 63.5-18.5 99.5-18.5zM899 1138l-189 74 181 349 121-44z"/><glyph glyph-name="Imacron" unicode="Ī" horiz-adv-x="883" d="M425 1516h492l-41-173H735L467 172h139L567 0H75l39 172h144l270 1171H385zm639 193H321l26 117h744z"/><glyph glyph-name="imacron" unicode="ī" horiz-adv-x="725" d="M198 1036h387L385 172h166L512 0H143l200 864H157zm616 193H71l26 117h744z"/><glyph glyph-name="Iogonek" unicode="Į" horiz-adv-x="883" d="M426 1516l492.002-.002-41-173h-142l-268-1171h139l-39-172h-139c-40.667 0-80.834-6.167-120.5-18.5s-74.835-29-105.502-50-55.667-45.167-75-72.5-29-55.333-29-84c0-27.333 10.333-50.666 31-70s48-29 82-29c26 0 50.5 2.168 73.5 6.5S326-307.667 340-301l43-127c-18-10.666-42.667-20.5-74-29.5S243-471 205-471c-41.333 0-79 4.834-113 14.5S28.667-433.166 4-415.5-40.167-376-54.5-350-76-294-76-260c0 57.333 15 107.5 45 150.5S34.667-30 76 0l39 172h143l270 1171H385z"/><glyph glyph-name="iogonek" unicode="į" horiz-adv-x="725" d="M201 1036l387-.002-201-864h166l-39-172h-70c-40.668-1.333-78.335-8.833-113.002-22.5s-64.667-31.5-90-53.5-44.833-45.833-58.5-71.5-20.5-51.5-20.5-77.5c0-27.333 10.167-50.666 30.5-70s47.5-29 81.5-29c26 0 50.667 2.168 74 6.5s41.666 9.834 55 16.5l43-127c-17.334-10.666-41.667-20.5-73-29.5s-66.333-13.5-105-13.5c-40.667 0-78.167 4.834-112.5 14.5s-63.666 23.335-88 41.002S23.834-376 9.5-350-12-294-12-260c0 58.667 15.333 109.5 46 152.5S101.667-28.667 145 0l199 864H160zm190 365c0 35.333 13 66 39 92s57.332 39 94 39c18 0 34.832-3.5 50.5-10.5s29.666-16.5 42-28.5 21.832-26 28.5-42 10-32.668 10-50c0-18-3.334-35.168-10-51.5s-16.168-30.667-28.5-43-26.334-22.166-42-29.5-32.5-11-50.5-11c-36.668 0-68 13.668-94 41s-39 58.667-39 94z"/><glyph glyph-name="Idotaccent" unicode="İ" horiz-adv-x="883" d="M425 1516h492l-41-173H735L467 172h139L567 0H75l39 172h144l270 1171H385zm175-2636c0 17.333 3.5 33.833 10.5 49.5s16.333 29.334 28 41 25.5 21 41.5 28 33 10.5 51 10.5c17.333 0 33.833-3.5 49.5-10.5s29.334-16.332 41-28 21-25.333 28-41 10.5-32.167 10.5-49.5c0-18-3.5-35-10.5-51s-16.332-30.167-28-42.5-25.333-22-41-29-32.167-10.5-49.5-10.5c-18 0-35 3.5-51 10.5s-29.833 16.667-41.5 29-21 26.5-28 42.5-10.5 33-10.5 51z"/><glyph glyph-name="dotlessi" unicode="ı" horiz-adv-x="725" d="M198 1036h387L385 172h166L512 0H143l200 864H157z"/><glyph glyph-name="Kcommaaccent" unicode="Ķ" horiz-adv-x="1642" d="M1390 1343l41 173h389l-41-173h-94L848 754l468-582h158L1435 0h-407l39 172-469 602zm-979 173h492l-41-173H725L457 172h149L567 0H75l39 172h134l270 1171H370zM683-41l211-84-180-348-144 53z"/><glyph glyph-name="kcommaaccent" unicode="ķ" d="M279 1556h387L443 592h112l340 288 37 156h336l-41-172h-107L731 535l250-365h125L1067 0H848L537 469H415L307 0H105l318 1384H238zM453-41l211-84-180-348-144 53z"/><glyph glyph-name="Lacute" unicode="Ĺ" horiz-adv-x="1376" d="M411 1516h492l-41-173H725L457 172h505c28.666 0 50.833 7.667 66.5 23s26.167 34.333 31.5 57l47 197h201L1204 0H75l39 172h134l270 1171H370zm366 358h240v-17l-299-282H564z"/><glyph glyph-name="lacute" unicode="ĺ" horiz-adv-x="653" d="M264 1556h402L346 172h172L479 0H105l318 1384H223zm373 362h240v-17l-299-282H424z"/><glyph glyph-name="Lcommaaccent" unicode="Ļ" horiz-adv-x="1376" d="M411 1516h492l-41-173H725L457 172h505c28.666 0 50.833 7.667 66.5 23s26.167 34.333 31.5 57l47 197h201L1204 0H75l39 172h134l270 1171H370zM558-41l211-84-180-348-144 53z"/><glyph glyph-name="lcommaaccent" unicode="ļ" horiz-adv-x="653" d="M264 1556h402L346 172h172L479 0H105l318 1384H223zM208-41l211-84-180-348-144 53z"/><glyph glyph-name="Lcaron" unicode="Ľ" horiz-adv-x="1376" d="M411 1516h492l-41-173H725L457 172h505c28.666 0 50.833 7.667 66.5 23s26.167 34.333 31.5 57l47 197h201L1204 0H75l39 172h134l270 1171H370zm720-507h-125l71 510 183 12z"/><glyph glyph-name="lcaron" unicode="ľ" horiz-adv-x="780" d="M264 1556h402L346 172h172L479 0H105l318 1384H223zm560-497H699l71 510 183 12z"/><glyph glyph-name="Lslash" unicode="Ł" horiz-adv-x="1374" d="M412 1516h491l-41-173H725l-88-387 467 252-55-235-465-250-127-551h506c28.666 0 50.833 7.5 66.5 22.5s26.167 34.167 31.5 57.5l47 197h201L1204 0H76l39 172h133l98 424L84 455l55 235 262 139 117 514H371z"/><glyph glyph-name="lslash" unicode="ł" horiz-adv-x="651" d="M264 1556h402L528 963l299 161-55-235-297-160-129-557h172L479 0H104l140 604-281-149 55 235 279 150 125 544H223z"/><glyph glyph-name="Nacute" unicode="Ń" horiz-adv-x="1786" d="M1370 1516h491l-39-173h-136L1378 0h-262L703 1255 454 172h152L567 0H75l39 172h133l271 1171H368l41 173h416l408-1246 246 1073h-148zm-131 441h240v-17l-299-282h-154z"/><glyph glyph-name="nacute" unicode="ń" horiz-adv-x="1368" d="M188 1036l391 .002-25-106c47.334 39.333 99.167 70 155.5 92s115.833 33 178.5 33c53.333 0 101.5-8 144.5-24s78.167-40.333 105.5-73 45.333-73.334 54-122 5.667-105.335-9-170.002l-114-494h147L1177 0H827l149 641c18.667 78.667 12.667 138-18 178s-82.667 60-156 60c-52 0-101.333-11.167-148-33.5S563 792 521 752L348 0H145l200 864H147zm758 441h240v-17l-299-282H733z"/><glyph glyph-name="Ncommaaccent" unicode="Ņ" horiz-adv-x="1786" d="M1370 1516h491l-39-173h-136L1378 0h-262L703 1255 454 172h152L567 0H75l39 172h133l271 1171H368l41 173h416l408-1246 246 1073h-148zM733-41l211-84-180-348-144 53z"/><glyph glyph-name="ncommaaccent" unicode="ņ" horiz-adv-x="1368" d="M188 1036l391 .002-25-106c47.334 39.333 99.167 70 155.5 92s115.833 33 178.5 33c53.333 0 101.5-8 144.5-24s78.167-40.333 105.5-73 45.333-73.334 54-122 5.667-105.335-9-170.002l-114-494h147L1177 0H827l149 641c18.667 78.667 12.667 138-18 178s-82.667 60-156 60c-52 0-101.333-11.167-148-33.5S563 792 521 752L348 0H145l200 864H147zM473-40.998l211-84-180-348-144 53z"/><glyph glyph-name="Ncaron" unicode="Ň" horiz-adv-x="1786" d="M1370 1516h491l-39-173h-136L1378 0h-262L703 1255 454 172h152L567 0H75l39 172h133l271 1171H368l41 173h416l408-1246 246 1073h-148zm138 407l-297-273h-113l-149 273h166l67-129 129 129h197z"/><glyph glyph-name="ncaron" unicode="ň" horiz-adv-x="1368" d="M188 1036l391 .002-25-106c47.334 39.333 99.167 70 155.5 92s115.833 33 178.5 33c53.333 0 101.5-8 144.5-24s78.167-40.333 105.5-73 45.333-73.334 54-122 5.667-105.335-9-170.002l-114-494h147L1177 0H827l149 641c18.667 78.667 12.667 138-18 178s-82.667 60-156 60c-52 0-101.333-11.167-148-33.5S563 792 521 752L348 0H145l200 864H147zm1030 408l-297-273H808l-149 273h166l67-129 129 129h197z"/><glyph glyph-name="napostrophe" unicode="ŉ" horiz-adv-x="1368" d="M188 1036l391 .002-25-106c47.334 39.333 99.167 70 155.5 92s115.833 33 178.5 33c53.333 0 101.5-8 144.5-24s78.167-40.333 105.5-73 45.333-73.334 54-122 5.667-105.335-9-170.002l-114-494h147L1177 0H827l149 641c18.667 78.667 12.667 138-18 178s-82.667 60-156 60c-52 0-101.333-11.167-148-33.5S563 792 521 752L348 0H145l200 864H147zm315 484l211-84-180-349-144 54z"/><glyph glyph-name="Omacron" unicode="Ō" horiz-adv-x="1577" d="M712-31c-85.333 0-166.5 16.33-243.5 48.998s-144.667 78.834-203 138.5-104.666 131.668-139 216S75 551 75 655c0 87.334 10.334 169.834 31 247.5S155.67 1052 193 1118s82.167 125.334 134.5 178 110.333 97.335 174 134.002 131.834 64.834 204.5 84.5 148.335 29.5 227.002 29.5c85.333 0 166.5-14.832 243.5-44.5s144.667-72.833 203-129.5 104.666-126.167 139-208.5S1570 985.667 1570 881c0-89.333-10-174-30-254s-48.168-153.667-84.5-221-80.334-128-132-182-109.335-99.833-173.002-137.5S1018 19.833 944-.5 792.667-31 712-31zm23 202.998c57.333 0 112.333 8 165 24s101.667 38.834 147 68.5 86.5 65.335 123.5 107.002S1239 459.667 1265 511s46.167 106.666 60.5 166 21.5 121.665 21.5 186.998c0 72.667-10.833 138.334-32.5 197s-51.834 108.835-90.5 150.502-84.668 73.667-138 96-111.667 33.5-175 33.5c-82.667 0-161-16.667-235-50s-139-79.833-195-139.5-100.333-130.334-133-212-49-170.835-49-267.502c0-71.333 10.833-137.5 32.5-198.5s51.834-113.833 90.5-158.5 84.668-79.667 138-105 111.667-38 175-38zM1358 1749H615l26 117h744z"/><glyph glyph-name="omacron" unicode="ō" d="M75 449c0 57.333 7.166 112.33 21.5 164.997s34.665 102 60.998 148 58 87.667 95 125 77.833 69.333 122.5 96 92.5 47.334 143.5 62 103.833 22 158.5 22c68.667 0 132.334-12.166 191-36.5S977.334 972.833 1020 930.5s76.167-92 100.5-149S1157 663.33 1157 598c0-58-7.333-113.668-22-167s-35.167-103-61.5-149-57.833-88-94.5-126-77.5-70.334-122.5-97S763.333 11.664 712-3.003s-104.666-22-160-22c-69.332 0-133 12.167-191 36.5S252.67 69.33 210 111.998s-75.833 92.834-99.5 150.5S75 382.334 75 449zm209 13.997c0-46.667 6.828-89.165 20.495-127.498s32.834-71 57.5-98 54.335-48 89.002-63 72.667-22.5 114-22.5c48.667 0 96.167 10.666 142.5 32s87.166 51 122.5 89 63.832 83.666 85.5 137 32.5 112 32.5 176c0 46.666-7.168 88.666-21.5 126s-34.167 69.332-59.5 96-55.166 47.166-89.5 61.5-71.832 21.5-112.5 21.5c-49.332 0-96.832-10.5-142.5-31.5s-86.166-50.334-121.5-88S337.333 688.664 316 635.997s-32-110.334-32-173zM1106 1260H363l26 117h744z"/><glyph glyph-name="Ohungarumlaut" unicode="Ő" horiz-adv-x="1577" d="M712-31c-85.333 0-166.5 16.33-243.5 48.998s-144.667 78.834-203 138.5-104.666 131.668-139 216S75 551 75 655c0 87.334 10.334 169.834 31 247.5S155.67 1052 193 1118s82.167 125.334 134.5 178 110.333 97.335 174 134.002 131.834 64.834 204.5 84.5 148.335 29.5 227.002 29.5c85.333 0 166.5-14.832 243.5-44.5s144.667-72.833 203-129.5 104.666-126.167 139-208.5S1570 985.667 1570 881c0-89.333-10-174-30-254s-48.168-153.667-84.5-221-80.334-128-132-182-109.335-99.833-173.002-137.5S1018 19.833 944-.5 792.667-31 712-31zm23 202.998c57.333 0 112.333 8 165 24s101.667 38.834 147 68.5 86.5 65.335 123.5 107.002S1239 459.667 1265 511s46.167 106.666 60.5 166 21.5 121.665 21.5 186.998c0 72.667-10.833 138.334-32.5 197s-51.834 108.835-90.5 150.502-84.668 73.667-138 96-111.667 33.5-175 33.5c-82.667 0-161-16.667-235-50s-139-79.833-195-139.5-100.333-130.334-133-212-49-170.835-49-267.502c0-71.333 10.833-137.5 32.5-198.5s51.834-113.833 90.5-158.5 84.668-79.667 138-105 111.667-38 175-38zM1431 2034l-243-321h-140l201 321h182zm-285 0l-243-321H765l198 321h183z"/><glyph glyph-name="ohungarumlaut" unicode="ő" d="M75 449c0 57.333 7.166 112.33 21.5 164.997s34.665 102 60.998 148 58 87.667 95 125 77.833 69.333 122.5 96 92.5 47.334 143.5 62 103.833 22 158.5 22c68.667 0 132.334-12.166 191-36.5S977.334 972.833 1020 930.5s76.167-92 100.5-149S1157 663.33 1157 598c0-58-7.333-113.668-22-167s-35.167-103-61.5-149-57.833-88-94.5-126-77.5-70.334-122.5-97S763.333 11.664 712-3.003s-104.666-22-160-22c-69.332 0-133 12.167-191 36.5S252.67 69.33 210 111.998s-75.833 92.834-99.5 150.5S75 382.334 75 449zm209 13.997c0-46.667 6.828-89.165 20.495-127.498s32.834-71 57.5-98 54.335-48 89.002-63 72.667-22.5 114-22.5c48.667 0 96.167 10.666 142.5 32s87.166 51 122.5 89 63.832 83.666 85.5 137 32.5 112 32.5 176c0 46.666-7.168 88.666-21.5 126s-34.167 69.332-59.5 96-55.166 47.166-89.5 61.5-71.832 21.5-112.5 21.5c-49.332 0-96.832-10.5-142.5-31.5s-86.166-50.334-121.5-88S337.333 688.664 316 635.997s-32-110.334-32-173zM1179 1545l-243-321H796l201 321h182zm-285.005 0l-243-321h-138l198 321h183z"/><glyph glyph-name="OE" unicode="Œ" horiz-adv-x="2066" d="M688 0c-95.333 0-181 17.333-257 52s-140.166 81.167-192.5 139.5-92.5 126-120.5 203S76 553 76 639c0 121.333 24.5 235.333 73.5 342S264.67 1180.5 348 1259.5 527.668 1401 637 1447s224 69 344 69h1184l-99-433h-204l57 260h-535l-110-485h455l-41-172h-455l-119-514h535l61 260h209L1819 0H688zM289 655c0-66.667 9.165-129.332 27.498-188s45.333-109.833 81-153.5 79.334-78.167 131-103.5 111.168-38 178.5-38h211l270 1171H956c-81.332 0-161.665-17.667-240.998-53s-150.666-84-214-146-114.5-135-153.5-219S289 751 289 655z"/><glyph glyph-name="oe" unicode="œ" horiz-adv-x="1995" d="M76 449c0 86 16 166.503 48 241.503s75.333 140.5 130 196.5 118.5 100 191.5 132 150.5 48 232.5 48c88.667 0 168.167-19.833 238.5-59.5s125.833-92.167 166.5-157.5c54.667 66.667 121.334 119.5 200 158.5s165 58.5 259 58.5c65.334 0 124-11.333 176-34s96.168-52.334 132.5-89 63.667-79 82-127 27.5-97 27.5-147c0-34.668-1.667-67.668-5-99s-7.666-60.667-13-88h-795c-1.332-2.667-2-5.667-2-9s-.666-6.333-2-9v-25c0-42 6.834-80.833 20.5-116.5s32.668-66.834 57-93.5 53.334-47.5 87-62.5 70.168-22.5 109.5-22.5c53.334 0 104.167 11 152.5 33s89.166 53.332 122.5 94l73.5-53.5c24.332-17 48.832-35.168 73.5-54.5-44.668-60-106.335-107.5-185.002-142.5s-163-52.5-253-52.5c-86 0-163.5 18.832-232.5 56.5s-123.167 91.166-162.5 160.5c-56-65.334-123-116.834-201-154.5s-162-56.5-252-56.5c-69.333 0-133.166 12.332-191.5 37S252.834 70.168 210.5 112.502s-75.333 92.165-99 149.498S76 381.668 76 449zm209 14.003c0-94 25.833-169.334 77.5-226s119.167-85 202.5-85c49.333 0 96.833 10.5 142.5 31.5s86.667 50.666 123 89 65 84 86 137 31.5 111.832 31.5 176.5c0 46-7.167 87.832-21.5 125.5s-34.166 69.833-59.5 96.5-55 47.167-89 61.5-71.332 21.5-112 21.5c-49.332 0-96.832-10.667-142.5-32s-86.333-50.666-122-88-64-82.332-85-135-31.5-110.333-31.5-173zm1231 434c-79.333 0-148.668-23.832-208-71.5s-102.667-107.833-130-180.5h589c1.333 41.333-4 77.666-16 109s-29 57.5-51 78.5-48.667 37-80 48-66 16.5-104 16.5z"/><glyph glyph-name="Racute" unicode="Ŕ" horiz-adv-x="1438" d="M409 1516h617c58 0 110.667-8.666 158-26s87.833-41.665 121.5-72.998 59.667-68.833 78-112.5 27.5-91.5 27.5-143.5c0-54-9.167-103.833-27.5-149.5s-43-86.334-74-122-67-66.335-108-92.002-84.167-45.834-129.5-60.5c26-18.668 48-46.668 66-84s27.667-81.667 29-133l6-348h129L1263 0H970l-6 461c-1.333 83.333-20.333 144.333-57 183s-92 58-166 58H578L457 172h149L567 0H75l39 172h134l270 1171H368zm316-173L617 870.003h237c50 0 96.166 5.667 138.5 17s78.832 28.666 109.5 52 54.666 52.665 72 87.998 26 76.667 26 124c0 28-4.668 53.833-14 77.5s-23.834 44-43.5 61-44.668 30.167-75 39.5-66.167 14-107.5 14H725zm270 613h240v-17l-299-282H782z"/><glyph glyph-name="racute" unicode="ŕ" horiz-adv-x="1053" d="M958 750l-203.003.004 29 122c-64.667 0-119.667-16.5-165-49.5s-82.666-76.5-112-130.5l-120-520h172l-39-172h-375l200 864h-198l41 172h391l-33-142c18.668 21.333 38.668 41.166 60 59.5s43.834 34.165 67.5 47.498 48.335 23.833 74.002 31.5 51.5 11.5 77.5 11.5c24 0 44.666-.333 62-1s35.832-1.834 55.5-3.5 46.833-4.835 81.5-9.502zm-208.003 727h240v-17l-299-282h-154z"/><glyph glyph-name="Rcommaaccent" unicode="Ŗ" horiz-adv-x="1438" d="M409 1516h617c58 0 110.667-8.666 158-26s87.833-41.665 121.5-72.998 59.667-68.833 78-112.5 27.5-91.5 27.5-143.5c0-54-9.167-103.833-27.5-149.5s-43-86.334-74-122-67-66.335-108-92.002-84.167-45.834-129.5-60.5c26-18.668 48-46.668 66-84s27.667-81.667 29-133l6-348h129L1263 0H970l-6 461c-1.333 83.333-20.333 144.333-57 183s-92 58-166 58H578L457 172h149L567 0H75l39 172h134l270 1171H368zm316-173L617 870.003h237c50 0 96.166 5.667 138.5 17s78.832 28.666 109.5 52 54.666 52.665 72 87.998 26 76.667 26 124c0 28-4.668 53.833-14 77.5s-23.834 44-43.5 61-44.668 30.167-75 39.5-66.167 14-107.5 14H725zM670-40.996l211-84-180-348-144 53z"/><glyph glyph-name="rcommaaccent" unicode="ŗ" horiz-adv-x="1053" d="M958 750l-203.003.004 29 122c-64.667 0-119.667-16.5-165-49.5s-82.666-76.5-112-130.5l-120-520h172l-39-172h-375l200 864h-198l41 172h391l-33-142c18.668 21.333 38.668 41.166 60 59.5s43.834 34.165 67.5 47.498 48.335 23.833 74.002 31.5 51.5 11.5 77.5 11.5c24 0 44.666-.333 62-1s35.832-1.834 55.5-3.5 46.833-4.835 81.5-9.502zM232.997-40.996l211-84-180-348-144 53z"/><glyph glyph-name="Rcaron" unicode="Ř" horiz-adv-x="1438" d="M409 1516h617c58 0 110.667-8.666 158-26s87.833-41.665 121.5-72.998 59.667-68.833 78-112.5 27.5-91.5 27.5-143.5c0-54-9.167-103.833-27.5-149.5s-43-86.334-74-122-67-66.335-108-92.002-84.167-45.834-129.5-60.5c26-18.668 48-46.668 66-84s27.667-81.667 29-133l6-348h129L1263 0H970l-6 461c-1.333 83.333-20.333 144.333-57 183s-92 58-166 58H578L457 172h149L567 0H75l39 172h134l270 1171H368zm316-173L617 870.003h237c50 0 96.166 5.667 138.5 17s78.832 28.666 109.5 52 54.666 52.665 72 87.998 26 76.667 26 124c0 28-4.668 53.833-14 77.5s-23.834 44-43.5 61-44.668 30.167-75 39.5-66.167 14-107.5 14H725zm609 580l-297-273H924l-149 273h166l67-129 129 129h197z"/><glyph glyph-name="rcaron" unicode="ř" horiz-adv-x="1053" d="M958 750l-203.003.004 29 122c-64.667 0-119.667-16.5-165-49.5s-82.666-76.5-112-130.5l-120-520h172l-39-172h-375l200 864h-198l41 172h391l-33-142c18.668 21.333 38.668 41.166 60 59.5s43.834 34.165 67.5 47.498 48.335 23.833 74.002 31.5 51.5 11.5 77.5 11.5c24 0 44.666-.333 62-1s35.832-1.834 55.5-3.5 46.833-4.835 81.5-9.502zm80 694l-297-273H628l-149 273h166l67-129 129 129h197z"/><glyph glyph-name="Sacute" unicode="Ś" horiz-adv-x="1278" d="M1080 1137c8 35.333 6.507 66.667-4.493 94s-28.5 50.5-52.5 69.5-53 33.333-87 43-70 14.5-108 14.5c-55.333 0-104.833-7.333-148.5-22s-80.5-34.667-110.5-60-53-54.833-69-88.5-24-69.167-24-106.5c0-33.333 6.333-60.333 19-81s28.667-37.667 48-51 40.833-24 64.5-32l68.5-24 187-68c48-16 90-35 126-57s66-47.5 90-76.5 42-62 54-99 18-78.833 18-125.5c0-74-14.333-141.667-43-203s-68.834-113.833-120.5-157.5S873.67 29 801.004 5s-153-36-241-36c-79.333 0-146.5 8.5-201.5 25.5s-100.167 40-135.5 69-61.833 62.167-79.5 99.5-28.834 76.666-33.5 118h-95l39 159h272l-18-74c-9.334-72 11.666-125.668 63-161s125.665-53 222.998-53c50 0 96 7 138 21s78.167 33.5 108.5 58.5 54.166 55 71.5 90 26 73.166 26 114.5c0 32-5.668 59.666-17 83s-26.834 43.5-46.5 60.5-42.668 31.666-69 44-54.5 23.5-84.5 33.5l-174 56C456.334 741.665 387.667 784.332 341 841s-70 129.334-70 218c0 68 13 131.168 39 189.5s63.834 109 113.5 152 110 76.668 181 101S756 1538 846 1538c56.668 0 108.668-6.332 156-19s89.167-30.333 125.5-53 67-50 92-82 43.167-67.333 54.5-106h101l-39-160h-260zm-132.993 819h240v-17l-299-282h-154z"/><glyph glyph-name="sacute" unicode="ś" horiz-adv-x="1012" d="M749 748c-.667 26-5.835 49.002-15.502 69.002s-23 36.833-40 50.5-37 24-60 31-47.833 10.5-74.5 10.5-52-3.167-76-9.5-45-15.833-63-28.5-32.167-28-42.5-46-15.5-38.333-15.5-61c0-26.667 8.5-48.834 25.5-66.5s43.833-33.835 80.5-48.502l193-69c58.667-21.333 103.334-54.5 134-99.5S841 381 841 317c0-57.333-10.5-107.666-31.5-151S759.333 86.336 722 57.003s-81.832-51.333-133.5-66-108.166-22-169.5-22c-37.332 0-73 3-107 9s-65.5 15.167-94.5 27.5-54.332 27.666-76 46S103 91 91 115H-15l41 172h211c-3.332-26 0-49 10-69s24.334-36.834 43-50.5S330.834 143.666 356.5 137s52.834-10 81.5-10 55.5 3.667 80.5 11 46.834 18 65.5 32 33.5 31.333 44.5 52 16.5 44.334 16.5 71c0 25.334-9 48.5-27 69.5s-46 38.168-84 51.5l-184 67c-59.332 23.334-105 57.5-137 102.5S165 679 165 735c0 49.334 8.668 94.334 26 135s43 75.668 77 105 76.668 52 128 68 111 24 179 24c39.334 0 75.667-3.832 109-11.5s63-18.166 89-31.5 48.333-28.832 67-46.5 33.667-36.833 45-57.5h112l-41-172H749zm-52 729h240v-17l-299-282H484z"/><glyph glyph-name="Scedilla" unicode="Ş" horiz-adv-x="1278" d="M1080 1137c8 35.333 6.507 66.667-4.493 94s-28.5 50.5-52.5 69.5-53 33.333-87 43-70 14.5-108 14.5c-55.333 0-104.833-7.333-148.5-22s-80.5-34.667-110.5-60-53-54.833-69-88.5-24-69.167-24-106.5c0-33.333 6.333-60.333 19-81s28.667-37.667 48-51 40.833-24 64.5-32l68.5-24 187-68c48-16 90-35 126-57s66-47.5 90-76.5 42-62 54-99 18-78.833 18-125.5c0-74-14.333-141.667-43-203s-68.834-113.833-120.5-157.5S873.67 29 801.004 5s-153-36-241-36c-79.333 0-146.5 8.5-201.5 25.5s-100.167 40-135.5 69-61.833 62.167-79.5 99.5-28.834 76.666-33.5 118h-95l39 159h272l-18-74c-9.334-72 11.666-125.668 63-161s125.665-53 222.998-53c50 0 96 7 138 21s78.167 33.5 108.5 58.5 54.166 55 71.5 90 26 73.166 26 114.5c0 32-5.668 59.666-17 83s-26.834 43.5-46.5 60.5-42.668 31.666-69 44-54.5 23.5-84.5 33.5l-174 56C456.334 741.665 387.667 784.332 341 841s-70 129.334-70 218c0 68 13 131.168 39 189.5s63.834 109 113.5 152 110 76.668 181 101S756 1538 846 1538c56.668 0 108.668-6.332 156-19s89.167-30.333 125.5-53 67-50 92-82 43.167-67.333 54.5-106h101l-39-160h-260zM182.007-303c36.667.668 69.835 7.167 99.502 19.5s55.666 28.5 78 48.5 40.665 43.5 54.998 70.5 24.166 55.833 29.5 86.5l150-45c-12-48.667-30.668-92.167-56-130.5s-55.5-70.666-90.5-97-74.168-46.5-117.5-60.5-89-21-137-21z"/><glyph glyph-name="scedilla" unicode="ş" horiz-adv-x="1012" d="M749 748c-.667 26-5.835 49.002-15.502 69.002s-23 36.833-40 50.5-37 24-60 31-47.833 10.5-74.5 10.5-52-3.167-76-9.5-45-15.833-63-28.5-32.167-28-42.5-46-15.5-38.333-15.5-61c0-26.667 8.5-48.834 25.5-66.5s43.833-33.835 80.5-48.502l193-69c58.667-21.333 103.334-54.5 134-99.5S841 381 841 317c0-57.333-10.5-107.666-31.5-151S759.333 86.336 722 57.003s-81.832-51.333-133.5-66-108.166-22-169.5-22c-37.332 0-73 3-107 9s-65.5 15.167-94.5 27.5-54.332 27.666-76 46S103 91 91 115H-15l41 172h211c-3.332-26 0-49 10-69s24.334-36.834 43-50.5S330.834 143.666 356.5 137s52.834-10 81.5-10 55.5 3.667 80.5 11 46.834 18 65.5 32 33.5 31.333 44.5 52 16.5 44.334 16.5 71c0 25.334-9 48.5-27 69.5s-46 38.168-84 51.5l-184 67c-59.332 23.334-105 57.5-137 102.5S165 679 165 735c0 49.334 8.668 94.334 26 135s43 75.668 77 105 76.668 52 128 68 111 24 179 24c39.334 0 75.667-3.832 109-11.5s63-18.166 89-31.5 48.333-28.832 67-46.5 33.667-36.833 45-57.5h112l-41-172H749zM57-302.998c36.666.667 69.834 7.166 99.5 19.5s55.668 28.5 78 48.5 40.667 43.5 55 70.5S313.666-108.667 319-78l150-45c-12-48.668-30.668-92.168-56-130.5s-55.5-70.667-90.5-97-74.168-46.5-117.5-60.5-89-21-137-21z"/><glyph glyph-name="Scaron" unicode="Š" horiz-adv-x="1278" d="M1080 1137c8 35.333 6.507 66.667-4.493 94s-28.5 50.5-52.5 69.5-53 33.333-87 43-70 14.5-108 14.5c-55.333 0-104.833-7.333-148.5-22s-80.5-34.667-110.5-60-53-54.833-69-88.5-24-69.167-24-106.5c0-33.333 6.333-60.333 19-81s28.667-37.667 48-51 40.833-24 64.5-32l68.5-24 187-68c48-16 90-35 126-57s66-47.5 90-76.5 42-62 54-99 18-78.833 18-125.5c0-74-14.333-141.667-43-203s-68.834-113.833-120.5-157.5S873.67 29 801.004 5s-153-36-241-36c-79.333 0-146.5 8.5-201.5 25.5s-100.167 40-135.5 69-61.833 62.167-79.5 99.5-28.834 76.666-33.5 118h-95l39 159h272l-18-74c-9.334-72 11.666-125.668 63-161s125.665-53 222.998-53c50 0 96 7 138 21s78.167 33.5 108.5 58.5 54.166 55 71.5 90 26 73.166 26 114.5c0 32-5.668 59.666-17 83s-26.834 43.5-46.5 60.5-42.668 31.666-69 44-54.5 23.5-84.5 33.5l-174 56C456.334 741.665 387.667 784.332 341 841s-70 129.334-70 218c0 68 13 131.168 39 189.5s63.834 109 113.5 152 110 76.668 181 101S756 1538 846 1538c56.668 0 108.668-6.332 156-19s89.167-30.333 125.5-53 67-50 92-82 43.167-67.333 54.5-106h101l-39-160h-260zm138.01 786l-297-273h-113l-149 273h166l67-129 129 129h197z"/><glyph glyph-name="scaron" unicode="š" horiz-adv-x="1012" d="M749 748c-.667 26-5.835 49.002-15.502 69.002s-23 36.833-40 50.5-37 24-60 31-47.833 10.5-74.5 10.5-52-3.167-76-9.5-45-15.833-63-28.5-32.167-28-42.5-46-15.5-38.333-15.5-61c0-26.667 8.5-48.834 25.5-66.5s43.833-33.835 80.5-48.502l193-69c58.667-21.333 103.334-54.5 134-99.5S841 381 841 317c0-57.333-10.5-107.666-31.5-151S759.333 86.336 722 57.003s-81.832-51.333-133.5-66-108.166-22-169.5-22c-37.332 0-73 3-107 9s-65.5 15.167-94.5 27.5-54.332 27.666-76 46S103 91 91 115H-15l41 172h211c-3.332-26 0-49 10-69s24.334-36.834 43-50.5S330.834 143.666 356.5 137s52.834-10 81.5-10 55.5 3.667 80.5 11 46.834 18 65.5 32 33.5 31.333 44.5 52 16.5 44.334 16.5 71c0 25.334-9 48.5-27 69.5s-46 38.168-84 51.5l-184 67c-59.332 23.334-105 57.5-137 102.5S165 679 165 735c0 49.334 8.668 94.334 26 135s43 75.668 77 105 76.668 52 128 68 111 24 179 24c39.334 0 75.667-3.832 109-11.5s63-18.166 89-31.5 48.333-28.832 67-46.5 33.667-36.833 45-57.5h112l-41-172H749zm219 696l-297-273H558l-149 273h166l67-129 129 129h197z"/><glyph glyph-name="Tcommaaccent" unicode="Ţ" horiz-adv-x="1362" d="M348 172h140l272 1180H393l-53-236H135l92 400h1352l-93-400h-204l53 236H967L697 172h142L800 0H309zm70-213l211-84-180-348-144 53z"/><glyph glyph-name="tcommaaccent" unicode="ţ" horiz-adv-x="778" d="M186 1036h173l61 248 211 86-79-334h218l-41-172H511L379 305c-3.332-13.332-6.5-26.832-9.5-40.5S365 236.335 365 221c0-30 8.168-51.166 24.5-63.5S431.668 139 467 139c38 0 83.667 11 137 33l17-143C585.667 12.335 551.667-.832 519-10.5S450-25 410-25c-42 0-80.333 5.167-115 15.5s-63.334 27.333-86 51-37.668 54.667-45 93-4.667 85.5 8 141.5l144 588H145zM303-41l211-84-180-348-144 53z"/><glyph glyph-name="Tcaron" unicode="Ť" horiz-adv-x="1362" d="M348 172h140l272 1180H393l-53-236H135l92 400h1352l-93-400h-204l53 236H967L697 172h142L800 0H309zm910 1751l-297-273H848l-149 273h166l67-129 129 129h197z"/><glyph glyph-name="tcaron" unicode="ť" horiz-adv-x="780" d="M186 1036h173l61 248 211 86-79-334h218l-41-172H511L379 305c-3.332-13.332-6.5-26.832-9.5-40.5S365 236.335 365 221c0-30 8.168-51.166 24.5-63.5S431.668 139 467 139c38 0 83.667 11 137 33l17-143C585.667 12.335 551.667-.832 519-10.5S450-25 410-25c-42 0-80.333 5.167-115 15.5s-63.334 27.333-86 51-37.668 54.667-45 93-4.667 85.5 8 141.5l144 588H145zm646 23H707l71 510 183 12z"/><glyph glyph-name="Umacron" unicode="Ū" horiz-adv-x="1581" d="M282 1516l492-.003-39-173H595l-161-704c-5.332-23.333-10.165-48.166-14.498-74.5s-6.5-56.165-6.5-89.498c-.667-36.668 5-72.835 17-108.502s30.667-67.667 56-96 57.666-51.166 97-68.5 86.332-26 141-26c55.332 0 106.5 7.834 153.5 23.5s89.5 41.668 127.5 78 71.5 84 100.5 143S1159 552.333 1179 639l162 704h-152l39 173h492l-39-173h-133l-166-722c-26-114-60.5-211.832-103.5-293.5s-93.168-148.666-150.5-201S1006.667 35.834 936 11.5 788.666-25 706-25c-72.667 0-140.167 10.833-202.5 32.5s-116 53-161 94-80 91.167-105 150.5-36.833 127-35.5 203c0 30 2 59.833 6 89.5s9.667 61.167 17 94.5l162 704H243zm1113 193H652l26 117h744z"/><glyph glyph-name="umacron" unicode="ū" horiz-adv-x="1290" d="M843 1036l335.997.004-200-864h155l-39-172h-348l24 105c-21.333-22-44.333-40.833-69-56.5s-49.834-28.334-75.5-38-51-16.835-76-21.502-48.168-7-69.5-7c-45.334 0-88.167 6.5-128.5 19.5s-74.166 32.167-101.5 57.5c-16.666 16.667-32.166 36.167-46.5 58.5s-25.5 49.166-33.5 80.5-11.666 67.665-11 108.998 7.335 89.333 20.002 144l95 413H135l41 172h340L393 510c-29.334-124-30.5-215-3.5-273s84.166-87 171.5-87c38.666 0 72.833 6.5 102.5 19.5s56.667 31.167 81 54.5 44.833 48 61.5 74l132 566H802zm236 193H336l26 117h744z"/><glyph glyph-name="Uring" unicode="Ů" horiz-adv-x="1581" d="M282 1516l492-.003-39-173H595l-161-704c-5.332-23.333-10.165-48.166-14.498-74.5s-6.5-56.165-6.5-89.498c-.667-36.668 5-72.835 17-108.502s30.667-67.667 56-96 57.666-51.166 97-68.5 86.332-26 141-26c55.332 0 106.5 7.834 153.5 23.5s89.5 41.668 127.5 78 71.5 84 100.5 143S1159 552.333 1179 639l162 704h-152l39 173h492l-39-173h-133l-166-722c-26-114-60.5-211.832-103.5-293.5s-93.168-148.666-150.5-201S1006.667 35.834 936 11.5 788.666-25 706-25c-72.667 0-140.167 10.833-202.5 32.5s-116 53-161 94-80 91.167-105 150.5-36.833 127-35.5 203c0 30 2 59.833 6 89.5s9.667 61.167 17 94.5l162 704H243zm710 306c0-14 2.834-27.167 8.5-39.5s13.335-23.333 23.002-33 20.667-17.334 33-23 25.5-8.5 39.5-8.5 27.333 2.832 40 8.5 23.834 13.333 33.5 23 17.335 20.667 23.002 33 8.5 25.5 8.5 39.5-2.833 27.333-8.5 40-13.334 23.834-23 33.5-20.835 17.335-33.502 23.002-26 8.5-40 8.5-27.167-2.833-39.5-8.5-23.333-13.334-33-23-17.334-20.835-23-33.502-8.5-26-8.5-40zm104 256c34.667 0 67.667-6.833 99-20.5s58.5-32 81.5-55 41.333-50.167 55-81.5 20.5-64.333 20.5-99-6.833-67.5-20.5-98.5-32-58.167-55-81.5-50.167-41.833-81.5-55.5-64.333-20.5-99-20.5-67.5 6.833-98.5 20.5-58.167 32.167-81.5 55.5-41.833 50.5-55.5 81.5-20.5 63.833-20.5 98.5 6.833 67.667 20.5 99 32.167 58.5 55.5 81.5 50.5 41.333 81.5 55 63.833 20.5 98.5 20.5z"/><glyph glyph-name="uring" unicode="ů" horiz-adv-x="1290" d="M843 1036l335.997.004-200-864h155l-39-172h-348l24 105c-21.333-22-44.333-40.833-69-56.5s-49.834-28.334-75.5-38-51-16.835-76-21.502-48.168-7-69.5-7c-45.334 0-88.167 6.5-128.5 19.5s-74.166 32.167-101.5 57.5c-16.666 16.667-32.166 36.167-46.5 58.5s-25.5 49.166-33.5 80.5-11.666 67.665-11 108.998 7.335 89.333 20.002 144l95 413H135l41 172h340L393 510c-29.334-124-30.5-215-3.5-273s84.166-87 171.5-87c38.666 0 72.833 6.5 102.5 19.5s56.667 31.167 81 54.5 44.833 48 61.5 74l132 566H802zm-167.003 306c0-14 2.833-27.167 8.5-39.5s13.334-23.333 23-33 20.668-17.334 33-23 25.5-8.5 39.5-8.5 27.334 2.832 40 8.5 23.835 13.333 33.502 23 17.333 20.667 23 33 8.5 25.5 8.5 39.5-2.833 27.333-8.5 40-13.334 23.834-23 33.5-20.835 17.335-33.502 23.002-26 8.5-40 8.5-27.167-2.833-39.5-8.5-23.333-13.334-33-23-17.334-20.835-23-33.502-8.5-26-8.5-40zm104 256c34.667 0 67.667-6.833 99-20.5s58.5-32 81.5-55 41.333-50.167 55-81.5 20.5-64.333 20.5-99-6.833-67.5-20.5-98.5-32-58.167-55-81.5-50.167-41.833-81.5-55.5-64.333-20.5-99-20.5-67.5 6.833-98.5 20.5-58.167 32.167-81.5 55.5-41.833 50.5-55.5 81.5-20.5 63.833-20.5 98.5 6.833 67.667 20.5 99 32.167 58.5 55.5 81.5 50.5 41.333 81.5 55 63.833 20.5 98.5 20.5z"/><glyph glyph-name="Uhungarumlaut" unicode="Ű" horiz-adv-x="1581" d="M282 1516l492-.003-39-173H595l-161-704c-5.332-23.333-10.165-48.166-14.498-74.5s-6.5-56.165-6.5-89.498c-.667-36.668 5-72.835 17-108.502s30.667-67.667 56-96 57.666-51.166 97-68.5 86.332-26 141-26c55.332 0 106.5 7.834 153.5 23.5s89.5 41.668 127.5 78 71.5 84 100.5 143S1159 552.333 1179 639l162 704h-152l39 173h492l-39-173h-133l-166-722c-26-114-60.5-211.832-103.5-293.5s-93.168-148.666-150.5-201S1006.667 35.834 936 11.5 788.666-25 706-25c-72.667 0-140.167 10.833-202.5 32.5s-116 53-161 94-80 91.167-105 150.5-36.833 127-35.5 203c0 30 2 59.833 6 89.5s9.667 61.167 17 94.5l162 704H243zm1186 478l-243-321h-140l201 321h182zm-285 0l-243-321H802l198 321h183z"/><glyph glyph-name="uhungarumlaut" unicode="ű" horiz-adv-x="1290" d="M843 1036l335.997.004-200-864h155l-39-172h-348l24 105c-21.333-22-44.333-40.833-69-56.5s-49.834-28.334-75.5-38-51-16.835-76-21.502-48.168-7-69.5-7c-45.334 0-88.167 6.5-128.5 19.5s-74.166 32.167-101.5 57.5c-16.666 16.667-32.166 36.167-46.5 58.5s-25.5 49.166-33.5 80.5-11.666 67.665-11 108.998 7.335 89.333 20.002 144l95 413H135l41 172h340L393 510c-29.334-124-30.5-215-3.5-273s84.166-87 171.5-87c38.666 0 72.833 6.5 102.5 19.5s56.667 31.167 81 54.5 44.833 48 61.5 74l132 566H802zm309 478l-243-321H769l201 321h182zm-285.003 0l-243-321h-138l198 321h183z"/><glyph glyph-name="Uogonek" unicode="Ų" horiz-adv-x="1579" d="M1229 1516l491 .003-39-173h-133l-166-722c-18.667-83.333-42-157.833-70-223.5s-60.167-123-96.5-172-76-90.333-119-124-89.167-59.834-138.5-78.5c-47.333-19.334-90.166-38.167-128.5-56.5s-71.165-37.833-98.498-58.5-48.5-41.834-63.5-63.5-22.5-44.835-22.5-69.502c0-27.332 10.333-50.665 31-69.998s48-29 82-29c26 0 50.5 2.167 73.5 6.5s41.5 9.833 55.5 16.5l43-127c-18-10.667-42.667-20.5-74-29.5s-66-13.5-104-13.5c-41.333 0-79 4.833-113 14.5s-63.333 23.334-88 41-44.167 39.5-58.5 65.5-21.5 56-21.5 90c0 50.668 14.667 96.168 44 136.5s64.666 75.5 106 105.5c-62 8-118.834 24.334-170.5 49s-96.335 57-134.002 97-66.334 87.334-86 142-28.835 116.335-27.502 185.002c0 30 2 60 6 90s9.333 61.333 16 94l162 704h-143l39 173h491l-39-173h-139l-162-704c-5.333-23.333-10-48.333-14-75s-6-56.334-6-89c0-36.668 5.833-72.835 17.5-108.502s30-67.834 55-96.5 57.333-51.5 97-68.5 86.834-25.5 141.5-25.5 105.5 7.832 152.5 23.5 89.668 41.666 128 78S1077.333 361.666 1106 421s53.335 132 74.002 218l161 704h-151z"/><glyph glyph-name="uogonek" unicode="ų" horiz-adv-x="1288" d="M979 172l156-.003-39-172h-49c-41.332-1.333-79.332-8.833-114-22.5s-64.333-31.5-89-53.5-44.167-45.833-58.5-71.5-21.5-51.5-21.5-77.5c0-27.333 10.167-50.666 30.5-70s47.833-29 82.5-29c25.333 0 49.666 2.168 73 6.5s42 9.834 56 16.5l43-127c-18-10.666-42.668-20.5-74-29.5s-66.334-13.5-105-13.5c-40.668 0-78 4.834-112 14.5s-63.334 23.335-88 41.002S625.83-376 611.5-350 590-294 590-260c0 58.666 15.332 109.5 46 152.5S704-28.67 748 0l22 104c-40.668-43.334-88-74.5-142-93.5S525-18 481-18C436.33-18 393.83-11.67 353.5 1S279.332 33 252 59c-16.667 16.666-32.167 36.333-46.5 59S180 167.667 172 199s-11.667 67.5-11 108.5 7 88.833 19 143.5l94 413H135l41 172h340L393 510c-28.667-124-29.667-215-3-273s83.667-87 171-87c40 0 82.5 11.5 127.5 34.5S773 245 807 297l131 567H803l41 172h336z"/><glyph glyph-name="Ydieresis" unicode="Ÿ" horiz-adv-x="1323" d="M214 1516h491l-39-173H544l175-473 411 473h-122l39 173h492l-39-173h-123L791 687 671 172h141L773 0H281l39 172h141l120 519-259 652H175zm340 324c0 17.333 3.5 33.833 10.5 49.5s16.333 29.334 28 41 25.334 21 41 28S665.67 1969 683 1969c16.668 0 32.668-3.5 48-10.5s28.667-16.332 40-28 20.333-25.333 27-41 10-32.167 10-49.5c0-18-3.333-35-10-51s-15.667-30.167-27-42.5-24.666-22-40-29-31.332-10.5-48-10.5c-17.332 0-33.832 3.5-49.5 10.5s-29.333 16.667-41 29-21 26.5-28 42.5-10.5 33-10.5 51zm459 0c0 17.333 3.5 33.833 10.5 49.5s16.333 29.334 28 41 25.334 21 41 28 32.168 10.5 49.5 10.5c16.668 0 32.5-3.5 47.5-10.5s28.334-16.332 40-28 20.835-25.333 27.502-41 10-32.167 10-49.5c0-18-3.333-35-10-51s-15.834-30.167-27.5-42.5-25-22-40-29-30.834-10.5-47.5-10.5c-17.334 0-33.834 3.5-49.5 10.5s-29.335 16.667-41.002 29-21 26.5-28 42.5-10.5 33-10.5 51z"/><glyph glyph-name="Zacute" unicode="Ź" horiz-adv-x="1298" d="M1390 1298L238 178h681l57 252h207L1085 0H-25l51 231 1135 1108H501l-59-258H235l100 435h1102zm-418 658h240v-17l-299-282H759z"/><glyph glyph-name="zacute" unicode="ź" horiz-adv-x="995" d="M10 117l718 760H391l-35-148H159l72 307h790l-26-121-714-755h366l41 178h196L806 0H-15zm687 1360h240v-17l-299-282H484z"/><glyph glyph-name="Zdotaccent" unicode="Ż" horiz-adv-x="1298" d="M1390 1298L238 178h681l57 252h207L1085 0H-25l51 231 1135 1108H501l-59-258H235l100 435h1102zM809-1121c0 17.333 3.5 33.833 10.5 49.5s16.333 29.334 28 41 25.5 21 41.5 28 33 10.5 51 10.5c17.333 0 33.833-3.5 49.5-10.5s29.334-16.332 41-28 21-25.333 28-41 10.5-32.167 10.5-49.5c0-18-3.5-35-10.5-51s-16.332-30.167-28-42.5-25.333-22-41-29-32.167-10.5-49.5-10.5c-18 0-35 3.5-51 10.5s-29.833 16.667-41.5 29-21 26.5-28 42.5-10.5 33-10.5 51z"/><glyph glyph-name="zdotaccent" unicode="ż" horiz-adv-x="995" d="M10 117l718 760H391l-35-148H159l72 307h790l-26-121-714-755h366l41 178h196L806 0H-15zm467-1717c0 17.333 3.5 33.833 10.5 49.5s16.333 29.334 28 41 25.5 21 41.5 28 33 10.5 51 10.5c17.333 0 33.833-3.5 49.5-10.5s29.334-16.332 41-28 21-25.333 28-41 10.5-32.167 10.5-49.5c0-18-3.5-35-10.5-51s-16.332-30.167-28-42.5-25.333-22-41-29-32.167-10.5-49.5-10.5c-18 0-35 3.5-51 10.5s-29.833 16.667-41.5 29-21 26.5-28 42.5-10.5 33-10.5 51z"/><glyph glyph-name="Zcaron" unicode="Ž" horiz-adv-x="1298" d="M1390 1298L238 178h681l57 252h207L1085 0H-25l51 231 1135 1108H501l-59-258H235l100 435h1102zm-103 625l-297-273H877l-149 273h166l67-129 129 129h197z"/><glyph glyph-name="zcaron" unicode="ž" horiz-adv-x="995" d="M10 117l718 760H391l-35-148H159l72 307h790l-26-121-714-755h366l41 178h196L806 0H-15zm1009 1327l-297-273H609l-149 273h166l67-129 129 129h197z"/><glyph glyph-name="florin" unicode="ƒ" horiz-adv-x="729" d="M281 1036h199.997l37 162c14 60 34.167 112.5 60.5 157.5s57.666 82.168 94 111.5 77 51.5 122 66.5 92.832 22.5 143.5 22.5c70.666 0 125.833-6 165.5-18s71.167-25 94.5-39l-88-133c-19.333 10.668-45 20.168-77 28.5s-66.333 12.5-103 12.5c-56 0-103.833-17-143.5-51s-66.834-84.666-81.5-152l-39-168h239l-35-151h-239l-232-998c-13.334-60-33.334-112.5-60-157.5s-57.668-82.166-93-111.5-75.667-51.5-121-66.5-93-22.5-143-22.5c-71.333 0-127.166 6.168-167.5 18.5S-257.667-427.332-281-414l88 133c19.332-10.667 45.332-20.167 78-28.5S-47.335-322-10-322c56 0 103.832 17.167 143.5 51.5S200.332-185.667 215-119L446 885H246z"/><glyph glyph-name="Scommaaccent" unicode="Ș" horiz-adv-x="1278" d="M1080 1137c8 35.333 6.507 66.667-4.493 94s-28.5 50.5-52.5 69.5-53 33.333-87 43-70 14.5-108 14.5c-55.333 0-104.833-7.333-148.5-22s-80.5-34.667-110.5-60-53-54.833-69-88.5-24-69.167-24-106.5c0-33.333 6.333-60.333 19-81s28.667-37.667 48-51 40.833-24 64.5-32l68.5-24 187-68c48-16 90-35 126-57s66-47.5 90-76.5 42-62 54-99 18-78.833 18-125.5c0-74-14.333-141.667-43-203s-68.834-113.833-120.5-157.5S873.67 29 801.004 5s-153-36-241-36c-79.333 0-146.5 8.5-201.5 25.5s-100.167 40-135.5 69-61.833 62.167-79.5 99.5-28.834 76.666-33.5 118h-95l39 159h272l-18-74c-9.334-72 11.666-125.668 63-161s125.665-53 222.998-53c50 0 96 7 138 21s78.167 33.5 108.5 58.5 54.166 55 71.5 90 26 73.166 26 114.5c0 32-5.668 59.666-17 83s-26.834 43.5-46.5 60.5-42.668 31.666-69 44-54.5 23.5-84.5 33.5l-174 56C456.334 741.665 387.667 784.332 341 841s-70 129.334-70 218c0 68 13 131.168 39 189.5s63.834 109 113.5 152 110 76.668 181 101S756 1538 846 1538c56.668 0 108.668-6.332 156-19s89.167-30.333 125.5-53 67-50 92-82 43.167-67.333 54.5-106h101l-39-160h-260zM433.007-41l211-84-180-348-144 53z"/><glyph glyph-name="scommaaccent" unicode="ș" horiz-adv-x="1012" d="M749 748c-.667 26-5.835 49.002-15.502 69.002s-23 36.833-40 50.5-37 24-60 31-47.833 10.5-74.5 10.5-52-3.167-76-9.5-45-15.833-63-28.5-32.167-28-42.5-46-15.5-38.333-15.5-61c0-26.667 8.5-48.834 25.5-66.5s43.833-33.835 80.5-48.502l193-69c58.667-21.333 103.334-54.5 134-99.5S841 381 841 317c0-57.333-10.5-107.666-31.5-151S759.333 86.336 722 57.003s-81.832-51.333-133.5-66-108.166-22-169.5-22c-37.332 0-73 3-107 9s-65.5 15.167-94.5 27.5-54.332 27.666-76 46S103 91 91 115H-15l41 172h211c-3.332-26 0-49 10-69s24.334-36.834 43-50.5S330.834 143.666 356.5 137s52.834-10 81.5-10 55.5 3.667 80.5 11 46.834 18 65.5 32 33.5 31.333 44.5 52 16.5 44.334 16.5 71c0 25.334-9 48.5-27 69.5s-46 38.168-84 51.5l-184 67c-59.332 23.334-105 57.5-137 102.5S165 679 165 735c0 49.334 8.668 94.334 26 135s43 75.668 77 105 76.668 52 128 68 111 24 179 24c39.334 0 75.667-3.832 109-11.5s63-18.166 89-31.5 48.333-28.832 67-46.5 33.667-36.833 45-57.5h112l-41-172H749zM308-40.998l211-84-180-348-144 53z"/><glyph glyph-name="uni021A" unicode="Ț" horiz-adv-x="1362" d="M348 172h140l272 1180H393l-53-236H135l92 400h1352l-93-400h-204l53 236H967L697 172h142L800 0H309zm70-213l211-84-180-348-144 53z"/><glyph glyph-name="uni021B" unicode="ț" horiz-adv-x="778" d="M186 1036h173l61 248 211 86-79-334h218l-41-172H511L379 305c-3.332-13.332-6.5-26.832-9.5-40.5S365 236.335 365 221c0-30 8.168-51.166 24.5-63.5S431.668 139 467 139c38 0 83.667 11 137 33l17-143C585.667 12.335 551.667-.832 519-10.5S450-25 410-25c-42 0-80.333 5.167-115 15.5s-63.334 27.333-86 51-37.668 54.667-45 93-4.667 85.5 8 141.5l144 588H145zM215-41l211-84-180-348-144 53z"/><glyph glyph-name="apostrophe" unicode="ʼ" horiz-adv-x="340" d="M133 1520l211-84-180-349-144 54z"/><glyph glyph-name="circumflex" unicode="ˆ" horiz-adv-x="860" d="M172 1171l297 273h111l151-273H561l-64 125-119-125H172z"/><glyph glyph-name="caron" unicode="ˇ" horiz-adv-x="778" d="M718 1444l-297-273H308l-149 273h166l67-129 129 129h197z"/><glyph glyph-name="breve" unicode="˘" horiz-adv-x="999" d="M468 1149c-55.333 0-105.324 7.83-149.99 23.498s-82.335 38.834-113.002 69.5-52.834 65.835-66.5 105.502-19.168 83.5-16.5 131.5h141c1.332-61.333 18.165-109.833 50.498-145.5s87.166-53.5 164.5-53.5c65.332 0 119.165 18.5 161.498 55.5s71.166 84.833 86.5 143.5h145c-8.668-48-25.335-91.833-50.002-131.5s-53.834-74.5-87.5-104.5-74.335-53.167-122.002-69.5S516 1149 468 1149z"/><glyph glyph-name="dotaccent" unicode="˙" horiz-adv-x="612" d="M174-1600c0 17.333 3.5 33.833 10.5 49.5s16.333 29.334 28 41 25.5 21 41.5 28 33 10.5 51 10.5c17.333 0 33.833-3.5 49.5-10.5s29.334-16.332 41-28 21-25.333 28-41 10.5-32.167 10.5-49.5c0-18-3.5-35-10.5-51s-16.332-30.167-28-42.5-25.333-22-41-29-32.167-10.5-49.5-10.5c-18 0-35 3.5-51 10.5s-29.833 16.667-41.5 29-21 26.5-28 42.5-10.5 33-10.5 51z"/><glyph glyph-name="ring" unicode="˚" horiz-adv-x="800" d="M302 1342c0-14 2.833-27.167 8.5-39.5s13.334-23.333 23-33 20.668-17.334 33-23 25.5-8.5 39.5-8.5 27.334 2.832 40 8.5 23.835 13.333 33.502 23 17.334 20.667 23 33 8.5 25.5 8.5 39.5-2.832 27.333-8.5 40-13.333 23.834-23 33.5-20.834 17.335-33.5 23.002-26 8.5-40 8.5-27.168-2.833-39.5-8.5-23.334-13.334-33-23-17.335-20.835-23.002-33.502-8.5-26-8.5-40zm104 256c34.667 0 67.667-6.833 99-20.5s58.5-32 81.5-55 41.333-50.167 55-81.5 20.5-64.333 20.5-99-6.833-67.5-20.5-98.5-32-58.167-55-81.5-50.167-41.833-81.5-55.5-64.333-20.5-99-20.5-67.5 6.833-98.5 20.5-58.167 32.167-81.5 55.5-41.833 50.5-55.5 81.5-20.5 63.833-20.5 98.5 6.833 67.667 20.5 99 32.167 58.5 55.5 81.5 50.5 41.333 81.5 55 63.833 20.5 98.5 20.5z"/><glyph glyph-name="ogonek" unicode="˛" horiz-adv-x="705" d="M428 29C384 9.667 345.334-9 312-27s-60.832-36.5-82.5-55.5S193-121 185-141s-12-41.334-12-64c0-12.668 2.668-23.335 8-32.002s12.167-15.5 20.5-20.5 18-8.667 29-11 22.5-3.5 34.5-3.5c32 0 57 2.167 75 6.5s33.667 9.5 47 15.5l50-166c-7.333-4-17.833-8.333-31.5-13s-28.834-9.167-45.5-13.5-34-7.833-52-10.5-34.668-4-50-4c-40 0-73.834 4.5-101.5 13.5s-54 22.167-79 39.5-42.834 38.833-53.5 64.5-16 55.5-16 89.5 4.332 65.833 13 95.5 22.833 56.834 42.5 81.5S104-26.166 126-6.5s46.167 37 72.5 52 52 27.5 77 37.5 47.167 17.667 66.5 23z"/><glyph glyph-name="tilde" unicode="˜" horiz-adv-x="1000" d="M375 1415c33.333 0 62.166-5.5 86.5-16.5s47-23 68-36 41.832-24.833 62.5-35.5 44-16 70-16c18.666 0 36.833 6.333 54.5 19s29.5 33 35.5 61l119-35c-13.333-56.667-39.333-100.5-78-131.5s-85-46.5-139-46.5c-37.333 0-69 5.167-95 15.5s-49.667 21.5-71 33.5l-60 33.5c-18.667 10.333-39 15.5-61 15.5-10 0-20.167-.667-30.5-2s-20.5-4.5-30.5-9.5-19.167-12.667-27.5-23-14.833-24.833-19.5-43.5l-109 53c8.667 31.333 21 57.5 37 78.5s34 37.833 54 50.5 41.5 21.667 64.5 27 46.167 8 69.5 8z"/><glyph glyph-name="hungarumlaut" unicode="˝" horiz-adv-x="808" d="M698 1508l-243-321H315l201 321h182zm-285 0l-243-321H32l198 321h183z"/><glyph glyph-name="Gamma" unicode="Γ" horiz-adv-x="1313" d="M113 172h131l272 1180H387l39 164h1051l-93-400h-204l53 236H723L453 172h151L565 0H74z"/><glyph glyph-name="Pi" unicode="Π" horiz-adv-x="1877" d="M419 1516h1493l-41-173h-137L1466 172h137L1564 0h-492l39 172h146l270 1171H724L456 172h141L558 0H67l39 172h141l270 1171H378z"/><glyph glyph-name="pi" unicode="π" horiz-adv-x="1382" d="M1016-16c-48 0-88.998 6-122.998 18s-60.667 30.666-80 56-31 57.832-35 97.5.333 86.166 13 139.5l131 569h-375l-160-692h154l-39-172h-492l39 172h135l160 692h-137l41 172h1141l-41-172h-232l-123-536c-6.667-26-11.667-50-15-72s-3.333-40.5 0-55.5 11.5-26.834 24.5-35.5 33.167-13 60.5-13c23.333 0 44.166 2 62.5 6s39.165 10.666 62.498 20l-6-160c-12.667-5.334-25.167-10-37.5-14s-25.333-7.668-39-11-28-5.667-43-7-30.5-2-46.5-2z"/><glyph glyph-name="uni0400" unicode="Ѐ" horiz-adv-x="1415" d="M411 1516h1100l-100-433h-207l61 260H725L614 858h446l-43-172H575L457 172h534l61 262h209L1161 0H75l39 172h134l270 1171H370zm465 142l-287 282v17h248l184-299H876z"/><glyph glyph-name="uni0401" unicode="Ё" horiz-adv-x="1415" d="M411 1516h1100l-100-433h-207l61 260H725L614 858h446l-43-172H575L457 172h534l61 262h209L1161 0H75l39 172h134l270 1171H370zm261 324c0 17.333 3.5 33.833 10.5 49.5s16.333 29.334 28 41 25.334 21 41 28S783.67 1969 801 1969c16.668 0 32.668-3.5 48-10.5s28.667-16.332 40-28 20.333-25.333 27-41 10-32.167 10-49.5c0-18-3.333-35-10-51s-15.667-30.167-27-42.5-24.666-22-40-29-31.332-10.5-48-10.5c-17.332 0-33.832 3.5-49.5 10.5s-29.333 16.667-41 29-21 26.5-28 42.5-10.5 33-10.5 51zm459 0c0 17.333 3.5 33.833 10.5 49.5s16.333 29.334 28 41 25.334 21 41 28 32.168 10.5 49.5 10.5c16.668 0 32.5-3.5 47.5-10.5s28.334-16.332 40-28 20.835-25.333 27.502-41 10-32.167 10-49.5c0-18-3.333-35-10-51s-15.834-30.167-27.5-42.5-25-22-40-29-30.834-10.5-47.5-10.5c-17.334 0-33.834 3.5-49.5 10.5s-29.335 16.667-41.002 29-21 26.5-28 42.5-10.5 33-10.5 51z"/><glyph glyph-name="uni0402" unicode="Ђ" horiz-adv-x="1632" d="M1358 1116h-205l53 236H907L782 803c68.667 31.334 136.667 56.167 204 74.5s129.666 27.5 187 27.5c68.666 0 130.333-9.167 185-27.5s101-43.833 139-76.5 67.333-72 88-118 31-95.333 31-148c0-78-15.333-150.167-46-216.5s-72.667-123.666-126-172-116.5-86.165-189.5-113.498-151.167-41-234.5-41h-41l37 158c10.667 0 20.834.333 30.5 1s19.168 1.667 28.5 3c49.334 5.333 94.834 16.833 136.5 34.5s77.835 41.167 108.502 70.5 54.5 64.166 71.5 104.5 25.5 86.5 25.5 138.5c0 35.332-6.5 67.665-19.5 96.998s-31.833 55-56.5 77-54.334 38.667-89 50-73.335 17-116.002 17c-70.667 0-140.167-11.167-208.5-33.5S797.667 663 743 637L637 172h149L747 0H256l39 172h133l272 1180H393l-53-236H135l92 400h1223z"/><glyph glyph-name="uni0403" unicode="Ѓ" horiz-adv-x="1313" d="M113 172h131l272 1180H387l39 164h1051l-93-400h-204l53 236H723L453 172h151L565 0H74zm954 1784h240v-17l-299-282H854z"/><glyph glyph-name="uni0404" unicode="Є" horiz-adv-x="1473" d="M1288 1114c-28.667 70-75.998 126.168-141.998 168.5s-145.667 63.5-239 63.5c-70.667 0-137.167-11.666-199.5-35s-118.666-55.5-169-96.5-94-89.5-131-145.5-64.832-117.332-83.5-184h919l-39-168h-909v-45c0-76.666 12-145.666 36-207s56-113.5 96-156.5 86.334-76.166 139-99.5 107.668-35 165-35c101.334 0 190.167 20.834 266.5 62.5s143.166 104.168 200.5 187.5l193-102c-78-109.332-173-194.5-285-255.5S861.667-25 709-25C617-25 532.167-7.83 454.5 26.5S309.666 108.335 253 169 152 301.67 120 385 72 558.335 72 655c0 126 21.5 242.834 64.5 350.5s102.667 201.5 179 281.5 167 142.834 272 188.5S806.667 1544 930 1544c112 0 212.333-22.832 301-68.5s161-108.833 217-189.5h158l-41-172h-277z"/><glyph glyph-name="uni0405" unicode="Ѕ" horiz-adv-x="1278" d="M1080 1137c8 35.333 6.507 66.667-4.493 94s-28.5 50.5-52.5 69.5-53 33.333-87 43-70 14.5-108 14.5c-55.333 0-104.833-7.333-148.5-22s-80.5-34.667-110.5-60-53-54.833-69-88.5-24-69.167-24-106.5c0-33.333 6.333-60.333 19-81s28.667-37.667 48-51 40.833-24 64.5-32l68.5-24 187-68c48-16 90-35 126-57s66-47.5 90-76.5 42-62 54-99 18-78.833 18-125.5c0-74-14.333-141.667-43-203s-68.834-113.833-120.5-157.5S873.67 29 801.004 5s-153-36-241-36c-79.333 0-146.5 8.5-201.5 25.5s-100.167 40-135.5 69-61.833 62.167-79.5 99.5-28.834 76.666-33.5 118h-95l39 159h272l-18-74c-9.334-72 11.666-125.668 63-161s125.665-53 222.998-53c50 0 96 7 138 21s78.167 33.5 108.5 58.5 54.166 55 71.5 90 26 73.166 26 114.5c0 32-5.668 59.666-17 83s-26.834 43.5-46.5 60.5-42.668 31.666-69 44-54.5 23.5-84.5 33.5l-174 56C456.334 741.665 387.667 784.332 341 841s-70 129.334-70 218c0 68 13 131.168 39 189.5s63.834 109 113.5 152 110 76.668 181 101S756 1538 846 1538c56.668 0 108.668-6.332 156-19s89.167-30.333 125.5-53 67-50 92-82 43.167-67.333 54.5-106h101l-39-160h-260z"/><glyph glyph-name="uni0406" unicode="І" horiz-adv-x="780" d="M425 1516h492l-41-173H735L467 172h139L567 0H75l39 172h144l270 1171H385z"/><glyph glyph-name="uni0407" unicode="Ї" horiz-adv-x="883" d="M425 1516h492l-41-173H735L467 172h139L567 0H75l39 172h144l270 1171H385zm-4 324c0 35.333 12.667 65.666 38 91s55.666 38 91 38c16.666 0 32.833-3.5 48.5-10.5s29-16.168 40-27.5 19.833-25 26.5-41 10-32.668 10-50c0-18-3.333-35.168-10-51.5s-15.5-30.667-26.5-43-24.333-21.833-40-28.5-31.834-10-48.5-10c-35.334 0-65.667 13.333-91 40s-38 57.667-38 93zm316 0c0 35.333 12.667 65.666 38 91s55.666 38 91 38c16 0 32-3.5 48-10.5s29.332-16.168 40-27.5 19.5-25 26.5-41 10.5-32.668 10.5-50c0-18-3.5-35.168-10.5-51.5s-15.834-30.667-26.5-43-24-21.833-40-28.5-32-10-48-10c-35.334 0-65.667 13.333-91 40s-38 57.667-38 93z"/><glyph glyph-name="uni0408" unicode="Ј" horiz-adv-x="762" d="M390 1516h491l-41-173H699L428 172c-9.334-28-29.667-62.5-61-103.5s-70.333-88.333-117-142S151-182 93-238l-168 15C-21.667-163 25-106.833 65-54.5s76.5 102.333 109.5 150S228 179.667 236 205l263 1138H349z"/><glyph glyph-name="uni0409" unicode="Љ" horiz-adv-x="2189" d="M876 172h141.997l270 1171h-471l-174-598c-40-129.334-81.167-240.834-123.5-334.5s-88-170.5-137-230.5S279.33 75.33 219.997 46 95.33 1.332 23.997 0h-147l71 311h189l-37-155c42 9.333 79.168 28.333 111.5 57s61.834 67.167 88.5 115.5 51.5 107 74.5 176l75.5 236.5 180 602h-211l41 173h1239l-40-173h-164l-105-460h275c61.334 0 117.834-9 169.5-27s96.335-43.667 134.002-77 67.166-73.5 88.5-120.5 32-99.833 32-158.5c0-70-14-135.333-42-196s-67.668-113.5-119-158.5S1814.832 65 1742.5 39 1589 0 1499 0H837zm475 539l-125.003-539h306c48.667 0 93.834 7.5 135.5 22.5S1745.333 231 1776 259s55 61.832 73 101.5 27 84.166 27 133.5c0 62.666-21.168 114.5-63.5 155.5S1707.332 711 1624 711h-273z"/><glyph glyph-name="uni040A" unicode="Њ" horiz-adv-x="2198" d="M1360 1516h491l-41-173h-141l-104-460h274c61.332 0 118-9 170-27s96.832-43.667 134.5-77 67-73.5 88-120.5S2263 558.667 2263 500c0-70-14-135.333-42-196s-67.668-113.5-119-158.5S1988.832 65 1916.5 39 1763 0 1673 0h-661l39 172h141l125 539H655L530 172h150L641 0H150l38 172h134l270 1171H444l41 173h492l-41-173H799L694 883h662l106 460h-143zm166-805l-125.003-539h305c49.333 0 94.833 7.5 136.5 22.5s77.834 36.5 108.5 64.5 54.835 61.833 72.502 101.5S2050 444.667 2050 494c0 62.667-21.168 114.5-63.5 155.5S1881.332 711 1798 711h-272z"/><glyph glyph-name="uni040B" unicode="Ћ" horiz-adv-x="1717" d="M1151 172h157.998l75 322c12.667 54 16.834 97.834 12.5 131.5s-16.665 59.668-36.998 78-49 30.667-86 37-81.167 9.5-132.5 9.5c-75.333 0-143.666-6.833-205-20.5S811.67 698 747 676L631 172h151L743 0H252l39 172h143l272 1180H393l-53-236H135l92 400h1223l-92-400h-205l53 236H903L784 831c64 20.667 128.5 38.5 193.5 53.5S1109.67 907 1179 907c71.334 0 134.667-5.5 190-16.5s100-31.167 134-60.5 56.167-69.5 66.5-120.5S1576 592.667 1558 512l-80-340h164L1603 0h-491z"/><glyph glyph-name="uni040C" unicode="Ќ" horiz-adv-x="1642" d="M1390 1343l41 173h389l-41-173h-94L848 754l468-582h158L1435 0h-407l39 172-469 602zm-979 173h492l-41-173H725L457 172h149L567 0H75l39 172h134l270 1171H370zm796 393h240v-17l-299-282H994z"/><glyph glyph-name="uni040D" unicode="Ѝ" horiz-adv-x="1935" d="M413 1516h516l-41-173H729L479 264l1110 1252h379l-41-173h-135L1524 172h148L1633 0h-493l39 172h135l252 1088L452 0H75l41 176h137l268 1167H372zm724 141l-287 282v17h248l184-299h-145z"/><glyph glyph-name="uni040E" unicode="Ў" horiz-adv-x="1293" d="M987 1343l38.998 173.002h492l-39-173h-140l-326-490-327-491c-64-96.667-124.333-177.334-181-242S385.664 12.666 316.998-8c-13.334-4-27.167-7-41.5-9s-29.166-3-44.5-3c-22.666 0-47.666 1.667-75 5S104-6.667 82 0H-2l35.5 155.5L70 311h188l-20.5-89-20.5-89c23.334 0 44.5 2 63.5 6s39.834 15.667 62.5 35 49.335 49.5 80.002 90.5L514 392l-230 951H157l39 173h491l-39-173H487l166-736 467 736H987zm-73.002 285c-55.333 0-105.324 7.83-149.99 23.498s-82.335 38.834-113.002 69.5-52.834 65.835-66.5 105.502-19.168 83.5-16.5 131.5h141c1.332-61.333 18.165-109.833 50.498-145.5s87.166-53.5 164.5-53.5c65.332 0 119.165 18.5 161.498 55.5s71.166 84.833 86.5 143.5h145c-8.668-48-25.335-91.833-50.002-131.5s-53.834-74.5-87.5-104.5-74.335-53.167-122.002-69.5-95.5-24.5-143.5-24.5z"/><glyph glyph-name="uni040F" unicode="Џ" horiz-adv-x="1882" d="M1425 1516h492l-41-173h-138L1468 162h138L1569 0H927l-79-348H659L739 0H67l37 162h143l272 1181H371l41 173h493l-41-173H726L456 162h803l273 1181h-148z"/><glyph glyph-name="uni0410" unicode="А" horiz-adv-x="1456" d="M919 172h127l-37 342H435L244 172h136L342 0h-492l39 172H20l760 1344h323l158-1344h150L1372 0H880zM531 686h459l-75 688z"/><glyph glyph-name="uni0411" unicode="Б" horiz-adv-x="1464" d="M111 172h141l272 1180H414l39 164h1067l-93-400h-204l53 236H731L625 883h274c61.332 0 118-9 170-27s96.832-43.667 134.5-77 67-73.5 88-120.5S1323 558.667 1323 500c0-70-14-135.333-42-196s-67.668-113.5-119-158.5S1048.832 65 976.5 39 823 0 733 0H72zm475 539L460.995 172h305c49.333 0 94.833 7.5 136.5 22.5s77.834 36.5 108.5 64.5 54.835 61.833 72.502 101.5 26.5 84.167 26.5 133.5c0 62.667-21.167 114.5-63.5 155.5S941.332 711 857.998 711H586z"/><glyph glyph-name="uni0412" unicode="В" horiz-adv-x="1499" d="M114 172h134l270 1171H370l41 173h678c56.668 0 107.168-9 151.5-27s81.667-43.168 112-75.5 53.333-70.834 69-115.5 23.5-93.668 23.5-147c0-95.334-24-177-72-245s-116-119-204-153c44-32 77.833-72.668 101.5-122s35.5-104.667 35.5-166c0-70-14.167-133.667-42.5-191s-67-106.333-116-147S1041 55 975 33 838.333 0 763 0H75zm458 502L457 171.995h335c44.668 0 85.335 7.167 122.002 21.5s68 33.833 94 58.5 46 53.834 60 87.5 21 70.168 21 109.5c0 34-4.333 64.834-13 92.5s-20.834 51.335-36.5 71.002-34.668 34.834-57 45.5-46.834 16-73.5 16H572zm153 669L612 848h330c40 0 77.333 6.5 112 19.5s64.834 31.5 90.5 55.5 46 52.667 61 86 22.5 70.333 22.5 111c0 31.333-3.666 60.5-11 87.5s-18.5 50.5-33.5 70.5-33.832 35.833-56.5 47.5-49 17.5-79 17.5H725z"/><glyph glyph-name="uni0413" unicode="Г" horiz-adv-x="1313" d="M113 172h131l272 1180H387l39 164h1051l-93-400h-204l53 236H723L453 172h151L565 0H74z"/><glyph glyph-name="uni0414" unicode="Д" horiz-adv-x="1559" d="M-115 172h54c58.667 5.333 109.5 24.833 152.5 58.5s80.833 76 113.5 127 61 109.667 85 176S336.667 669 358 741l174 602H336l41 173h1235l-41-173h-148L1155 172h145l-118-520H985l80 348H41l-80-348h-194zm660 545c-38.667-132.667-82.168-244-130.5-334S309.332 222.667 244 172h702l271 1171H725z"/><glyph glyph-name="uni0415" unicode="Е" horiz-adv-x="1413" d="M411 1516h1100l-100-433h-207l61 260H725L614 858h446l-43-172H575L457 172h534l61 262h209L1161 0H75l39 172h134l270 1171H370z"/><glyph glyph-name="uni0416" unicode="Ж" horiz-adv-x="2038" d="M653 172h154l118 520H813L315 172 276 0H-92l41 172H88l608 623-352 548h-96l39 173h299l-41-173 290-479h129l113 479H925l41 173h492l-41-173h-145l-111-479h129l502 479 39 173h317l-41-173h-98l-625-581 342-590h144L1829 0h-353l41 172-270 520h-125l-121-520h146L1106 0H614z"/><glyph glyph-name="uni0417" unicode="З" horiz-adv-x="1167" d="M14 326c7.333 28.667 13.997 57.334 19.997 86s12.333 57.335 19 86.002h246l-16.5-74-16.5-74c6.667-57.333 30.834-102.333 72.5-135s99.5-49 173.5-49c39.334 0 79.5 7.833 120.5 23.5s78 37.834 111 66.5 60 63.5 81 104.5 31.5 87.5 31.5 139.5c0 66.668-21.166 119.835-63.5 159.502s-97.5 59.5-165.5 59.5h-86c6.668 26 12.335 51.167 17.002 75.5s10.333 49.5 17 75.5h70c50.667 0 97.167 8.333 139.5 25s78.833 38.167 109.5 64.5 54.5 57 71.5 92 25.5 70.833 25.5 107.5c0 24.667-4 49.667-12 75s-21.333 48.166-40 68.5-42 37-70 50-62.333 19.5-103 19.5c-39.333 0-75.833-5.834-109.5-17.5s-62.834-26.335-87.5-44.002-45.168-36-61.5-55-27.834-35.5-34.5-49.5c-4-18.667-8-36-12-52l-12-50H203l20 86 21 86h71c22 39.333 49.832 75.833 83.5 109.5s70.166 62.334 109.5 86 81.5 42 126.5 55 90.832 19.5 137.5 19.5c65.332 0 124-10.5 176-31.5s95.832-48.332 131.5-82 62.666-72.333 81-116 27.5-87.834 27.5-132.5c0-36-5.5-72.668-16.5-110s-28.834-73.5-53.5-108.5-55.668-67.168-93-96.5-82.667-53.334-136-72c46-22 84.167-58.668 114.5-110s45.5-111 45.5-179c0-74-16.167-143-48.5-207s-74.666-119.168-127-165.5S761.17 52.667 693.5 26 556.335-14 485-14C427.67-14 374.5-6.167 325.5 9.5s-92 38.166-129 67.5-66.332 65.165-88 107.498S74.668 274 72 326H14z"/><glyph glyph-name="uni0418" unicode="И" horiz-adv-x="1935" d="M413 1516h516l-41-173H729L479 264l1110 1252h379l-41-173h-135L1524 172h148L1633 0h-493l39 172h135l252 1088L452 0H75l41 176h137l268 1167H372z"/><glyph glyph-name="uni0419" unicode="Й" horiz-adv-x="1935" d="M413 1516h516l-41-173H729L479 264l1110 1252h379l-41-173h-135L1524 172h148L1633 0h-493l39 172h135l252 1088L452 0H75l41 176h137l268 1167H372zm800 112c-55.333 0-105.324 7.83-149.99 23.498s-82.335 38.834-113.002 69.5-52.834 65.835-66.5 105.502-19.168 83.5-16.5 131.5h141c1.332-61.333 18.165-109.833 50.498-145.5s87.166-53.5 164.5-53.5c65.332 0 119.165 18.5 161.498 55.5s71.166 84.833 86.5 143.5h145c-8.668-48-25.335-91.833-50.002-131.5s-53.834-74.5-87.5-104.5-74.335-53.167-122.002-69.5S1261 1628 1213 1628z"/><glyph glyph-name="uni041A" unicode="К" horiz-adv-x="1640" d="M1390 1343l41 173h389l-41-173h-94L848 754l468-582h158L1435 0h-407l39 172-469 602zm-979 173h492l-41-173H725L457 172h149L567 0H75l39 172h134l270 1171H370z"/><glyph glyph-name="uni041B" unicode="Л" horiz-adv-x="1647" d="M895 172h146.997l271 1171h-496l-174-598c-39.333-129.334-80.166-240.834-122.5-334.5S432.333 240 383 180 279.332 75.33 220 46 95.667 1.332 25 0h-148l72 311h188l-37-155c42.667 9.333 80 28.333 112 57s61.333 67.167 88 115.5 51.667 107 75 176L451 741l180 602H420l41 173h1239l-41-173h-139L1251 172h135L1348 0H856z"/><glyph glyph-name="uni041C" unicode="М" horiz-adv-x="2290" d="M114 172h136l270 1171H370l41 173h459l197-1301 784 1301h473l-41-173h-137L1876 172h159L1996 0h-491l39 172h132l266 1154L1142 0H911L709 1323 443 172h163L567 0H75z"/><glyph glyph-name="uni041D" unicode="Н" horiz-adv-x="1931" d="M1476 1516h492l-41-173h-137L1522 172h149L1632 0h-492l39 172h134l126 545H582L457 172h149L567 0H75l39 172h134l270 1171H370l41 173h492l-41-173H725L620 885h858l105 458h-148z"/><glyph glyph-name="uni041E" unicode="О" horiz-adv-x="1577" d="M712-31c-85.333 0-166.5 16.33-243.5 48.998s-144.667 78.834-203 138.5-104.666 131.668-139 216S75 551 75 655c0 87.334 10.334 169.834 31 247.5S155.67 1052 193 1118s82.167 125.334 134.5 178 110.333 97.335 174 134.002 131.834 64.834 204.5 84.5 148.335 29.5 227.002 29.5c85.333 0 166.5-14.832 243.5-44.5s144.667-72.833 203-129.5 104.666-126.167 139-208.5S1570 985.667 1570 881c0-89.333-10-174-30-254s-48.168-153.667-84.5-221-80.334-128-132-182-109.335-99.833-173.002-137.5S1018 19.833 944-.5 792.667-31 712-31zm23 202.998c57.333 0 112.333 8 165 24s101.667 38.834 147 68.5 86.5 65.335 123.5 107.002S1239 459.667 1265 511s46.167 106.666 60.5 166 21.5 121.665 21.5 186.998c0 72.667-10.833 138.334-32.5 197s-51.834 108.835-90.5 150.502-84.668 73.667-138 96-111.667 33.5-175 33.5c-82.667 0-161-16.667-235-50s-139-79.833-195-139.5-100.333-130.334-133-212-49-170.835-49-267.502c0-71.333 10.833-137.5 32.5-198.5s51.834-113.833 90.5-158.5 84.668-79.667 138-105 111.667-38 175-38z"/><glyph glyph-name="uni041F" unicode="П" horiz-adv-x="1877" d="M419 1516h1493l-41-173h-137L1466 172h137L1564 0h-492l39 172h146l270 1171H724L456 172h141L558 0H67l39 172h141l270 1171H378z"/><glyph glyph-name="uni0420" unicode="Р" horiz-adv-x="1313" d="M409 1516l608 .002c58 0 111-10 159-30s89.332-47.167 124-81.5 61.5-74.5 80.5-120.5 28.5-95 28.5-147c0-68.667-13-132.334-39-191S1305.83 836.666 1255.5 794s-112.667-76.167-187-100.5S909 657 813 657H566L455 172h151L567 0H75l39 172h132l270 1171H368zm314-173L605.997 829.002h229c54 0 103.333 6.5 148 19.5s83 32 115 57 56.667 55.833 74 92.5 26 78.667 26 126c0 28-4.667 55.167-14 81.5s-23.666 49.666-43 70-44 36.665-74 48.998-65.666 18.5-107 18.5H723z"/><glyph glyph-name="uni0421" unicode="С" horiz-adv-x="1468" d="M1394 322c-38.667-54.667-81.664-103.498-128.997-146.498s-99.333-79.333-156-109-118-52.334-184-68-137-23.5-213-23.5c-91.333 0-175.833 17.166-253.5 51.5S313.67 108.333 257.003 169s-101.168 132.5-133.5 215.5-48.5 173.166-48.5 270.5c0 83.332 9.832 163.332 29.5 240s47.5 147.833 83.5 213.5 79.666 125.334 131 179 108.832 99.5 172.5 137.5 132.666 67.334 207 88 152.5 31 234.5 31c113.332 0 214.165-22.832 302.498-68.5s160.834-108.833 217.5-189.5h156l-41-172h-276c-14.666 34-34.166 65.333-58.5 94s-52.665 53.167-84.998 73.5-68.5 36.166-108.5 47.5-83 17-129 17c-88 0-169.333-17.834-244-53.5s-139.334-84.168-194-145.5S375.666 1014.167 345 932.5 299 764 299 672c0-76.668 12-145.835 36-207.502s56-114 96-157 86.333-76 139-99S677.667 174 735 174c100.667 0 189.167 20.833 265.5 62.5S1144 340.667 1202 424z"/><glyph glyph-name="uni0422" unicode="Т" horiz-adv-x="1362" d="M348 172h140l272 1180H393l-53-236H135l92 400h1352l-93-400h-204l53 236H967L697 172h142L800 0H309z"/><glyph glyph-name="uni0423" unicode="У" horiz-adv-x="1293" d="M987 1343l38.998 173.002h492l-39-173h-140l-326-490-327-491c-64-96.667-124.333-177.334-181-242S385.664 12.666 316.998-8c-13.334-4-27.167-7-41.5-9s-29.166-3-44.5-3c-22.666 0-47.666 1.667-75 5S104-6.667 82 0H-2l35.5 155.5L70 311h188l-20.5-89-20.5-89c23.334 0 44.5 2 63.5 6s39.834 15.667 62.5 35 49.335 49.5 80.002 90.5L514 392l-230 951H157l39 173h491l-39-173H487l166-736 467 736H987z"/><glyph glyph-name="uni0424" unicode="Ф" horiz-adv-x="1540" d="M745 1597h476l-35-151h-137l-29-121c78-2.668 149.668-14.668 215-36s121.667-51 169-89 83.833-84 109.5-138S1552 948.33 1552 883c0-84.668-19.667-162.835-59-234.502s-93.5-133.5-162.5-185.5-150.667-93-245-123-196.166-45.667-305.5-47l-26-121h145l-39-172H369l39 172h149l27 121c-76.666 2.667-147.833 14.834-213.5 36.5s-122 52-169 91S117.667 506.333 91 561 51 676.334 51 743c0 82 19.833 158.167 59.5 228.5s94 131.5 163 183.5S424 1248.333 518 1279s195.667 46 305 46l29 121H711zm605-718c0 42-7.5 80-22.5 114s-38 63.332-69 88-69.334 44.166-115 58.5-99.168 22.832-160.5 25.5L819 455c94.666 1.332 175.333 15 242 41s121.5 59 164.5 99 74.5 85 94.5 135 30 99.666 30 149zM254 748c0-45.334 7.833-85.836 23.5-121.503s39.167-65.667 70.5-90 69.833-43.666 115.5-58S562.334 456.333 623 455l163 708c-96.666-2.668-178.833-17-246.5-43s-122.667-58.668-165-98-73-83.334-92-132S254 794 254 748z"/><glyph glyph-name="uni0425" unicode="Х" horiz-adv-x="1487" d="M1115 1516h491l-41-173h-104L910 764l284-592h150L1305 0H814l38 172h137L771 618 347 172h118L426 0H-65l39 172H95l590 621-268 550H271l41 173h491l-41-173H632l193-402 382 402h-133z"/><glyph glyph-name="uni0426" unicode="Ц" horiz-adv-x="1879" d="M1422 1516h492l-41-173h-137L1465 162h201l-117-510h-188l80 348H65l37 162h145l272 1181H369l41 173h494l-41-173H726L455 162h802l272 1181h-148z"/><glyph glyph-name="uni0427" unicode="Ч" horiz-adv-x="1579" d="M254 1516h490.998l-38-173h-150l-74-329c-14.667-66-21-118.666-19-158s13.833-69.332 35.5-90 53-34.333 94-41 93.833-10 158.5-10c54.667 0 112.334 6.5 173 19.5s123 28.833 187 47.5l129 561h-154l39 173h492l-39-173h-131L1180 172h135L1276 0H784l39 172h148l100 432c-56-19.333-113.332-34.666-172-46s-120.666-17-186-17c-83.332 0-157.165 5.668-221.498 17S375.667 591.835 337 625.5 273.5 705.67 262.5 765 257 901.668 279 997l75 346H215z"/><glyph glyph-name="uni0428" unicode="Ш" horiz-adv-x="2423" d="M1972 1516h492l-41-173h-137L2015 162h144L2122 0H74l37 162h143l272 1181H379l41 173h491l-41-173H733L463 162h569l273 1181h-148l41 173h492l-41-173h-138L1241 162h565l273 1181h-148z"/><glyph glyph-name="uni0429" unicode="Щ" horiz-adv-x="2431" d="M1972 1516h492l-41-173h-137L2015 162h232l-117-510h-188l79 348H74l37 162h143l272 1181H379l41 173h491l-41-173H733L463 162h569l273 1181h-148l41 173h492l-41-173h-138L1241 162h565l273 1181h-148z"/><glyph glyph-name="uni042A" unicode="Ъ" horiz-adv-x="1567" d="M283 172h139l272 1180H395l-53-236H137l92 400h871l-39-164H901L795 883h276c61.332 0 118-9 170-27s96.832-43.667 134.5-77 67-73.5 88-120.5S1495 558.667 1495 500c0-70-14-135.333-42-196s-67.668-113.5-119-158.5S1220.832 65 1148.5 39 995 0 905 0H244zm473 539L630.995 172h307c49.333 0 94.833 7.5 136.5 22.5s77.834 36.5 108.5 64.5 54.835 61.833 72.502 101.5 26.5 84.167 26.5 133.5c0 62.667-21.167 114.5-63.5 155.5s-105.166 61.5-188.5 61.5H756z"/><glyph glyph-name="uni042B" unicode="Ы" horiz-adv-x="2044" d="M428 1516h491l-41-173H737L633 883h274c61.332 0 118-9 170-27s96.832-43.667 134.5-77 67-73.5 88-120.5S1331 558.667 1331 500c0-70-14-135.333-42-196s-67.668-113.5-119-158.5S1056.832 65 984.5 39 831 0 741 0H80l39 172h141l270 1171H387zm166-805L468.995 172h305c49.333 0 94.833 7.5 136.5 22.5s77.834 36.5 108.5 64.5 54.835 61.833 72.502 101.5 26.5 84.167 26.5 133.5c0 62.667-21.167 114.5-63.5 155.5S949.332 711 865.998 711H594zm1031 805h492l-41-173h-141L1667 172h139L1767 0h-492l39 172h144l270 1171h-143z"/><glyph glyph-name="uni042C" unicode="Ь" horiz-adv-x="1397" d="M422 1516h491l-41-173H731L627 883h274c61.332 0 118-9 170-27s96.832-43.667 134.5-77 67-73.5 88-120.5S1325 558.667 1325 500c0-70-14-135.333-42-196s-67.668-113.5-119-158.5S1050.832 65 978.5 39 825 0 735 0H74l39 172h141l270 1171H381zm166-805L462.995 172h305c49.333 0 94.833 7.5 136.5 22.5s77.834 36.5 108.5 64.5 54.835 61.833 72.502 101.5 26.5 84.167 26.5 133.5c0 62.667-21.167 114.5-63.5 155.5S943.332 711 859.998 711H588z"/></font>
</defs>
</svg>
