<?xml version="1.0" standalone="no"?>
<!DOCTYPE svg PUBLIC "-//W3C//DTD SVG 1.1//EN" "http://www.w3.org/Graphics/SVG/1.1/DTD/svg11.dtd" >
<svg>
<metadata>
Created by FontForge 20090914 at Wed Jul 16 10:34:36 2014
 By www-data
Copyright (c) 2013 Anton Koovit.
</metadata>
<defs>
<font id="Arvo" horiz-adv-x="1176" >
  <font-face 
    font-family="Arvo"
    font-weight="400"
    font-stretch="normal"
    units-per-em="2048"
    panose-1="2 6 6 3 4 2 2 9 3 4"
    ascent="1638"
    descent="-410"
    x-height="1036"
    cap-height="1516"
    bbox="-258.001 -506.001 2550 2079"
    underline-thickness="50"
    underline-position="-50"
    unicode-range="U+0020-U+FB02"
  />
<missing-glyph horiz-adv-x="1024" 
d="M102 0v1092h820v-1092h-820zM204 102h616v888h-616v-888z" />
    <glyph glyph-name=".notdef" horiz-adv-x="1024" 
d="M102 0v1092h820v-1092h-820zM204 102h616v888h-616v-888z" />
    <glyph glyph-name="space" unicode=" " horiz-adv-x="449" 
 />
    <glyph glyph-name="exclam" unicode="!" horiz-adv-x="682" 
d="M211 121c0 17.333 3.5 33.833 10.5 49.5s16.333 29.334 28 41.001s25.5 21 41.5 28s33 10.5 51 10.5c17.333 0 33.833 -3.5 49.5 -10.5s29.334 -16.333 41.001 -28s21 -25.334 28 -41.001s10.5 -32.167 10.5 -49.5c0 -18 -3.5 -35 -10.5 -51s-16.333 -30.167 -28 -42.5
s-25.334 -22 -41.001 -29s-32.167 -10.5 -49.5 -10.5c-18 0 -35 3.5 -51 10.5s-29.833 16.667 -41.5 29s-21 26.5 -28 42.5s-10.5 33 -10.5 51zM211 1577h260l-41 -1167h-178z" />
    <glyph glyph-name="quotedbl" unicode="&#x22;" horiz-adv-x="651" 
d="M251 1059h-169l-41 518h228zM588 1059h-169l-14 518h230z" />
    <glyph glyph-name="numbersign" unicode="#" horiz-adv-x="1423" 
d="M170 1198h252l63 318h191l-62 -318h351l63 318h191l-62 -318h225l-39 -199h-225l-81 -415h239l-37 -195h-240l-75 -389h-193l76 389h-351l-75 -389h-197l77 389h-241l41 195h239l82 415h-253zM494 584h351l81 415h-351z" />
    <glyph glyph-name="dollar" unicode="$" horiz-adv-x="1210" 
d="M516 -186l0.00488281 321.999c-66 10.667 -118.167 31 -156.5 61s-68.5 65.333 -90.5 106h-119v172h251v-11l2 1c0 -54 18.667 -95.167 56 -123.5s92.666 -42.5 165.999 -42.5c66.667 0 119.5 13 158.5 39s58.5 63 58.5 111c0 24.667 -6.5 45.334 -19.5 62.001
s-29.333 30.5 -49 41.5s-41.5 19.833 -65.5 26.5l-69 19l-176 47c-38 10 -73 23.167 -105 39.5s-59.5 36.5 -82.5 60.5s-40.833 52.333 -53.5 85s-19 70.667 -19 114c0 38.667 7 74.5 21 107.5s34.333 62.167 61 87.5s59.5 46.333 98.5 63s83.167 28.667 132.5 36v341h197
v-342c56.667 -10 105.667 -28 147 -54s74.666 -57 99.999 -93h101v-172h-209l-23 -3v3h-2v22c-6.66699 43.333 -28.334 78.333 -65.001 105s-85.334 40 -146.001 40c-72.667 0 -128 -11.833 -166 -35.5s-57 -56.167 -57 -97.5c0 -28 6.16699 -50.333 18.5 -67
s27.833 -30.167 46.5 -40.5s39.167 -18.333 61.5 -24s43.833 -11.5 64.5 -17.5l174 -53c44 -13.333 83.5 -28.5 118.5 -45.5s64.5 -36.833 88.5 -59.5s42.5 -49.167 55.5 -79.5s19.5 -65.833 19.5 -106.5c0 -41.333 -7.83301 -79.833 -23.5 -115.5
s-37.834 -67.5 -66.501 -95.5s-63.167 -51.667 -103.5 -71s-84.833 -33 -133.5 -41v-322h-197z" />
    <glyph glyph-name="percent" unicode="%" horiz-adv-x="1731" 
d="M75 1167c0 44.667 8.33301 87.167 25 127.5s40.167 75.666 70.5 105.999s66.5 54.333 108.5 72s88 26.5 138 26.5s96 -8.83301 138 -26.5s78 -41.667 108 -72s53.5 -65.666 70.5 -105.999s25.5 -82.833 25.5 -127.5c0 -45.333 -8.16699 -88 -24.5 -128
s-39.5 -75.333 -69.5 -106s-66 -54.834 -108 -72.501s-88.667 -26.5 -140 -26.5c-52 0 -99 8.83301 -141 26.5s-77.833 41.834 -107.5 72.501s-52.667 66 -69 106s-24.5 82.667 -24.5 128zM417 1335c-24 0 -46.5 -4.16699 -67.5 -12.5s-39.333 -20 -55 -35
s-28 -32.833 -37 -53.5s-13.5 -43 -13.5 -67c0 -23.333 4.5 -45.5 13.5 -66.5s21.333 -39.333 37 -55s34 -28 55 -37s43.5 -13.5 67.5 -13.5c23.333 0 45.333 4.5 66 13.5s38.667 21.167 54 36.5s27.5 33.5 36.5 54.5s13.5 43.5 13.5 67.5s-4.5 46.333 -13.5 67
s-21.167 38.5 -36.5 53.5s-33.333 26.667 -54 35s-42.667 12.5 -66 12.5zM1252 1540h195l-1041 -1556h-194zM941 323c0 44.667 8.33301 87 25 127s40.167 75.167 70.5 105.5s66.5 54.5 108.5 72.5s88 27 138 27s96 -9 138 -27s78.167 -42.167 108.5 -72.5
s53.833 -65.5 70.5 -105.5s25 -82.333 25 -127c0 -45.333 -8.16699 -88.166 -24.5 -128.499s-39.333 -75.666 -69 -105.999s-65.5 -54.5 -107.5 -72.5s-89 -27 -141 -27s-99 9 -141 27s-77.833 42.167 -107.5 72.5s-52.667 65.666 -69 105.999s-24.5 83.166 -24.5 128.499z
M1283 491c-23.333 0 -45.5 -4.33301 -66.5 -13s-39.333 -20.5 -55 -35.5s-28 -32.667 -37 -53s-13.5 -42.5 -13.5 -66.5c0 -23.333 4.5 -45.5 13.5 -66.5s21.333 -39.333 37 -55s34 -28 55 -37s43.167 -13.5 66.5 -13.5s45.333 4.5 66 13.5s38.667 21.167 54 36.5
s27.5 33.5 36.5 54.5s13.5 43.5 13.5 67.5s-4.5 46.167 -13.5 66.5s-21.167 38 -36.5 53s-33.333 26.833 -54 35.5s-42.667 13 -66 13z" />
    <glyph glyph-name="ampersand" unicode="&#x26;" horiz-adv-x="1468" 
d="M1288 -6l-236.003 228.004c-28 -34.667 -58.333 -66.334 -91 -95.001s-67.5 -53.5 -104.5 -74.5s-76.333 -37.333 -118 -49s-85.834 -17.5 -132.501 -17.5c-64.667 0 -125.167 11.333 -181.5 34s-105.333 53.667 -147 93s-74.5 85.833 -98.5 139.5s-36 111.5 -36 173.5
c0 40.667 6.16699 80.167 18.5 118.5s29.333 74.166 51 107.499s47 63.333 76 90s74.167 55.667 135.5 87l-66 64c-17.333 16 -34.166 34.333 -50.499 55s-30.666 43 -42.999 67s-22.333 49 -30 75s-11.5 51.667 -11.5 77c0 53.333 10.333 103 31 149s48.834 86 84.501 120
s77.5 60.833 125.5 80.5s99.333 29.5 154 29.5c58 0 111.833 -10.333 161.5 -31s92.5 -48.334 128.5 -83.001s64.333 -75 85 -121s31 -94 31 -144c0 -40 -4 -75.167 -12 -105.5s-19.333 -57.5 -34 -81.5s-32.167 -45.833 -52.5 -65.5s-42 -37.834 -65 -54.501
s-46.5 -31.834 -70.5 -45.501s-48.667 -26.834 -74 -39.501l306 -285c21.333 48.667 38.5 96.834 51.5 144.501s23.167 90.834 30.5 129.501h188c-11.333 -62.667 -28.666 -127.667 -51.999 -195s-53 -133.333 -89 -198l276 -256zM472.997 666.004
c-22.667 -9.33301 -43.1709 -22.1689 -61.5039 -38.502s-34.166 -35 -47.499 -56s-23.666 -43.667 -30.999 -68s-11 -48.833 -11 -73.5c0 -38.667 7.5 -74.5 22.5 -107.5s35.667 -61.5 62 -85.5s57.333 -42.833 93 -56.5s73.834 -20.5 114.501 -20.5
c34.667 0 67.334 4.33301 98.001 13s59.334 20.834 86.001 36.501s51.167 34.334 73.5 56.001s43.166 45.167 62.499 70.5l-380 367zM783.993 1026c17.333 18.667 32.001 40.167 44.001 64.5s18 49.833 18 76.5c0 28 -6.16699 55 -18.5 81s-28.833 49 -49.5 69
s-44.834 35.833 -72.501 47.5s-56.834 17.5 -87.501 17.5c-33.333 0 -63.5 -5.5 -90.5 -16.5s-50.167 -26.167 -69.5 -45.5s-34.333 -41.833 -45 -67.5s-16 -53.5 -16 -83.5c0 -28 6.83301 -57.5 20.5 -88.5s38.5 -63.5 74.5 -97.5l89 -83c39.333 17.333 76.333 36 111 56
s65.334 43.333 92.001 70z" />
    <glyph glyph-name="quotesingle" unicode="'" horiz-adv-x="340" 
d="M186 1059h-149v518l197 16z" />
    <glyph glyph-name="parenleft" unicode="(" horiz-adv-x="721" 
d="M530 -451c-60 74.667 -114 153.168 -162 235.501s-88.833 167.333 -122.5 255s-59.5 177.667 -77.5 270s-27 185.833 -27 280.5s9 188.167 27 280.5s43.833 182.166 77.5 269.499s74.5 172.166 122.5 254.499s102 160.833 162 235.5l138 -110
c-52.667 -66.667 -99.5 -137 -140.5 -211s-75.5 -150.333 -103.5 -229s-49.333 -159.167 -64 -241.5s-22 -165.166 -22 -248.499s7.33301 -166.166 22 -248.499s36 -163 64 -242s62.5 -155.333 103.5 -229s87.833 -143.834 140.5 -210.501z" />
    <glyph glyph-name="parenright" unicode=")" horiz-adv-x="721" 
d="M53 -340c52.667 66.667 99.5 136.833 140.5 210.5s75.5 150 103.5 229s49.333 159.667 64 242s22 165.166 22 248.499s-7.33301 166.166 -22 248.499s-36 162.833 -64 241.5s-62.5 155 -103.5 229s-87.833 144.333 -140.5 211l137 110
c60 -74.667 114 -153.167 162 -235.5s89 -167.166 123 -254.499s60 -177.166 78 -269.499s27 -185.833 27 -280.5s-9 -188.167 -27 -280.5s-44 -182.333 -78 -270s-75 -172.667 -123 -255s-102 -160.833 -162 -235.5z" />
    <glyph glyph-name="asterisk" unicode="*" horiz-adv-x="836" 
d="M483 1295l248 81l37 -119l-249 -80l157 -214l-109 -72l-149 206l-148 -204l-108 70l155 212l-258 82l39 125l252 -82v246h133v-251z" />
    <glyph glyph-name="plus" unicode="+" horiz-adv-x="1311" 
d="M143 791h420v419h182v-419h422v-183h-422v-422h-182v422h-420v183z" />
    <glyph glyph-name="comma" unicode="," horiz-adv-x="569" 
d="M205 283l219 -86l-260 -537l-144 53z" />
    <glyph glyph-name="hyphen" unicode="-" horiz-adv-x="737" 
d="M94 496v172h551v-172h-551z" />
    <glyph glyph-name="period" unicode="." horiz-adv-x="457" 
d="M96 121c0 17.333 3.5 33.833 10.5 49.5s16.5 29.334 28.5 41.001s25.833 21 41.5 28s32.5 10.5 50.5 10.5c17.333 0 33.833 -3.5 49.5 -10.5s29.334 -16.333 41.001 -28s21 -25.334 28 -41.001s10.5 -32.167 10.5 -49.5c0 -18 -3.5 -35 -10.5 -51
s-16.333 -30.167 -28 -42.5s-25.334 -22 -41.001 -29s-32.167 -10.5 -49.5 -10.5c-18 0 -34.833 3.5 -50.5 10.5s-29.5 16.667 -41.5 29s-21.5 26.5 -28.5 42.5s-10.5 33 -10.5 51z" />
    <glyph glyph-name="slash" unicode="/" horiz-adv-x="848" 
d="M637 1569h174l-600 -1598h-174z" />
    <glyph glyph-name="zero" unicode="0" horiz-adv-x="1329" 
d="M655 -18c-108 0 -198.33 19.999 -270.997 59.999s-130.834 95 -174.501 165s-74.834 152 -93.501 246s-28 195 -28 303c0 115.333 12.667 223.166 38 323.499s59.333 180.833 102 241.5s96.5 112.334 161.5 155.001s154.167 64 267.5 64
c107.333 0 196.666 -17 267.999 -51s130.166 -86.167 176.499 -156.5s78.833 -155.166 97.5 -254.499s28 -204.666 28 -315.999c0 -108.667 -9.33301 -210.334 -28 -305.001s-50.167 -177.167 -94.5 -247.5s-103.166 -125.833 -176.499 -166.5s-164.333 -61 -273 -61z
M655.003 159.999c78 0 140.832 15.833 188.499 47.5s83.667 74.834 108 129.501s42.5 118.5 54.5 191.5s18 150.833 18 233.5c0 79.333 -4.66699 155.5 -14 228.5s-27.333 137.5 -54 193.5s-64 100.667 -112 134s-110.333 50 -187 50c-79.333 0 -142 -16.667 -188 -50
s-80.333 -73.5 -103 -120.5s-40.5 -111.5 -53.5 -193.5s-19.5 -162.667 -19.5 -242c0 -82.667 4.16699 -160.5 12.5 -233.5s25.333 -136.833 51 -191.5s62.334 -97.834 110.001 -129.501s110.5 -47.5 188.5 -47.5z" />
    <glyph glyph-name="one" unicode="1" horiz-adv-x="858" 
d="M242 172h147v1109l-307 -167v209l422 236h80v-1387h149v-172h-491v172z" />
    <glyph glyph-name="two" unicode="2" horiz-adv-x="1100" 
d="M88 147l532.999 644.001l56.5 69c19.667 24.667 38 50.667 55 78s31 55.833 42 85.5s16.5 60.5 16.5 92.5c0 33.333 -6.66699 64.666 -20 93.999s-31.666 55 -54.999 77s-51.166 39.333 -83.499 52s-67.833 19 -106.5 19c-34.667 0 -67.5 -5.5 -98.5 -16.5
s-58.167 -27.167 -81.5 -48.5s-42.166 -47.833 -56.499 -79.5s-22.166 -68.167 -23.499 -109.5h-180c0.666992 63.333 13 121.833 37 175.5s56.167 100 96.5 139s87.166 69.333 140.499 91s109.333 32.5 168 32.5c68 0 129.667 -10.833 185 -32.5
s102.666 -51.5 141.999 -89.5s69.833 -83 91.5 -135s32.5 -108.333 32.5 -169c0 -24 -2.83301 -49.5 -8.5 -76.5s-15.334 -56 -29.001 -87s-31.667 -64.167 -54 -99.5s-50.5 -73.333 -84.5 -114l-473 -563h647v-176h-889v147z" />
    <glyph glyph-name="three" unicode="3" horiz-adv-x="1110" 
d="M780 1120c0 26 -5.50488 53.834 -16.5049 83.501s-28 57 -51 82s-52 45.667 -87 62s-76.167 24.5 -123.5 24.5c-39.333 0 -75.166 -6.83301 -107.499 -20.5s-64.5 -39.167 -96.5 -76.5s-49.333 -78.666 -52 -123.999h-190c3.33301 58 17.833 110.333 43.5 157
s58.167 87.667 97.5 123s85.333 63.333 138 84s107.667 31 165 31c71.333 0 136 -11.833 194 -35.5s107.5 -55 148.5 -94s72.667 -83.5 95 -133.5s33.5 -101 33.5 -153c0 -32 -4 -64 -12 -96s-20.5 -62.5 -37.5 -91.5s-38.833 -55.833 -65.5 -80.5s-59 -46.334 -97 -65.001
c31.333 -12 60.833 -28.833 88.5 -50.5s51.834 -47.5 72.501 -77.5s37 -64 49 -102s18 -79.667 18 -125c0 -65.333 -12.667 -125.833 -38 -181.5s-59.666 -103.834 -102.999 -144.501s-94.166 -72.5 -152.499 -95.5s-120.833 -34.5 -187.5 -34.5
c-61.333 0 -122.166 10.833 -182.499 32.5s-111.5 52.5 -153.5 92.5s-73 81.667 -93 125s-32 86.333 -36 129h192c19.333 -62 53.833 -110.667 103.5 -146s112.834 -53 189.501 -53c34.667 0 68.5 7 101.5 21s62.167 33.5 87.5 58.5s45.666 54.333 60.999 88
s23 70.5 23 110.5c0 42 -7.66699 80 -23 114s-36 62.833 -62 86.5s-56.167 42 -90.5 55s-70.833 19.5 -109.5 19.5h-86v151h70c44 0 83.5 6.5 118.5 19.5s64.5 30.833 88.5 53.5s42.5 49.167 55.5 79.5s19.5 62.833 19.5 97.5z" />
    <glyph glyph-name="four" unicode="4" horiz-adv-x="1251" 
d="M92 596l539 920h213l-513 -906h388v250l196 14v-264h226v-172h-226v-266h150v-172h-492v172h146v266h-629z" />
    <glyph glyph-name="five" unicode="5" horiz-adv-x="1139" 
d="M317 894c37.333 25.333 75.6631 44.499 114.996 57.499s84.333 19.5 135 19.5c74.667 0 143.334 -13.333 206.001 -40s116.5 -62.667 161.5 -108s80 -98.166 105 -158.499s37.5 -124.166 37.5 -191.499c0 -68 -12.333 -132.5 -37 -193.5s-59.667 -114.5 -105 -160.5
s-99.833 -82.5 -163.5 -109.5s-134.5 -40.5 -212.5 -40.5c-59.333 0 -114.666 7.83301 -165.999 23.5s-97.666 37.667 -138.999 66s-77.166 62.166 -107.499 101.499s-54.5 82.333 -72.5 129l164 82c10.667 -34 26.334 -65.5 47.001 -94.5s45 -54 73 -75s59 -37.333 93 -49
s70 -17.5 108 -17.5c48 0 92.5 8.83301 133.5 26.5s76.667 41.834 107 72.501s54.166 66.5 71.499 107.5s26 84.833 26 131.5c0 47.333 -8.66699 91.166 -26 131.499s-41.333 75.333 -72 105s-66.5 53 -107.5 70s-85.167 25.5 -132.5 25.5
c-53.333 0 -102.5 -9.5 -147.5 -28.5s-82.5 -44.5 -112.5 -76.5l-147 23v793h854v-166h-689v-456z" />
    <glyph glyph-name="six" unicode="6" horiz-adv-x="1249" 
d="M815 1516l-339.996 -566.998c40.667 17.333 77.5 27.333 110.5 30s62.5 4 88.5 4c61.333 0 120.666 -11.5 177.999 -34.5s108.166 -55.333 152.499 -97s79.833 -91.334 106.5 -149.001s40 -121.167 40 -190.5c0 -84.667 -14.333 -160 -43 -226
s-67.334 -121.667 -116.001 -167s-105.167 -79.833 -169.5 -103.5s-132.5 -35.5 -204.5 -35.5c-68 0 -133.5 12.333 -196.5 37s-118.833 59.167 -167.5 103.5s-87.5 97.666 -116.5 159.999s-43.5 131.5 -43.5 207.5c0 58.667 11.167 116.667 33.5 174
s50.166 117.333 83.499 180l371 674h233zM596.004 819.002c-48 0 -88.832 -7.50098 -122.499 -22.501s-65.5 -36 -95.5 -63s-53.667 -61.333 -71 -103s-26 -89.834 -26 -144.501c0 -52 8.66699 -98.667 26 -140s41.333 -76.166 72 -104.499s66.834 -50 108.501 -65
s86.834 -22.5 135.501 -22.5c45.333 0 88.666 8 129.999 24s77.666 38.667 108.999 68s56.333 64.333 75 105s28 85.667 28 135c0 54.667 -10 102.834 -30 144.501s-46.833 76.5 -80.5 104.5s-72.834 49 -117.501 63s-91.667 21 -141 21z" />
    <glyph glyph-name="seven" unicode="7" horiz-adv-x="1077" 
d="M182 172l117 -0.000976562c36 102.667 75.667 206.834 119 312.501l132 308.5l132 285.5l119 244.5h-568v-117h-192v310h995v-150l-138 -275.5l-142.5 -298.5l-136.5 -310c-44 -104.667 -84 -208 -120 -310h126v-172h-443v172z" />
    <glyph glyph-name="eight" unicode="8" horiz-adv-x="1276" 
d="M631 1544c57.333 0 111.502 -10.334 162.502 -31.001s95.833 -49 134.5 -85s69.167 -78.167 91.5 -126.5s33.5 -99.833 33.5 -154.5c0 -65.333 -15.333 -125.666 -46 -180.999s-71.667 -101 -123 -137c34 -20 65 -43.833 93 -71.5s52 -58 72 -91s35.5 -68.5 46.5 -106.5
s16.5 -77.333 16.5 -118c0 -63.333 -12.833 -122.666 -38.5 -177.999s-60.5 -103.833 -104.5 -145.5s-95.333 -74.5 -154 -98.5s-121.334 -36 -188.001 -36c-67.333 0 -130.666 12 -189.999 36s-111 56.833 -155 98.5s-78.833 90.167 -104.5 145.5
s-38.5 114.666 -38.5 177.999c0 40.667 5.5 80.167 16.5 118.5s26.667 74 47 107s44.666 63.333 72.999 91s59.833 51.5 94.5 71.5c-50.667 36.667 -90.834 82.5 -120.501 137.5s-44.5 114.833 -44.5 179.5c0 54.667 11 106.167 33 154.5s52.167 90.5 90.5 126.5
s83.5 64.333 135.5 85s107.667 31 167 31zM322.002 445.999c0 -39.333 8 -76.5 24 -111.5s37.833 -65.5 65.5 -91.5s60 -46.667 97 -62s76.5 -23 118.5 -23c41.333 0 80.333 7.66699 117 23s68.834 36 96.501 62s49.5 56.5 65.5 91.5s24 72.167 24 111.5
c0 38.667 -8 75.334 -24 110.001s-37.833 65 -65.5 91s-59.834 46.5 -96.501 61.5s-75.667 22.5 -117 22.5c-42 0 -81.5 -7.5 -118.5 -22.5s-69.333 -35.5 -97 -61.5s-49.5 -56.333 -65.5 -91s-24 -71.334 -24 -110.001zM377.002 1143c0 -33.333 6.33301 -64.5 19 -93.5
s30.334 -54.333 53.001 -76s49.5 -38.834 80.5 -51.501s64.833 -19 101.5 -19c34 0 66 6.33301 96 19s56.5 29.834 79.5 51.501s41.167 47 54.5 76s20 60.167 20 93.5c0 32.667 -6.66699 63.5 -20 92.5s-31.5 54.333 -54.5 76s-49.5 38.834 -79.5 51.501s-62 19 -96 19
c-36.667 0 -70.5 -6.33301 -101.5 -19s-57.833 -29.834 -80.5 -51.501s-40.334 -47 -53.001 -76s-19 -59.833 -19 -92.5z" />
    <glyph glyph-name="nine" unicode="9" horiz-adv-x="1270" 
d="M430 0l348.995 572c-33.333 -13.333 -63.666 -22.333 -90.999 -27s-56.666 -7 -87.999 -7c-58.667 0 -119.5 11.5 -182.5 34.5s-116.667 55.333 -161 97s-81 93 -110 154s-43.5 122.833 -43.5 185.5c0 84.667 14.333 160 43 226s67.334 121.667 116.001 167
s105.167 79.833 169.5 103.5s132.5 35.5 204.5 35.5s139.167 -12 201.5 -36s117.833 -58.5 166.5 -103.5s86.834 -98.667 114.501 -161s41.5 -131.5 41.5 -207.5c0 -58.667 -11.167 -116.667 -33.5 -174s-50.166 -117.333 -83.499 -180l-380 -679h-233zM630.995 1367
c-45.333 0 -88.667 -7.99902 -130 -23.999s-77.666 -38.667 -108.999 -68s-56.333 -64.333 -75 -105s-28 -85.667 -28 -135c0 -54.667 10 -102.834 30 -144.501s46.833 -76.5 80.5 -104.5s71.334 -49 113.001 -63s83.5 -21 125.5 -21c61.333 0 108.833 7.5 142.5 22.5
s65.5 36 95.5 63s53.667 61.333 71 103s26 89.834 26 144.501c0 52 -8.66699 98.667 -26 140s-41.333 76.166 -72 104.499s-66.834 50 -108.501 65s-86.834 22.5 -135.501 22.5z" />
    <glyph glyph-name="colon" unicode=":" horiz-adv-x="524" 
d="M96 907c0 17.333 3.5 33.833 10.5 49.5s16.5 29.334 28.5 41.001s25.833 21 41.5 28s32.5 10.5 50.5 10.5c17.333 0 33.833 -3.5 49.5 -10.5s29.334 -16.333 41.001 -28s21 -25.334 28 -41.001s10.5 -32.167 10.5 -49.5c0 -18 -3.5 -35 -10.5 -51s-16.333 -30 -28 -42
s-25.334 -21.667 -41.001 -29s-32.167 -11 -49.5 -11c-18 0 -34.833 3.66699 -50.5 11s-29.5 17 -41.5 29s-21.5 26 -28.5 42s-10.5 33 -10.5 51zM96 121c0 17.333 3.5 33.833 10.5 49.5s16.5 29.334 28.5 41.001s25.833 21 41.5 28s32.5 10.5 50.5 10.5
c17.333 0 33.833 -3.5 49.5 -10.5s29.334 -16.333 41.001 -28s21 -25.334 28 -41.001s10.5 -32.167 10.5 -49.5c0 -18 -3.5 -35 -10.5 -51s-16.333 -30.167 -28 -42.5s-25.334 -22 -41.001 -29s-32.167 -10.5 -49.5 -10.5c-18 0 -34.833 3.5 -50.5 10.5
s-29.5 16.667 -41.5 29s-21.5 26.5 -28.5 42.5s-10.5 33 -10.5 51z" />
    <glyph glyph-name="semicolon" unicode=";" horiz-adv-x="524" 
d="M96 907c0 17.333 3.5 33.833 10.5 49.5s16.5 29.334 28.5 41.001s25.833 21 41.5 28s32.5 10.5 50.5 10.5c17.333 0 33.833 -3.5 49.5 -10.5s29.334 -16.333 41.001 -28s21 -25.334 28 -41.001s10.5 -32.167 10.5 -49.5c0 -18 -3.5 -35 -10.5 -51s-16.333 -30 -28 -42
s-25.334 -21.667 -41.001 -29s-32.167 -11 -49.5 -11c-18 0 -34.833 3.66699 -50.5 11s-29.5 17 -41.5 29s-21.5 26 -28.5 42s-10.5 33 -10.5 51zM164 283l219 -86l-260 -537l-143 53z" />
    <glyph glyph-name="less" unicode="&#x3c;" horiz-adv-x="1001" 
d="M10 761l843 423v-185l-678 -315l678 -315v-185l-843 421v156z" />
    <glyph glyph-name="equal" unicode="=" horiz-adv-x="922" 
d="M86 446h750v-141h-750v141zM86 784h750v-141h-750v141z" />
    <glyph glyph-name="greater" unicode="&#x3e;" horiz-adv-x="1147" 
d="M1007 605l-843 -421v185l678 315l-678 315v185l843 -423v-156z" />
    <glyph glyph-name="question" unicode="?" horiz-adv-x="1065" 
d="M338 121c0 17.333 3.5 33.833 10.5 49.5s16.333 29.334 28 41.001s25.5 21 41.5 28s33 10.5 51 10.5c17.333 0 33.833 -3.5 49.5 -10.5s29.334 -16.333 41.001 -28s21 -25.334 28 -41.001s10.5 -32.167 10.5 -49.5c0 -18 -3.5 -35 -10.5 -51s-16.333 -30.167 -28 -42.5
s-25.334 -22 -41.001 -29s-32.167 -10.5 -49.5 -10.5c-18 0 -35 3.5 -51 10.5s-29.833 16.667 -41.5 29s-21 26.5 -28 42.5s-10.5 33 -10.5 51zM381 336c0 69.333 2.49902 128.167 7.49902 176.5s14.5 92.666 28.5 132.999s33.333 75.5 58 105.5s56.667 61.667 96 95
c35.333 30 67.5 56 96.5 78s53.833 43.5 74.5 64.5s36.667 43.667 48 68s17 53.833 17 88.5c0 30 -6 59 -18 87s-28.167 52.833 -48.5 74.5s-44.333 39.167 -72 52.5s-57.167 20 -88.5 20c-54 0 -99 -9.33301 -135 -28s-65 -41.167 -87 -67.5s-37.667 -54.166 -47 -83.499
s-14 -54.333 -14 -75l-176 12c3.33301 56 16.833 109 40.5 159s55.5 93.833 95.5 131.5s87.333 67.667 142 90s115 33.5 181 33.5c66.667 0 125.834 -11 177.501 -33s95.167 -51.333 130.5 -88s62 -79.167 80 -127.5s27 -98.833 27 -151.5c0 -68 -17.333 -130.667 -52 -188
s-86.334 -110 -155.001 -158c-31.333 -22 -67.166 -50.333 -107.499 -85s-69 -77.5 -86 -128.5s-26.833 -93.667 -29.5 -128s-4 -76.833 -4 -127.5h-180z" />
    <glyph glyph-name="at" unicode="@" horiz-adv-x="2310" 
d="M1589 956v-663.004c0 -40.667 5.83301 -71.334 17.5 -92.001s25.5 -35.834 41.5 -45.501s36.333 -14.5 61 -14.5c49.333 0 90.333 13.5 123 40.5s58.667 59.5 78 97.5s32.833 77.167 40.5 117.5s11.5 90.5 11.5 150.5c0 68 -9.66699 133.833 -29 197.5
s-46.5 123.667 -81.5 180s-77.167 108 -126.5 155s-104.333 87.333 -165 121s-126 59.834 -196 78.501s-143 28 -219 28c-75.333 0 -147.833 -9.66699 -217.5 -29s-134.667 -46.666 -195 -81.999s-115.333 -77.666 -165 -126.999s-92 -104.166 -127 -164.499
s-62.167 -125.166 -81.5 -194.499s-29 -141.333 -29 -216c0 -75.333 9.66699 -147.833 29 -217.5s46.5 -134.834 81.5 -195.501s77.333 -115.667 127 -165s104.667 -91.666 165 -126.999s125.333 -62.666 195 -81.999s142.167 -29 217.5 -29
c76.667 0 150.667 10.167 222 30.5s138 49.166 200 86.499l94 -157c-75.333 -46 -156.5 -81.5 -243.5 -106.5s-177.833 -37.5 -272.5 -37.5c-92 0 -180.667 11.833 -266 35.5s-165 57.167 -239 100.5s-141.5 95.5 -202.5 156.5s-113.167 128.5 -156.5 202.5
s-76.833 153.667 -100.5 239s-35.5 174 -35.5 266c0 91.333 11.833 179.5 35.5 264.5s57.167 164.5 100.5 238.5s95.5 141.333 156.5 202s128.5 112.667 202.5 156s153.667 76.833 239 100.5s174 35.5 266 35.5c93.333 0 182.833 -11.5 268.5 -34.5
s165.5 -55.167 239.5 -96.5s141.333 -91 202 -149s112.5 -122 155.5 -192s76.333 -144.833 100 -224.5s35.5 -162.167 35.5 -247.5c0 -45.333 -4.33301 -91 -13 -137s-21.667 -90 -39 -132s-38.5 -81.333 -63.5 -118s-54 -68.5 -87 -95.5s-69.5 -48.333 -109.5 -64
s-83.333 -23.5 -130 -23.5c-61.333 0 -112.666 13.333 -153.999 40s-73.666 61 -96.999 103c-42 -34.667 -89.333 -61.667 -142 -81s-109.334 -29 -170.001 -29c-70 0 -134.167 12.167 -192.5 36.5s-108.833 57.833 -151.5 100.5s-75.834 92.334 -99.501 149.001
s-35.5 117.667 -35.5 183c0 64.667 12.333 125.5 37 182.5s58.5 106.833 101.5 149.5s93.667 76.5 152 101.5s121.166 37.5 188.499 37.5c48.667 0 95.334 -6.66699 140.001 -20s86 -32.333 124 -57v83h184zM1141 194.996c62.667 0 116.668 14.499 162.001 43.499
s79.333 66.5 102 112.5v253c-11.333 23.333 -25.833 45 -43.5 65s-37.834 37.167 -60.501 51.5s-47.5 25.5 -74.5 33.5s-55.5 12 -85.5 12c-42.667 0 -82 -7.66699 -118 -23s-67.167 -36 -93.5 -62s-46.833 -56.5 -61.5 -91.5s-22 -71.833 -22 -110.5
c0 -39.333 7 -76.166 21 -110.499s33.833 -64.333 59.5 -90s56.667 -46 93 -61s76.833 -22.5 121.5 -22.5z" />
    <glyph glyph-name="A" unicode="A" horiz-adv-x="1542" 
d="M1040 172h126l-120 344h-583l-117 -344h156v-172h-492v172h132l472 1344h295l471 -1344h152v-172h-492v172zM520 682h468l-236 678z" />
    <glyph glyph-name="B" unicode="B" horiz-adv-x="1352" 
d="M143 172l143.998 0.000976562v1171h-144v175l682 -2c61.333 0 119 -11.5 173 -34.5s101 -54.333 141 -94s71.5 -86.5 94.5 -140.5s34.5 -112 34.5 -174c0 -64.667 -18 -123.667 -54 -177s-87.333 -96 -154 -128c32.667 -17.333 62.334 -37.5 89.001 -60.5
s49.334 -48.167 68.001 -75.5s33.167 -56.333 43.5 -87s15.5 -62 15.5 -94c0 -63.333 -11.5 -122.333 -34.5 -177s-54.5 -102.334 -94.5 -143.001s-86.833 -72.667 -140.5 -96s-111.167 -35 -172.5 -35h-691v172zM482.998 674.001l-0.000976562 -501.999h353
c32 0 61.667 8 89 24s51.333 36.833 72 62.5s36.834 54.834 48.501 87.501s17.5 66 17.5 100c0 29.333 -6 57.666 -18 84.999s-28.167 51.666 -48.5 72.999s-44.333 38.333 -72 51s-57.167 19 -88.5 19h-353zM482.997 1343l0.000976562 -495.002h344
c32 0 61.833 6.33301 89.5 19s51.667 29.667 72 51s36.5 46 48.5 74s18 57 18 87c0 32.667 -6 64.834 -18 96.501s-28.333 59.834 -49 84.501s-44.834 44.667 -72.501 60s-57.167 23 -88.5 23h-344z" />
    <glyph glyph-name="C" unicode="C" horiz-adv-x="1503" 
d="M1219 1116c-44.667 76 -103.83 135.665 -177.497 178.998s-155.834 65 -246.501 65c-77.333 0 -148 -16.333 -212 -49s-118.833 -76.5 -164.5 -131.5s-81.167 -118.667 -106.5 -191s-38 -148.5 -38 -228.5c0 -94.667 14 -178.5 42 -251.5s64.5 -133.667 109.5 -182
s98.5 -88.666 160.5 -120.999s131.667 -48.5 209 -48.5c105.333 0 197 25.5 275 76.5s144.667 134.833 200 251.5l176 -83c-25.333 -72 -68.333 -141.5 -129 -208.5s-135.5 -121 -224.5 -162s-187.5 -61.5 -295.5 -61.5c-103.333 0 -198.333 19.5 -285 58.5
s-163.834 94.5 -231.501 166.5s-119.334 157.333 -155.001 256s-53.5 201.667 -53.5 309c0 108 17.833 210 53.5 306s85.667 179.5 150 250.5s141 127 230 168s185.5 61.5 289.5 61.5c92.667 0 172.667 -13.167 240 -39.5s124.5 -57.666 171.5 -93.999
s87.5 -75.833 121.5 -118.5h106v-178h-215z" />
    <glyph glyph-name="D" unicode="D" horiz-adv-x="1520" 
d="M143 1516l564 0.00195312c69.333 0 135.333 -9 198 -27s121 -43.333 175 -76s103 -71.834 147 -117.501s81.5 -96.5 112.5 -152.5s54.833 -116.167 71.5 -180.5s25 -131.166 25 -200.499c0 -70.667 -8.33301 -138.334 -25 -203.001s-40.5 -125.334 -71.5 -182.001
s-68.5 -108.167 -112.5 -154.5s-93 -86 -147 -119s-112.333 -58.5 -175 -76.5s-128.667 -27 -198 -27h-564v172h144v1171h-144v173zM483 1343v-1171h236c70 0 135.833 15.333 197.5 46s115.5 72.5 161.5 125.5s82.333 115.333 109 187s40 148.834 40 231.501
c0 81.333 -13.333 157.333 -40 228s-63 132.167 -109 184.5s-99.833 93.5 -161.5 123.5s-127.5 45 -197.5 45h-236z" />
    <glyph glyph-name="E" unicode="E" horiz-adv-x="1286" 
d="M143 1516h1086v-429h-205v256h-541v-485h455v-172h-455v-514h541v256h205v-428h-1086v172h144v1171h-144v173z" />
    <glyph glyph-name="F" unicode="F" horiz-adv-x="1247" 
d="M143 1516h1086v-429h-205v256h-541v-487h521v-168h-521v-516h152v-172h-492v172h144v1171h-144v173z" />
    <glyph glyph-name="G" unicode="G" horiz-adv-x="1677" 
d="M1313 -6l0.00195312 304c-25.333 -52.667 -57 -98.5 -95 -137.5s-80.333 -71.167 -127 -96.5s-96.5 -44.333 -149.5 -57s-106.833 -19 -161.5 -19c-98.667 0 -189.667 16.5 -273 49.5s-158.833 85.5 -226.5 157.5s-119.334 157.333 -155.001 256s-53.5 201.667 -53.5 309
c0 108 17.833 210 53.5 306s85.667 179.667 150 251s141 127.333 230 168s185.5 61 289.5 61c96 0 178.5 -13.667 247.5 -41s128 -60.5 177 -99.5s88.167 -76.167 117.5 -111.5h97v-178h-215c-44.667 76 -103.834 136 -177.501 180s-156.167 65.333 -247.5 64
c-76.667 0 -147 -16.333 -211 -49s-118.833 -76.667 -164.5 -132s-81.167 -119 -106.5 -191s-38 -148 -38 -228c0 -88.667 14 -171 42 -247s63.667 -137.667 107 -185s96.833 -86.5 160.5 -117.5s134.167 -46.5 211.5 -46.5c128 0 233 31.167 315 93.5
s139.333 159.5 172 291.5h-424v172h641v-727h-186z" />
    <glyph glyph-name="H" unicode="H" horiz-adv-x="1843" 
d="M1208 1516h492v-172h-144v-1172h144v-172h-492v172h152v545h-877v-545h152v-172h-492v172h144v1172h-144v172h492v-172h-152v-459h877v459h-152v172z" />
    <glyph glyph-name="I" unicode="I" horiz-adv-x="770" 
d="M143 1516h484v-173h-144v-1171h144v-172h-484v172h144v1171h-144v173z" />
    <glyph glyph-name="J" unicode="J" horiz-adv-x="670" 
d="M135 1516h491.001v-173h-127v-1171c0 -14.667 -3.5 -31.834 -10.5 -51.501s-16 -40.5 -27 -62.5s-23.833 -44.5 -38.5 -67.5l-44 -67.5c-35.333 -51.333 -75.333 -105 -120 -161l-172 15c39.333 60 74.666 117.333 105.999 172l39 71.5c12.667 24.333 24 47.833 34 70.5
s18.167 43.834 24.5 63.501s9.5 36.5 9.5 50.5v1138h-165v173z" />
    <glyph glyph-name="K" unicode="K" horiz-adv-x="1563" 
d="M1147 1343v173h348v-173h-119l-664 -559l621 -612h162v-172h-408v172l-602 602zM145 1516h492v-173h-154v-1171h152v-172h-492v172h144v1171h-142v173z" />
    <glyph glyph-name="L" unicode="L" horiz-adv-x="1296" 
d="M143 1516h491.998v-173h-152v-1171h523c10.667 0 21.334 2.5 32.001 7.5s20.334 11.5 29.001 19.5s15.667 17.167 21 27.5s8 20.833 8 31.5v191h190v-449h-1143v172h144v1171h-144v173z" />
    <glyph glyph-name="M" unicode="M" horiz-adv-x="2175" 
d="M143 172h144v1153h-144v191h480l481 -1309l487 1309h455v-191h-143v-1153h143v-172h-492v172h162v1164l-530 -1336h-170l-537 1339v-1167h156v-172h-492v172z" />
    <glyph glyph-name="N" unicode="N" horiz-adv-x="1624" 
d="M1081 1516h492v-173h-129v-1343h-256l-705 1257v-1085h156v-172h-492v172h140v1171h-144v175h408l692 -1245l8 48v1022h-170v173z" />
    <glyph glyph-name="O" unicode="O" horiz-adv-x="1602" 
d="M799 -30c-104.667 0 -200.332 19.5 -286.999 58.5s-164 94.5 -232 166.5s-119.667 157.333 -155 256s-53 201 -53 307c0 109.333 17.833 212 53.5 308s85.667 179.5 150 250.5s141 127 230 168s186.833 61.5 293.5 61.5c107.333 0 205.666 -20.5 294.999 -61.5
s166 -97 230 -168s113.667 -154.5 149 -250.5s53 -198.667 53 -308s-17.833 -211.833 -53.5 -307.5s-85.667 -179.167 -150 -250.5s-141 -127.5 -230 -168.5s-186.833 -61.5 -293.5 -61.5zM799.002 156c79.333 0 151.169 16.332 215.502 48.999s119.166 76.5 164.499 131.5
s80.333 118.833 105 191.5s37 149.334 37 230.001c0 82.667 -13.5 162.5 -40.5 239.5s-64.667 142.167 -113 195.5s-104.5 94.5 -168.5 123.5s-130.667 43.5 -200 43.5c-79.333 0 -151.333 -16.333 -216 -49s-119.667 -76.5 -165 -131.5s-80.333 -119 -105 -192
s-37 -149.5 -37 -229.5c0 -93.333 13.667 -176.5 41 -249.5s63.5 -133.667 108.5 -182s98.667 -88.833 161 -121.5s133.166 -49 212.499 -49z" />
    <glyph glyph-name="P" unicode="P" horiz-adv-x="1272" 
d="M143 1516l613.001 -0.000976562c68 0 130.5 -8.83301 187.5 -26.5s106.333 -43.667 148 -78s74 -77.166 97 -128.499s34.5 -110.333 34.5 -177c0 -55.333 -11.333 -107.5 -34 -156.5s-54.667 -91.833 -96 -128.5s-90.833 -65.667 -148.5 -87s-121.834 -32 -192.501 -32
h-269v-530h152v-172h-492v172h144v1171h-144v173zM483.001 1343l-0.000976562 -477.001h273c38 0 72.833 5.16699 104.5 15.5s59 25.5 82 45.5s41 45 54 75s19.5 64.667 19.5 104c0 74.667 -22.667 132.834 -68 174.501s-117.666 62.5 -216.999 62.5h-248z" />
    <glyph glyph-name="Q" unicode="Q" horiz-adv-x="1597" 
d="M698 -24c-93.333 12.667 -178.499 41.6641 -255.499 86.9971s-143 102.833 -198 172.5s-97.5 149.167 -127.5 238.5s-45 184 -45 284c0 109.333 17.833 212 53.5 308s85.667 179.5 150 250.5s141 127 230 168s186.833 61.5 293.5 61.5
c107.333 0 205.666 -20.5 294.999 -61.5s166 -97 230 -168s113.667 -154.5 149 -250.5s53 -198.667 53 -308c0 -101.333 -15.5 -196.833 -46.5 -286.5s-74.5 -169.334 -130.5 -239.001s-123 -127.167 -201 -172.5s-164 -73.666 -258 -84.999
c43.333 -11.333 78 -24.666 104 -39.999s58.667 -32.833 98 -52.5s78.666 -29.5 117.999 -29.5c38 0 71.833 9.5 101.5 28.5s49.167 48.167 58.5 87.5l152 -69c-8 -37.333 -22.833 -70.166 -44.5 -98.499s-47 -52 -76 -71s-60.167 -33.167 -93.5 -42.5s-66 -14 -98 -14
c-51.333 0 -99.5 9.33301 -144.5 28s-92.167 41.334 -141.5 68.001s-96.666 40 -141.999 40c-27.333 0 -55.333 -4.33301 -84 -13v179zM799.001 155.997c79.333 0 151.168 16.3311 215.501 48.998s119.166 76.5 164.499 131.5s80.333 118.833 105 191.5
s37 149.334 37 230.001c0 82.667 -13.5 162.167 -40.5 238.5s-64.833 141.5 -113.5 195.5s-104 95.5 -166 124.5s-129.333 43.5 -202 43.5c-79.333 0 -151.333 -16.333 -216 -49s-119.667 -76.5 -165 -131.5s-80.333 -119 -105 -192s-37 -149.5 -37 -229.5
c0 -91.333 13.5 -173.666 40.5 -246.999s62.833 -134.5 107.5 -183.5s100.167 -89.833 166.5 -122.5s135.833 -49 208.5 -49z" />
    <glyph glyph-name="R" unicode="R" horiz-adv-x="1464" 
d="M143 1516l630.998 0.000976562c67.333 0 129.5 -8.83301 186.5 -26.5s106.333 -43.667 148 -78s74.167 -77.166 97.5 -128.499s35 -110.333 35 -177c0 -38 -6.83301 -75.5 -20.5 -112.5s-32.667 -71.333 -57 -103s-53.166 -59.834 -86.499 -84.501
s-69.666 -43.667 -108.999 -57c16.667 -7.33301 33.5 -17.833 50.5 -31.5s33 -30.334 48 -50.001s28.667 -42 41 -67s22.166 -51.833 29.499 -80.5l84 -330h131l2 -190h-295l-113 461c-20.667 82.667 -52.167 143.5 -94.5 182.5s-100.166 58.5 -173.499 58.5h-195v-530h152
v-172h-492v172h144v1171h-144v173zM482.998 1343v-477h291c38 0 72.833 5 104.5 15s59 25 82 45s41 44.833 54 74.5s19.5 64.167 19.5 103.5c0 75.333 -22.667 134 -68 176s-117.333 63 -216 63h-267z" />
    <glyph glyph-name="S" unicode="S" horiz-adv-x="1210" 
d="M888 1236c-21.333 29.333 -44.8271 51.8262 -70.4941 67.4932s-53.834 27.667 -84.501 36s-61.334 12.5 -92.001 12.5c-50.667 0 -95 -5.83301 -133 -17.5s-69.5 -27.5 -94.5 -47.5s-43.833 -43.333 -56.5 -70s-19 -54.667 -19 -84c0 -44 7.83301 -79.5 23.5 -106.5
s35.5 -48.667 59.5 -65s50.5 -29.166 79.5 -38.499l83.5 -28l202 -66c60.667 -19.333 114.167 -41.333 160.5 -66s85.166 -53.834 116.499 -87.501s55.166 -72.5 71.499 -116.5s24.5 -95 24.5 -153c0 -62.667 -12.833 -120.667 -38.5 -174s-61.5 -99.666 -107.5 -138.999
s-100.833 -70.166 -164.5 -92.499s-133.5 -33.5 -209.5 -33.5c-78 0 -144.667 8.83301 -200 26.5s-101.833 41.334 -139.5 71.001s-67.834 63.5 -90.501 101.5s-40.334 77 -53.001 117h-76v172h252c0 -74 7.83301 -126.333 23.5 -157s37.5 -56.167 65.5 -76.5
s61.333 -35.666 100 -45.999s81.334 -15.5 128.001 -15.5c45.333 0 86.166 5.33301 122.499 16s67.333 26.167 93 46.5s45.334 45 59.001 74s20.5 61.833 20.5 98.5c0 40.667 -8.5 75.167 -25.5 103.5s-38.833 52.5 -65.5 72.5s-55.834 36.333 -87.501 49
s-62.167 23.667 -91.5 33l-219 62c-48 14.667 -91.833 33.334 -131.5 56.001s-73.667 50.334 -102 83.001s-50.166 70.834 -65.499 114.501s-23 94.167 -23 151.5c0 58 11.333 112.333 34 163s56 95 100 133s97.833 67.833 161.5 89.5s136.5 32.5 218.5 32.5
c54 0 103.833 -6.33301 149.5 -19s87 -30.5 124 -53.5s69.667 -50.667 98 -83s52.166 -67.833 71.499 -106.5h75v-172h-245c0 58.667 -10.667 102.667 -32 132z" />
    <glyph glyph-name="T" unicode="T" horiz-adv-x="1434" 
d="M453 172h139v1180h-346v-236h-205v400h1352v-400h-205v236h-400v-1180h156v-172h-491v172z" />
    <glyph glyph-name="U" unicode="U" horiz-adv-x="1559" 
d="M63 1516l491.003 0.00292969v-173h-155v-706c0 -84.667 9.5 -156.834 28.5 -216.501s45.333 -108.334 79 -146.001s73.667 -65.167 120 -82.5s97.166 -26 152.499 -26c57.333 0 110 7.66699 158 23s89.167 41.166 123.5 77.499s61 84.666 80 144.999
s28.5 135.5 28.5 225.5v706h-164v173h491v-173h-135v-684c0 -109.333 -15.167 -206.333 -45.5 -291s-71.833 -155.667 -124.5 -213s-114.667 -100.833 -186 -130.5s-148 -44.5 -230 -44.5c-80 0 -154.833 14.667 -224.5 44s-130.334 72.333 -182.001 129
s-92.334 125.834 -122.001 207.501s-44.5 175.167 -44.5 280.5v702h-139v173z" />
    <glyph glyph-name="V" unicode="V" horiz-adv-x="1485" 
d="M1013 1516h492v-173h-131l-491 -1343h-275l-484 1343h-134v173h492v-173h-132l389 -1169l417 1169h-143v173z" />
    <glyph glyph-name="W" unicode="W" horiz-adv-x="2560" 
d="M2058 1516h492v-173h-132l-433 -1343h-306l-411 1321l-379 -1321h-303l-442 1343h-134v173h492v-173h-132l367 -1165l387 1338h299l412 -1338l374 1165h-151v173z" />
    <glyph glyph-name="X" unicode="X" horiz-adv-x="1552" 
d="M950 1516h492v-173h-112l-410 -569l428 -602h94v-172h-492v172h185l-324 451l-326 -451h177v-172h-492v172h99l432 603l-408 568h-123v173h492v-173h-146l295 -415l298 415h-159v173z" />
    <glyph glyph-name="Y" unicode="Y" horiz-adv-x="1354" 
d="M51 1516h492v-173h-144l285 -487l305 487h-158v173h492v-173h-129l-426 -646v-525h156v-172h-492v172h139v530l-402 641h-118v173z" />
    <glyph glyph-name="Z" unicode="Z" horiz-adv-x="1214" 
d="M1163 1292l-913 -1120h711v252h196v-424h-1106v227l900 1116h-687v-256h-196v429h1095v-224z" />
    <glyph glyph-name="bracketleft" unicode="[" horiz-adv-x="721" 
d="M238 1706h403v-151h-219v-1780h219v-152h-403v2083z" />
    <glyph glyph-name="backslash" unicode="\" horiz-adv-x="948" 
d="M41 1581h162l704 -1606h-162z" />
    <glyph glyph-name="bracketright" unicode="]" horiz-adv-x="721" 
d="M299 1555h-219v151h403v-2083h-403v152h219v1780z" />
    <glyph glyph-name="asciicircum" unicode="^" horiz-adv-x="1229" 
d="M672 1513l403 -790h-143l-315 626l-320 -626h-141l403 790h113z" />
    <glyph glyph-name="underscore" unicode="_" horiz-adv-x="1024" 
d="M0 -154h1024v-102h-1024v102z" />
    <glyph glyph-name="grave" unicode="`" horiz-adv-x="594" 
d="M387 1178l-287 282v17h248l184 -299h-145z" />
    <glyph glyph-name="a" unicode="a" horiz-adv-x="1120" 
d="M709 96c-39.333 -36.667 -82.833 -66.6699 -130.5 -90.0029s-101.834 -35 -162.501 -35c-50.667 0 -97.167 8 -139.5 24s-78.833 37.833 -109.5 65.5s-54.5 59.834 -71.5 96.501s-25.5 75.667 -25.5 117c0 44 6.5 83 19.5 117s30.333 63.5 52 88.5s47 46 76 63
s59.333 30.667 91 41s64 17.666 97 21.999s64.5 6.5 94.5 6.5c48 0 88.333 -1.5 121 -4.5s62.334 -7.16699 89.001 -12.5l1 85c0 36.667 -5.33301 68.5 -16 95.5s-25.667 49.333 -45 67s-42.5 30.834 -69.5 39.501s-57.167 13 -90.5 13c-31.333 0 -61.333 -2.16699 -90 -6.5
s-55.5 -10 -80.5 -17s-48 -15 -69 -24s-38.833 -18.5 -53.5 -28.5l-61 129c24.667 16 51.667 30.833 81 44.5s60.166 25.334 92.499 35.001s65.333 17.334 99 23.001s66.834 8.5 99.501 8.5c60 0 114 -7.16699 162 -21.5s88.667 -36.5 122 -66.5s59 -68.167 77 -114.5
s27 -101.833 27 -166.5l-1 -518h115v-172h-301v96zM457 126.997c24.667 0 49.334 2.99805 74.001 8.99805s48 14.167 70 24.5s42.333 22.333 61 36s34.334 27.834 47.001 42.501l1 234h-216c-36 0 -68.833 -4 -98.5 -12s-55.334 -19.667 -77.001 -35
s-38.5 -34.333 -50.5 -57s-18 -48.667 -18 -78c0 -27.333 5 -51.166 15 -71.499s24.167 -37.333 42.5 -51s40.166 -24 65.499 -31s53.333 -10.5 84 -10.5z" />
    <glyph glyph-name="b" unicode="b" horiz-adv-x="1253" 
d="M57 1556l336 0.000976562v-606c44 34 92 61 144 81s105.667 30 161 30c68 0 130.333 -12.667 187 -38s105.5 -61 146.5 -107s72.833 -101.167 95.5 -165.5s34 -135.5 34 -213.5c0 -83.333 -12.667 -158.833 -38 -226.5s-60.5 -125.834 -105.5 -174.501
s-98.5 -86.167 -160.5 -112.5s-130 -39.5 -204 -39.5c-51.333 0 -99.5 7.5 -144.5 22.5s-83.5 34.5 -115.5 58.5v-65h-186v1384h-150v172zM649 897.001c-48.667 0 -95.3311 -9.99805 -139.998 -29.998s-83.334 -47 -116.001 -81v-557c21.333 -22 52.666 -41.5 93.999 -58.5
s93.333 -25.5 156 -25.5c42.667 0 83.667 8 123 24s74 40.167 104 72.5s54 72.5 72 120.5s27 104 27 168c0 58.667 -8.5 110.667 -25.5 156s-40 83.666 -69 114.999s-62.833 55.166 -101.5 71.499s-80 24.5 -124 24.5z" />
    <glyph glyph-name="c" unicode="c" horiz-adv-x="1116" 
d="M848 760c-28 50 -63.502 86.6699 -106.502 110.003s-92.833 35 -149.5 35c-43.333 0 -84 -9 -122 -27s-71.167 -43.667 -99.5 -77s-50.666 -73.833 -66.999 -121.5s-24.5 -100.834 -24.5 -159.501c0 -58 8.16699 -110.333 24.5 -157s38.833 -86.5 67.5 -119.5
s61.834 -58.333 99.501 -76s78.167 -26.5 121.5 -26.5c64 0 119.667 15.5 167 46.5s85 76.5 113 136.5l154 -76c-20 -42.667 -44.667 -81 -74 -115s-62.5 -63 -99.5 -87s-77.667 -42.5 -122 -55.5s-91.166 -19.5 -140.499 -19.5c-72 0 -138.5 13.5 -199.5 40.5
s-113.667 64.833 -158 113.5s-78.833 106.667 -103.5 174s-37 141 -37 221s13 153.667 39 221s61.667 125.166 107 173.499s98.333 86.166 159 113.499s125.667 41 195 41c65.333 0 127.166 -11.333 185.499 -34s109.5 -57 153.5 -103h105v-172h-188z" />
    <glyph glyph-name="d" unicode="d" horiz-adv-x="1268" 
d="M711 1556h326.999v-1384h152v-172h-338v85c-33.333 -34 -72 -60.5 -116 -79.5s-94 -28.5 -150 -28.5c-70 0 -135.167 12.167 -195.5 36.5s-112.666 60 -156.999 107s-79 104.667 -104 173s-37.5 146.5 -37.5 234.5c0 80 12 152.833 36 218.5s58 121.667 102 168
s97 82.333 159 108s131 38.5 207 38.5c50 0 95.667 -5.5 137 -16.5s81 -30.167 119 -57.5v397h-141v172zM609.999 139c55.333 0 101.666 8.16504 138.999 24.498s71.666 40.833 102.999 73.5v580c-33.333 28 -71.666 48.333 -114.999 61s-87.666 19 -132.999 19
c-44 0 -85.333 -8.16699 -124 -24.5s-72.5 -40.166 -101.5 -71.499s-51.833 -69.666 -68.5 -114.999s-25 -97.333 -25 -156c0 -64 8 -120.333 24 -169s38.333 -89.5 67 -122.5s63 -57.833 103 -74.5s83.667 -25 131 -25z" />
    <glyph glyph-name="e" unicode="e" 
d="M276 494c0 -29.333 2.16602 -56.165 6.49902 -80.498s10.5 -47.5 18.5 -69.5c24.667 -66.667 64.167 -116.834 118.5 -150.501s115.833 -50.5 184.5 -50.5c54 0 106.5 7.5 157.5 22.5s104.5 38.5 160.5 70.5l75 -127c-68 -46.667 -136.333 -81.334 -205 -104.001
s-140 -34 -214 -34c-70 0 -134.833 11.667 -194.5 35s-111 58 -154 104s-76.667 103.333 -101 172s-36.5 148.667 -36.5 240c0 74 10.333 143.833 31 209.5s51.5 123 92.5 172s91.833 87.833 152.5 116.5s131.334 43 212.001 43c78 0 143.167 -11.833 195.5 -35.5
s95 -55 128 -94s58 -83.5 75 -133.5s28.833 -101 35.5 -153c3.33301 -25.333 5.5 -51 6.5 -77s1.5 -51.333 1.5 -76h-746zM566.999 907.001c-43.333 0 -81.1641 -6.16895 -113.497 -18.502s-59.833 -30 -82.5 -53s-40.834 -51.167 -54.501 -84.5
s-23.834 -70.666 -30.501 -111.999h537c-2.66699 38.667 -8.83398 74.334 -18.501 107.001s-24.5 61 -44.5 85s-45.667 42.667 -77 56s-70 20 -116 20z" />
    <glyph glyph-name="f" unicode="f" horiz-adv-x="745" 
d="M442 1036l239.999 0.00195312v-151h-240v-713h162v-172h-504v172h156v713h-171v151h171v162c1.33301 60 10 112.333 26 157s38.667 82 68 112s64.666 52.333 105.999 67s87.333 22 138 22c35.333 0 67 -1.66699 95 -5s53 -7.83301 75 -13.5s41.5 -11.834 58.5 -18.501
s32.167 -13.334 45.5 -20.001l-57 -133c-21.333 11.333 -49.166 21 -83.499 29s-70.166 12 -107.499 12c-55.333 0 -98.833 -17.167 -130.5 -51.5s-47.5 -84.833 -47.5 -151.5v-168z" />
    <glyph glyph-name="g" unicode="g" horiz-adv-x="1208" 
d="M858 91c-34 -36 -73.501 -63.999 -118.501 -83.999s-96.167 -30 -153.5 -30c-70 0 -135.167 12.167 -195.5 36.5s-112.666 60 -156.999 107s-79 104.667 -104 173s-37.5 146.5 -37.5 234.5c0 80 12 152.833 36 218.5s58 121.667 102 168s97 82.333 159 108
s131 38.5 207 38.5c52 0 98.833 -5.83301 140.5 -17.5s82.167 -31.834 121.5 -60.501v53h186v-995c0 -164 -38.833 -288 -116.5 -372s-198.5 -126 -362.5 -126c-36 0 -73.667 2.66699 -113 8s-78.166 13.833 -116.499 25.5s-75.666 26.5 -111.999 44.5s-69.833 40 -100.5 66
l100 151c20 -17.333 42.833 -33.333 68.5 -48s53.167 -27.167 82.5 -37.5s59.666 -18.5 90.999 -24.5s62.666 -9 93.999 -9c51.333 0 95.833 5.33301 133.5 16s68.667 29.5 93 56.5s42.5 63.5 54.5 109.5s18 104.333 18 175v15zM609.999 139.001
c30.667 0 58.666 2.99707 83.999 8.99707s48.333 13.833 69 23.5s38.834 20.834 54.501 33.501s29.167 26 40.5 40v567c-34 30 -73.167 51.667 -117.5 65s-89.833 20 -136.5 20c-44 0 -85.333 -8.16699 -124 -24.5s-72.5 -40.166 -101.5 -71.499
s-51.833 -69.666 -68.5 -114.999s-25 -97.333 -25 -156c0 -64 8 -120.333 24 -169s38.333 -89.5 67 -122.5s63 -57.833 103 -74.5s83.667 -25 131 -25z" />
    <glyph glyph-name="h" unicode="h" horiz-adv-x="1354" 
d="M114 1556l327.998 -0.000976562v-634h6c18.667 18.667 40.167 36.167 64.5 52.5s49.833 30.5 76.5 42.5s54.334 21.333 83.001 28s58.667 10 90 10c55.333 0 105.333 -7.66699 150 -23s82.667 -38.666 114 -69.999s55.5 -71.5 72.5 -120.5s25.5 -106.833 25.5 -173.5
v-496h156v-172h-492v172h142v473c0 79.333 -20.167 139.5 -60.5 180.5s-98.166 61.5 -173.499 61.5c-42.667 0 -86 -10.167 -130 -30.5s-85.333 -45.833 -124 -76.5v-608h150v-172h-492v172h156v1212h-142v172z" />
    <glyph glyph-name="i" unicode="i" horiz-adv-x="657" 
d="M92 1036h338v-864h156v-172h-492v172h148v692h-150v172zM207 1403c0 17.333 3.5 33.833 10.5 49.5s16.333 29.334 28 41.001s25.5 21 41.5 28s33 10.5 51 10.5c17.333 0 33.833 -3.5 49.5 -10.5s29.334 -16.333 41.001 -28s21 -25.334 28 -41.001
s10.5 -32.167 10.5 -49.5c0 -18 -3.5 -35 -10.5 -51s-16.333 -30.167 -28 -42.5s-25.334 -22 -41.001 -29s-32.167 -10.5 -49.5 -10.5c-18 0 -35 3.5 -51 10.5s-29.833 16.667 -41.5 29s-21 26.5 -28 42.5s-10.5 33 -10.5 51z" />
    <glyph glyph-name="j" unicode="j" horiz-adv-x="604" 
d="M84 1036l336 0.000976562v-1116c0 -59.333 -7.66699 -112.833 -23 -160.5s-37.5 -88.334 -66.5 -122.001s-64.5 -59.834 -106.5 -78.501s-90 -28.667 -144 -30l-19 139c59.333 8.66699 102.5 36.834 129.5 84.501s40.5 110.5 40.5 188.5v923h-147v172zM207 1403
c0 16 3.16699 31 9.5 45s14.833 26.333 25.5 37s23.167 19.167 37.5 25.5s29.833 9.5 46.5 9.5c16 0 31.167 -3.16699 45.5 -9.5s26.833 -14.833 37.5 -25.5s19.167 -23 25.5 -37s9.5 -29 9.5 -45c0 -16.667 -3.16699 -32.334 -9.5 -47.001s-14.833 -27.5 -25.5 -38.5
s-23.167 -19.667 -37.5 -26s-29.5 -9.5 -45.5 -9.5c-16.667 0 -32.167 3.16699 -46.5 9.5s-26.833 15 -37.5 26s-19.167 23.833 -25.5 38.5s-9.5 30.334 -9.5 47.001z" />
    <glyph glyph-name="k" unicode="k" horiz-adv-x="1276" 
d="M92 1556h365v-172h-2v-774h180l246 254h-62v172h393v-172h-131l-315 -325l344 -367h125v-172h-219l-424 463h-137v-291h86v-172h-443v172h170v1212h-176v172z" />
    <glyph glyph-name="l" unicode="l" horiz-adv-x="666" 
d="M92 1556h336v-1384h156v-172h-492v172h150v1212h-150v172z" />
    <glyph glyph-name="m" unicode="m" horiz-adv-x="2040" 
d="M100 1036l330.002 0.00195312v-121h2c22.667 19.333 46.5 37.5 71.5 54.5s51.167 31.833 78.5 44.5s55.833 22.667 85.5 30s60.5 11 92.5 11c74.667 0 139 -13.833 193 -41.5s95.667 -70.834 125 -129.501c25.333 22.667 52 44.5 80 65.5s57.167 39.167 87.5 54.5
s62.166 27.666 95.499 36.999s68 14 104 14c56 0 106.333 -7.66699 151 -23s82.667 -38.666 114 -69.999s55.166 -71.5 71.499 -120.5s24.5 -106.833 24.5 -173.5v-496h144v-172h-484v172h146v473c0 79.333 -20 139.5 -60 180.5s-97.667 61.5 -173 61.5
c-44.667 0 -90.334 -10.667 -137.001 -32s-86.667 -48.333 -120 -81v-602h143v-172h-483v172h146v473c0 79.333 -20.167 139.5 -60.5 180.5s-98.166 61.5 -173.499 61.5c-43.333 0 -87 -10.333 -131 -31s-85.667 -46.334 -125 -77.001v-607h146v-172h-484v172h144v692h-144
v172z" />
    <glyph glyph-name="n" unicode="n" horiz-adv-x="1366" 
d="M782 172l145.998 0.000976562v473c0 79.333 -20.167 139.5 -60.5 180.5s-98.166 61.5 -173.499 61.5c-43.333 0 -87 -10.333 -131 -31s-85.667 -46.334 -125 -77.001v-607h146v-172h-484v172h144v692h-144v172h330v-122h2c22 19.333 45.5 37.666 70.5 54.999
s51.167 32.333 78.5 45s55.833 22.667 85.5 30s60.834 11 93.501 11c55.333 0 105.333 -7.66699 150 -23s82.667 -38.666 114 -69.999s55.5 -71.5 72.5 -120.5s25.5 -106.833 25.5 -173.5v-496h144v-172h-484v172z" />
    <glyph glyph-name="o" unicode="o" horiz-adv-x="1219" 
d="M86 518c0.666992 82 13.8311 156.672 39.498 224.005s61.5 125.166 107.5 173.499s100.667 85.5 164 111.5s133 39 209 39c76.667 0 146.834 -13 210.501 -39s118.167 -62.833 163.5 -110.5s80.666 -105.167 105.999 -172.5s38 -142 38 -224
c0 -80.667 -12.667 -154.834 -38 -222.501s-60.666 -125.834 -105.999 -174.501s-99.833 -86.5 -163.5 -113.5s-133.834 -40.5 -210.501 -40.5c-78 0 -148.667 13.333 -212 40s-117.666 64.167 -162.999 112.5s-80.666 106.166 -105.999 173.499
s-38.333 141.666 -39 222.999zM282.997 518.005c0 -59.333 8.5 -113 25.5 -161s40.333 -88.833 70 -122.5s64 -59.667 103 -78s80.5 -27.5 124.5 -27.5c46 0 88.833 9 128.5 27s74.167 43.833 103.5 77.5s52.333 74.5 69 122.5s25 102 25 162
c0 62.667 -8.33301 118.334 -25 167.001s-39.5 89.334 -68.5 122.001s-63.5 57.334 -103.5 74.001s-83 25 -129 25c-44 0 -85.5 -8.33301 -124.5 -25s-73.333 -41.334 -103 -74.001s-53 -73.334 -70 -122.001s-25.5 -104.334 -25.5 -167.001z" />
    <glyph glyph-name="p" unicode="p" horiz-adv-x="1249" 
d="M59 1036h330v-86c44 34 92 61 144 81s105.667 30 161 30c68 0 130.333 -12.667 187 -38s105.5 -61 146.5 -107s72.833 -101.167 95.5 -165.5s34 -135.5 34 -213.5c0 -83.333 -12.667 -159.333 -38 -228s-60.5 -127.5 -105.5 -176.5s-98.5 -87.167 -160.5 -114.5
s-130 -41 -204 -41c-52.667 0 -99.5 5.5 -140.5 16.5s-80.167 25.167 -117.5 42.5v-335h162v-172h-492v172h142v1163h-144v172zM645 897c-48 0 -94.167 -9.66504 -138.5 -28.998s-82.833 -46 -115.5 -80v-561c22 -22.667 53.5 -43 94.5 -61s92.167 -27 153.5 -27
c42.667 0 83.667 8.33301 123 25s74 41.5 104 74.5s54 73.833 72 122.5s27 105 27 169c0 58.667 -8.5 110.667 -25.5 156s-40 83.666 -69 114.999s-62.833 55.166 -101.5 71.499s-80 24.5 -124 24.5z" />
    <glyph glyph-name="q" unicode="q" horiz-adv-x="1206" 
d="M698 -299h149.998v380c-33.333 -32.667 -71.666 -58.167 -114.999 -76.5s-92.333 -27.5 -147 -27.5c-70 0 -135.167 12.167 -195.5 36.5s-112.666 60 -156.999 107s-79 104.667 -104 173s-37.5 146.5 -37.5 234.5c0 80 12 152.833 36 218.5s58 121.667 102 168
s97 82.333 159 108s131 38.5 207 38.5c50 0 95 -5.5 135 -16.5s79 -29.167 117 -54.5v46h186v-1335h156v-172h-492v172zM609.998 139c56.667 0 104.667 9.33301 144 28s70.666 40.667 93.999 66v587c-33.333 27.333 -71.166 47 -113.499 59s-85.833 18 -130.5 18
c-44 0 -85.333 -8.16699 -124 -24.5s-72.5 -40.333 -101.5 -72s-51.833 -70.167 -68.5 -115.5s-25 -97 -25 -155c0 -64 8 -120.333 24 -169s38.333 -89.5 67 -122.5s63 -57.833 103 -74.5s83.667 -25 131 -25z" />
    <glyph glyph-name="r" unicode="r" horiz-adv-x="961" 
d="M845 817h-190v64c-22 0 -44.5 -4.16699 -67.5 -12.5s-44.5 -21 -64.5 -38s-37.5 -38.667 -52.5 -65s-25.833 -57.5 -32.5 -93.5v-500h176v-172h-514v172h143l1 692h-144v172h331v-143c12 21.333 25.5 41.166 40.5 59.499s31.667 34.333 50 48
s38.666 24.334 60.999 32.001s46.5 11.5 72.5 11.5h98c30.667 0 61.334 -0.666992 92.001 -2v-225z" />
    <glyph glyph-name="s" unicode="s" horiz-adv-x="993" 
d="M678.5 829.5c-13 19.667 -29.8311 35.668 -50.498 48.001s-43.667 21.333 -69 27s-50 8.5 -74 8.5c-26.667 0 -51.167 -3 -73.5 -9s-41.5 -14.667 -57.5 -26s-28.5 -25.166 -37.5 -41.499s-13.5 -34.5 -13.5 -54.5c0 -34.667 10.5 -62.167 31.5 -82.5
s56.167 -39.166 105.5 -56.499l199 -70c85.333 -28.667 147.666 -67.667 186.999 -117s59 -108.333 59 -177c0 -46 -9.16699 -88.167 -27.5 -126.5s-44.333 -71 -78 -98s-74.167 -48 -121.5 -63s-100 -22.5 -158 -22.5c-80.667 0 -146.334 13 -197.001 39
s-89.667 60.333 -117 103h-104v172h207c0 -28.667 6.16699 -53.167 18.5 -73.5s28.666 -36.833 48.999 -49.5s43.333 -22 69 -28s51.834 -9 78.501 -9c26 0 51 3.16699 75 9.5s45.167 15.666 63.5 27.999s32.833 27.166 43.5 44.499s16 37 16 59
c0 33.333 -10.833 61.666 -32.5 84.999s-58.5 44.333 -110.5 63l-198 74c-80.667 28.667 -140.5 65.167 -179.5 109.5s-58.5 99.833 -58.5 166.5c0 44 8.16699 84.667 24.5 122s40 69.5 71 96.5s68.833 48.167 113.5 63.5s95.667 23 153 23c74 0 136 -10.333 186 -31
s95 -56 135 -106h97v-172h-205c0 28 -6.5 51.833 -19.5 71.5z" />
    <glyph glyph-name="t" unicode="t" horiz-adv-x="762" 
d="M400 1036l243.001 0.000976562v-151h-245l-3 -598c0 -40.667 4.66699 -73.667 14 -99s24.333 -42.833 45 -52.5s44 -14.5 70 -14.5c28 0 52.667 2.5 74 7.5s44.666 13.5 69.999 25.5l43 -125c-32 -16.667 -65.667 -29.834 -101 -39.501s-77 -14.5 -125 -14.5
c-45.333 0 -84.833 5.5 -118.5 16.5s-62 29.5 -85 55.5s-40.167 60.833 -51.5 104.5s-17 98.167 -17 163.5l3 570h-165v151h167v248l182 86v-334z" />
    <glyph glyph-name="u" unicode="u" horiz-adv-x="1350" 
d="M724 1036l333.999 -0.000976562v-864h115v-172h-302v96c-46.667 -36 -97.5 -64 -152.5 -84s-113.833 -30 -176.5 -30c-52 0 -99.167 7.5 -141.5 22.5s-78.333 38.333 -108 70s-52.5 71.834 -68.5 120.501s-24 106.667 -24 174v495h-140v172h334v-645
c0 -79.333 18.333 -139.333 55 -180s89.334 -61 158.001 -61c40.667 0 83.5 7.33301 128.5 22s87.5 35 127.5 61v631h-139v172z" />
    <glyph glyph-name="v" unicode="v" horiz-adv-x="1100" 
d="M20 1036h358v-172h-97l256 -714l250 714h-63v172h328v-172h-89l-339 -880h-184l-338 880h-82v172z" />
    <glyph glyph-name="w" unicode="w" horiz-adv-x="1640" 
d="M20 1036h328v-172h-48l181 -661l248 833h156l237 -831l189 659h-60v172h328v-172h-89l-284 -880h-172l-235 827l-234 -827h-174l-282 880h-89v172z" />
    <glyph glyph-name="x" unicode="x" horiz-adv-x="1085" 
d="M694 172h59l-206 256l-201 -256h51v-172h-344v172h84l315 367l-296 325h-105v172h344v-172h-39l191 -246l193 246h-50v172h344v-172h-89l-293 -338l310 -354h76v-172h-344v172z" />
    <glyph glyph-name="y" unicode="y" 
d="M31 1036h393v-172h-123l243 -661l254 661h-122v172h393v-172h-107l-461 -1163h142v-172h-418v172h126l110 285l-346 878h-84v172z" />
    <glyph glyph-name="z" unicode="z" horiz-adv-x="924" 
d="M76 115l525 766h-331v-146h-184v301h741v-118l-524 -762h354v176h193v-332h-774v115z" />
    <glyph glyph-name="braceleft" unicode="{" horiz-adv-x="721" 
d="M133 723c28 0 52.5 7.66309 73.5 22.9961s38.5 35.5 52.5 60.5s24.5 53.5 31.5 85.5s10.5 64.667 10.5 98v452c0 42 6.16699 79.333 18.5 112s28.333 60.334 48 83.001s42.167 39.834 67.5 51.501s51 17.5 77 17.5h137v-126h-69c-36 0 -60.833 -17.5 -74.5 -52.5
s-20.5 -83.833 -20.5 -146.5v-428c0 -41.333 -4.33301 -78 -13 -110s-20.5 -60 -35.5 -84s-32.667 -44 -53 -60s-42.5 -28.333 -66.5 -37v-4c24 -8.66699 46.167 -21 66.5 -37s38 -36 53 -60s26.833 -52.167 35.5 -84.5s13 -68.833 13 -109.5v-418
c0 -62.667 6.83301 -111.5 20.5 -146.5s38.5 -52.5 74.5 -52.5h69v-127h-137c-26 0 -51.667 5.83301 -77 17.5s-47.833 28.834 -67.5 51.501s-35.667 50.334 -48 83.001s-18.5 70 -18.5 112v443c0 33.333 -3.5 65.833 -10.5 97.5s-17.5 60 -31.5 85s-31.5 45.167 -52.5 60.5
s-45.5 23 -73.5 23v127z" />
    <glyph glyph-name="bar" unicode="|" horiz-adv-x="455" 
d="M152 1726h155v-1996h-155v1996z" />
    <glyph glyph-name="braceright" unicode="}" horiz-adv-x="721" 
d="M72 -377v127.004h69c36 0 60.833 17.5 74.5 52.5s20.5 83.833 20.5 146.5v418c0 40.667 4.33301 77.167 13 109.5s20.5 60.5 35.5 84.5s32.667 44 53 60s42.166 28.333 65.499 37v4c-23.333 8.66699 -45.166 21 -65.499 37s-38 36 -53 60s-26.833 52 -35.5 84
s-13 68.667 -13 110v428c0 62.667 -6.83301 111.5 -20.5 146.5s-38.5 52.5 -74.5 52.5h-69v126h137c26 0 51.667 -5.83301 77 -17.5s47.833 -28.834 67.5 -51.501s35.667 -50.334 48 -83.001s18.5 -70 18.5 -112v-452c0 -33.333 3.5 -66 10.5 -98s17.5 -60.5 31.5 -85.5
s31.5 -45.167 52.5 -60.5s45.5 -23 73.5 -23v-127c-28 0 -52.5 -7.66699 -73.5 -23s-38.5 -35.5 -52.5 -60.5s-24.5 -53.333 -31.5 -85s-10.5 -64.167 -10.5 -97.5v-443c0 -42 -6.16699 -79.333 -18.5 -112s-28.333 -60.334 -48 -83.001s-42.167 -39.834 -67.5 -51.501
s-51 -17.5 -77 -17.5h-137z" />
    <glyph glyph-name="asciitilde" unicode="~" horiz-adv-x="1229" 
d="M141 483c30 56 65.333 99.333 106 130s90.667 46 150 46c38.667 0 78.5 -7.5 119.5 -22.5s80.833 -31.333 119.5 -49l109 -49c34 -15 63.667 -22.5 89 -22.5c28.667 0 57.5 11.5 86.5 34.5s60.167 62.167 93.5 117.5l73 -115c-30 -56 -65.167 -99.333 -105.5 -130
s-90.5 -46 -150.5 -46c-26 0 -52.333 3.5 -79 10.5s-53.5 15.833 -80.5 26.5s-53.333 22.167 -79 34.5l-74 34.5c-23.667 10.667 -46 19.5 -67 26.5s-39.833 10.5 -56.5 10.5c-28.667 0 -57.5 -11.333 -86.5 -34s-60.167 -61.667 -93.5 -117z" />
    <glyph glyph-name="NOBREAKSPACE" unicode="&#xa0;" horiz-adv-x="449" 
 />
    <glyph glyph-name="exclamdown" unicode="&#xa1;" horiz-adv-x="682" 
d="M211 1010c0 17.333 3.5 33.833 10.5 49.5s16.333 29.334 28 41.001s25.5 21 41.5 28s33 10.5 51 10.5c17.333 0 33.833 -3.5 49.5 -10.5s29.334 -16.333 41.001 -28s21 -25.334 28 -41.001s10.5 -32.167 10.5 -49.5c0 -18 -3.5 -35 -10.5 -51s-16.333 -30.167 -28 -42.5
s-25.334 -22 -41.001 -29s-32.167 -10.5 -49.5 -10.5c-18 0 -35 3.5 -51 10.5s-29.833 16.667 -41.5 29s-21 26.5 -28 42.5s-10.5 33 -10.5 51zM252 696h178l41 -1167h-260z" />
    <glyph glyph-name="cent" unicode="&#xa2;" horiz-adv-x="1210" 
d="M516 -186l0.00390625 329c-60 10.667 -114.833 31.334 -164.5 62.001s-92.334 69.5 -128.001 116.5s-63.334 101.167 -83.001 162.5s-29.5 128 -29.5 200c0 70.667 10.333 136.334 31 197.001s49 114.5 85 161.5s78.667 86.167 128 117.5s103 52.666 161 63.999v355h197
v-356c45.333 -9.33301 88 -24.333 128 -45s76 -48 108 -82h106v-172h-183l-4 -2c-0.666992 0 -1 0.666992 -1 2h-1v1c-28.667 49.333 -64.334 85.666 -107.001 108.999s-92.334 35 -149.001 35c-43.333 0 -84 -9 -122 -27s-71.167 -43.667 -99.5 -77
s-50.666 -73.833 -66.999 -121.5s-24.5 -100.834 -24.5 -159.501c0 -58 8.16699 -110.333 24.5 -157s38.833 -86.5 67.5 -119.5s61.834 -58.333 99.501 -76s78.167 -26.5 121.5 -26.5c64 0 119.833 15.5 167.5 46.5s85.5 76.167 113.5 135.5l153 -75
c-32.667 -70 -77.334 -128.167 -134.001 -174.5s-122.334 -77.166 -197.001 -92.499v-331h-197z" />
    <glyph glyph-name="sterling" unicode="&#xa3;" horiz-adv-x="932" 
d="M33 807l195.003 0.000976562c-17.333 46 -32.333 93.333 -45 142s-19 100.334 -19 155.001c0 52 9 99.667 27 143s43.333 80.666 76 111.999s71.667 55.666 117 72.999s95.666 26 150.999 26c49.333 0 94.666 -8.83301 135.999 -26.5s76.666 -42.167 105.999 -73.5
s51.5 -68.666 66.5 -111.999s21.167 -90.666 18.5 -141.999l-166 -10c-0.666992 25.333 -4.5 50 -11.5 74s-17.167 45.333 -30.5 64s-29.833 33.667 -49.5 45s-42.167 17 -67.5 17c-28.667 0 -54 -4.16699 -76 -12.5s-40.5 -19.666 -55.5 -33.999
s-26.667 -31.166 -35 -50.499s-13.166 -40 -14.499 -62c-1.33301 -16.667 -1.33301 -32.834 0 -48.501s3.66602 -32 6.99902 -49s8 -35.5 14 -55.5l20 -67c4.66699 -18 9.66699 -36 15 -54l16 -54h279v-145h-234c9.33301 -28.667 17.5 -55.834 24.5 -81.501l18.5 -70.5
c6 -25.333 7.5 -53 4.5 -83s-10.333 -60.333 -22 -91s-27.834 -60.167 -48.501 -88.5s-46 -53.5 -76 -75.5h486v-168h-799v168h110c40.667 23.333 73.334 51.166 98.001 83.499s42 67.666 52 105.999s13.167 79.333 9.5 123s-13.5 88.167 -29.5 133.5l-16 44h-252v145z" />
    <glyph glyph-name="currency" unicode="&#xa4;" horiz-adv-x="1128" 
d="M125 743c0 52.667 8.5 102.666 25.5 149.999s40.5 90 70.5 128l-147 177l145 123l149 -179c30.667 16 63.167 28.333 97.5 37s70.166 13 107.499 13c36.667 0 72 -4.33301 106 -13s66.333 -20.667 97 -36l137 164l160 -115l-145 -174c30 -38 53.167 -80.333 69.5 -127
s24.5 -96 24.5 -148c0 -51.333 -8 -100 -24 -146s-38.667 -88 -68 -126l147 -176l-151 -119l-143 171c-32 -16.667 -65.5 -29.5 -100.5 -38.5s-71.5 -13.5 -109.5 -13.5s-74.167 4.33301 -108.5 13s-67.166 21 -98.499 37l-145 -175l-166 111l164 190
c-30.667 38.667 -54 80.834 -70 126.501s-24 94.167 -24 145.5zM295 747.999c0 -39.333 7.33301 -76 22 -110s34.667 -63.667 60 -89s55 -45.333 89 -60s70.333 -22 109 -22s75.167 7.33301 109.5 22s64.166 34.667 89.499 60s45.333 55 60 89s22 70.667 22 110
c0 38.667 -7.33301 75 -22 109s-34.667 63.667 -60 89s-55.166 45.333 -89.499 60s-70.833 22 -109.5 22s-75 -7.33301 -109 -22s-63.667 -34.667 -89 -60s-45.333 -55 -60 -89s-22 -70.333 -22 -109z" />
    <glyph glyph-name="yen" unicode="&#xa5;" horiz-adv-x="1354" 
d="M51 1516h492v-172h-145l286 -488l305 488h-157v172h492v-172h-129l-328 -496h184v-141h-283v-148h283v-141h-283v-246h156v-172h-492v172h139v246h-270v141h270v148h-270v141h178l-311 496h-117v172z" />
    <glyph glyph-name="brokenbar" unicode="&#xa6;" horiz-adv-x="512" 
d="M152 1729h155v-750h-155v750zM152 481h155v-749h-155v749z" />
    <glyph glyph-name="section" unicode="&#xa7;" horiz-adv-x="1094" 
d="M74 -25l236.999 -0.000976562v-24c0 -36.667 6 -69.667 18 -99s29.167 -54.5 51.5 -75.5s49.333 -37.167 81 -48.5s66.834 -17 105.501 -17c69.333 0 123.5 18.167 162.5 54.5s58.5 86.5 58.5 150.5c0 35.333 -6.16699 65.666 -18.5 90.999s-28 46.666 -47 63.999
s-40.5 31.5 -64.5 42.5s-47.333 20.167 -70 27.5l-91 28l-91 28c-42.667 12.667 -81.834 29 -117.501 49s-66.334 44.5 -92.001 73.5s-45.667 63 -60 102s-21.5 84.167 -21.5 135.5c0 68.667 16.167 131 48.5 187s79.5 101.333 141.5 136c-44 32 -79.833 73.667 -107.5 125
s-41.5 113 -41.5 185c0 52 9.16699 99.833 27.5 143.5s45.5 81.334 81.5 113.001s80.333 56.5 133 74.5s113.334 27 182.001 27c54.667 0 104.5 -5.83301 149.5 -17.5s84.833 -28 119.5 -49s63.667 -45.833 87 -74.5s40.666 -60 51.999 -94h65v-166h-232v56v0v0v0
c-5.33301 26.667 -16 50.334 -32 71.001s-35.167 38.167 -57.5 52.5s-47 25.166 -74 32.499s-54.5 11 -82.5 11c-38 0 -70.833 -4.16699 -98.5 -12.5s-50.5 -20 -68.5 -35s-31.5 -32.667 -40.5 -53s-13.5 -42.833 -13.5 -67.5c0 -30.667 5.83301 -57.167 17.5 -79.5
s26.667 -41.666 45 -57.999s39 -30 62 -41s45.833 -20.5 68.5 -28.5l144 -51.5c44.667 -16.333 85.5 -33.166 122.5 -50.499s70 -36.166 99 -56.499s53.5 -43.5 73.5 -69.5s35.167 -55.5 45.5 -88.5s15.5 -71.5 15.5 -115.5c0 -70.667 -17.5 -134.5 -52.5 -191.5
s-82.833 -103.5 -143.5 -139.5c46.667 -33.333 82.334 -74.5 107.001 -123.5s37 -109.167 37 -180.5c0 -57.333 -10.833 -110.333 -32.5 -159s-51.834 -90.834 -90.501 -126.501s-84.667 -63.5 -138 -83.5s-111.666 -30 -174.999 -30
c-65.333 0 -121.666 7.66699 -168.999 23s-87.333 36 -120 62s-59.167 56 -79.5 90s-35.833 69.333 -46.5 106h-70v165zM312.999 566.999c0 -36 6.83398 -65 20.501 -87s31.167 -39.833 52.5 -53.5s57.666 -28.5 108.999 -44.5l104 -38c74 2.66699 132.667 22.5 176 59.5
s65 86.833 65 149.5c0 34 -7.33301 62.833 -22 86.5s-33.5 43.667 -56.5 60s-48.5 29.833 -76.5 40.5s-55.667 19.667 -83 27c-14 -0.666992 -23 -1 -27 -1c-43.333 0 -81.333 -5.16699 -114 -15.5s-60 -24.5 -82 -42.5s-38.5 -39 -49.5 -63s-16.5 -50 -16.5 -78z" />
    <glyph glyph-name="dieresis" unicode="&#xa8;" horiz-adv-x="612" 
d="M39 1360c0 17.333 3.5 33.833 10.5 49.5s16.333 29.334 28 41.001s25.334 21 41.001 28s32.167 10.5 49.5 10.5c16.667 0 32.667 -3.5 48 -10.5s28.666 -16.333 39.999 -28s20.333 -25.334 27 -41.001s10 -32.167 10 -49.5c0 -18 -3.33301 -35 -10 -51
s-15.667 -30.167 -27 -42.5s-24.666 -22 -39.999 -29s-31.333 -10.5 -48 -10.5c-17.333 0 -33.833 3.5 -49.5 10.5s-29.334 16.667 -41.001 29s-21 26.5 -28 42.5s-10.5 33 -10.5 51zM498 1360c0 17.333 3.5 33.833 10.5 49.5s16.333 29.334 28 41.001s25.334 21 41.001 28
s32.167 10.5 49.5 10.5c16.667 0 32.5 -3.5 47.5 -10.5s28.333 -16.333 40 -28s20.834 -25.334 27.501 -41.001s10 -32.167 10 -49.5c0 -18 -3.33301 -35 -10 -51s-15.834 -30.167 -27.501 -42.5s-25 -22 -40 -29s-30.833 -10.5 -47.5 -10.5
c-17.333 0 -33.833 3.5 -49.5 10.5s-29.334 16.667 -41.001 29s-21 26.5 -28 42.5s-10.5 33 -10.5 51z" />
    <glyph glyph-name="copyright" unicode="&#xa9;" horiz-adv-x="1919" 
d="M102 831c0 78.667 10.167 154.5 30.5 227.5s49 141.167 86 204.5s81.5 121 133.5 173s109.667 96.5 173 133.5s131.5 65.667 204.5 86s149.167 30.5 228.5 30.5c78.667 0 154.667 -10.167 228 -30.5s141.833 -49 205.5 -86s121.667 -81.5 174 -133.5
s97.166 -109.667 134.499 -173s66.166 -131.5 86.499 -204.5s30.5 -148.833 30.5 -227.5c0 -79.333 -10.167 -155.5 -30.5 -228.5s-49.166 -141.167 -86.499 -204.5s-82.166 -121 -134.499 -173s-110.333 -96.5 -174 -133.5s-132.167 -65.667 -205.5 -86
s-149.333 -30.5 -228 -30.5c-79.333 0 -155.5 10.167 -228.5 30.5s-141.167 49 -204.5 86s-121 81.5 -173 133.5s-96.5 109.667 -133.5 173s-65.667 131.5 -86 204.5s-30.5 149.167 -30.5 228.5zM283 831c0 -94.667 17.5 -183.167 52.5 -265.5s83 -154 144 -215
s132.5 -109 214.5 -144s170 -52.5 264 -52.5s181.833 17.5 263.5 52.5s153.334 83 215.001 144s110 132.667 145 215s52.5 170.833 52.5 265.5c0 93.333 -17.5 183.166 -52.5 269.499s-83.333 158.166 -145 215.499s-133.334 103.5 -215.001 138.5s-169.5 52.5 -263.5 52.5
s-182 -17.5 -264 -52.5s-153.5 -81.167 -214.5 -138.5s-109 -129.166 -144 -215.499s-52.5 -176.166 -52.5 -269.499zM1190 1059c-32 30.667 -65.499 53.002 -100.499 67.002s-71.833 21 -110.5 21c-42.667 0 -82.667 -8.16699 -120 -24.5s-69.833 -38.833 -97.5 -67.5
s-49.5 -62 -65.5 -100s-24 -78.333 -24 -121s8 -82.667 24 -120s37.833 -70 65.5 -98s60.167 -50 97.5 -66s77.333 -24 120 -24c37.333 0 73.5 7.5 108.5 22.5s62.833 34.167 83.5 57.5l134 -129c-15.333 -20 -35 -38.833 -59 -56.5s-50.333 -33 -79 -46
s-59.167 -23.333 -91.5 -31s-64.5 -11.5 -96.5 -11.5c-70 0 -135.5 13 -196.5 39s-114.167 61.667 -159.5 107s-81 98.5 -107 159.5s-39 126.5 -39 196.5c0 69.333 13 134.5 39 195.5s61.667 114.333 107 160s98.5 81.667 159.5 108s126.5 39.5 196.5 39.5
c38.667 0 75.167 -4.16699 109.5 -12.5s66.333 -19.333 96 -33s56.667 -29.334 81 -47.001s46.166 -35.834 65.499 -54.501z" />
    <glyph glyph-name="ordfeminine" unicode="&#xaa;" horiz-adv-x="838" 
d="M551 942c-28 -22.667 -58.0029 -40.833 -90.0029 -54.5s-69 -20.5 -111 -20.5c-36.667 0 -70.167 5.33301 -100.5 16s-56.5 25.334 -78.5 44.001s-39 40.5 -51 65.5s-18 51.5 -18 79.5c0 38.667 9 71.834 27 99.501s41.333 50.167 70 67.5s60.834 30 96.501 38
s70.834 12 105.501 12c31.333 0 59.166 -1.33301 83.499 -4s46.5 -6 66.5 -10v49c0 45.333 -14.167 78.166 -42.5 98.499s-65.5 30.5 -111.5 30.5c-43.333 0 -82.333 -4.5 -117 -13.5s-63.667 -20.167 -87 -33.5l-50 96c38 23.333 80.833 42.166 128.5 56.499
s95.834 21.5 144.501 21.5c42.667 0 81.334 -4.83301 116.001 -14.5s64.167 -24.5 88.5 -44.5s43 -45.833 56 -77.5s19.5 -69.5 19.5 -113.5v-313h82v-131h-227v56zM374.997 984.001c36 0 69.833 6.66992 101.5 20.0029s56.5 29 74.5 47v136h-156
c-21.333 0 -41.333 -2.33301 -60 -7s-34.667 -11.334 -48 -20.001s-23.833 -19.334 -31.5 -32.001s-11.5 -27.334 -11.5 -44.001c0 -32.667 11.833 -57.5 35.5 -74.5s55.5 -25.5 95.5 -25.5z" />
    <glyph glyph-name="guillemotleft" unicode="&#xab;" horiz-adv-x="1040" 
d="M514 172h-192l-220 393l220 393h192l-229 -393zM938 172h-193l-219 393l219 393h193l-229 -393z" />
    <glyph glyph-name="logicalnot" unicode="&#xac;" horiz-adv-x="1214" 
d="M1143 999v-567h-182v383h-912v184h1094z" />
    <glyph glyph-name="SOFTHYPHEN" unicode="&#xad;" horiz-adv-x="0" 
 />
    <glyph glyph-name="registered" unicode="&#xae;" horiz-adv-x="1919" 
d="M102 831c0 78.667 10.167 154.5 30.5 227.5s49 141.167 86 204.5s81.5 121 133.5 173s109.667 96.5 173 133.5s131.5 65.667 204.5 86s149.167 30.5 228.5 30.5c78.667 0 154.667 -10.167 228 -30.5s141.833 -49 205.5 -86s121.667 -81.5 174 -133.5
s97.166 -109.667 134.499 -173s66.166 -131.5 86.499 -204.5s30.5 -148.833 30.5 -227.5c0 -79.333 -10.167 -155.5 -30.5 -228.5s-49.166 -141.167 -86.499 -204.5s-82.166 -121 -134.499 -173s-110.333 -96.5 -174 -133.5s-132.167 -65.667 -205.5 -86
s-149.333 -30.5 -228 -30.5c-79.333 0 -155.5 10.167 -228.5 30.5s-141.167 49 -204.5 86s-121 81.5 -173 133.5s-96.5 109.667 -133.5 173s-65.667 131.5 -86 204.5s-30.5 149.167 -30.5 228.5zM283 831c0 -94.667 17.5 -183.17 52.5 -265.503s83 -154 144 -215
s132.5 -109 214.5 -144s170 -52.5 264 -52.5s181.833 17.5 263.5 52.5s153.334 83 215.001 144s110 132.667 145 215s52.5 170.833 52.5 265.5c0 62.667 -17.5 144.834 -52.5 246.501s-83.333 181.167 -145 238.5s-133.334 103.5 -215.001 138.5s-169.5 52.5 -263.5 52.5
s-182 -17.5 -264 -52.5s-153.5 -81.167 -214.5 -138.5s-109 -129.166 -144 -215.499s-52.5 -176.166 -52.5 -269.499zM555 517.997l98.001 0.00390625v670h-102v158h483c48.667 0 92.667 -7 132 -21s72.666 -33.333 99.999 -58s48.5 -53.834 63.5 -87.501
s22.5 -69.834 22.5 -108.501c0 -32.667 -3.33301 -61.667 -10 -87s-16.834 -47.833 -30.501 -67.5s-30.5 -36.834 -50.5 -51.501s-43 -27.667 -69 -39c20.667 -11.333 39.167 -28.833 55.5 -52.5s28.5 -52.834 36.5 -87.501l41 -168h82l2 -158h-256l-51 254
c-9.33301 56 -30.666 96.333 -63.999 121s-76.333 37 -129 37h-67v-254h92v-158h-379v158zM842.001 1188l0.000976562 -259.999h143c49.333 0 88.666 10.167 117.999 30.5s44 53.166 44 98.499c0 41.333 -13.833 73.5 -41.5 96.5s-70.5 34.5 -128.5 34.5h-135z" />
    <glyph glyph-name="macron" unicode="&#xaf;" horiz-adv-x="797" 
d="M797 1229h-758v117h758v-117z" />
    <glyph glyph-name="degree" unicode="&#xb0;" horiz-adv-x="682" 
d="M340 1737c32.667 0 63.5 -6.33301 92.5 -19s54.5 -30 76.5 -52s39.333 -47.5 52 -76.5s19 -59.833 19 -92.5s-6.33301 -63.334 -19 -92.001s-30 -53.834 -52 -75.501s-47.5 -38.667 -76.5 -51s-59.833 -18.5 -92.5 -18.5s-63.5 6.16699 -92.5 18.5
s-54.167 29.333 -75.5 51s-38.333 46.834 -51 75.501s-19 59.334 -19 92.001s6.33301 63.5 19 92.5s29.667 54.5 51 76.5s46.5 39.333 75.5 52s59.833 19 92.5 19zM205 1497c0 -18.667 3.5 -36.167 10.5 -52.5s16.667 -30.666 29 -42.999s26.666 -22 42.999 -29
s33.833 -10.5 52.5 -10.5s36.167 3.5 52.5 10.5s30.833 16.667 43.5 29s22.667 26.666 30 42.999s11 33.833 11 52.5s-3.66699 36.167 -11 52.5s-17.333 30.833 -30 43.5s-27.167 22.667 -43.5 30s-33.833 11 -52.5 11s-36.167 -3.66699 -52.5 -11
s-30.666 -17.333 -42.999 -30s-22 -27.167 -29 -43.5s-10.5 -33.833 -10.5 -52.5z" />
    <glyph glyph-name="plusminus" unicode="&#xb1;" horiz-adv-x="1229" 
d="M102 893h420v420h183v-420h421v-182h-421v-402h-183v402h-420v182zM102 162h1024v-162h-1024v162z" />
    <glyph glyph-name="twosuperior" unicode="&#xb2;" horiz-adv-x="676" 
d="M55 944l274.996 276.998c20.667 21.333 39.5 43.833 56.5 67.5s25.5 48.167 25.5 73.5c0 12.667 -2.66699 24.834 -8 36.501s-13 21.834 -23 30.501s-22.167 15.667 -36.5 21s-30.166 8 -47.499 8c-35.333 0 -63.666 -10 -84.999 -30s-32.666 -46 -33.999 -78h-125
c0 34.667 6.5 66.167 19.5 94.5s30.833 52.5 53.5 72.5s48.834 35.333 78.501 46s61.167 16 94.5 16c34.667 0 67 -5 97 -15s56 -24.5 78 -43.5s39.333 -41.833 52 -68.5s19 -56.667 19 -90c0 -25.333 -6.33301 -52 -19 -80s-33 -56 -61 -84l-235 -235h313v-121h-488v102z
" />
    <glyph glyph-name="threesuperior" unicode="&#xb3;" horiz-adv-x="631" 
d="M428 1364c0 10.667 -2.66309 21.834 -7.99609 33.501s-13.166 22.167 -23.499 31.5s-23 17.166 -38 23.499s-32.167 9.5 -51.5 9.5c-10.667 0 -22.667 -1.83301 -36 -5.5s-25.666 -9.5 -36.999 -17.5s-21 -18.167 -29 -30.5s-12 -27.166 -12 -44.499h-132
c2 29.333 9.33301 57.166 22 83.499s29.667 49.333 51 69s46.666 35.334 75.999 47.001s61 17.5 95 17.5c37.333 0 71.666 -5.83301 102.999 -17.5s58.166 -27.167 80.499 -46.5s39.666 -41.666 51.999 -66.999s18.5 -52 18.5 -80c0 -32 -7.66699 -61.167 -23 -87.5
s-38.333 -47.833 -69 -64.5c28 -12.667 52 -32.834 72 -60.501s30 -61.167 30 -100.5c0 -32 -6.66699 -61.833 -20 -89.5s-31.833 -51.667 -55.5 -72s-51.5 -36.166 -83.5 -47.499s-66.333 -17 -103 -17c-32 0 -63.333 4.83301 -94 14.5s-58 24 -82 43s-43.333 42 -58 69
s-22 58.167 -22 93.5h133c5.33301 -32 19.166 -56.5 41.499 -73.5s51.5 -25.5 87.5 -25.5c16.667 0 32.667 2.5 48 7.5s28.666 12.167 39.999 21.5s20.333 20.166 27 32.499s10 26.166 10 41.499c0 34 -12 60.167 -36 78.5s-55 27.5 -93 27.5h-57v107h55
c38 0 67.667 9 89 27s32 41 32 69z" />
    <glyph glyph-name="acute" unicode="&#xb4;" horiz-adv-x="645" 
d="M297 1477h240v-17l-299 -282h-154z" />
    <glyph glyph-name="mu" unicode="&#xb5;" horiz-adv-x="1198" 
d="M1018 172h114.999v-172h-302v96c-46.667 -36 -97.5 -64 -152.5 -84s-113.833 -30 -176.5 -30c-56.667 0 -106 8.33301 -148 25v-478h-196v1507h196v-645c0 -79.333 18.333 -139.333 55 -180s89.334 -61 158.001 -61c40.667 0 83.5 7.33301 128.5 22s87.5 35 127.5 61v803
h195v-864z" />
    <glyph glyph-name="paragraph" unicode="&#xb6;" horiz-adv-x="1274" 
d="M465 701c-62 4 -118.998 16.833 -170.998 38.5s-96.833 50 -134.5 85s-66.834 76.333 -87.501 124s-31 99.5 -31 155.5c0 68 11.667 127.667 35 179s56.666 94.333 99.999 129s95.5 60.667 156.5 78s129.167 26 204.5 26h598v-162h-80v-1723h-181v1723h-229v-1723h-180
v1070z" />
    <glyph glyph-name="periodcentered" unicode="&#xb7;" horiz-adv-x="612" 
d="M174 666c0 17.333 3.5 33.833 10.5 49.5s16.333 29.334 28 41.001s25.5 21 41.5 28s33 10.5 51 10.5c17.333 0 33.833 -3.5 49.5 -10.5s29.334 -16.333 41.001 -28s21 -25.334 28 -41.001s10.5 -32.167 10.5 -49.5c0 -18 -3.5 -35.167 -10.5 -51.5
s-16.333 -30.5 -28 -42.5s-25.334 -21.667 -41.001 -29s-32.167 -11 -49.5 -11c-18 0 -35 3.66699 -51 11s-29.833 17 -41.5 29s-21 26.167 -28 42.5s-10.5 33.5 -10.5 51.5z" />
    <glyph glyph-name="cedilla" unicode="&#xb8;" horiz-adv-x="940" 
d="M182 -303c36.667 0.666992 69.835 7.16602 99.502 19.499s55.667 28.5 78 48.5s40.666 43.5 54.999 70.5s24.166 55.833 29.499 86.5l150 -45c-12 -48.667 -30.667 -92.167 -56 -130.5s-55.5 -70.666 -90.5 -96.999s-74.167 -46.5 -117.5 -60.5s-89 -21 -137 -21z" />
    <glyph glyph-name="onesuperior" unicode="&#xb9;" horiz-adv-x="508" 
d="M92 952h82v445l-141 -76v139l217 119h59v-627h80v-112h-297v112z" />
    <glyph glyph-name="ordmasculine" unicode="&#xba;" horiz-adv-x="934" 
d="M102 1217c0 52 9.00098 100.168 27.001 144.501s43 82.666 75 114.999s70.333 57.666 115 75.999s94 27.5 148 27.5s103.333 -8.83301 148 -26.5s83 -42.5 115 -74.5s56.833 -70 74.5 -114s26.5 -92.333 26.5 -145c0 -53.333 -8.66699 -102.166 -26 -146.499
s-42 -82.5 -74 -114.5s-70.333 -57 -115 -75s-94.334 -27 -149.001 -27s-104.5 8.83301 -149.5 26.5s-83.5 42.5 -115.5 74.5s-56.667 70 -74 114s-26 92.333 -26 145zM254.001 1217c0 -34.667 5.66699 -66 17 -94s26.666 -51.833 45.999 -71.5s41.833 -34.834 67.5 -45.501
s53.167 -16 82.5 -16c30 0 58 5.33301 84 16s48.5 25.834 67.5 45.501s34 43.5 45 71.5s16.5 59.333 16.5 94c0 36.667 -5.5 69.334 -16.5 98.001s-26 52.5 -45 71.5s-41.5 33.5 -67.5 43.5s-54 15 -84 15c-29.333 0 -56.833 -5 -82.5 -15s-48.167 -24.5 -67.5 -43.5
s-34.666 -42.833 -45.999 -71.5s-17 -61.334 -17 -98.001z" />
    <glyph glyph-name="guillemotright" unicode="&#xbb;" horiz-adv-x="1040" 
d="M332 565l-230 393h193l219 -393l-219 -393h-193zM756 565l-230 393h193l219 -393l-219 -393h-193z" />
    <glyph glyph-name="onequarter" unicode="&#xbc;" horiz-adv-x="2036" 
d="M1276 1577h199l-1276 -1638h-199zM1080 303l280 457h148l-273 -455h183v164h135v-164h112v-110h-112v-195h-135v195h-336zM64 907h84v404l-129 -72v162l217 121h70v-615h81v-129h-323v129z" />
    <glyph glyph-name="onehalf" unicode="&#xbd;" horiz-adv-x="1925" 
d="M1276 1577h199l-1276 -1638h-199zM1039 121l274.001 276c22.667 20.667 41 42 55 64s21 43.667 21 65c0 23.333 -9 43.5 -27 60.5s-42.333 25.5 -73 25.5c-33.333 0 -59.5 -9.5 -78.5 -28.5s-28.5 -42.833 -28.5 -71.5h-145c0 37.333 6.66699 70.833 20 100.5
s31.5 54.834 54.5 75.501s50.167 36.5 81.5 47.5s64.666 16.5 99.999 16.5c34 0 66.333 -4.83301 97 -14.5s57.5 -24 80.5 -43s41.167 -42.333 54.5 -70s20 -59.167 20 -94.5c0 -28 -6.5 -54.333 -19.5 -79s-31.167 -49.334 -54.5 -74.001l-229 -236h301v-141h-504v121z
M76.001 907h84v404l-129 -72v162l217 121h70v-615h82v-129h-324v129z" />
    <glyph glyph-name="threequarters" unicode="&#xbe;" horiz-adv-x="1935" 
d="M1337 1577h199l-1276 -1638h-199zM373 1309c0 10 -2.33594 20.1689 -7.00293 30.502s-11.5 20 -20.5 29s-20.333 16.333 -34 22s-29.5 8.5 -47.5 8.5c-10 0 -21 -1.66699 -33 -5s-23.167 -8.83301 -33.5 -16.5s-18.833 -17.334 -25.5 -29.001s-10 -25.5 -10 -41.5h-150
c0.666992 31.333 7.33398 60.833 20.001 88.5s30 51.667 52 72s48.333 36.5 79 48.5s64.334 18 101.001 18c37.333 0 72 -5.83301 104 -17.5s59.5 -27.5 82.5 -47.5s41 -43.167 54 -69.5s19.5 -53.833 19.5 -82.5c0 -32.667 -7.16699 -62.167 -21.5 -88.5
s-35.166 -47.5 -62.499 -63.5c12.667 -6 24.667 -14.167 36 -24.5s21.333 -22.5 30 -36.5s15.5 -29.333 20.5 -46s7.5 -34 7.5 -52c0 -32 -6.83301 -62.333 -20.5 -91s-32.5 -53.834 -56.5 -75.501s-52.333 -38.667 -85 -51s-68 -18.5 -106 -18.5c-36 0 -70 5.33301 -102 16
s-60.167 26 -84.5 46s-43.666 44.167 -57.999 72.5s-21.5 60.5 -21.5 96.5h151c4.66699 -30 17.167 -53.5 37.5 -70.5s47.5 -25.5 81.5 -25.5c16 0 30.833 2.66699 44.5 8s25.667 12.833 36 22.5s18.333 20.667 24 33s8.5 25.5 8.5 39.5c0 28.667 -10.5 52.167 -31.5 70.5
s-49.5 27.5 -85.5 27.5h-65v113h67c33.333 0 59.166 8.5 77.499 25.5s27.5 38.5 27.5 64.5zM974.997 303.002l280 457h148l-273 -455h183v164h135v-164h112v-110h-112v-195h-135v195h-336z" />
    <glyph glyph-name="questiondown" unicode="&#xbf;" horiz-adv-x="1030" 
d="M406 1022c0 17.333 3.5 33.833 10.5 49.5s16.333 29.334 28 41.001s25.5 21 41.5 28s33 10.5 51 10.5c17.333 0 33.833 -3.5 49.5 -10.5s29.334 -16.333 41.001 -28s21 -25.334 28 -41.001s10.5 -32.167 10.5 -49.5c0 -18 -3.5 -35 -10.5 -51s-16.333 -30.167 -28 -42.5
s-25.334 -22 -41.001 -29s-32.167 -10.5 -49.5 -10.5c-18 0 -35 3.5 -51 10.5s-29.833 16.667 -41.5 29s-21 26.5 -28 42.5s-10.5 33 -10.5 51zM623 780c0 -69.333 -2.5 -129.836 -7.5 -181.503s-14.5 -97.667 -28.5 -138s-33.5 -77.166 -58.5 -110.499
s-57.167 -66.666 -96.5 -99.999c-35.333 -30 -67.5 -56 -96.5 -78s-53.667 -43.5 -74 -64.5s-36.166 -43.667 -47.499 -68s-17 -53.833 -17 -88.5c0 -30 6 -59 18 -87s28.167 -52.833 48.5 -74.5s44.333 -39.167 72 -52.5s57.167 -20 88.5 -20c54 0 99 9.33301 135 28
s65 41.167 87 67.5s37.667 54 47 83s14 54.167 14 75.5l176 -12c-4 -56 -17.833 -109 -41.5 -159s-55.5 -93.833 -95.5 -131.5s-87.333 -67.667 -142 -90s-114.667 -33.5 -180 -33.5c-67.333 0 -126.833 11 -178.5 33s-95 51.333 -130 88s-61.667 79.167 -80 127.5
s-27.5 98.833 -27.5 151.5c0 68 17.5 130.833 52.5 188.5s86.5 110.167 154.5 157.5c31.333 22 58.666 42.333 81.999 61s43.5 37.667 60.5 57s30.833 40 41.5 62s19.167 47.5 25.5 76.5s10.833 62.333 13.5 100s4 81.834 4 132.501h181z" />
    <glyph glyph-name="Agrave" unicode="&#xc0;" horiz-adv-x="1542" 
d="M1040 172h126l-120 344h-583l-117 -344h156v-172h-492v172h132l472 1344h295l471 -1344h152v-172h-492v172zM520 682h468l-236 678zM682 1657l-287 282v17h248l184 -299h-145z" />
    <glyph glyph-name="Aacute" unicode="&#xc1;" horiz-adv-x="1542" 
d="M1040 172h126l-120 344h-583l-117 -344h156v-172h-492v172h132l472 1344h295l471 -1344h152v-172h-492v172zM520 682h468l-236 678zM829 1956h240v-17l-299 -282h-154z" />
    <glyph glyph-name="Acircumflex" unicode="&#xc2;" horiz-adv-x="1542" 
d="M1040 172h126l-120 344h-583l-117 -344h156v-172h-492v172h132l472 1344h295l471 -1344h152v-172h-492v172zM520 682h468l-236 678zM498 1655l250 313h63l252 -313h-149l-133 155l-135 -155h-148z" />
    <glyph glyph-name="Atilde" unicode="&#xc3;" horiz-adv-x="1542" 
d="M1040 172h126l-120 344h-583l-117 -344h156v-172h-492v172h132l472 1344h295l471 -1344h152v-172h-492v172zM520 682h468l-236 678zM626 1894c33.333 0 62.166 -5.5 86.499 -16.5s47 -23 68 -36s41.833 -24.833 62.5 -35.5s44 -16 70 -16
c18.667 0 36.834 6.33301 54.501 19s29.5 33 35.5 61l119 -35c-13.333 -56.667 -39.333 -100.5 -78 -131.5s-85 -46.5 -139 -46.5c-37.333 0 -69 5.16699 -95 15.5s-49.667 21.5 -71 33.5l-60 33.5c-18.667 10.333 -39 15.5 -61 15.5c-10 0 -20.167 -0.666992 -30.5 -2
s-20.5 -4.5 -30.5 -9.5s-19.167 -12.667 -27.5 -23s-14.833 -24.833 -19.5 -43.5l-109 53c8.66699 31.333 21 57.5 37 78.5s34 37.833 54 50.5s41.5 21.667 64.5 27s46.167 8 69.5 8z" />
    <glyph glyph-name="Adieresis" unicode="&#xc4;" horiz-adv-x="1542" 
d="M1040 172h126l-120 344h-583l-117 -344h156v-172h-492v172h132l472 1344h295l471 -1344h152v-172h-492v172zM520 682h468l-236 678zM383 1839c0 17.333 3.5 33.833 10.5 49.5s16.333 29.334 28 41.001s25.334 21 41.001 28s32.167 10.5 49.5 10.5
c16.667 0 32.667 -3.5 48 -10.5s28.666 -16.333 39.999 -28s20.333 -25.334 27 -41.001s10 -32.167 10 -49.5c0 -18 -3.33301 -35 -10 -51s-15.667 -30.167 -27 -42.5s-24.666 -22 -39.999 -29s-31.333 -10.5 -48 -10.5c-17.333 0 -33.833 3.5 -49.5 10.5
s-29.334 16.667 -41.001 29s-21 26.5 -28 42.5s-10.5 33 -10.5 51zM842 1839c0 17.333 3.5 33.833 10.5 49.5s16.333 29.334 28 41.001s25.334 21 41.001 28s32.167 10.5 49.5 10.5c16.667 0 32.5 -3.5 47.5 -10.5s28.333 -16.333 40 -28s20.834 -25.334 27.501 -41.001
s10 -32.167 10 -49.5c0 -18 -3.33301 -35 -10 -51s-15.834 -30.167 -27.501 -42.5s-25 -22 -40 -29s-30.833 -10.5 -47.5 -10.5c-17.333 0 -33.833 3.5 -49.5 10.5s-29.334 16.667 -41.001 29s-21 26.5 -28 42.5s-10.5 33 -10.5 51z" />
    <glyph glyph-name="Aring" unicode="&#xc5;" horiz-adv-x="1542" 
d="M1040 172l125.001 0.000976562l-121 344h-581l-117 -344h156v-172h-492v172h131l463 1317c-31.333 23.333 -55.833 52.666 -73.5 87.999s-26.5 73.666 -26.5 114.999c0 34 6.83301 66.667 20.5 98s32 58.666 55 81.999s50 41.833 81 55.5s64.167 20.5 99.5 20.5
c34 0 66.667 -6.83301 98 -20.5s58.666 -32.167 81.999 -55.5s41.833 -50.666 55.5 -81.999s20.5 -64 20.5 -98c0 -40 -8.83301 -77.667 -26.5 -113s-41.5 -64.666 -71.5 -87.999l462 -1319h152v-172h-492v172zM520.001 682.001h467l-235 678zM655.001 1692
c0 -27.333 10.667 -51.666 32 -72.999s45.666 -32 72.999 -32s51.5 10.667 72.5 32s31.5 45.666 31.5 72.999s-10.5 51.5 -31.5 72.5s-45.167 31.5 -72.5 31.5s-51.666 -10.5 -72.999 -31.5s-32 -45.167 -32 -72.5v0z" />
    <glyph glyph-name="AE" unicode="&#xc6;" horiz-adv-x="1915" 
d="M-2 172h106l816 1344h938v-429h-205v256h-465v-481h379v-172h-379v-518h465v256h205v-428h-992v172h125v254h-517l-148 -254h163v-172h-491v172zM991 598v714l-416 -714h416z" />
    <glyph glyph-name="Ccedilla" unicode="&#xc7;" horiz-adv-x="1503" 
d="M1219 1116c-44.667 76 -103.83 135.665 -177.497 178.998s-155.834 65 -246.501 65c-77.333 0 -148 -16.333 -212 -49s-118.833 -76.5 -164.5 -131.5s-81.167 -118.667 -106.5 -191s-38 -148.5 -38 -228.5c0 -94.667 14 -178.5 42 -251.5s64.5 -133.667 109.5 -182
s98.5 -88.666 160.5 -120.999s131.667 -48.5 209 -48.5c105.333 0 197 25.5 275 76.5s144.667 134.833 200 251.5l176 -83c-25.333 -72 -68.333 -141.5 -129 -208.5s-135.5 -121 -224.5 -162s-187.5 -61.5 -295.5 -61.5c-103.333 0 -198.333 19.5 -285 58.5
s-163.834 94.5 -231.501 166.5s-119.334 157.333 -155.001 256s-53.5 201.667 -53.5 309c0 108 17.833 210 53.5 306s85.667 179.5 150 250.5s141 127 230 168s185.5 61.5 289.5 61.5c92.667 0 172.667 -13.167 240 -39.5s124.5 -57.666 171.5 -93.999
s87.5 -75.833 121.5 -118.5h106v-178h-215zM510.004 -303.002c36.667 0.666992 69.835 7.16602 99.502 19.499s55.667 28.5 78 48.5s40.666 43.5 54.999 70.5s24.166 55.833 29.499 86.5l150 -45c-12 -48.667 -30.667 -92.167 -56 -130.5s-55.5 -70.666 -90.5 -96.999
s-74.167 -46.5 -117.5 -60.5s-89 -21 -137 -21z" />
    <glyph glyph-name="Egrave" unicode="&#xc8;" horiz-adv-x="1286" 
d="M143 1516h1086v-429h-205v256h-541v-485h455v-172h-455v-514h541v256h205v-428h-1086v172h144v1171h-144v173zM651 1657l-287 282v17h248l184 -299h-145z" />
    <glyph glyph-name="Eacute" unicode="&#xc9;" horiz-adv-x="1286" 
d="M143 1516h1086v-429h-205v256h-541v-485h455v-172h-455v-514h541v256h205v-428h-1086v172h144v1171h-144v173zM799 1956h240v-17l-299 -282h-154z" />
    <glyph glyph-name="Ecircumflex" unicode="&#xca;" horiz-adv-x="1286" 
d="M143 1516h1086v-429h-205v256h-541v-485h455v-172h-455v-514h541v256h205v-428h-1086v172h144v1171h-144v173zM467 1655l250 313h63l252 -313h-149l-133 155l-135 -155h-148z" />
    <glyph glyph-name="Edieresis" unicode="&#xcb;" horiz-adv-x="1286" 
d="M143 1516h1086v-429h-205v256h-541v-485h455v-172h-455v-514h541v256h205v-428h-1086v172h144v1171h-144v173zM352 1839c0 17.333 3.5 33.833 10.5 49.5s16.333 29.334 28 41.001s25.334 21 41.001 28s32.167 10.5 49.5 10.5c16.667 0 32.667 -3.5 48 -10.5
s28.666 -16.333 39.999 -28s20.333 -25.334 27 -41.001s10 -32.167 10 -49.5c0 -18 -3.33301 -35 -10 -51s-15.667 -30.167 -27 -42.5s-24.666 -22 -39.999 -29s-31.333 -10.5 -48 -10.5c-17.333 0 -33.833 3.5 -49.5 10.5s-29.334 16.667 -41.001 29s-21 26.5 -28 42.5
s-10.5 33 -10.5 51zM811 1839c0 17.333 3.5 33.833 10.5 49.5s16.333 29.334 28 41.001s25.334 21 41.001 28s32.167 10.5 49.5 10.5c16.667 0 32.5 -3.5 47.5 -10.5s28.333 -16.333 40 -28s20.834 -25.334 27.501 -41.001s10 -32.167 10 -49.5c0 -18 -3.33301 -35 -10 -51
s-15.834 -30.167 -27.501 -42.5s-25 -22 -40 -29s-30.833 -10.5 -47.5 -10.5c-17.333 0 -33.833 3.5 -49.5 10.5s-29.334 16.667 -41.001 29s-21 26.5 -28 42.5s-10.5 33 -10.5 51z" />
    <glyph glyph-name="Igrave" unicode="&#xcc;" horiz-adv-x="770" 
d="M143 1516h484v-173h-144v-1171h144v-172h-484v172h144v1171h-144v173zM312 1657l-287 282v17h248l184 -299h-145z" />
    <glyph glyph-name="Iacute" unicode="&#xcd;" horiz-adv-x="770" 
d="M143 1516h484v-173h-144v-1171h144v-172h-484v172h144v1171h-144v173zM459 1956h240v-17l-299 -282h-154z" />
    <glyph glyph-name="Icircumflex" unicode="&#xce;" horiz-adv-x="770" 
d="M143 1516h484v-173h-144v-1171h144v-172h-484v172h144v1171h-144v173zM128 1655l250 313h63l252 -313h-149l-133 155l-135 -155h-148z" />
    <glyph glyph-name="Idieresis" unicode="&#xcf;" horiz-adv-x="770" 
d="M143 1516h484v-173h-144v-1171h144v-172h-484v172h144v1171h-144v173zM105 1839c0 35.333 12.667 65.666 38 90.999s55.666 38 90.999 38c16.667 0 32.834 -3.5 48.501 -10.5s29 -16.167 40 -27.5s19.833 -25 26.5 -41s10 -32.667 10 -50
c0 -18 -3.33301 -35.167 -10 -51.5s-15.5 -30.666 -26.5 -42.999s-24.333 -21.833 -40 -28.5s-31.834 -10 -48.501 -10c-35.333 0 -65.666 13.333 -90.999 40s-38 57.667 -38 93v0zM420 1839c0 35.333 12.667 65.666 38 90.999s55.666 38 90.999 38
c16.667 0 32.834 -3.5 48.501 -10.5s29 -16.167 40 -27.5s19.833 -25 26.5 -41s10 -32.667 10 -50c0 -18 -3.33301 -35.167 -10 -51.5s-15.5 -30.666 -26.5 -42.999s-24.333 -21.833 -40 -28.5s-31.834 -10 -48.501 -10c-35.333 0 -65.666 13.333 -90.999 40
s-38 57.667 -38 93v0z" />
    <glyph glyph-name="Eth" unicode="&#xd0;" horiz-adv-x="1516" 
d="M139 1516l576 0.000976562c103.333 0 199.5 -19.833 288.5 -59.5s166.167 -93.334 231.5 -161.001s116.5 -147.5 153.5 -239.5s55.5 -190 55.5 -294c0 -105.333 -18.5 -204.333 -55.5 -297s-88.167 -173.5 -153.5 -242.5s-142.5 -123.333 -231.5 -163
s-185.167 -59.5 -288.5 -59.5h-576v172h156v504h-168v172h168v495h-156v173zM492 676.001v-503.999h235c69.333 0 135.166 15.333 197.499 46s116.333 72.667 162 126s81.834 115.833 108.501 187.5s40 148.5 40 230.5s-13.333 158.167 -40 228.5
s-62.834 131.666 -108.501 183.999s-99.667 93.5 -162 123.5s-128.166 45 -197.499 45h-235v-495h186v-172h-186z" />
    <glyph glyph-name="Ntilde" unicode="&#xd1;" horiz-adv-x="1624" 
d="M1081 1516h492v-173h-129v-1343h-256l-705 1257v-1085h156v-172h-492v172h140v1171h-144v175h408l692 -1245l8 48v1022h-170v173zM696 1894c33.333 0 62.166 -5.5 86.499 -16.5s47 -23 68 -36s41.833 -24.833 62.5 -35.5s44 -16 70 -16
c18.667 0 36.834 6.33301 54.501 19s29.5 33 35.5 61l119 -35c-13.333 -56.667 -39.333 -100.5 -78 -131.5s-85 -46.5 -139 -46.5c-37.333 0 -69 5.16699 -95 15.5s-49.667 21.5 -71 33.5l-60 33.5c-18.667 10.333 -39 15.5 -61 15.5c-10 0 -20.167 -0.666992 -30.5 -2
s-20.5 -4.5 -30.5 -9.5s-19.167 -12.667 -27.5 -23s-14.833 -24.833 -19.5 -43.5l-109 53c8.66699 31.333 21 57.5 37 78.5s34 37.833 54 50.5s41.5 21.667 64.5 27s46.167 8 69.5 8z" />
    <glyph glyph-name="Ograve" unicode="&#xd2;" horiz-adv-x="1602" 
d="M799 -30c-104.667 0 -200.332 19.5 -286.999 58.5s-164 94.5 -232 166.5s-119.667 157.333 -155 256s-53 201 -53 307c0 109.333 17.833 212 53.5 308s85.667 179.5 150 250.5s141 127 230 168s186.833 61.5 293.5 61.5c107.333 0 205.666 -20.5 294.999 -61.5
s166 -97 230 -168s113.667 -154.5 149 -250.5s53 -198.667 53 -308s-17.833 -211.833 -53.5 -307.5s-85.667 -179.167 -150 -250.5s-141 -127.5 -230 -168.5s-186.833 -61.5 -293.5 -61.5zM799.002 156c79.333 0 151.169 16.332 215.502 48.999s119.166 76.5 164.499 131.5
s80.333 118.833 105 191.5s37 149.334 37 230.001c0 82.667 -13.5 162.5 -40.5 239.5s-64.667 142.167 -113 195.5s-104.5 94.5 -168.5 123.5s-130.667 43.5 -200 43.5c-79.333 0 -151.333 -16.333 -216 -49s-119.667 -76.5 -165 -131.5s-80.333 -119 -105 -192
s-37 -149.5 -37 -229.5c0 -93.333 13.667 -176.5 41 -249.5s63.5 -133.667 108.5 -182s98.667 -88.833 161 -121.5s133.166 -49 212.499 -49zM723.005 1657l-287 282v17h248l184 -299h-145z" />
    <glyph glyph-name="Oacute" unicode="&#xd3;" horiz-adv-x="1602" 
d="M799 -30c-104.667 0 -200.332 19.5 -286.999 58.5s-164 94.5 -232 166.5s-119.667 157.333 -155 256s-53 201 -53 307c0 109.333 17.833 212 53.5 308s85.667 179.5 150 250.5s141 127 230 168s186.833 61.5 293.5 61.5c107.333 0 205.666 -20.5 294.999 -61.5
s166 -97 230 -168s113.667 -154.5 149 -250.5s53 -198.667 53 -308s-17.833 -211.833 -53.5 -307.5s-85.667 -179.167 -150 -250.5s-141 -127.5 -230 -168.5s-186.833 -61.5 -293.5 -61.5zM799.002 156c79.333 0 151.169 16.332 215.502 48.999s119.166 76.5 164.499 131.5
s80.333 118.833 105 191.5s37 149.334 37 230.001c0 82.667 -13.5 162.5 -40.5 239.5s-64.667 142.167 -113 195.5s-104.5 94.5 -168.5 123.5s-130.667 43.5 -200 43.5c-79.333 0 -151.333 -16.333 -216 -49s-119.667 -76.5 -165 -131.5s-80.333 -119 -105 -192
s-37 -149.5 -37 -229.5c0 -93.333 13.667 -176.5 41 -249.5s63.5 -133.667 108.5 -182s98.667 -88.833 161 -121.5s133.166 -49 212.499 -49zM870.005 1956h240v-17l-299 -282h-154z" />
    <glyph glyph-name="Ocircumflex" unicode="&#xd4;" horiz-adv-x="1602" 
d="M799 -30c-104.667 0 -200.332 19.5 -286.999 58.5s-164 94.5 -232 166.5s-119.667 157.333 -155 256s-53 201 -53 307c0 109.333 17.833 212 53.5 308s85.667 179.5 150 250.5s141 127 230 168s186.833 61.5 293.5 61.5c107.333 0 205.666 -20.5 294.999 -61.5
s166 -97 230 -168s113.667 -154.5 149 -250.5s53 -198.667 53 -308s-17.833 -211.833 -53.5 -307.5s-85.667 -179.167 -150 -250.5s-141 -127.5 -230 -168.5s-186.833 -61.5 -293.5 -61.5zM799.002 156c79.333 0 151.169 16.332 215.502 48.999s119.166 76.5 164.499 131.5
s80.333 118.833 105 191.5s37 149.334 37 230.001c0 82.667 -13.5 162.5 -40.5 239.5s-64.667 142.167 -113 195.5s-104.5 94.5 -168.5 123.5s-130.667 43.5 -200 43.5c-79.333 0 -151.333 -16.333 -216 -49s-119.667 -76.5 -165 -131.5s-80.333 -119 -105 -192
s-37 -149.5 -37 -229.5c0 -93.333 13.667 -176.5 41 -249.5s63.5 -133.667 108.5 -182s98.667 -88.833 161 -121.5s133.166 -49 212.499 -49zM539.005 1655l250 313h63l252 -313h-149l-133 155l-135 -155h-148z" />
    <glyph glyph-name="Otilde" unicode="&#xd5;" horiz-adv-x="1602" 
d="M799 -30c-104.667 0 -200.332 19.5 -286.999 58.5s-164 94.5 -232 166.5s-119.667 157.333 -155 256s-53 201 -53 307c0 109.333 17.833 212 53.5 308s85.667 179.5 150 250.5s141 127 230 168s186.833 61.5 293.5 61.5c107.333 0 205.666 -20.5 294.999 -61.5
s166 -97 230 -168s113.667 -154.5 149 -250.5s53 -198.667 53 -308s-17.833 -211.833 -53.5 -307.5s-85.667 -179.167 -150 -250.5s-141 -127.5 -230 -168.5s-186.833 -61.5 -293.5 -61.5zM799.002 156c79.333 0 151.169 16.332 215.502 48.999s119.166 76.5 164.499 131.5
s80.333 118.833 105 191.5s37 149.334 37 230.001c0 82.667 -13.5 162.5 -40.5 239.5s-64.667 142.167 -113 195.5s-104.5 94.5 -168.5 123.5s-130.667 43.5 -200 43.5c-79.333 0 -151.333 -16.333 -216 -49s-119.667 -76.5 -165 -131.5s-80.333 -119 -105 -192
s-37 -149.5 -37 -229.5c0 -93.333 13.667 -176.5 41 -249.5s63.5 -133.667 108.5 -182s98.667 -88.833 161 -121.5s133.166 -49 212.499 -49zM667.005 1894c33.333 0 62.166 -5.5 86.499 -16.5s47 -23 68 -36s41.833 -24.833 62.5 -35.5s44 -16 70 -16
c18.667 0 36.834 6.33301 54.501 19s29.5 33 35.5 61l119 -35c-13.333 -56.667 -39.333 -100.5 -78 -131.5s-85 -46.5 -139 -46.5c-37.333 0 -69 5.16699 -95 15.5s-49.667 21.5 -71 33.5l-60 33.5c-18.667 10.333 -39 15.5 -61 15.5c-10 0 -20.167 -0.666992 -30.5 -2
s-20.5 -4.5 -30.5 -9.5s-19.167 -12.667 -27.5 -23s-14.833 -24.833 -19.5 -43.5l-109 53c8.66699 31.333 21 57.5 37 78.5s34 37.833 54 50.5s41.5 21.667 64.5 27s46.167 8 69.5 8z" />
    <glyph glyph-name="Odieresis" unicode="&#xd6;" horiz-adv-x="1602" 
d="M799 -30c-104.667 0 -200.332 19.5 -286.999 58.5s-164 94.5 -232 166.5s-119.667 157.333 -155 256s-53 201 -53 307c0 109.333 17.833 212 53.5 308s85.667 179.5 150 250.5s141 127 230 168s186.833 61.5 293.5 61.5c107.333 0 205.666 -20.5 294.999 -61.5
s166 -97 230 -168s113.667 -154.5 149 -250.5s53 -198.667 53 -308s-17.833 -211.833 -53.5 -307.5s-85.667 -179.167 -150 -250.5s-141 -127.5 -230 -168.5s-186.833 -61.5 -293.5 -61.5zM799.002 156c79.333 0 151.169 16.332 215.502 48.999s119.166 76.5 164.499 131.5
s80.333 118.833 105 191.5s37 149.334 37 230.001c0 82.667 -13.5 162.5 -40.5 239.5s-64.667 142.167 -113 195.5s-104.5 94.5 -168.5 123.5s-130.667 43.5 -200 43.5c-79.333 0 -151.333 -16.333 -216 -49s-119.667 -76.5 -165 -131.5s-80.333 -119 -105 -192
s-37 -149.5 -37 -229.5c0 -93.333 13.667 -176.5 41 -249.5s63.5 -133.667 108.5 -182s98.667 -88.833 161 -121.5s133.166 -49 212.499 -49zM424.005 1839c0 17.333 3.5 33.833 10.5 49.5s16.333 29.334 28 41.001s25.334 21 41.001 28s32.167 10.5 49.5 10.5
c16.667 0 32.667 -3.5 48 -10.5s28.666 -16.333 39.999 -28s20.333 -25.334 27 -41.001s10 -32.167 10 -49.5c0 -18 -3.33301 -35 -10 -51s-15.667 -30.167 -27 -42.5s-24.666 -22 -39.999 -29s-31.333 -10.5 -48 -10.5c-17.333 0 -33.833 3.5 -49.5 10.5
s-29.334 16.667 -41.001 29s-21 26.5 -28 42.5s-10.5 33 -10.5 51zM883.005 1839c0 17.333 3.5 33.833 10.5 49.5s16.333 29.334 28 41.001s25.334 21 41.001 28s32.167 10.5 49.5 10.5c16.667 0 32.5 -3.5 47.5 -10.5s28.333 -16.333 40 -28s20.834 -25.334 27.501 -41.001
s10 -32.167 10 -49.5c0 -18 -3.33301 -35 -10 -51s-15.834 -30.167 -27.501 -42.5s-25 -22 -40 -29s-30.833 -10.5 -47.5 -10.5c-17.333 0 -33.833 3.5 -49.5 10.5s-29.334 16.667 -41.001 29s-21 26.5 -28 42.5s-10.5 33 -10.5 51z" />
    <glyph glyph-name="multiply" unicode="&#xd7;" horiz-adv-x="1303" 
d="M525 676l-373 448l145 123l353 -422l341 408l160 -115l-373 -447l377 -450l-151 -119l-350 420l-355 -426l-166 111z" />
    <glyph glyph-name="Oslash" unicode="&#xd8;" horiz-adv-x="1593" 
d="M263 218c-60 70.667 -106.167 151.998 -138.5 243.998s-48.5 190.667 -48.5 296c0 72.667 8.16699 142.667 24.5 210s39.5 130.333 69.5 189s66.5 111.834 109.5 159.501s91.5 88.5 145.5 122.5s112.667 60.333 176 79s130.666 28 201.999 28
c76.667 0 148.334 -10.667 215.001 -32s128.334 -51 185.001 -89l140 179h199l-220 -282c66 -72 117.167 -156 153.5 -252s54.5 -200 54.5 -312c0 -72.667 -8.16699 -142.667 -24.5 -210s-39.5 -130.166 -69.5 -188.499s-66.5 -111.5 -109.5 -159.5
s-91.5 -89.167 -145.5 -123.5s-112.833 -60.833 -176.5 -79.5s-130.834 -28 -201.501 -28c-82.667 0 -159.667 12.167 -231 36.5s-136.333 58.833 -195 103.5l-111 -143h-199zM803 157.998c79.333 0 151.001 16.167 215.001 48.5s118.667 76 164 131
s80.166 118.667 104.499 191s36.5 148.833 36.5 229.5c0 75.333 -11 147.5 -33 216.5s-53.333 130.5 -94 184.5l-698 -895c41.333 -34 87.5 -60.167 138.5 -78.5s106.5 -27.5 166.5 -27.5zM391.001 380.998l691.998 890c-39.333 28 -82.333 49.833 -129 65.5
s-97 23.5 -151 23.5c-79.333 0 -151.166 -16.333 -215.499 -49s-119.166 -76.5 -164.499 -131.5s-80.333 -119 -105 -192s-37 -149.5 -37 -229.5c0 -70.667 9.33301 -138 28 -202s46 -122.333 82 -175z" />
    <glyph glyph-name="Ugrave" unicode="&#xd9;" horiz-adv-x="1559" 
d="M63 1516l491.003 0.00292969v-173h-155v-706c0 -84.667 9.5 -156.834 28.5 -216.501s45.333 -108.334 79 -146.001s73.667 -65.167 120 -82.5s97.166 -26 152.499 -26c57.333 0 110 7.66699 158 23s89.167 41.166 123.5 77.499s61 84.666 80 144.999
s28.5 135.5 28.5 225.5v706h-164v173h491v-173h-135v-684c0 -109.333 -15.167 -206.333 -45.5 -291s-71.833 -155.667 -124.5 -213s-114.667 -100.833 -186 -130.5s-148 -44.5 -230 -44.5c-80 0 -154.833 14.667 -224.5 44s-130.334 72.333 -182.001 129
s-92.334 125.834 -122.001 207.501s-44.5 175.167 -44.5 280.5v702h-139v173zM754.003 1657l-287 282v17h248l184 -299h-145z" />
    <glyph glyph-name="Uacute" unicode="&#xda;" horiz-adv-x="1559" 
d="M63 1516l491.003 0.00292969v-173h-155v-706c0 -84.667 9.5 -156.834 28.5 -216.501s45.333 -108.334 79 -146.001s73.667 -65.167 120 -82.5s97.166 -26 152.499 -26c57.333 0 110 7.66699 158 23s89.167 41.166 123.5 77.499s61 84.666 80 144.999
s28.5 135.5 28.5 225.5v706h-164v173h491v-173h-135v-684c0 -109.333 -15.167 -206.333 -45.5 -291s-71.833 -155.667 -124.5 -213s-114.667 -100.833 -186 -130.5s-148 -44.5 -230 -44.5c-80 0 -154.833 14.667 -224.5 44s-130.334 72.333 -182.001 129
s-92.334 125.834 -122.001 207.501s-44.5 175.167 -44.5 280.5v702h-139v173zM901.003 1956h240v-17l-299 -282h-154z" />
    <glyph glyph-name="Ucircumflex" unicode="&#xdb;" horiz-adv-x="1559" 
d="M63 1516l491.003 0.00292969v-173h-155v-706c0 -84.667 9.5 -156.834 28.5 -216.501s45.333 -108.334 79 -146.001s73.667 -65.167 120 -82.5s97.166 -26 152.499 -26c57.333 0 110 7.66699 158 23s89.167 41.166 123.5 77.499s61 84.666 80 144.999
s28.5 135.5 28.5 225.5v706h-164v173h491v-173h-135v-684c0 -109.333 -15.167 -206.333 -45.5 -291s-71.833 -155.667 -124.5 -213s-114.667 -100.833 -186 -130.5s-148 -44.5 -230 -44.5c-80 0 -154.833 14.667 -224.5 44s-130.334 72.333 -182.001 129
s-92.334 125.834 -122.001 207.501s-44.5 175.167 -44.5 280.5v702h-139v173zM517.003 1655l250 313h63l252 -313h-149l-133 155l-135 -155h-148z" />
    <glyph glyph-name="Udieresis" unicode="&#xdc;" horiz-adv-x="1559" 
d="M63 1516l491.003 0.00292969v-173h-155v-706c0 -84.667 9.5 -156.834 28.5 -216.501s45.333 -108.334 79 -146.001s73.667 -65.167 120 -82.5s97.166 -26 152.499 -26c57.333 0 110 7.66699 158 23s89.167 41.166 123.5 77.499s61 84.666 80 144.999
s28.5 135.5 28.5 225.5v706h-164v173h491v-173h-135v-684c0 -109.333 -15.167 -206.333 -45.5 -291s-71.833 -155.667 -124.5 -213s-114.667 -100.833 -186 -130.5s-148 -44.5 -230 -44.5c-80 0 -154.833 14.667 -224.5 44s-130.334 72.333 -182.001 129
s-92.334 125.834 -122.001 207.501s-44.5 175.167 -44.5 280.5v702h-139v173zM419.003 1839c0 17.333 3.5 33.833 10.5 49.5s16.333 29.334 28 41.001s25.334 21 41.001 28s32.167 10.5 49.5 10.5c16.667 0 32.667 -3.5 48 -10.5s28.666 -16.333 39.999 -28
s20.333 -25.334 27 -41.001s10 -32.167 10 -49.5c0 -18 -3.33301 -35 -10 -51s-15.667 -30.167 -27 -42.5s-24.666 -22 -39.999 -29s-31.333 -10.5 -48 -10.5c-17.333 0 -33.833 3.5 -49.5 10.5s-29.334 16.667 -41.001 29s-21 26.5 -28 42.5s-10.5 33 -10.5 51z
M878.003 1839c0 17.333 3.5 33.833 10.5 49.5s16.333 29.334 28 41.001s25.334 21 41.001 28s32.167 10.5 49.5 10.5c16.667 0 32.5 -3.5 47.5 -10.5s28.333 -16.333 40 -28s20.834 -25.334 27.501 -41.001s10 -32.167 10 -49.5c0 -18 -3.33301 -35 -10 -51
s-15.834 -30.167 -27.501 -42.5s-25 -22 -40 -29s-30.833 -10.5 -47.5 -10.5c-17.333 0 -33.833 3.5 -49.5 10.5s-29.334 16.667 -41.001 29s-21 26.5 -28 42.5s-10.5 33 -10.5 51z" />
    <glyph glyph-name="Yacute" unicode="&#xdd;" horiz-adv-x="1354" 
d="M51 1516h492v-173h-144l285 -487l305 487h-158v173h492v-173h-129l-426 -646v-525h156v-172h-492v172h139v530l-402 641h-118v173zM797 1956h240v-17l-299 -282h-154z" />
    <glyph glyph-name="Thorn" unicode="&#xde;" horiz-adv-x="1323" 
d="M106 1516h492v-173h-158v-134l328 -1c67.333 0 129.5 -8.66699 186.5 -26s106.333 -43.333 148 -78s74.167 -77.5 97.5 -128.5s35 -109.833 35 -176.5c0 -55.333 -11.333 -107.5 -34 -156.5s-54.5 -91.833 -95.5 -128.5s-90.5 -65.667 -148.5 -87s-122.333 -32 -193 -32
h-324v-223h156v-172h-492v172h140v1171h-138v173zM440 1036v-477.001h328c38 0 72.833 5.16699 104.5 15.5s59 25.5 82 45.5s41 45 54 75s19.5 64.667 19.5 104c0 61.333 -12.5 108.333 -37.5 141s-56 56.834 -93 72.501s-88.5 23.5 -154.5 23.5h-303z" />
    <glyph glyph-name="germandbls" unicode="&#xdf;" horiz-adv-x="1247" 
d="M588 964l77.9951 0.00390625c42.667 2 73.834 8.66699 93.501 20s36.834 25 51.501 41s26 33.833 34 53.5s12 39.5 12 59.5c0 33.333 -6 64.666 -18 93.999s-28.833 54.333 -50.5 75s-47.667 36.334 -78 47.001s-63.833 16 -100.5 16c-32 0 -61.333 -5.83301 -88 -17.5
s-49.167 -27.834 -67.5 -48.501s-32.5 -45.334 -42.5 -74.001s-15 -60 -15 -94v-1136h-381v172h185v987c0 46.667 9.16699 93.667 27.5 141s44.833 90 79.5 128s77.334 68.833 128.001 92.5s109.334 35.5 176.001 35.5c62 0 119.667 -10.667 173 -32
s99.5 -50.833 138.5 -88.5s69.667 -82 92 -133s33.5 -104.5 33.5 -160.5c0 -30.667 -3 -58.834 -9 -84.501s-14 -49.334 -24 -71.001s-21.333 -41 -34 -58s-25.667 -32.167 -39 -45.5c34 -22 64.833 -47.667 92.5 -77s51.167 -60.166 70.5 -92.499s34.5 -69 45.5 -110
s16.5 -84.167 16.5 -129.5c0 -67.333 -13.167 -131.5 -39.5 -192.5s-62.333 -113.5 -108 -157.5s-99 -78 -160 -102s-125.833 -36 -194.5 -36c-26 0 -52 2 -78 6v188c13.333 -3.33301 26.333 -5.83301 39 -7.5s25.667 -2.5 39 -2.5c43.333 0 83.833 8.16699 121.5 24.5
s70.5 38.833 98.5 67.5s50 62 66 100s24 75.333 24 112c0 43.333 -8.33301 84.166 -25 122.499s-39 70 -67 95s-60.667 45.667 -98 62s-76.666 24.5 -117.999 24.5h-80v186z" />
    <glyph glyph-name="agrave" unicode="&#xe0;" horiz-adv-x="1120" 
d="M709 96c-39.333 -36.667 -82.833 -66.6699 -130.5 -90.0029s-101.834 -35 -162.501 -35c-50.667 0 -97.167 8 -139.5 24s-78.833 37.833 -109.5 65.5s-54.5 59.834 -71.5 96.501s-25.5 75.667 -25.5 117c0 44 6.5 83 19.5 117s30.333 63.5 52 88.5s47 46 76 63
s59.333 30.667 91 41s64 17.666 97 21.999s64.5 6.5 94.5 6.5c48 0 88.333 -1.5 121 -4.5s62.334 -7.16699 89.001 -12.5l1 85c0 36.667 -5.33301 68.5 -16 95.5s-25.667 49.333 -45 67s-42.5 30.834 -69.5 39.501s-57.167 13 -90.5 13c-31.333 0 -61.333 -2.16699 -90 -6.5
s-55.5 -10 -80.5 -17s-48 -15 -69 -24s-38.833 -18.5 -53.5 -28.5l-61 129c24.667 16 51.667 30.833 81 44.5s60.166 25.334 92.499 35.001s65.333 17.334 99 23.001s66.834 8.5 99.501 8.5c60 0 114 -7.16699 162 -21.5s88.667 -36.5 122 -66.5s59 -68.167 77 -114.5
s27 -101.833 27 -166.5l-1 -518h115v-172h-301v96zM457 126.997c24.667 0 49.334 2.99805 74.001 8.99805s48 14.167 70 24.5s42.333 22.333 61 36s34.334 27.834 47.001 42.501l1 234h-216c-36 0 -68.833 -4 -98.5 -12s-55.334 -19.667 -77.001 -35
s-38.5 -34.333 -50.5 -57s-18 -48.667 -18 -78c0 -27.333 5 -51.166 15 -71.499s24.167 -37.333 42.5 -51s40.166 -24 65.499 -31s53.333 -10.5 84 -10.5zM446 1178l-287 282v17h248l184 -299h-145z" />
    <glyph glyph-name="aacute" unicode="&#xe1;" horiz-adv-x="1120" 
d="M709 96c-39.333 -36.667 -82.833 -66.6699 -130.5 -90.0029s-101.834 -35 -162.501 -35c-50.667 0 -97.167 8 -139.5 24s-78.833 37.833 -109.5 65.5s-54.5 59.834 -71.5 96.501s-25.5 75.667 -25.5 117c0 44 6.5 83 19.5 117s30.333 63.5 52 88.5s47 46 76 63
s59.333 30.667 91 41s64 17.666 97 21.999s64.5 6.5 94.5 6.5c48 0 88.333 -1.5 121 -4.5s62.334 -7.16699 89.001 -12.5l1 85c0 36.667 -5.33301 68.5 -16 95.5s-25.667 49.333 -45 67s-42.5 30.834 -69.5 39.501s-57.167 13 -90.5 13c-31.333 0 -61.333 -2.16699 -90 -6.5
s-55.5 -10 -80.5 -17s-48 -15 -69 -24s-38.833 -18.5 -53.5 -28.5l-61 129c24.667 16 51.667 30.833 81 44.5s60.166 25.334 92.499 35.001s65.333 17.334 99 23.001s66.834 8.5 99.501 8.5c60 0 114 -7.16699 162 -21.5s88.667 -36.5 122 -66.5s59 -68.167 77 -114.5
s27 -101.833 27 -166.5l-1 -518h115v-172h-301v96zM457 126.997c24.667 0 49.334 2.99805 74.001 8.99805s48 14.167 70 24.5s42.333 22.333 61 36s34.334 27.834 47.001 42.501l1 234h-216c-36 0 -68.833 -4 -98.5 -12s-55.334 -19.667 -77.001 -35
s-38.5 -34.333 -50.5 -57s-18 -48.667 -18 -78c0 -27.333 5 -51.166 15 -71.499s24.167 -37.333 42.5 -51s40.166 -24 65.499 -31s53.333 -10.5 84 -10.5zM594 1477h240v-17l-299 -282h-154z" />
    <glyph glyph-name="acircumflex" unicode="&#xe2;" horiz-adv-x="1120" 
d="M709 96c-39.333 -36.667 -82.833 -66.6699 -130.5 -90.0029s-101.834 -35 -162.501 -35c-50.667 0 -97.167 8 -139.5 24s-78.833 37.833 -109.5 65.5s-54.5 59.834 -71.5 96.501s-25.5 75.667 -25.5 117c0 44 6.5 83 19.5 117s30.333 63.5 52 88.5s47 46 76 63
s59.333 30.667 91 41s64 17.666 97 21.999s64.5 6.5 94.5 6.5c48 0 88.333 -1.5 121 -4.5s62.334 -7.16699 89.001 -12.5l1 85c0 36.667 -5.33301 68.5 -16 95.5s-25.667 49.333 -45 67s-42.5 30.834 -69.5 39.501s-57.167 13 -90.5 13c-31.333 0 -61.333 -2.16699 -90 -6.5
s-55.5 -10 -80.5 -17s-48 -15 -69 -24s-38.833 -18.5 -53.5 -28.5l-61 129c24.667 16 51.667 30.833 81 44.5s60.166 25.334 92.499 35.001s65.333 17.334 99 23.001s66.834 8.5 99.501 8.5c60 0 114 -7.16699 162 -21.5s88.667 -36.5 122 -66.5s59 -68.167 77 -114.5
s27 -101.833 27 -166.5l-1 -518h115v-172h-301v96zM457 126.997c24.667 0 49.334 2.99805 74.001 8.99805s48 14.167 70 24.5s42.333 22.333 61 36s34.334 27.834 47.001 42.501l1 234h-216c-36 0 -68.833 -4 -98.5 -12s-55.334 -19.667 -77.001 -35
s-38.5 -34.333 -50.5 -57s-18 -48.667 -18 -78c0 -27.333 5 -51.166 15 -71.499s24.167 -37.333 42.5 -51s40.166 -24 65.499 -31s53.333 -10.5 84 -10.5zM262 1176l250 313h63l252 -313h-149l-133 155l-135 -155h-148z" />
    <glyph glyph-name="atilde" unicode="&#xe3;" horiz-adv-x="1120" 
d="M709 96c-39.333 -36.667 -82.833 -66.6699 -130.5 -90.0029s-101.834 -35 -162.501 -35c-50.667 0 -97.167 8 -139.5 24s-78.833 37.833 -109.5 65.5s-54.5 59.834 -71.5 96.501s-25.5 75.667 -25.5 117c0 44 6.5 83 19.5 117s30.333 63.5 52 88.5s47 46 76 63
s59.333 30.667 91 41s64 17.666 97 21.999s64.5 6.5 94.5 6.5c48 0 88.333 -1.5 121 -4.5s62.334 -7.16699 89.001 -12.5l1 85c0 36.667 -5.33301 68.5 -16 95.5s-25.667 49.333 -45 67s-42.5 30.834 -69.5 39.501s-57.167 13 -90.5 13c-31.333 0 -61.333 -2.16699 -90 -6.5
s-55.5 -10 -80.5 -17s-48 -15 -69 -24s-38.833 -18.5 -53.5 -28.5l-61 129c24.667 16 51.667 30.833 81 44.5s60.166 25.334 92.499 35.001s65.333 17.334 99 23.001s66.834 8.5 99.501 8.5c60 0 114 -7.16699 162 -21.5s88.667 -36.5 122 -66.5s59 -68.167 77 -114.5
s27 -101.833 27 -166.5l-1 -518h115v-172h-301v96zM457 126.997c24.667 0 49.334 2.99805 74.001 8.99805s48 14.167 70 24.5s42.333 22.333 61 36s34.334 27.834 47.001 42.501l1 234h-216c-36 0 -68.833 -4 -98.5 -12s-55.334 -19.667 -77.001 -35
s-38.5 -34.333 -50.5 -57s-18 -48.667 -18 -78c0 -27.333 5 -51.166 15 -71.499s24.167 -37.333 42.5 -51s40.166 -24 65.499 -31s53.333 -10.5 84 -10.5zM391 1415c33.333 0 62.166 -5.5 86.499 -16.5s47 -23 68 -36s41.833 -24.833 62.5 -35.5s44 -16 70 -16
c18.667 0 36.834 6.33301 54.501 19s29.5 33 35.5 61l119 -35c-13.333 -56.667 -39.333 -100.5 -78 -131.5s-85 -46.5 -139 -46.5c-37.333 0 -69 5.16699 -95 15.5s-49.667 21.5 -71 33.5l-60 33.5c-18.667 10.333 -39 15.5 -61 15.5c-10 0 -20.167 -0.666992 -30.5 -2
s-20.5 -4.5 -30.5 -9.5s-19.167 -12.667 -27.5 -23s-14.833 -24.833 -19.5 -43.5l-109 53c8.66699 31.333 21 57.5 37 78.5s34 37.833 54 50.5s41.5 21.667 64.5 27s46.167 8 69.5 8z" />
    <glyph glyph-name="adieresis" unicode="&#xe4;" horiz-adv-x="1120" 
d="M709 96c-39.333 -36.667 -82.833 -66.6699 -130.5 -90.0029s-101.834 -35 -162.501 -35c-50.667 0 -97.167 8 -139.5 24s-78.833 37.833 -109.5 65.5s-54.5 59.834 -71.5 96.501s-25.5 75.667 -25.5 117c0 44 6.5 83 19.5 117s30.333 63.5 52 88.5s47 46 76 63
s59.333 30.667 91 41s64 17.666 97 21.999s64.5 6.5 94.5 6.5c48 0 88.333 -1.5 121 -4.5s62.334 -7.16699 89.001 -12.5l1 85c0 36.667 -5.33301 68.5 -16 95.5s-25.667 49.333 -45 67s-42.5 30.834 -69.5 39.501s-57.167 13 -90.5 13c-31.333 0 -61.333 -2.16699 -90 -6.5
s-55.5 -10 -80.5 -17s-48 -15 -69 -24s-38.833 -18.5 -53.5 -28.5l-61 129c24.667 16 51.667 30.833 81 44.5s60.166 25.334 92.499 35.001s65.333 17.334 99 23.001s66.834 8.5 99.501 8.5c60 0 114 -7.16699 162 -21.5s88.667 -36.5 122 -66.5s59 -68.167 77 -114.5
s27 -101.833 27 -166.5l-1 -518h115v-172h-301v96zM457 126.997c24.667 0 49.334 2.99805 74.001 8.99805s48 14.167 70 24.5s42.333 22.333 61 36s34.334 27.834 47.001 42.501l1 234h-216c-36 0 -68.833 -4 -98.5 -12s-55.334 -19.667 -77.001 -35
s-38.5 -34.333 -50.5 -57s-18 -48.667 -18 -78c0 -27.333 5 -51.166 15 -71.499s24.167 -37.333 42.5 -51s40.166 -24 65.499 -31s53.333 -10.5 84 -10.5zM148 1360c0 17.333 3.5 33.833 10.5 49.5s16.333 29.334 28 41.001s25.334 21 41.001 28s32.167 10.5 49.5 10.5
c16.667 0 32.667 -3.5 48 -10.5s28.666 -16.333 39.999 -28s20.333 -25.334 27 -41.001s10 -32.167 10 -49.5c0 -18 -3.33301 -35 -10 -51s-15.667 -30.167 -27 -42.5s-24.666 -22 -39.999 -29s-31.333 -10.5 -48 -10.5c-17.333 0 -33.833 3.5 -49.5 10.5
s-29.334 16.667 -41.001 29s-21 26.5 -28 42.5s-10.5 33 -10.5 51zM607 1360c0 17.333 3.5 33.833 10.5 49.5s16.333 29.334 28 41.001s25.334 21 41.001 28s32.167 10.5 49.5 10.5c16.667 0 32.5 -3.5 47.5 -10.5s28.333 -16.333 40 -28s20.834 -25.334 27.501 -41.001
s10 -32.167 10 -49.5c0 -18 -3.33301 -35 -10 -51s-15.834 -30.167 -27.501 -42.5s-25 -22 -40 -29s-30.833 -10.5 -47.5 -10.5c-17.333 0 -33.833 3.5 -49.5 10.5s-29.334 16.667 -41.001 29s-21 26.5 -28 42.5s-10.5 33 -10.5 51z" />
    <glyph glyph-name="aring" unicode="&#xe5;" horiz-adv-x="1120" 
d="M709 96c-39.333 -36.667 -82.833 -66.6699 -130.5 -90.0029s-101.834 -35 -162.501 -35c-50.667 0 -97.167 8 -139.5 24s-78.833 37.833 -109.5 65.5s-54.5 59.834 -71.5 96.501s-25.5 75.667 -25.5 117c0 44 6.5 83 19.5 117s30.333 63.5 52 88.5s47 46 76 63
s59.333 30.667 91 41s64 17.666 97 21.999s64.5 6.5 94.5 6.5c48 0 88.333 -1.5 121 -4.5s62.334 -7.16699 89.001 -12.5l1 85c0 36.667 -5.33301 68.5 -16 95.5s-25.667 49.333 -45 67s-42.5 30.834 -69.5 39.501s-57.167 13 -90.5 13c-31.333 0 -61.333 -2.16699 -90 -6.5
s-55.5 -10 -80.5 -17s-48 -15 -69 -24s-38.833 -18.5 -53.5 -28.5l-61 129c24.667 16 51.667 30.833 81 44.5s60.166 25.334 92.499 35.001s65.333 17.334 99 23.001s66.834 8.5 99.501 8.5c60 0 114 -7.16699 162 -21.5s88.667 -36.5 122 -66.5s59 -68.167 77 -114.5
s27 -101.833 27 -166.5l-1 -518h115v-172h-301v96zM457 126.997c24.667 0 49.334 2.99805 74.001 8.99805s48 14.167 70 24.5s42.333 22.333 61 36s34.334 27.834 47.001 42.501l1 234h-216c-36 0 -68.833 -4 -98.5 -12s-55.334 -19.667 -77.001 -35
s-38.5 -34.333 -50.5 -57s-18 -48.667 -18 -78c0 -27.333 5 -51.166 15 -71.499s24.167 -37.333 42.5 -51s40.166 -24 65.499 -31s53.333 -10.5 84 -10.5zM421 1343c0 -14 2.83301 -27.167 8.5 -39.5s13.334 -23.333 23.001 -33s20.667 -17.334 33 -23.001
s25.5 -8.5 39.5 -8.5s27.333 2.83301 40 8.5s23.834 13.334 33.501 23.001s17.334 20.667 23.001 33s8.5 25.5 8.5 39.5s-2.83301 27.333 -8.5 40s-13.334 23.834 -23.001 33.501s-20.834 17.334 -33.501 23.001s-26 8.5 -40 8.5s-27.167 -2.83301 -39.5 -8.5
s-23.333 -13.334 -33 -23.001s-17.334 -20.834 -23.001 -33.501s-8.5 -26 -8.5 -40zM525 1599c34.667 0 67.667 -6.83301 99 -20.5s58.5 -32 81.5 -55s41.333 -50.167 55 -81.5s20.5 -64.333 20.5 -99s-6.83301 -67.5 -20.5 -98.5s-32 -58.167 -55 -81.5
s-50.167 -41.833 -81.5 -55.5s-64.333 -20.5 -99 -20.5s-67.5 6.83301 -98.5 20.5s-58.167 32.167 -81.5 55.5s-41.833 50.5 -55.5 81.5s-20.5 63.833 -20.5 98.5s6.83301 67.667 20.5 99s32.167 58.5 55.5 81.5s50.5 41.333 81.5 55s63.833 20.5 98.5 20.5z" />
    <glyph glyph-name="ae" unicode="&#xe6;" horiz-adv-x="1784" 
d="M481 606c88 0 158.668 -7.00293 212.001 -21.0029v3l1 92c0.666992 36.667 -4.33301 68.5 -15 95.5s-25.834 49.333 -45.501 67s-43.334 30.834 -71.001 39.501s-58.167 13 -91.5 13c-31.333 0 -61.333 -2.16699 -90 -6.5s-55.5 -10 -80.5 -17s-48 -15 -69 -24
s-38.833 -18.5 -53.5 -28.5l-61 129c24.667 16 51.667 30.833 81 44.5s60.166 25.334 92.499 35.001s65.333 17.334 99 23.001s66.834 8.5 99.501 8.5c76.667 0 143.167 -11.833 199.5 -35.5s100.5 -60.5 132.5 -110.5c41.333 46.667 91.5 83.334 150.5 110.001
s127.833 40 206.5 40c78 0 143.167 -11.833 195.5 -35.5s95 -55 128 -94s58 -83.5 75 -133.5s28.833 -101 35.5 -153c3.33301 -25.333 5.5 -51 6.5 -77s1.5 -51.333 1.5 -76h-746c0 -36 3 -70 9 -102s16.333 -64.667 31 -98s49.167 -66.833 103.5 -100.5
s115.833 -50.5 184.5 -50.5c54 0 106.5 7.5 157.5 22.5s104.5 38.5 160.5 70.5l75 -127c-68 -46.667 -136.333 -81.334 -205 -104.001s-140 -34 -214 -34c-78.667 0 -150 14.167 -214 42.5s-118 71.166 -162 128.499c-21.333 -26 -46.166 -49.667 -74.499 -71
s-59.166 -39.333 -92.499 -54s-68.333 -26 -105 -34s-73.334 -12 -110.001 -12c-56 0 -106.5 8 -151.5 24s-83.5 37.833 -115.5 65.5s-56.667 59.834 -74 96.501s-26 75.667 -26 117c0 43.333 6.5 81.666 19.5 114.999s30.333 62.333 52 87s47 45.334 76 62.001
s59.333 30 91 40s64 17.167 97 21.5s64.5 6.5 94.5 6.5zM438.001 126.997c64.667 0 121.835 12.167 171.502 36.5s91.5 56.5 125.5 96.5c-25.333 62.667 -40 135 -44 217h-216c-36 0 -68.833 -4 -98.5 -12s-55.334 -19.667 -77.001 -35s-38.5 -34.333 -50.5 -57
s-18 -48.667 -18 -78c0 -28 5 -52.5 15 -73.5s24.167 -38.5 42.5 -52.5s40.166 -24.5 65.499 -31.5s53.333 -10.5 84 -10.5zM1165 906.997c-43.333 0 -81.1641 -6.16895 -113.497 -18.502s-59.833 -30 -82.5 -53s-40.834 -51.167 -54.501 -84.5
s-23.834 -70.666 -30.501 -111.999h537c-2.66699 38.667 -8.83398 74.334 -18.501 107.001s-24.5 61 -44.5 85s-45.667 42.667 -77 56s-70 20 -116 20z" />
    <glyph glyph-name="ccedilla" unicode="&#xe7;" horiz-adv-x="1116" 
d="M848 760c-28 50 -63.502 86.6699 -106.502 110.003s-92.833 35 -149.5 35c-43.333 0 -84 -9 -122 -27s-71.167 -43.667 -99.5 -77s-50.666 -73.833 -66.999 -121.5s-24.5 -100.834 -24.5 -159.501c0 -58 8.16699 -110.333 24.5 -157s38.833 -86.5 67.5 -119.5
s61.834 -58.333 99.501 -76s78.167 -26.5 121.5 -26.5c64 0 119.667 15.5 167 46.5s85 76.5 113 136.5l154 -76c-20 -42.667 -44.667 -81 -74 -115s-62.5 -63 -99.5 -87s-77.667 -42.5 -122 -55.5s-91.166 -19.5 -140.499 -19.5c-72 0 -138.5 13.5 -199.5 40.5
s-113.667 64.833 -158 113.5s-78.833 106.667 -103.5 174s-37 141 -37 221s13 153.667 39 221s61.667 125.166 107 173.499s98.333 86.166 159 113.499s125.667 41 195 41c65.333 0 127.166 -11.333 185.499 -34s109.5 -57 153.5 -103h105v-172h-188zM322.998 -302.997
c36.667 0.666992 69.835 7.16602 99.502 19.499s55.667 28.5 78 48.5s40.666 43.5 54.999 70.5s24.166 55.833 29.499 86.5l150 -45c-12 -48.667 -30.667 -92.167 -56 -130.5s-55.5 -70.666 -90.5 -96.999s-74.167 -46.5 -117.5 -60.5s-89 -21 -137 -21z" />
    <glyph glyph-name="egrave" unicode="&#xe8;" 
d="M276 494c0 -29.333 2.16602 -56.165 6.49902 -80.498s10.5 -47.5 18.5 -69.5c24.667 -66.667 64.167 -116.834 118.5 -150.501s115.833 -50.5 184.5 -50.5c54 0 106.5 7.5 157.5 22.5s104.5 38.5 160.5 70.5l75 -127c-68 -46.667 -136.333 -81.334 -205 -104.001
s-140 -34 -214 -34c-70 0 -134.833 11.667 -194.5 35s-111 58 -154 104s-76.667 103.333 -101 172s-36.5 148.667 -36.5 240c0 74 10.333 143.833 31 209.5s51.5 123 92.5 172s91.833 87.833 152.5 116.5s131.334 43 212.001 43c78 0 143.167 -11.833 195.5 -35.5
s95 -55 128 -94s58 -83.5 75 -133.5s28.833 -101 35.5 -153c3.33301 -25.333 5.5 -51 6.5 -77s1.5 -51.333 1.5 -76h-746zM566.999 907.001c-43.333 0 -81.1641 -6.16895 -113.497 -18.502s-59.833 -30 -82.5 -53s-40.834 -51.167 -54.501 -84.5
s-23.834 -70.666 -30.501 -111.999h537c-2.66699 38.667 -8.83398 74.334 -18.501 107.001s-24.5 61 -44.5 85s-45.667 42.667 -77 56s-70 20 -116 20zM506.001 1178l-287 282v17h248l184 -299h-145z" />
    <glyph glyph-name="eacute" unicode="&#xe9;" 
d="M276 494c0 -29.333 2.16602 -56.165 6.49902 -80.498s10.5 -47.5 18.5 -69.5c24.667 -66.667 64.167 -116.834 118.5 -150.501s115.833 -50.5 184.5 -50.5c54 0 106.5 7.5 157.5 22.5s104.5 38.5 160.5 70.5l75 -127c-68 -46.667 -136.333 -81.334 -205 -104.001
s-140 -34 -214 -34c-70 0 -134.833 11.667 -194.5 35s-111 58 -154 104s-76.667 103.333 -101 172s-36.5 148.667 -36.5 240c0 74 10.333 143.833 31 209.5s51.5 123 92.5 172s91.833 87.833 152.5 116.5s131.334 43 212.001 43c78 0 143.167 -11.833 195.5 -35.5
s95 -55 128 -94s58 -83.5 75 -133.5s28.833 -101 35.5 -153c3.33301 -25.333 5.5 -51 6.5 -77s1.5 -51.333 1.5 -76h-746zM566.999 907.001c-43.333 0 -81.1641 -6.16895 -113.497 -18.502s-59.833 -30 -82.5 -53s-40.834 -51.167 -54.501 -84.5
s-23.834 -70.666 -30.501 -111.999h537c-2.66699 38.667 -8.83398 74.334 -18.501 107.001s-24.5 61 -44.5 85s-45.667 42.667 -77 56s-70 20 -116 20zM653.001 1477h240v-17l-299 -282h-154z" />
    <glyph glyph-name="ecircumflex" unicode="&#xea;" 
d="M276 494c0 -29.333 2.16602 -56.165 6.49902 -80.498s10.5 -47.5 18.5 -69.5c24.667 -66.667 64.167 -116.834 118.5 -150.501s115.833 -50.5 184.5 -50.5c54 0 106.5 7.5 157.5 22.5s104.5 38.5 160.5 70.5l75 -127c-68 -46.667 -136.333 -81.334 -205 -104.001
s-140 -34 -214 -34c-70 0 -134.833 11.667 -194.5 35s-111 58 -154 104s-76.667 103.333 -101 172s-36.5 148.667 -36.5 240c0 74 10.333 143.833 31 209.5s51.5 123 92.5 172s91.833 87.833 152.5 116.5s131.334 43 212.001 43c78 0 143.167 -11.833 195.5 -35.5
s95 -55 128 -94s58 -83.5 75 -133.5s28.833 -101 35.5 -153c3.33301 -25.333 5.5 -51 6.5 -77s1.5 -51.333 1.5 -76h-746zM566.999 907.001c-43.333 0 -81.1641 -6.16895 -113.497 -18.502s-59.833 -30 -82.5 -53s-40.834 -51.167 -54.501 -84.5
s-23.834 -70.666 -30.501 -111.999h537c-2.66699 38.667 -8.83398 74.334 -18.501 107.001s-24.5 61 -44.5 85s-45.667 42.667 -77 56s-70 20 -116 20zM321.001 1176l250 313h63l252 -313h-149l-133 155l-135 -155h-148z" />
    <glyph glyph-name="edieresis" unicode="&#xeb;" 
d="M276 494c0 -29.333 2.16602 -56.165 6.49902 -80.498s10.5 -47.5 18.5 -69.5c24.667 -66.667 64.167 -116.834 118.5 -150.501s115.833 -50.5 184.5 -50.5c54 0 106.5 7.5 157.5 22.5s104.5 38.5 160.5 70.5l75 -127c-68 -46.667 -136.333 -81.334 -205 -104.001
s-140 -34 -214 -34c-70 0 -134.833 11.667 -194.5 35s-111 58 -154 104s-76.667 103.333 -101 172s-36.5 148.667 -36.5 240c0 74 10.333 143.833 31 209.5s51.5 123 92.5 172s91.833 87.833 152.5 116.5s131.334 43 212.001 43c78 0 143.167 -11.833 195.5 -35.5
s95 -55 128 -94s58 -83.5 75 -133.5s28.833 -101 35.5 -153c3.33301 -25.333 5.5 -51 6.5 -77s1.5 -51.333 1.5 -76h-746zM566.999 907.001c-43.333 0 -81.1641 -6.16895 -113.497 -18.502s-59.833 -30 -82.5 -53s-40.834 -51.167 -54.501 -84.5
s-23.834 -70.666 -30.501 -111.999h537c-2.66699 38.667 -8.83398 74.334 -18.501 107.001s-24.5 61 -44.5 85s-45.667 42.667 -77 56s-70 20 -116 20zM207.001 1360c0 17.333 3.5 33.833 10.5 49.5s16.333 29.334 28 41.001s25.334 21 41.001 28s32.167 10.5 49.5 10.5
c16.667 0 32.667 -3.5 48 -10.5s28.666 -16.333 39.999 -28s20.333 -25.334 27 -41.001s10 -32.167 10 -49.5c0 -18 -3.33301 -35 -10 -51s-15.667 -30.167 -27 -42.5s-24.666 -22 -39.999 -29s-31.333 -10.5 -48 -10.5c-17.333 0 -33.833 3.5 -49.5 10.5
s-29.334 16.667 -41.001 29s-21 26.5 -28 42.5s-10.5 33 -10.5 51zM666.001 1360c0 17.333 3.5 33.833 10.5 49.5s16.333 29.334 28 41.001s25.334 21 41.001 28s32.167 10.5 49.5 10.5c16.667 0 32.5 -3.5 47.5 -10.5s28.333 -16.333 40 -28s20.834 -25.334 27.501 -41.001
s10 -32.167 10 -49.5c0 -18 -3.33301 -35 -10 -51s-15.834 -30.167 -27.501 -42.5s-25 -22 -40 -29s-30.833 -10.5 -47.5 -10.5c-17.333 0 -33.833 3.5 -49.5 10.5s-29.334 16.667 -41.001 29s-21 26.5 -28 42.5s-10.5 33 -10.5 51z" />
    <glyph glyph-name="igrave" unicode="&#xec;" horiz-adv-x="657" 
d="M92 1036h338v-864h156v-172h-492v172h148v692h-150v172zM252 1178l-287 282v17h248l184 -299h-145z" />
    <glyph glyph-name="iacute" unicode="&#xed;" horiz-adv-x="657" 
d="M92 1036h338v-864h156v-172h-492v172h148v692h-150v172zM392 1477h240v-17l-299 -282h-154z" />
    <glyph glyph-name="icircumflex" unicode="&#xee;" horiz-adv-x="657" 
d="M92 1036h338v-864h156v-172h-492v172h148v692h-150v172zM62 1176l210 313h73l212 -313h-154l-93 155l-95 -155h-153z" />
    <glyph glyph-name="idieresis" unicode="&#xef;" horiz-adv-x="657" 
d="M92 1036h338v-864h156v-172h-492v172h148v692h-150v172zM15 1360c0 35.333 12.667 65.666 38 90.999s55.666 38 90.999 38c16.667 0 32.834 -3.5 48.501 -10.5s29 -16.167 40 -27.5s19.833 -25 26.5 -41s10 -32.667 10 -50c0 -18 -3.33301 -35.167 -10 -51.5
s-15.5 -30.666 -26.5 -42.999s-24.333 -21.833 -40 -28.5s-31.834 -10 -48.501 -10c-35.333 0 -65.666 13.333 -90.999 40s-38 57.667 -38 93v0zM330 1360c0 35.333 12.667 65.666 38 90.999s55.666 38 90.999 38c16.667 0 32.834 -3.5 48.501 -10.5s29 -16.167 40 -27.5
s19.833 -25 26.5 -41s10 -32.667 10 -50c0 -18 -3.33301 -35.167 -10 -51.5s-15.5 -30.666 -26.5 -42.999s-24.333 -21.833 -40 -28.5s-31.834 -10 -48.501 -10c-35.333 0 -65.666 13.333 -90.999 40s-38 57.667 -38 93v0z" />
    <glyph glyph-name="eth" unicode="&#xf0;" horiz-adv-x="1270" 
d="M666 1526l89.0029 -162.002l170 55l53 -164l-138 -45l194 -352c34 -62 62 -121.667 84 -179s33 -115.666 33 -174.999c0 -76 -14.5 -145.167 -43.5 -207.5s-67.833 -115.666 -116.5 -159.999s-104.5 -78.833 -167.5 -103.5s-128.5 -37 -196.5 -37
c-72 0 -140.167 11.833 -204.5 35.5s-120.833 58.334 -169.5 104.001s-87.334 101.5 -116.001 167.5s-43 141.333 -43 226c0 68.667 13.333 132 40 190s62.167 107.667 106.5 149s95.166 73.666 152.499 96.999s116.666 35 177.999 35c26 0 55.333 -1.33301 88 -4
s69.667 -12.667 111 -30l-112 186l-149 -48l-52 164l109 35l-134 223h234zM649.003 835.998c-49.333 0 -96.166 -7.16406 -140.499 -21.4971s-83.333 -35.5 -117 -63.5s-60.5 -62.833 -80.5 -104.5s-30 -89.834 -30 -144.501c0 -49.333 9.16699 -94.333 27.5 -135
s43.166 -75.667 74.499 -105s67.666 -52 108.999 -68s85 -24 131 -24c48.667 0 93.834 7.5 135.501 22.5s77.834 36.667 108.501 65s54.667 63.166 72 104.499s26 88 26 140c0 51.333 -8.83301 97.666 -26.5 138.999s-41.334 76.5 -71.001 105.5s-63.5 51.167 -101.5 66.5
s-77 23 -117 23z" />
    <glyph glyph-name="ntilde" unicode="&#xf1;" horiz-adv-x="1366" 
d="M782 172l145.998 0.000976562v473c0 79.333 -20.167 139.5 -60.5 180.5s-98.166 61.5 -173.499 61.5c-43.333 0 -87 -10.333 -131 -31s-85.667 -46.334 -125 -77.001v-607h146v-172h-484v172h144v692h-144v172h330v-122h2c22 19.333 45.5 37.666 70.5 54.999
s51.167 32.333 78.5 45s55.833 22.667 85.5 30s60.834 11 93.501 11c55.333 0 105.333 -7.66699 150 -23s82.667 -38.666 114 -69.999s55.5 -71.5 72.5 -120.5s25.5 -106.833 25.5 -173.5v-496h144v-172h-484v172zM554.998 1415c33.333 0 62.166 -5.5 86.499 -16.5
s47 -23 68 -36s41.833 -24.833 62.5 -35.5s44 -16 70 -16c18.667 0 36.834 6.33301 54.501 19s29.5 33 35.5 61l119 -35c-13.333 -56.667 -39.333 -100.5 -78 -131.5s-85 -46.5 -139 -46.5c-37.333 0 -69 5.16699 -95 15.5s-49.667 21.5 -71 33.5l-60 33.5
c-18.667 10.333 -39 15.5 -61 15.5c-10 0 -20.167 -0.666992 -30.5 -2s-20.5 -4.5 -30.5 -9.5s-19.167 -12.667 -27.5 -23s-14.833 -24.833 -19.5 -43.5l-109 53c8.66699 31.333 21 57.5 37 78.5s34 37.833 54 50.5s41.5 21.667 64.5 27s46.167 8 69.5 8z" />
    <glyph glyph-name="ograve" unicode="&#xf2;" horiz-adv-x="1219" 
d="M86 518c0.666992 82 13.8311 156.672 39.498 224.005s61.5 125.166 107.5 173.499s100.667 85.5 164 111.5s133 39 209 39c76.667 0 146.834 -13 210.501 -39s118.167 -62.833 163.5 -110.5s80.666 -105.167 105.999 -172.5s38 -142 38 -224
c0 -80.667 -12.667 -154.834 -38 -222.501s-60.666 -125.834 -105.999 -174.501s-99.833 -86.5 -163.5 -113.5s-133.834 -40.5 -210.501 -40.5c-78 0 -148.667 13.333 -212 40s-117.666 64.167 -162.999 112.5s-80.666 106.166 -105.999 173.499
s-38.333 141.666 -39 222.999zM282.997 518.005c0 -59.333 8.5 -113 25.5 -161s40.333 -88.833 70 -122.5s64 -59.667 103 -78s80.5 -27.5 124.5 -27.5c46 0 88.833 9 128.5 27s74.167 43.833 103.5 77.5s52.333 74.5 69 122.5s25 102 25 162
c0 62.667 -8.33301 118.334 -25 167.001s-39.5 89.334 -68.5 122.001s-63.5 57.334 -103.5 74.001s-83 25 -129 25c-44 0 -85.5 -8.33301 -124.5 -25s-73.333 -41.334 -103 -74.001s-53 -73.334 -70 -122.001s-25.5 -104.334 -25.5 -167.001zM533.997 1178l-287 282v17h248
l184 -299h-145z" />
    <glyph glyph-name="oacute" unicode="&#xf3;" horiz-adv-x="1219" 
d="M86 518c0.666992 82 13.8311 156.672 39.498 224.005s61.5 125.166 107.5 173.499s100.667 85.5 164 111.5s133 39 209 39c76.667 0 146.834 -13 210.501 -39s118.167 -62.833 163.5 -110.5s80.666 -105.167 105.999 -172.5s38 -142 38 -224
c0 -80.667 -12.667 -154.834 -38 -222.501s-60.666 -125.834 -105.999 -174.501s-99.833 -86.5 -163.5 -113.5s-133.834 -40.5 -210.501 -40.5c-78 0 -148.667 13.333 -212 40s-117.666 64.167 -162.999 112.5s-80.666 106.166 -105.999 173.499
s-38.333 141.666 -39 222.999zM282.997 518.005c0 -59.333 8.5 -113 25.5 -161s40.333 -88.833 70 -122.5s64 -59.667 103 -78s80.5 -27.5 124.5 -27.5c46 0 88.833 9 128.5 27s74.167 43.833 103.5 77.5s52.333 74.5 69 122.5s25 102 25 162
c0 62.667 -8.33301 118.334 -25 167.001s-39.5 89.334 -68.5 122.001s-63.5 57.334 -103.5 74.001s-83 25 -129 25c-44 0 -85.5 -8.33301 -124.5 -25s-73.333 -41.334 -103 -74.001s-53 -73.334 -70 -122.001s-25.5 -104.334 -25.5 -167.001zM681.997 1477h240v-17
l-299 -282h-154z" />
    <glyph glyph-name="ocircumflex" unicode="&#xf4;" horiz-adv-x="1219" 
d="M86 518c0.666992 82 13.8311 156.672 39.498 224.005s61.5 125.166 107.5 173.499s100.667 85.5 164 111.5s133 39 209 39c76.667 0 146.834 -13 210.501 -39s118.167 -62.833 163.5 -110.5s80.666 -105.167 105.999 -172.5s38 -142 38 -224
c0 -80.667 -12.667 -154.834 -38 -222.501s-60.666 -125.834 -105.999 -174.501s-99.833 -86.5 -163.5 -113.5s-133.834 -40.5 -210.501 -40.5c-78 0 -148.667 13.333 -212 40s-117.666 64.167 -162.999 112.5s-80.666 106.166 -105.999 173.499
s-38.333 141.666 -39 222.999zM282.997 518.005c0 -59.333 8.5 -113 25.5 -161s40.333 -88.833 70 -122.5s64 -59.667 103 -78s80.5 -27.5 124.5 -27.5c46 0 88.833 9 128.5 27s74.167 43.833 103.5 77.5s52.333 74.5 69 122.5s25 102 25 162
c0 62.667 -8.33301 118.334 -25 167.001s-39.5 89.334 -68.5 122.001s-63.5 57.334 -103.5 74.001s-83 25 -129 25c-44 0 -85.5 -8.33301 -124.5 -25s-73.333 -41.334 -103 -74.001s-53 -73.334 -70 -122.001s-25.5 -104.334 -25.5 -167.001zM349.997 1176l250 313h63
l252 -313h-149l-133 155l-135 -155h-148z" />
    <glyph glyph-name="otilde" unicode="&#xf5;" horiz-adv-x="1219" 
d="M86 518c0.666992 82 13.8311 156.672 39.498 224.005s61.5 125.166 107.5 173.499s100.667 85.5 164 111.5s133 39 209 39c76.667 0 146.834 -13 210.501 -39s118.167 -62.833 163.5 -110.5s80.666 -105.167 105.999 -172.5s38 -142 38 -224
c0 -80.667 -12.667 -154.834 -38 -222.501s-60.666 -125.834 -105.999 -174.501s-99.833 -86.5 -163.5 -113.5s-133.834 -40.5 -210.501 -40.5c-78 0 -148.667 13.333 -212 40s-117.666 64.167 -162.999 112.5s-80.666 106.166 -105.999 173.499
s-38.333 141.666 -39 222.999zM282.997 518.005c0 -59.333 8.5 -113 25.5 -161s40.333 -88.833 70 -122.5s64 -59.667 103 -78s80.5 -27.5 124.5 -27.5c46 0 88.833 9 128.5 27s74.167 43.833 103.5 77.5s52.333 74.5 69 122.5s25 102 25 162
c0 62.667 -8.33301 118.334 -25 167.001s-39.5 89.334 -68.5 122.001s-63.5 57.334 -103.5 74.001s-83 25 -129 25c-44 0 -85.5 -8.33301 -124.5 -25s-73.333 -41.334 -103 -74.001s-53 -73.334 -70 -122.001s-25.5 -104.334 -25.5 -167.001zM478.997 1415
c33.333 0 62.166 -5.5 86.499 -16.5s47 -23 68 -36s41.833 -24.833 62.5 -35.5s44 -16 70 -16c18.667 0 36.834 6.33301 54.501 19s29.5 33 35.5 61l119 -35c-13.333 -56.667 -39.333 -100.5 -78 -131.5s-85 -46.5 -139 -46.5c-37.333 0 -69 5.16699 -95 15.5
s-49.667 21.5 -71 33.5l-60 33.5c-18.667 10.333 -39 15.5 -61 15.5c-10 0 -20.167 -0.666992 -30.5 -2s-20.5 -4.5 -30.5 -9.5s-19.167 -12.667 -27.5 -23s-14.833 -24.833 -19.5 -43.5l-109 53c8.66699 31.333 21 57.5 37 78.5s34 37.833 54 50.5s41.5 21.667 64.5 27
s46.167 8 69.5 8z" />
    <glyph glyph-name="odieresis" unicode="&#xf6;" horiz-adv-x="1219" 
d="M86 518c0.666992 82 13.8311 156.672 39.498 224.005s61.5 125.166 107.5 173.499s100.667 85.5 164 111.5s133 39 209 39c76.667 0 146.834 -13 210.501 -39s118.167 -62.833 163.5 -110.5s80.666 -105.167 105.999 -172.5s38 -142 38 -224
c0 -80.667 -12.667 -154.834 -38 -222.501s-60.666 -125.834 -105.999 -174.501s-99.833 -86.5 -163.5 -113.5s-133.834 -40.5 -210.501 -40.5c-78 0 -148.667 13.333 -212 40s-117.666 64.167 -162.999 112.5s-80.666 106.166 -105.999 173.499
s-38.333 141.666 -39 222.999zM282.997 518.005c0 -59.333 8.5 -113 25.5 -161s40.333 -88.833 70 -122.5s64 -59.667 103 -78s80.5 -27.5 124.5 -27.5c46 0 88.833 9 128.5 27s74.167 43.833 103.5 77.5s52.333 74.5 69 122.5s25 102 25 162
c0 62.667 -8.33301 118.334 -25 167.001s-39.5 89.334 -68.5 122.001s-63.5 57.334 -103.5 74.001s-83 25 -129 25c-44 0 -85.5 -8.33301 -124.5 -25s-73.333 -41.334 -103 -74.001s-53 -73.334 -70 -122.001s-25.5 -104.334 -25.5 -167.001zM235.997 1360
c0 17.333 3.5 33.833 10.5 49.5s16.333 29.334 28 41.001s25.334 21 41.001 28s32.167 10.5 49.5 10.5c16.667 0 32.667 -3.5 48 -10.5s28.666 -16.333 39.999 -28s20.333 -25.334 27 -41.001s10 -32.167 10 -49.5c0 -18 -3.33301 -35 -10 -51s-15.667 -30.167 -27 -42.5
s-24.666 -22 -39.999 -29s-31.333 -10.5 -48 -10.5c-17.333 0 -33.833 3.5 -49.5 10.5s-29.334 16.667 -41.001 29s-21 26.5 -28 42.5s-10.5 33 -10.5 51zM694.997 1360c0 17.333 3.5 33.833 10.5 49.5s16.333 29.334 28 41.001s25.334 21 41.001 28s32.167 10.5 49.5 10.5
c16.667 0 32.5 -3.5 47.5 -10.5s28.333 -16.333 40 -28s20.834 -25.334 27.501 -41.001s10 -32.167 10 -49.5c0 -18 -3.33301 -35 -10 -51s-15.834 -30.167 -27.501 -42.5s-25 -22 -40 -29s-30.833 -10.5 -47.5 -10.5c-17.333 0 -33.833 3.5 -49.5 10.5
s-29.334 16.667 -41.001 29s-21 26.5 -28 42.5s-10.5 33 -10.5 51z" />
    <glyph glyph-name="divide" unicode="&#xf7;" horiz-adv-x="1126" 
d="M414 907c0 17.333 3.5 33.833 10.5 49.5s16.333 29.334 28 41.001s25.5 21 41.5 28s33 10.5 51 10.5c17.333 0 33.833 -3.5 49.5 -10.5s29.334 -16.333 41.001 -28s21 -25.334 28 -41.001s10.5 -32.167 10.5 -49.5c0 -18 -3.5 -35 -10.5 -51s-16.333 -30.167 -28 -42.5
s-25.334 -22 -41.001 -29s-32.167 -10.5 -49.5 -10.5c-18 0 -35 3.5 -51 10.5s-29.833 16.667 -41.5 29s-21 26.5 -28 42.5s-10.5 33 -10.5 51zM414 121c0 17.333 3.5 33.833 10.5 49.5s16.333 29.334 28 41.001s25.5 21 41.5 28s33 10.5 51 10.5
c17.333 0 33.833 -3.5 49.5 -10.5s29.334 -16.333 41.001 -28s21 -25.334 28 -41.001s10.5 -32.167 10.5 -49.5c0 -18 -3.5 -35 -10.5 -51s-16.333 -30.167 -28 -42.5s-25.334 -22 -41.001 -29s-32.167 -10.5 -49.5 -10.5c-18 0 -35 3.5 -51 10.5s-29.833 16.667 -41.5 29
s-21 26.5 -28 42.5s-10.5 33 -10.5 51zM51 614h1024v-162h-1024v162z" />
    <glyph glyph-name="oslash" unicode="&#xf8;" horiz-adv-x="1219" 
d="M213 145c-39.333 48 -69.333 103.335 -90 166.002s-31 131.667 -31 207c0 81.333 12.5 155.666 37.5 222.999s60.333 125.166 106 173.499s100.167 85.833 163.5 112.5s133 40 209 40c52 0 100.667 -6 146 -18s87.333 -29.333 126 -52l133 170h198l-211 -270
c40 -48 71 -103.667 93 -167s33 -133.333 33 -210c0 -82.667 -12.167 -157.834 -36.5 -225.501s-59 -125.667 -104 -174s-99.5 -85.666 -163.5 -111.999s-135.333 -39.5 -214 -39.5c-53.333 0 -103 6.33301 -149 19s-88.667 30.667 -128 54l-80 -103h-199zM882 746.002
l-441 -563.999c24.667 -16.667 51 -29.334 79 -38.001s57.333 -13 88 -13c46 0 88.833 9 128.5 27s74.167 43.667 103.5 77s52.333 73.833 69 121.5s25 101.5 25 161.5c0 46 -4.5 88 -13.5 126s-21.833 72 -38.5 102zM335 301.003l439 561.003
c-24 15.333 -50 26.666 -78 33.999s-57.333 11 -88 11c-44 0 -85.5 -8.5 -124.5 -25.5s-73.333 -41.833 -103 -74.5s-53 -73.334 -70 -122.001s-25.5 -104.334 -25.5 -167.001c0 -42 4.33301 -81.167 13 -117.5s21 -69.5 37 -99.5z" />
    <glyph glyph-name="ugrave" unicode="&#xf9;" horiz-adv-x="1350" 
d="M724 1036l333.999 -0.000976562v-864h115v-172h-302v96c-46.667 -36 -97.5 -64 -152.5 -84s-113.833 -30 -176.5 -30c-52 0 -99.167 7.5 -141.5 22.5s-78.333 38.333 -108 70s-52.5 71.834 -68.5 120.501s-24 106.667 -24 174v495h-140v172h334v-645
c0 -79.333 18.333 -139.333 55 -180s89.334 -61 158.001 -61c40.667 0 83.5 7.33301 128.5 22s87.5 35 127.5 61v631h-139v172zM501.999 1178l-287 282v17h248l184 -299h-145z" />
    <glyph glyph-name="uacute" unicode="&#xfa;" horiz-adv-x="1350" 
d="M724 1036l333.999 -0.000976562v-864h115v-172h-302v96c-46.667 -36 -97.5 -64 -152.5 -84s-113.833 -30 -176.5 -30c-52 0 -99.167 7.5 -141.5 22.5s-78.333 38.333 -108 70s-52.5 71.834 -68.5 120.501s-24 106.667 -24 174v495h-140v172h334v-645
c0 -79.333 18.333 -139.333 55 -180s89.334 -61 158.001 -61c40.667 0 83.5 7.33301 128.5 22s87.5 35 127.5 61v631h-139v172zM648.999 1477h240v-17l-299 -282h-154z" />
    <glyph glyph-name="ucircumflex" unicode="&#xfb;" horiz-adv-x="1350" 
d="M724 1036l333.999 -0.000976562v-864h115v-172h-302v96c-46.667 -36 -97.5 -64 -152.5 -84s-113.833 -30 -176.5 -30c-52 0 -99.167 7.5 -141.5 22.5s-78.333 38.333 -108 70s-52.5 71.834 -68.5 120.501s-24 106.667 -24 174v495h-140v172h334v-645
c0 -79.333 18.333 -139.333 55 -180s89.334 -61 158.001 -61c40.667 0 83.5 7.33301 128.5 22s87.5 35 127.5 61v631h-139v172zM316.999 1176l250 313h63l252 -313h-149l-133 155l-135 -155h-148z" />
    <glyph glyph-name="udieresis" unicode="&#xfc;" horiz-adv-x="1350" 
d="M724 1036l333.999 -0.000976562v-864h115v-172h-302v96c-46.667 -36 -97.5 -64 -152.5 -84s-113.833 -30 -176.5 -30c-52 0 -99.167 7.5 -141.5 22.5s-78.333 38.333 -108 70s-52.5 71.834 -68.5 120.501s-24 106.667 -24 174v495h-140v172h334v-645
c0 -79.333 18.333 -139.333 55 -180s89.334 -61 158.001 -61c40.667 0 83.5 7.33301 128.5 22s87.5 35 127.5 61v631h-139v172zM202.999 1360c0 17.333 3.5 33.833 10.5 49.5s16.333 29.334 28 41.001s25.334 21 41.001 28s32.167 10.5 49.5 10.5
c16.667 0 32.667 -3.5 48 -10.5s28.666 -16.333 39.999 -28s20.333 -25.334 27 -41.001s10 -32.167 10 -49.5c0 -18 -3.33301 -35 -10 -51s-15.667 -30.167 -27 -42.5s-24.666 -22 -39.999 -29s-31.333 -10.5 -48 -10.5c-17.333 0 -33.833 3.5 -49.5 10.5
s-29.334 16.667 -41.001 29s-21 26.5 -28 42.5s-10.5 33 -10.5 51zM661.999 1360c0 17.333 3.5 33.833 10.5 49.5s16.333 29.334 28 41.001s25.334 21 41.001 28s32.167 10.5 49.5 10.5c16.667 0 32.5 -3.5 47.5 -10.5s28.333 -16.333 40 -28s20.834 -25.334 27.501 -41.001
s10 -32.167 10 -49.5c0 -18 -3.33301 -35 -10 -51s-15.834 -30.167 -27.501 -42.5s-25 -22 -40 -29s-30.833 -10.5 -47.5 -10.5c-17.333 0 -33.833 3.5 -49.5 10.5s-29.334 16.667 -41.001 29s-21 26.5 -28 42.5s-10.5 33 -10.5 51z" />
    <glyph glyph-name="yacute" unicode="&#xfd;" 
d="M31 1036h393v-172h-123l243 -661l254 661h-122v172h393v-172h-107l-461 -1163h142v-172h-418v172h126l110 285l-346 878h-84v172zM629 1477h240v-17l-299 -282h-154z" />
    <glyph glyph-name="thorn" unicode="&#xfe;" horiz-adv-x="1253" 
d="M57 1577h328v-627c44 34 92 61 144 81s105.667 30 161 30c68 0 130.333 -12.667 187 -38s105.5 -61 146.5 -107s72.833 -101.167 95.5 -165.5s34 -135.5 34 -213.5c0 -83.333 -12.667 -158.833 -38 -226.5s-60.5 -125.834 -105.5 -174.501s-98.5 -86.167 -160.5 -112.5
s-130 -39.5 -204 -39.5c-51.333 0 -99.5 7.33301 -144.5 22s-83.5 34.334 -115.5 59.001v-364h162v-172h-492v172h144v1704h-142v172zM641 897c-48.667 0 -95.3311 -9.99805 -139.998 -29.998s-83.334 -47 -116.001 -81v-557c21.333 -22 52.666 -41.5 93.999 -58.5
s93.333 -25.5 156 -25.5c42.667 0 83.667 8 123 24s74 40.167 104 72.5s54 72.5 72 120.5s27 104 27 168c0 58.667 -8.5 110.667 -25.5 156s-40 83.666 -69 114.999s-62.833 55.166 -101.5 71.499s-80 24.5 -124 24.5z" />
    <glyph glyph-name="ydieresis" unicode="&#xff;" 
d="M31 1036h393v-172h-123l243 -661l254 661h-122v172h393v-172h-107l-461 -1163h142v-172h-418v172h126l110 285l-346 878h-84v172zM182 1360c0 17.333 3.5 33.833 10.5 49.5s16.333 29.334 28 41.001s25.334 21 41.001 28s32.167 10.5 49.5 10.5
c16.667 0 32.667 -3.5 48 -10.5s28.666 -16.333 39.999 -28s20.333 -25.334 27 -41.001s10 -32.167 10 -49.5c0 -18 -3.33301 -35 -10 -51s-15.667 -30.167 -27 -42.5s-24.666 -22 -39.999 -29s-31.333 -10.5 -48 -10.5c-17.333 0 -33.833 3.5 -49.5 10.5
s-29.334 16.667 -41.001 29s-21 26.5 -28 42.5s-10.5 33 -10.5 51zM641 1360c0 17.333 3.5 33.833 10.5 49.5s16.333 29.334 28 41.001s25.334 21 41.001 28s32.167 10.5 49.5 10.5c16.667 0 32.5 -3.5 47.5 -10.5s28.333 -16.333 40 -28s20.834 -25.334 27.501 -41.001
s10 -32.167 10 -49.5c0 -18 -3.33301 -35 -10 -51s-15.834 -30.167 -27.501 -42.5s-25 -22 -40 -29s-30.833 -10.5 -47.5 -10.5c-17.333 0 -33.833 3.5 -49.5 10.5s-29.334 16.667 -41.001 29s-21 26.5 -28 42.5s-10.5 33 -10.5 51z" />
    <glyph glyph-name="Amacron" unicode="&#x100;" horiz-adv-x="1542" 
d="M1040 172h126l-120 344h-583l-117 -344h156v-172h-492v172h132l472 1344h295l471 -1344h152v-172h-492v172zM520 682h468l-236 678zM1110 1708h-758v117h758v-117z" />
    <glyph glyph-name="amacron" unicode="&#x101;" horiz-adv-x="1120" 
d="M709 96c-39.333 -36.667 -82.833 -66.6699 -130.5 -90.0029s-101.834 -35 -162.501 -35c-50.667 0 -97.167 8 -139.5 24s-78.833 37.833 -109.5 65.5s-54.5 59.834 -71.5 96.501s-25.5 75.667 -25.5 117c0 44 6.5 83 19.5 117s30.333 63.5 52 88.5s47 46 76 63
s59.333 30.667 91 41s64 17.666 97 21.999s64.5 6.5 94.5 6.5c48 0 88.333 -1.5 121 -4.5s62.334 -7.16699 89.001 -12.5l1 85c0 36.667 -5.33301 68.5 -16 95.5s-25.667 49.333 -45 67s-42.5 30.834 -69.5 39.501s-57.167 13 -90.5 13c-31.333 0 -61.333 -2.16699 -90 -6.5
s-55.5 -10 -80.5 -17s-48 -15 -69 -24s-38.833 -18.5 -53.5 -28.5l-61 129c24.667 16 51.667 30.833 81 44.5s60.166 25.334 92.499 35.001s65.333 17.334 99 23.001s66.834 8.5 99.501 8.5c60 0 114 -7.16699 162 -21.5s88.667 -36.5 122 -66.5s59 -68.167 77 -114.5
s27 -101.833 27 -166.5l-1 -518h115v-172h-301v96zM457 126.997c24.667 0 49.334 2.99805 74.001 8.99805s48 14.167 70 24.5s42.333 22.333 61 36s34.334 27.834 47.001 42.501l1 234h-216c-36 0 -68.833 -4 -98.5 -12s-55.334 -19.667 -77.001 -35
s-38.5 -34.333 -50.5 -57s-18 -48.667 -18 -78c0 -27.333 5 -51.166 15 -71.499s24.167 -37.333 42.5 -51s40.166 -24 65.499 -31s53.333 -10.5 84 -10.5zM875 1229h-758v117h758v-117z" />
    <glyph glyph-name="Abreve" unicode="&#x102;" horiz-adv-x="1542" 
d="M1040 172h126l-120 344h-583l-117 -344h156v-172h-492v172h132l472 1344h295l471 -1344h152v-172h-492v172zM520 682h468l-236 678zM768 1628c-50.667 0 -97.834 8.33398 -141.501 25.001s-82 39.667 -115 69s-59.333 64.166 -79 104.499s-30.5 84.166 -32.5 131.499h121
c0.666992 -28.667 7.33398 -56 20.001 -82s30 -48.833 52 -68.5s48 -35.334 78 -47.001s62.333 -17.5 97 -17.5s67 5.66699 97 17s56 26.833 78 46.5s39.333 42.5 52 68.5s19.667 53.667 21 83h121c-2 -47.333 -13 -91.166 -33 -131.499s-46.5 -75.166 -79.5 -104.499
s-71.5 -52.333 -115.5 -69s-91 -25 -141 -25z" />
    <glyph glyph-name="abreve" unicode="&#x103;" horiz-adv-x="1120" 
d="M709 96c-39.333 -36.667 -82.833 -66.6699 -130.5 -90.0029s-101.834 -35 -162.501 -35c-50.667 0 -97.167 8 -139.5 24s-78.833 37.833 -109.5 65.5s-54.5 59.834 -71.5 96.501s-25.5 75.667 -25.5 117c0 44 6.5 83 19.5 117s30.333 63.5 52 88.5s47 46 76 63
s59.333 30.667 91 41s64 17.666 97 21.999s64.5 6.5 94.5 6.5c48 0 88.333 -1.5 121 -4.5s62.334 -7.16699 89.001 -12.5l1 85c0 36.667 -5.33301 68.5 -16 95.5s-25.667 49.333 -45 67s-42.5 30.834 -69.5 39.501s-57.167 13 -90.5 13c-31.333 0 -61.333 -2.16699 -90 -6.5
s-55.5 -10 -80.5 -17s-48 -15 -69 -24s-38.833 -18.5 -53.5 -28.5l-61 129c24.667 16 51.667 30.833 81 44.5s60.166 25.334 92.499 35.001s65.333 17.334 99 23.001s66.834 8.5 99.501 8.5c60 0 114 -7.16699 162 -21.5s88.667 -36.5 122 -66.5s59 -68.167 77 -114.5
s27 -101.833 27 -166.5l-1 -518h115v-172h-301v96zM457 126.997c24.667 0 49.334 2.99805 74.001 8.99805s48 14.167 70 24.5s42.333 22.333 61 36s34.334 27.834 47.001 42.501l1 234h-216c-36 0 -68.833 -4 -98.5 -12s-55.334 -19.667 -77.001 -35
s-38.5 -34.333 -50.5 -57s-18 -48.667 -18 -78c0 -27.333 5 -51.166 15 -71.499s24.167 -37.333 42.5 -51s40.166 -24 65.499 -31s53.333 -10.5 84 -10.5zM532 1149c-50.667 0 -97.834 8.33398 -141.501 25.001s-82 39.667 -115 69s-59.333 64.166 -79 104.499
s-30.5 84.166 -32.5 131.499h121c0.666992 -28.667 7.33398 -56 20.001 -82s30 -48.833 52 -68.5s48 -35.334 78 -47.001s62.333 -17.5 97 -17.5s67 5.66699 97 17s56 26.833 78 46.5s39.333 42.5 52 68.5s19.667 53.667 21 83h121c-2 -47.333 -13 -91.166 -33 -131.499
s-46.5 -75.166 -79.5 -104.499s-71.5 -52.333 -115.5 -69s-91 -25 -141 -25z" />
    <glyph glyph-name="Aogonek" unicode="&#x104;" horiz-adv-x="1542" 
d="M10 172l130.998 -0.000976562l473 1344h295l471 -1344h131v-172h-188c-34 0 -65.333 -5.5 -94 -16.5s-53.667 -25.667 -75 -44s-38.166 -39.5 -50.499 -63.5s-18.5 -49 -18.5 -75c0 -31.333 13.667 -58.166 41 -80.499s61 -33.5 101 -33.5c26 0 48.5 1.66699 67.5 5
s35.167 8.33301 48.5 15l50 -151c-15.333 -8.66699 -39 -17.667 -71 -27s-65.667 -14 -101 -14c-52 0 -97.5 7.5 -136.5 22.5s-71.167 34.667 -96.5 59s-44.166 52.333 -56.499 84s-18.5 63.167 -18.5 94.5c0 44.667 11 87.5 33 128.5s50.667 73.167 86 96.5v172h133
l-121 344h-581l-117 -344h156v-172h-492v172zM519.998 681.999h467l-235 678z" />
    <glyph glyph-name="aogonek" unicode="&#x105;" horiz-adv-x="1042" 
d="M940 0c-48 0 -87.667 -7.83496 -119 -23.502s-56.166 -35.167 -74.499 -58.5s-31.666 -48 -39.999 -74s-12.5 -49 -12.5 -69c0 -36 10.667 -61.833 32 -77.5s47 -23.5 77 -23.5c23.333 0 43.833 2.16699 61.5 6.5s33.834 9.83301 48.501 16.5l52 -139
c-7.33301 -4.66699 -17.833 -9.66699 -31.5 -15s-28.667 -10 -45 -14s-33.333 -7.33301 -51 -10s-34.834 -4 -51.501 -4c-48.667 0 -90.834 6.5 -126.501 19.5s-64.667 30 -87 51s-39 44.167 -50 69.5s-16.5 50.333 -16.5 75c0 9.33301 0.666992 25.333 2 48
s7.83301 46.834 19.5 72.501s30.167 51.834 55.5 78.501s61.666 50.334 108.999 71.001h-2v96c-39.333 -35.333 -83 -65 -131 -89s-102 -36 -162 -36c-50 0 -96.167 7.83301 -138.5 23.5s-79 37.5 -110 65.5s-55 60.5 -72 97.5s-25.5 75.833 -25.5 116.5
c0 56 10.667 103.5 32 142.5s48.666 71.5 81.999 97.5s70.833 45.833 112.5 59.5s82.834 23.167 123.501 28.5c15.333 2.66699 29.166 4 41.499 4h38.5c44 0 83.333 -1.66699 118 -5s65.667 -8.33301 93 -15v94c0 74 -20.167 128.333 -60.5 163s-93.833 52 -160.5 52
c-62.667 0 -119.667 -7.83301 -171 -23.5s-92 -33.167 -122 -52.5l-61 129c48.667 31.333 106.5 57.666 173.5 78.999s133.167 32 198.5 32c60.667 0 114.834 -7.16699 162.501 -21.5s88.167 -36.5 121.5 -66.5s59 -68.333 77 -115s27 -102 27 -166
c0 -86 -0.5 -172.333 -1.5 -259s-1.5 -173 -1.5 -259h117v-172h-51zM438 126.998c49.333 0 97.167 11.332 143.5 33.999s82.5 48.334 108.5 77.001v239h-215c-35.333 0 -67.666 -4 -96.999 -12s-55 -19.5 -77 -34.5s-39.167 -34.167 -51.5 -57.5s-18.5 -49.333 -18.5 -78
c0 -56 19.167 -98 57.5 -126s88.166 -42 149.499 -42v0z" />
    <glyph glyph-name="Cacute" unicode="&#x106;" horiz-adv-x="1503" 
d="M1219 1116c-44.667 76 -103.83 135.665 -177.497 178.998s-155.834 65 -246.501 65c-77.333 0 -148 -16.333 -212 -49s-118.833 -76.5 -164.5 -131.5s-81.167 -118.667 -106.5 -191s-38 -148.5 -38 -228.5c0 -94.667 14 -178.5 42 -251.5s64.5 -133.667 109.5 -182
s98.5 -88.666 160.5 -120.999s131.667 -48.5 209 -48.5c105.333 0 197 25.5 275 76.5s144.667 134.833 200 251.5l176 -83c-25.333 -72 -68.333 -141.5 -129 -208.5s-135.5 -121 -224.5 -162s-187.5 -61.5 -295.5 -61.5c-103.333 0 -198.333 19.5 -285 58.5
s-163.834 94.5 -231.501 166.5s-119.334 157.333 -155.001 256s-53.5 201.667 -53.5 309c0 108 17.833 210 53.5 306s85.667 179.5 150 250.5s141 127 230 168s185.5 61.5 289.5 61.5c92.667 0 172.667 -13.167 240 -39.5s124.5 -57.666 171.5 -93.999
s87.5 -75.833 121.5 -118.5h106v-178h-215zM856.004 1956h240v-17l-299 -282h-154z" />
    <glyph glyph-name="cacute" unicode="&#x107;" horiz-adv-x="1116" 
d="M848 760c-28 50 -63.502 86.6699 -106.502 110.003s-92.833 35 -149.5 35c-43.333 0 -84 -9 -122 -27s-71.167 -43.667 -99.5 -77s-50.666 -73.833 -66.999 -121.5s-24.5 -100.834 -24.5 -159.501c0 -58 8.16699 -110.333 24.5 -157s38.833 -86.5 67.5 -119.5
s61.834 -58.333 99.501 -76s78.167 -26.5 121.5 -26.5c64 0 119.667 15.5 167 46.5s85 76.5 113 136.5l154 -76c-20 -42.667 -44.667 -81 -74 -115s-62.5 -63 -99.5 -87s-77.667 -42.5 -122 -55.5s-91.166 -19.5 -140.499 -19.5c-72 0 -138.5 13.5 -199.5 40.5
s-113.667 64.833 -158 113.5s-78.833 106.667 -103.5 174s-37 141 -37 221s13 153.667 39 221s61.667 125.166 107 173.499s98.333 86.166 159 113.499s125.667 41 195 41c65.333 0 127.166 -11.333 185.499 -34s109.5 -57 153.5 -103h105v-172h-188zM683.998 1477h240v-17
l-299 -282h-154z" />
    <glyph glyph-name="Ccaron" unicode="&#x10c;" horiz-adv-x="1503" 
d="M1219 1116c-44.667 76 -103.83 135.665 -177.497 178.998s-155.834 65 -246.501 65c-77.333 0 -148 -16.333 -212 -49s-118.833 -76.5 -164.5 -131.5s-81.167 -118.667 -106.5 -191s-38 -148.5 -38 -228.5c0 -94.667 14 -178.5 42 -251.5s64.5 -133.667 109.5 -182
s98.5 -88.666 160.5 -120.999s131.667 -48.5 209 -48.5c105.333 0 197 25.5 275 76.5s144.667 134.833 200 251.5l176 -83c-25.333 -72 -68.333 -141.5 -129 -208.5s-135.5 -121 -224.5 -162s-187.5 -61.5 -295.5 -61.5c-103.333 0 -198.333 19.5 -285 58.5
s-163.834 94.5 -231.501 166.5s-119.334 157.333 -155.001 256s-53.5 201.667 -53.5 309c0 108 17.833 210 53.5 306s85.667 179.5 150 250.5s141 127 230 168s185.5 61.5 289.5 61.5c92.667 0 172.667 -13.167 240 -39.5s124.5 -57.666 171.5 -93.999
s87.5 -75.833 121.5 -118.5h106v-178h-215zM1075 1967l-252 -353h-49l-252 353h144l133 -196l135 196h141z" />
    <glyph glyph-name="ccaron" unicode="&#x10d;" horiz-adv-x="1116" 
d="M848 760c-28 50 -63.502 86.6699 -106.502 110.003s-92.833 35 -149.5 35c-43.333 0 -84 -9 -122 -27s-71.167 -43.667 -99.5 -77s-50.666 -73.833 -66.999 -121.5s-24.5 -100.834 -24.5 -159.501c0 -58 8.16699 -110.333 24.5 -157s38.833 -86.5 67.5 -119.5
s61.834 -58.333 99.501 -76s78.167 -26.5 121.5 -26.5c64 0 119.667 15.5 167 46.5s85 76.5 113 136.5l154 -76c-20 -42.667 -44.667 -81 -74 -115s-62.5 -63 -99.5 -87s-77.667 -42.5 -122 -55.5s-91.166 -19.5 -140.499 -19.5c-72 0 -138.5 13.5 -199.5 40.5
s-113.667 64.833 -158 113.5s-78.833 106.667 -103.5 174s-37 141 -37 221s13 153.667 39 221s61.667 125.166 107 173.499s98.333 86.166 159 113.499s125.667 41 195 41c65.333 0 127.166 -11.333 185.499 -34s109.5 -57 153.5 -103h105v-172h-188zM902.998 1488
l-252 -353h-49l-252 353h144l133 -196l135 196h141z" />
    <glyph glyph-name="Dcaron" unicode="&#x10e;" horiz-adv-x="1520" 
d="M143 1516l564 0.00195312c69.333 0 135.333 -9 198 -27s121 -43.333 175 -76s103 -71.834 147 -117.501s81.5 -96.5 112.5 -152.5s54.833 -116.167 71.5 -180.5s25 -131.166 25 -200.499c0 -70.667 -8.33301 -138.334 -25 -203.001s-40.5 -125.334 -71.5 -182.001
s-68.5 -108.167 -112.5 -154.5s-93 -86 -147 -119s-112.333 -58.5 -175 -76.5s-128.667 -27 -198 -27h-564v172h144v1171h-144v173zM483 1343v-1171h236c70 0 135.833 15.333 197.5 46s115.5 72.5 161.5 125.5s82.333 115.333 109 187s40 148.834 40 231.501
c0 81.333 -13.333 157.333 -40 228s-63 132.167 -109 184.5s-99.833 93.5 -161.5 123.5s-127.5 45 -197.5 45h-236zM926 1885l-252 -353h-49l-252 353h144l133 -196l135 196h141z" />
    <glyph glyph-name="dcaron" unicode="&#x10f;" horiz-adv-x="1395" 
d="M711 1556h326.999v-1384h152v-172h-338v85c-33.333 -34 -72 -60.5 -116 -79.5s-94 -28.5 -150 -28.5c-70 0 -135.167 12.167 -195.5 36.5s-112.666 60 -156.999 107s-79 104.667 -104 173s-37.5 146.5 -37.5 234.5c0 80 12 152.833 36 218.5s58 121.667 102 168
s97 82.333 159 108s131 38.5 207 38.5c50 0 95.667 -5.5 137 -16.5s81 -30.167 119 -57.5v397h-141v172zM609.999 139c55.333 0 101.666 8.16504 138.999 24.498s71.666 40.833 102.999 73.5v580c-33.333 28 -71.666 48.333 -114.999 61s-87.666 19 -132.999 19
c-44 0 -85.333 -8.16699 -124 -24.5s-72.5 -40.166 -101.5 -71.499s-51.833 -69.666 -68.5 -114.999s-25 -97.333 -25 -156c0 -64 8 -120.333 24 -169s38.333 -89.5 67 -122.5s63 -57.833 103 -74.5s83.667 -25 131 -25zM1339 1059h-149v518l197 16z" />
    <glyph glyph-name="Dcroat" unicode="&#x110;" horiz-adv-x="1516" 
d="M139 1516l576 0.000976562c103.333 0 199.5 -19.833 288.5 -59.5s166.167 -93.334 231.5 -161.001s116.5 -147.5 153.5 -239.5s55.5 -190 55.5 -294c0 -105.333 -18.5 -204.333 -55.5 -297s-88.167 -173.5 -153.5 -242.5s-142.5 -123.333 -231.5 -163
s-185.167 -59.5 -288.5 -59.5h-576v172h156v504h-168v172h168v495h-156v173zM492 676.001v-503.999h235c69.333 0 135.166 15.333 197.499 46s116.333 72.667 162 126s81.834 115.833 108.501 187.5s40 148.5 40 230.5s-13.333 158.167 -40 228.5
s-62.834 131.666 -108.501 183.999s-99.667 93.5 -162 123.5s-128.166 45 -197.499 45h-235v-495h186v-172h-186z" />
    <glyph glyph-name="dcroat" unicode="&#x111;" horiz-adv-x="1268" 
d="M1038 1120l0.00195312 -947.999h152v-172h-338v84c-32.667 -32.667 -71.167 -58.667 -115.5 -78s-94.5 -29 -150.5 -29c-70 0 -135.333 12.333 -196 37s-112.834 60.167 -156.501 106.5s-78.167 103.666 -103.5 171.999s-38 146.833 -38 235.5
c0 79.333 12 151.833 36 217.5s58.167 122 102.5 169s97.166 83.167 158.499 108.5s130.333 38 207 38c50.667 0 96.5 -5.5 137.5 -16.5s80.5 -30.167 118.5 -57.5v133h-195v172h195v92h-141v172h327v-264h152v-172h-152zM610.002 139.001
c58.667 0 107.833 9.99805 147.5 29.998s71.167 43 94.5 69v579c-32.667 27.333 -70.834 47.5 -114.501 60.5s-88.167 19.5 -133.5 19.5c-43.333 0 -84.5 -8.16699 -123.5 -24.5s-72.833 -40.166 -101.5 -71.499s-51.5 -69.666 -68.5 -114.999s-25.5 -97.333 -25.5 -156
c0 -64 8.16699 -120.167 24.5 -168.5s38.833 -89 67.5 -122s62.834 -58 102.501 -75s83.167 -25.5 130.5 -25.5v0z" />
    <glyph glyph-name="Emacron" unicode="&#x112;" horiz-adv-x="1286" 
d="M143 1516h1086v-429h-205v256h-541v-485h455v-172h-455v-514h541v256h205v-428h-1086v172h144v1171h-144v173zM1080 1708h-758v117h758v-117z" />
    <glyph glyph-name="emacron" unicode="&#x113;" 
d="M276 494c0 -29.333 2.16602 -56.165 6.49902 -80.498s10.5 -47.5 18.5 -69.5c24.667 -66.667 64.167 -116.834 118.5 -150.501s115.833 -50.5 184.5 -50.5c54 0 106.5 7.5 157.5 22.5s104.5 38.5 160.5 70.5l75 -127c-68 -46.667 -136.333 -81.334 -205 -104.001
s-140 -34 -214 -34c-70 0 -134.833 11.667 -194.5 35s-111 58 -154 104s-76.667 103.333 -101 172s-36.5 148.667 -36.5 240c0 74 10.333 143.833 31 209.5s51.5 123 92.5 172s91.833 87.833 152.5 116.5s131.334 43 212.001 43c78 0 143.167 -11.833 195.5 -35.5
s95 -55 128 -94s58 -83.5 75 -133.5s28.833 -101 35.5 -153c3.33301 -25.333 5.5 -51 6.5 -77s1.5 -51.333 1.5 -76h-746zM566.999 907.001c-43.333 0 -81.1641 -6.16895 -113.497 -18.502s-59.833 -30 -82.5 -53s-40.834 -51.167 -54.501 -84.5
s-23.834 -70.666 -30.501 -111.999h537c-2.66699 38.667 -8.83398 74.334 -18.501 107.001s-24.5 61 -44.5 85s-45.667 42.667 -77 56s-70 20 -116 20zM934.001 1229h-758v117h758v-117z" />
    <glyph glyph-name="Edotaccent" unicode="&#x116;" horiz-adv-x="1286" 
d="M143 1516h1086v-429h-205v256h-541v-485h455v-172h-455v-514h541v256h205v-428h-1086v172h144v1171h-144v173zM614 1882c0 17.333 3.5 33.833 10.5 49.5s16.333 29.334 28 41.001s25.5 21 41.5 28s33 10.5 51 10.5c17.333 0 33.833 -3.5 49.5 -10.5
s29.334 -16.333 41.001 -28s21 -25.334 28 -41.001s10.5 -32.167 10.5 -49.5c0 -18 -3.5 -35 -10.5 -51s-16.333 -30.167 -28 -42.5s-25.334 -22 -41.001 -29s-32.167 -10.5 -49.5 -10.5c-18 0 -35 3.5 -51 10.5s-29.833 16.667 -41.5 29s-21 26.5 -28 42.5
s-10.5 33 -10.5 51z" />
    <glyph glyph-name="edotaccent" unicode="&#x117;" 
d="M276 494c0 -29.333 2.16602 -56.165 6.49902 -80.498s10.5 -47.5 18.5 -69.5c24.667 -66.667 64.167 -116.834 118.5 -150.501s115.833 -50.5 184.5 -50.5c54 0 106.5 7.5 157.5 22.5s104.5 38.5 160.5 70.5l75 -127c-68 -46.667 -136.333 -81.334 -205 -104.001
s-140 -34 -214 -34c-70 0 -134.833 11.667 -194.5 35s-111 58 -154 104s-76.667 103.333 -101 172s-36.5 148.667 -36.5 240c0 74 10.333 143.833 31 209.5s51.5 123 92.5 172s91.833 87.833 152.5 116.5s131.334 43 212.001 43c78 0 143.167 -11.833 195.5 -35.5
s95 -55 128 -94s58 -83.5 75 -133.5s28.833 -101 35.5 -153c3.33301 -25.333 5.5 -51 6.5 -77s1.5 -51.333 1.5 -76h-746zM566.999 907.001c-43.333 0 -81.1641 -6.16895 -113.497 -18.502s-59.833 -30 -82.5 -53s-40.834 -51.167 -54.501 -84.5
s-23.834 -70.666 -30.501 -111.999h537c-2.66699 38.667 -8.83398 74.334 -18.501 107.001s-24.5 61 -44.5 85s-45.667 42.667 -77 56s-70 20 -116 20zM469.001 1403c0 17.333 3.5 33.833 10.5 49.5s16.333 29.334 28 41.001s25.5 21 41.5 28s33 10.5 51 10.5
c17.333 0 33.833 -3.5 49.5 -10.5s29.334 -16.333 41.001 -28s21 -25.334 28 -41.001s10.5 -32.167 10.5 -49.5c0 -18 -3.5 -35 -10.5 -51s-16.333 -30.167 -28 -42.5s-25.334 -22 -41.001 -29s-32.167 -10.5 -49.5 -10.5c-18 0 -35 3.5 -51 10.5s-29.833 16.667 -41.5 29
s-21 26.5 -28 42.5s-10.5 33 -10.5 51z" />
    <glyph glyph-name="Eogonek" unicode="&#x118;" horiz-adv-x="1286" 
d="M143 1516l1086 -0.000976562v-429h-205v256h-541v-485h455v-172h-455v-514h541v256h205v-428h-19c-86 -28.667 -151.833 -60.834 -197.5 -96.501s-68.5 -78.5 -68.5 -128.5c0 -27.333 10.333 -50.666 31 -69.999s48 -29 82 -29c26 0 50.5 2.16699 73.5 6.5
s41.5 9.83301 55.5 16.5l43 -127c-18 -10.667 -42.667 -20.5 -74 -29.5s-66 -13.5 -104 -13.5c-41.333 0 -79 4.83301 -113 14.5s-63.333 23.334 -88 41.001s-44.167 39.5 -58.5 65.5s-21.5 56 -21.5 90c0 57.333 15 107.5 45 150.5s66.333 79.5 109 109.5h-781v172h144
v1171h-144v173z" />
    <glyph glyph-name="eogonek" unicode="&#x119;" horiz-adv-x="1118" 
d="M899 49c-14.667 -8 -28.832 -16.5029 -42.499 -25.5029l-41.5 -27.5c-26 -18 -49.5 -36.167 -70.5 -54.5s-38.667 -36.666 -53 -54.999s-25.666 -36.833 -33.999 -55.5s-12.5 -37.334 -12.5 -56.001c0 -31.333 11.333 -55.666 34 -72.999s54.334 -26 95.001 -26
c27.333 0 50.833 2.83301 70.5 8.5s37.167 11.834 52.5 18.501l43 -127c-18 -10.667 -44.333 -21.167 -79 -31.5s-74 -15.5 -118 -15.5c-80 0 -145.333 18.167 -196 54.5s-76 88.5 -76 156.5c0 48 11.667 91.333 35 130s52.666 72.334 87.999 101.001h-16
c-70 0 -134.667 11.667 -194 35s-110.5 57.833 -153.5 103.5s-76.833 103 -101.5 172s-37 149.167 -37 240.5c0 74 10.333 143.667 31 209s51.334 122.666 92.001 171.999s91.5 88.333 152.5 117s131.833 43 212.5 43c96.667 0 174 -18.167 232 -54.5
s102.667 -82.166 134 -137.499s51.833 -116.333 61.5 -183s14.5 -131.334 14.5 -194.001h-746c0 -57.333 8.66699 -108 26 -152s40.666 -80.667 69.999 -110s64.166 -51.5 104.499 -66.5s82.833 -22.5 127.5 -22.5c53.333 0 105.666 7.5 156.999 22.5s105 38.5 161 70.5
l75 -127c-4 -3.33301 -8 -6.33301 -12 -9l-12 -8l-12.5 -8l-12.5 -8c-8 -5.33301 -16.167 -10.166 -24.5 -14.499l-24.5 -12.5v0zM567.002 906.997c-43.333 0 -80.999 -6.16699 -112.999 -18.5s-59.333 -30 -82 -53s-40.834 -51.333 -54.501 -85
s-23.834 -70.834 -30.501 -111.501h536c-2.66699 38 -8.66699 73.5 -18 106.5s-24.333 61.333 -45 85s-46.667 42.334 -78 56.001s-69.666 20.5 -114.999 20.5v0z" />
    <glyph glyph-name="Ecaron" unicode="&#x11a;" horiz-adv-x="1286" 
d="M143 1516h1086v-429h-205v256h-541v-485h455v-172h-455v-514h541v256h205v-428h-1086v172h144v1171h-144v173zM1018 1967l-252 -353h-49l-252 353h144l133 -196l135 196h141z" />
    <glyph glyph-name="ecaron" unicode="&#x11b;" 
d="M276 494c0 -29.333 2.16602 -56.165 6.49902 -80.498s10.5 -47.5 18.5 -69.5c24.667 -66.667 64.167 -116.834 118.5 -150.501s115.833 -50.5 184.5 -50.5c54 0 106.5 7.5 157.5 22.5s104.5 38.5 160.5 70.5l75 -127c-68 -46.667 -136.333 -81.334 -205 -104.001
s-140 -34 -214 -34c-70 0 -134.833 11.667 -194.5 35s-111 58 -154 104s-76.667 103.333 -101 172s-36.5 148.667 -36.5 240c0 74 10.333 143.833 31 209.5s51.5 123 92.5 172s91.833 87.833 152.5 116.5s131.334 43 212.001 43c78 0 143.167 -11.833 195.5 -35.5
s95 -55 128 -94s58 -83.5 75 -133.5s28.833 -101 35.5 -153c3.33301 -25.333 5.5 -51 6.5 -77s1.5 -51.333 1.5 -76h-746zM566.999 907.001c-43.333 0 -81.1641 -6.16895 -113.497 -18.502s-59.833 -30 -82.5 -53s-40.834 -51.167 -54.501 -84.5
s-23.834 -70.666 -30.501 -111.999h537c-2.66699 38.667 -8.83398 74.334 -18.501 107.001s-24.5 61 -44.5 85s-45.667 42.667 -77 56s-70 20 -116 20zM872.001 1488l-252 -353h-49l-252 353h144l133 -196l135 196h141z" />
    <glyph glyph-name="Gbreve" unicode="&#x11e;" horiz-adv-x="1677" 
d="M1313 -6l0.00195312 304c-25.333 -52.667 -57 -98.5 -95 -137.5s-80.333 -71.167 -127 -96.5s-96.5 -44.333 -149.5 -57s-106.833 -19 -161.5 -19c-98.667 0 -189.667 16.5 -273 49.5s-158.833 85.5 -226.5 157.5s-119.334 157.333 -155.001 256s-53.5 201.667 -53.5 309
c0 108 17.833 210 53.5 306s85.667 179.667 150 251s141 127.333 230 168s185.5 61 289.5 61c96 0 178.5 -13.667 247.5 -41s128 -60.5 177 -99.5s88.167 -76.167 117.5 -111.5h97v-178h-215c-44.667 76 -103.834 136 -177.501 180s-156.167 65.333 -247.5 64
c-76.667 0 -147 -16.333 -211 -49s-118.833 -76.667 -164.5 -132s-81.167 -119 -106.5 -191s-38 -148 -38 -228c0 -88.667 14 -171 42 -247s63.667 -137.667 107 -185s96.833 -86.5 160.5 -117.5s134.167 -46.5 211.5 -46.5c128 0 233 31.167 315 93.5
s139.333 159.5 172 291.5h-424v172h641v-727h-186zM837.002 1628c-50.667 0 -97.834 8.33398 -141.501 25.001s-82 39.667 -115 69s-59.333 64.166 -79 104.499s-30.5 84.166 -32.5 131.499h121c0.666992 -28.667 7.33398 -56 20.001 -82s30 -48.833 52 -68.5
s48 -35.334 78 -47.001s62.333 -17.5 97 -17.5s67 5.66699 97 17s56 26.833 78 46.5s39.333 42.5 52 68.5s19.667 53.667 21 83h121c-2 -47.333 -13 -91.166 -33 -131.499s-46.5 -75.166 -79.5 -104.499s-71.5 -52.333 -115.5 -69s-91 -25 -141 -25z" />
    <glyph glyph-name="gbreve" unicode="&#x11f;" horiz-adv-x="1208" 
d="M858 91c-34 -36 -73.501 -63.999 -118.501 -83.999s-96.167 -30 -153.5 -30c-70 0 -135.167 12.167 -195.5 36.5s-112.666 60 -156.999 107s-79 104.667 -104 173s-37.5 146.5 -37.5 234.5c0 80 12 152.833 36 218.5s58 121.667 102 168s97 82.333 159 108
s131 38.5 207 38.5c52 0 98.833 -5.83301 140.5 -17.5s82.167 -31.834 121.5 -60.501v53h186v-995c0 -164 -38.833 -288 -116.5 -372s-198.5 -126 -362.5 -126c-36 0 -73.667 2.66699 -113 8s-78.166 13.833 -116.499 25.5s-75.666 26.5 -111.999 44.5s-69.833 40 -100.5 66
l100 151c20 -17.333 42.833 -33.333 68.5 -48s53.167 -27.167 82.5 -37.5s59.666 -18.5 90.999 -24.5s62.666 -9 93.999 -9c51.333 0 95.833 5.33301 133.5 16s68.667 29.5 93 56.5s42.5 63.5 54.5 109.5s18 104.333 18 175v15zM609.999 139.001
c30.667 0 58.666 2.99707 83.999 8.99707s48.333 13.833 69 23.5s38.834 20.834 54.501 33.501s29.167 26 40.5 40v567c-34 30 -73.167 51.667 -117.5 65s-89.833 20 -136.5 20c-44 0 -85.333 -8.16699 -124 -24.5s-72.5 -40.166 -101.5 -71.499
s-51.833 -69.666 -68.5 -114.999s-25 -97.333 -25 -156c0 -64 8 -120.333 24 -169s38.333 -89.5 67 -122.5s63 -57.833 103 -74.5s83.667 -25 131 -25zM603.998 1149c-50.667 0 -97.834 8.33398 -141.501 25.001s-82 39.667 -115 69s-59.333 64.166 -79 104.499
s-30.5 84.166 -32.5 131.499h121c0.666992 -28.667 7.33398 -56 20.001 -82s30 -48.833 52 -68.5s48 -35.334 78 -47.001s62.333 -17.5 97 -17.5s67 5.66699 97 17s56 26.833 78 46.5s39.333 42.5 52 68.5s19.667 53.667 21 83h121c-2 -47.333 -13 -91.166 -33 -131.499
s-46.5 -75.166 -79.5 -104.499s-71.5 -52.333 -115.5 -69s-91 -25 -141 -25z" />
    <glyph glyph-name="Gcommaaccent" unicode="&#x122;" horiz-adv-x="1677" 
d="M1313 -6l0.00195312 304c-25.333 -52.667 -57 -98.5 -95 -137.5s-80.333 -71.167 -127 -96.5s-96.5 -44.333 -149.5 -57s-106.833 -19 -161.5 -19c-98.667 0 -189.667 16.5 -273 49.5s-158.833 85.5 -226.5 157.5s-119.334 157.333 -155.001 256s-53.5 201.667 -53.5 309
c0 108 17.833 210 53.5 306s85.667 179.667 150 251s141 127.333 230 168s185.5 61 289.5 61c96 0 178.5 -13.667 247.5 -41s128 -60.5 177 -99.5s88.167 -76.167 117.5 -111.5h97v-178h-215c-44.667 76 -103.834 136 -177.501 180s-156.167 65.333 -247.5 64
c-76.667 0 -147 -16.333 -211 -49s-118.833 -76.667 -164.5 -132s-81.167 -119 -106.5 -191s-38 -148 -38 -228c0 -88.667 14 -171 42 -247s63.667 -137.667 107 -185s96.833 -86.5 160.5 -117.5s134.167 -46.5 211.5 -46.5c128 0 233 31.167 315 93.5
s139.333 159.5 172 291.5h-424v172h641v-727h-186zM788.002 -41l211 -84l-180 -348l-144 53z" />
    <glyph glyph-name="gcommaaccent" unicode="&#x123;" horiz-adv-x="1208" 
d="M858 91c-34 -36 -73.501 -63.999 -118.501 -83.999s-96.167 -30 -153.5 -30c-70 0 -135.167 12.167 -195.5 36.5s-112.666 60 -156.999 107s-79 104.667 -104 173s-37.5 146.5 -37.5 234.5c0 80 12 152.833 36 218.5s58 121.667 102 168s97 82.333 159 108
s131 38.5 207 38.5c52 0 98.833 -5.83301 140.5 -17.5s82.167 -31.834 121.5 -60.501v53h186v-995c0 -164 -38.833 -288 -116.5 -372s-198.5 -126 -362.5 -126c-36 0 -73.667 2.66699 -113 8s-78.166 13.833 -116.499 25.5s-75.666 26.5 -111.999 44.5s-69.833 40 -100.5 66
l100 151c20 -17.333 42.833 -33.333 68.5 -48s53.167 -27.167 82.5 -37.5s59.666 -18.5 90.999 -24.5s62.666 -9 93.999 -9c51.333 0 95.833 5.33301 133.5 16s68.667 29.5 93 56.5s42.5 63.5 54.5 109.5s18 104.333 18 175v15zM609.999 139.001
c30.667 0 58.666 2.99707 83.999 8.99707s48.333 13.833 69 23.5s38.834 20.834 54.501 33.501s29.167 26 40.5 40v567c-34 30 -73.167 51.667 -117.5 65s-89.833 20 -136.5 20c-44 0 -85.333 -8.16699 -124 -24.5s-72.5 -40.166 -101.5 -71.499
s-51.833 -69.666 -68.5 -114.999s-25 -97.333 -25 -156c0 -64 8 -120.333 24 -169s38.333 -89.5 67 -122.5s63 -57.833 103 -74.5s83.667 -25 131 -25zM711.998 1125l-211 84l181 349l143 -54z" />
    <glyph glyph-name="Imacron" unicode="&#x12a;" horiz-adv-x="770" 
d="M143 1516h484v-173h-144v-1171h144v-172h-484v172h144v1171h-144v173zM767 1708h-758v117h758v-117z" />
    <glyph glyph-name="imacron" unicode="&#x12b;" horiz-adv-x="657" 
d="M92 1036h338v-864h156v-172h-492v172h148v692h-150v172zM707 1229h-758v117h758v-117z" />
    <glyph glyph-name="Iogonek" unicode="&#x12e;" horiz-adv-x="780" 
d="M145 1516h492v-173h-158v-1171h156v-172h-47c-26 -1.33301 -53 -6.83301 -81 -16.5s-53.333 -23 -76 -40s-41.5 -38.5 -56.5 -64.5s-22.5 -56 -22.5 -90c0 -35.333 10.333 -63 31 -83s48 -30 82 -30c26 0 50.5 2.16699 73.5 6.5s41.5 9.83301 55.5 16.5l43 -127
c-18 -10.667 -42.667 -20.5 -74 -29.5s-66 -13.5 -104 -13.5c-82 0 -149.333 18.167 -202 54.5s-79 88.5 -79 156.5c0 60 14.333 111.167 43 153.5s63.667 77.833 105 106.5h-183v172h140v1171h-138v173z" />
    <glyph glyph-name="iogonek" unicode="&#x12f;" horiz-adv-x="657" 
d="M59 1036h337.999v-864h156v-172h-72c-26 -1.33301 -53 -6.83301 -81 -16.5s-53.167 -23 -75.5 -40s-41 -38.5 -56 -64.5s-22.5 -56 -22.5 -90c0 -35.333 10.167 -63 30.5 -83s47.5 -30 81.5 -30c26 0 50.667 2.16699 74 6.5s41.666 9.83301 54.999 16.5l43 -127
c-17.333 -10.667 -41.666 -20.5 -72.999 -29.5s-66.333 -13.5 -105 -13.5c-82 0 -149.167 18.167 -201.5 54.5s-78.5 88.5 -78.5 156.5c0 60 14.333 111.167 43 153.5s63.334 77.833 104.001 106.5h-158v172h148v692h-150v172z" />
    <glyph glyph-name="Idotaccent" unicode="&#x130;" horiz-adv-x="770" 
d="M143 1516h484v-173h-144v-1171h144v-172h-484v172h144v1171h-144v173zM274 1882c0 17.333 3.5 33.833 10.5 49.5s16.333 29.334 28 41.001s25.5 21 41.5 28s33 10.5 51 10.5c17.333 0 33.833 -3.5 49.5 -10.5s29.334 -16.333 41.001 -28s21 -25.334 28 -41.001
s10.5 -32.167 10.5 -49.5c0 -18 -3.5 -35 -10.5 -51s-16.333 -30.167 -28 -42.5s-25.334 -22 -41.001 -29s-32.167 -10.5 -49.5 -10.5c-18 0 -35 3.5 -51 10.5s-29.833 16.667 -41.5 29s-21 26.5 -28 42.5s-10.5 33 -10.5 51z" />
    <glyph glyph-name="dotlessi" unicode="&#x131;" horiz-adv-x="657" 
d="M92 1036h338v-864h156v-172h-492v172h148v692h-150v172z" />
    <glyph glyph-name="Kcommaaccent" unicode="&#x136;" horiz-adv-x="1563" 
d="M1147 1343v173h348v-173h-119l-664 -559l621 -612h162v-172h-408v172l-602 602zM145 1516h492v-173h-154v-1171h152v-172h-492v172h144v1171h-142v173zM731 -41l211 -84l-180 -348l-144 53z" />
    <glyph glyph-name="kcommaaccent" unicode="&#x137;" horiz-adv-x="1276" 
d="M92 1556h365v-172h-2v-774h180l246 254h-62v172h393v-172h-131l-315 -325l344 -367h125v-172h-219l-424 463h-137v-291h86v-172h-443v172h170v1212h-176v172zM588 -41l211 -84l-180 -348l-144 53z" />
    <glyph glyph-name="Lacute" unicode="&#x139;" horiz-adv-x="1296" 
d="M143 1516h491.998v-173h-152v-1171h523c10.667 0 21.334 2.5 32.001 7.5s20.334 11.5 29.001 19.5s15.667 17.167 21 27.5s8 20.833 8 31.5v191h190v-449h-1143v172h144v1171h-144v173zM523.998 1874h240v-17l-299 -282h-154z" />
    <glyph glyph-name="lacute" unicode="&#x13a;" horiz-adv-x="666" 
d="M92 1556h336v-1384h156v-172h-492v172h150v1212h-150v172zM422 1919h240v-17l-299 -282h-154z" />
    <glyph glyph-name="Lcommaaccent" unicode="&#x13b;" horiz-adv-x="1296" 
d="M143 1516h491.998v-173h-152v-1171h523c10.667 0 21.334 2.5 32.001 7.5s20.334 11.5 29.001 19.5s15.667 17.167 21 27.5s8 20.833 8 31.5v191h190v-449h-1143v172h144v1171h-144v173zM597.998 -41l211 -84l-180 -348l-144 53z" />
    <glyph glyph-name="lcommaaccent" unicode="&#x13c;" horiz-adv-x="666" 
d="M92 1556h336v-1384h156v-172h-492v172h150v1212h-150v172zM283 -41l211 -84l-180 -348l-144 53z" />
    <glyph glyph-name="Lcaron" unicode="&#x13d;" horiz-adv-x="1296" 
d="M143 1516h491.998v-173h-152v-1171h523c10.667 0 21.334 2.5 32.001 7.5s20.334 11.5 29.001 19.5s15.667 17.167 21 27.5s8 20.833 8 31.5v191h190v-449h-1143v172h144v1171h-144v173zM1073 1021h-149v518l197 16z" />
    <glyph glyph-name="lcaron" unicode="&#x13e;" horiz-adv-x="780" 
d="M92 1556h336v-1384h156v-172h-492v172h150v1212h-150v172zM714 1059h-149v518l197 16z" />
    <glyph glyph-name="Lslash" unicode="&#x141;" horiz-adv-x="1296" 
d="M143 1516h492v-173h-158v-557l561 304v-209l-561 -303v-406h522c22 0 42.667 8.83301 62 26.5s29 37.5 29 59.5v191h196v-449h-1143v172h138v301l-138 -74v209l138 74v661h-138v173z" />
    <glyph glyph-name="lslash" unicode="&#x142;" horiz-adv-x="666" 
d="M92 1556h336v-231v-154v-229l162 150v-248l-162 -150v-522h156v-172h-492v172h150v348l-148 -135v248l148 135v616h-150v172z" />
    <glyph glyph-name="Nacute" unicode="&#x143;" horiz-adv-x="1624" 
d="M1081 1516h492v-173h-129v-1343h-256l-705 1257v-1085h156v-172h-492v172h140v1171h-144v175h408l692 -1245l8 48v1022h-170v173zM899 1956h240v-17l-299 -282h-154z" />
    <glyph glyph-name="nacute" unicode="&#x144;" horiz-adv-x="1366" 
d="M782 172l145.998 0.000976562v473c0 79.333 -20.167 139.5 -60.5 180.5s-98.166 61.5 -173.499 61.5c-43.333 0 -87 -10.333 -131 -31s-85.667 -46.334 -125 -77.001v-607h146v-172h-484v172h144v692h-144v172h330v-122h2c22 19.333 45.5 37.666 70.5 54.999
s51.167 32.333 78.5 45s55.833 22.667 85.5 30s60.834 11 93.501 11c55.333 0 105.333 -7.66699 150 -23s82.667 -38.666 114 -69.999s55.5 -71.5 72.5 -120.5s25.5 -106.833 25.5 -173.5v-496h144v-172h-484v172zM757.998 1477h240v-17l-299 -282h-154z" />
    <glyph glyph-name="Ncommaaccent" unicode="&#x145;" horiz-adv-x="1624" 
d="M1081 1516h492v-173h-129v-1343h-256l-705 1257v-1085h156v-172h-492v172h140v1171h-144v175h408l692 -1245l8 48v1022h-170v173zM762 -41l211 -84l-180 -348l-144 53z" />
    <glyph glyph-name="ncommaaccent" unicode="&#x146;" horiz-adv-x="1366" 
d="M782 172l145.998 0.000976562v473c0 79.333 -20.167 139.5 -60.5 180.5s-98.166 61.5 -173.499 61.5c-43.333 0 -87 -10.333 -131 -31s-85.667 -46.334 -125 -77.001v-607h146v-172h-484v172h144v692h-144v172h330v-122h2c22 19.333 45.5 37.666 70.5 54.999
s51.167 32.333 78.5 45s55.833 22.667 85.5 30s60.834 11 93.501 11c55.333 0 105.333 -7.66699 150 -23s82.667 -38.666 114 -69.999s55.5 -71.5 72.5 -120.5s25.5 -106.833 25.5 -173.5v-496h144v-172h-484v172zM632.998 -40.999l211 -84l-180 -348l-144 53z" />
    <glyph glyph-name="Ncaron" unicode="&#x147;" horiz-adv-x="1624" 
d="M1081 1516h492v-173h-129v-1343h-256l-705 1257v-1085h156v-172h-492v172h140v1171h-144v175h408l692 -1245l8 48v1022h-170v173zM1118 1967l-252 -353h-49l-252 353h144l133 -196l135 196h141z" />
    <glyph glyph-name="ncaron" unicode="&#x148;" horiz-adv-x="1366" 
d="M782 172l145.998 0.000976562v473c0 79.333 -20.167 139.5 -60.5 180.5s-98.166 61.5 -173.499 61.5c-43.333 0 -87 -10.333 -131 -31s-85.667 -46.334 -125 -77.001v-607h146v-172h-484v172h144v692h-144v172h330v-122h2c22 19.333 45.5 37.666 70.5 54.999
s51.167 32.333 78.5 45s55.833 22.667 85.5 30s60.834 11 93.501 11c55.333 0 105.333 -7.66699 150 -23s82.667 -38.666 114 -69.999s55.5 -71.5 72.5 -120.5s25.5 -106.833 25.5 -173.5v-496h144v-172h-484v172zM976.998 1488l-252 -353h-49l-252 353h144l133 -196
l135 196h141z" />
    <glyph glyph-name="napostrophe" unicode="&#x149;" horiz-adv-x="1366" 
d="M782 172l145.998 0.000976562v473c0 79.333 -20.167 139.5 -60.5 180.5s-98.166 61.5 -173.499 61.5c-43.333 0 -87 -10.333 -131 -31s-85.667 -46.334 -125 -77.001v-607h146v-172h-484v172h144v692h-144v172h330v-122h2c22 19.333 45.5 37.666 70.5 54.999
s51.167 32.333 78.5 45s55.833 22.667 85.5 30s60.834 11 93.501 11c55.333 0 105.333 -7.66699 150 -23s82.667 -38.666 114 -69.999s55.5 -71.5 72.5 -120.5s25.5 -106.833 25.5 -173.5v-496h144v-172h-484v172zM351.998 1553l211 -84l-180 -349l-144 54z" />
    <glyph glyph-name="Omacron" unicode="&#x14c;" horiz-adv-x="1602" 
d="M799 -30c-104.667 0 -200.332 19.5 -286.999 58.5s-164 94.5 -232 166.5s-119.667 157.333 -155 256s-53 201 -53 307c0 109.333 17.833 212 53.5 308s85.667 179.5 150 250.5s141 127 230 168s186.833 61.5 293.5 61.5c107.333 0 205.666 -20.5 294.999 -61.5
s166 -97 230 -168s113.667 -154.5 149 -250.5s53 -198.667 53 -308s-17.833 -211.833 -53.5 -307.5s-85.667 -179.167 -150 -250.5s-141 -127.5 -230 -168.5s-186.833 -61.5 -293.5 -61.5zM799.002 156c79.333 0 151.169 16.332 215.502 48.999s119.166 76.5 164.499 131.5
s80.333 118.833 105 191.5s37 149.334 37 230.001c0 82.667 -13.5 162.5 -40.5 239.5s-64.667 142.167 -113 195.5s-104.5 94.5 -168.5 123.5s-130.667 43.5 -200 43.5c-79.333 0 -151.333 -16.333 -216 -49s-119.667 -76.5 -165 -131.5s-80.333 -119 -105 -192
s-37 -149.5 -37 -229.5c0 -93.333 13.667 -176.5 41 -249.5s63.5 -133.667 108.5 -182s98.667 -88.833 161 -121.5s133.166 -49 212.499 -49zM1151 1708h-758v117h758v-117z" />
    <glyph glyph-name="omacron" unicode="&#x14d;" horiz-adv-x="1219" 
d="M86 518c0.666992 82 13.8311 156.672 39.498 224.005s61.5 125.166 107.5 173.499s100.667 85.5 164 111.5s133 39 209 39c76.667 0 146.834 -13 210.501 -39s118.167 -62.833 163.5 -110.5s80.666 -105.167 105.999 -172.5s38 -142 38 -224
c0 -80.667 -12.667 -154.834 -38 -222.501s-60.666 -125.834 -105.999 -174.501s-99.833 -86.5 -163.5 -113.5s-133.834 -40.5 -210.501 -40.5c-78 0 -148.667 13.333 -212 40s-117.666 64.167 -162.999 112.5s-80.666 106.166 -105.999 173.499
s-38.333 141.666 -39 222.999zM282.997 518.005c0 -59.333 8.5 -113 25.5 -161s40.333 -88.833 70 -122.5s64 -59.667 103 -78s80.5 -27.5 124.5 -27.5c46 0 88.833 9 128.5 27s74.167 43.833 103.5 77.5s52.333 74.5 69 122.5s25 102 25 162
c0 62.667 -8.33301 118.334 -25 167.001s-39.5 89.334 -68.5 122.001s-63.5 57.334 -103.5 74.001s-83 25 -129 25c-44 0 -85.5 -8.33301 -124.5 -25s-73.333 -41.334 -103 -74.001s-53 -73.334 -70 -122.001s-25.5 -104.334 -25.5 -167.001zM962.997 1229h-758v117h758
v-117z" />
    <glyph glyph-name="Ohungarumlaut" unicode="&#x150;" horiz-adv-x="1602" 
d="M799 -30c-104.667 0 -200.332 19.5 -286.999 58.5s-164 94.5 -232 166.5s-119.667 157.333 -155 256s-53 201 -53 307c0 109.333 17.833 212 53.5 308s85.667 179.5 150 250.5s141 127 230 168s186.833 61.5 293.5 61.5c107.333 0 205.666 -20.5 294.999 -61.5
s166 -97 230 -168s113.667 -154.5 149 -250.5s53 -198.667 53 -308s-17.833 -211.833 -53.5 -307.5s-85.667 -179.167 -150 -250.5s-141 -127.5 -230 -168.5s-186.833 -61.5 -293.5 -61.5zM799.002 156c79.333 0 151.169 16.332 215.502 48.999s119.166 76.5 164.499 131.5
s80.333 118.833 105 191.5s37 149.334 37 230.001c0 82.667 -13.5 162.5 -40.5 239.5s-64.667 142.167 -113 195.5s-104.5 94.5 -168.5 123.5s-130.667 43.5 -200 43.5c-79.333 0 -151.333 -16.333 -216 -49s-119.667 -76.5 -165 -131.5s-80.333 -119 -105 -192
s-37 -149.5 -37 -229.5c0 -93.333 13.667 -176.5 41 -249.5s63.5 -133.667 108.5 -182s98.667 -88.833 161 -121.5s133.166 -49 212.499 -49zM1261 1957l-233 -300h-152l208 300h177zM940.005 1957l-222 -300h-151l195 300h178z" />
    <glyph glyph-name="ohungarumlaut" unicode="&#x151;" horiz-adv-x="1219" 
d="M86 518c0.666992 82 13.8311 156.672 39.498 224.005s61.5 125.166 107.5 173.499s100.667 85.5 164 111.5s133 39 209 39c76.667 0 146.834 -13 210.501 -39s118.167 -62.833 163.5 -110.5s80.666 -105.167 105.999 -172.5s38 -142 38 -224
c0 -80.667 -12.667 -154.834 -38 -222.501s-60.666 -125.834 -105.999 -174.501s-99.833 -86.5 -163.5 -113.5s-133.834 -40.5 -210.501 -40.5c-78 0 -148.667 13.333 -212 40s-117.666 64.167 -162.999 112.5s-80.666 106.166 -105.999 173.499
s-38.333 141.666 -39 222.999zM282.997 518.005c0 -59.333 8.5 -113 25.5 -161s40.333 -88.833 70 -122.5s64 -59.667 103 -78s80.5 -27.5 124.5 -27.5c46 0 88.833 9 128.5 27s74.167 43.833 103.5 77.5s52.333 74.5 69 122.5s25 102 25 162
c0 62.667 -8.33301 118.334 -25 167.001s-39.5 89.334 -68.5 122.001s-63.5 57.334 -103.5 74.001s-83 25 -129 25c-44 0 -85.5 -8.33301 -124.5 -25s-73.333 -41.334 -103 -74.001s-53 -73.334 -70 -122.001s-25.5 -104.334 -25.5 -167.001zM1072 1478l-233 -300h-152
l208 300h177zM750.997 1478l-222 -300h-151l195 300h178z" />
    <glyph glyph-name="OE" unicode="&#x152;" horiz-adv-x="2335" 
d="M801 -31c-106.667 0 -204.666 20.499 -293.999 61.499s-166.5 97.333 -231.5 169s-115.167 155.334 -150.5 251.001s-53 198.167 -53 307.5s18 212 54 308s86.167 179.5 150.5 250.5s141.166 127 230.499 168s187.333 61.5 294 61.5c110.667 0 211 -21.5 301 -64.5
s167.667 -101.833 233 -176.5v211h942v-429h-204v256h-541v-485h455v-172h-455v-514h541v256h204v-428h-942v213c-65.333 -76.667 -143 -136.5 -233 -179.5s-190.333 -64.5 -301 -64.5v0zM801.001 157.999c79.333 0 151.002 15.999 215.002 47.999s118.5 75.667 163.5 131
s79.833 119.166 104.5 191.499s37 148.833 37 229.5c0 79.333 -12.333 155.5 -37 228.5s-59.5 137.167 -104.5 192.5s-99.5 99.333 -163.5 132s-135.667 49 -215 49s-151.5 -16.333 -216.5 -49s-120.333 -76.667 -166 -132s-80.834 -119.166 -105.501 -191.499
s-37 -148.833 -37 -229.5s12.667 -157.167 38 -229.5s60.833 -136.166 106.5 -191.499s100.667 -99 165 -131s136.166 -48 215.499 -48v0z" />
    <glyph glyph-name="oe" unicode="&#x153;" horiz-adv-x="1972" 
d="M86 518c0.666992 82 13.8311 156.672 39.498 224.005s61.5 125.166 107.5 173.499s100.667 85.5 164 111.5s133 39 209 39c76.667 0 146.834 -13 210.501 -39s118.167 -62.833 163.5 -110.5s80.666 -105.167 105.999 -172.5s38 -142 38 -224
c0 -80.667 -12.667 -154.834 -38 -222.501s-60.666 -125.834 -105.999 -174.501s-99.833 -86.5 -163.5 -113.5s-133.834 -40.5 -210.501 -40.5c-78 0 -148.667 13.333 -212 40s-117.666 64.167 -162.999 112.5s-80.666 106.166 -105.999 173.499
s-38.333 141.666 -39 222.999zM282.997 518.005c0 -59.333 8.5 -113 25.5 -161s40.333 -88.833 70 -122.5s64 -59.667 103 -78s80.5 -27.5 124.5 -27.5c46 0 88.833 9 128.5 27s74.167 43.833 103.5 77.5s52.333 74.5 69 122.5s25 102 25 162
c0 62.667 -8.33301 118.334 -25 167.001s-39.5 89.334 -68.5 122.001s-63.5 57.334 -103.5 74.001s-83 25 -129 25c-44 0 -85.5 -8.33301 -124.5 -25s-73.333 -41.334 -103 -74.001s-53 -73.334 -70 -122.001s-25.5 -104.334 -25.5 -167.001zM1130 494.005
c0 -29.333 2.16602 -56.165 6.49902 -80.498s10.5 -47.5 18.5 -69.5c24.667 -66.667 64.167 -116.834 118.5 -150.501s115.833 -50.5 184.5 -50.5c54 0 106.5 7.5 157.5 22.5s104.5 38.5 160.5 70.5l75 -127c-68 -46.667 -136.333 -81.334 -205 -104.001s-140 -34 -214 -34
c-70 0 -134.833 11.667 -194.5 35s-111 58 -154 104s-76.667 103.333 -101 172s-36.5 148.667 -36.5 240c0 74 10.333 143.833 31 209.5s51.5 123 92.5 172s91.833 87.833 152.5 116.5s131.334 43 212.001 43c78 0 143.167 -11.833 195.5 -35.5s95 -55 128 -94
s58 -83.5 75 -133.5s28.833 -101 35.5 -153c3.33301 -25.333 5.5 -51 6.5 -77s1.5 -51.333 1.5 -76h-746zM1421 907.006c-43.333 0 -81.1641 -6.16895 -113.497 -18.502s-59.833 -30 -82.5 -53s-40.834 -51.167 -54.501 -84.5s-23.834 -70.666 -30.501 -111.999h537
c-2.66699 38.667 -8.83398 74.334 -18.501 107.001s-24.5 61 -44.5 85s-45.667 42.667 -77 56s-70 20 -116 20z" />
    <glyph glyph-name="Racute" unicode="&#x154;" horiz-adv-x="1464" 
d="M143 1516l630.998 0.000976562c67.333 0 129.5 -8.83301 186.5 -26.5s106.333 -43.667 148 -78s74.167 -77.166 97.5 -128.499s35 -110.333 35 -177c0 -38 -6.83301 -75.5 -20.5 -112.5s-32.667 -71.333 -57 -103s-53.166 -59.834 -86.499 -84.501
s-69.666 -43.667 -108.999 -57c16.667 -7.33301 33.5 -17.833 50.5 -31.5s33 -30.334 48 -50.001s28.667 -42 41 -67s22.166 -51.833 29.499 -80.5l84 -330h131l2 -190h-295l-113 461c-20.667 82.667 -52.167 143.5 -94.5 182.5s-100.166 58.5 -173.499 58.5h-195v-530h152
v-172h-492v172h144v1171h-144v173zM482.998 1343v-477h291c38 0 72.833 5 104.5 15s59 25 82 45s41 44.833 54 74.5s19.5 64.167 19.5 103.5c0 75.333 -22.667 134 -68 176s-117.333 63 -216 63h-267zM761.998 1958h240v-17l-299 -282h-154z" />
    <glyph glyph-name="racute" unicode="&#x155;" horiz-adv-x="961" 
d="M845 817h-190v64c-22 0 -44.5 -4.16699 -67.5 -12.5s-44.5 -21 -64.5 -38s-37.5 -38.667 -52.5 -65s-25.833 -57.5 -32.5 -93.5v-500h176v-172h-514v172h143l1 692h-144v172h331v-143c12 21.333 25.5 41.166 40.5 59.499s31.667 34.333 50 48
s38.666 24.334 60.999 32.001s46.5 11.5 72.5 11.5h98c30.667 0 61.334 -0.666992 92.001 -2v-225zM477 1477h240v-17l-299 -282h-154z" />
    <glyph glyph-name="Rcommaaccent" unicode="&#x156;" horiz-adv-x="1464" 
d="M143 1516l630.998 0.000976562c67.333 0 129.5 -8.83301 186.5 -26.5s106.333 -43.667 148 -78s74.167 -77.166 97.5 -128.499s35 -110.333 35 -177c0 -38 -6.83301 -75.5 -20.5 -112.5s-32.667 -71.333 -57 -103s-53.166 -59.834 -86.499 -84.501
s-69.666 -43.667 -108.999 -57c16.667 -7.33301 33.5 -17.833 50.5 -31.5s33 -30.334 48 -50.001s28.667 -42 41 -67s22.166 -51.833 29.499 -80.5l84 -330h131l2 -190h-295l-113 461c-20.667 82.667 -52.167 143.5 -94.5 182.5s-100.166 58.5 -173.499 58.5h-195v-530h152
v-172h-492v172h144v1171h-144v173zM482.998 1343v-477h291c38 0 72.833 5 104.5 15s59 25 82 45s41 44.833 54 74.5s19.5 64.167 19.5 103.5c0 75.333 -22.667 134 -68 176s-117.333 63 -216 63h-267zM681.998 -40.999l211 -84l-180 -348l-144 53z" />
    <glyph glyph-name="rcommaaccent" unicode="&#x157;" horiz-adv-x="961" 
d="M845 817h-190v64c-22 0 -44.5 -4.16699 -67.5 -12.5s-44.5 -21 -64.5 -38s-37.5 -38.667 -52.5 -65s-25.833 -57.5 -32.5 -93.5v-500h176v-172h-514v172h143l1 692h-144v172h331v-143c12 21.333 25.5 41.166 40.5 59.499s31.667 34.333 50 48
s38.666 24.334 60.999 32.001s46.5 11.5 72.5 11.5h98c30.667 0 61.334 -0.666992 92.001 -2v-225zM315 -41l211 -84l-180 -348l-144 53z" />
    <glyph glyph-name="Rcaron" unicode="&#x158;" horiz-adv-x="1464" 
d="M143 1516l630.998 0.000976562c67.333 0 129.5 -8.83301 186.5 -26.5s106.333 -43.667 148 -78s74.167 -77.166 97.5 -128.499s35 -110.333 35 -177c0 -38 -6.83301 -75.5 -20.5 -112.5s-32.667 -71.333 -57 -103s-53.166 -59.834 -86.499 -84.501
s-69.666 -43.667 -108.999 -57c16.667 -7.33301 33.5 -17.833 50.5 -31.5s33 -30.334 48 -50.001s28.667 -42 41 -67s22.166 -51.833 29.499 -80.5l84 -330h131l2 -190h-295l-113 461c-20.667 82.667 -52.167 143.5 -94.5 182.5s-100.166 58.5 -173.499 58.5h-195v-530h152
v-172h-492v172h144v1171h-144v173zM482.998 1343v-477h291c38 0 72.833 5 104.5 15s59 25 82 45s41 44.833 54 74.5s19.5 64.167 19.5 103.5c0 75.333 -22.667 134 -68 176s-117.333 63 -216 63h-267zM980.998 1969l-252 -353h-49l-252 353h144l133 -196l135 196h141z" />
    <glyph glyph-name="rcaron" unicode="&#x159;" horiz-adv-x="961" 
d="M845 817h-190v64c-22 0 -44.5 -4.16699 -67.5 -12.5s-44.5 -21 -64.5 -38s-37.5 -38.667 -52.5 -65s-25.833 -57.5 -32.5 -93.5v-500h176v-172h-514v172h143l1 692h-144v172h331v-143c12 21.333 25.5 41.166 40.5 59.499s31.667 34.333 50 48
s38.666 24.334 60.999 32.001s46.5 11.5 72.5 11.5h98c30.667 0 61.334 -0.666992 92.001 -2v-225zM697 1488l-252 -353h-49l-252 353h144l133 -196l135 196h141z" />
    <glyph glyph-name="Sacute" unicode="&#x15a;" horiz-adv-x="1210" 
d="M888 1236c-21.333 29.333 -44.8271 51.8262 -70.4941 67.4932s-53.834 27.667 -84.501 36s-61.334 12.5 -92.001 12.5c-50.667 0 -95 -5.83301 -133 -17.5s-69.5 -27.5 -94.5 -47.5s-43.833 -43.333 -56.5 -70s-19 -54.667 -19 -84c0 -44 7.83301 -79.5 23.5 -106.5
s35.5 -48.667 59.5 -65s50.5 -29.166 79.5 -38.499l83.5 -28l202 -66c60.667 -19.333 114.167 -41.333 160.5 -66s85.166 -53.834 116.499 -87.501s55.166 -72.5 71.499 -116.5s24.5 -95 24.5 -153c0 -62.667 -12.833 -120.667 -38.5 -174s-61.5 -99.666 -107.5 -138.999
s-100.833 -70.166 -164.5 -92.499s-133.5 -33.5 -209.5 -33.5c-78 0 -144.667 8.83301 -200 26.5s-101.833 41.334 -139.5 71.001s-67.834 63.5 -90.501 101.5s-40.334 77 -53.001 117h-76v172h252c0 -74 7.83301 -126.333 23.5 -157s37.5 -56.167 65.5 -76.5
s61.333 -35.666 100 -45.999s81.334 -15.5 128.001 -15.5c45.333 0 86.166 5.33301 122.499 16s67.333 26.167 93 46.5s45.334 45 59.001 74s20.5 61.833 20.5 98.5c0 40.667 -8.5 75.167 -25.5 103.5s-38.833 52.5 -65.5 72.5s-55.834 36.333 -87.501 49
s-62.167 23.667 -91.5 33l-219 62c-48 14.667 -91.833 33.334 -131.5 56.001s-73.667 50.334 -102 83.001s-50.166 70.834 -65.499 114.501s-23 94.167 -23 151.5c0 58 11.333 112.333 34 163s56 95 100 133s97.833 67.833 161.5 89.5s136.5 32.5 218.5 32.5
c54 0 103.833 -6.33301 149.5 -19s87 -30.5 124 -53.5s69.667 -50.667 98 -83s52.166 -67.833 71.499 -106.5h75v-172h-245c0 58.667 -10.667 102.667 -32 132zM721.006 1955.99h240v-17l-299 -282h-154z" />
    <glyph glyph-name="sacute" unicode="&#x15b;" horiz-adv-x="993" 
d="M678.5 829.5c-13 19.667 -29.8311 35.668 -50.498 48.001s-43.667 21.333 -69 27s-50 8.5 -74 8.5c-26.667 0 -51.167 -3 -73.5 -9s-41.5 -14.667 -57.5 -26s-28.5 -25.166 -37.5 -41.499s-13.5 -34.5 -13.5 -54.5c0 -34.667 10.5 -62.167 31.5 -82.5
s56.167 -39.166 105.5 -56.499l199 -70c85.333 -28.667 147.666 -67.667 186.999 -117s59 -108.333 59 -177c0 -46 -9.16699 -88.167 -27.5 -126.5s-44.333 -71 -78 -98s-74.167 -48 -121.5 -63s-100 -22.5 -158 -22.5c-80.667 0 -146.334 13 -197.001 39
s-89.667 60.333 -117 103h-104v172h207c0 -28.667 6.16699 -53.167 18.5 -73.5s28.666 -36.833 48.999 -49.5s43.333 -22 69 -28s51.834 -9 78.501 -9c26 0 51 3.16699 75 9.5s45.167 15.666 63.5 27.999s32.833 27.166 43.5 44.499s16 37 16 59
c0 33.333 -10.833 61.666 -32.5 84.999s-58.5 44.333 -110.5 63l-198 74c-80.667 28.667 -140.5 65.167 -179.5 109.5s-58.5 99.833 -58.5 166.5c0 44 8.16699 84.667 24.5 122s40 69.5 71 96.5s68.833 48.167 113.5 63.5s95.667 23 153 23c74 0 136 -10.333 186 -31
s95 -56 135 -106h97v-172h-205c0 28 -6.5 51.833 -19.5 71.5zM565.002 1477h240v-17l-299 -282h-154z" />
    <glyph glyph-name="Scedilla" unicode="&#x15e;" horiz-adv-x="1210" 
d="M888 1236c-21.333 29.333 -44.8271 51.8262 -70.4941 67.4932s-53.834 27.667 -84.501 36s-61.334 12.5 -92.001 12.5c-50.667 0 -95 -5.83301 -133 -17.5s-69.5 -27.5 -94.5 -47.5s-43.833 -43.333 -56.5 -70s-19 -54.667 -19 -84c0 -44 7.83301 -79.5 23.5 -106.5
s35.5 -48.667 59.5 -65s50.5 -29.166 79.5 -38.499l83.5 -28l202 -66c60.667 -19.333 114.167 -41.333 160.5 -66s85.166 -53.834 116.499 -87.501s55.166 -72.5 71.499 -116.5s24.5 -95 24.5 -153c0 -62.667 -12.833 -120.667 -38.5 -174s-61.5 -99.666 -107.5 -138.999
s-100.833 -70.166 -164.5 -92.499s-133.5 -33.5 -209.5 -33.5c-78 0 -144.667 8.83301 -200 26.5s-101.833 41.334 -139.5 71.001s-67.834 63.5 -90.501 101.5s-40.334 77 -53.001 117h-76v172h252c0 -74 7.83301 -126.333 23.5 -157s37.5 -56.167 65.5 -76.5
s61.333 -35.666 100 -45.999s81.334 -15.5 128.001 -15.5c45.333 0 86.166 5.33301 122.499 16s67.333 26.167 93 46.5s45.334 45 59.001 74s20.5 61.833 20.5 98.5c0 40.667 -8.5 75.167 -25.5 103.5s-38.833 52.5 -65.5 72.5s-55.834 36.333 -87.501 49
s-62.167 23.667 -91.5 33l-219 62c-48 14.667 -91.833 33.334 -131.5 56.001s-73.667 50.334 -102 83.001s-50.166 70.834 -65.499 114.501s-23 94.167 -23 151.5c0 58 11.333 112.333 34 163s56 95 100 133s97.833 67.833 161.5 89.5s136.5 32.5 218.5 32.5
c54 0 103.833 -6.33301 149.5 -19s87 -30.5 124 -53.5s69.667 -50.667 98 -83s52.166 -67.833 71.499 -106.5h75v-172h-245c0 58.667 -10.667 102.667 -32 132zM338.006 -303.007c36.667 0.666992 69.835 7.16602 99.502 19.499s55.667 28.5 78 48.5
s40.666 43.5 54.999 70.5s24.166 55.833 29.499 86.5l150 -45c-12 -48.667 -30.667 -92.167 -56 -130.5s-55.5 -70.666 -90.5 -96.999s-74.167 -46.5 -117.5 -60.5s-89 -21 -137 -21z" />
    <glyph glyph-name="scedilla" unicode="&#x15f;" horiz-adv-x="993" 
d="M678.5 829.5c-13 19.667 -29.8311 35.668 -50.498 48.001s-43.667 21.333 -69 27s-50 8.5 -74 8.5c-26.667 0 -51.167 -3 -73.5 -9s-41.5 -14.667 -57.5 -26s-28.5 -25.166 -37.5 -41.499s-13.5 -34.5 -13.5 -54.5c0 -34.667 10.5 -62.167 31.5 -82.5
s56.167 -39.166 105.5 -56.499l199 -70c85.333 -28.667 147.666 -67.667 186.999 -117s59 -108.333 59 -177c0 -46 -9.16699 -88.167 -27.5 -126.5s-44.333 -71 -78 -98s-74.167 -48 -121.5 -63s-100 -22.5 -158 -22.5c-80.667 0 -146.334 13 -197.001 39
s-89.667 60.333 -117 103h-104v172h207c0 -28.667 6.16699 -53.167 18.5 -73.5s28.666 -36.833 48.999 -49.5s43.333 -22 69 -28s51.834 -9 78.501 -9c26 0 51 3.16699 75 9.5s45.167 15.666 63.5 27.999s32.833 27.166 43.5 44.499s16 37 16 59
c0 33.333 -10.833 61.666 -32.5 84.999s-58.5 44.333 -110.5 63l-198 74c-80.667 28.667 -140.5 65.167 -179.5 109.5s-58.5 99.833 -58.5 166.5c0 44 8.16699 84.667 24.5 122s40 69.5 71 96.5s68.833 48.167 113.5 63.5s95.667 23 153 23c74 0 136 -10.333 186 -31
s95 -56 135 -106h97v-172h-205c0 28 -6.5 51.833 -19.5 71.5zM291.002 -302.999c36.667 0.666992 69.835 7.16602 99.502 19.499s55.667 28.5 78 48.5s40.666 43.5 54.999 70.5s24.166 55.833 29.499 86.5l150 -45c-12 -48.667 -30.667 -92.167 -56 -130.5
s-55.5 -70.666 -90.5 -96.999s-74.167 -46.5 -117.5 -60.5s-89 -21 -137 -21z" />
    <glyph glyph-name="Scaron" unicode="&#x160;" horiz-adv-x="1210" 
d="M888 1236c-21.333 29.333 -44.8271 51.8262 -70.4941 67.4932s-53.834 27.667 -84.501 36s-61.334 12.5 -92.001 12.5c-50.667 0 -95 -5.83301 -133 -17.5s-69.5 -27.5 -94.5 -47.5s-43.833 -43.333 -56.5 -70s-19 -54.667 -19 -84c0 -44 7.83301 -79.5 23.5 -106.5
s35.5 -48.667 59.5 -65s50.5 -29.166 79.5 -38.499l83.5 -28l202 -66c60.667 -19.333 114.167 -41.333 160.5 -66s85.166 -53.834 116.499 -87.501s55.166 -72.5 71.499 -116.5s24.5 -95 24.5 -153c0 -62.667 -12.833 -120.667 -38.5 -174s-61.5 -99.666 -107.5 -138.999
s-100.833 -70.166 -164.5 -92.499s-133.5 -33.5 -209.5 -33.5c-78 0 -144.667 8.83301 -200 26.5s-101.833 41.334 -139.5 71.001s-67.834 63.5 -90.501 101.5s-40.334 77 -53.001 117h-76v172h252c0 -74 7.83301 -126.333 23.5 -157s37.5 -56.167 65.5 -76.5
s61.333 -35.666 100 -45.999s81.334 -15.5 128.001 -15.5c45.333 0 86.166 5.33301 122.499 16s67.333 26.167 93 46.5s45.334 45 59.001 74s20.5 61.833 20.5 98.5c0 40.667 -8.5 75.167 -25.5 103.5s-38.833 52.5 -65.5 72.5s-55.834 36.333 -87.501 49
s-62.167 23.667 -91.5 33l-219 62c-48 14.667 -91.833 33.334 -131.5 56.001s-73.667 50.334 -102 83.001s-50.166 70.834 -65.499 114.501s-23 94.167 -23 151.5c0 58 11.333 112.333 34 163s56 95 100 133s97.833 67.833 161.5 89.5s136.5 32.5 218.5 32.5
c54 0 103.833 -6.33301 149.5 -19s87 -30.5 124 -53.5s69.667 -50.667 98 -83s52.166 -67.833 71.499 -106.5h75v-172h-245c0 58.667 -10.667 102.667 -32 132zM940.006 1966.99l-252 -353h-49l-252 353h144l133 -196l135 196h141z" />
    <glyph glyph-name="scaron" unicode="&#x161;" horiz-adv-x="993" 
d="M678.5 829.5c-13 19.667 -29.8311 35.668 -50.498 48.001s-43.667 21.333 -69 27s-50 8.5 -74 8.5c-26.667 0 -51.167 -3 -73.5 -9s-41.5 -14.667 -57.5 -26s-28.5 -25.166 -37.5 -41.499s-13.5 -34.5 -13.5 -54.5c0 -34.667 10.5 -62.167 31.5 -82.5
s56.167 -39.166 105.5 -56.499l199 -70c85.333 -28.667 147.666 -67.667 186.999 -117s59 -108.333 59 -177c0 -46 -9.16699 -88.167 -27.5 -126.5s-44.333 -71 -78 -98s-74.167 -48 -121.5 -63s-100 -22.5 -158 -22.5c-80.667 0 -146.334 13 -197.001 39
s-89.667 60.333 -117 103h-104v172h207c0 -28.667 6.16699 -53.167 18.5 -73.5s28.666 -36.833 48.999 -49.5s43.333 -22 69 -28s51.834 -9 78.501 -9c26 0 51 3.16699 75 9.5s45.167 15.666 63.5 27.999s32.833 27.166 43.5 44.499s16 37 16 59
c0 33.333 -10.833 61.666 -32.5 84.999s-58.5 44.333 -110.5 63l-198 74c-80.667 28.667 -140.5 65.167 -179.5 109.5s-58.5 99.833 -58.5 166.5c0 44 8.16699 84.667 24.5 122s40 69.5 71 96.5s68.833 48.167 113.5 63.5s95.667 23 153 23c74 0 136 -10.333 186 -31
s95 -56 135 -106h97v-172h-205c0 28 -6.5 51.833 -19.5 71.5zM784.002 1488l-252 -353h-49l-252 353h144l133 -196l135 196h141z" />
    <glyph glyph-name="Tcommaaccent" unicode="&#x162;" horiz-adv-x="1434" 
d="M453 172h139v1180h-346v-236h-205v400h1352v-400h-205v236h-400v-1180h156v-172h-491v172zM668 -41l211 -84l-180 -348l-144 53z" />
    <glyph glyph-name="tcommaaccent" unicode="&#x163;" horiz-adv-x="762" 
d="M400 1036l243.001 0.000976562v-151h-245l-3 -598c0 -40.667 4.66699 -73.667 14 -99s24.333 -42.833 45 -52.5s44 -14.5 70 -14.5c28 0 52.667 2.5 74 7.5s44.666 13.5 69.999 25.5l43 -125c-32 -16.667 -65.667 -29.834 -101 -39.501s-77 -14.5 -125 -14.5
c-45.333 0 -84.833 5.5 -118.5 16.5s-62 29.5 -85 55.5s-40.167 60.833 -51.5 104.5s-17 98.167 -17 163.5l3 570h-165v151h167v248l182 86v-334zM332.001 -40.999l211 -84l-180 -348l-144 53z" />
    <glyph glyph-name="Tcaron" unicode="&#x164;" horiz-adv-x="1434" 
d="M453 172h139v1180h-346v-236h-205v400h1352v-400h-205v236h-400v-1180h156v-172h-491v172zM993 1967l-252 -353h-49l-252 353h144l133 -196l135 196h141z" />
    <glyph glyph-name="tcaron" unicode="&#x165;" horiz-adv-x="780" 
d="M400 1036l243.001 0.000976562v-151h-245l-3 -598c0 -40.667 4.66699 -73.667 14 -99s24.333 -42.833 45 -52.5s44 -14.5 70 -14.5c28 0 52.667 2.5 74 7.5s44.666 13.5 69.999 25.5l43 -125c-32 -16.667 -65.667 -29.834 -101 -39.501s-77 -14.5 -125 -14.5
c-45.333 0 -84.833 5.5 -118.5 16.5s-62 29.5 -85 55.5s-40.167 60.833 -51.5 104.5s-17 98.167 -17 163.5l3 570h-165v151h167v248l182 86v-334zM680.001 1100h-149v518l197 16z" />
    <glyph glyph-name="Umacron" unicode="&#x16a;" horiz-adv-x="1559" 
d="M63 1516l491.003 0.00292969v-173h-155v-706c0 -84.667 9.5 -156.834 28.5 -216.501s45.333 -108.334 79 -146.001s73.667 -65.167 120 -82.5s97.166 -26 152.499 -26c57.333 0 110 7.66699 158 23s89.167 41.166 123.5 77.499s61 84.666 80 144.999
s28.5 135.5 28.5 225.5v706h-164v173h491v-173h-135v-684c0 -109.333 -15.167 -206.333 -45.5 -291s-71.833 -155.667 -124.5 -213s-114.667 -100.833 -186 -130.5s-148 -44.5 -230 -44.5c-80 0 -154.833 14.667 -224.5 44s-130.334 72.333 -182.001 129
s-92.334 125.834 -122.001 207.501s-44.5 175.167 -44.5 280.5v702h-139v173zM1172 1708h-758v117h758v-117z" />
    <glyph glyph-name="umacron" unicode="&#x16b;" horiz-adv-x="1350" 
d="M724 1036l333.999 -0.000976562v-864h115v-172h-302v96c-46.667 -36 -97.5 -64 -152.5 -84s-113.833 -30 -176.5 -30c-52 0 -99.167 7.5 -141.5 22.5s-78.333 38.333 -108 70s-52.5 71.834 -68.5 120.501s-24 106.667 -24 174v495h-140v172h334v-645
c0 -79.333 18.333 -139.333 55 -180s89.334 -61 158.001 -61c40.667 0 83.5 7.33301 128.5 22s87.5 35 127.5 61v631h-139v172zM929.999 1229h-758v117h758v-117z" />
    <glyph glyph-name="Uring" unicode="&#x16e;" horiz-adv-x="1559" 
d="M63 1516l491.003 0.00292969v-173h-155v-706c0 -84.667 9.5 -156.834 28.5 -216.501s45.333 -108.334 79 -146.001s73.667 -65.167 120 -82.5s97.166 -26 152.499 -26c57.333 0 110 7.66699 158 23s89.167 41.166 123.5 77.499s61 84.666 80 144.999
s28.5 135.5 28.5 225.5v706h-164v173h491v-173h-135v-684c0 -109.333 -15.167 -206.333 -45.5 -291s-71.833 -155.667 -124.5 -213s-114.667 -100.833 -186 -130.5s-148 -44.5 -230 -44.5c-80 0 -154.833 14.667 -224.5 44s-130.334 72.333 -182.001 129
s-92.334 125.834 -122.001 207.501s-44.5 175.167 -44.5 280.5v702h-139v173zM676.003 1823c0 -14 2.83301 -27.167 8.5 -39.5s13.334 -23.333 23.001 -33s20.667 -17.334 33 -23.001s25.5 -8.5 39.5 -8.5s27.333 2.83301 40 8.5s23.834 13.334 33.501 23.001
s17.334 20.667 23.001 33s8.5 25.5 8.5 39.5s-2.83301 27.333 -8.5 40s-13.334 23.834 -23.001 33.501s-20.834 17.334 -33.501 23.001s-26 8.5 -40 8.5s-27.167 -2.83301 -39.5 -8.5s-23.333 -13.334 -33 -23.001s-17.334 -20.834 -23.001 -33.501s-8.5 -26 -8.5 -40z
M780.003 2079c34.667 0 67.667 -6.83301 99 -20.5s58.5 -32 81.5 -55s41.333 -50.167 55 -81.5s20.5 -64.333 20.5 -99s-6.83301 -67.5 -20.5 -98.5s-32 -58.167 -55 -81.5s-50.167 -41.833 -81.5 -55.5s-64.333 -20.5 -99 -20.5s-67.5 6.83301 -98.5 20.5
s-58.167 32.167 -81.5 55.5s-41.833 50.5 -55.5 81.5s-20.5 63.833 -20.5 98.5s6.83301 67.667 20.5 99s32.167 58.5 55.5 81.5s50.5 41.333 81.5 55s63.833 20.5 98.5 20.5z" />
    <glyph glyph-name="uring" unicode="&#x16f;" horiz-adv-x="1350" 
d="M724 1036l333.999 -0.000976562v-864h115v-172h-302v96c-46.667 -36 -97.5 -64 -152.5 -84s-113.833 -30 -176.5 -30c-52 0 -99.167 7.5 -141.5 22.5s-78.333 38.333 -108 70s-52.5 71.834 -68.5 120.501s-24 106.667 -24 174v495h-140v172h334v-645
c0 -79.333 18.333 -139.333 55 -180s89.334 -61 158.001 -61c40.667 0 83.5 7.33301 128.5 22s87.5 35 127.5 61v631h-139v172zM475.999 1343c0 -14 2.83301 -27.167 8.5 -39.5s13.334 -23.333 23.001 -33s20.667 -17.334 33 -23.001s25.5 -8.5 39.5 -8.5
s27.333 2.83301 40 8.5s23.834 13.334 33.501 23.001s17.334 20.667 23.001 33s8.5 25.5 8.5 39.5s-2.83301 27.333 -8.5 40s-13.334 23.834 -23.001 33.501s-20.834 17.334 -33.501 23.001s-26 8.5 -40 8.5s-27.167 -2.83301 -39.5 -8.5s-23.333 -13.334 -33 -23.001
s-17.334 -20.834 -23.001 -33.501s-8.5 -26 -8.5 -40zM579.999 1599c34.667 0 67.667 -6.83301 99 -20.5s58.5 -32 81.5 -55s41.333 -50.167 55 -81.5s20.5 -64.333 20.5 -99s-6.83301 -67.5 -20.5 -98.5s-32 -58.167 -55 -81.5s-50.167 -41.833 -81.5 -55.5
s-64.333 -20.5 -99 -20.5s-67.5 6.83301 -98.5 20.5s-58.167 32.167 -81.5 55.5s-41.833 50.5 -55.5 81.5s-20.5 63.833 -20.5 98.5s6.83301 67.667 20.5 99s32.167 58.5 55.5 81.5s50.5 41.333 81.5 55s63.833 20.5 98.5 20.5z" />
    <glyph glyph-name="Uhungarumlaut" unicode="&#x170;" horiz-adv-x="1559" 
d="M63 1516l491.003 0.00292969v-173h-155v-706c0 -84.667 9.5 -156.834 28.5 -216.501s45.333 -108.334 79 -146.001s73.667 -65.167 120 -82.5s97.166 -26 152.499 -26c57.333 0 110 7.66699 158 23s89.167 41.166 123.5 77.499s61 84.666 80 144.999
s28.5 135.5 28.5 225.5v706h-164v173h491v-173h-135v-684c0 -109.333 -15.167 -206.333 -45.5 -291s-71.833 -155.667 -124.5 -213s-114.667 -100.833 -186 -130.5s-148 -44.5 -230 -44.5c-80 0 -154.833 14.667 -224.5 44s-130.334 72.333 -182.001 129
s-92.334 125.834 -122.001 207.501s-44.5 175.167 -44.5 280.5v702h-139v173zM1244 1957l-233 -300h-152l208 300h177zM923.003 1957l-222 -300h-151l195 300h178z" />
    <glyph glyph-name="uhungarumlaut" unicode="&#x171;" horiz-adv-x="1350" 
d="M724 1036l333.999 -0.000976562v-864h115v-172h-302v96c-46.667 -36 -97.5 -64 -152.5 -84s-113.833 -30 -176.5 -30c-52 0 -99.167 7.5 -141.5 22.5s-78.333 38.333 -108 70s-52.5 71.834 -68.5 120.501s-24 106.667 -24 174v495h-140v172h334v-645
c0 -79.333 18.333 -139.333 55 -180s89.334 -61 158.001 -61c40.667 0 83.5 7.33301 128.5 22s87.5 35 127.5 61v631h-139v172zM1040 1478l-233 -300h-152l208 300h177zM718.999 1478l-222 -300h-151l195 300h178z" />
    <glyph glyph-name="Uogonek" unicode="&#x172;" horiz-adv-x="1559" 
d="M1005 1516l491.003 0.00195312v-173h-135v-684c0 -128 -20.5 -238.5 -61.5 -331.5s-96.167 -168.167 -165.5 -225.5l-76 -78.5c-22 -23.667 -40.167 -46.834 -54.5 -69.501s-24.833 -45.667 -31.5 -69s-10 -48.333 -10 -75c0 -45.333 13.667 -79 41 -101s58 -33 92 -33
c26 0 52.667 2.83301 80 8.5s47.666 11.834 60.999 18.501l43 -123c-20.667 -10.667 -48.667 -21.834 -84 -33.501s-76.333 -17.5 -123 -17.5c-36.667 0 -72 4.83301 -106 14.5s-64.333 24.667 -91 45s-47.834 46.166 -63.501 77.499s-23.5 69 -23.5 113
c0 40.667 6.5 78.167 19.5 112.5s30.833 65.833 53.5 94.5c-14.667 -2.66699 -28.834 -4.33398 -42.501 -5.00098s-28.167 -1 -43.5 -1c-80 0 -155.167 15 -225.5 45s-131.166 73.333 -182.499 130s-91.666 125.834 -120.999 207.501s-44 174.5 -44 278.5v702h-139v173h491
v-173h-155v-702c0 -86 9.5 -159 28.5 -219s45.167 -108.833 78.5 -146.5s73.666 -65.334 120.999 -83.001s99.666 -26.5 156.999 -26.5s109.833 8.16699 157.5 24.5s88.167 43.333 121.5 81s59.333 86.834 78 147.501s28 134.667 28 222v702h-164v173z" />
    <glyph glyph-name="uogonek" unicode="&#x173;" horiz-adv-x="1198" 
d="M20 1036l334.003 0.000976562v-645c0 -79.333 18.167 -139.333 54.5 -180s89.166 -61 158.499 -61c40 0 82.833 7.16699 128.5 21.5s88.167 34.833 127.5 61.5v631h-139v172h334v-864h115v-172h-19c-86 -28.667 -151.833 -60.834 -197.5 -96.501
s-68.5 -78.5 -68.5 -128.5c0 -27.333 10.167 -50.666 30.5 -69.999s47.833 -29 82.5 -29c25.333 0 49.666 2.16699 72.999 6.5s42 9.83301 56 16.5l43 -127c-18 -10.667 -42.667 -20.5 -74 -29.5s-66.333 -13.5 -105 -13.5c-16 0 -31.5 0.666992 -46.5 2
s-30.167 3.33301 -45.5 6c-28.667 5.33301 -54.5 14.166 -77.5 26.499s-42.833 27 -59.5 44s-29.334 36.5 -38.001 58.5s-13 46.667 -13 74c0 57.333 15.333 107.833 46 151.5s67.667 80.5 111 110.5v0v94c-47.333 -35.333 -98.333 -63.166 -153 -83.499
s-113.334 -30.5 -176.001 -30.5c-61.333 0 -113.833 9.16699 -157.5 27.5s-79.167 46.666 -106.5 84.999s-47.166 86.833 -59.499 145.5s-18.5 129 -18.5 211v413h-140v172z" />
    <glyph glyph-name="Ydieresis" unicode="&#x178;" horiz-adv-x="1354" 
d="M51 1516h492v-173h-144l285 -487l305 487h-158v173h492v-173h-129l-426 -646v-525h156v-172h-492v172h139v530l-402 641h-118v173zM339 1839c0 17.333 3.5 33.833 10.5 49.5s16.333 29.334 28 41.001s25.334 21 41.001 28s32.167 10.5 49.5 10.5
c16.667 0 32.667 -3.5 48 -10.5s28.666 -16.333 39.999 -28s20.333 -25.334 27 -41.001s10 -32.167 10 -49.5c0 -18 -3.33301 -35 -10 -51s-15.667 -30.167 -27 -42.5s-24.666 -22 -39.999 -29s-31.333 -10.5 -48 -10.5c-17.333 0 -33.833 3.5 -49.5 10.5
s-29.334 16.667 -41.001 29s-21 26.5 -28 42.5s-10.5 33 -10.5 51zM798 1839c0 17.333 3.5 33.833 10.5 49.5s16.333 29.334 28 41.001s25.334 21 41.001 28s32.167 10.5 49.5 10.5c16.667 0 32.5 -3.5 47.5 -10.5s28.333 -16.333 40 -28s20.834 -25.334 27.501 -41.001
s10 -32.167 10 -49.5c0 -18 -3.33301 -35 -10 -51s-15.834 -30.167 -27.501 -42.5s-25 -22 -40 -29s-30.833 -10.5 -47.5 -10.5c-17.333 0 -33.833 3.5 -49.5 10.5s-29.334 16.667 -41.001 29s-21 26.5 -28 42.5s-10.5 33 -10.5 51z" />
    <glyph glyph-name="Zacute" unicode="&#x179;" horiz-adv-x="1214" 
d="M1163 1292l-913 -1120h711v252h196v-424h-1106v227l900 1116h-687v-256h-196v429h1095v-224zM690 1956h240v-17l-299 -282h-154z" />
    <glyph glyph-name="zacute" unicode="&#x17a;" horiz-adv-x="924" 
d="M76 115l525 766h-331v-146h-184v301h741v-118l-524 -762h354v176h193v-332h-774v115zM533 1477h240v-17l-299 -282h-154z" />
    <glyph glyph-name="Zdotaccent" unicode="&#x17b;" horiz-adv-x="1214" 
d="M1163 1292l-913 -1120h711v252h196v-424h-1106v227l900 1116h-687v-256h-196v429h1095v-224zM506 1882c0 17.333 3.5 33.833 10.5 49.5s16.333 29.334 28 41.001s25.5 21 41.5 28s33 10.5 51 10.5c17.333 0 33.833 -3.5 49.5 -10.5s29.334 -16.333 41.001 -28
s21 -25.334 28 -41.001s10.5 -32.167 10.5 -49.5c0 -18 -3.5 -35 -10.5 -51s-16.333 -30.167 -28 -42.5s-25.334 -22 -41.001 -29s-32.167 -10.5 -49.5 -10.5c-18 0 -35 3.5 -51 10.5s-29.833 16.667 -41.5 29s-21 26.5 -28 42.5s-10.5 33 -10.5 51z" />
    <glyph glyph-name="zdotaccent" unicode="&#x17c;" horiz-adv-x="924" 
d="M76 115l525 766h-331v-146h-184v301h741v-118l-524 -762h354v176h193v-332h-774v115zM348 1403c0 17.333 3.5 33.833 10.5 49.5s16.333 29.334 28 41.001s25.5 21 41.5 28s33 10.5 51 10.5c17.333 0 33.833 -3.5 49.5 -10.5s29.334 -16.333 41.001 -28
s21 -25.334 28 -41.001s10.5 -32.167 10.5 -49.5c0 -18 -3.5 -35 -10.5 -51s-16.333 -30.167 -28 -42.5s-25.334 -22 -41.001 -29s-32.167 -10.5 -49.5 -10.5c-18 0 -35 3.5 -51 10.5s-29.833 16.667 -41.5 29s-21 26.5 -28 42.5s-10.5 33 -10.5 51z" />
    <glyph glyph-name="Zcaron" unicode="&#x17d;" horiz-adv-x="1214" 
d="M1163 1292l-913 -1120h711v252h196v-424h-1106v227l900 1116h-687v-256h-196v429h1095v-224zM909 1967l-252 -353h-49l-252 353h144l133 -196l135 196h141z" />
    <glyph glyph-name="zcaron" unicode="&#x17e;" horiz-adv-x="924" 
d="M76 115l525 766h-331v-146h-184v301h741v-118l-524 -762h354v176h193v-332h-774v115zM752 1488l-252 -353h-49l-252 353h144l133 -196l135 196h141z" />
    <glyph glyph-name="florin" unicode="&#x192;" horiz-adv-x="729" 
d="M223 1036l198.996 0.000976562l29 162c10.667 60 28 112.5 52 157.5s53.333 82.167 88 111.5s73.834 51.5 117.501 66.5s90.834 22.5 141.501 22.5c70.667 0 126.167 -6 166.5 -18s72.833 -25 97.5 -39l-82 -133c-18.667 10.667 -44.5 20.167 -77.5 28.5
s-67.833 12.5 -104.5 12.5c-56 0 -102.833 -17 -140.5 -51s-62.5 -84.667 -74.5 -152l-29 -168h242l-27 -151h-241l-174 -998c-11.333 -60 -28.666 -112.5 -51.999 -157.5s-52.333 -82.167 -87 -111.5s-74.167 -51.5 -118.5 -66.5s-91.833 -22.5 -142.5 -22.5
c-70.667 0 -126.167 6.16699 -166.5 18.5s-72.833 25.166 -97.5 38.499l82 133c19.333 -10.667 45.333 -20.167 78 -28.5s67.334 -12.5 104.001 -12.5c56 0 102.833 17.167 140.5 51.5s62.5 84.833 74.5 151.5l174 1004h-198z" />
    <glyph glyph-name="Scommaaccent" unicode="&#x218;" horiz-adv-x="1210" 
d="M888 1236c-21.333 29.333 -44.8271 51.8262 -70.4941 67.4932s-53.834 27.667 -84.501 36s-61.334 12.5 -92.001 12.5c-50.667 0 -95 -5.83301 -133 -17.5s-69.5 -27.5 -94.5 -47.5s-43.833 -43.333 -56.5 -70s-19 -54.667 -19 -84c0 -44 7.83301 -79.5 23.5 -106.5
s35.5 -48.667 59.5 -65s50.5 -29.166 79.5 -38.499l83.5 -28l202 -66c60.667 -19.333 114.167 -41.333 160.5 -66s85.166 -53.834 116.499 -87.501s55.166 -72.5 71.499 -116.5s24.5 -95 24.5 -153c0 -62.667 -12.833 -120.667 -38.5 -174s-61.5 -99.666 -107.5 -138.999
s-100.833 -70.166 -164.5 -92.499s-133.5 -33.5 -209.5 -33.5c-78 0 -144.667 8.83301 -200 26.5s-101.833 41.334 -139.5 71.001s-67.834 63.5 -90.501 101.5s-40.334 77 -53.001 117h-76v172h252c0 -74 7.83301 -126.333 23.5 -157s37.5 -56.167 65.5 -76.5
s61.333 -35.666 100 -45.999s81.334 -15.5 128.001 -15.5c45.333 0 86.166 5.33301 122.499 16s67.333 26.167 93 46.5s45.334 45 59.001 74s20.5 61.833 20.5 98.5c0 40.667 -8.5 75.167 -25.5 103.5s-38.833 52.5 -65.5 72.5s-55.834 36.333 -87.501 49
s-62.167 23.667 -91.5 33l-219 62c-48 14.667 -91.833 33.334 -131.5 56.001s-73.667 50.334 -102 83.001s-50.166 70.834 -65.499 114.501s-23 94.167 -23 151.5c0 58 11.333 112.333 34 163s56 95 100 133s97.833 67.833 161.5 89.5s136.5 32.5 218.5 32.5
c54 0 103.833 -6.33301 149.5 -19s87 -30.5 124 -53.5s69.667 -50.667 98 -83s52.166 -67.833 71.499 -106.5h75v-172h-245c0 58.667 -10.667 102.667 -32 132zM555.006 -41.0068l211 -84l-180 -348l-144 53z" />
    <glyph glyph-name="scommaaccent" unicode="&#x219;" horiz-adv-x="993" 
d="M678.5 829.5c-13 19.667 -29.8311 35.668 -50.498 48.001s-43.667 21.333 -69 27s-50 8.5 -74 8.5c-26.667 0 -51.167 -3 -73.5 -9s-41.5 -14.667 -57.5 -26s-28.5 -25.166 -37.5 -41.499s-13.5 -34.5 -13.5 -54.5c0 -34.667 10.5 -62.167 31.5 -82.5
s56.167 -39.166 105.5 -56.499l199 -70c85.333 -28.667 147.666 -67.667 186.999 -117s59 -108.333 59 -177c0 -46 -9.16699 -88.167 -27.5 -126.5s-44.333 -71 -78 -98s-74.167 -48 -121.5 -63s-100 -22.5 -158 -22.5c-80.667 0 -146.334 13 -197.001 39
s-89.667 60.333 -117 103h-104v172h207c0 -28.667 6.16699 -53.167 18.5 -73.5s28.666 -36.833 48.999 -49.5s43.333 -22 69 -28s51.834 -9 78.501 -9c26 0 51 3.16699 75 9.5s45.167 15.666 63.5 27.999s32.833 27.166 43.5 44.499s16 37 16 59
c0 33.333 -10.833 61.666 -32.5 84.999s-58.5 44.333 -110.5 63l-198 74c-80.667 28.667 -140.5 65.167 -179.5 109.5s-58.5 99.833 -58.5 166.5c0 44 8.16699 84.667 24.5 122s40 69.5 71 96.5s68.833 48.167 113.5 63.5s95.667 23 153 23c74 0 136 -10.333 186 -31
s95 -56 135 -106h97v-172h-205c0 28 -6.5 51.833 -19.5 71.5zM446.002 -40.999l211 -84l-180 -348l-144 53z" />
    <glyph glyph-name="uni021A" unicode="&#x21a;" horiz-adv-x="1434" 
d="M453 172h139v1180h-346v-236h-205v400h1352v-400h-205v236h-400v-1180h156v-172h-491v172zM668 -41l211 -84l-180 -348l-144 53z" />
    <glyph glyph-name="uni021B" unicode="&#x21b;" horiz-adv-x="762" 
d="M400 1036l243.001 0.000976562v-151h-245l-3 -598c0 -40.667 4.66699 -73.667 14 -99s24.333 -42.833 45 -52.5s44 -14.5 70 -14.5c28 0 52.667 2.5 74 7.5s44.666 13.5 69.999 25.5l43 -125c-32 -16.667 -65.667 -29.834 -101 -39.501s-77 -14.5 -125 -14.5
c-45.333 0 -84.833 5.5 -118.5 16.5s-62 29.5 -85 55.5s-40.167 60.833 -51.5 104.5s-17 98.167 -17 163.5l3 570h-165v151h167v248l182 86v-334zM332.001 -40.999l211 -84l-180 -348l-144 53z" />
    <glyph glyph-name="apostrophe" unicode="&#x2bc;" horiz-adv-x="340" 
d="M133 1520l211 -84l-180 -349l-144 54z" />
    <glyph glyph-name="circumflex" unicode="&#x2c6;" horiz-adv-x="860" 
d="M217 1176l250 313h63l252 -313h-149l-133 155l-135 -155h-148z" />
    <glyph glyph-name="caron" unicode="&#x2c7;" horiz-adv-x="860" 
d="M776 1488l-252 -353h-49l-252 353h144l133 -196l135 196h141z" />
    <glyph glyph-name="breve" unicode="&#x2d8;" horiz-adv-x="1008" 
d="M487 1149c-50.667 0 -97.834 8.33398 -141.501 25.001s-82 39.667 -115 69s-59.333 64.166 -79 104.499s-30.5 84.166 -32.5 131.499h121c0.666992 -28.667 7.33398 -56 20.001 -82s30 -48.833 52 -68.5s48 -35.334 78 -47.001s62.333 -17.5 97 -17.5s67 5.66699 97 17
s56 26.833 78 46.5s39.333 42.5 52 68.5s19.667 53.667 21 83h121c-2 -47.333 -13 -91.166 -33 -131.499s-46.5 -75.166 -79.5 -104.499s-71.5 -52.333 -115.5 -69s-91 -25 -141 -25z" />
    <glyph glyph-name="dotaccent" unicode="&#x2d9;" horiz-adv-x="612" 
d="M174 1403c0 17.333 3.5 33.833 10.5 49.5s16.333 29.334 28 41.001s25.5 21 41.5 28s33 10.5 51 10.5c17.333 0 33.833 -3.5 49.5 -10.5s29.334 -16.333 41.001 -28s21 -25.334 28 -41.001s10.5 -32.167 10.5 -49.5c0 -18 -3.5 -35 -10.5 -51s-16.333 -30.167 -28 -42.5
s-25.334 -22 -41.001 -29s-32.167 -10.5 -49.5 -10.5c-18 0 -35 3.5 -51 10.5s-29.833 16.667 -41.5 29s-21 26.5 -28 42.5s-10.5 33 -10.5 51z" />
    <glyph glyph-name="ring" unicode="&#x2da;" horiz-adv-x="1200" 
d="M506 1343c0 -14 2.83301 -27.167 8.5 -39.5s13.334 -23.333 23.001 -33s20.667 -17.334 33 -23.001s25.5 -8.5 39.5 -8.5s27.333 2.83301 40 8.5s23.834 13.334 33.501 23.001s17.334 20.667 23.001 33s8.5 25.5 8.5 39.5s-2.83301 27.333 -8.5 40
s-13.334 23.834 -23.001 33.501s-20.834 17.334 -33.501 23.001s-26 8.5 -40 8.5s-27.167 -2.83301 -39.5 -8.5s-23.333 -13.334 -33 -23.001s-17.334 -20.834 -23.001 -33.501s-8.5 -26 -8.5 -40zM610 1599c34.667 0 67.667 -6.83301 99 -20.5s58.5 -32 81.5 -55
s41.333 -50.167 55 -81.5s20.5 -64.333 20.5 -99s-6.83301 -67.5 -20.5 -98.5s-32 -58.167 -55 -81.5s-50.167 -41.833 -81.5 -55.5s-64.333 -20.5 -99 -20.5s-67.5 6.83301 -98.5 20.5s-58.167 32.167 -81.5 55.5s-41.833 50.5 -55.5 81.5s-20.5 63.833 -20.5 98.5
s6.83301 67.667 20.5 99s32.167 58.5 55.5 81.5s50.5 41.333 81.5 55s63.833 20.5 98.5 20.5z" />
    <glyph glyph-name="ogonek" unicode="&#x2db;" horiz-adv-x="539" 
d="M469 29c-44 -19.333 -81 -38.001 -111 -56.001s-54.333 -36.5 -73 -55.5s-32 -38.5 -40 -58.5s-12 -41.333 -12 -64c0 -12.667 2.66699 -23.334 8 -32.001s12.333 -15.5 21 -20.5s18.5 -8.66699 29.5 -11s22.5 -3.5 34.5 -3.5c25.333 0 47 2.16699 65 6.5
s33.667 9.5 47 15.5l49 -166c-7.33301 -4 -17.666 -8.33301 -30.999 -13s-28.333 -9.16699 -45 -13.5s-34 -7.83301 -52 -10.5s-34.667 -4 -50 -4c-40.667 0 -78 4.5 -112 13.5s-63.5 22.167 -88.5 39.5s-44.5 38.833 -58.5 64.5s-21 55.5 -21 89.5s6 65.833 18 95.5
s27.833 56.834 47.5 81.501s42.167 46.834 67.5 66.501s51.166 37 77.499 52s52 27.5 77 37.5s47.167 17.667 66.5 23z" />
    <glyph glyph-name="tilde" unicode="&#x2dc;" horiz-adv-x="999" 
d="M313 1415c33.333 0 62.166 -5.5 86.499 -16.5s47 -23 68 -36s41.833 -24.833 62.5 -35.5s44 -16 70 -16c18.667 0 36.834 6.33301 54.501 19s29.5 33 35.5 61l119 -35c-13.333 -56.667 -39.333 -100.5 -78 -131.5s-85 -46.5 -139 -46.5c-37.333 0 -69 5.16699 -95 15.5
s-49.667 21.5 -71 33.5l-60 33.5c-18.667 10.333 -39 15.5 -61 15.5c-10 0 -20.167 -0.666992 -30.5 -2s-20.5 -4.5 -30.5 -9.5s-19.167 -12.667 -27.5 -23s-14.833 -24.833 -19.5 -43.5l-109 53c8.66699 31.333 21 57.5 37 78.5s34 37.833 54 50.5s41.5 21.667 64.5 27
s46.167 8 69.5 8z" />
    <glyph glyph-name="hungarumlaut" unicode="&#x2dd;" horiz-adv-x="1341" 
d="M1064 1478l-233 -300h-152l208 300h177zM743 1478l-222 -300h-151l195 300h178z" />
    <glyph glyph-name="Gamma" unicode="&#x393;" horiz-adv-x="1229" 
d="M143 172h140v1180h-138v164h1072v-400h-205v236h-533v-1180h156v-172h-492v172z" />
    <glyph glyph-name="Pi" unicode="&#x3a0;" horiz-adv-x="1762" 
d="M145 1516h1473v-173h-143v-1171h143v-172h-491v172h151v1171h-795v-1171h152v-172h-492v172h144v1171h-142v173z" />
    <glyph glyph-name="pi" unicode="&#x3c0;" horiz-adv-x="1382" 
d="M1104 -16c-48 0 -90.335 6 -127.002 18s-67.667 30.667 -93 56s-44.5 57.833 -57.5 97.5s-19.5 86.167 -19.5 139.5v569h-371v-692h150v-172h-492v172h148v692h-150v172h1141v-172h-232v-536c0 -26 0.833008 -50 2.5 -72s5.83398 -40.5 12.501 -55.5
s17.5 -26.833 32.5 -35.5s36.167 -13 63.5 -13c23.333 0 43.833 2 61.5 6s36.834 10.667 57.501 20l31 -160c-22 -10.667 -45.333 -19 -70 -25s-54 -9 -88 -9v0z" />
    <glyph glyph-name="uni0400" unicode="&#x400;" horiz-adv-x="1286" 
d="M143 1516h1086v-429h-205v256h-541v-485h455v-172h-455v-514h541v256h205v-428h-1086v172h144v1171h-144v173zM651 1657l-287 282v17h248l184 -299h-145z" />
    <glyph glyph-name="uni0401" unicode="&#x401;" horiz-adv-x="1286" 
d="M143 1516h1086v-429h-205v256h-541v-485h455v-172h-455v-514h541v256h205v-428h-1086v172h144v1171h-144v173zM358 1839c0 17.333 3.5 33.833 10.5 49.5s16.333 29.334 28 41.001s25.5 21 41.5 28s33 10.5 51 10.5c17.333 0 33.833 -3.5 49.5 -10.5
s29.334 -16.333 41.001 -28s21 -25.334 28 -41.001s10.5 -32.167 10.5 -49.5c0 -18 -3.5 -35 -10.5 -51s-16.333 -30.167 -28 -42.5s-25.334 -22 -41.001 -29s-32.167 -10.5 -49.5 -10.5c-18 0 -35 3.5 -51 10.5s-29.833 16.667 -41.5 29s-21 26.5 -28 42.5
s-10.5 33 -10.5 51zM817 1839c0 17.333 3.5 33.833 10.5 49.5s16.333 29.334 28 41.001s25.5 21 41.5 28s33 10.5 51 10.5c17.333 0 33.833 -3.5 49.5 -10.5s29.334 -16.333 41.001 -28s21 -25.334 28 -41.001s10.5 -32.167 10.5 -49.5c0 -18 -3.5 -35 -10.5 -51
s-16.333 -30.167 -28 -42.5s-25.334 -22 -41.001 -29s-32.167 -10.5 -49.5 -10.5c-18 0 -35 3.5 -51 10.5s-29.833 16.667 -41.5 29s-21 26.5 -28 42.5s-10.5 33 -10.5 51z" />
    <glyph glyph-name="uni0402" unicode="&#x402;" horiz-adv-x="1761" 
d="M1663 453c0 -70 -11.6641 -133.671 -34.9971 -191.004s-55.833 -105.833 -97.5 -145.5s-91.834 -70.334 -150.501 -92.001s-123.334 -32.5 -194.001 -32.5h-21.5h-19.5v158c10.667 0 20.834 0.333008 30.501 1s19.167 1.66699 28.5 3
c38.667 5.33301 74.334 14.833 107.001 28.5s60.667 32.334 84 56.001s41.666 53 54.999 88s20 76.5 20 124.5c0 42 -8.5 81.167 -25.5 117.5s-40.833 67.333 -71.5 93s-66.834 45.667 -108.501 60s-87.167 21.5 -136.5 21.5c-78.667 0 -146.834 -8.16699 -204.501 -24.5
s-113.5 -33.5 -167.5 -51.5v-495h151v-172h-491v172h143v1180h-313v-236h-205v400h1223v-400h-205v236h-303v-519c68 24.667 131 42.834 189 54.501s119 17.5 183 17.5c79.333 0 151.833 -11.167 217.5 -33.5s122 -53.666 169 -93.999s83.5 -88.166 109.5 -143.499
s39 -115.666 39 -180.999v0z" />
    </font>
</defs>
</svg>
