<?xml version="1.0" standalone="no"?>
<!DOCTYPE svg PUBLIC "-//W3C//DTD SVG 1.1//EN" "http://www.w3.org/Graphics/SVG/1.1/DTD/svg11.dtd" >
<svg>
<metadata>
Created by FontForge 20090914 at Wed Jul 16 10:35:29 2014
 By www-data
Copyright 2013 Anton Koovit, Yassin Baggar.
</metadata>
<defs>
<font id="Arvo-Italic" horiz-adv-x="1235" >
  <font-face 
    font-family="Arvo"
    font-weight="400"
    font-style="italic"
    font-stretch="normal"
    units-per-em="2048"
    panose-1="2 6 6 3 4 2 2 2 3 4"
    ascent="1638"
    descent="-410"
    x-height="1036"
    cap-height="1516"
    bbox="-281.001 -3014 2507 2078"
    underline-thickness="50"
    underline-position="-50"
    unicode-range="U+0020-U+FB02"
  />
<missing-glyph horiz-adv-x="1024" 
d="M102 0v1092h820v-1092h-820zM204 102h616v888h-616v-888z" />
    <glyph glyph-name=".notdef" horiz-adv-x="1024" 
d="M102 0v1092h820v-1092h-820zM204 102h616v888h-616v-888z" />
    <glyph glyph-name="space" unicode=" " horiz-adv-x="449" 
 />
    <glyph glyph-name="exclam" unicode="!" horiz-adv-x="842" 
d="M514 1577h260l-312 -1167h-178zM198 119c0 18 3.5 35 10.5 51s16.5 29.833 28.5 41.5s26 21 42 28s33.333 10.5 52 10.5c18 0 35 -3.5 51 -10.5s29.833 -16.333 41.5 -28s21 -25.5 28 -41.5s10.5 -33 10.5 -51s-3.5 -35.167 -10.5 -51.5s-16.333 -30.666 -28 -42.999
s-25.5 -22.166 -41.5 -29.499s-33 -11 -51 -11c-18.667 0 -36 3.66699 -52 11s-30 17.166 -42 29.499s-21.5 26.666 -28.5 42.999s-10.5 33.5 -10.5 51.5z" />
    <glyph glyph-name="quotedbl" unicode="&#x22;" horiz-adv-x="745" 
d="M288 1059h-125l71 510l183 12zM574 1059h-124l71 510l182 12z" />
    <glyph glyph-name="numbersign" unicode="#" horiz-adv-x="1455" 
d="M374 1184h240l135 313h201l-134 -313h358l134 313h201l-134 -313h226l-90 -172h-209l-192 -451h243l-88 -172h-228l-165 -389h-203l166 389h-357l-165 -389h-207l167 389h-239l92 172h221l193 451h-256zM551 561h357l193 451h-358z" />
    <glyph glyph-name="dollar" unicode="$" horiz-adv-x="1278" 
d="M384 -181l77.0029 334.996c-18.667 2.66699 -42.834 7.83398 -72.501 15.501s-59 21.167 -88 40.5s-51.5 42.166 -67.5 68.499s-26 54.5 -30 84.5h-80l17.5 68.5l17.5 68.5h233l-8 -31c-2.66699 -10 -5.16699 -23.167 -7.5 -39.5s1 -33 10 -50s22.667 -31.333 41 -43
s41.5 -20.334 69.5 -26.001s60 -8.5 96 -8.5c38 0 72.667 4.33301 104 13s58.5 20.834 81.5 36.501s40.833 34.334 53.5 56.001s19 45.5 19 71.5c0 28.667 -9.66699 52.167 -29 70.5s-37.333 32.333 -54 42s-38 17.167 -64 22.5l-158 43
c-35.333 9.33301 -66.5 21.666 -93.5 36.999s-50 33.5 -69 54.5s-33.333 44.833 -43 71.5s-14.5 55.667 -14.5 87c0 51.333 10.833 97.833 32.5 139.5s52.834 77.334 93.501 107.001s90 52.5 148 68.5c35.333 9.33301 73.333 16 114 20l74 317h196l-75 -324
c4.66699 -1.33301 18 -4.5 40 -9.5s47.833 -15.667 77.5 -32s54.334 -35.666 74.001 -57.999s33.167 -46.833 40.5 -73.5h82l-17.5 -68.5l-17.5 -68.5h-225c1.33301 3.33301 2.16602 6.5 2.49902 9.5s2.16602 11.5 5.49902 25.5s1.16602 30.167 -6.50098 48.5
s-20.5 33.833 -38.5 46.5s-40 22.334 -66 29.001s-53.667 10 -83 10c-40.667 0 -77.167 -4.16699 -109.5 -12.5s-59.833 -19.666 -82.5 -33.999s-40.167 -31.666 -52.5 -51.999s-18.5 -42.5 -18.5 -66.5c0 -21.333 4.83301 -38.833 14.5 -52.5s22.167 -24.834 37.5 -33.501
s32.166 -15.667 50.499 -21l53.5 -16l153 -49c74.667 -23.333 130.667 -55.333 168 -96s56 -93 56 -157c0 -54 -11.833 -103 -35.5 -147s-56.667 -81.5 -99 -112.5s-86.333 -53 -132 -66s-86.167 -21.5 -121.5 -25.5l-77 -334h-197z" />
    <glyph glyph-name="percent" unicode="%" horiz-adv-x="1671" 
d="M192.5 1258c21.667 47.333 51.334 88.833 89.001 124.5s81.667 64 132 85s104.166 31.5 161.499 31.5c41.333 0 79.5 -7.66699 114.5 -23s65.333 -35.833 91 -61.5s45.667 -55 60 -88s21.5 -67.5 21.5 -103.5c0 -50.667 -10.5 -99.5 -31.5 -146.5s-50 -88.5 -87 -124.5
s-81 -64.667 -132 -86s-106.167 -32 -165.5 -32c-42.667 0 -81.5 7.5 -116.5 22.5s-65 35.167 -90 60.5s-44.5 54.5 -58.5 87.5s-21 67.5 -21 103.5c0 52.667 10.833 102.667 32.5 150zM471 1319.5c-26 -10.333 -49.166 -24.5 -69.499 -42.5s-36.666 -39 -48.999 -63
s-18.5 -49.667 -18.5 -77c0 -20.667 3.16699 -39.667 9.5 -57s15.5 -32.333 27.5 -45s26.333 -22.5 43 -29.5s35.667 -10.5 57 -10.5c26.667 0 53 5.5 79 16.5s49 25.833 69 44.5s36.167 40.5 48.5 65.5s18.5 51.167 18.5 78.5c0 19.333 -3.33301 37.333 -10 54
s-15.834 31 -27.501 43s-25.834 21.333 -42.501 28s-35 10 -55 10c-27.333 0 -54 -5.16699 -80 -15.5zM1421 1540h225l-1400 -1556h-226zM844.001 239c0 43.333 5 81.499 15 114.499s24 63.833 42 92.5s39.667 55 65 79s53.333 44.667 84 62s63.667 30.666 99 39.999
s72 14 110 14c41.333 0 79.5 -7.5 114.5 -22.5s65.333 -35.333 91 -61s45.667 -55 60 -88s21.5 -67.5 21.5 -103.5c0 -50.667 -10.5 -99.5 -31.5 -146.5s-50 -88.667 -87 -125s-80.833 -65.333 -131.5 -87s-106 -32.5 -166 -32.5c-42.667 0 -81.5 7.66699 -116.5 23
s-65 35.833 -90 61.5s-44.5 54.834 -58.5 87.501s-21 63.334 -21 92.001zM1155.5 461.499c-25.667 -10.333 -48.498 -24.501 -68.498 -42.501s-36.167 -39 -48.5 -63s-18.5 -50 -18.5 -78c0 -41.333 12 -75.166 36 -101.499s57 -39.5 99 -39.5c26.667 0 53 5.5 79 16.5
s49 25.833 69 44.5s36.167 40.334 48.5 65.001s18.5 51 18.5 79c0 19.333 -3.33301 37.166 -10 53.499s-15.834 30.5 -27.501 42.5s-25.834 21.5 -42.501 28.5s-35 10.5 -55 10.5c-27.333 0 -53.833 -5.16699 -79.5 -15.5z" />
    <glyph glyph-name="ampersand" unicode="&#x26;" horiz-adv-x="1382" 
d="M1075 -20l-153.999 213.003c-32.667 -33.333 -67 -63.666 -103 -90.999s-73.667 -50.833 -113 -70.5s-80.5 -35 -123.5 -46s-87.5 -16.5 -133.5 -16.5c-54 0 -103.667 10 -149 30s-84.666 47.5 -117.999 82.5s-59.333 76 -78 123s-28 97.5 -28 151.5
c0 55.333 10.667 107.166 32 155.499s49.5 92.166 84.5 131.499s75 74 120 104s91.167 54.667 138.5 74l-41 56.5c-14.667 20.333 -28.334 43 -41.001 68s-23.334 52.667 -32.001 83s-13 64.166 -13 101.499c0 58.667 11.833 113.167 35.5 163.5s55.667 94 96 131
s87.833 66.167 142.5 87.5s113 32 175 32c47.333 0 91.666 -8.66699 132.999 -26s77.333 -40.833 108 -70.5s54.834 -63.667 72.501 -102s26.5 -78.5 26.5 -120.5c0 -46 -5.33301 -86.833 -16 -122.5s-26.167 -68 -46.5 -97s-45.666 -55.667 -75.999 -80
s-64.833 -48.833 -103.5 -73.5c-24.667 -16.667 -49.834 -32 -75.501 -46s-52.167 -27.667 -79.5 -41l226 -288c32 50 59.833 99.167 83.5 147.5s43.167 92.166 58.5 131.499h180c-25.333 -67.333 -56 -136.5 -92 -207.5s-77.333 -139.5 -124 -205.5l194 -247z
M458.001 657.003c-28.667 -12 -55.6689 -28.168 -81.002 -48.501s-47.5 -43.5 -66.5 -69.5s-34 -54.167 -45 -84.5s-16.5 -61.166 -16.5 -92.499c0 -32 5.33301 -61.833 16 -89.5s25.834 -51.5 45.501 -71.5s43.334 -35.667 71.001 -47s58.167 -17 91.5 -17
c34 0 66.833 4.66699 98.5 14s62.167 22.166 91.5 38.499s57.5 35.833 84.5 58.5s52.5 47.334 76.5 74.001l-277 370l-45 -17.5l-44 -17.5v0zM838.999 1020c25.333 22.667 47.6641 49.333 66.9971 80s29 64 29 100c0 24.667 -4.66699 48 -14 70s-22 41.333 -38 58
s-35 29.834 -57 39.501s-45.667 14.5 -71 14.5c-36.667 0 -71 -6.33301 -103 -19s-59.667 -30 -83 -52s-41.833 -47.667 -55.5 -77s-20.5 -61 -20.5 -95c0 -22.667 2.83301 -43.834 8.5 -63.501s13.834 -39.167 24.501 -58.5s23.667 -39.166 39 -59.499l51 -66.5
c40.667 17.333 79.834 36.166 117.501 56.499s72.834 44.5 105.501 72.5v0z" />
    <glyph glyph-name="quotesingle" unicode="'" horiz-adv-x="414" 
d="M275 1059h-125l71 510l183 12z" />
    <glyph glyph-name="parenleft" unicode="(" horiz-adv-x="825" 
d="M432 -369c-30 52 -56.998 108.332 -80.998 168.999s-44.333 123.667 -61 189s-29.334 132.333 -38.001 201s-13 137.667 -13 207c0 135.333 14.667 264.5 44 387.5s72.666 240.333 129.999 352s123.833 215 199.5 310s164.834 185.167 267.501 270.5l124 -124
c-92.667 -85.333 -172 -168.5 -238 -249.5s-123.5 -172.5 -172.5 -274.5s-86.5 -208 -112.5 -318s-39 -225 -39 -345c0 -61.333 3.16699 -122.166 9.5 -182.499s15.833 -118.666 28.5 -174.999s28.667 -110.333 48 -162s41.666 -99.834 66.999 -144.501z" />
    <glyph glyph-name="parenright" unicode=")" horiz-adv-x="948" 
d="M482 1712c30.667 -52 57.999 -108.17 81.999 -168.503s44.167 -123.333 60.5 -189s28.833 -132.834 37.5 -201.501s13 -137.667 13 -207c0 -130 -15.333 -253.333 -46 -370s-74.667 -229.667 -132 -339s-127 -213.666 -209 -312.999s-176 -197 -282 -293l-118 118
c90 83.333 171 171.333 243 264s133.333 188.834 184 288.501s89.667 202.5 117 308.5s41 215.333 41 328c0 61.333 -3.16699 122 -9.5 182s-16 118.333 -29 175s-29.167 110.834 -48.5 162.501s-41.666 99.834 -66.999 144.501z" />
    <glyph glyph-name="asterisk" unicode="*" horiz-adv-x="829" 
d="M535 1300l260 78l12 -137l-257 -76l101 -202l-125 -70l-98 202l-184 -194l-109 82l190 199l-225 78l66 122l225 -79l55 243h146z" />
    <glyph glyph-name="plus" unicode="+" horiz-adv-x="1270" 
d="M140 786h416l98 424h195l-98 -424h415l-39 -172h-416l-98 -428h-194l98 428h-416z" />
    <glyph glyph-name="comma" unicode="," horiz-adv-x="569" 
d="M205 283l219 -86l-256 -537l-171 67z" />
    <glyph glyph-name="hyphen" unicode="-" horiz-adv-x="856" 
d="M137 496l40 172h571l-40 -172h-571z" />
    <glyph glyph-name="period" unicode="." horiz-adv-x="514" 
d="M50 119c0 18 3.5 35 10.5 51s16.5 29.833 28.5 41.5s26 21 42 28s33.333 10.5 52 10.5c18 0 35 -3.5 51 -10.5s29.833 -16.333 41.5 -28s21 -25.5 28 -41.5s10.5 -33 10.5 -51s-3.5 -35.167 -10.5 -51.5s-16.333 -30.666 -28 -42.999s-25.5 -22.166 -41.5 -29.499
s-33 -11 -51 -11c-18.667 0 -36 3.66699 -52 11s-30 17.166 -42 29.499s-21.5 26.666 -28.5 42.999s-10.5 33.5 -10.5 51.5z" />
    <glyph glyph-name="slash" unicode="/" horiz-adv-x="1001" 
d="M1039 1556h248l-1137 -1556h-248z" />
    <glyph glyph-name="zero" unicode="0" horiz-adv-x="1409" 
d="M594 -18c-78.667 0 -146.5 13 -203.5 39s-103.833 61.833 -140.5 107.5s-63.667 99.667 -81 162s-26 129.5 -26 201.5c0 73.333 7.83301 150.333 23.5 231s38.667 159.834 69 237.501s67.666 151.5 111.999 221.5s95.166 131.5 152.499 184.5s121 95.167 191 126.5
s145.667 47 227 47c80 0 148.5 -13.833 205.5 -41.5s103.667 -65 140 -112s62.833 -101.667 79.5 -164s25 -128.5 25 -198.5c0 -76.667 -8 -155.5 -24 -236.5s-39.5 -160.167 -70.5 -237.5s-68.833 -150.333 -113.5 -219s-95.667 -128.834 -153 -180.501
s-120.666 -92.667 -189.999 -123s-143.666 -45.5 -222.999 -45.5zM616 166c52 0 101.5 13.1689 148.5 39.502s90.667 61.666 131 105.999s76.666 95.333 108.999 153s60 117.667 83 180s40.667 124.833 53 187.5s18.5 121.334 18.5 176.001c0 47.333 -4.5 92.5 -13.5 135.5
s-23.667 80.667 -44 113s-47.333 58 -81 77s-75.5 28.5 -125.5 28.5c-51.333 0 -100.5 -13.833 -147.5 -41.5s-90.5 -64.667 -130.5 -111s-76.333 -99.166 -109 -158.499s-60.5 -120.833 -83.5 -184.5s-40.833 -126.834 -53.5 -189.501s-19 -120.334 -19 -173.001
c0 -46.667 4.5 -90.5 13.5 -131.5s23.833 -76.833 44.5 -107.5s47.834 -54.834 81.501 -72.501s75.167 -26.5 124.5 -26.5z" />
    <glyph glyph-name="one" unicode="1" horiz-adv-x="844" 
d="M182 172h147l254 1109l-343 -167l47 209l477 236h80l-320 -1387h150l-39 -172h-492z" />
    <glyph glyph-name="two" unicode="2" horiz-adv-x="1143" 
d="M14 154l679.997 638.997l83 78c29.333 27.333 56.333 56.333 81 87s45.167 62.5 61.5 95.5s24.5 67.5 24.5 103.5c0 27.333 -5 52.833 -15 76.5s-24.167 44.334 -42.5 62.001s-40.666 31.5 -66.999 41.5s-55.833 15 -88.5 15c-34 0 -66.833 -5.5 -98.5 -16.5
s-60.667 -27 -87 -48s-49.5 -47 -69.5 -78s-35.333 -66.833 -46 -107.5h-207c16 68.667 41.5 130.334 76.5 185.001s76.5 100.834 124.5 138.501s101 66.5 159 86.5s117.667 30 179 30c56.667 0 108.334 -9.5 155.001 -28.5s86.834 -44.833 120.501 -77.5
s59.667 -70.834 78 -114.501s27.5 -90.167 27.5 -139.5c0 -39.333 -3.5 -75.666 -10.5 -108.999s-19.667 -67 -38 -101s-43.833 -70.167 -76.5 -108.5s-75 -81.833 -127 -130.5l-601 -561h621l-39 -172h-892z" />
    <glyph glyph-name="three" unicode="3" horiz-adv-x="1124" 
d="M938 1151c0 28.667 -5.49707 56.502 -16.4971 83.502s-26.333 50.833 -46 71.5s-43.334 37.167 -71.001 49.5s-58.167 18.5 -91.5 18.5c-41.333 0 -78 -5.33301 -110 -16s-59.833 -25 -83.5 -43s-43.167 -38.5 -58.5 -61.5s-27 -46.833 -35 -71.5
c-1.33301 -3.33301 -2.16602 -5.83301 -2.49902 -7.5s-0.833008 -3.5 -1.5 -5.5s-1.5 -4.66699 -2.5 -8s-2.16699 -8 -3.5 -14l-201 2c10 60.667 30.333 115.5 61 164.5s68.667 90.833 114 125.5s97.166 61.167 155.499 79.5s120.166 27.5 185.499 27.5
c58.667 0 113.167 -8.5 163.5 -25.5s94 -41.333 131 -73s66.167 -69.834 87.5 -114.501s32 -95 32 -151c0 -40.667 -5.16699 -80.5 -15.5 -119.5s-27 -75.667 -50 -110s-52.833 -65.333 -89.5 -93s-81 -50.834 -133 -69.501c22 -10.667 42.5 -24.834 61.5 -42.501
s35.5 -38.5 49.5 -62.5s24.833 -50.333 32.5 -79s11.5 -59.334 11.5 -92.001c0 -78 -14.333 -150.167 -43 -216.5s-68.5 -123.833 -119.5 -172.5s-111.333 -86.834 -181 -114.501s-145.834 -41.5 -228.501 -41.5c-47.333 0 -93.5 6.83301 -138.5 20.5s-86 33 -123 58
s-68.333 55.333 -94 91s-42.834 75.5 -51.501 119.5c-4 17.333 -7 35.333 -9 54s-2.33301 38.334 -1 59.001h200c0.666992 -32 6.5 -61.833 17.5 -89.5s26.833 -52 47.5 -73s45.834 -37.5 75.501 -49.5s63.5 -18 101.5 -18c49.333 0 94.833 9.33301 136.5 28
s77.5 44.167 107.5 76.5s53.5 70 70.5 113s25.5 88.833 25.5 137.5c0 32.667 -5.66699 62.5 -17 89.5s-27 50 -47 69s-43.833 33.833 -71.5 44.5s-58.167 16 -91.5 16h-89l35 157h74c50 0 95.833 7.66699 137.5 23s77.5 35.833 107.5 61.5s53.333 55.334 70 89.001
s25 68.834 25 105.501z" />
    <glyph glyph-name="four" unicode="4" horiz-adv-x="1153" 
d="M59 596l752 920h231l-744 -906h392l58 250l200 14l-61 -264h225l-41 -172h-224l-62 -266h145l-39 -172h-492l39 172h150l62 266h-630z" />
    <glyph glyph-name="five" unicode="5" horiz-adv-x="1192" 
d="M415 910c37.333 20.667 75.1641 36.3301 113.497 46.9971s81.833 16 130.5 16c60.667 0 117.334 -10 170.001 -30s98.334 -48.5 137.001 -85.5s69 -81.5 91 -133.5s33 -109.667 33 -173c0 -64 -8.16699 -122.667 -24.5 -176s-38.666 -101.666 -66.999 -144.999
s-62 -81.166 -101 -113.499s-81 -59.5 -126 -81.5s-92.167 -38.5 -141.5 -49.5s-99 -16.5 -149 -16.5c-62 0 -119 8.33301 -171 25s-97.833 39.667 -137.5 69s-72.5 64 -98.5 104s-44 83.333 -54 130l183 78c7.33301 -30 18.833 -58.667 34.5 -86s35.834 -51.5 60.501 -72.5
s53.667 -37.833 87 -50.5s71.666 -19 114.999 -19c46.667 0 93 8.66699 139 26s87.333 42.5 124 75.5s66.5 73.833 89.5 122.5s34.5 104.667 34.5 168c0 37.333 -6.33301 72 -19 104s-30.667 59.833 -54 83.5s-51.333 42.334 -84 56.001s-69 20.5 -109 20.5
c-54 0 -105.333 -9.33301 -154 -28s-91.667 -43.667 -129 -75l-154 29l185 787h864l-41 -173h-676z" />
    <glyph glyph-name="six" unicode="6" horiz-adv-x="1229" 
d="M1049 1516l-444.998 -539.002c25.333 7.33301 47.333 12 66 14s35.334 3 50.001 3c64 0 123 -11 177 -33s100.667 -52.167 140 -90.5s70 -83.5 92 -135.5s33 -108 33 -168c0 -87.333 -16.833 -166.5 -50.5 -237.5s-78.334 -131.667 -134.001 -182
s-119.834 -89.166 -192.501 -116.499s-148 -41 -226 -41c-70 0 -133.167 11.333 -189.5 34s-104.333 53.5 -144 92.5s-70.167 84.167 -91.5 135.5s-32 106 -32 164c0 36.667 4 73.834 12 111.501s20.833 77 38.5 118s40.667 84 69 129s63.166 93.167 104.499 144.5l479 597
h244zM681.002 838.998c-66.667 0 -126.999 -15.834 -180.999 -47.501s-96.333 -70.5 -127 -116.5s-50.167 -88.667 -58.5 -128s-12.5 -79.666 -12.5 -120.999c0 -38 6.33301 -73.333 19 -106s31 -61 55 -85s53.167 -42.833 87.5 -56.5s73.5 -20.5 117.5 -20.5
c49.333 0 96.833 9.5 142.5 28.5s86.167 46 121.5 81s63.666 77.5 84.999 127.5s32 105.667 32 167c0 42.667 -7.66699 81.167 -23 115.5s-36 63.5 -62 87.5s-56 42.333 -90 55s-69.333 19 -106 19z" />
    <glyph glyph-name="seven" unicode="7" horiz-adv-x="1212" 
d="M100 172h138c61.333 105.333 126.833 212 196.5 320l208.5 315l201.5 290l176.5 246h-573l-32 -137h-195l72 310h1001l-34 -150l-202.5 -275.5l-212 -298.5l-208.5 -310c-68 -104.667 -131.667 -208 -191 -310h146l-39 -172h-492z" />
    <glyph glyph-name="eight" unicode="8" horiz-adv-x="1247" 
d="M844 1544c52 0 100.166 -8.83496 144.499 -26.502s82.666 -42.167 114.999 -73.5s57.5 -68.166 75.5 -110.499s27 -88.166 27 -137.499c0 -41.333 -6.33301 -81 -19 -119s-30.334 -73.5 -53.001 -106.5s-49.5 -63.167 -80.5 -90.5s-64.833 -51 -101.5 -71
c46.667 -36.667 83.667 -81.334 111 -134.001s41 -109 41 -169c0 -72 -14.667 -139.833 -44 -203.5s-70 -119 -122 -166s-113.833 -84.167 -185.5 -111.5s-149.834 -41 -234.501 -41c-65.333 0 -123.666 10.667 -174.999 32s-94.833 50.333 -130.5 87s-63 79 -82 127
s-28.5 99 -28.5 153c0 51.333 8.33301 100.5 25 147.5s39.834 90.5 69.501 130.5s64.834 75.833 105.501 107.5s85.334 57.834 134.001 78.501c-33.333 32 -59.333 69.167 -78 111.5s-28 86.833 -28 133.5c0 62 14 120.5 42 175.5s65.5 103 112.5 144s101.667 73.333 164 97
s127.5 35.5 195.5 35.5zM296.999 398.998c0 -35.333 5.49805 -67.501 16.498 -96.501s27 -53.667 48 -74s46.667 -36.166 77 -47.499s64.5 -17 102.5 -17c56.667 0 107.834 9.16699 153.501 27.5s84.5 43 116.5 74s56.667 66.333 74 106s26 81.167 26 124.5
c0 32 -5.83301 62.167 -17.5 90.5s-28.167 52.833 -49.5 73.5s-46.666 37 -75.999 49s-62 18 -98 18c-50 0 -97.667 -8.83301 -143 -26.5s-85 -41.5 -119 -71.5s-61 -64.833 -81 -104.5s-30 -81.5 -30 -125.5zM511.997 1098c0 -27.333 4.83203 -52.832 14.499 -76.499
s23.334 -44.334 41.001 -62.001s39 -31.5 64 -41.5s52.833 -15 83.5 -15c38 0 75.333 7.33301 112 22s69.5 34.667 98.5 60s52.333 54.833 70 88.5s26.5 69.167 26.5 106.5c0 28.667 -4.66699 55 -14 79s-22.5 44.667 -39.5 62s-37.833 30.833 -62.5 40.5
s-52.334 14.5 -83.001 14.5c-41.333 0 -80.666 -7.66699 -117.999 -23s-70.333 -35.666 -99 -60.999s-51.5 -54.833 -68.5 -88.5s-25.5 -68.834 -25.5 -105.501z" />
    <glyph glyph-name="nine" unicode="9" horiz-adv-x="1294" 
d="M295 0l447 543.002c-25.333 -8 -47.5 -12.833 -66.5 -14.5s-35.5 -2.5 -49.5 -2.5c-64 0 -123 11 -177 33s-100.667 52.167 -140 90.5s-70 83.5 -92 135.5s-33 108 -33 168c0 87.333 16.833 166.5 50.5 237.5s78.334 131.667 134.001 182s119.834 89.166 192.501 116.499
s148 41 226 41c70 0 133.167 -11.333 189.5 -34s104.333 -53.5 144 -92.5s70.167 -84.167 91.5 -135.5s32 -106 32 -164c0 -36.667 -4 -73.834 -12 -111.501s-20.833 -77 -38.5 -118s-40.834 -84 -69.501 -129s-63.334 -93.167 -104.001 -144.5l-481 -601h-244zM665 681.002
c80.667 0 149.999 20 207.999 60s106.667 102.667 146 188c9.33301 26.667 15.833 53.667 19.5 81s5.5 55.333 5.5 84c0 38 -6.33301 73.333 -19 106s-31 61 -55 85s-53.167 42.833 -87.5 56.5s-73.5 20.5 -117.5 20.5c-49.333 0 -96.833 -9.5 -142.5 -28.5
s-86.167 -46 -121.5 -81s-63.666 -77.5 -84.999 -127.5s-32 -105.667 -32 -167c0 -43.333 7.66699 -82 23 -116s36 -63 62 -87s56 -42.333 90 -55s69.333 -19 106 -19z" />
    <glyph glyph-name="colon" unicode=":" horiz-adv-x="543" 
d="M256 -2095c0 17.333 3.5 33.833 10.5 49.5s16.333 29.334 28 41.001s25.5 21 41.5 28s33 10.5 51 10.5c17.333 0 33.833 -3.5 49.5 -10.5s29.334 -16.333 41.001 -28s21 -25.334 28 -41.001s10.5 -32.167 10.5 -49.5c0 -18 -3.5 -35 -10.5 -51s-16.333 -30.167 -28 -42.5
s-25.334 -22 -41.001 -29s-32.167 -10.5 -49.5 -10.5c-18 0 -35 3.5 -51 10.5s-29.833 16.667 -41.5 29s-21 26.5 -28 42.5s-10.5 33 -10.5 51zM93 -2881c0 17.333 3.5 33.833 10.5 49.5s16.333 29.334 28 41c11.667 11.667 25.5 21 41.5 28s33 10.5 51 10.5
c17.333 0 33.833 -3.5 49.5 -10.5s29.334 -16.333 41.001 -28s21 -25.334 28 -41c7 -15.667 10.5 -32.167 10.5 -49.5c0 -18 -3.5 -35 -10.5 -51s-16.333 -30.167 -28 -42.5s-25.334 -22 -41.001 -29s-32.167 -10.5 -49.5 -10.5c-18 0 -35 3.5 -51 10.5
s-29.833 16.667 -41.5 29s-21 26.5 -28 42.5s-10.5 33 -10.5 51z" />
    <glyph glyph-name="semicolon" unicode=";" horiz-adv-x="555" 
d="M242 -2095c0 17.333 3.5 33.833 10.5 49.5s16.333 29.334 28 41.001s25.5 21 41.5 28s33 10.5 51 10.5c17.333 0 33.833 -3.5 49.5 -10.5s29.334 -16.333 41.001 -28s21 -25.334 28 -41.001s10.5 -32.167 10.5 -49.5c0 -18 -3.5 -35 -10.5 -51s-16.333 -30.167 -28 -42.5
s-25.334 -22 -41.001 -29s-32.167 -10.5 -49.5 -10.5c-18 0 -35 3.5 -51 10.5s-29.833 16.667 -41.5 29s-21 26.5 -28 42.5s-10.5 33 -10.5 51zM104 283l219 -86l-256 -537l-171 67z" />
    <glyph glyph-name="less" unicode="&#x3c;" horiz-adv-x="1067" 
d="M26 653l850 295l-45 -186l-611 -192l521 -203l-37 -164l-711 305z" />
    <glyph glyph-name="equal" unicode="=" horiz-adv-x="1053" 
d="M169 508h750l-39 -172h-750zM253 877h750l-39 -172h-750z" />
    <glyph glyph-name="greater" unicode="&#x3e;" horiz-adv-x="1067" 
d="M782 498l-850 -295l45 186l611 192l-521 203l37 164l711 -305z" />
    <glyph glyph-name="question" unicode="?" horiz-adv-x="1128" 
d="M299 414c9.33301 46 18.832 86.8301 28.499 122.497s20.5 67.5 32.5 95.5s25.333 53 40 75s31.834 42.833 51.501 62.5s42.167 38.834 67.5 57.501s54.333 38.667 87 60l123.5 80c35.667 23.333 65.334 46.5 89.001 69.5s41.5 47.667 53.5 74s18 57.5 18 93.5
c0 24 -4.66699 46.5 -14 67.5s-22.833 39.5 -40.5 55.5s-39 28.5 -64 37.5s-53.5 13.5 -85.5 13.5c-37.333 0 -72.5 -6 -105.5 -18s-63.333 -31.667 -91 -59s-48.667 -56.666 -63 -87.999s-21.5 -56.666 -21.5 -75.999l-207 18c15.333 62.667 38.666 119.5 69.999 170.5
s69 94.5 113 130.5s93.833 63.833 149.5 83.5s115.5 29.5 179.5 29.5c63.333 0 119.333 -9.83301 168 -29.5s89.5 -45.5 122.5 -77.5s58 -68.333 75 -109s25.5 -82 25.5 -124c0 -48 -6.33301 -91.333 -19 -130s-31 -74.5 -55 -107.5s-53.833 -64 -89.5 -93
s-76.5 -57.5 -122.5 -85.5l-87 -51c-25.333 -14.667 -48.166 -29.5 -68.499 -44.5s-38.166 -30.833 -53.499 -47.5s-29.333 -36.667 -42 -60s-24.334 -50.833 -35.001 -82.5s-21.334 -69.5 -32.001 -113.5h-198zM367.999 255.997c18 0 35 -3.5 51 -10.5
s29.833 -16.333 41.5 -28s21 -25.5 28 -41.5s10.5 -33 10.5 -51s-3.5 -35.167 -10.5 -51.5s-16.333 -30.666 -28 -42.999s-25.5 -22.166 -41.5 -29.499s-33 -11 -51 -11c-18.667 0 -36 3.66699 -52 11s-30 17.166 -42 29.499s-21.5 26.666 -28.5 42.999
s-10.5 33.5 -10.5 51.5s3.5 35 10.5 51s16.5 29.833 28.5 41.5s26 21 42 28s33.333 10.5 52 10.5z" />
    <glyph glyph-name="at" unicode="@" horiz-adv-x="2351" 
d="M1681 956l-154.001 -663.003c-6.66699 -34 -7.16699 -61 -1.5 -81s15.167 -35.333 28.5 -46s31 -16 53 -16c56 0 106.5 15.167 151.5 45.5s83.5 70.166 115.5 119.499s56.667 105.333 74 168s26 126.334 26 191.001c0 92 -15.667 176.667 -47 254
s-75.833 144.166 -133.5 200.499s-127 100.166 -208 131.499s-170.833 47 -269.5 47c-86.667 0 -172 -11.167 -256 -33.5s-163.833 -54.166 -239.5 -95.499s-145.5 -91.166 -209.5 -149.499s-119.333 -123.333 -166 -195s-83.167 -149 -109.5 -232
s-39.5 -170.167 -39.5 -261.5c0 -92.667 15.333 -179.334 46 -260.001s74.167 -150.667 130.5 -210s124.333 -106.166 204 -140.499s168.167 -51.5 265.5 -51.5c76.667 0 153 10.167 229 30.5s149 49.166 219 86.499l57 -157c-85.333 -46 -171 -81.5 -257 -106.5
s-176.333 -37.5 -271 -37.5c-79.333 0 -154.666 10 -225.999 30s-137.333 48.333 -198 85s-115.5 80.5 -164.5 131.5s-90.667 107.333 -125 169s-60.833 127.834 -79.5 198.501s-28 144 -28 220c0 111.333 15.667 217.5 47 318.5s74.833 194.5 130.5 280.5
s122 163.833 199 233.5s161 129 252 178s187.333 86.667 289 113s205.5 39.5 311.5 39.5c85.333 0 165.5 -9.66699 240.5 -29s143.833 -46.5 206.5 -81.5s118.5 -77.167 167.5 -126.5s90.5 -103.666 124.5 -162.999s59.833 -122.833 77.5 -190.5
s26.5 -137.834 26.5 -210.501c0 -60 -6.33301 -119.167 -19 -177.5s-30.834 -113.666 -54.501 -165.999s-52.667 -100.666 -87 -144.999s-73.166 -82.666 -116.499 -114.999s-90.833 -57.5 -142.5 -75.5s-106.834 -27 -165.501 -27c-64.667 0 -115.667 12.333 -153 37
s-63.666 57.667 -78.999 99c-48 -35.333 -100.333 -62.833 -157 -82.5s-115.667 -29.5 -177 -29.5c-59.333 0 -113.333 10.833 -162 32.5s-90.167 50.834 -124.5 87.501s-61 79.167 -80 127.5s-28.5 99.166 -28.5 152.499c0 51.333 7.5 100.5 22.5 147.5s36 90.5 63 130.5
s59 76.333 96 109s77.5 60.5 121.5 83.5s90.5 40.667 139.5 53s98.833 18.5 149.5 18.5c51.333 0 99 -7.33301 143 -22s83 -35.667 117 -63l21 91h184zM1056 192.997c31.333 0 61.499 4.00195 90.499 12.002s56.167 19 81.5 33s48.833 30.667 70.5 50
s40.834 40.666 57.501 63.999l64 272c-14 44 -41.333 79.333 -82 106s-91 40 -151 40c-48 0 -94.167 -9.66699 -138.5 -29s-83.5 -45 -117.5 -77s-61.167 -68.833 -81.5 -110.5s-30.5 -84.834 -30.5 -129.501c0 -32 5.33301 -62.167 16 -90.5s26 -52.833 46 -73.5
s44.667 -37 74 -49s63 -18 101 -18z" />
    <glyph glyph-name="A" unicode="A" horiz-adv-x="1458" 
d="M919 172h127l-37 342h-574l-191 -342h136l-38 -172h-492l39 172h131l760 1344h323l158 -1344h150l-39 -172h-492zM531 686h459l-75 688z" />
    <glyph glyph-name="B" unicode="B" horiz-adv-x="1500" 
d="M114 172l134.001 -0.000976562l270 1171h-148l41 173h678c56.667 0 107.167 -9 151.5 -27s81.666 -43.167 111.999 -75.5s53.333 -70.833 69 -115.5s23.5 -93.667 23.5 -147c0 -95.333 -24 -177 -72 -245s-116 -119 -204 -153c44 -32 77.833 -72.667 101.5 -122
s35.5 -104.666 35.5 -165.999c0 -70 -14.167 -133.667 -42.5 -191s-67 -106.333 -116 -147s-106.5 -72 -172.5 -94s-136.667 -33 -212 -33h-688zM572.001 673.999l-115 -502.003h335c44.667 0 85.334 7.16699 122.001 21.5s68 33.833 94 58.5s46 53.834 60 87.501
s21 70.167 21 109.5c0 34 -4.33301 64.833 -13 92.5s-20.834 51.334 -36.501 71.001s-34.667 34.834 -57 45.501s-46.833 16 -73.5 16h-337zM725.001 1343l-113.001 -495h330c40 0 77.333 6.5 112 19.5s64.834 31.5 90.501 55.5s46 52.667 61 86s22.5 70.333 22.5 111
c0 31.333 -3.66699 60.5 -11 87.5s-18.5 50.5 -33.5 70.5s-33.833 35.833 -56.5 47.5s-49 17.5 -79 17.5h-323z" />
    <glyph glyph-name="C" unicode="C" horiz-adv-x="1468" 
d="M1394 322c-38.667 -54.667 -81.6641 -103.498 -128.997 -146.498s-99.333 -79.333 -156 -109s-118 -52.334 -184 -68.001s-137 -23.5 -213 -23.5c-91.333 0 -175.833 17.167 -253.5 51.5s-144.834 81.833 -201.501 142.5s-101.167 132.5 -133.5 215.5
s-48.5 173.167 -48.5 270.5c0 83.333 9.83301 163.333 29.5 240s47.5 147.834 83.5 213.501s79.667 125.334 131 179.001s108.833 99.5 172.5 137.5s132.667 67.333 207 88s152.5 31 234.5 31c113.333 0 214.166 -22.833 302.499 -68.5s160.833 -108.834 217.5 -189.501h156
l-41 -172h-276c-14.667 34 -34.167 65.333 -58.5 94s-52.666 53.167 -84.999 73.5s-68.5 36.166 -108.5 47.499s-83 17 -129 17c-88 0 -169.333 -17.833 -244 -53.5s-139.334 -84.167 -194.001 -145.5s-97.334 -132.833 -128.001 -214.5s-46 -168.5 -46 -260.5
c0 -76.667 12 -145.834 36 -207.501s56 -114 96 -157s86.333 -76 139 -99s107.667 -34.5 165 -34.5c100.667 0 189.167 20.833 265.5 62.5s143.5 104.167 201.5 187.5z" />
    <glyph glyph-name="D" unicode="D" horiz-adv-x="1561" 
d="M425 1516h549c88.667 0 168.834 -16.833 240.501 -50.5s132.667 -79.667 183 -138s89 -126.5 116 -204.5s40.5 -161 40.5 -249c0 -87.333 -10.5 -169.5 -31.5 -246.5s-50.667 -148 -89 -213s-84.833 -123 -139.5 -174s-115.334 -94.333 -182.001 -130
s-138.667 -63 -216 -82s-158.333 -28.5 -243 -28.5h-578l39 172h132l270 1171h-131zM723 1343l-267.997 -1171h220c55.333 0 110 7.33301 164 22s105.5 36 154.5 64s94.333 62 136 102s77.667 85.333 108 136s54.166 106.334 71.499 167.001s26 125.667 26 195
c0 64.667 -9.16699 126.167 -27.5 184.5s-44.333 109.833 -78 154.5s-74.334 80.167 -122.001 106.5s-100.834 39.5 -159.501 39.5h-225z" />
    <glyph glyph-name="E" unicode="E" horiz-adv-x="1415" 
d="M411 1516h1100l-100 -433h-207l61 260h-540l-111 -485h446l-43 -172h-442l-118 -514h534l61 262h209l-100 -434h-1086l39 172h134l270 1171h-148z" />
    <glyph glyph-name="F" unicode="F" horiz-adv-x="1331" 
d="M407 1516h1102l-98 -429h-197l57 256h-550l-111 -487h522l-39 -172h-523l-117 -512h153l-39 -172h-492l39 172h130l270 1171h-148z" />
    <glyph glyph-name="G" unicode="G" horiz-adv-x="1616" 
d="M1155 0l49.9912 222.001c-61.333 -84 -134.166 -146.167 -218.499 -186.5s-175.833 -60.5 -274.5 -60.5c-91.333 0 -176 17.5 -254 52.5s-145.333 83.167 -202 144.5s-101 133.333 -133 216s-48 171.667 -48 267c0 82.667 9.66699 162 29 238s47 147 83 213
s79.5 125.833 130.5 179.5s108.333 99.667 172 138s132.834 68 207.501 89s153.334 31.5 236.001 31.5c63.333 0 122 -7.33301 176 -22s103 -34 147 -58s82.5 -51.5 115.5 -82.5s60.167 -62.833 81.5 -95.5h156l-41 -172h-276c-14.667 34 -34.167 65.333 -58.5 94
s-52.666 53.167 -84.999 73.5s-68.5 36.166 -108.5 47.499s-83 17 -129 17c-60 0 -116.667 -8 -170 -24s-102.666 -38.833 -147.999 -68.5s-86.166 -65 -122.499 -106s-67.166 -86.5 -92.499 -136.5s-44.833 -103.667 -58.5 -161s-20.5 -116.666 -20.5 -177.999
c0 -72.667 11.5 -139.5 34.5 -200.5s54.167 -113.5 93.5 -157.5s85.5 -78.333 138.5 -103s109.5 -37 169.5 -37c60.667 0 117.834 8.5 171.501 25.5s102.667 41.667 147 74s83.833 71.666 118.5 117.999s63.334 98.833 86.001 157.5h-423l41 176h643l-164 -725h-200z" />
    <glyph glyph-name="H" unicode="H" horiz-adv-x="1933" 
d="M1476 1516h492l-41 -173h-137l-268 -1171h149l-39 -172h-492l39 172h134l126 545h-857l-125 -545h149l-39 -172h-492l39 172h134l270 1171h-148l41 173h492l-41 -173h-137l-105 -458h858l105 458h-148z" />
    <glyph glyph-name="I" unicode="I" horiz-adv-x="883" 
d="M425 1516h492l-41 -173h-141l-268 -1171h139l-39 -172h-492l39 172h144l270 1171h-143z" />
    <glyph glyph-name="J" unicode="J" horiz-adv-x="762" 
d="M390 1516h490.999l-41 -173h-141l-271 -1171c-9.33301 -28 -29.666 -62.5 -60.999 -103.5s-70.333 -88.333 -117 -142s-99 -108.5 -157 -164.5l-168 15c53.333 60 100 116.167 140 168.5s76.5 102.333 109.5 150s53.5 84.167 61.5 109.5l263 1138h-150z" />
    <glyph glyph-name="K" unicode="K" horiz-adv-x="1642" 
d="M1390 1343l41 173h389l-41 -173h-94l-837 -589l468 -582h158l-39 -172h-407l39 172l-469 602zM411 1516h492l-41 -173h-137l-268 -1171h149l-39 -172h-492l39 172h134l270 1171h-148z" />
    <glyph glyph-name="L" unicode="L" horiz-adv-x="1376" 
d="M411 1516h491.999l-41 -173h-137l-268 -1171h505c28.667 0 50.834 7.66699 66.501 23s26.167 34.333 31.5 57l47 197h201l-104 -449h-1129l39 172h134l270 1171h-148z" />
    <glyph glyph-name="M" unicode="M" horiz-adv-x="2290" 
d="M114 172h136l270 1171h-150l41 173h459l197 -1301l784 1301h473l-41 -173h-137l-270 -1171h159l-39 -172h-491l39 172h132l266 1154l-800 -1326h-231l-202 1323l-266 -1151h163l-39 -172h-492z" />
    <glyph glyph-name="N" unicode="N" horiz-adv-x="1786" 
d="M1370 1516h491l-39 -173h-136l-308 -1343h-262l-413 1255l-249 -1083h152l-39 -172h-492l39 172h133l271 1171h-150l41 173h416l408 -1246l246 1073h-148z" />
    <glyph glyph-name="O" unicode="O" horiz-adv-x="1577" 
d="M712 -31c-85.333 0 -166.5 16.3311 -243.5 48.998s-144.667 78.834 -203 138.501s-104.666 131.667 -138.999 216s-51.5 178.5 -51.5 282.5c0 87.333 10.333 169.833 31 247.5s49.667 149.5 87 215.5s82.166 125.333 134.499 178s110.333 97.334 174 134.001
s131.834 64.834 204.501 84.501s148.334 29.5 227.001 29.5c85.333 0 166.5 -14.833 243.5 -44.5s144.667 -72.834 203 -129.501s104.666 -126.167 138.999 -208.5s51.5 -175.833 51.5 -280.5c0 -89.333 -10 -174 -30 -254s-48.167 -153.667 -84.5 -221
s-80.333 -128 -132 -182s-109.334 -99.833 -173.001 -137.5s-132.5 -66.667 -206.5 -87s-151.333 -30.5 -232 -30.5zM735 171.998c57.333 0 112.333 8.00098 165 24.001s101.667 38.833 147 68.5s86.5 65.334 123.5 107.001s68.5 88.167 94.5 139.5
s46.167 106.666 60.5 165.999s21.5 121.666 21.5 186.999c0 72.667 -10.833 138.334 -32.5 197.001s-51.834 108.834 -90.501 150.501s-84.667 73.667 -138 96s-111.666 33.5 -174.999 33.5c-82.667 0 -161 -16.667 -235 -50s-139 -79.833 -195 -139.5
s-100.333 -130.334 -133 -212.001s-49 -170.834 -49 -267.501c0 -71.333 10.833 -137.5 32.5 -198.5s51.834 -113.833 90.501 -158.5s84.667 -79.667 138 -105s111.666 -38 174.999 -38z" />
    <glyph glyph-name="P" unicode="P" horiz-adv-x="1313" 
d="M409 1516l607.999 0.00195312c58 0 111 -10 159 -30s89.333 -47.167 124 -81.5s61.5 -74.5 80.5 -120.5s28.5 -95 28.5 -147c0 -68.667 -13 -132.334 -39 -191.001s-64.167 -109.334 -114.5 -152.001s-112.666 -76.167 -186.999 -100.5s-159.5 -36.5 -255.5 -36.5h-247
l-111 -485h151l-39 -172h-492l39 172h132l270 1171h-148zM722.999 1343l-117.001 -513.998h229c54 0 103.333 6.5 148 19.5s83 32 115 57s56.667 55.833 74 92.5s26 78.667 26 126c0 28 -4.66699 55.167 -14 81.5s-23.666 49.666 -42.999 69.999s-44 36.666 -74 48.999
s-65.667 18.5 -107 18.5h-237z" />
    <glyph glyph-name="Q" unicode="Q" horiz-adv-x="1559" 
d="M601 -21c-73.333 12.667 -141.832 37.666 -205.499 74.999s-119.334 85.166 -167.001 143.499s-85.167 126 -112.5 203s-41 161.833 -41 254.5c0 87.333 10.333 169.833 31 247.5s49.667 149.5 87 215.5s82.166 125.333 134.499 178s110.333 97.334 174 134.001
s131.834 64.834 204.501 84.501s148.334 29.5 227.001 29.5c85.333 0 166.5 -14.833 243.5 -44.5s144.667 -72.834 203 -129.501s104.666 -126.167 138.999 -208.5s51.5 -175.833 51.5 -280.5c0 -85.333 -9 -166 -27 -242s-43.667 -146.833 -77 -212.5
s-73.5 -125.167 -120.5 -178.5s-99.667 -99.5 -158 -138.5s-121.5 -70.167 -189.5 -93.5s-139.333 -38 -214 -44c28 -8.66699 53.167 -19.834 75.5 -33.501l66.5 -39.5c22 -12.667 45.333 -23.5 70 -32.5s53.667 -13.5 87 -13.5c38 0 74.167 9.5 108.5 28.5
s60.833 48.167 79.5 87.5l135 -69c-16.667 -37.333 -39 -70.166 -67 -98.499s-58.833 -52 -92.5 -71s-68.167 -33.167 -103.5 -42.5s-69 -14 -101 -14c-33.333 0 -63.5 3.83301 -90.5 11.5s-52.333 17.167 -76 28.5s-46.167 23.333 -67.5 36s-42.5 23.834 -63.5 33.501
s-42.333 17 -64 22s-45.167 5.5 -70.5 1.5c-20.667 -2 -37.667 -5.33301 -51 -10zM735.001 171.999c57.333 0 112.333 8.00098 165 24.001s101.667 38.833 147 68.5s86.5 65.334 123.5 107.001s68.5 88.167 94.5 139.5s46.167 106.666 60.5 165.999
s21.5 121.666 21.5 186.999c0 72.667 -10.833 138.334 -32.5 197.001s-51.834 108.834 -90.501 150.501s-84.667 73.667 -138 96s-111.666 33.5 -174.999 33.5c-82.667 0 -161 -16.667 -235 -50s-139 -79.833 -195 -139.5s-100.333 -130.334 -133 -212.001
s-49 -170.834 -49 -267.501c0 -71.333 10.833 -137.5 32.5 -198.5s51.834 -113.833 90.501 -158.5s84.667 -79.667 138 -105s111.666 -38 174.999 -38z" />
    <glyph glyph-name="R" unicode="R" horiz-adv-x="1438" 
d="M409 1516l617 0.000976562c58 0 110.667 -8.66699 158 -26s87.833 -41.666 121.5 -72.999s59.667 -68.833 78 -112.5s27.5 -91.5 27.5 -143.5c0 -54 -9.16699 -103.833 -27.5 -149.5s-43 -86.334 -74 -122.001s-67 -66.334 -108 -92.001s-84.167 -45.834 -129.5 -60.501
c26 -18.667 48 -46.667 66 -84s27.667 -81.666 29 -132.999l6 -348h129l-39 -172h-293l-6 461c-1.33301 83.333 -20.333 144.333 -57 183s-92 58 -166 58h-163l-121 -530h149l-39 -172h-492l39 172h134l270 1171h-150zM725 1343l-108.001 -472.997h237
c50 0 96.167 5.66699 138.5 17s78.833 28.666 109.5 51.999s54.667 52.666 72 87.999s26 76.666 26 123.999c0 28 -4.66699 53.833 -14 77.5s-23.833 44 -43.5 61s-44.667 30.167 -75 39.5s-66.166 14 -107.499 14h-235z" />
    <glyph glyph-name="S" unicode="S" horiz-adv-x="1278" 
d="M1080 1137c8 35.333 6.50684 66.667 -4.49316 94s-28.5 50.5 -52.5 69.5s-53 33.333 -87 43s-70 14.5 -108 14.5c-55.333 0 -104.833 -7.33301 -148.5 -22s-80.5 -34.667 -110.5 -60s-53 -54.833 -69 -88.5s-24 -69.167 -24 -106.5c0 -33.333 6.33301 -60.333 19 -81
s28.667 -37.667 48 -51s40.833 -24 64.5 -32l68.5 -24l187 -68c48 -16 90 -35 126 -57s66 -47.5 90 -76.5s42 -62 54 -99s18 -78.833 18 -125.5c0 -74 -14.333 -141.667 -43 -203s-68.834 -113.833 -120.501 -157.5s-113.834 -77.5 -186.501 -101.5s-153 -36 -241 -36
c-79.333 0 -146.5 8.5 -201.5 25.5s-100.167 40 -135.5 69s-61.833 62.167 -79.5 99.5s-28.834 76.666 -33.501 117.999h-95l39 159h272l-18 -74c-9.33301 -72 11.667 -125.667 63 -161s125.666 -53 222.999 -53c50 0 96 7 138 21s78.167 33.5 108.5 58.5
s54.166 55 71.499 90s26 73.167 26 114.5c0 32 -5.66699 59.667 -17 83s-26.833 43.5 -46.5 60.5s-42.667 31.667 -69 44s-54.5 23.5 -84.5 33.5l-174 56c-90.667 28.667 -159.334 71.334 -206.001 128.001s-70 129.334 -70 218.001c0 68 13 131.167 39 189.5
s63.833 109 113.5 152s110 76.667 181 101s151.5 36.5 241.5 36.5c56.667 0 108.667 -6.33301 156 -19s89.166 -30.334 125.499 -53.001s67 -50 92 -82s43.167 -67.333 54.5 -106h101l-39 -160h-260z" />
    <glyph glyph-name="T" unicode="T" horiz-adv-x="1362" 
d="M348 172h140l272 1180h-367l-53 -236h-205l92 400h1352l-93 -400h-204l53 236h-368l-270 -1180h142l-39 -172h-491z" />
    <glyph glyph-name="U" unicode="U" horiz-adv-x="1581" 
d="M282 1516l492.001 -0.00292969l-39 -173h-140l-161 -704c-5.33301 -23.333 -10.166 -48.166 -14.499 -74.499s-6.5 -56.166 -6.5 -89.499c-0.666992 -36.667 5 -72.834 17 -108.501s30.667 -67.667 56 -96s57.666 -51.166 96.999 -68.499s86.333 -26 141 -26
c55.333 0 106.5 7.83301 153.5 23.5s89.5 41.667 127.5 78s71.5 84 100.5 143s53.5 131.833 73.5 218.5l162 704h-152l39 173h492l-39 -173h-133l-166 -722c-26 -114 -60.5 -211.833 -103.5 -293.5s-93.167 -148.667 -150.5 -201s-121.333 -90.666 -192 -114.999
s-147.334 -36.5 -230.001 -36.5c-72.667 0 -140.167 10.833 -202.5 32.5s-116 53 -161 94s-80 91.167 -105 150.5s-36.833 127 -35.5 203c0 30 2 59.833 6 89.5s9.66699 61.167 17 94.5l162 704h-144z" />
    <glyph glyph-name="V" unicode="V" horiz-adv-x="1470" 
d="M1174 1516h492l-39 -173h-133l-746 -1343h-305l-129 1343h-139l39 173h491l-39 -173h-140l99 -1169l645 1169h-135z" />
    <glyph glyph-name="W" unicode="W" horiz-adv-x="2271" 
d="M2016 1516h491l-39 -173h-138l-703 -1343h-285l-53 1171l-586 -1171h-285l-89 1343h-154l39 173h491l-39 -173h-132l69 -1148l659 1321h213l49 -1321l605 1148h-152z" />
    <glyph glyph-name="X" unicode="X" horiz-adv-x="1487" 
d="M1115 1516h491l-41 -173h-104l-551 -579l284 -592h150l-39 -172h-491l38 172h137l-218 446l-424 -446h118l-39 -172h-491l39 172h121l590 621l-268 550h-146l41 173h491l-41 -173h-130l193 -402l382 402h-133z" />
    <glyph glyph-name="Y" unicode="Y" horiz-adv-x="1323" 
d="M214 1516h491l-39 -173h-122l175 -473l411 473h-122l39 173h492l-39 -173h-123l-586 -656l-120 -515h141l-39 -172h-492l39 172h141l120 519l-259 652h-147z" />
    <glyph glyph-name="Z" unicode="Z" horiz-adv-x="1298" 
d="M1390 1298l-1152 -1120h681l57 252h207l-98 -430h-1110l51 231l1135 1108h-660l-59 -258h-207l100 435h1102z" />
    <glyph glyph-name="bracketleft" unicode="[" horiz-adv-x="762" 
d="M466 1720h424l-34 -151h-220l-374 -1630h219l-35 -152h-424z" />
    <glyph glyph-name="backslash" unicode="\" horiz-adv-x="700" 
d="M101 1581h162l334 -1606h-162z" />
    <glyph glyph-name="bracketright" unicode="]" horiz-adv-x="762" 
d="M554 1569h-220l35 151h424l-444 -1933h-424l35 152h219z" />
    <glyph glyph-name="asciicircum" unicode="^" horiz-adv-x="1229" 
d="M781 1516l225 -791h-139l-167 627l-466 -627h-153l589 791h111z" />
    <glyph glyph-name="underscore" unicode="_" horiz-adv-x="1049" 
d="M-93 -154h1024l-24 -102h-1024z" />
    <glyph glyph-name="grave" unicode="`" horiz-adv-x="590" 
d="M387 1178l-287 282v17h248l184 -299h-145z" />
    <glyph glyph-name="a" unicode="a" horiz-adv-x="1307" 
d="M771 70c-44.667 -30 -89.501 -52.168 -134.501 -66.501s-91.5 -21.5 -139.5 -21.5c-56.667 0 -109.667 11 -159 33s-92.166 52 -128.499 90s-65 82.833 -86 134.5s-31.5 107.167 -31.5 166.5c0 96.667 17 185.334 51 266.001s80.167 150 138.5 208s126.333 103 204 135
s160.167 48 247.5 48c50 0 97 -7.5 141 -22.5s80 -34.5 108 -58.5l13 54h201l-200 -864h161l-39 -172h-363zM543.999 153.999c24.667 0 49.834 3.00293 75.501 9.00293s50.167 13.667 73.5 23s45.333 20.166 66 32.499s39 25.166 55 38.499l129 554
c-17.333 22 -44.333 40.833 -81 56.5s-84.667 23.5 -144 23.5c-51.333 0 -102 -10.5 -152 -31.5s-94.667 -51.333 -134 -91s-71.333 -88.334 -96 -146.001s-37 -123.167 -37 -196.5c0 -42.667 6 -80.834 18 -114.501s28.667 -62.167 50 -85.5s47.166 -41.166 77.499 -53.499
s63.5 -18.5 99.5 -18.5z" />
    <glyph glyph-name="b" unicode="b" horiz-adv-x="1272" 
d="M252 1556h391.999l-135 -585c89.333 61.333 182 92 278 92c56.667 0 109.667 -11 159 -33s92.166 -52 128.499 -90s65 -82.833 86 -134.5s31.5 -107.167 31.5 -166.5c0 -64.667 -7.66699 -125.667 -23 -183s-37 -110.333 -65 -159s-61.667 -92.5 -101 -131.5
s-82.666 -72 -129.999 -99s-98.166 -47.833 -152.499 -62.5s-110.833 -22 -169.5 -22c-51.333 0 -99 7.66699 -143 23s-80 35 -108 59l-15 -64h-200l318 1384h-192zM739.999 891c-47.333 0 -94.834 -9.5 -142.501 -28.5s-91.5 -45.167 -131.5 -78.5l-127 -549
c17.333 -22 44.5 -41 81.5 -57s85.5 -24 145.5 -24c51.333 0 102 10.5 152 31.5s94.833 51.333 134.5 91s71.834 88.167 96.501 145.5s37 122.666 37 195.999c0 42.667 -6 80.834 -18 114.501s-28.833 62.167 -50.5 85.5s-47.667 41.333 -78 54s-63.5 19 -99.5 19z" />
    <glyph glyph-name="c" unicode="c" horiz-adv-x="1135" 
d="M921 731c-10.667 26.667 -24.8301 49.998 -42.4971 69.998s-37.834 36.667 -60.501 50s-47.334 23.333 -74.001 30s-54.334 10 -83.001 10c-36.667 0 -75.834 -9.5 -117.501 -28.5s-80.334 -46.833 -116.001 -83.5s-65.167 -81.667 -88.5 -135s-35 -114.333 -35 -183
c0 -50 7.33301 -94.167 22 -132.5s34.334 -70.5 59.001 -96.5s53.334 -45.5 86.001 -58.5s67.334 -19.5 104.001 -19.5c26.667 0 51.667 2.16699 75 6.5s45.5 11.666 66.5 21.999s41.5 23.833 61.5 40.5s39.667 37.334 59 62.001l145 -109
c-26 -36.667 -55.333 -67.834 -88 -93.501s-67 -46.5 -103 -62.5s-73.167 -27.5 -111.5 -34.5s-76.166 -10.5 -113.499 -10.5c-68 0 -130.833 12.167 -188.5 36.5s-107.334 57.833 -149.001 100.5s-74.334 92.834 -98.001 150.501s-35.5 119.834 -35.5 186.501
c0 90.667 17 173.834 51 249.501s78.667 140.834 134 195.501s117.833 97.167 187.5 127.5s140.167 45.5 211.5 45.5c33.333 0 66.666 -3.16699 99.999 -9.5s65.333 -16.333 96 -30s59.334 -30.834 86.001 -51.501s50.667 -45 72 -73h125l-28 -172h-209v0z" />
    <glyph glyph-name="d" unicode="d" horiz-adv-x="1285" 
d="M923 1556l373.998 0.00195312l-319 -1384h172l-39 -172h-373l15 67c-38 -26 -77.833 -47 -119.5 -63s-86.5 -24 -134.5 -24c-59.333 0 -114.666 11.333 -165.999 34s-96.166 54 -134.499 94s-68.5 87.167 -90.5 141.5s-33 113.166 -33 176.499c0 92 16.333 177 49 255
s77.167 145.667 133.5 203s122 102.166 197 134.499s155.167 48.5 240.5 48.5c53.333 0 103 -7.66699 149 -23s86 -36.333 120 -63l93 403h-175zM545.998 154.002c42 0 85.5 9.33301 130.5 28s85.833 46 122.5 82l124 537c-24.667 28.667 -56.667 50.834 -96 66.501
s-87.333 23.5 -144 23.5c-50 0 -99.167 -10.5 -147.5 -31.5s-91.166 -50.833 -128.499 -89.5s-67.5 -85.667 -90.5 -141s-34.5 -117 -34.5 -185c0 -44.667 6.5 -84.834 19.5 -120.501s31.167 -66 54.5 -91s51.166 -44.333 83.499 -58s67.833 -20.5 106.5 -20.5z" />
    <glyph glyph-name="e" unicode="e" horiz-adv-x="1171" 
d="M318 483c-0.666992 -9.33301 -1.3291 -17.333 -1.99609 -24s-1 -13 -1 -19c0 -42 6.83301 -81 20.5 -117s32.667 -67.167 57 -93.5s53.333 -47 87 -62s70.5 -22.5 110.5 -22.5c53.333 0 104.166 10.833 152.499 32.5s88.833 53.167 121.5 94.5l148 -108
c-22.667 -30 -49.667 -57 -81 -81s-66 -44.5 -104 -61.5s-78.5 -30 -121.5 -39s-86.833 -13.5 -131.5 -13.5c-64 0 -123.833 10.667 -179.5 32s-104.334 52.333 -146.001 93s-74.334 90.5 -98.001 149.5s-35.5 125.833 -35.5 200.5c0 86 15.167 166.833 45.5 242.5
s72.333 141.667 126 198s117.167 100.833 190.5 133.5s152.666 49 237.999 49c66 0 124.833 -11.167 176.5 -33.5s95.5 -51.833 131.5 -88.5s63.333 -79 82 -127s28 -97.333 28 -148c0 -34 -1.83301 -66.833 -5.5 -98.5s-8.16699 -61.167 -13.5 -88.5h-796zM688.005 897
c-40 0 -77.501 -6.33105 -112.501 -18.998s-66.833 -30.334 -95.5 -53.001s-54 -49.334 -76 -80.001s-40 -64 -54 -100h590c0.666992 41.333 -4.83301 77.833 -16.5 109.5s-28.667 58 -51 79s-49.166 36.833 -80.499 47.5s-66 16 -104 16z" />
    <glyph glyph-name="f" unicode="f" horiz-adv-x="811" 
d="M168 1036h211.997l42 183c14.667 64 35.334 118.667 62.001 164s58.167 82.333 94.5 111s77.166 49.667 122.499 63s94.333 20 147 20c32 0 61.5 -2 88.5 -6s51.5 -9 73.5 -15s41.667 -12.5 59 -19.5s32 -13.833 44 -20.5l-103 -154
c-17.333 11.333 -41.166 21.333 -71.499 30s-63.166 13 -98.499 13c-53.333 0 -98.666 -14.833 -135.999 -44.5s-64.333 -80.5 -81 -152.5l-40 -172h282l-41 -172h-280l-306 -1335h-203l305 1335h-213z" />
    <glyph glyph-name="g" unicode="g" horiz-adv-x="1249" 
d="M783 64c-42 -29.333 -85.167 -50.3359 -129.5 -63.0029s-92.166 -19 -143.499 -19c-56.667 0 -109.667 11 -159 33s-92.166 52 -128.499 90s-65 82.833 -86 134.5s-31.5 107.167 -31.5 166.5c0 96.667 17 185.334 51 266.001s80.167 150 138.5 208s126.333 103 204 135
s160.167 48 247.5 48c50 0 97 -7.5 141 -22.5s80 -34.5 108 -58.5l13 54h203l-238 -1024c-20 -86.667 -46.667 -160.5 -80 -221.5s-74 -110.833 -122 -149.5s-103.833 -67 -167.5 -85s-135.834 -27 -216.501 -27c-36.667 0 -74.667 3 -114 9s-77.833 15.167 -115.5 27.5
s-73.167 27.833 -106.5 46.5s-62.666 40.667 -87.999 66l129 146c16 -17.333 35.333 -33.166 58 -47.499s47.667 -26.833 75 -37.5s56.166 -19 86.499 -25s61.166 -9 92.499 -9c48 0 91.667 5.16699 131 15.5s74.5 28.333 105.5 54s58 60.334 81 104.001
s43.5 105.5 61.5 185.5zM557 153.997c52 0 100.668 9.33398 146.001 28.001s87 44 125 76l128 552c-17.333 22 -44.333 41 -81 57s-84.667 24 -144 24c-51.333 0 -102 -10.5 -152 -31.5s-94.667 -51.333 -134 -91s-71.333 -88.334 -96 -146.001s-37 -123.167 -37 -196.5
c0 -42.667 6 -80.834 18 -114.501s28.667 -62.167 50 -85.5s47.166 -41.166 77.499 -53.499s63.5 -18.5 99.5 -18.5z" />
    <glyph glyph-name="h" unicode="h" horiz-adv-x="1307" 
d="M936 641c18.667 78.667 12.5 138.002 -18.5 178.002s-82.833 60 -155.5 60c-44.667 0 -91 -9.66699 -139 -29s-94 -45 -138 -77l-178 -773h-202l318 1384h-200l41 172h402l-145 -626c48.667 38 100.667 68.333 156 91s112.333 34 171 34c53.333 0 101.5 -8 144.5 -24
s78 -40.333 105 -73s45 -73.334 54 -122.001s6.16699 -105.334 -8.5 -170.001l-114 -494h147l-39 -172h-350z" />
    <glyph glyph-name="i" unicode="i" horiz-adv-x="725" 
d="M200 1036h387l-200 -864h166l-39 -172h-369l200 864h-186zM391 1401c0 18 3.5 35 10.5 51s16.5 29.833 28.5 41.5s26 21 42 28s33.333 10.5 52 10.5c18 0 35 -3.5 51 -10.5s29.833 -16.333 41.5 -28s21 -25.5 28 -41.5s10.5 -33 10.5 -51s-3.5 -35.167 -10.5 -51.5
s-16.333 -30.666 -28 -42.999s-25.5 -22.166 -41.5 -29.499s-33 -11 -51 -11c-18.667 0 -36 3.66699 -52 11s-30 17.166 -42 29.499s-21.5 26.666 -28.5 42.999s-10.5 33.5 -10.5 51.5z" />
    <glyph glyph-name="j" unicode="j" horiz-adv-x="668" 
d="M185 1036h405.001l-258 -1112c-14 -60.667 -34.333 -115.167 -61 -163.5s-59 -89.333 -97 -123s-80.833 -59.834 -128.5 -78.501s-99.5 -28.667 -155.5 -30l16 145c60 8.66699 108.667 36.334 146 83.001s64.666 108.667 81.999 186l214 921h-204zM396.001 1401
c0 18 3.5 35 10.5 51s16.5 29.833 28.5 41.5s26 21 42 28s33.333 10.5 52 10.5c18 0 35 -3.5 51 -10.5s29.833 -16.333 41.5 -28s21 -25.5 28 -41.5s10.5 -33 10.5 -51s-3.5 -35.167 -10.5 -51.5s-16.333 -30.666 -28 -42.999s-25.5 -22.166 -41.5 -29.499s-33 -11 -51 -11
c-18.667 0 -36 3.66699 -52 11s-30 17.166 -42 29.499s-21.5 26.666 -28.5 42.999s-10.5 33.5 -10.5 51.5z" />
    <glyph glyph-name="k" unicode="k" 
d="M279 1556h387l-223 -964h112l340 288l37 156h336l-41 -172h-107l-389 -329l250 -365h125l-39 -170h-219l-311 469h-122l-108 -469h-202l318 1384h-185z" />
    <glyph glyph-name="l" unicode="l" horiz-adv-x="653" 
d="M264 1556h402l-320 -1384h172l-39 -172h-374l318 1384h-200z" />
    <glyph glyph-name="m" unicode="m" horiz-adv-x="2100" 
d="M192 1036l387.002 0.000976562l-25 -106c47.333 39.333 99.166 70 155.499 92s115.833 33 178.5 33c70.667 0 131.667 -14.333 183 -43s87.666 -72 108.999 -130c24.667 25.333 51.667 48.5 81 69.5s60.5 39.167 93.5 54.5s67.667 27.333 104 36s73.5 13 111.5 13
c53.333 0 101.5 -8 144.5 -24s78.167 -40.333 105.5 -73s45.333 -73.334 54 -122.001s5.66699 -105.334 -9 -170.001l-114 -494h149l-39 -172h-352l149 641c18.667 78.667 12.667 138 -18 178s-82.667 60 -156 60c-52 0 -101.333 -11.167 -148 -33.5
s-91 -53.166 -133 -92.499l-173 -753h-203l149 641c18.667 78.667 12.667 138 -18 178s-82.667 60 -156 60c-52 0 -101.333 -11.167 -148 -33.5s-91 -53.5 -133 -93.5l-173 -752h-203l200 864h-194z" />
    <glyph glyph-name="n" unicode="n" horiz-adv-x="1368" 
d="M188 1036l391.001 0.00195312l-25 -106c47.333 39.333 99.166 70 155.499 92s115.833 33 178.5 33c53.333 0 101.5 -8 144.5 -24s78.167 -40.333 105.5 -73s45.333 -73.334 54 -122.001s5.66699 -105.334 -9 -170.001l-114 -494h147l-39 -172h-350l149 641
c18.667 78.667 12.667 138 -18 178s-82.667 60 -156 60c-52 0 -101.333 -11.167 -148 -33.5s-91 -53.5 -133 -93.5l-173 -752h-203l200 864h-198z" />
    <glyph glyph-name="o" unicode="o" 
d="M75 449c0 57.333 7.16602 112.33 21.499 164.997s34.666 102 60.999 148s58 87.667 95 125s77.833 69.333 122.5 96s92.5 47.334 143.5 62.001s103.833 22 158.5 22c68.667 0 132.334 -12.167 191.001 -36.5s109.334 -57.666 152.001 -99.999s76.167 -92 100.5 -149
s36.5 -118.167 36.5 -183.5c0 -58 -7.33301 -113.667 -22 -167s-35.167 -103 -61.5 -149s-57.833 -88 -94.5 -126s-77.5 -70.333 -122.5 -97s-93.167 -47.334 -144.5 -62.001s-104.666 -22 -159.999 -22c-69.333 0 -133 12.167 -191 36.5s-108.333 57.833 -151 100.5
s-75.834 92.834 -99.501 150.501s-35.5 119.834 -35.5 186.501zM283.999 462.997c0 -46.667 6.8291 -89.165 20.4961 -127.498s32.834 -71 57.501 -98s54.334 -48 89.001 -63s72.667 -22.5 114 -22.5c48.667 0 96.167 10.667 142.5 32s87.166 51 122.499 89
s63.833 83.667 85.5 137s32.5 112 32.5 176c0 46.667 -7.16699 88.667 -21.5 126s-34.166 69.333 -59.499 96s-55.166 47.167 -89.499 61.5s-71.833 21.5 -112.5 21.5c-49.333 0 -96.833 -10.5 -142.5 -31.5s-86.167 -50.333 -121.5 -88s-63.666 -82.834 -84.999 -135.501
s-32 -110.334 -32 -173.001z" />
    <glyph glyph-name="p" unicode="p" horiz-adv-x="1333" 
d="M189 1036l392.999 0.000976562l-14 -68c46 32 92 55.833 138 71.5s94 23.5 144 23.5c56.667 0 109.834 -11 159.501 -33s92.667 -52 129 -90s65 -82.833 86 -134.5s31.5 -107.167 31.5 -166.5c0 -96.667 -17 -185.334 -51 -266.001s-80.167 -150 -138.5 -208
s-126.333 -103 -204 -135s-160.167 -48 -247.5 -48c-50.667 0 -98.167 7.5 -142.5 22.5s-80.833 34.5 -109.5 58.5l-83 -362h171l-39 -172h-377l311 1335h-198zM802.999 891.001c-46.667 0 -93.833 -9.5 -141.5 -28.5s-91.5 -44.833 -131.5 -77.5l-127 -549
c17.333 -22 44.166 -41.167 80.499 -57.5s84.833 -24.5 145.5 -24.5c51.333 0 102 10.5 152 31.5s94.833 51.333 134.5 91s71.834 88.167 96.501 145.5s37 122.666 37 195.999c0 42.667 -6 80.834 -18 114.501s-28.833 62.167 -50.5 85.5s-47.5 41.333 -77.5 54
s-63.333 19 -100 19z" />
    <glyph glyph-name="q" unicode="q" horiz-adv-x="1246" 
d="M754 70c-44.667 -30 -89.502 -52.168 -134.502 -66.501s-91.5 -21.5 -139.5 -21.5c-56.667 0 -109.667 11 -159 33s-92.166 52 -128.499 90s-65 82.833 -86 134.5s-31.5 107.167 -31.5 166.5c0 96.667 17 185.334 51 266.001s80.167 150 138.5 208s126.333 103 204 135
s160.167 48 247.5 48c50 0 96.833 -7.5 140.5 -22.5s79.834 -34.167 108.501 -57.5l15 53h197l-309 -1335h182l-39 -172h-381zM526.998 153.999c46 0 92.668 9.16797 140.001 27.501s90.666 43.5 129.999 75.5l127 555c-17.333 21.333 -44.166 39.833 -80.499 55.5
s-83.833 23.5 -142.5 23.5c-51.333 0 -102 -10.5 -152 -31.5s-94.667 -51.333 -134 -91s-71.333 -88.334 -96 -146.001s-37 -123.167 -37 -196.5c0 -42.667 6 -80.834 18 -114.501s28.667 -62.167 50 -85.5s47.166 -41.166 77.499 -53.499s63.5 -18.5 99.5 -18.5z" />
    <glyph glyph-name="r" unicode="r" horiz-adv-x="1053" 
d="M958 750l-203.003 0.00390625l29 122c-64.667 0 -119.667 -16.5 -165 -49.5s-82.666 -76.5 -111.999 -130.5l-120 -520h172l-39 -172h-375l200 864h-198l41 172h391l-33 -142c18.667 21.333 38.667 41.166 60 59.499s43.833 34.166 67.5 47.499
s48.334 23.833 74.001 31.5s51.5 11.5 77.5 11.5c24 0 44.667 -0.333008 62 -1s35.833 -1.83398 55.5 -3.50098s46.834 -4.83398 81.501 -9.50098z" />
    <glyph glyph-name="s" unicode="s" horiz-adv-x="1012" 
d="M749 748c-0.666992 26 -5.83496 49.002 -15.502 69.002s-23 36.833 -40 50.5s-37 24 -60 31s-47.833 10.5 -74.5 10.5s-52 -3.16699 -76 -9.5s-45 -15.833 -63 -28.5s-32.167 -28 -42.5 -46s-15.5 -38.333 -15.5 -61c0 -26.667 8.5 -48.834 25.5 -66.501
s43.833 -33.834 80.5 -48.501l193 -69c58.667 -21.333 103.334 -54.5 134.001 -99.5s46 -99.5 46 -163.5c0 -57.333 -10.5 -107.666 -31.5 -150.999s-50.167 -79.666 -87.5 -108.999s-81.833 -51.333 -133.5 -66s-108.167 -22 -169.5 -22c-37.333 0 -73 3 -107 9
s-65.5 15.167 -94.5 27.5s-54.333 27.666 -76 45.999s-38.5 39.5 -50.5 63.5h-106l41 172h211c-3.33301 -26 0 -49 10 -69s24.333 -36.833 43 -50.5s40.834 -23.834 66.501 -30.501s52.834 -10 81.501 -10s55.5 3.66699 80.5 11s46.833 18 65.5 32s33.5 31.333 44.5 52
s16.5 44.334 16.5 71.001c0 25.333 -9 48.5 -27 69.5s-46 38.167 -84 51.5l-184 67c-59.333 23.333 -105 57.5 -137 102.5s-48 95.5 -48 151.5c0 49.333 8.66699 94.333 26 135s43 75.667 77 105s76.667 52 128 68s111 24 179 24c39.333 0 75.666 -3.83301 108.999 -11.5
s63 -18.167 89 -31.5s48.333 -28.833 67 -46.5s33.667 -36.834 45 -57.501h112l-41 -172h-207v0z" />
    <glyph glyph-name="t" unicode="t" horiz-adv-x="778" 
d="M186 1036l173.001 0.000976562l61 248l211 86l-79 -334h218l-41 -172h-218l-132 -559c-3.33301 -13.333 -6.5 -26.833 -9.5 -40.5s-4.5 -28.167 -4.5 -43.5c0 -30 8.16699 -51.167 24.5 -63.5s42.166 -18.5 77.499 -18.5c38 0 83.667 11 137 33l17 -143
c-35.333 -16.667 -69.333 -29.834 -102 -39.501s-69 -14.5 -109 -14.5c-42 0 -80.333 5.16699 -115 15.5s-63.334 27.333 -86.001 51s-37.667 54.667 -45 93s-4.66602 85.5 8.00098 141.5l144 588h-171z" />
    <glyph glyph-name="u" unicode="u" horiz-adv-x="1290" 
d="M843 1036l335.997 0.00390625l-200 -864h155l-39 -172h-348l24 105c-21.333 -22 -44.333 -40.833 -69 -56.5s-49.834 -28.334 -75.501 -38.001s-51 -16.834 -76 -21.501s-48.167 -7 -69.5 -7c-45.333 0 -88.166 6.5 -128.499 19.5s-74.166 32.167 -101.499 57.5
c-16.667 16.667 -32.167 36.167 -46.5 58.5s-25.5 49.166 -33.5 80.499s-11.667 67.666 -11 108.999s7.33398 89.333 20.001 144l95 413h-140l41 172h340l-123 -526c-29.333 -124 -30.5 -215 -3.5 -273s84.167 -87 171.5 -87c38.667 0 72.834 6.5 102.501 19.5
s56.667 31.167 81 54.5s44.833 48 61.5 74l132 566h-136z" />
    <glyph glyph-name="v" unicode="v" horiz-adv-x="1155" 
d="M135 1036h379l-41 -172h-79l62 -639l407 639h-84l41 172h378l-41 -172h-79l-594 -880h-176l-116 880h-97z" />
    <glyph glyph-name="w" unicode="w" horiz-adv-x="1649" 
d="M136 1036h379l-41 -172h-80l33 -624l416 796h192l41 -796l334 624h-96l41 172h379l-41 -172h-90l-482 -880h-196l-37 794h-4l-414 -794h-197l-74 880h-104z" />
    <glyph glyph-name="x" unicode="x" horiz-adv-x="1137" 
d="M626 172h75l-146 238l-237 -238h64l-38 -172h-379l39 172h85l389 365l-227 327h-108l41 172h379l-41 -172h-66l137 -222l225 222h-73l41 172h379l-41 -172h-74l-374 -341l234 -351h95l-39 -172h-379z" />
    <glyph glyph-name="y" unicode="y" horiz-adv-x="1165" 
d="M148 1036h379l-41 -172h-79l61 -639l408 639h-85l41 172h379l-41 -172h-87l-741 -1163h101l-43 -172h-410l43 172h101l185 290l-114 873h-98z" />
    <glyph glyph-name="z" unicode="z" horiz-adv-x="995" 
d="M10 117l718 760h-337l-35 -148h-197l72 307h790l-26 -121l-714 -755h366l41 178h196l-78 -338h-821z" />
    <glyph glyph-name="braceleft" unicode="{" horiz-adv-x="713" 
d="M34 670l15.4971 63.4961l15.5 63.5c18.667 0 36.5 3.5 53.5 10.5s33.167 16.667 48.5 29s29.666 26.833 42.999 43.5s25.333 34.834 36 54.501s20 40.5 28 62.5s14.667 44 20 66l86 373c10 42 24.667 79.333 44 112s41.5 60.334 66.5 83.001s51.333 39.834 79 51.501
s54.834 17.5 81.501 17.5h68.5h68.5c-5.33301 -21.333 -10.166 -42.5 -14.499 -63.5s-9.16602 -42.167 -14.499 -63.5h-34.5h-34.5c-18 0 -34 -4.5 -48 -13.5s-26.667 -22 -38 -39s-21.333 -37.833 -30 -62.5s-16.667 -52.667 -24 -84l-39.5 -174l-39.5 -174
c-9.33301 -41.333 -22.166 -78 -38.499 -110s-35 -60 -56 -84s-43.5 -44 -67.5 -60s-48.667 -28.333 -74 -37c-0.666992 -0.666992 -1 -1.33398 -1 -2.00098s-0.333008 -1.33398 -1 -2.00098c12.667 -5.33301 24.667 -12 36 -20s21.5 -17.167 30.5 -27.5
s16.833 -22.333 23.5 -36s12 -28.5 16 -44.5c5.33301 -22 7.5 -46.333 6.5 -73s-5.16699 -56.667 -12.5 -90l-40 -174l-40 -174c-7.33301 -32 -12.166 -60 -14.499 -84s-1.83301 -44.667 1.5 -62c2 -8.66699 4.66699 -16.167 8 -22.5s7.5 -11.666 12.5 -15.999
s11 -7.66602 18 -9.99902s15.167 -3.5 24.5 -3.5h34.5h34.5l-14 -63.5l-14 -63.5h-34.5h-34.5h-34.5h-34.5c-26 0 -50.333 5.83301 -73 17.5s-41.5 28.834 -56.5 51.501s-24.833 50.334 -29.5 83.001s-2 70 8 112l86 372c9.33301 40 13.333 79 12 117
s-9.33301 69.667 -24 95c-3.33301 5.33301 -6.83301 10.5 -10.5 15.5s-7.83398 9.5 -12.501 13.5s-9.66699 7.66699 -15 11s-11 6.16602 -17 8.49902s-12.333 4 -19 5s-13.667 1.5 -21 1.5z" />
    <glyph glyph-name="bar" unicode="|" horiz-adv-x="519" 
d="M393 1726h176l-461 -1996h-176z" />
    <glyph glyph-name="braceright" unicode="}" horiz-adv-x="734" 
d="M-70 -233c5.33301 21.333 10.168 42.502 14.501 63.502s9.16602 42.167 14.499 63.5h34.5h34.5c18 0 34 4.5 48 13.5s26.667 22 38 39s21.333 37.667 30 62s16.667 52.166 24 83.499l40 174l40 174c9.33301 40.667 22.166 77.167 38.499 109.5s34.666 60.5 54.999 84.5
s42.666 44 66.999 60s49.166 28.333 74.499 37c0.666992 0.666992 1 1.33398 1 2.00098s0.333008 1.33398 1 2.00098c-13.333 5.33301 -25.5 12 -36.5 20s-21 17.167 -30 27.5s-16.833 22.333 -23.5 36s-12 28.5 -16 44.5c-5.33301 22 -7.66602 46.333 -6.99902 73
s5 56.667 13 90l40.5 174l39.5 174c6.66699 31.333 11.334 59.333 14.001 84s2.16699 45.5 -1.5 62.5s-10.5 30 -20.5 39s-24 13.5 -42 13.5h-34.5h-34.5l14 63.5l14 63.5h34.5h34.5h34.5h34.5c22 0 42.667 -4.5 62 -13.5s36.166 -22 50.499 -39
s25.666 -37.833 33.999 -62.5s12.5 -52.667 12.5 -84c0 -6 -1 -15.5 -3 -28.5s-6 -33.167 -12 -60.5l-11 -50l-68 -299c-5.33301 -22 -8.83301 -44 -10.5 -66s-1.66699 -42.833 0 -62.5s5.33398 -37.834 11.001 -54.501s13.334 -31.167 23.001 -43.5s21.334 -22 35.001 -29
s29.834 -10.5 48.501 -10.5l-15.5 -63.5l-15.5 -63.5c-18.667 0 -36.667 -3.5 -54 -10.5s-33.5 -16.667 -48.5 -29s-29.167 -27 -42.5 -44s-25.333 -35.333 -36 -55s-20 -40.5 -28 -62.5s-14.667 -44 -20 -66l-42.5 -186.5c-21 -93 -35.5 -154.833 -43.5 -185.5
c-10 -42 -24.667 -79.333 -44 -112s-41.5 -60.334 -66.5 -83.001s-51.5 -39.834 -79.5 -51.501s-55 -17.5 -81 -17.5h-68.5h-68.5z" />
    <glyph glyph-name="asciitilde" unicode="~" horiz-adv-x="1229" 
d="M141 483c30 56 65.333 99.333 106 130s90.667 46 150 46c38.667 0 78.5 -7.5 119.5 -22.5s80.833 -31.333 119.5 -49l109 -49c34 -15 63.667 -22.5 89 -22.5c28.667 0 57.5 11.5 86.5 34.5s60.167 62.167 93.5 117.5l73 -115c-30 -56 -65.167 -99.333 -105.5 -130
s-90.5 -46 -150.5 -46c-26 0 -52.333 3.5 -79 10.5s-53.5 15.833 -80.5 26.5s-53.333 22.167 -79 34.5l-74 34.5c-23.667 10.667 -46 19.5 -67 26.5s-39.833 10.5 -56.5 10.5c-28.667 0 -57.5 -11.333 -86.5 -34s-60.167 -61.667 -93.5 -117z" />
    <glyph glyph-name="NOBREAKSPACE" unicode="&#xa0;" horiz-adv-x="449" 
 />
    <glyph glyph-name="exclamdown" unicode="&#xa1;" horiz-adv-x="850" 
d="M294 -528h-260l312 1167h178zM346 936c0 18 3.5 35 10.5 51s16.5 29.833 28.5 41.5s26 21 42 28s33.333 10.5 52 10.5c18 0 35 -3.5 51 -10.5s29.833 -16.333 41.5 -28s21 -25.5 28 -41.5s10.5 -33 10.5 -51s-3.5 -35.167 -10.5 -51.5s-16.333 -30.666 -28 -42.999
s-25.5 -22.166 -41.5 -29.499s-33 -11 -51 -11c-18.667 0 -36 3.66699 -52 11s-30 17.166 -42 29.499s-21.5 26.666 -28.5 42.999s-10.5 33.5 -10.5 51.5z" />
    <glyph glyph-name="cent" unicode="&#xa2;" horiz-adv-x="1135" 
d="M352 -242l57.002 244.997c-66.667 25.333 -122.167 60.5 -166.5 105.5s-78.166 96.333 -101.499 154s-35 119.834 -35 186.501c0 90.667 17 173.834 51 249.501s78.667 140.834 134 195.501s114.666 95.834 177.999 123.501s124.666 43.5 183.999 47.5l57 246h197
l-62 -268c51.333 -17.333 92 -38 122 -62s55.667 -50 77 -78h125l-29 -172h-209c-10.667 26.667 -24.834 50 -42.501 70s-37.834 36.667 -60.501 50s-47.334 23.333 -74.001 30s-54.334 10 -83.001 10c-24 0 -49.5 -4.33301 -76.5 -13s-53.667 -21.334 -80 -38.001
s-51.5 -37.167 -75.5 -61.5s-45.167 -52.5 -63.5 -84.5s-33 -67.5 -44 -106.5s-16.5 -81.167 -16.5 -126.5c0 -50 7.33301 -94.167 22 -132.5s34.334 -70.5 59.001 -96.5s53.334 -45.5 86.001 -58.5s67 -19.5 103 -19.5c26.667 0 51.667 2.16699 75 6.5
s45.5 11.666 66.5 21.999s41.5 23.833 61.5 40.5s39.667 37.334 59 62.001l146 -109c-26 -36.667 -55.333 -67.834 -88 -93.501s-67.167 -46.5 -103.5 -62.5s-71.666 -27.167 -105.999 -33.5s-66.833 -10.166 -97.5 -11.499l-50 -217h-196z" />
    <glyph glyph-name="sterling" unicode="&#xa3;" horiz-adv-x="1006" 
d="M57 657l32.999 146.001h199c-4 28.667 -7.16699 57.5 -9.5 86.5s-3.5 58.167 -3.5 87.5c0 64 8 122.5 24 175.5s38.833 99.5 68.5 139.5s65.667 73 108 99s83.5 43 123.5 51s78.667 12 116 12c50 0 94.833 -9 134.5 -27s71.667 -42.667 96 -74
s40.333 -68.666 48 -111.999s4.5 -90.333 -9.5 -141l-166 -10c5.33301 25.333 7.16602 50 5.49902 74s-7.16699 45.333 -16.5 64s-22.666 33.667 -39.999 45s-38.666 17 -63.999 17c-44 0 -81 -8.16699 -111 -24.5s-54 -38 -72 -65s-30.667 -58.167 -38 -93.5
s-10.333 -72 -9 -110c0.666992 -25.333 1.83398 -55.5 3.50098 -90.5s4.16699 -69.5 7.5 -103.5h278l-32 -146h-235c2 -28 3.66699 -54.833 5 -80.5s2 -49.167 2 -70.5c0 -66 -18.833 -128.5 -56.5 -187.5s-90.834 -109.167 -159.501 -150.5h483l-39 -168h-799l39 168h110
c46 23.333 85 51.166 117 83.499s57.5 67.666 76.5 105.999s31.667 79.333 38 123s9 76 8 97s-4.5 47.5 -10.5 79.5h-253v0z" />
    <glyph glyph-name="currency" unicode="&#xa4;" horiz-adv-x="1305" 
d="M235 680c0 68.667 14.002 132.832 42.002 192.499s65.667 112.5 113 158.5l-126 177l143 117l133 -190c37.333 18 76 32 116 42s80.667 15 122 15s80.166 -6 116.499 -18s69.833 -28.667 100.5 -50l190 166l113 -131l-188 -166c15.333 -28 27 -57.5 35 -88.5
s12 -63.5 12 -97.5c0 -66 -13 -127.667 -39 -185s-61 -108.666 -105 -153.999l121 -169l-147 -113l-123 172c-39.333 -20 -80.166 -35.5 -122.499 -46.5s-85.5 -16.5 -129.5 -16.5c-41.333 0 -80.333 6 -117 18s-70.334 29 -101.001 51l-206 -180l-113 133l205 179
c-14.667 28 -25.834 57.333 -33.501 88s-11.5 62.667 -11.5 96zM411.002 693.998c0 -32 5.33594 -61.6641 16.0029 -88.9971s25.667 -51.333 45 -72s42.666 -36.834 69.999 -48.501s58 -17.5 92 -17.5c44 0 87.167 9 129.5 27s80 42.167 113 72.5s59.667 65.666 80 105.999
s30.5 83.166 30.5 128.499c0 32 -5.33301 61.667 -16 89s-25.834 51.333 -45.501 72s-43.334 36.834 -71.001 48.501s-58.167 17.5 -91.5 17.5c-44.667 0 -88 -9 -130 -27s-79.5 -42.167 -112.5 -72.5s-59.5 -65.833 -79.5 -106.5s-30 -83.334 -30 -128.001z" />
    <glyph glyph-name="yen" unicode="&#xa5;" horiz-adv-x="1384" 
d="M217 1516h491l-39 -173h-122l175 -473l411 473h-122l39 173h492l-39 -173h-123l-442 -495h163l-32 -141h-271l-34 -148h270l-33 -141h-270l-57 -246h141l-39 -172h-492l39 172h141l57 246h-270l33 141h270l33 148h-268l33 141h170l-197 495h-147z" />
    <glyph glyph-name="brokenbar" unicode="&#xa6;" horiz-adv-x="647" 
d="M423 1729h177l-175 -750h-176zM135 481h176l-172 -749h-176z" />
    <glyph glyph-name="section" unicode="&#xa7;" horiz-adv-x="1202" 
d="M-84 -25h259.999l-7 -37c-9.33301 -46 -7.83301 -86.833 4.5 -122.5s37.166 -62.334 74.499 -80.001s78.333 -26.5 123 -26.5c50 0 96.833 9.66699 140.5 29s77.167 50 100.5 92s35 84.333 35 127c0 27.333 -4.66699 51 -14 71s-21.5 37.167 -36.5 51.5
s-31.667 26.166 -50 35.499s-36.833 17.333 -55.5 24l-149 54c-47.333 16.667 -90.833 41 -130.5 73s-67.834 71 -84.501 117s-25 93.667 -25 143c0 87.333 23.5 162.333 70.5 225s114.167 111.334 201.5 146.001c-58 65.333 -87 145.333 -87 240
c0 60.667 10.833 116.167 32.5 166.5s53.5 93.666 95.5 129.999s94 64.5 156 84.5s133 30 213 30c61.333 0 118 -8.16699 170 -24.5s96.5 -43.333 133.5 -81s59.833 -80.834 68.5 -129.501h89l-39 -166h-250l8 36c5.33301 34 -1 67 -19 99s-44.5 54.667 -79.5 68
s-70.167 20 -105.5 20c-43.333 0 -81.5 -5.33301 -114.5 -16s-60.667 -25.167 -83 -43.5s-39.166 -40 -50.499 -65s-17 -51.833 -17 -80.5c0 -24 4.5 -45 13.5 -63s20.5 -33.667 34.5 -47s30 -24.833 48 -34.5s36 -18.167 54 -25.5l158 -61c80 -31.333 142.333 -73 187 -125
s67 -117.667 67 -197c0 -60 -10.833 -117.167 -32.5 -171.5s-52.167 -99.666 -91.5 -135.999s-91.666 -67.166 -156.999 -92.499c57.333 -60 86 -135.333 86 -226c0 -72 -13 -136.333 -39 -193s-61.833 -104.667 -107.5 -144s-99.667 -69.5 -162 -90.5
s-130.166 -31.5 -203.499 -31.5c-72.667 0 -139.5 12.833 -200.5 38.5s-105.167 61.834 -132.5 108.501s-42.333 92 -45 136h-93zM308.999 551c0 -33.333 6.83008 -61.3311 20.4971 -83.998s31.334 -40.334 53.001 -53.001s56.5 -28.334 104.5 -47.001l58 -23
c46 1.33301 87.333 8.16602 124 20.499s67.834 29.333 93.501 51s45.334 47.167 59.001 76.5s20.5 61.333 20.5 96c0 26.667 -5.33301 49.667 -16 69s-24.667 35.833 -42 49.5s-49.333 29.834 -96 48.501l-50 17c-54 -1.33301 -101.5 -8.33301 -142.5 -21
s-75.333 -29.167 -103 -49.5s-48.5 -43.5 -62.5 -69.5s-21 -53 -21 -81z" />
    <glyph glyph-name="dieresis" unicode="&#xa8;" horiz-adv-x="1039" 
d="M162 1360c0 17.333 3.5 33.833 10.5 49.5s16.333 29.334 28 41.001s25.334 21 41.001 28s32.167 10.5 49.5 10.5c16.667 0 32.667 -3.5 48 -10.5s28.666 -16.333 39.999 -28s20.333 -25.334 27 -41.001s10 -32.167 10 -49.5c0 -18 -3.33301 -35 -10 -51
s-15.667 -30.167 -27 -42.5s-24.666 -22 -39.999 -29s-31.333 -10.5 -48 -10.5c-17.333 0 -33.833 3.5 -49.5 10.5s-29.334 16.667 -41.001 29s-21 26.5 -28 42.5s-10.5 33 -10.5 51zM621 1360c0 17.333 3.5 33.833 10.5 49.5s16.333 29.334 28 41.001s25.334 21 41.001 28
s32.167 10.5 49.5 10.5c16.667 0 32.5 -3.5 47.5 -10.5s28.333 -16.333 40 -28s20.834 -25.334 27.501 -41.001s10 -32.167 10 -49.5c0 -18 -3.33301 -35 -10 -51s-15.834 -30.167 -27.501 -42.5s-25 -22 -40 -29s-30.833 -10.5 -47.5 -10.5
c-17.333 0 -33.833 3.5 -49.5 10.5s-29.334 16.667 -41.001 29s-21 26.5 -28 42.5s-10.5 33 -10.5 51z" />
    <glyph glyph-name="copyright" unicode="&#xa9;" horiz-adv-x="1919" 
d="M102 831c0 78.667 10.167 154.5 30.5 227.5s49 141.167 86 204.5s81.5 121 133.5 173s109.667 96.5 173 133.5s131.5 65.667 204.5 86s149.167 30.5 228.5 30.5c78.667 0 154.667 -10.167 228 -30.5s141.833 -49 205.5 -86s121.667 -81.5 174 -133.5
s97.166 -109.667 134.499 -173s66.166 -131.5 86.499 -204.5s30.5 -148.833 30.5 -227.5c0 -79.333 -10.167 -155.5 -30.5 -228.5s-49.166 -141.167 -86.499 -204.5s-82.166 -121 -134.499 -173s-110.333 -96.5 -174 -133.5s-132.167 -65.667 -205.5 -86
s-149.333 -30.5 -228 -30.5c-79.333 0 -155.5 10.167 -228.5 30.5s-141.167 49 -204.5 86s-121 81.5 -173 133.5s-96.5 109.667 -133.5 173s-65.667 131.5 -86 204.5s-30.5 149.167 -30.5 228.5zM283 831c0 -94.667 17.5 -183.167 52.5 -265.5s83 -154 144 -215
s132.5 -109 214.5 -144s170 -52.5 264 -52.5s181.833 17.5 263.5 52.5s153.334 83 215.001 144s110 132.667 145 215s52.5 170.833 52.5 265.5c0 93.333 -17.5 183.166 -52.5 269.499s-83.333 158.166 -145 215.499s-133.334 103.5 -215.001 138.5s-169.5 52.5 -263.5 52.5
s-182 -17.5 -264 -52.5s-153.5 -81.167 -214.5 -138.5s-109 -129.166 -144 -215.499s-52.5 -176.166 -52.5 -269.499zM1190 1059c-32 30.667 -65.499 53.002 -100.499 67.002s-71.833 21 -110.5 21c-42.667 0 -82.667 -8.16699 -120 -24.5s-69.833 -38.833 -97.5 -67.5
s-49.5 -62 -65.5 -100s-24 -78.333 -24 -121s8 -82.667 24 -120s37.833 -70 65.5 -98s60.167 -50 97.5 -66s77.333 -24 120 -24c37.333 0 73.5 7.5 108.5 22.5s62.833 34.167 83.5 57.5l134 -129c-15.333 -20 -35 -38.833 -59 -56.5s-50.333 -33 -79 -46
s-59.167 -23.333 -91.5 -31s-64.5 -11.5 -96.5 -11.5c-70 0 -135.5 13 -196.5 39s-114.167 61.667 -159.5 107s-81 98.5 -107 159.5s-39 126.5 -39 196.5c0 69.333 13 134.5 39 195.5s61.667 114.333 107 160s98.5 81.667 159.5 108s126.5 39.5 196.5 39.5
c38.667 0 75.167 -4.16699 109.5 -12.5s66.333 -19.333 96 -33s56.667 -29.334 81 -47.001s46.166 -35.834 65.499 -54.501z" />
    <glyph glyph-name="ordfeminine" unicode="&#xaa;" horiz-adv-x="834" 
d="M540 908c-28.667 -23.333 -58.335 -40.835 -89.002 -52.502s-67 -17.5 -109 -17.5c-33.333 0 -63.833 4.83301 -91.5 14.5s-51.5 22.667 -71.5 39s-35.5 35.333 -46.5 57s-16.5 44.834 -16.5 69.501c0 46 10.333 84.5 31 115.5s47.5 55.833 80.5 74.5s70.167 32 111.5 40
s82.333 12 123 12c31.333 0 60 -1.5 86 -4.5s48.667 -6.5 68 -10.5l12 49c10.667 44.667 4 77.334 -20 98.001s-59 31 -105 31c-43.333 0 -83.166 -4.5 -119.499 -13.5s-68.166 -20.167 -95.499 -33.5l-26 97c41.333 24.667 86 43.667 134 57s96 20 144 20
c36 0 69 -3.66699 99 -11s55.667 -18.5 77 -33.5s38 -34.333 50 -58s18 -51.5 18 -83.5c0 -10 -2.5 -28 -7.5 -54s-29.5 -133.667 -73.5 -323h81l-29 -131h-227zM373.999 953.998c37.333 0 72.832 5.99805 106.499 17.998s61.834 28.333 84.501 49l31 136h-156
c-24 0 -46.833 -2.83301 -68.5 -8.5s-40.5 -13.667 -56.5 -24s-28.833 -23.166 -38.5 -38.499s-14.5 -32.666 -14.5 -51.999c0 -25.333 10 -45 30 -59s47.333 -21 82 -21z" />
    <glyph glyph-name="guillemotleft" unicode="&#xab;" horiz-adv-x="981" 
d="M673 545l131 -373h-186l-139 395l319 391h197zM249 545l131 -373h-186l-139 395l319 391h197z" />
    <glyph glyph-name="logicalnot" unicode="&#xac;" horiz-adv-x="1382" 
d="M1273 999l-131 -567h-188l92 395h-905l39 172h1093z" />
    <glyph glyph-name="SOFTHYPHEN" unicode="&#xad;" horiz-adv-x="0" 
 />
    <glyph glyph-name="registered" unicode="&#xae;" horiz-adv-x="1919" 
d="M102 831c0 78.667 10.167 154.5 30.5 227.5s49 141.167 86 204.5s81.5 121 133.5 173s109.667 96.5 173 133.5s131.5 65.667 204.5 86s149.167 30.5 228.5 30.5c78.667 0 154.667 -10.167 228 -30.5s141.833 -49 205.5 -86s121.667 -81.5 174 -133.5
s97.166 -109.667 134.499 -173s66.166 -131.5 86.499 -204.5s30.5 -148.833 30.5 -227.5c0 -79.333 -10.167 -155.5 -30.5 -228.5s-49.166 -141.167 -86.499 -204.5s-82.166 -121 -134.499 -173s-110.333 -96.5 -174 -133.5s-132.167 -65.667 -205.5 -86
s-149.333 -30.5 -228 -30.5c-79.333 0 -155.5 10.167 -228.5 30.5s-141.167 49 -204.5 86s-121 81.5 -173 133.5s-96.5 109.667 -133.5 173s-65.667 131.5 -86 204.5s-30.5 149.167 -30.5 228.5zM283 831c0 -94.667 17.5 -183.17 52.5 -265.503s83 -154 144 -215
s132.5 -109 214.5 -144s170 -52.5 264 -52.5s181.833 17.5 263.5 52.5s153.334 83 215.001 144s110 132.667 145 215s52.5 170.833 52.5 265.5c0 62.667 -17.5 144.834 -52.5 246.501s-83.333 181.167 -145 238.5s-133.334 103.5 -215.001 138.5s-169.5 52.5 -263.5 52.5
s-182 -17.5 -264 -52.5s-153.5 -81.167 -214.5 -138.5s-109 -129.166 -144 -215.499s-52.5 -176.166 -52.5 -269.499zM555 517.997l98.001 0.00390625v670h-102v158h483c48.667 0 92.667 -7 132 -21s72.666 -33.333 99.999 -58s48.5 -53.834 63.5 -87.501
s22.5 -69.834 22.5 -108.501c0 -32.667 -3.33301 -61.667 -10 -87s-16.834 -47.833 -30.501 -67.5s-30.5 -36.834 -50.5 -51.501s-43 -27.667 -69 -39c20.667 -11.333 39.167 -28.833 55.5 -52.5s28.5 -52.834 36.5 -87.501l41 -168h82l2 -158h-256l-51 254
c-9.33301 56 -30.666 96.333 -63.999 121s-76.333 37 -129 37h-67v-254h92v-158h-379v158zM842.001 1188l0.000976562 -259.999h143c49.333 0 88.666 10.167 117.999 30.5s44 53.166 44 98.499c0 41.333 -13.833 73.5 -41.5 96.5s-70.5 34.5 -128.5 34.5h-135z" />
    <glyph glyph-name="macron" unicode="&#xaf;" horiz-adv-x="922" 
d="M864 1229h-743l26 117h744z" />
    <glyph glyph-name="degree" unicode="&#xb0;" horiz-adv-x="682" 
d="M340 1737c32.667 0 63.5 -6.33301 92.5 -19s54.5 -30 76.5 -52s39.333 -47.5 52 -76.5s19 -59.833 19 -92.5s-6.33301 -63.334 -19 -92.001s-30 -53.834 -52 -75.501s-47.5 -38.667 -76.5 -51s-59.833 -18.5 -92.5 -18.5s-63.5 6.16699 -92.5 18.5
s-54.167 29.333 -75.5 51s-38.333 46.834 -51 75.501s-19 59.334 -19 92.001s6.33301 63.5 19 92.5s29.667 54.5 51 76.5s46.5 39.333 75.5 52s59.833 19 92.5 19zM205 1497c0 -18.667 3.5 -36.167 10.5 -52.5s16.667 -30.666 29 -42.999s26.666 -22 42.999 -29
s33.833 -10.5 52.5 -10.5s36.167 3.5 52.5 10.5s30.833 16.667 43.5 29s22.667 26.666 30 42.999s11 33.833 11 52.5s-3.66699 36.167 -11 52.5s-17.333 30.833 -30 43.5s-27.167 22.667 -43.5 30s-33.833 11 -52.5 11s-36.167 -3.66699 -52.5 -11
s-30.666 -17.333 -42.999 -30s-22 -27.167 -29 -43.5s-10.5 -33.833 -10.5 -52.5z" />
    <glyph glyph-name="plusminus" unicode="&#xb1;" horiz-adv-x="1105" 
d="M86 771h419l78 344h183l-78 -344h422l-43 -182h-421l-88 -354h-182l87 354h-420zM-57 172h1024l-39 -172h-1024z" />
    <glyph glyph-name="twosuperior" unicode="&#xb2;" horiz-adv-x="609" 
d="M-5 944l338 277.001c18 14 34.333 27.333 49 40s27.167 25 37.5 37s18.333 24.5 24 37.5s8.5 27.167 8.5 42.5c0 21.333 -8.66699 40 -26 56s-41.333 24 -72 24c-35.333 0 -65.666 -10 -90.999 -30s-42.333 -46 -51 -78h-124c8 34.667 20.667 66.167 38 94.5
s38.166 52.5 62.499 72.5s51.5 35.333 81.5 46s62 16 96 16c30.667 0 59.5 -5 86.5 -15s50.667 -23.5 71 -40.5s36.333 -37 48 -60s17.5 -47.833 17.5 -74.5c0 -36 -7.5 -69.833 -22.5 -101.5s-42.833 -64.834 -83.5 -99.501l-278 -225h284l-29 -121h-487z" />
    <glyph glyph-name="threesuperior" unicode="&#xb3;" horiz-adv-x="622" 
d="M467 1379c0 23.333 -8.99805 43.5 -26.998 60.5s-42.667 25.5 -74 25.5c-73.333 0 -119 -32.667 -137 -98h-137c6 34.667 23 70.5 51 107.5s62.333 64.5 103 82.5s84.667 27 132 27c42 0 79.667 -8.5 113 -25.5s59.5 -40.833 78.5 -71.5s28.5 -63.334 28.5 -98.001
c0 -78 -43.667 -135 -131 -171c50 -27.333 75 -70 75 -128c0 -42 -12 -83.333 -36 -124s-59.833 -72.834 -107.5 -96.501s-100.167 -35.5 -157.5 -35.5c-38.667 0 -76.334 8 -113.001 24s-64.834 39.667 -84.501 71s-29.5 73 -29.5 125h133c0 -66 35.667 -99 107 -99
c42 0 77.667 11.333 107 34s44 52.334 44 89.001c0 57.333 -35.333 86 -106 86h-58l25 107h55c42.667 0 77.667 10.333 105 31s41 46.334 41 77.001z" />
    <glyph glyph-name="acute" unicode="&#xb4;" horiz-adv-x="645" 
d="M297 1477h240v-17l-299 -282h-154z" />
    <glyph glyph-name="mu" unicode="&#xb5;" 
d="M-89 -471l349.002 1507h200l-135 -583c-15.333 -56 -21.333 -107 -18 -153s21.833 -82.167 55.5 -108.5s81.167 -40.166 142.5 -41.499c31.333 0 63.666 7 96.999 21s62.333 32.333 87 55s45.334 47 62.001 73l172 737h201l-200 -864h202l-39 -172h-395l23 105
c-20.667 -22 -43.334 -40.833 -68.001 -56.5s-49.834 -28.5 -75.501 -38.5s-51.167 -17.167 -76.5 -21.5s-48.666 -6.5 -69.999 -6.5c-37.333 0 -72.833 4.33301 -106.5 13s-63.834 21.334 -90.501 38.001l-116 -504h-201z" />
    <glyph glyph-name="paragraph" unicode="&#xb6;" horiz-adv-x="1343" 
d="M519 702c-52.667 4 -99.999 14.833 -141.999 32.5s-77.833 40.667 -107.5 69s-52.334 61.5 -68.001 99.5s-23.5 79.667 -23.5 125c0 76 14.667 144.167 44 204.5s70.5 111.5 123.5 153.5s116.333 74.167 190 96.5s155.167 33.5 244.5 33.5h618l-41 -173h-94l-395 -1712
h-187l395 1712h-223l-395 -1712h-186z" />
    <glyph glyph-name="periodcentered" unicode="&#xb7;" horiz-adv-x="612" 
d="M223 -2332c0 17.333 3.5 33.833 10.5 49.5s16.333 29.334 28 41c11.667 11.667 25.5 21 41.5 28s33 10.5 51 10.5c17.333 0 33.833 -3.5 49.5 -10.5s29.334 -16.333 41.001 -28s21 -25.334 28 -41c7 -15.667 10.5 -32.167 10.5 -49.5c0 -18 -3.5 -35 -10.5 -51
s-16.333 -30.167 -28 -42.5s-25.334 -22 -41.001 -29s-32.167 -10.5 -49.5 -10.5c-18 0 -35 3.5 -51 10.5s-29.833 16.667 -41.5 29s-21 26.5 -28 42.5s-10.5 33 -10.5 51z" />
    <glyph glyph-name="cedilla" unicode="&#xb8;" horiz-adv-x="940" 
d="M182 -303c36.667 0.666992 69.835 7.16602 99.502 19.499s55.667 28.5 78 48.5s40.666 43.5 54.999 70.5s24.166 55.833 29.499 86.5l150 -45c-12 -48.667 -30.667 -92.167 -56 -130.5s-55.5 -70.666 -90.5 -96.999s-74.167 -46.5 -117.5 -60.5s-89 -21 -137 -21z" />
    <glyph glyph-name="onesuperior" unicode="&#xb9;" horiz-adv-x="486" 
d="M100 956h84l103 436l-161 -75l35 143l244 119h61l-142 -623h81l-26 -116h-304z" />
    <glyph glyph-name="ordmasculine" unicode="&#xba;" horiz-adv-x="772" 
d="M75 1153c0 60.667 11.6689 116.5 35.002 167.5s54.833 95 94.5 132s85.5 66 137.5 87s107 31.5 165 31.5c46 0 88.5 -7.66699 127.5 -23s72.667 -36.5 101 -63.5s50.666 -58.667 66.999 -95s24.5 -75.5 24.5 -117.5c0 -61.333 -10.833 -118 -32.5 -170
s-51.834 -96.833 -90.501 -134.5s-84.334 -67 -137.001 -88s-110 -31.5 -172 -31.5c-46 0 -88.667 8.16699 -128 24.5s-73.166 38.5 -101.499 66.5s-50.5 60.333 -66.5 97s-24 75.667 -24 117zM231.002 1163c0 -25.333 4.50098 -49.165 13.501 -71.498
s21.333 -41.666 37 -57.999s34 -29.166 55 -38.499s43.833 -14 68.5 -14c36 0 70.167 6.66699 102.5 20s60.666 32.166 84.999 56.499s43.833 53.666 58.5 87.999s22 72.5 22 114.5c0 26.667 -4.66699 51 -14 73s-22 40.5 -38 55.5s-34.833 26.667 -56.5 35
s-44.834 12.5 -69.501 12.5c-34.667 0 -68 -6.33301 -100 -19s-60.167 -30.834 -84.5 -54.501s-43.666 -52.334 -57.999 -86.001s-21.5 -71.5 -21.5 -113.5z" />
    <glyph glyph-name="guillemotright" unicode="&#xbb;" horiz-adv-x="981" 
d="M335 586l-131 372h187l139 -395l-320 -391h-196zM759 586l-131 372h187l139 -395l-320 -391h-196z" />
    <glyph glyph-name="onequarter" unicode="&#xbc;" horiz-adv-x="2058" 
d="M223 896h84l103 436l-161 -75l35 143l244 119h61l-142 -623h81l-26 -116h-304zM1716 1577h220l-1635 -1638h-219zM1169 303l387 457h148l-379 -455h182l39 164h135l-39 -164h113l-25 -110h-112l-46 -195h-135l45 195h-336z" />
    <glyph glyph-name="onehalf" unicode="&#xbd;" horiz-adv-x="1956" 
d="M223 896h84l103 436l-161 -75l35 143l244 119h61l-142 -623h81l-26 -116h-304zM1716 1577h220l-1635 -1638h-219zM1198 121l338 276.001c31.333 23.333 57 47.333 77 72s30 48.667 30 72c0 20 -6.83301 36.833 -20.5 50.5s-34.167 20.5 -61.5 20.5
c-32.667 0 -60.667 -9.5 -84 -28.5s-38.333 -42.833 -45 -71.5h-156c8 38 22 72 42 102s43.667 55.333 71 76s58 36.167 92 46.5s68.667 15.5 104 15.5c30 0 58.333 -4.83301 85 -14.5s50 -22.667 70 -39s35.667 -36.166 47 -59.499s17 -49.333 17 -78
c0 -20.667 -1.33301 -38.834 -4 -54.501s-7 -30.667 -13 -45s-15.167 -28.333 -27.5 -42s-27.5 -27.834 -45.5 -42.501l-282 -236h274l-33 -141h-503z" />
    <glyph glyph-name="threequarters" unicode="&#xbe;" horiz-adv-x="2214" 
d="M1736 1577h220l-1635 -1638h-219zM1190 303l387 457h148l-379 -455h182l39 164h135l-39 -164h113l-25 -110h-112l-46 -195h-135l45 195h-336zM479 1333c0 23.333 -8.99805 43.5 -26.998 60.5s-42.667 25.5 -74 25.5c-73.333 0 -119 -32.667 -137 -98h-137
c6 34.667 23 70.5 51 107.5s62.333 64.5 103 82.5s84.667 27 132 27c42 0 79.667 -8.5 113 -25.5s59.5 -40.833 78.5 -71.5s28.5 -63.334 28.5 -98.001c0 -78 -43.667 -135 -131 -171c50 -27.333 75 -70 75 -128c0 -42 -12 -83.333 -36 -124s-59.833 -72.834 -107.5 -96.501
s-100.167 -35.5 -157.5 -35.5c-38.667 0 -76.334 8 -113.001 24s-64.834 39.667 -84.501 71s-29.5 73 -29.5 125h133c0 -66 35.667 -99 107 -99c42 0 77.667 11.333 107 34s44 52.334 44 89.001c0 57.333 -35.333 86 -106 86h-58l25 107h55c42.667 0 77.667 10.333 105 31
s41 46.334 41 77.001z" />
    <glyph glyph-name="questiondown" unicode="&#xbf;" horiz-adv-x="1000" 
d="M735 623c-9.33301 -46.667 -19.0049 -87.834 -29.0049 -123.501s-21 -67.5 -33 -95.5s-25.333 -53 -40 -75s-31.667 -42.833 -51 -62.5s-41.666 -38.834 -66.999 -57.501s-54.333 -38.334 -87 -59.001l-124.5 -80c-35.667 -23.333 -65.334 -46.666 -89.001 -69.999
s-41.5 -48.166 -53.5 -74.499s-18 -57.5 -18 -93.5c0 -24 4.66699 -46.5 14 -67.5s22.833 -39.5 40.5 -55.5s39.167 -28.5 64.5 -37.5s54 -13.5 86 -13.5c36.667 0 70.334 6 101.001 18s57.667 28.667 81 50s43.333 46.833 60 76.5s29.334 62.167 38.001 97.5l207 -19
c-15.333 -63.333 -38.666 -120.333 -69.999 -171s-69 -94 -113 -130s-93.833 -63.667 -149.5 -83s-115.5 -29 -179.5 -29c-63.333 0 -119.333 9.83301 -168 29.5s-89.5 45.5 -122.5 77.5s-58 68.167 -75 108.5s-25.5 81.5 -25.5 123.5c0 48 6.33301 91.333 19 130
s31.167 74.5 55.5 107.5s54.333 64 90 93s76.5 57.5 122.5 85.5l87 51c25.333 14.667 48 29.5 68 44.5s37.833 30.833 53.5 47.5s29.834 36.667 42.501 60s24.334 50.833 35.001 82.5s21 69.834 31 114.501h199zM809.995 932c0 -18 -3.5 -35 -10.5 -51
s-16.5 -29.833 -28.5 -41.5s-26 -21 -42 -28s-33.333 -10.5 -52 -10.5c-18 0 -35 3.5 -51 10.5s-29.833 16.333 -41.5 28s-21 25.5 -28 41.5s-10.5 33 -10.5 51s3.5 35.167 10.5 51.5s16.333 30.666 28 42.999s25.5 22.166 41.5 29.499s33 11 51 11
c18.667 0 36 -3.66699 52 -11s30 -17.166 42 -29.499s21.5 -26.666 28.5 -42.999s10.5 -33.5 10.5 -51.5z" />
    <glyph glyph-name="Agrave" unicode="&#xc0;" horiz-adv-x="1458" 
d="M919 172h127l-37 342h-574l-191 -342h136l-38 -172h-492l39 172h131l760 1344h323l158 -1344h150l-39 -172h-492zM531 686h459l-75 688zM829 1657l-287 282v17h248l184 -299h-145z" />
    <glyph glyph-name="Aacute" unicode="&#xc1;" horiz-adv-x="1458" 
d="M919 172h127l-37 342h-574l-191 -342h136l-38 -172h-492l39 172h131l760 1344h323l158 -1344h150l-39 -172h-492zM531 686h459l-75 688zM1028 1956h240v-17l-299 -282h-154z" />
    <glyph glyph-name="Acircumflex" unicode="&#xc2;" horiz-adv-x="1458" 
d="M919 172h127l-37 342h-574l-191 -342h136l-38 -172h-492l39 172h131l760 1344h323l158 -1344h150l-39 -172h-492zM531 686h459l-75 688zM672 1650l297 273h111l151 -273h-170l-64 125l-119 -125h-206z" />
    <glyph glyph-name="Atilde" unicode="&#xc3;" horiz-adv-x="1458" 
d="M919 172h127l-37 342h-574l-191 -342h136l-38 -172h-492l39 172h131l760 1344h323l158 -1344h150l-39 -172h-492zM531 686h459l-75 688zM869 1894c33.333 0 62.166 -5.5 86.499 -16.5s47 -23 68 -36s41.833 -24.833 62.5 -35.5s44 -16 70 -16
c18.667 0 36.834 6.33301 54.501 19s29.5 33 35.5 61l119 -35c-13.333 -56.667 -39.333 -100.5 -78 -131.5s-85 -46.5 -139 -46.5c-37.333 0 -69 5.16699 -95 15.5s-49.667 21.5 -71 33.5l-60 33.5c-18.667 10.333 -39 15.5 -61 15.5c-10 0 -20.167 -0.666992 -30.5 -2
s-20.5 -4.5 -30.5 -9.5s-19.167 -12.667 -27.5 -23s-14.833 -24.833 -19.5 -43.5l-109 53c8.66699 31.333 21 57.5 37 78.5s34 37.833 54 50.5s41.5 21.667 64.5 27s46.167 8 69.5 8z" />
    <glyph glyph-name="Adieresis" unicode="&#xc4;" horiz-adv-x="1458" 
d="M919 172h127l-37 342h-574l-191 -342h136l-38 -172h-492l39 172h131l760 1344h323l158 -1344h150l-39 -172h-492zM531 686h459l-75 688zM625 1839c0 17.333 3.5 33.833 10.5 49.5s16.333 29.334 28 41.001s25.334 21 41.001 28s32.167 10.5 49.5 10.5
c16.667 0 32.667 -3.5 48 -10.5s28.666 -16.333 39.999 -28s20.333 -25.334 27 -41.001s10 -32.167 10 -49.5c0 -18 -3.33301 -35 -10 -51s-15.667 -30.167 -27 -42.5s-24.666 -22 -39.999 -29s-31.333 -10.5 -48 -10.5c-17.333 0 -33.833 3.5 -49.5 10.5
s-29.334 16.667 -41.001 29s-21 26.5 -28 42.5s-10.5 33 -10.5 51zM1084 1839c0 17.333 3.5 33.833 10.5 49.5s16.333 29.334 28 41.001s25.334 21 41.001 28s32.167 10.5 49.5 10.5c16.667 0 32.5 -3.5 47.5 -10.5s28.333 -16.333 40 -28s20.834 -25.334 27.501 -41.001
s10 -32.167 10 -49.5c0 -18 -3.33301 -35 -10 -51s-15.834 -30.167 -27.501 -42.5s-25 -22 -40 -29s-30.833 -10.5 -47.5 -10.5c-17.333 0 -33.833 3.5 -49.5 10.5s-29.334 16.667 -41.001 29s-21 26.5 -28 42.5s-10.5 33 -10.5 51z" />
    <glyph glyph-name="Aring" unicode="&#xc5;" horiz-adv-x="1456" 
d="M920 172l126.999 -0.00195312l-37 342h-576l-190 -342h137l-39 -172h-492l39 172h131l734 1298c-19.333 23.333 -34.833 49.333 -46.5 78s-17.5 58.667 -17.5 90c0 34.667 6.83301 67.667 20.5 99s32.167 58.5 55.5 81.5s50.333 41.333 81 55s63.667 20.5 99 20.5
c34 0 66.833 -6.83301 98.5 -20.5s59 -32 82 -55s41.333 -50.167 55 -81.5s20.5 -64.333 20.5 -99c0 -39.333 -8.16699 -75.666 -24.5 -108.999s-38.166 -61.666 -65.499 -84.999l150 -1272h149l-39 -172h-491zM529.999 685.998h461l-76 688zM841.999 1638
c0 -27.333 10.5 -51.5 31.5 -72.5s45.167 -31.5 72.5 -31.5s51.666 10.5 72.999 31.5s32 45.167 32 72.5s-10.667 51.666 -32 72.999s-45.666 32 -72.999 32s-51.5 -10.667 -72.5 -32s-31.5 -45.666 -31.5 -72.999z" />
    <glyph glyph-name="AE" unicode="&#xc6;" horiz-adv-x="1991" 
d="M-132 172h127l990 1344h1101l-100 -433h-207l62 260h-541l-111 -485h447l-43 -172h-443l-118 -514h534l62 262h209l-101 -434h-1085l39 172h133l79 342h-412l-252 -342h122l-39 -172h-491zM942 686l148 642l-473 -642h325z" />
    <glyph glyph-name="Ccedilla" unicode="&#xc7;" horiz-adv-x="1468" 
d="M1394 322c-38.667 -54.667 -81.6641 -103.498 -128.997 -146.498s-99.333 -79.333 -156 -109s-118 -52.334 -184 -68.001s-137 -23.5 -213 -23.5c-91.333 0 -175.833 17.167 -253.5 51.5s-144.834 81.833 -201.501 142.5s-101.167 132.5 -133.5 215.5
s-48.5 173.167 -48.5 270.5c0 83.333 9.83301 163.333 29.5 240s47.5 147.834 83.5 213.501s79.667 125.334 131 179.001s108.833 99.5 172.5 137.5s132.667 67.333 207 88s152.5 31 234.5 31c113.333 0 214.166 -22.833 302.499 -68.5s160.833 -108.834 217.5 -189.501h156
l-41 -172h-276c-14.667 34 -34.167 65.333 -58.5 94s-52.666 53.167 -84.999 73.5s-68.5 36.166 -108.5 47.499s-83 17 -129 17c-88 0 -169.333 -17.833 -244 -53.5s-139.334 -84.167 -194.001 -145.5s-97.334 -132.833 -128.001 -214.5s-46 -168.5 -46 -260.5
c0 -76.667 12 -145.834 36 -207.501s56 -114 96 -157s86.333 -76 139 -99s107.667 -34.5 165 -34.5c100.667 0 189.167 20.833 265.5 62.5s143.5 104.167 201.5 187.5zM551.003 -302.998c36.667 0.666992 69.835 7.16602 99.502 19.499s55.667 28.5 78 48.5
s40.666 43.5 54.999 70.5s24.166 55.833 29.499 86.5l150 -45c-12 -48.667 -30.667 -92.167 -56 -130.5s-55.5 -70.666 -90.5 -96.999s-74.167 -46.5 -117.5 -60.5s-89 -21 -137 -21z" />
    <glyph glyph-name="Egrave" unicode="&#xc8;" horiz-adv-x="1415" 
d="M411 1516h1100l-100 -433h-207l61 260h-540l-111 -485h446l-43 -172h-442l-118 -514h534l61 262h209l-100 -434h-1086l39 172h134l270 1171h-148zM876 1658l-287 282v17h248l184 -299h-145z" />
    <glyph glyph-name="Eacute" unicode="&#xc9;" horiz-adv-x="1415" 
d="M411 1516h1100l-100 -433h-207l61 260h-540l-111 -485h446l-43 -172h-442l-118 -514h534l61 262h209l-100 -434h-1086l39 172h134l270 1171h-148zM1075 1957h240v-17l-299 -282h-154z" />
    <glyph glyph-name="Ecircumflex" unicode="&#xca;" horiz-adv-x="1415" 
d="M411 1516h1100l-100 -433h-207l61 260h-540l-111 -485h446l-43 -172h-442l-118 -514h534l61 262h209l-100 -434h-1086l39 172h134l270 1171h-148zM753 1651l297 273h111l151 -273h-170l-64 125l-119 -125h-206z" />
    <glyph glyph-name="Edieresis" unicode="&#xcb;" horiz-adv-x="1415" 
d="M411 1516h1100l-100 -433h-207l61 260h-540l-111 -485h446l-43 -172h-442l-118 -514h534l61 262h209l-100 -434h-1086l39 172h134l270 1171h-148zM672 1840c0 17.333 3.5 33.833 10.5 49.5s16.333 29.334 28 41.001s25.334 21 41.001 28s32.167 10.5 49.5 10.5
c16.667 0 32.667 -3.5 48 -10.5s28.666 -16.333 39.999 -28s20.333 -25.334 27 -41.001s10 -32.167 10 -49.5c0 -18 -3.33301 -35 -10 -51s-15.667 -30.167 -27 -42.5s-24.666 -22 -39.999 -29s-31.333 -10.5 -48 -10.5c-17.333 0 -33.833 3.5 -49.5 10.5
s-29.334 16.667 -41.001 29s-21 26.5 -28 42.5s-10.5 33 -10.5 51zM1131 1840c0 17.333 3.5 33.833 10.5 49.5s16.333 29.334 28 41.001s25.334 21 41.001 28s32.167 10.5 49.5 10.5c16.667 0 32.5 -3.5 47.5 -10.5s28.333 -16.333 40 -28s20.834 -25.334 27.501 -41.001
s10 -32.167 10 -49.5c0 -18 -3.33301 -35 -10 -51s-15.834 -30.167 -27.501 -42.5s-25 -22 -40 -29s-30.833 -10.5 -47.5 -10.5c-17.333 0 -33.833 3.5 -49.5 10.5s-29.334 16.667 -41.001 29s-21 26.5 -28 42.5s-10.5 33 -10.5 51z" />
    <glyph glyph-name="Igrave" unicode="&#xcc;" horiz-adv-x="883" 
d="M425 1516h492l-41 -173h-141l-268 -1171h139l-39 -172h-492l39 172h144l270 1171h-143zM612 1658l-287 282v17h248l184 -299h-145z" />
    <glyph glyph-name="Iacute" unicode="&#xcd;" horiz-adv-x="883" 
d="M425 1516h492l-41 -173h-141l-268 -1171h139l-39 -172h-492l39 172h144l270 1171h-143zM827 1957h240v-17l-299 -282h-154z" />
    <glyph glyph-name="Icircumflex" unicode="&#xce;" horiz-adv-x="883" 
d="M425 1516h492l-41 -173h-141l-268 -1171h139l-39 -172h-492l39 172h144l270 1171h-143zM446 1651l267 273h112l120 -273h-160l-44 125l-105 -125h-190z" />
    <glyph glyph-name="Idieresis" unicode="&#xcf;" horiz-adv-x="883" 
d="M425 1516h492l-41 -173h-141l-268 -1171h139l-39 -172h-492l39 172h144l270 1171h-143zM416 1840c0 35.333 12.667 65.666 38 90.999s55.666 38 90.999 38c16.667 0 32.834 -3.5 48.501 -10.5s29 -16.167 40 -27.5s19.833 -25 26.5 -41s10 -32.667 10 -50
c0 -18 -3.33301 -35.167 -10 -51.5s-15.5 -30.666 -26.5 -42.999s-24.333 -21.833 -40 -28.5s-31.834 -10 -48.501 -10c-35.333 0 -65.666 13.333 -90.999 40s-38 57.667 -38 93zM732 1840c0 35.333 12.667 65.666 38 90.999s55.666 38 90.999 38c16 0 32 -3.5 48 -10.5
s29.333 -16.167 40 -27.5s19.5 -25 26.5 -41s10.5 -32.667 10.5 -50c0 -18 -3.5 -35.167 -10.5 -51.5s-15.833 -30.666 -26.5 -42.999s-24 -21.833 -40 -28.5s-32 -10 -48 -10c-35.333 0 -65.666 13.333 -90.999 40s-38 57.667 -38 93z" />
    <glyph glyph-name="Eth" unicode="&#xd0;" horiz-adv-x="1561" 
d="M184 690l39 172h182l111 481h-131l40 173h549c88.667 0 168.834 -16.833 240.501 -50.5s132.667 -79.667 183 -138s89 -126.5 116 -204.5s40.5 -161 40.5 -249c0 -87.333 -10.5 -169.5 -31.5 -246.5s-50.667 -148 -89 -213s-84.833 -123 -139.5 -174
s-115.334 -94.333 -182.001 -130s-138.667 -63 -216 -82s-158.333 -28.5 -243 -28.5h-578l39 172h132l119 518h-181zM723 1343l-109.997 -481.001h241l-39 -172h-242l-118 -518h220c55.333 0 110 7.33301 164 22s105.5 36 154.5 64s94.333 62 136 102s77.667 85.333 108 136
s54.166 106.334 71.499 167.001s26 125.667 26 195c0 64.667 -9.16699 126.167 -27.5 184.5s-44.333 109.833 -78 154.5s-74.334 80.167 -122.001 106.5s-100.834 39.5 -159.501 39.5h-225z" />
    <glyph glyph-name="Ntilde" unicode="&#xd1;" horiz-adv-x="1786" 
d="M1370 1516h491l-39 -173h-136l-308 -1343h-262l-413 1255l-249 -1083h152l-39 -172h-492l39 172h133l271 1171h-150l41 173h416l408 -1246l246 1073h-148zM1065 1895c33.333 0 62.166 -5.5 86.499 -16.5s47 -23 68 -36s41.833 -24.833 62.5 -35.5s44 -16 70 -16
c18.667 0 36.834 6.33301 54.501 19s29.5 33 35.5 61l119 -35c-13.333 -56.667 -39.333 -100.5 -78 -131.5s-85 -46.5 -139 -46.5c-37.333 0 -69 5.16699 -95 15.5s-49.667 21.5 -71 33.5l-60 33.5c-18.667 10.333 -39 15.5 -61 15.5c-10 0 -20.167 -0.666992 -30.5 -2
s-20.5 -4.5 -30.5 -9.5s-19.167 -12.667 -27.5 -23s-14.833 -24.833 -19.5 -43.5l-109 53c8.66699 31.333 21 57.5 37 78.5s34 37.833 54 50.5s41.5 21.667 64.5 27s46.167 8 69.5 8z" />
    <glyph glyph-name="Ograve" unicode="&#xd2;" horiz-adv-x="1577" 
d="M712 -31c-85.333 0 -166.5 16.3311 -243.5 48.998s-144.667 78.834 -203 138.501s-104.666 131.667 -138.999 216s-51.5 178.5 -51.5 282.5c0 87.333 10.333 169.833 31 247.5s49.667 149.5 87 215.5s82.166 125.333 134.499 178s110.333 97.334 174 134.001
s131.834 64.834 204.501 84.501s148.334 29.5 227.001 29.5c85.333 0 166.5 -14.833 243.5 -44.5s144.667 -72.834 203 -129.501s104.666 -126.167 138.999 -208.5s51.5 -175.833 51.5 -280.5c0 -89.333 -10 -174 -30 -254s-48.167 -153.667 -84.5 -221
s-80.333 -128 -132 -182s-109.334 -99.833 -173.001 -137.5s-132.5 -66.667 -206.5 -87s-151.333 -30.5 -232 -30.5zM735 171.998c57.333 0 112.333 8.00098 165 24.001s101.667 38.833 147 68.5s86.5 65.334 123.5 107.001s68.5 88.167 94.5 139.5
s46.167 106.666 60.5 165.999s21.5 121.666 21.5 186.999c0 72.667 -10.833 138.334 -32.5 197.001s-51.834 108.834 -90.501 150.501s-84.667 73.667 -138 96s-111.666 33.5 -174.999 33.5c-82.667 0 -161 -16.667 -235 -50s-139 -79.833 -195 -139.5
s-100.333 -130.334 -133 -212.001s-49 -170.834 -49 -267.501c0 -71.333 10.833 -137.5 32.5 -198.5s51.834 -113.833 90.501 -158.5s84.667 -79.667 138 -105s111.666 -38 174.999 -38zM856 1698l-287 282v17h248l184 -299h-145z" />
    <glyph glyph-name="Oacute" unicode="&#xd3;" horiz-adv-x="1577" 
d="M712 -31c-85.333 0 -166.5 16.3311 -243.5 48.998s-144.667 78.834 -203 138.501s-104.666 131.667 -138.999 216s-51.5 178.5 -51.5 282.5c0 87.333 10.333 169.833 31 247.5s49.667 149.5 87 215.5s82.166 125.333 134.499 178s110.333 97.334 174 134.001
s131.834 64.834 204.501 84.501s148.334 29.5 227.001 29.5c85.333 0 166.5 -14.833 243.5 -44.5s144.667 -72.834 203 -129.501s104.666 -126.167 138.999 -208.5s51.5 -175.833 51.5 -280.5c0 -89.333 -10 -174 -30 -254s-48.167 -153.667 -84.5 -221
s-80.333 -128 -132 -182s-109.334 -99.833 -173.001 -137.5s-132.5 -66.667 -206.5 -87s-151.333 -30.5 -232 -30.5zM735 171.998c57.333 0 112.333 8.00098 165 24.001s101.667 38.833 147 68.5s86.5 65.334 123.5 107.001s68.5 88.167 94.5 139.5
s46.167 106.666 60.5 165.999s21.5 121.666 21.5 186.999c0 72.667 -10.833 138.334 -32.5 197.001s-51.834 108.834 -90.501 150.501s-84.667 73.667 -138 96s-111.666 33.5 -174.999 33.5c-82.667 0 -161 -16.667 -235 -50s-139 -79.833 -195 -139.5
s-100.333 -130.334 -133 -212.001s-49 -170.834 -49 -267.501c0 -71.333 10.833 -137.5 32.5 -198.5s51.834 -113.833 90.501 -158.5s84.667 -79.667 138 -105s111.666 -38 174.999 -38zM1055 1997h240v-17l-299 -282h-154z" />
    <glyph glyph-name="Ocircumflex" unicode="&#xd4;" horiz-adv-x="1577" 
d="M712 -31c-85.333 0 -166.5 16.3311 -243.5 48.998s-144.667 78.834 -203 138.501s-104.666 131.667 -138.999 216s-51.5 178.5 -51.5 282.5c0 87.333 10.333 169.833 31 247.5s49.667 149.5 87 215.5s82.166 125.333 134.499 178s110.333 97.334 174 134.001
s131.834 64.834 204.501 84.501s148.334 29.5 227.001 29.5c85.333 0 166.5 -14.833 243.5 -44.5s144.667 -72.834 203 -129.501s104.666 -126.167 138.999 -208.5s51.5 -175.833 51.5 -280.5c0 -89.333 -10 -174 -30 -254s-48.167 -153.667 -84.5 -221
s-80.333 -128 -132 -182s-109.334 -99.833 -173.001 -137.5s-132.5 -66.667 -206.5 -87s-151.333 -30.5 -232 -30.5zM735 171.998c57.333 0 112.333 8.00098 165 24.001s101.667 38.833 147 68.5s86.5 65.334 123.5 107.001s68.5 88.167 94.5 139.5
s46.167 106.666 60.5 165.999s21.5 121.666 21.5 186.999c0 72.667 -10.833 138.334 -32.5 197.001s-51.834 108.834 -90.501 150.501s-84.667 73.667 -138 96s-111.666 33.5 -174.999 33.5c-82.667 0 -161 -16.667 -235 -50s-139 -79.833 -195 -139.5
s-100.333 -130.334 -133 -212.001s-49 -170.834 -49 -267.501c0 -71.333 10.833 -137.5 32.5 -198.5s51.834 -113.833 90.501 -158.5s84.667 -79.667 138 -105s111.666 -38 174.999 -38zM733 1691l297 273h111l151 -273h-170l-64 125l-119 -125h-206z" />
    <glyph glyph-name="Otilde" unicode="&#xd5;" horiz-adv-x="1577" 
d="M712 -31c-85.333 0 -166.5 16.3311 -243.5 48.998s-144.667 78.834 -203 138.501s-104.666 131.667 -138.999 216s-51.5 178.5 -51.5 282.5c0 87.333 10.333 169.833 31 247.5s49.667 149.5 87 215.5s82.166 125.333 134.499 178s110.333 97.334 174 134.001
s131.834 64.834 204.501 84.501s148.334 29.5 227.001 29.5c85.333 0 166.5 -14.833 243.5 -44.5s144.667 -72.834 203 -129.501s104.666 -126.167 138.999 -208.5s51.5 -175.833 51.5 -280.5c0 -89.333 -10 -174 -30 -254s-48.167 -153.667 -84.5 -221
s-80.333 -128 -132 -182s-109.334 -99.833 -173.001 -137.5s-132.5 -66.667 -206.5 -87s-151.333 -30.5 -232 -30.5zM735 171.998c57.333 0 112.333 8.00098 165 24.001s101.667 38.833 147 68.5s86.5 65.334 123.5 107.001s68.5 88.167 94.5 139.5
s46.167 106.666 60.5 165.999s21.5 121.666 21.5 186.999c0 72.667 -10.833 138.334 -32.5 197.001s-51.834 108.834 -90.501 150.501s-84.667 73.667 -138 96s-111.666 33.5 -174.999 33.5c-82.667 0 -161 -16.667 -235 -50s-139 -79.833 -195 -139.5
s-100.333 -130.334 -133 -212.001s-49 -170.834 -49 -267.501c0 -71.333 10.833 -137.5 32.5 -198.5s51.834 -113.833 90.501 -158.5s84.667 -79.667 138 -105s111.666 -38 174.999 -38zM895 1935c33.333 0 62.166 -5.5 86.499 -16.5s47 -23 68 -36
s41.833 -24.833 62.5 -35.5s44 -16 70 -16c18.667 0 36.834 6.33301 54.501 19s29.5 33 35.5 61l119 -35c-13.333 -56.667 -39.333 -100.5 -78 -131.5s-85 -46.5 -139 -46.5c-37.333 0 -69 5.16699 -95 15.5s-49.667 21.5 -71 33.5l-60 33.5
c-18.667 10.333 -39 15.5 -61 15.5c-10 0 -20.167 -0.666992 -30.5 -2s-20.5 -4.5 -30.5 -9.5s-19.167 -12.667 -27.5 -23s-14.833 -24.833 -19.5 -43.5l-109 53c8.66699 31.333 21 57.5 37 78.5s34 37.833 54 50.5s41.5 21.667 64.5 27s46.167 8 69.5 8z" />
    <glyph glyph-name="Odieresis" unicode="&#xd6;" horiz-adv-x="1577" 
d="M712 -31c-85.333 0 -166.5 16.3311 -243.5 48.998s-144.667 78.834 -203 138.501s-104.666 131.667 -138.999 216s-51.5 178.5 -51.5 282.5c0 87.333 10.333 169.833 31 247.5s49.667 149.5 87 215.5s82.166 125.333 134.499 178s110.333 97.334 174 134.001
s131.834 64.834 204.501 84.501s148.334 29.5 227.001 29.5c85.333 0 166.5 -14.833 243.5 -44.5s144.667 -72.834 203 -129.501s104.666 -126.167 138.999 -208.5s51.5 -175.833 51.5 -280.5c0 -89.333 -10 -174 -30 -254s-48.167 -153.667 -84.5 -221
s-80.333 -128 -132 -182s-109.334 -99.833 -173.001 -137.5s-132.5 -66.667 -206.5 -87s-151.333 -30.5 -232 -30.5zM735 171.998c57.333 0 112.333 8.00098 165 24.001s101.667 38.833 147 68.5s86.5 65.334 123.5 107.001s68.5 88.167 94.5 139.5
s46.167 106.666 60.5 165.999s21.5 121.666 21.5 186.999c0 72.667 -10.833 138.334 -32.5 197.001s-51.834 108.834 -90.501 150.501s-84.667 73.667 -138 96s-111.666 33.5 -174.999 33.5c-82.667 0 -161 -16.667 -235 -50s-139 -79.833 -195 -139.5
s-100.333 -130.334 -133 -212.001s-49 -170.834 -49 -267.501c0 -71.333 10.833 -137.5 32.5 -198.5s51.834 -113.833 90.501 -158.5s84.667 -79.667 138 -105s111.666 -38 174.999 -38zM651 1880c0 17.333 3.5 33.833 10.5 49.5s16.333 29.334 28 41.001
s25.334 21 41.001 28s32.167 10.5 49.5 10.5c16.667 0 32.667 -3.5 48 -10.5s28.666 -16.333 39.999 -28s20.333 -25.334 27 -41.001s10 -32.167 10 -49.5c0 -18 -3.33301 -35 -10 -51s-15.667 -30.167 -27 -42.5s-24.666 -22 -39.999 -29s-31.333 -10.5 -48 -10.5
c-17.333 0 -33.833 3.5 -49.5 10.5s-29.334 16.667 -41.001 29s-21 26.5 -28 42.5s-10.5 33 -10.5 51zM1110 1880c0 17.333 3.5 33.833 10.5 49.5s16.333 29.334 28 41.001s25.334 21 41.001 28s32.167 10.5 49.5 10.5c16.667 0 32.5 -3.5 47.5 -10.5s28.333 -16.333 40 -28
s20.834 -25.334 27.501 -41.001s10 -32.167 10 -49.5c0 -18 -3.33301 -35 -10 -51s-15.834 -30.167 -27.501 -42.5s-25 -22 -40 -29s-30.833 -10.5 -47.5 -10.5c-17.333 0 -33.833 3.5 -49.5 10.5s-29.334 16.667 -41.001 29s-21 26.5 -28 42.5s-10.5 33 -10.5 51z" />
    <glyph glyph-name="multiply" unicode="&#xd7;" horiz-adv-x="1221" 
d="M510 702l-256 426l160 117l244 -405l450 422l133 -140l-480 -452l273 -451l-164 -113l-257 425l-459 -431l-134 142z" />
    <glyph glyph-name="Oslash" unicode="&#xd8;" horiz-adv-x="1577" 
d="M1280 1536l227.999 -0.00195312l-124 -171c56 -55.333 101 -123.666 135 -204.999s51 -174.333 51 -279c0 -89.333 -10 -174 -30 -254s-48.167 -153.667 -84.5 -221s-80.333 -128 -132 -182s-109.334 -99.833 -173.001 -137.5s-132.5 -66.667 -206.5 -87
s-151.333 -30.5 -232 -30.5c-105.333 0 -203 24 -293 72l-45 -61h-228l124 171c-61.333 63.333 -109.166 137.166 -143.499 221.499s-51.5 178.5 -51.5 282.5c0 87.333 10.333 169.833 31 247.5s49.667 149.5 87 215.5s82.166 125.333 134.499 178
s110.333 97.334 174 134.001s131.834 64.834 204.501 84.501s148.334 29.5 227.001 29.5c110 0 210.333 -23.667 301 -71zM1106 1298c-66.667 28.667 -131.667 43.002 -195 43.002c-82.667 0 -161 -16.667 -235 -50s-139 -79.833 -195 -139.5
s-100.333 -130.334 -133 -212.001s-49 -170.834 -49 -267.501c0 -71.333 10 -135.333 30 -192s45.333 -105 76 -145zM734.999 172c57.333 0 112.333 8 165 24s101.667 38.833 147 68.5s86.5 65.334 123.5 107.001s68.5 88.167 94.5 139.5s46.167 106.666 60.5 165.999
s21.5 121.666 21.5 186.999c0 72.667 -9.66699 134.834 -29 186.501s-42.333 95.167 -69 130.5l-703 -965c62.667 -29.333 125.667 -44 189 -44z" />
    <glyph glyph-name="Ugrave" unicode="&#xd9;" horiz-adv-x="1581" 
d="M282 1516l492.001 -0.00292969l-39 -173h-140l-161 -704c-5.33301 -23.333 -10.166 -48.166 -14.499 -74.499s-6.5 -56.166 -6.5 -89.499c-0.666992 -36.667 5 -72.834 17 -108.501s30.667 -67.667 56 -96s57.666 -51.166 96.999 -68.499s86.333 -26 141 -26
c55.333 0 106.5 7.83301 153.5 23.5s89.5 41.667 127.5 78s71.5 84 100.5 143s53.5 131.833 73.5 218.5l162 704h-152l39 173h492l-39 -173h-133l-166 -722c-26 -114 -60.5 -211.833 -103.5 -293.5s-93.167 -148.667 -150.5 -201s-121.333 -90.666 -192 -114.999
s-147.334 -36.5 -230.001 -36.5c-72.667 0 -140.167 10.833 -202.5 32.5s-116 53 -161 94s-80 91.167 -105 150.5s-36.833 127 -35.5 203c0 30 2 59.833 6 89.5s9.66699 61.167 17 94.5l162 704h-144zM893.001 1658l-287 282v17h248l184 -299h-145z" />
    <glyph glyph-name="Uacute" unicode="&#xda;" horiz-adv-x="1581" 
d="M282 1516l492.001 -0.00292969l-39 -173h-140l-161 -704c-5.33301 -23.333 -10.166 -48.166 -14.499 -74.499s-6.5 -56.166 -6.5 -89.499c-0.666992 -36.667 5 -72.834 17 -108.501s30.667 -67.667 56 -96s57.666 -51.166 96.999 -68.499s86.333 -26 141 -26
c55.333 0 106.5 7.83301 153.5 23.5s89.5 41.667 127.5 78s71.5 84 100.5 143s53.5 131.833 73.5 218.5l162 704h-152l39 173h492l-39 -173h-133l-166 -722c-26 -114 -60.5 -211.833 -103.5 -293.5s-93.167 -148.667 -150.5 -201s-121.333 -90.666 -192 -114.999
s-147.334 -36.5 -230.001 -36.5c-72.667 0 -140.167 10.833 -202.5 32.5s-116 53 -161 94s-80 91.167 -105 150.5s-36.833 127 -35.5 203c0 30 2 59.833 6 89.5s9.66699 61.167 17 94.5l162 704h-144zM1107 1957h240v-17l-299 -282h-154z" />
    <glyph glyph-name="Ucircumflex" unicode="&#xdb;" horiz-adv-x="1581" 
d="M282 1516l492.001 -0.00292969l-39 -173h-140l-161 -704c-5.33301 -23.333 -10.166 -48.166 -14.499 -74.499s-6.5 -56.166 -6.5 -89.499c-0.666992 -36.667 5 -72.834 17 -108.501s30.667 -67.667 56 -96s57.666 -51.166 96.999 -68.499s86.333 -26 141 -26
c55.333 0 106.5 7.83301 153.5 23.5s89.5 41.667 127.5 78s71.5 84 100.5 143s53.5 131.833 73.5 218.5l162 704h-152l39 173h492l-39 -173h-133l-166 -722c-26 -114 -60.5 -211.833 -103.5 -293.5s-93.167 -148.667 -150.5 -201s-121.333 -90.666 -192 -114.999
s-147.334 -36.5 -230.001 -36.5c-72.667 0 -140.167 10.833 -202.5 32.5s-116 53 -161 94s-80 91.167 -105 150.5s-36.833 127 -35.5 203c0 30 2 59.833 6 89.5s9.66699 61.167 17 94.5l162 704h-144zM770.001 1651l297 273h111l151 -273h-170l-64 125l-119 -125h-206z" />
    <glyph glyph-name="Udieresis" unicode="&#xdc;" horiz-adv-x="1581" 
d="M282 1516l492.001 -0.00292969l-39 -173h-140l-161 -704c-5.33301 -23.333 -10.166 -48.166 -14.499 -74.499s-6.5 -56.166 -6.5 -89.499c-0.666992 -36.667 5 -72.834 17 -108.501s30.667 -67.667 56 -96s57.666 -51.166 96.999 -68.499s86.333 -26 141 -26
c55.333 0 106.5 7.83301 153.5 23.5s89.5 41.667 127.5 78s71.5 84 100.5 143s53.5 131.833 73.5 218.5l162 704h-152l39 173h492l-39 -173h-133l-166 -722c-26 -114 -60.5 -211.833 -103.5 -293.5s-93.167 -148.667 -150.5 -201s-121.333 -90.666 -192 -114.999
s-147.334 -36.5 -230.001 -36.5c-72.667 0 -140.167 10.833 -202.5 32.5s-116 53 -161 94s-80 91.167 -105 150.5s-36.833 127 -35.5 203c0 30 2 59.833 6 89.5s9.66699 61.167 17 94.5l162 704h-144zM689.001 1840c0 17.333 3.5 33.833 10.5 49.5s16.333 29.334 28 41.001
s25.334 21 41.001 28s32.167 10.5 49.5 10.5c16.667 0 32.667 -3.5 48 -10.5s28.666 -16.333 39.999 -28s20.333 -25.334 27 -41.001s10 -32.167 10 -49.5c0 -18 -3.33301 -35 -10 -51s-15.667 -30.167 -27 -42.5s-24.666 -22 -39.999 -29s-31.333 -10.5 -48 -10.5
c-17.333 0 -33.833 3.5 -49.5 10.5s-29.334 16.667 -41.001 29s-21 26.5 -28 42.5s-10.5 33 -10.5 51zM1148 1840c0 17.333 3.5 33.833 10.5 49.5s16.333 29.334 28 41.001s25.334 21 41.001 28s32.167 10.5 49.5 10.5c16.667 0 32.5 -3.5 47.5 -10.5s28.333 -16.333 40 -28
s20.834 -25.334 27.501 -41.001s10 -32.167 10 -49.5c0 -18 -3.33301 -35 -10 -51s-15.834 -30.167 -27.501 -42.5s-25 -22 -40 -29s-30.833 -10.5 -47.5 -10.5c-17.333 0 -33.833 3.5 -49.5 10.5s-29.334 16.667 -41.001 29s-21 26.5 -28 42.5s-10.5 33 -10.5 51z" />
    <glyph glyph-name="Yacute" unicode="&#xdd;" horiz-adv-x="1323" 
d="M214 1516h491l-39 -173h-122l175 -473l411 473h-122l39 173h492l-39 -173h-123l-586 -656l-120 -515h141l-39 -172h-492l39 172h141l120 519l-259 652h-147zM957 1957h240v-17l-299 -282h-154z" />
    <glyph glyph-name="Thorn" unicode="&#xde;" horiz-adv-x="1320" 
d="M425 1516l492.001 -0.000976562l-41 -173h-141l-31 -135h272c58.667 0 112.834 -7.66699 162.501 -23s92.5 -37.833 128.5 -67.5s64.167 -65.834 84.5 -108.501s30.5 -91 30.5 -145c0 -69.333 -12.833 -133.166 -38.5 -191.499s-62.334 -108.666 -110.001 -150.999
s-105.334 -75.333 -173.001 -99s-143.5 -35.5 -227.5 -35.5h-317l-49 -215h139l-39 -172h-492l39 172h144l270 1171h-143zM665.001 1036l-109 -477h291c46 0 88.667 6.16699 128 18.5s73.5 30.5 102.5 54.5s51.833 54 68.5 90s25 78 25 126c0 56.667 -19 102.167 -57 136.5
s-98.333 51.5 -181 51.5h-268z" />
    <glyph glyph-name="germandbls" unicode="&#xdf;" horiz-adv-x="1348" 
d="M-9 172l195.001 0.00195312l233 1008c14 61.333 35.167 116.5 63.5 165.5s63 90.667 104 125s88.333 60.666 142 78.999s113.167 27.5 178.5 27.5c56 0 106.833 -9.16699 152.5 -27.5s84.834 -43.666 117.501 -75.999s58 -70.5 76 -114.5s27 -91.333 27 -142
c0 -42 -5.83301 -79.667 -17.5 -113s-26.667 -63.166 -45 -89.499s-38.833 -49.5 -61.5 -69.5s-45 -38 -67 -54c22.667 -18 44 -38.5 64 -61.5s37.5 -48.333 52.5 -76s26.667 -57.5 35 -89.5s12.5 -65.667 12.5 -101c0 -85.333 -16.333 -163.166 -49 -233.499
s-77 -130.5 -133 -180.5s-121.667 -88.667 -197 -116s-155.333 -41 -240 -41c-13.333 0 -29 0.5 -47 1.5s-33.667 2.5 -47 4.5l43 184c13.333 -3.33301 25.666 -5.5 36.999 -6.5s23.666 -1.5 36.999 -1.5c50 0 98.667 9.16699 146 27.5s89.5 44 126.5 77s66.667 72 89 117
s33.5 94.167 33.5 147.5c0 38 -6.66699 72.833 -20 104.5s-31.333 58.667 -54 81s-49 39.666 -79 51.999s-61.667 18.5 -95 18.5h-80l44 186h75c30 0 59.167 5.16699 87.5 15.5s53.5 25.166 75.5 44.499s39.667 42.5 53 69.5s20 57.5 20 91.5
c0 26.667 -4.5 51.334 -13.5 74.001s-22 42.167 -39 58.5s-37.667 29.166 -62 38.499s-51.833 14 -82.5 14c-32 0 -62.333 -5.83301 -91 -17.5s-54.667 -27.834 -78 -48.501s-43.333 -45.334 -60 -74.001s-29 -60 -37 -94l-266 -1157h-398z" />
    <glyph glyph-name="agrave" unicode="&#xe0;" horiz-adv-x="1307" 
d="M783 70c-44.667 -30 -89.501 -52.168 -134.501 -66.501s-91.5 -21.5 -139.5 -21.5c-56.667 0 -109.667 11 -159 33s-92.166 52 -128.499 90s-65 82.833 -86 134.5s-31.5 107.167 -31.5 166.5c0 96.667 17 185.334 51 266.001s80.167 150 138.5 208s126.333 103 204 135
s160.167 48 247.5 48c50 0 97 -7.5 141 -22.5s80 -34.5 108 -58.5l13 54h201l-200 -864h161l-39 -172h-363zM555.999 153.999c24.667 0 49.834 3.00293 75.501 9.00293s50.167 13.667 73.5 23s45.333 20.166 66 32.499s39 25.166 55 38.499l129 554
c-17.333 22 -44.333 40.833 -81 56.5s-84.667 23.5 -144 23.5c-51.333 0 -102 -10.5 -152 -31.5s-94.667 -51.333 -134 -91s-71.333 -88.334 -96 -146.001s-37 -123.167 -37 -196.5c0 -42.667 6 -80.834 18 -114.501s28.667 -62.167 50 -85.5s47.166 -41.166 77.499 -53.499
s63.5 -18.5 99.5 -18.5zM693.999 1178l-287 282v17h248l184 -299h-145z" />
    <glyph glyph-name="aacute" unicode="&#xe1;" horiz-adv-x="1307" 
d="M783 70c-44.667 -30 -89.501 -52.168 -134.501 -66.501s-91.5 -21.5 -139.5 -21.5c-56.667 0 -109.667 11 -159 33s-92.166 52 -128.499 90s-65 82.833 -86 134.5s-31.5 107.167 -31.5 166.5c0 96.667 17 185.334 51 266.001s80.167 150 138.5 208s126.333 103 204 135
s160.167 48 247.5 48c50 0 97 -7.5 141 -22.5s80 -34.5 108 -58.5l13 54h201l-200 -864h161l-39 -172h-363zM555.999 153.999c24.667 0 49.834 3.00293 75.501 9.00293s50.167 13.667 73.5 23s45.333 20.166 66 32.499s39 25.166 55 38.499l129 554
c-17.333 22 -44.333 40.833 -81 56.5s-84.667 23.5 -144 23.5c-51.333 0 -102 -10.5 -152 -31.5s-94.667 -51.333 -134 -91s-71.333 -88.334 -96 -146.001s-37 -123.167 -37 -196.5c0 -42.667 6 -80.834 18 -114.501s28.667 -62.167 50 -85.5s47.166 -41.166 77.499 -53.499
s63.5 -18.5 99.5 -18.5zM862.999 1477h240v-17l-299 -282h-154z" />
    <glyph glyph-name="acircumflex" unicode="&#xe2;" horiz-adv-x="1307" 
d="M783 70c-44.667 -30 -89.501 -52.168 -134.501 -66.501s-91.5 -21.5 -139.5 -21.5c-56.667 0 -109.667 11 -159 33s-92.166 52 -128.499 90s-65 82.833 -86 134.5s-31.5 107.167 -31.5 166.5c0 96.667 17 185.334 51 266.001s80.167 150 138.5 208s126.333 103 204 135
s160.167 48 247.5 48c50 0 97 -7.5 141 -22.5s80 -34.5 108 -58.5l13 54h201l-200 -864h161l-39 -172h-363zM555.999 153.999c24.667 0 49.834 3.00293 75.501 9.00293s50.167 13.667 73.5 23s45.333 20.166 66 32.499s39 25.166 55 38.499l129 554
c-17.333 22 -44.333 40.833 -81 56.5s-84.667 23.5 -144 23.5c-51.333 0 -102 -10.5 -152 -31.5s-94.667 -51.333 -134 -91s-71.333 -88.334 -96 -146.001s-37 -123.167 -37 -196.5c0 -42.667 6 -80.834 18 -114.501s28.667 -62.167 50 -85.5s47.166 -41.166 77.499 -53.499
s63.5 -18.5 99.5 -18.5zM551.999 1171l297 273h111l151 -273h-170l-64 125l-119 -125h-206z" />
    <glyph glyph-name="atilde" unicode="&#xe3;" horiz-adv-x="1307" 
d="M771 70c-44.667 -30 -89.501 -52.168 -134.501 -66.501s-91.5 -21.5 -139.5 -21.5c-56.667 0 -109.667 11 -159 33s-92.166 52 -128.499 90s-65 82.833 -86 134.5s-31.5 107.167 -31.5 166.5c0 96.667 17 185.334 51 266.001s80.167 150 138.5 208s126.333 103 204 135
s160.167 48 247.5 48c50 0 97 -7.5 141 -22.5s80 -34.5 108 -58.5l13 54h201l-200 -864h161l-39 -172h-363zM543.999 153.999c24.667 0 49.834 3.00293 75.501 9.00293s50.167 13.667 73.5 23s45.333 20.166 66 32.499s39 25.166 55 38.499l129 554
c-17.333 22 -44.333 40.833 -81 56.5s-84.667 23.5 -144 23.5c-51.333 0 -102 -10.5 -152 -31.5s-94.667 -51.333 -134 -91s-71.333 -88.334 -96 -146.001s-37 -123.167 -37 -196.5c0 -42.667 6 -80.834 18 -114.501s28.667 -62.167 50 -85.5s47.166 -41.166 77.499 -53.499
s63.5 -18.5 99.5 -18.5zM652.999 1415c33.333 0 62.166 -5.5 86.499 -16.5s47 -23 68 -36s41.833 -24.833 62.5 -35.5s44 -16 70 -16c18.667 0 36.834 6.33301 54.501 19s29.5 33 35.5 61l119 -35c-13.333 -56.667 -39.333 -100.5 -78 -131.5s-85 -46.5 -139 -46.5
c-37.333 0 -69 5.16699 -95 15.5s-49.667 21.5 -71 33.5l-60 33.5c-18.667 10.333 -39 15.5 -61 15.5c-10 0 -20.167 -0.666992 -30.5 -2s-20.5 -4.5 -30.5 -9.5s-19.167 -12.667 -27.5 -23s-14.833 -24.833 -19.5 -43.5l-109 53c8.66699 31.333 21 57.5 37 78.5
s34 37.833 54 50.5s41.5 21.667 64.5 27s46.167 8 69.5 8z" />
    <glyph glyph-name="adieresis" unicode="&#xe4;" horiz-adv-x="1307" 
d="M783 70c-44.667 -30 -89.501 -52.168 -134.501 -66.501s-91.5 -21.5 -139.5 -21.5c-56.667 0 -109.667 11 -159 33s-92.166 52 -128.499 90s-65 82.833 -86 134.5s-31.5 107.167 -31.5 166.5c0 96.667 17 185.334 51 266.001s80.167 150 138.5 208s126.333 103 204 135
s160.167 48 247.5 48c50 0 97 -7.5 141 -22.5s80 -34.5 108 -58.5l13 54h201l-200 -864h161l-39 -172h-363zM555.999 153.999c24.667 0 49.834 3.00293 75.501 9.00293s50.167 13.667 73.5 23s45.333 20.166 66 32.499s39 25.166 55 38.499l129 554
c-17.333 22 -44.333 40.833 -81 56.5s-84.667 23.5 -144 23.5c-51.333 0 -102 -10.5 -152 -31.5s-94.667 -51.333 -134 -91s-71.333 -88.334 -96 -146.001s-37 -123.167 -37 -196.5c0 -42.667 6 -80.834 18 -114.501s28.667 -62.167 50 -85.5s47.166 -41.166 77.499 -53.499
s63.5 -18.5 99.5 -18.5zM450.999 1360c0 17.333 3.5 33.833 10.5 49.5s16.333 29.334 28 41.001s25.334 21 41.001 28s32.167 10.5 49.5 10.5c16.667 0 32.667 -3.5 48 -10.5s28.666 -16.333 39.999 -28s20.333 -25.334 27 -41.001s10 -32.167 10 -49.5
c0 -18 -3.33301 -35 -10 -51s-15.667 -30.167 -27 -42.5s-24.666 -22 -39.999 -29s-31.333 -10.5 -48 -10.5c-17.333 0 -33.833 3.5 -49.5 10.5s-29.334 16.667 -41.001 29s-21 26.5 -28 42.5s-10.5 33 -10.5 51zM909.999 1360c0 17.333 3.5 33.833 10.5 49.5
s16.333 29.334 28 41.001s25.334 21 41.001 28s32.167 10.5 49.5 10.5c16.667 0 32.5 -3.5 47.5 -10.5s28.333 -16.333 40 -28s20.834 -25.334 27.501 -41.001s10 -32.167 10 -49.5c0 -18 -3.33301 -35 -10 -51s-15.834 -30.167 -27.501 -42.5s-25 -22 -40 -29
s-30.833 -10.5 -47.5 -10.5c-17.333 0 -33.833 3.5 -49.5 10.5s-29.334 16.667 -41.001 29s-21 26.5 -28 42.5s-10.5 33 -10.5 51z" />
    <glyph glyph-name="aring" unicode="&#xe5;" horiz-adv-x="1307" 
d="M771 70c-44.667 -30 -89.501 -52.168 -134.501 -66.501s-91.5 -21.5 -139.5 -21.5c-56.667 0 -109.667 11 -159 33s-92.166 52 -128.499 90s-65 82.833 -86 134.5s-31.5 107.167 -31.5 166.5c0 96.667 17 185.334 51 266.001s80.167 150 138.5 208s126.333 103 204 135
s160.167 48 247.5 48c50 0 97 -7.5 141 -22.5s80 -34.5 108 -58.5l13 54h201l-200 -864h161l-39 -172h-363zM543.999 153.999c24.667 0 49.834 3.00293 75.501 9.00293s50.167 13.667 73.5 23s45.333 20.166 66 32.499s39 25.166 55 38.499l129 554
c-17.333 22 -44.333 40.833 -81 56.5s-84.667 23.5 -144 23.5c-51.333 0 -102 -10.5 -152 -31.5s-94.667 -51.333 -134 -91s-71.333 -88.334 -96 -146.001s-37 -123.167 -37 -196.5c0 -42.667 6 -80.834 18 -114.501s28.667 -62.167 50 -85.5s47.166 -41.166 77.499 -53.499
s63.5 -18.5 99.5 -18.5zM712.999 1342c0 -14 2.83301 -27.167 8.5 -39.5s13.334 -23.333 23.001 -33s20.667 -17.334 33 -23.001s25.5 -8.5 39.5 -8.5s27.333 2.83301 40 8.5s23.834 13.334 33.501 23.001s17.334 20.667 23.001 33s8.5 25.5 8.5 39.5
s-2.83301 27.333 -8.5 40s-13.334 23.834 -23.001 33.501s-20.834 17.334 -33.501 23.001s-26 8.5 -40 8.5s-27.167 -2.83301 -39.5 -8.5s-23.333 -13.334 -33 -23.001s-17.334 -20.834 -23.001 -33.501s-8.5 -26 -8.5 -40zM816.999 1598c34.667 0 67.667 -6.83301 99 -20.5
s58.5 -32 81.5 -55s41.333 -50.167 55 -81.5s20.5 -64.333 20.5 -99s-6.83301 -67.5 -20.5 -98.5s-32 -58.167 -55 -81.5s-50.167 -41.833 -81.5 -55.5s-64.333 -20.5 -99 -20.5s-67.5 6.83301 -98.5 20.5s-58.167 32.167 -81.5 55.5s-41.833 50.5 -55.5 81.5
s-20.5 63.833 -20.5 98.5s6.83301 67.667 20.5 99s32.167 58.5 55.5 81.5s50.5 41.333 81.5 55s63.833 20.5 98.5 20.5z" />
    <glyph glyph-name="ae" unicode="&#xe6;" horiz-adv-x="1755" 
d="M508 606c45.333 0 85.1699 -1.83789 119.503 -5.50488s64.166 -8.83398 89.499 -15.501l23 95c8.66699 36.667 10.667 68.5 6 95.5s-14.667 49.333 -30 67s-35.833 30.834 -61.5 39.501s-55.167 13 -88.5 13c-31.333 0 -61.833 -2.16699 -91.5 -6.5s-58 -10 -85 -17
s-52 -15 -75 -24s-43.167 -18.5 -60.5 -28.5l-30 129c28 16 58.333 30.833 91 44.5s66.167 25.334 100.5 35.001s69 17.334 104 23.001s68.833 8.5 101.5 8.5c72.667 0 133.5 -11.167 182.5 -33.5s84.833 -57.5 107.5 -105.5c52 46 111.167 82 177.5 108
s137.833 39 214.5 39c66 0 124.833 -11.167 176.5 -33.5s95.5 -51.833 131.5 -88.5s63.333 -79 82 -127s28 -97.333 28 -148c0 -34 -1.83301 -66.833 -5.5 -98.5s-8.16699 -61.167 -13.5 -88.5h-796c-0.666992 -9.33301 -1.16699 -17.333 -1.5 -24s-0.5 -13 -0.5 -19
c0 -42 6.83301 -81 20.5 -117s32.5 -67.167 56.5 -93.5s52.833 -47 86.5 -62s70.5 -22.5 110.5 -22.5c54 0 105 10.833 153 32.5s88.667 53.167 122 94.5l147 -108c-22.667 -30 -49.667 -57 -81 -81s-66 -44.5 -104 -61.5s-78.5 -30 -121.5 -39s-86.833 -13.5 -131.5 -13.5
c-42.667 0 -83.5 4.83301 -122.5 14.5s-75.5 23.667 -109.5 42s-64.833 41 -92.5 68s-51.5 57.833 -71.5 92.5c-26 -35.333 -55.167 -66.333 -87.5 -93s-67 -49 -104 -67s-75.5 -31.667 -115.5 -41s-81 -14 -123 -14c-48 0 -92.833 5.33301 -134.5 16
s-77.834 27.334 -108.501 50.001s-54.834 51.167 -72.501 85.5s-26.5 75.5 -26.5 123.5c0 49.333 8 92.333 24 129s37.5 68.334 64.5 95.001s58 48.834 93 66.501s71.5 31.667 109.5 42s76.167 17.5 114.5 21.5s74.5 6 108.5 6zM355.004 126.995
c69.333 0 135.332 15.499 197.999 46.499s118 74.833 166 131.5c-5.33301 21.333 -9.33301 43.5 -12 66.5s-4 47.167 -4 72.5c0 10.667 0.333008 21.667 1 33h-230c-40.667 0 -78.667 -4.66699 -114 -14s-66.166 -22.666 -92.499 -39.999s-47 -38.833 -62 -64.5
s-22.5 -54.5 -22.5 -86.5c0 -49.333 15.5 -85.833 46.5 -109.5s72.833 -35.5 125.5 -35.5zM1276 896.994c-39.333 0 -76.501 -6.33105 -111.501 -18.998s-67 -30.334 -96 -53.001s-54.5 -49.334 -76.5 -80.001s-40 -64 -54 -100h590
c0.666992 41.333 -4.83301 77.833 -16.5 109.5s-28.667 58 -51 79s-49.166 36.833 -80.499 47.5s-66 16 -104 16z" />
    <glyph glyph-name="ccedilla" unicode="&#xe7;" horiz-adv-x="1135" 
d="M921 731c-10.667 26.667 -24.8301 49.998 -42.4971 69.998s-37.834 36.667 -60.501 50s-47.334 23.333 -74.001 30s-54.334 10 -83.001 10c-36.667 0 -75.834 -9.5 -117.501 -28.5s-80.334 -46.833 -116.001 -83.5s-65.167 -81.667 -88.5 -135s-35 -114.333 -35 -183
c0 -50 7.33301 -94.167 22 -132.5s34.334 -70.5 59.001 -96.5s53.334 -45.5 86.001 -58.5s67.334 -19.5 104.001 -19.5c26.667 0 51.667 2.16699 75 6.5s45.5 11.666 66.5 21.999s41.5 23.833 61.5 40.5s39.667 37.334 59 62.001l145 -109
c-26 -36.667 -55.333 -67.834 -88 -93.501s-67 -46.5 -103 -62.5s-73.167 -27.5 -111.5 -34.5s-76.166 -10.5 -113.499 -10.5c-68 0 -130.833 12.167 -188.5 36.5s-107.334 57.833 -149.001 100.5s-74.334 92.834 -98.001 150.501s-35.5 119.834 -35.5 186.501
c0 90.667 17 173.834 51 249.501s78.667 140.834 134 195.501s117.833 97.167 187.5 127.5s140.167 45.5 211.5 45.5c33.333 0 66.666 -3.16699 99.999 -9.5s65.333 -16.333 96 -30s59.334 -30.834 86.001 -51.501s50.667 -45 72 -73h125l-28 -172h-209v0zM307.004 -303.002
c36.667 0.666992 69.835 7.16602 99.502 19.499s55.667 28.5 78 48.5s40.666 43.5 54.999 70.5s24.166 55.833 29.499 86.5l150 -45c-12 -48.667 -30.667 -92.167 -56 -130.5s-55.5 -70.666 -90.5 -96.999s-74.167 -46.5 -117.5 -60.5s-89 -21 -137 -21z" />
    <glyph glyph-name="egrave" unicode="&#xe8;" horiz-adv-x="1171" 
d="M318 483c-0.666992 -9.33301 -1.3291 -17.333 -1.99609 -24s-1 -13 -1 -19c0 -42 6.83301 -81 20.5 -117s32.667 -67.167 57 -93.5s53.333 -47 87 -62s70.5 -22.5 110.5 -22.5c53.333 0 104.166 10.833 152.499 32.5s88.833 53.167 121.5 94.5l148 -108
c-22.667 -30 -49.667 -57 -81 -81s-66 -44.5 -104 -61.5s-78.5 -30 -121.5 -39s-86.833 -13.5 -131.5 -13.5c-64 0 -123.833 10.667 -179.5 32s-104.334 52.333 -146.001 93s-74.334 90.5 -98.001 149.5s-35.5 125.833 -35.5 200.5c0 86 15.167 166.833 45.5 242.5
s72.333 141.667 126 198s117.167 100.833 190.5 133.5s152.666 49 237.999 49c66 0 124.833 -11.167 176.5 -33.5s95.5 -51.833 131.5 -88.5s63.333 -79 82 -127s28 -97.333 28 -148c0 -34 -1.83301 -66.833 -5.5 -98.5s-8.16699 -61.167 -13.5 -88.5h-796zM688.005 897
c-40 0 -77.501 -6.33105 -112.501 -18.998s-66.833 -30.334 -95.5 -53.001s-54 -49.334 -76 -80.001s-40 -64 -54 -100h590c0.666992 41.333 -4.83301 77.833 -16.5 109.5s-28.667 58 -51 79s-49.166 36.833 -80.499 47.5s-66 16 -104 16zM610.004 1178l-287 282v17h248
l184 -299h-145z" />
    <glyph glyph-name="eacute" unicode="&#xe9;" horiz-adv-x="1171" 
d="M318 483c-0.666992 -9.33301 -1.3291 -17.333 -1.99609 -24s-1 -13 -1 -19c0 -42 6.83301 -81 20.5 -117s32.667 -67.167 57 -93.5s53.333 -47 87 -62s70.5 -22.5 110.5 -22.5c53.333 0 104.166 10.833 152.499 32.5s88.833 53.167 121.5 94.5l148 -108
c-22.667 -30 -49.667 -57 -81 -81s-66 -44.5 -104 -61.5s-78.5 -30 -121.5 -39s-86.833 -13.5 -131.5 -13.5c-64 0 -123.833 10.667 -179.5 32s-104.334 52.333 -146.001 93s-74.334 90.5 -98.001 149.5s-35.5 125.833 -35.5 200.5c0 86 15.167 166.833 45.5 242.5
s72.333 141.667 126 198s117.167 100.833 190.5 133.5s152.666 49 237.999 49c66 0 124.833 -11.167 176.5 -33.5s95.5 -51.833 131.5 -88.5s63.333 -79 82 -127s28 -97.333 28 -148c0 -34 -1.83301 -66.833 -5.5 -98.5s-8.16699 -61.167 -13.5 -88.5h-796zM688.005 897
c-40 0 -77.501 -6.33105 -112.501 -18.998s-66.833 -30.334 -95.5 -53.001s-54 -49.334 -76 -80.001s-40 -64 -54 -100h590c0.666992 41.333 -4.83301 77.833 -16.5 109.5s-28.667 58 -51 79s-49.166 36.833 -80.499 47.5s-66 16 -104 16zM809.004 1477h240v-17l-299 -282
h-154z" />
    <glyph glyph-name="ecircumflex" unicode="&#xea;" horiz-adv-x="1171" 
d="M318 483c-0.666992 -9.33301 -1.3291 -17.333 -1.99609 -24s-1 -13 -1 -19c0 -42 6.83301 -81 20.5 -117s32.667 -67.167 57 -93.5s53.333 -47 87 -62s70.5 -22.5 110.5 -22.5c53.333 0 104.166 10.833 152.499 32.5s88.833 53.167 121.5 94.5l148 -108
c-22.667 -30 -49.667 -57 -81 -81s-66 -44.5 -104 -61.5s-78.5 -30 -121.5 -39s-86.833 -13.5 -131.5 -13.5c-64 0 -123.833 10.667 -179.5 32s-104.334 52.333 -146.001 93s-74.334 90.5 -98.001 149.5s-35.5 125.833 -35.5 200.5c0 86 15.167 166.833 45.5 242.5
s72.333 141.667 126 198s117.167 100.833 190.5 133.5s152.666 49 237.999 49c66 0 124.833 -11.167 176.5 -33.5s95.5 -51.833 131.5 -88.5s63.333 -79 82 -127s28 -97.333 28 -148c0 -34 -1.83301 -66.833 -5.5 -98.5s-8.16699 -61.167 -13.5 -88.5h-796zM688.005 897
c-40 0 -77.501 -6.33105 -112.501 -18.998s-66.833 -30.334 -95.5 -53.001s-54 -49.334 -76 -80.001s-40 -64 -54 -100h590c0.666992 41.333 -4.83301 77.833 -16.5 109.5s-28.667 58 -51 79s-49.166 36.833 -80.499 47.5s-66 16 -104 16zM487.004 1171l297 273h111
l151 -273h-170l-64 125l-119 -125h-206z" />
    <glyph glyph-name="edieresis" unicode="&#xeb;" horiz-adv-x="1171" 
d="M318 483c-0.666992 -9.33301 -1.3291 -17.333 -1.99609 -24s-1 -13 -1 -19c0 -42 6.83301 -81 20.5 -117s32.667 -67.167 57 -93.5s53.333 -47 87 -62s70.5 -22.5 110.5 -22.5c53.333 0 104.166 10.833 152.499 32.5s88.833 53.167 121.5 94.5l148 -108
c-22.667 -30 -49.667 -57 -81 -81s-66 -44.5 -104 -61.5s-78.5 -30 -121.5 -39s-86.833 -13.5 -131.5 -13.5c-64 0 -123.833 10.667 -179.5 32s-104.334 52.333 -146.001 93s-74.334 90.5 -98.001 149.5s-35.5 125.833 -35.5 200.5c0 86 15.167 166.833 45.5 242.5
s72.333 141.667 126 198s117.167 100.833 190.5 133.5s152.666 49 237.999 49c66 0 124.833 -11.167 176.5 -33.5s95.5 -51.833 131.5 -88.5s63.333 -79 82 -127s28 -97.333 28 -148c0 -34 -1.83301 -66.833 -5.5 -98.5s-8.16699 -61.167 -13.5 -88.5h-796zM688.005 897
c-40 0 -77.501 -6.33105 -112.501 -18.998s-66.833 -30.334 -95.5 -53.001s-54 -49.334 -76 -80.001s-40 -64 -54 -100h590c0.666992 41.333 -4.83301 77.833 -16.5 109.5s-28.667 58 -51 79s-49.166 36.833 -80.499 47.5s-66 16 -104 16zM406.004 1360
c0 17.333 3.5 33.833 10.5 49.5s16.333 29.334 28 41.001s25.334 21 41.001 28s32.167 10.5 49.5 10.5c16.667 0 32.667 -3.5 48 -10.5s28.666 -16.333 39.999 -28s20.333 -25.334 27 -41.001s10 -32.167 10 -49.5c0 -18 -3.33301 -35 -10 -51s-15.667 -30.167 -27 -42.5
s-24.666 -22 -39.999 -29s-31.333 -10.5 -48 -10.5c-17.333 0 -33.833 3.5 -49.5 10.5s-29.334 16.667 -41.001 29s-21 26.5 -28 42.5s-10.5 33 -10.5 51zM865.004 1360c0 17.333 3.5 33.833 10.5 49.5s16.333 29.334 28 41.001s25.334 21 41.001 28s32.167 10.5 49.5 10.5
c16.667 0 32.5 -3.5 47.5 -10.5s28.333 -16.333 40 -28s20.834 -25.334 27.501 -41.001s10 -32.167 10 -49.5c0 -18 -3.33301 -35 -10 -51s-15.834 -30.167 -27.501 -42.5s-25 -22 -40 -29s-30.833 -10.5 -47.5 -10.5c-17.333 0 -33.833 3.5 -49.5 10.5
s-29.334 16.667 -41.001 29s-21 26.5 -28 42.5s-10.5 33 -10.5 51z" />
    <glyph glyph-name="igrave" unicode="&#xec;" horiz-adv-x="725" 
d="M198 1036h387l-200 -864h166l-39 -172h-369l200 864h-186zM412 1178l-287 282v17h248l184 -299h-145z" />
    <glyph glyph-name="iacute" unicode="&#xed;" horiz-adv-x="725" 
d="M198 1036h387l-200 -864h166l-39 -172h-369l200 864h-186zM545 1477h240v-17l-299 -282h-154z" />
    <glyph glyph-name="icircumflex" unicode="&#xee;" horiz-adv-x="725" 
d="M198 1036h387l-200 -864h166l-39 -172h-369l200 864h-186zM198 1171l267 273h112l120 -273h-160l-44 125l-105 -125h-190z" />
    <glyph glyph-name="idieresis" unicode="&#xef;" horiz-adv-x="725" 
d="M198 1036h387l-200 -864h166l-39 -172h-369l200 864h-186zM201 1360c0 35.333 12.667 65.666 38 90.999s55.666 38 90.999 38c16.667 0 32.834 -3.5 48.501 -10.5s29 -16.167 40 -27.5s19.833 -25 26.5 -41s10 -32.667 10 -50c0 -18 -3.33301 -35.167 -10 -51.5
s-15.5 -30.666 -26.5 -42.999s-24.333 -21.833 -40 -28.5s-31.834 -10 -48.501 -10c-35.333 0 -65.666 13.333 -90.999 40s-38 57.667 -38 93zM517 1360c0 35.333 12.667 65.666 38 90.999s55.666 38 90.999 38c16 0 32 -3.5 48 -10.5s29.333 -16.167 40 -27.5
s19.5 -25 26.5 -41s10.5 -32.667 10.5 -50c0 -18 -3.5 -35.167 -10.5 -51.5s-15.833 -30.666 -26.5 -42.999s-24 -21.833 -40 -28.5s-32 -10 -48 -10c-35.333 0 -65.666 13.333 -90.999 40s-38 57.667 -38 93z" />
    <glyph glyph-name="eth" unicode="&#xf0;" horiz-adv-x="1251" 
d="M674 1532l76.0029 -128.007l156 64l66 -159l-133 -55l179 -298c24 -40 45.5 -79.667 64.5 -119s34.333 -84.166 46 -134.499s17.5 -100.5 17.5 -150.5c0 -60.667 -15.833 -130.5 -47.5 -209.5s-78.834 -147.5 -141.501 -205.5s-132 -99.5 -208 -124.5
s-142 -37.5 -198 -37.5c-72 0 -137.5 12.167 -196.5 36.5s-109.333 57.833 -151 100.5s-74 92.834 -97 150.501s-34.5 119.834 -34.5 186.501c0 57.333 7.16699 112.333 21.5 165s34.5 101.834 60.5 147.501s57.167 87.334 93.5 125.001s76.166 69.834 119.499 96.501
s89.666 47.334 138.999 62.001s100.333 22 153 22c21.333 0 41 -1 59 -3l-69 112l-169 -69l-66 159l143 59l-127 207h244zM945.003 585.993c0 44 -5.00098 82.5 -15.001 115.5s-26.5 64.5 -49.5 94.5s-54.167 53.333 -93.5 70s-81 25 -125 25
c-53.333 0 -106.5 -14.667 -159.5 -44s-96.667 -67.833 -131 -115.5s-58 -95.5 -71 -143.5s-19.5 -89.667 -19.5 -125c0 -42.667 5.5 -82.834 16.5 -120.501s27.833 -70.667 50.5 -99s51.667 -50.666 87 -66.999s77.666 -24.5 126.999 -24.5c44.667 0 89.834 10 135.501 30
s86.834 48.667 123.501 86s66.5 82.833 89.5 136.5s34.5 114.167 34.5 181.5z" />
    <glyph glyph-name="ntilde" unicode="&#xf1;" horiz-adv-x="1368" 
d="M188 1036l391.001 0.00195312l-25 -106c47.333 39.333 99.166 70 155.499 92s115.833 33 178.5 33c53.333 0 101.5 -8 144.5 -24s78.167 -40.333 105.5 -73s45.333 -73.334 54 -122.001s5.66699 -105.334 -9 -170.001l-114 -494h147l-39 -172h-350l149 641
c18.667 78.667 12.667 138 -18 178s-82.667 60 -156 60c-52 0 -101.333 -11.167 -148 -33.5s-91 -53.5 -133 -93.5l-173 -752h-203l200 864h-198zM725.001 1415c33.333 0 62.166 -5.5 86.499 -16.5s47 -23 68 -36s41.833 -24.833 62.5 -35.5s44 -16 70 -16
c18.667 0 36.834 6.33301 54.501 19s29.5 33 35.5 61l119 -35c-13.333 -56.667 -39.333 -100.5 -78 -131.5s-85 -46.5 -139 -46.5c-37.333 0 -69 5.16699 -95 15.5s-49.667 21.5 -71 33.5l-60 33.5c-18.667 10.333 -39 15.5 -61 15.5c-10 0 -20.167 -0.666992 -30.5 -2
s-20.5 -4.5 -30.5 -9.5s-19.167 -12.667 -27.5 -23s-14.833 -24.833 -19.5 -43.5l-109 53c8.66699 31.333 21 57.5 37 78.5s34 37.833 54 50.5s41.5 21.667 64.5 27s46.167 8 69.5 8z" />
    <glyph glyph-name="ograve" unicode="&#xf2;" 
d="M75 449c0 57.333 7.16602 112.33 21.499 164.997s34.666 102 60.999 148s58 87.667 95 125s77.833 69.333 122.5 96s92.5 47.334 143.5 62.001s103.833 22 158.5 22c68.667 0 132.334 -12.167 191.001 -36.5s109.334 -57.666 152.001 -99.999s76.167 -92 100.5 -149
s36.5 -118.167 36.5 -183.5c0 -58 -7.33301 -113.667 -22 -167s-35.167 -103 -61.5 -149s-57.833 -88 -94.5 -126s-77.5 -70.333 -122.5 -97s-93.167 -47.334 -144.5 -62.001s-104.666 -22 -159.999 -22c-69.333 0 -133 12.167 -191 36.5s-108.333 57.833 -151 100.5
s-75.834 92.834 -99.501 150.501s-35.5 119.834 -35.5 186.501zM283.999 462.997c0 -46.667 6.8291 -89.165 20.4961 -127.498s32.834 -71 57.501 -98s54.334 -48 89.001 -63s72.667 -22.5 114 -22.5c48.667 0 96.167 10.667 142.5 32s87.166 51 122.499 89
s63.833 83.667 85.5 137s32.5 112 32.5 176c0 46.667 -7.16699 88.667 -21.5 126s-34.166 69.333 -59.499 96s-55.166 47.167 -89.499 61.5s-71.833 21.5 -112.5 21.5c-49.333 0 -96.833 -10.5 -142.5 -31.5s-86.167 -50.333 -121.5 -88s-63.666 -82.834 -84.999 -135.501
s-32 -110.334 -32 -173.001zM621.995 1178l-287 282v17h248l184 -299h-145z" />
    <glyph glyph-name="oacute" unicode="&#xf3;" 
d="M75 449c0 57.333 7.16602 112.33 21.499 164.997s34.666 102 60.999 148s58 87.667 95 125s77.833 69.333 122.5 96s92.5 47.334 143.5 62.001s103.833 22 158.5 22c68.667 0 132.334 -12.167 191.001 -36.5s109.334 -57.666 152.001 -99.999s76.167 -92 100.5 -149
s36.5 -118.167 36.5 -183.5c0 -58 -7.33301 -113.667 -22 -167s-35.167 -103 -61.5 -149s-57.833 -88 -94.5 -126s-77.5 -70.333 -122.5 -97s-93.167 -47.334 -144.5 -62.001s-104.666 -22 -159.999 -22c-69.333 0 -133 12.167 -191 36.5s-108.333 57.833 -151 100.5
s-75.834 92.834 -99.501 150.501s-35.5 119.834 -35.5 186.501zM283.999 462.997c0 -46.667 6.8291 -89.165 20.4961 -127.498s32.834 -71 57.501 -98s54.334 -48 89.001 -63s72.667 -22.5 114 -22.5c48.667 0 96.167 10.667 142.5 32s87.166 51 122.499 89
s63.833 83.667 85.5 137s32.5 112 32.5 176c0 46.667 -7.16699 88.667 -21.5 126s-34.166 69.333 -59.499 96s-55.166 47.167 -89.499 61.5s-71.833 21.5 -112.5 21.5c-49.333 0 -96.833 -10.5 -142.5 -31.5s-86.167 -50.333 -121.5 -88s-63.666 -82.834 -84.999 -135.501
s-32 -110.334 -32 -173.001zM802.995 1477h240v-17l-299 -282h-154z" />
    <glyph glyph-name="ocircumflex" unicode="&#xf4;" 
d="M75 449c0 57.333 7.16602 112.33 21.499 164.997s34.666 102 60.999 148s58 87.667 95 125s77.833 69.333 122.5 96s92.5 47.334 143.5 62.001s103.833 22 158.5 22c68.667 0 132.334 -12.167 191.001 -36.5s109.334 -57.666 152.001 -99.999s76.167 -92 100.5 -149
s36.5 -118.167 36.5 -183.5c0 -58 -7.33301 -113.667 -22 -167s-35.167 -103 -61.5 -149s-57.833 -88 -94.5 -126s-77.5 -70.333 -122.5 -97s-93.167 -47.334 -144.5 -62.001s-104.666 -22 -159.999 -22c-69.333 0 -133 12.167 -191 36.5s-108.333 57.833 -151 100.5
s-75.834 92.834 -99.501 150.501s-35.5 119.834 -35.5 186.501zM283.999 462.997c0 -46.667 6.8291 -89.165 20.4961 -127.498s32.834 -71 57.501 -98s54.334 -48 89.001 -63s72.667 -22.5 114 -22.5c48.667 0 96.167 10.667 142.5 32s87.166 51 122.499 89
s63.833 83.667 85.5 137s32.5 112 32.5 176c0 46.667 -7.16699 88.667 -21.5 126s-34.166 69.333 -59.499 96s-55.166 47.167 -89.499 61.5s-71.833 21.5 -112.5 21.5c-49.333 0 -96.833 -10.5 -142.5 -31.5s-86.167 -50.333 -121.5 -88s-63.666 -82.834 -84.999 -135.501
s-32 -110.334 -32 -173.001zM456.995 1202l297 273h111l151 -273h-170l-64 125l-119 -125h-206z" />
    <glyph glyph-name="otilde" unicode="&#xf5;" 
d="M75 449c0 57.333 7.16602 112.33 21.499 164.997s34.666 102 60.999 148s58 87.667 95 125s77.833 69.333 122.5 96s92.5 47.334 143.5 62.001s103.833 22 158.5 22c68.667 0 132.334 -12.167 191.001 -36.5s109.334 -57.666 152.001 -99.999s76.167 -92 100.5 -149
s36.5 -118.167 36.5 -183.5c0 -58 -7.33301 -113.667 -22 -167s-35.167 -103 -61.5 -149s-57.833 -88 -94.5 -126s-77.5 -70.333 -122.5 -97s-93.167 -47.334 -144.5 -62.001s-104.666 -22 -159.999 -22c-69.333 0 -133 12.167 -191 36.5s-108.333 57.833 -151 100.5
s-75.834 92.834 -99.501 150.501s-35.5 119.834 -35.5 186.501zM283.999 462.997c0 -46.667 6.8291 -89.165 20.4961 -127.498s32.834 -71 57.501 -98s54.334 -48 89.001 -63s72.667 -22.5 114 -22.5c48.667 0 96.167 10.667 142.5 32s87.166 51 122.499 89
s63.833 83.667 85.5 137s32.5 112 32.5 176c0 46.667 -7.16699 88.667 -21.5 126s-34.166 69.333 -59.499 96s-55.166 47.167 -89.499 61.5s-71.833 21.5 -112.5 21.5c-49.333 0 -96.833 -10.5 -142.5 -31.5s-86.167 -50.333 -121.5 -88s-63.666 -82.834 -84.999 -135.501
s-32 -110.334 -32 -173.001zM624.995 1446c33.333 0 62.166 -5.5 86.499 -16.5s47 -23 68 -36s41.833 -24.833 62.5 -35.5s44 -16 70 -16c18.667 0 36.834 6.33301 54.501 19s29.5 33 35.5 61l119 -35c-13.333 -56.667 -39.333 -100.5 -78 -131.5s-85 -46.5 -139 -46.5
c-37.333 0 -69 5.16699 -95 15.5s-49.667 21.5 -71 33.5l-60 33.5c-18.667 10.333 -39 15.5 -61 15.5c-10 0 -20.167 -0.666992 -30.5 -2s-20.5 -4.5 -30.5 -9.5s-19.167 -12.667 -27.5 -23s-14.833 -24.833 -19.5 -43.5l-109 53c8.66699 31.333 21 57.5 37 78.5
s34 37.833 54 50.5s41.5 21.667 64.5 27s46.167 8 69.5 8z" />
    <glyph glyph-name="odieresis" unicode="&#xf6;" 
d="M75 449c0 57.333 7.16602 112.33 21.499 164.997s34.666 102 60.999 148s58 87.667 95 125s77.833 69.333 122.5 96s92.5 47.334 143.5 62.001s103.833 22 158.5 22c68.667 0 132.334 -12.167 191.001 -36.5s109.334 -57.666 152.001 -99.999s76.167 -92 100.5 -149
s36.5 -118.167 36.5 -183.5c0 -58 -7.33301 -113.667 -22 -167s-35.167 -103 -61.5 -149s-57.833 -88 -94.5 -126s-77.5 -70.333 -122.5 -97s-93.167 -47.334 -144.5 -62.001s-104.666 -22 -159.999 -22c-69.333 0 -133 12.167 -191 36.5s-108.333 57.833 -151 100.5
s-75.834 92.834 -99.501 150.501s-35.5 119.834 -35.5 186.501zM283.999 462.997c0 -46.667 6.8291 -89.165 20.4961 -127.498s32.834 -71 57.501 -98s54.334 -48 89.001 -63s72.667 -22.5 114 -22.5c48.667 0 96.167 10.667 142.5 32s87.166 51 122.499 89
s63.833 83.667 85.5 137s32.5 112 32.5 176c0 46.667 -7.16699 88.667 -21.5 126s-34.166 69.333 -59.499 96s-55.166 47.167 -89.499 61.5s-71.833 21.5 -112.5 21.5c-49.333 0 -96.833 -10.5 -142.5 -31.5s-86.167 -50.333 -121.5 -88s-63.666 -82.834 -84.999 -135.501
s-32 -110.334 -32 -173.001zM399.995 1391c0 17.333 3.5 33.833 10.5 49.5s16.333 29.334 28 41.001s25.334 21 41.001 28s32.167 10.5 49.5 10.5c16.667 0 32.667 -3.5 48 -10.5s28.666 -16.333 39.999 -28s20.333 -25.334 27 -41.001s10 -32.167 10 -49.5
c0 -18 -3.33301 -35 -10 -51s-15.667 -30.167 -27 -42.5s-24.666 -22 -39.999 -29s-31.333 -10.5 -48 -10.5c-17.333 0 -33.833 3.5 -49.5 10.5s-29.334 16.667 -41.001 29s-21 26.5 -28 42.5s-10.5 33 -10.5 51zM858.995 1391c0 17.333 3.5 33.833 10.5 49.5
s16.333 29.334 28 41.001s25.334 21 41.001 28s32.167 10.5 49.5 10.5c16.667 0 32.5 -3.5 47.5 -10.5s28.333 -16.333 40 -28s20.834 -25.334 27.501 -41.001s10 -32.167 10 -49.5c0 -18 -3.33301 -35 -10 -51s-15.834 -30.167 -27.501 -42.5s-25 -22 -40 -29
s-30.833 -10.5 -47.5 -10.5c-17.333 0 -33.833 3.5 -49.5 10.5s-29.334 16.667 -41.001 29s-21 26.5 -28 42.5s-10.5 33 -10.5 51z" />
    <glyph glyph-name="divide" unicode="&#xf7;" horiz-adv-x="1310" 
d="M225 614l39 172h946l-39 -172h-946zM650 1089c0 18 3.5 35 10.5 51s16.5 29.833 28.5 41.5s26 21 42 28s33.333 10.5 52 10.5c18 0 35 -3.5 51 -10.5s29.833 -16.333 41.5 -28s21 -25.5 28 -41.5s10.5 -33 10.5 -51s-3.5 -35.167 -10.5 -51.5
s-16.333 -30.666 -28 -42.999s-25.5 -22.166 -41.5 -29.499s-33 -11 -51 -11c-18.667 0 -36 3.66699 -52 11s-30 17.166 -42 29.499s-21.5 26.666 -28.5 42.999s-10.5 33.5 -10.5 51.5zM496 303c0 18 3.5 35 10.5 51s16.5 29.833 28.5 41.5s26 21 42 28s33.333 10.5 52 10.5
c18 0 35 -3.5 51 -10.5s29.833 -16.333 41.5 -28s21 -25.5 28 -41.5s10.5 -33 10.5 -51s-3.5 -35.167 -10.5 -51.5s-16.333 -30.666 -28 -42.999s-25.5 -22.166 -41.5 -29.499s-33 -11 -51 -11c-18.667 0 -36 3.66699 -52 11s-30 17.166 -42 29.499
s-21.5 26.666 -28.5 42.999s-10.5 33.5 -10.5 51.5z" />
    <glyph glyph-name="oslash" unicode="&#xf8;" 
d="M1106 1135h218.999l-258 -259c60 -78 90 -170.667 90 -278c0 -58 -7.33301 -113.667 -22 -167s-35.167 -103 -61.5 -149s-57.833 -88 -94.5 -126s-77.5 -70.333 -122.5 -97s-93.167 -47.334 -144.5 -62.001s-104.666 -22 -159.999 -22
c-69.333 0 -127.666 9.83301 -174.999 29.5s-86 40.5 -116 62.5l-97 -97h-219l209 209c-17.333 26 -34.833 60.833 -52.5 104.5s-26.5 98.834 -26.5 165.501c0 57.333 7.16699 112.333 21.5 165s34.666 102 60.999 148s58 87.667 95 125s77.833 69.333 122.5 96
s92.5 47.334 143.5 62.001s103.833 22 158.5 22c68.667 0 125.5 -9.33301 170.5 -28s80.833 -37.334 107.5 -56.001zM396.999 204c52.667 -34.667 108.668 -52 168.001 -52c48.667 0 96.167 10.667 142.5 32s87.166 51 122.499 89s63.833 83.667 85.5 137s32.5 112 32.5 176
c0 46.667 -9.66699 94 -29 142zM284 463c0 -46.667 6.99805 -90.3311 20.998 -130.998l514 515c-41.333 29.333 -92.666 44 -153.999 44c-49.333 0 -96.833 -10.5 -142.5 -31.5s-86.167 -50.333 -121.5 -88s-63.666 -82.834 -84.999 -135.501s-32 -110.334 -32 -173.001z
" />
    <glyph glyph-name="ugrave" unicode="&#xf9;" horiz-adv-x="1290" 
d="M843 1036l335.997 0.00390625l-200 -864h155l-39 -172h-348l24 105c-21.333 -22 -44.333 -40.833 -69 -56.5s-49.834 -28.334 -75.501 -38.001s-51 -16.834 -76 -21.501s-48.167 -7 -69.5 -7c-45.333 0 -88.166 6.5 -128.499 19.5s-74.166 32.167 -101.499 57.5
c-16.667 16.667 -32.167 36.167 -46.5 58.5s-25.5 49.166 -33.5 80.499s-11.667 67.666 -11 108.999s7.33398 89.333 20.001 144l95 413h-140l41 172h340l-123 -526c-29.333 -124 -30.5 -215 -3.5 -273s84.167 -87 171.5 -87c38.667 0 72.834 6.5 102.501 19.5
s56.667 31.167 81 54.5s44.833 48 61.5 74l132 566h-136zM631.997 1178l-287 282v17h248l184 -299h-145z" />
    <glyph glyph-name="uacute" unicode="&#xfa;" horiz-adv-x="1290" 
d="M843 1036l335.997 0.00390625l-200 -864h155l-39 -172h-348l24 105c-21.333 -22 -44.333 -40.833 -69 -56.5s-49.834 -28.334 -75.501 -38.001s-51 -16.834 -76 -21.501s-48.167 -7 -69.5 -7c-45.333 0 -88.166 6.5 -128.499 19.5s-74.166 32.167 -101.499 57.5
c-16.667 16.667 -32.167 36.167 -46.5 58.5s-25.5 49.166 -33.5 80.499s-11.667 67.666 -11 108.999s7.33398 89.333 20.001 144l95 413h-140l41 172h340l-123 -526c-29.333 -124 -30.5 -215 -3.5 -273s84.167 -87 171.5 -87c38.667 0 72.834 6.5 102.501 19.5
s56.667 31.167 81 54.5s44.833 48 61.5 74l132 566h-136zM796.997 1477h240v-17l-299 -282h-154z" />
    <glyph glyph-name="ucircumflex" unicode="&#xfb;" horiz-adv-x="1290" 
d="M843 1036l335.997 0.00390625l-200 -864h155l-39 -172h-348l24 105c-21.333 -22 -44.333 -40.833 -69 -56.5s-49.834 -28.334 -75.501 -38.001s-51 -16.834 -76 -21.501s-48.167 -7 -69.5 -7c-45.333 0 -88.166 6.5 -128.499 19.5s-74.166 32.167 -101.499 57.5
c-16.667 16.667 -32.167 36.167 -46.5 58.5s-25.5 49.166 -33.5 80.499s-11.667 67.666 -11 108.999s7.33398 89.333 20.001 144l95 413h-140l41 172h340l-123 -526c-29.333 -124 -30.5 -215 -3.5 -273s84.167 -87 171.5 -87c38.667 0 72.834 6.5 102.501 19.5
s56.667 31.167 81 54.5s44.833 48 61.5 74l132 566h-136zM453.997 1171l297 273h111l151 -273h-170l-64 125l-119 -125h-206z" />
    <glyph glyph-name="udieresis" unicode="&#xfc;" horiz-adv-x="1290" 
d="M843 1036l335.997 0.00390625l-200 -864h155l-39 -172h-348l24 105c-21.333 -22 -44.333 -40.833 -69 -56.5s-49.834 -28.334 -75.501 -38.001s-51 -16.834 -76 -21.501s-48.167 -7 -69.5 -7c-45.333 0 -88.166 6.5 -128.499 19.5s-74.166 32.167 -101.499 57.5
c-16.667 16.667 -32.167 36.167 -46.5 58.5s-25.5 49.166 -33.5 80.499s-11.667 67.666 -11 108.999s7.33398 89.333 20.001 144l95 413h-140l41 172h340l-123 -526c-29.333 -124 -30.5 -215 -3.5 -273s84.167 -87 171.5 -87c38.667 0 72.834 6.5 102.501 19.5
s56.667 31.167 81 54.5s44.833 48 61.5 74l132 566h-136zM372.997 1360c0 17.333 3.5 33.833 10.5 49.5s16.333 29.334 28 41.001s25.334 21 41.001 28s32.167 10.5 49.5 10.5c16.667 0 32.667 -3.5 48 -10.5s28.666 -16.333 39.999 -28s20.333 -25.334 27 -41.001
s10 -32.167 10 -49.5c0 -18 -3.33301 -35 -10 -51s-15.667 -30.167 -27 -42.5s-24.666 -22 -39.999 -29s-31.333 -10.5 -48 -10.5c-17.333 0 -33.833 3.5 -49.5 10.5s-29.334 16.667 -41.001 29s-21 26.5 -28 42.5s-10.5 33 -10.5 51zM831.997 1360
c0 17.333 3.5 33.833 10.5 49.5s16.333 29.334 28 41.001s25.334 21 41.001 28s32.167 10.5 49.5 10.5c16.667 0 32.5 -3.5 47.5 -10.5s28.333 -16.333 40 -28s20.834 -25.334 27.501 -41.001s10 -32.167 10 -49.5c0 -18 -3.33301 -35 -10 -51
s-15.834 -30.167 -27.501 -42.5s-25 -22 -40 -29s-30.833 -10.5 -47.5 -10.5c-17.333 0 -33.833 3.5 -49.5 10.5s-29.334 16.667 -41.001 29s-21 26.5 -28 42.5s-10.5 33 -10.5 51z" />
    <glyph glyph-name="yacute" unicode="&#xfd;" horiz-adv-x="1165" 
d="M148 1036h379l-41 -172h-79l61 -639l408 639h-85l41 172h379l-41 -172h-87l-741 -1163h101l-43 -172h-410l43 172h101l185 290l-114 873h-98zM698 1508h240v-17l-299 -282h-154z" />
    <glyph glyph-name="thorn" unicode="&#xfe;" horiz-adv-x="1255" 
d="M235 1556l393 0.000976562l-135 -585c89.333 61.333 182.333 92 279 92c56.667 0 109.667 -11 159 -33s92.166 -52 128.499 -90s65 -82.833 86 -134.5s31.5 -107.167 31.5 -166.5c0 -96.667 -17 -185.334 -51 -266.001s-80.167 -150 -138.5 -208s-126.333 -103 -204 -135
s-160.167 -48 -247.5 -48c-51.333 0 -99.166 7.66699 -143.499 23s-80.5 35 -108.5 59l-84 -363h137l-38 -172h-492l39 172h154l388 1683h-194zM724 891.001c-46.667 0 -94.0029 -9.5 -142.003 -28.5s-92 -45.167 -132 -78.5l-126 -548
c16.667 -22 43.334 -41.167 80.001 -57.5s85.334 -24.5 146.001 -24.5c51.333 0 102 10.5 152 31.5s94.833 51.333 134.5 91s71.834 88.167 96.501 145.5s37 122.666 37 195.999c0 42.667 -6 80.834 -18 114.501s-28.833 62.167 -50.5 85.5s-47.5 41.333 -77.5 54
s-63.333 19 -100 19z" />
    <glyph glyph-name="ydieresis" unicode="&#xff;" horiz-adv-x="1165" 
d="M148 1036h379l-41 -172h-79l61 -639l408 639h-85l41 172h379l-41 -172h-87l-741 -1163h101l-43 -172h-410l43 172h101l185 290l-114 873h-98zM342 1391c0 17.333 3.5 33.833 10.5 49.5s16.333 29.334 28 41.001s25.334 21 41.001 28s32.167 10.5 49.5 10.5
c16.667 0 32.667 -3.5 48 -10.5s28.666 -16.333 39.999 -28s20.333 -25.334 27 -41.001s10 -32.167 10 -49.5c0 -18 -3.33301 -35 -10 -51s-15.667 -30.167 -27 -42.5s-24.666 -22 -39.999 -29s-31.333 -10.5 -48 -10.5c-17.333 0 -33.833 3.5 -49.5 10.5
s-29.334 16.667 -41.001 29s-21 26.5 -28 42.5s-10.5 33 -10.5 51zM801 1391c0 17.333 3.5 33.833 10.5 49.5s16.333 29.334 28 41.001s25.334 21 41.001 28s32.167 10.5 49.5 10.5c16.667 0 32.5 -3.5 47.5 -10.5s28.333 -16.333 40 -28s20.834 -25.334 27.501 -41.001
s10 -32.167 10 -49.5c0 -18 -3.33301 -35 -10 -51s-15.834 -30.167 -27.501 -42.5s-25 -22 -40 -29s-30.833 -10.5 -47.5 -10.5c-17.333 0 -33.833 3.5 -49.5 10.5s-29.334 16.667 -41.001 29s-21 26.5 -28 42.5s-10.5 33 -10.5 51z" />
    <glyph glyph-name="Amacron" unicode="&#x100;" horiz-adv-x="1458" 
d="M919 172h127l-37 342h-574l-191 -342h136l-38 -172h-492l39 172h131l760 1344h323l158 -1344h150l-39 -172h-492zM531 686h459l-75 688zM1331 1708h-743l26 117h744z" />
    <glyph glyph-name="amacron" unicode="&#x101;" horiz-adv-x="1307" 
d="M771 70c-44.667 -30 -89.501 -52.168 -134.501 -66.501s-91.5 -21.5 -139.5 -21.5c-56.667 0 -109.667 11 -159 33s-92.166 52 -128.499 90s-65 82.833 -86 134.5s-31.5 107.167 -31.5 166.5c0 96.667 17 185.334 51 266.001s80.167 150 138.5 208s126.333 103 204 135
s160.167 48 247.5 48c50 0 97 -7.5 141 -22.5s80 -34.5 108 -58.5l13 54h201l-200 -864h161l-39 -172h-363zM543.999 153.999c24.667 0 49.834 3.00293 75.501 9.00293s50.167 13.667 73.5 23s45.333 20.166 66 32.499s39 25.166 55 38.499l129 554
c-17.333 22 -44.333 40.833 -81 56.5s-84.667 23.5 -144 23.5c-51.333 0 -102 -10.5 -152 -31.5s-94.667 -51.333 -134 -91s-71.333 -88.334 -96 -146.001s-37 -123.167 -37 -196.5c0 -42.667 6 -80.834 18 -114.501s28.667 -62.167 50 -85.5s47.166 -41.166 77.499 -53.499
s63.5 -18.5 99.5 -18.5zM1116 1229h-743l26 117h744z" />
    <glyph glyph-name="Abreve" unicode="&#x102;" horiz-adv-x="1458" 
d="M919 172h127l-37 342h-574l-191 -342h136l-38 -172h-492l39 172h131l760 1344h323l158 -1344h150l-39 -172h-492zM531 686h459l-75 688zM978 1629c-55.333 0 -105.324 7.83105 -149.991 23.498s-82.334 38.834 -113.001 69.501s-52.834 65.834 -66.501 105.501
s-19.167 83.5 -16.5 131.5h141c1.33301 -61.333 18.166 -109.833 50.499 -145.5s87.166 -53.5 164.499 -53.5c65.333 0 119.166 18.5 161.499 55.5s71.166 84.833 86.499 143.5h145c-8.66699 -48 -25.334 -91.833 -50.001 -131.5s-53.834 -74.5 -87.501 -104.5
s-74.334 -53.167 -122.001 -69.5s-95.5 -24.5 -143.5 -24.5v0z" />
    <glyph glyph-name="abreve" unicode="&#x103;" horiz-adv-x="1307" 
d="M771 70c-44.667 -30 -89.501 -52.168 -134.501 -66.501s-91.5 -21.5 -139.5 -21.5c-56.667 0 -109.667 11 -159 33s-92.166 52 -128.499 90s-65 82.833 -86 134.5s-31.5 107.167 -31.5 166.5c0 96.667 17 185.334 51 266.001s80.167 150 138.5 208s126.333 103 204 135
s160.167 48 247.5 48c50 0 97 -7.5 141 -22.5s80 -34.5 108 -58.5l13 54h201l-200 -864h161l-39 -172h-363zM543.999 153.999c24.667 0 49.834 3.00293 75.501 9.00293s50.167 13.667 73.5 23s45.333 20.166 66 32.499s39 25.166 55 38.499l129 554
c-17.333 22 -44.333 40.833 -81 56.5s-84.667 23.5 -144 23.5c-51.333 0 -102 -10.5 -152 -31.5s-94.667 -51.333 -134 -91s-71.333 -88.334 -96 -146.001s-37 -123.167 -37 -196.5c0 -42.667 6 -80.834 18 -114.501s28.667 -62.167 50 -85.5s47.166 -41.166 77.499 -53.499
s63.5 -18.5 99.5 -18.5zM762.999 1149c-55.333 0 -105.324 7.83105 -149.991 23.498s-82.334 38.834 -113.001 69.501s-52.834 65.834 -66.501 105.501s-19.167 83.5 -16.5 131.5h141c1.33301 -61.333 18.166 -109.833 50.499 -145.5s87.166 -53.5 164.499 -53.5
c65.333 0 119.166 18.5 161.499 55.5s71.166 84.833 86.499 143.5h145c-8.66699 -48 -25.334 -91.833 -50.001 -131.5s-53.834 -74.5 -87.501 -104.5s-74.334 -53.167 -122.001 -69.5s-95.5 -24.5 -143.5 -24.5v0z" />
    <glyph glyph-name="Aogonek" unicode="&#x104;" horiz-adv-x="1456" 
d="M-111 172l130.999 -0.00195312l760 1344h324l158 -1344h149l-39 -172h-151c-53.333 -2.66699 -100.833 -11.167 -142.5 -25.5s-76.834 -32.166 -105.501 -53.499s-50.5 -44.833 -65.5 -70.5s-22.5 -50.834 -22.5 -75.501c0 -27.333 10.167 -50.666 30.5 -69.999
s47.5 -29 81.5 -29c26 0 50.667 2.16699 74 6.5s41.666 9.83301 54.999 16.5l43 -127c-17.333 -10.667 -41.666 -20.5 -72.999 -29.5s-66.333 -13.5 -105 -13.5c-40.667 0 -78.167 4.83301 -112.5 14.5s-63.666 23.334 -87.999 41.001s-43.666 39.5 -57.999 65.5
s-21.5 56 -21.5 90c0 60 17 111.5 51 154.5s73.667 78.167 119 105.5l39 172h127l-37 342h-576l-190 -342h137l-39 -172h-492zM529.999 685.998h461l-76 688z" />
    <glyph glyph-name="aogonek" unicode="&#x105;" horiz-adv-x="1319" 
d="M1208 1036l-200.001 -864.001h161l-39 -172h-100c-32.667 -1.33301 -64.334 -9.16602 -95.001 -23.499s-58.334 -32.5 -83.001 -54.5s-44.5 -45.833 -59.5 -71.5s-22.5 -50.834 -22.5 -75.501c0 -27.333 10.167 -50.666 30.5 -69.999s47.833 -29 82.5 -29
c26 0 50.5 2.16699 73.5 6.5s41.5 9.83301 55.5 16.5l43 -127c-18 -10.667 -42.667 -20.5 -74 -29.5s-66 -13.5 -104 -13.5c-41.333 0 -79 4.83301 -113 14.5s-63.333 23.334 -88 41.001s-44.167 39.5 -58.5 65.5s-21.5 56 -21.5 90c0 61.333 17.333 113.166 52 155.499
s74.667 77.166 120 104.499l16 70c-44.667 -30 -89.5 -52.167 -134.5 -66.5s-91.5 -21.5 -139.5 -21.5c-57.333 0 -110.666 10.833 -159.999 32.5s-92 51.667 -128 90s-64.667 83 -86 134s-32 106.833 -32 167.5c0 96.667 17.167 185.334 51.5 266.001s80.5 150 138.5 208
s125.833 103 203.5 135s160.167 48 247.5 48c50.667 0 97.834 -7.83301 141.501 -23.5s79.834 -35.167 108.501 -58.5l13 55h200zM556.999 153.999c50.667 0 100.501 10.498 149.501 31.498s89.167 44.5 120.5 70.5l127 555c-17.333 22 -44.166 40.833 -80.499 56.5
s-83.833 23.5 -142.5 23.5c-52 0 -102.833 -10.667 -152.5 -32s-94.334 -51.666 -134.001 -90.999s-71.834 -87.666 -96.501 -144.999s-37 -123 -37 -197c0 -86 22.5 -152.833 67.5 -200.5s104.5 -71.5 178.5 -71.5z" />
    <glyph glyph-name="Cacute" unicode="&#x106;" horiz-adv-x="1468" 
d="M1394 322c-38.667 -54.667 -81.6641 -103.498 -128.997 -146.498s-99.333 -79.333 -156 -109s-118 -52.334 -184 -68.001s-137 -23.5 -213 -23.5c-91.333 0 -175.833 17.167 -253.5 51.5s-144.834 81.833 -201.501 142.5s-101.167 132.5 -133.5 215.5
s-48.5 173.167 -48.5 270.5c0 83.333 9.83301 163.333 29.5 240s47.5 147.834 83.5 213.501s79.667 125.334 131 179.001s108.833 99.5 172.5 137.5s132.667 67.333 207 88s152.5 31 234.5 31c113.333 0 214.166 -22.833 302.499 -68.5s160.833 -108.834 217.5 -189.501h156
l-41 -172h-276c-14.667 34 -34.167 65.333 -58.5 94s-52.666 53.167 -84.999 73.5s-68.5 36.166 -108.5 47.499s-83 17 -129 17c-88 0 -169.333 -17.833 -244 -53.5s-139.334 -84.167 -194.001 -145.5s-97.334 -132.833 -128.001 -214.5s-46 -168.5 -46 -260.5
c0 -76.667 12 -145.834 36 -207.501s56 -114 96 -157s86.333 -76 139 -99s107.667 -34.5 165 -34.5c100.667 0 189.167 20.833 265.5 62.5s143.5 104.167 201.5 187.5zM997.003 1874h240v-17l-299 -282h-154z" />
    <glyph glyph-name="cacute" unicode="&#x107;" horiz-adv-x="1135" 
d="M921 731c-10.667 26.667 -24.8301 49.998 -42.4971 69.998s-37.834 36.667 -60.501 50s-47.334 23.333 -74.001 30s-54.334 10 -83.001 10c-36.667 0 -75.834 -9.5 -117.501 -28.5s-80.334 -46.833 -116.001 -83.5s-65.167 -81.667 -88.5 -135s-35 -114.333 -35 -183
c0 -50 7.33301 -94.167 22 -132.5s34.334 -70.5 59.001 -96.5s53.334 -45.5 86.001 -58.5s67.334 -19.5 104.001 -19.5c26.667 0 51.667 2.16699 75 6.5s45.5 11.666 66.5 21.999s41.5 23.833 61.5 40.5s39.667 37.334 59 62.001l145 -109
c-26 -36.667 -55.333 -67.834 -88 -93.501s-67 -46.5 -103 -62.5s-73.167 -27.5 -111.5 -34.5s-76.166 -10.5 -113.499 -10.5c-68 0 -130.833 12.167 -188.5 36.5s-107.334 57.833 -149.001 100.5s-74.334 92.834 -98.001 150.501s-35.5 119.834 -35.5 186.501
c0 90.667 17 173.834 51 249.501s78.667 140.834 134 195.501s117.833 97.167 187.5 127.5s140.167 45.5 211.5 45.5c33.333 0 66.666 -3.16699 99.999 -9.5s65.333 -16.333 96 -30s59.334 -30.834 86.001 -51.501s50.667 -45 72 -73h125l-28 -172h-209v0zM817.004 1508h240
v-17l-299 -282h-154z" />
    <glyph glyph-name="Ccaron" unicode="&#x10c;" horiz-adv-x="1468" 
d="M1394 322c-38.667 -54.667 -81.6641 -103.498 -128.997 -146.498s-99.333 -79.333 -156 -109s-118 -52.334 -184 -68.001s-137 -23.5 -213 -23.5c-91.333 0 -175.833 17.167 -253.5 51.5s-144.834 81.833 -201.501 142.5s-101.167 132.5 -133.5 215.5
s-48.5 173.167 -48.5 270.5c0 83.333 9.83301 163.333 29.5 240s47.5 147.834 83.5 213.501s79.667 125.334 131 179.001s108.833 99.5 172.5 137.5s132.667 67.333 207 88s152.5 31 234.5 31c113.333 0 214.166 -22.833 302.499 -68.5s160.833 -108.834 217.5 -189.501h156
l-41 -172h-276c-14.667 34 -34.167 65.333 -58.5 94s-52.666 53.167 -84.999 73.5s-68.5 36.166 -108.5 47.499s-83 17 -129 17c-88 0 -169.333 -17.833 -244 -53.5s-139.334 -84.167 -194.001 -145.5s-97.334 -132.833 -128.001 -214.5s-46 -168.5 -46 -260.5
c0 -76.667 12 -145.834 36 -207.501s56 -114 96 -157s86.333 -76 139 -99s107.667 -34.5 165 -34.5c100.667 0 189.167 20.833 265.5 62.5s143.5 104.167 201.5 187.5zM1402 1923l-297 -273h-113l-149 273h166l67 -129l129 129h197z" />
    <glyph glyph-name="ccaron" unicode="&#x10d;" horiz-adv-x="1135" 
d="M921 731c-10.667 26.667 -24.8301 49.998 -42.4971 69.998s-37.834 36.667 -60.501 50s-47.334 23.333 -74.001 30s-54.334 10 -83.001 10c-36.667 0 -75.834 -9.5 -117.501 -28.5s-80.334 -46.833 -116.001 -83.5s-65.167 -81.667 -88.5 -135s-35 -114.333 -35 -183
c0 -50 7.33301 -94.167 22 -132.5s34.334 -70.5 59.001 -96.5s53.334 -45.5 86.001 -58.5s67.334 -19.5 104.001 -19.5c26.667 0 51.667 2.16699 75 6.5s45.5 11.666 66.5 21.999s41.5 23.833 61.5 40.5s39.667 37.334 59 62.001l145 -109
c-26 -36.667 -55.333 -67.834 -88 -93.501s-67 -46.5 -103 -62.5s-73.167 -27.5 -111.5 -34.5s-76.166 -10.5 -113.499 -10.5c-68 0 -130.833 12.167 -188.5 36.5s-107.334 57.833 -149.001 100.5s-74.334 92.834 -98.001 150.501s-35.5 119.834 -35.5 186.501
c0 90.667 17 173.834 51 249.501s78.667 140.834 134 195.501s117.833 97.167 187.5 127.5s140.167 45.5 211.5 45.5c33.333 0 66.666 -3.16699 99.999 -9.5s65.333 -16.333 96 -30s59.334 -30.834 86.001 -51.501s50.667 -45 72 -73h125l-28 -172h-209v0zM1126 1444
l-297 -273h-113l-149 273h166l67 -129l129 129h197z" />
    <glyph glyph-name="Dcaron" unicode="&#x10e;" horiz-adv-x="1561" 
d="M425 1516h549c88.667 0 168.834 -16.833 240.501 -50.5s132.667 -79.667 183 -138s89 -126.5 116 -204.5s40.5 -161 40.5 -249c0 -87.333 -10.5 -169.5 -31.5 -246.5s-50.667 -148 -89 -213s-84.833 -123 -139.5 -174s-115.334 -94.333 -182.001 -130
s-138.667 -63 -216 -82s-158.333 -28.5 -243 -28.5h-578l39 172h132l270 1171h-131zM723 1343l-267.997 -1171h220c55.333 0 110 7.33301 164 22s105.5 36 154.5 64s94.333 62 136 102s77.667 85.333 108 136s54.166 106.334 71.499 167.001s26 125.667 26 195
c0 64.667 -9.16699 126.167 -27.5 184.5s-44.333 109.833 -78 154.5s-74.334 80.167 -122.001 106.5s-100.834 39.5 -159.501 39.5h-225zM1193 1842l-297 -273h-113l-149 273h166l67 -129l129 129h197z" />
    <glyph glyph-name="dcaron" unicode="&#x10f;" horiz-adv-x="1395" 
d="M923 1556l373.998 0.00195312l-319 -1384h172l-39 -172h-373l15 67c-38 -26 -77.833 -47 -119.5 -63s-86.5 -24 -134.5 -24c-59.333 0 -114.666 11.333 -165.999 34s-96.166 54 -134.499 94s-68.5 87.167 -90.5 141.5s-33 113.166 -33 176.499c0 92 16.333 177 49 255
s77.167 145.667 133.5 203s122 102.166 197 134.499s155.167 48.5 240.5 48.5c53.333 0 103 -7.66699 149 -23s86 -36.333 120 -63l93 403h-175zM545.998 154.002c42 0 85.5 9.33301 130.5 28s85.833 46 122.5 82l124 537c-24.667 28.667 -56.667 50.834 -96 66.501
s-87.333 23.5 -144 23.5c-50 0 -99.167 -10.5 -147.5 -31.5s-91.166 -50.833 -128.499 -89.5s-67.5 -85.667 -90.5 -141s-34.5 -117 -34.5 -185c0 -44.667 6.5 -84.834 19.5 -120.501s31.167 -66 54.5 -91s51.166 -44.333 83.499 -58s67.833 -20.5 106.5 -20.5zM1461 1059
h-125l71 510l183 12z" />
    <glyph glyph-name="Dcroat" unicode="&#x110;" horiz-adv-x="1561" 
d="M184 690l39 172h182l111 481h-131l40 173h549c88.667 0 168.834 -16.833 240.501 -50.5s132.667 -79.667 183 -138s89 -126.5 116 -204.5s40.5 -161 40.5 -249c0 -87.333 -10.5 -169.5 -31.5 -246.5s-50.667 -148 -89 -213s-84.833 -123 -139.5 -174
s-115.334 -94.333 -182.001 -130s-138.667 -63 -216 -82s-158.333 -28.5 -243 -28.5h-578l39 172h132l119 518h-181zM723 1343l-109.997 -481.001h241l-39 -172h-242l-118 -518h220c55.333 0 110 7.33301 164 22s105.5 36 154.5 64s94.333 62 136 102s77.667 85.333 108 136
s54.166 106.334 71.499 167.001s26 125.667 26 195c0 64.667 -9.16699 126.167 -27.5 184.5s-44.333 109.833 -78 154.5s-74.334 80.167 -122.001 106.5s-100.834 39.5 -159.501 39.5h-225z" />
    <glyph glyph-name="dcroat" unicode="&#x111;" horiz-adv-x="1307" 
d="M1202 1139l-111.503 -483.5l-111.5 -483.5h172l-19.5 -86l-19.5 -86h-373c2.66699 10.667 5.16699 21.834 7.5 33.501s4.83301 23.167 7.5 34.5c-37.333 -27.333 -77.166 -48.833 -119.499 -64.5s-87.166 -23.5 -134.499 -23.5c-58.667 0 -114 11.5 -166 34.5
s-97.167 54.333 -135.5 94s-68.333 86.834 -90 141.501s-32.5 113.334 -32.5 176.001c0 91.333 16.333 176.333 49 255s77 146.667 133 204s121.833 102 197.5 134s155.834 48 240.501 48c26 0 51.667 -2 77 -6s49.333 -9.83301 72 -17.5s44.167 -16.667 64.5 -27
s38.833 -22.166 55.5 -35.499c6.66699 27.333 12.667 53.666 18 78.999s11.333 51.666 18 78.999h-186l19.5 86l19.5 86h186l8.5 36.5l8.5 36.5h-174l20 86l21 86h374l-28.5 -122.5l-28.5 -122.5h184c-6.66699 -28.667 -13 -57.334 -19 -86.001s-12.667 -57.334 -20 -86.001
h-184zM546.997 154c42 0 85.1699 9.16895 129.503 27.502s85.166 45.166 122.499 80.499l62 269.5l63 269.5c-24.667 28.667 -56.5 50.834 -95.5 66.501s-87.167 23.5 -144.5 23.5c-50.667 0 -99.834 -10.667 -147.501 -32s-90.334 -51.333 -128.001 -90
s-68 -85.334 -91 -140.001s-34.5 -116.334 -34.5 -185.001c0 -90 24.5 -160.833 73.5 -212.5s112.5 -77.5 190.5 -77.5z" />
    <glyph glyph-name="Emacron" unicode="&#x112;" horiz-adv-x="1415" 
d="M411 1516h1100l-100 -433h-207l61 260h-540l-111 -485h446l-43 -172h-442l-118 -514h534l61 262h209l-100 -434h-1086l39 172h134l270 1171h-148zM1378 1709h-743l26 117h744z" />
    <glyph glyph-name="emacron" unicode="&#x113;" horiz-adv-x="1171" 
d="M318 483c-0.666992 -9.33301 -1.3291 -17.333 -1.99609 -24s-1 -13 -1 -19c0 -42 6.83301 -81 20.5 -117s32.667 -67.167 57 -93.5s53.333 -47 87 -62s70.5 -22.5 110.5 -22.5c53.333 0 104.166 10.833 152.499 32.5s88.833 53.167 121.5 94.5l148 -108
c-22.667 -30 -49.667 -57 -81 -81s-66 -44.5 -104 -61.5s-78.5 -30 -121.5 -39s-86.833 -13.5 -131.5 -13.5c-64 0 -123.833 10.667 -179.5 32s-104.334 52.333 -146.001 93s-74.334 90.5 -98.001 149.5s-35.5 125.833 -35.5 200.5c0 86 15.167 166.833 45.5 242.5
s72.333 141.667 126 198s117.167 100.833 190.5 133.5s152.666 49 237.999 49c66 0 124.833 -11.167 176.5 -33.5s95.5 -51.833 131.5 -88.5s63.333 -79 82 -127s28 -97.333 28 -148c0 -34 -1.83301 -66.833 -5.5 -98.5s-8.16699 -61.167 -13.5 -88.5h-796zM688.005 897
c-40 0 -77.501 -6.33105 -112.501 -18.998s-66.833 -30.334 -95.5 -53.001s-54 -49.334 -76 -80.001s-40 -64 -54 -100h590c0.666992 41.333 -4.83301 77.833 -16.5 109.5s-28.667 58 -51 79s-49.166 36.833 -80.499 47.5s-66 16 -104 16zM1112 1229h-743l26 117h744z" />
    <glyph glyph-name="Edotaccent" unicode="&#x116;" horiz-adv-x="1415" 
d="M411 1516h1100l-100 -433h-207l61 260h-540l-111 -485h446l-43 -172h-442l-118 -514h534l61 262h209l-100 -434h-1086l39 172h134l270 1171h-148zM874 -1120c0 17.333 3.5 33.833 10.5 49.5s16.333 29.334 28 41.001s25.5 21 41.5 28s33 10.5 51 10.5
c17.333 0 33.833 -3.5 49.5 -10.5s29.334 -16.333 41.001 -28s21 -25.334 28 -41.001s10.5 -32.167 10.5 -49.5c0 -18 -3.5 -35 -10.5 -51s-16.333 -30.167 -28 -42.5s-25.334 -22 -41.001 -29s-32.167 -10.5 -49.5 -10.5c-18 0 -35 3.5 -51 10.5s-29.833 16.667 -41.5 29
s-21 26.5 -28 42.5s-10.5 33 -10.5 51z" />
    <glyph glyph-name="edotaccent" unicode="&#x117;" horiz-adv-x="1171" 
d="M318 483c-0.666992 -9.33301 -1.3291 -17.333 -1.99609 -24s-1 -13 -1 -19c0 -42 6.83301 -81 20.5 -117s32.667 -67.167 57 -93.5s53.333 -47 87 -62s70.5 -22.5 110.5 -22.5c53.333 0 104.166 10.833 152.499 32.5s88.833 53.167 121.5 94.5l148 -108
c-22.667 -30 -49.667 -57 -81 -81s-66 -44.5 -104 -61.5s-78.5 -30 -121.5 -39s-86.833 -13.5 -131.5 -13.5c-64 0 -123.833 10.667 -179.5 32s-104.334 52.333 -146.001 93s-74.334 90.5 -98.001 149.5s-35.5 125.833 -35.5 200.5c0 86 15.167 166.833 45.5 242.5
s72.333 141.667 126 198s117.167 100.833 190.5 133.5s152.666 49 237.999 49c66 0 124.833 -11.167 176.5 -33.5s95.5 -51.833 131.5 -88.5s63.333 -79 82 -127s28 -97.333 28 -148c0 -34 -1.83301 -66.833 -5.5 -98.5s-8.16699 -61.167 -13.5 -88.5h-796zM688.005 897
c-40 0 -77.501 -6.33105 -112.501 -18.998s-66.833 -30.334 -95.5 -53.001s-54 -49.334 -76 -80.001s-40 -64 -54 -100h590c0.666992 41.333 -4.83301 77.833 -16.5 109.5s-28.667 58 -51 79s-49.166 36.833 -80.499 47.5s-66 16 -104 16zM670.004 -1600
c0 17.333 3.5 33.833 10.5 49.5s16.333 29.334 28 41.001s25.5 21 41.5 28s33 10.5 51 10.5c17.333 0 33.833 -3.5 49.5 -10.5s29.334 -16.333 41.001 -28s21 -25.334 28 -41.001s10.5 -32.167 10.5 -49.5c0 -18 -3.5 -35 -10.5 -51s-16.333 -30.167 -28 -42.5
s-25.334 -22 -41.001 -29s-32.167 -10.5 -49.5 -10.5c-18 0 -35 3.5 -51 10.5s-29.833 16.667 -41.5 29s-21 26.5 -28 42.5s-10.5 33 -10.5 51z" />
    <glyph glyph-name="Eogonek" unicode="&#x118;" horiz-adv-x="1413" 
d="M412 1516h1099l-100 -433h-207l62 260h-541l-111 -485h447l-43 -172h-443l-118 -514h534l62 262h209l-101 -434h-18c-49.333 -1.33301 -93.5 -9.16602 -132.5 -23.499s-72.167 -32.5 -99.5 -54.5s-48.5 -45.833 -63.5 -71.5s-22.5 -50.834 -22.5 -75.501
c0 -27.333 10.333 -50.666 31 -69.999s48 -29 82 -29c26 0 50.667 2.16699 74 6.5s41.666 9.83301 54.999 16.5l43 -127c-18 -10.667 -42.667 -20.5 -74 -29.5s-66 -13.5 -104 -13.5c-41.333 0 -79 4.83301 -113 14.5s-63.333 23.334 -88 41.001s-44.167 39.5 -58.5 65.5
s-21.5 56 -21.5 90c0 61.333 13.667 113.166 41 155.499s63 77.166 107 104.499h-723l39 172h133l270 1171h-147z" />
    <glyph glyph-name="eogonek" unicode="&#x119;" horiz-adv-x="1169" 
d="M379 -260c0 49.333 11.665 93.332 34.998 131.999s52 73 86 103c-54.667 7.33301 -105.667 23.166 -153 47.499s-88 56.333 -122 96s-60.5 86.834 -79.5 141.501s-28.5 116 -28.5 184c0 86 15.333 167 46 243s72.667 142 126 198s116.5 100.333 189.5 133
s152.5 49 238.5 49c65.333 0 124 -11.333 176 -34s96 -52.334 132 -89.001s63.333 -79 82 -127s28 -97 28 -147c0 -34.667 -1.83301 -67.667 -5.5 -99s-8.16699 -60.666 -13.5 -87.999h-797c0 -9.33301 -0.333008 -17 -1 -23s-1 -12.667 -1 -20
c0 -42 6.83301 -80.833 20.5 -116.5s32.834 -66.834 57.501 -93.501s53.667 -47.5 87 -62.5s70 -22.5 110 -22.5c53.333 0 104.166 11 152.499 33s88.833 53.333 121.5 94l74 -53.5c24.667 -17 49.334 -35.167 74.001 -54.5c-49.333 -65.333 -118.333 -116 -207 -152
c-41.333 -18.667 -77.666 -37 -108.999 -55s-57.833 -36.5 -79.5 -55.5s-38 -38.667 -49 -59s-16.5 -42.833 -16.5 -67.5c0 -27.333 10.167 -50.666 30.5 -69.999s47.833 -29 82.5 -29c26 0 50.5 2.16699 73.5 6.5s41.5 9.83301 55.5 16.5
c6.66699 -22 13.667 -43.167 21 -63.5l22 -63.5c-18 -10.667 -42.667 -20.5 -74 -29.5s-66.333 -13.5 -105 -13.5c-40.667 0 -78 4.83301 -112 14.5s-63.333 23.334 -88 41.001s-44.167 39.5 -58.5 65.5s-21.5 56 -21.5 90zM689.998 896.999
c-79.333 0 -148.668 -23.8311 -208.001 -71.498s-102.666 -107.834 -129.999 -180.501h590c1.33301 41.333 -4.16699 77.666 -16.5 108.999s-29.333 57.5 -51 78.5s-48.167 37 -79.5 48s-66.333 16.5 -105 16.5z" />
    <glyph glyph-name="Ecaron" unicode="&#x11a;" horiz-adv-x="1415" 
d="M411 1516h1100l-100 -433h-207l61 260h-540l-111 -485h446l-43 -172h-442l-118 -514h534l61 262h209l-100 -434h-1086l39 172h134l270 1171h-148zM1414 1924l-297 -273h-113l-149 273h166l67 -129l129 129h197z" />
    <glyph glyph-name="ecaron" unicode="&#x11b;" horiz-adv-x="1171" 
d="M318 483c-0.666992 -9.33301 -1.3291 -17.333 -1.99609 -24s-1 -13 -1 -19c0 -42 6.83301 -81 20.5 -117s32.667 -67.167 57 -93.5s53.333 -47 87 -62s70.5 -22.5 110.5 -22.5c53.333 0 104.166 10.833 152.499 32.5s88.833 53.167 121.5 94.5l148 -108
c-22.667 -30 -49.667 -57 -81 -81s-66 -44.5 -104 -61.5s-78.5 -30 -121.5 -39s-86.833 -13.5 -131.5 -13.5c-64 0 -123.833 10.667 -179.5 32s-104.334 52.333 -146.001 93s-74.334 90.5 -98.001 149.5s-35.5 125.833 -35.5 200.5c0 86 15.167 166.833 45.5 242.5
s72.333 141.667 126 198s117.167 100.833 190.5 133.5s152.666 49 237.999 49c66 0 124.833 -11.167 176.5 -33.5s95.5 -51.833 131.5 -88.5s63.333 -79 82 -127s28 -97.333 28 -148c0 -34 -1.83301 -66.833 -5.5 -98.5s-8.16699 -61.167 -13.5 -88.5h-796zM688.005 897
c-40 0 -77.501 -6.33105 -112.501 -18.998s-66.833 -30.334 -95.5 -53.001s-54 -49.334 -76 -80.001s-40 -64 -54 -100h590c0.666992 41.333 -4.83301 77.833 -16.5 109.5s-28.667 58 -51 79s-49.166 36.833 -80.499 47.5s-66 16 -104 16zM1148 1444l-297 -273h-113
l-149 273h166l67 -129l129 129h197z" />
    <glyph glyph-name="Gbreve" unicode="&#x11e;" horiz-adv-x="1616" 
d="M1155 0l49.9912 222.001c-61.333 -84 -134.166 -146.167 -218.499 -186.5s-175.833 -60.5 -274.5 -60.5c-91.333 0 -176 17.5 -254 52.5s-145.333 83.167 -202 144.5s-101 133.333 -133 216s-48 171.667 -48 267c0 82.667 9.66699 162 29 238s47 147 83 213
s79.5 125.833 130.5 179.5s108.333 99.667 172 138s132.834 68 207.501 89s153.334 31.5 236.001 31.5c63.333 0 122 -7.33301 176 -22s103 -34 147 -58s82.5 -51.5 115.5 -82.5s60.167 -62.833 81.5 -95.5h156l-41 -172h-276c-14.667 34 -34.167 65.333 -58.5 94
s-52.666 53.167 -84.999 73.5s-68.5 36.166 -108.5 47.499s-83 17 -129 17c-60 0 -116.667 -8 -170 -24s-102.666 -38.833 -147.999 -68.5s-86.166 -65 -122.499 -106s-67.166 -86.5 -92.499 -136.5s-44.833 -103.667 -58.5 -161s-20.5 -116.666 -20.5 -177.999
c0 -72.667 11.5 -139.5 34.5 -200.5s54.167 -113.5 93.5 -157.5s85.5 -78.333 138.5 -103s109.5 -37 169.5 -37c60.667 0 117.834 8.5 171.501 25.5s102.667 41.667 147 74s83.833 71.666 118.5 117.999s63.334 98.833 86.001 157.5h-423l41 176h643l-164 -725h-200z
M971.991 1628c-55.333 0 -105.324 7.83105 -149.991 23.498s-82.334 38.834 -113.001 69.501s-52.834 65.834 -66.501 105.501s-19.167 83.5 -16.5 131.5h141c1.33301 -61.333 18.166 -109.833 50.499 -145.5s87.166 -53.5 164.499 -53.5
c65.333 0 119.166 18.5 161.499 55.5s71.166 84.833 86.499 143.5h145c-8.66699 -48 -25.334 -91.833 -50.001 -131.5s-53.834 -74.5 -87.501 -104.5s-74.334 -53.167 -122.001 -69.5s-95.5 -24.5 -143.5 -24.5v0z" />
    <glyph glyph-name="gbreve" unicode="&#x11f;" horiz-adv-x="1249" 
d="M783 64c-42 -29.333 -85.167 -50.3359 -129.5 -63.0029s-92.166 -19 -143.499 -19c-56.667 0 -109.667 11 -159 33s-92.166 52 -128.499 90s-65 82.833 -86 134.5s-31.5 107.167 -31.5 166.5c0 96.667 17 185.334 51 266.001s80.167 150 138.5 208s126.333 103 204 135
s160.167 48 247.5 48c50 0 97 -7.5 141 -22.5s80 -34.5 108 -58.5l13 54h203l-238 -1024c-20 -86.667 -46.667 -160.5 -80 -221.5s-74 -110.833 -122 -149.5s-103.833 -67 -167.5 -85s-135.834 -27 -216.501 -27c-36.667 0 -74.667 3 -114 9s-77.833 15.167 -115.5 27.5
s-73.167 27.833 -106.5 46.5s-62.666 40.667 -87.999 66l129 146c16 -17.333 35.333 -33.166 58 -47.499s47.667 -26.833 75 -37.5s56.166 -19 86.499 -25s61.166 -9 92.499 -9c48 0 91.667 5.16699 131 15.5s74.5 28.333 105.5 54s58 60.334 81 104.001
s43.5 105.5 61.5 185.5zM557 153.997c52 0 100.668 9.33398 146.001 28.001s87 44 125 76l128 552c-17.333 22 -44.333 41 -81 57s-84.667 24 -144 24c-51.333 0 -102 -10.5 -152 -31.5s-94.667 -51.333 -134 -91s-71.333 -88.334 -96 -146.001s-37 -123.167 -37 -196.5
c0 -42.667 6 -80.834 18 -114.501s28.667 -62.167 50 -85.5s47.166 -41.166 77.499 -53.499s63.5 -18.5 99.5 -18.5zM790.001 1149c-55.333 0 -105.324 7.83105 -149.991 23.498s-82.334 38.834 -113.001 69.501s-52.834 65.834 -66.501 105.501s-19.167 83.5 -16.5 131.5
h141c1.33301 -61.333 18.166 -109.833 50.499 -145.5s87.166 -53.5 164.499 -53.5c65.333 0 119.166 18.5 161.499 55.5s71.166 84.833 86.499 143.5h145c-8.66699 -48 -25.334 -91.833 -50.001 -131.5s-53.834 -74.5 -87.501 -104.5s-74.334 -53.167 -122.001 -69.5
s-95.5 -24.5 -143.5 -24.5v0z" />
    <glyph glyph-name="Gcommaaccent" unicode="&#x122;" horiz-adv-x="1616" 
d="M1155 0l49.9912 222.001c-61.333 -84 -134.166 -146.167 -218.499 -186.5s-175.833 -60.5 -274.5 -60.5c-91.333 0 -176 17.5 -254 52.5s-145.333 83.167 -202 144.5s-101 133.333 -133 216s-48 171.667 -48 267c0 82.667 9.66699 162 29 238s47 147 83 213
s79.5 125.833 130.5 179.5s108.333 99.667 172 138s132.834 68 207.501 89s153.334 31.5 236.001 31.5c63.333 0 122 -7.33301 176 -22s103 -34 147 -58s82.5 -51.5 115.5 -82.5s60.167 -62.833 81.5 -95.5h156l-41 -172h-276c-14.667 34 -34.167 65.333 -58.5 94
s-52.666 53.167 -84.999 73.5s-68.5 36.166 -108.5 47.499s-83 17 -129 17c-60 0 -116.667 -8 -170 -24s-102.666 -38.833 -147.999 -68.5s-86.166 -65 -122.499 -106s-67.166 -86.5 -92.499 -136.5s-44.833 -103.667 -58.5 -161s-20.5 -116.666 -20.5 -177.999
c0 -72.667 11.5 -139.5 34.5 -200.5s54.167 -113.5 93.5 -157.5s85.5 -78.333 138.5 -103s109.5 -37 169.5 -37c60.667 0 117.834 8.5 171.501 25.5s102.667 41.667 147 74s83.833 71.666 118.5 117.999s63.334 98.833 86.001 157.5h-423l41 176h643l-164 -725h-200z
M642.991 -40.999l211 -84l-180 -348l-144 53z" />
    <glyph glyph-name="gcommaaccent" unicode="&#x123;" horiz-adv-x="1249" 
d="M783 64c-42 -29.333 -85.167 -50.3359 -129.5 -63.0029s-92.166 -19 -143.499 -19c-56.667 0 -109.667 11 -159 33s-92.166 52 -128.499 90s-65 82.833 -86 134.5s-31.5 107.167 -31.5 166.5c0 96.667 17 185.334 51 266.001s80.167 150 138.5 208s126.333 103 204 135
s160.167 48 247.5 48c50 0 97 -7.5 141 -22.5s80 -34.5 108 -58.5l13 54h203l-238 -1024c-20 -86.667 -46.667 -160.5 -80 -221.5s-74 -110.833 -122 -149.5s-103.833 -67 -167.5 -85s-135.834 -27 -216.501 -27c-36.667 0 -74.667 3 -114 9s-77.833 15.167 -115.5 27.5
s-73.167 27.833 -106.5 46.5s-62.666 40.667 -87.999 66l129 146c16 -17.333 35.333 -33.166 58 -47.499s47.667 -26.833 75 -37.5s56.166 -19 86.499 -25s61.166 -9 92.499 -9c48 0 91.667 5.16699 131 15.5s74.5 28.333 105.5 54s58 60.334 81 104.001
s43.5 105.5 61.5 185.5zM557 153.997c52 0 100.668 9.33398 146.001 28.001s87 44 125 76l128 552c-17.333 22 -44.333 41 -81 57s-84.667 24 -144 24c-51.333 0 -102 -10.5 -152 -31.5s-94.667 -51.333 -134 -91s-71.333 -88.334 -96 -146.001s-37 -123.167 -37 -196.5
c0 -42.667 6 -80.834 18 -114.501s28.667 -62.167 50 -85.5s47.166 -41.166 77.499 -53.499s63.5 -18.5 99.5 -18.5zM899.001 1138l-189 74l181 349l121 -44z" />
    <glyph glyph-name="Imacron" unicode="&#x12a;" horiz-adv-x="883" 
d="M425 1516h492l-41 -173h-141l-268 -1171h139l-39 -172h-492l39 172h144l270 1171h-143zM1064 1709h-743l26 117h744z" />
    <glyph glyph-name="imacron" unicode="&#x12b;" horiz-adv-x="725" 
d="M198 1036h387l-200 -864h166l-39 -172h-369l200 864h-186zM814 1229h-743l26 117h744z" />
    <glyph glyph-name="Iogonek" unicode="&#x12e;" horiz-adv-x="883" 
d="M426 1516l492.002 -0.00195312l-41 -173h-142l-268 -1171h139l-39 -172h-139c-40.667 0 -80.834 -6.16699 -120.501 -18.5s-74.834 -29 -105.501 -50s-55.667 -45.167 -75 -72.5s-29 -55.333 -29 -84c0 -27.333 10.333 -50.666 31 -69.999s48 -29 82 -29
c26 0 50.5 2.16699 73.5 6.5s41.5 9.83301 55.5 16.5l43 -127c-18 -10.667 -42.667 -20.5 -74 -29.5s-66 -13.5 -104 -13.5c-41.333 0 -79 4.83301 -113 14.5s-63.333 23.334 -88 41.001s-44.167 39.5 -58.5 65.5s-21.5 56 -21.5 90c0 57.333 15 107.5 45 150.5
s65.667 79.5 107 109.5l39 172h143l270 1171h-143z" />
    <glyph glyph-name="iogonek" unicode="&#x12f;" horiz-adv-x="725" 
d="M201 1036l386.999 -0.00195312l-201 -864h166l-39 -172h-70c-40.667 -1.33301 -78.334 -8.83301 -113.001 -22.5s-64.667 -31.5 -90 -53.5s-44.833 -45.833 -58.5 -71.5s-20.5 -51.5 -20.5 -77.5c0 -27.333 10.167 -50.666 30.5 -69.999s47.5 -29 81.5 -29
c26 0 50.667 2.16699 74 6.5s41.666 9.83301 54.999 16.5l43 -127c-17.333 -10.667 -41.666 -20.5 -72.999 -29.5s-66.333 -13.5 -105 -13.5c-40.667 0 -78.167 4.83301 -112.5 14.5s-63.666 23.334 -87.999 41.001s-43.666 39.5 -57.999 65.5s-21.5 56 -21.5 90
c0 58.667 15.333 109.5 46 152.5s67.667 78.833 111 107.5l199 864h-184zM390.999 1401c0 35.333 13 65.999 39 91.999s57.333 39 94 39c18 0 34.833 -3.5 50.5 -10.5s29.667 -16.5 42 -28.5s21.833 -26 28.5 -42s10 -32.667 10 -50c0 -18 -3.33301 -35.167 -10 -51.5
s-16.167 -30.666 -28.5 -42.999s-26.333 -22.166 -42 -29.499s-32.5 -11 -50.5 -11c-36.667 0 -68 13.667 -94 41s-39 58.666 -39 93.999z" />
    <glyph glyph-name="Idotaccent" unicode="&#x130;" horiz-adv-x="883" 
d="M425 1516h492l-41 -173h-141l-268 -1171h139l-39 -172h-492l39 172h144l270 1171h-143zM600 -1120c0 17.333 3.5 33.833 10.5 49.5s16.333 29.334 28 41.001s25.5 21 41.5 28s33 10.5 51 10.5c17.333 0 33.833 -3.5 49.5 -10.5s29.334 -16.333 41.001 -28
s21 -25.334 28 -41.001s10.5 -32.167 10.5 -49.5c0 -18 -3.5 -35 -10.5 -51s-16.333 -30.167 -28 -42.5s-25.334 -22 -41.001 -29s-32.167 -10.5 -49.5 -10.5c-18 0 -35 3.5 -51 10.5s-29.833 16.667 -41.5 29s-21 26.5 -28 42.5s-10.5 33 -10.5 51z" />
    <glyph glyph-name="dotlessi" unicode="&#x131;" horiz-adv-x="725" 
d="M198 1036h387l-200 -864h166l-39 -172h-369l200 864h-186z" />
    <glyph glyph-name="Kcommaaccent" unicode="&#x136;" horiz-adv-x="1642" 
d="M1390 1343l41 173h389l-41 -173h-94l-837 -589l468 -582h158l-39 -172h-407l39 172l-469 602zM411 1516h492l-41 -173h-137l-268 -1171h149l-39 -172h-492l39 172h134l270 1171h-148zM683 -41l211 -84l-180 -348l-144 53z" />
    <glyph glyph-name="kcommaaccent" unicode="&#x137;" 
d="M279 1556h387l-223 -964h112l340 288l37 156h336l-41 -172h-107l-389 -329l250 -365h125l-39 -170h-219l-311 469h-122l-108 -469h-202l318 1384h-185zM453 -41l211 -84l-180 -348l-144 53z" />
    <glyph glyph-name="Lacute" unicode="&#x139;" horiz-adv-x="1376" 
d="M411 1516h491.999l-41 -173h-137l-268 -1171h505c28.667 0 50.834 7.66699 66.501 23s26.167 34.333 31.5 57l47 197h201l-104 -449h-1129l39 172h134l270 1171h-148zM776.999 1874h240v-17l-299 -282h-154z" />
    <glyph glyph-name="lacute" unicode="&#x13a;" horiz-adv-x="653" 
d="M264 1556h402l-320 -1384h172l-39 -172h-374l318 1384h-200zM637 1918h240v-17l-299 -282h-154z" />
    <glyph glyph-name="Lcommaaccent" unicode="&#x13b;" horiz-adv-x="1376" 
d="M411 1516h491.999l-41 -173h-137l-268 -1171h505c28.667 0 50.834 7.66699 66.501 23s26.167 34.333 31.5 57l47 197h201l-104 -449h-1129l39 172h134l270 1171h-148zM557.999 -41l211 -84l-180 -348l-144 53z" />
    <glyph glyph-name="lcommaaccent" unicode="&#x13c;" horiz-adv-x="653" 
d="M264 1556h402l-320 -1384h172l-39 -172h-374l318 1384h-200zM208 -41l211 -84l-180 -348l-144 53z" />
    <glyph glyph-name="Lcaron" unicode="&#x13d;" horiz-adv-x="1376" 
d="M411 1516h491.999l-41 -173h-137l-268 -1171h505c28.667 0 50.834 7.66699 66.501 23s26.167 34.333 31.5 57l47 197h201l-104 -449h-1129l39 172h134l270 1171h-148zM1131 1009h-125l71 510l183 12z" />
    <glyph glyph-name="lcaron" unicode="&#x13e;" horiz-adv-x="780" 
d="M264 1556h402l-320 -1384h172l-39 -172h-374l318 1384h-200zM824 1059h-125l71 510l183 12z" />
    <glyph glyph-name="Lslash" unicode="&#x141;" horiz-adv-x="1374" 
d="M412 1516h490.999l-41 -173h-137l-88 -387l467 252l-55 -235l-465 -250l-127 -551h506c28.667 0 50.834 7.5 66.501 22.5s26.167 34.167 31.5 57.5l47 197h201l-105 -449h-1128l39 172h133l98 424l-262 -141l55 235l262 139l117 514h-147z" />
    <glyph glyph-name="lslash" unicode="&#x142;" horiz-adv-x="651" 
d="M264 1556h402l-138 -593l299 161l-55 -235l-297 -160l-129 -557h172l-39 -172h-375l140 604l-281 -149l55 235l279 150l125 544h-199z" />
    <glyph glyph-name="Nacute" unicode="&#x143;" horiz-adv-x="1786" 
d="M1370 1516h491l-39 -173h-136l-308 -1343h-262l-413 1255l-249 -1083h152l-39 -172h-492l39 172h133l271 1171h-150l41 173h416l408 -1246l246 1073h-148zM1239 1957h240v-17l-299 -282h-154z" />
    <glyph glyph-name="nacute" unicode="&#x144;" horiz-adv-x="1368" 
d="M188 1036l391.001 0.00195312l-25 -106c47.333 39.333 99.166 70 155.499 92s115.833 33 178.5 33c53.333 0 101.5 -8 144.5 -24s78.167 -40.333 105.5 -73s45.333 -73.334 54 -122.001s5.66699 -105.334 -9 -170.001l-114 -494h147l-39 -172h-350l149 641
c18.667 78.667 12.667 138 -18 178s-82.667 60 -156 60c-52 0 -101.333 -11.167 -148 -33.5s-91 -53.5 -133 -93.5l-173 -752h-203l200 864h-198zM946.001 1477h240v-17l-299 -282h-154z" />
    <glyph glyph-name="Ncommaaccent" unicode="&#x145;" horiz-adv-x="1786" 
d="M1370 1516h491l-39 -173h-136l-308 -1343h-262l-413 1255l-249 -1083h152l-39 -172h-492l39 172h133l271 1171h-150l41 173h416l408 -1246l246 1073h-148zM733 -41l211 -84l-180 -348l-144 53z" />
    <glyph glyph-name="ncommaaccent" unicode="&#x146;" horiz-adv-x="1368" 
d="M188 1036l391.001 0.00195312l-25 -106c47.333 39.333 99.166 70 155.499 92s115.833 33 178.5 33c53.333 0 101.5 -8 144.5 -24s78.167 -40.333 105.5 -73s45.333 -73.334 54 -122.001s5.66699 -105.334 -9 -170.001l-114 -494h147l-39 -172h-350l149 641
c18.667 78.667 12.667 138 -18 178s-82.667 60 -156 60c-52 0 -101.333 -11.167 -148 -33.5s-91 -53.5 -133 -93.5l-173 -752h-203l200 864h-198zM473.001 -40.998l211 -84l-180 -348l-144 53z" />
    <glyph glyph-name="Ncaron" unicode="&#x147;" horiz-adv-x="1786" 
d="M1370 1516h491l-39 -173h-136l-308 -1343h-262l-413 1255l-249 -1083h152l-39 -172h-492l39 172h133l271 1171h-150l41 173h416l408 -1246l246 1073h-148zM1508 1923l-297 -273h-113l-149 273h166l67 -129l129 129h197z" />
    <glyph glyph-name="ncaron" unicode="&#x148;" horiz-adv-x="1368" 
d="M188 1036l391.001 0.00195312l-25 -106c47.333 39.333 99.166 70 155.499 92s115.833 33 178.5 33c53.333 0 101.5 -8 144.5 -24s78.167 -40.333 105.5 -73s45.333 -73.334 54 -122.001s5.66699 -105.334 -9 -170.001l-114 -494h147l-39 -172h-350l149 641
c18.667 78.667 12.667 138 -18 178s-82.667 60 -156 60c-52 0 -101.333 -11.167 -148 -33.5s-91 -53.5 -133 -93.5l-173 -752h-203l200 864h-198zM1218 1444l-297 -273h-113l-149 273h166l67 -129l129 129h197z" />
    <glyph glyph-name="napostrophe" unicode="&#x149;" horiz-adv-x="1368" 
d="M188 1036l391.001 0.00195312l-25 -106c47.333 39.333 99.166 70 155.499 92s115.833 33 178.5 33c53.333 0 101.5 -8 144.5 -24s78.167 -40.333 105.5 -73s45.333 -73.334 54 -122.001s5.66699 -105.334 -9 -170.001l-114 -494h147l-39 -172h-350l149 641
c18.667 78.667 12.667 138 -18 178s-82.667 60 -156 60c-52 0 -101.333 -11.167 -148 -33.5s-91 -53.5 -133 -93.5l-173 -752h-203l200 864h-198zM503.001 1520l211 -84l-180 -349l-144 54z" />
    <glyph glyph-name="Omacron" unicode="&#x14c;" horiz-adv-x="1577" 
d="M712 -31c-85.333 0 -166.5 16.3311 -243.5 48.998s-144.667 78.834 -203 138.501s-104.666 131.667 -138.999 216s-51.5 178.5 -51.5 282.5c0 87.333 10.333 169.833 31 247.5s49.667 149.5 87 215.5s82.166 125.333 134.499 178s110.333 97.334 174 134.001
s131.834 64.834 204.501 84.501s148.334 29.5 227.001 29.5c85.333 0 166.5 -14.833 243.5 -44.5s144.667 -72.834 203 -129.501s104.666 -126.167 138.999 -208.5s51.5 -175.833 51.5 -280.5c0 -89.333 -10 -174 -30 -254s-48.167 -153.667 -84.5 -221
s-80.333 -128 -132 -182s-109.334 -99.833 -173.001 -137.5s-132.5 -66.667 -206.5 -87s-151.333 -30.5 -232 -30.5zM735 171.998c57.333 0 112.333 8.00098 165 24.001s101.667 38.833 147 68.5s86.5 65.334 123.5 107.001s68.5 88.167 94.5 139.5
s46.167 106.666 60.5 165.999s21.5 121.666 21.5 186.999c0 72.667 -10.833 138.334 -32.5 197.001s-51.834 108.834 -90.501 150.501s-84.667 73.667 -138 96s-111.666 33.5 -174.999 33.5c-82.667 0 -161 -16.667 -235 -50s-139 -79.833 -195 -139.5
s-100.333 -130.334 -133 -212.001s-49 -170.834 -49 -267.501c0 -71.333 10.833 -137.5 32.5 -198.5s51.834 -113.833 90.501 -158.5s84.667 -79.667 138 -105s111.666 -38 174.999 -38zM1358 1749h-743l26 117h744z" />
    <glyph glyph-name="omacron" unicode="&#x14d;" 
d="M75 449c0 57.333 7.16602 112.33 21.499 164.997s34.666 102 60.999 148s58 87.667 95 125s77.833 69.333 122.5 96s92.5 47.334 143.5 62.001s103.833 22 158.5 22c68.667 0 132.334 -12.167 191.001 -36.5s109.334 -57.666 152.001 -99.999s76.167 -92 100.5 -149
s36.5 -118.167 36.5 -183.5c0 -58 -7.33301 -113.667 -22 -167s-35.167 -103 -61.5 -149s-57.833 -88 -94.5 -126s-77.5 -70.333 -122.5 -97s-93.167 -47.334 -144.5 -62.001s-104.666 -22 -159.999 -22c-69.333 0 -133 12.167 -191 36.5s-108.333 57.833 -151 100.5
s-75.834 92.834 -99.501 150.501s-35.5 119.834 -35.5 186.501zM283.999 462.997c0 -46.667 6.8291 -89.165 20.4961 -127.498s32.834 -71 57.501 -98s54.334 -48 89.001 -63s72.667 -22.5 114 -22.5c48.667 0 96.167 10.667 142.5 32s87.166 51 122.499 89
s63.833 83.667 85.5 137s32.5 112 32.5 176c0 46.667 -7.16699 88.667 -21.5 126s-34.166 69.333 -59.499 96s-55.166 47.167 -89.499 61.5s-71.833 21.5 -112.5 21.5c-49.333 0 -96.833 -10.5 -142.5 -31.5s-86.167 -50.333 -121.5 -88s-63.666 -82.834 -84.999 -135.501
s-32 -110.334 -32 -173.001zM1106 1260h-743l26 117h744z" />
    <glyph glyph-name="Ohungarumlaut" unicode="&#x150;" horiz-adv-x="1577" 
d="M712 -31c-85.333 0 -166.5 16.3311 -243.5 48.998s-144.667 78.834 -203 138.501s-104.666 131.667 -138.999 216s-51.5 178.5 -51.5 282.5c0 87.333 10.333 169.833 31 247.5s49.667 149.5 87 215.5s82.166 125.333 134.499 178s110.333 97.334 174 134.001
s131.834 64.834 204.501 84.501s148.334 29.5 227.001 29.5c85.333 0 166.5 -14.833 243.5 -44.5s144.667 -72.834 203 -129.501s104.666 -126.167 138.999 -208.5s51.5 -175.833 51.5 -280.5c0 -89.333 -10 -174 -30 -254s-48.167 -153.667 -84.5 -221
s-80.333 -128 -132 -182s-109.334 -99.833 -173.001 -137.5s-132.5 -66.667 -206.5 -87s-151.333 -30.5 -232 -30.5zM735 171.998c57.333 0 112.333 8.00098 165 24.001s101.667 38.833 147 68.5s86.5 65.334 123.5 107.001s68.5 88.167 94.5 139.5
s46.167 106.666 60.5 165.999s21.5 121.666 21.5 186.999c0 72.667 -10.833 138.334 -32.5 197.001s-51.834 108.834 -90.501 150.501s-84.667 73.667 -138 96s-111.666 33.5 -174.999 33.5c-82.667 0 -161 -16.667 -235 -50s-139 -79.833 -195 -139.5
s-100.333 -130.334 -133 -212.001s-49 -170.834 -49 -267.501c0 -71.333 10.833 -137.5 32.5 -198.5s51.834 -113.833 90.501 -158.5s84.667 -79.667 138 -105s111.666 -38 174.999 -38zM1431 2034l-243 -321h-140l201 321h182zM1146 2034l-243 -321h-138l198 321h183z" />
    <glyph glyph-name="ohungarumlaut" unicode="&#x151;" 
d="M75 449c0 57.333 7.16602 112.33 21.499 164.997s34.666 102 60.999 148s58 87.667 95 125s77.833 69.333 122.5 96s92.5 47.334 143.5 62.001s103.833 22 158.5 22c68.667 0 132.334 -12.167 191.001 -36.5s109.334 -57.666 152.001 -99.999s76.167 -92 100.5 -149
s36.5 -118.167 36.5 -183.5c0 -58 -7.33301 -113.667 -22 -167s-35.167 -103 -61.5 -149s-57.833 -88 -94.5 -126s-77.5 -70.333 -122.5 -97s-93.167 -47.334 -144.5 -62.001s-104.666 -22 -159.999 -22c-69.333 0 -133 12.167 -191 36.5s-108.333 57.833 -151 100.5
s-75.834 92.834 -99.501 150.501s-35.5 119.834 -35.5 186.501zM283.999 462.997c0 -46.667 6.8291 -89.165 20.4961 -127.498s32.834 -71 57.501 -98s54.334 -48 89.001 -63s72.667 -22.5 114 -22.5c48.667 0 96.167 10.667 142.5 32s87.166 51 122.499 89
s63.833 83.667 85.5 137s32.5 112 32.5 176c0 46.667 -7.16699 88.667 -21.5 126s-34.166 69.333 -59.499 96s-55.166 47.167 -89.499 61.5s-71.833 21.5 -112.5 21.5c-49.333 0 -96.833 -10.5 -142.5 -31.5s-86.167 -50.333 -121.5 -88s-63.666 -82.834 -84.999 -135.501
s-32 -110.334 -32 -173.001zM1179 1545l-243 -321h-140l201 321h182zM893.995 1545l-243 -321h-138l198 321h183z" />
    <glyph glyph-name="OE" unicode="&#x152;" horiz-adv-x="2066" 
d="M688 0c-95.333 0 -180.999 17.333 -256.999 52s-140.167 81.167 -192.5 139.5s-92.5 126 -120.5 203s-42 158.5 -42 244.5c0 121.333 24.5 235.333 73.5 342s115.167 199.5 198.5 278.5s179.666 141.5 288.999 187.5s224 69 344 69h1184l-99 -433h-204l57 260h-535
l-110 -485h455l-41 -172h-455l-119 -514h535l61 260h209l-100 -432h-1131zM289.001 655c0 -66.667 9.16406 -129.332 27.4971 -187.999s45.333 -109.834 81 -153.501s79.334 -78.167 131.001 -103.5s111.167 -38 178.5 -38h211l270 1171h-232
c-81.333 0 -161.666 -17.667 -240.999 -53s-150.666 -84 -213.999 -146s-114.5 -135 -153.5 -219s-58.5 -174 -58.5 -270z" />
    <glyph glyph-name="oe" unicode="&#x153;" horiz-adv-x="1995" 
d="M76 449c0 86 16 166.503 48 241.503s75.333 140.5 130 196.5s118.5 100 191.5 132s150.5 48 232.5 48c88.667 0 168.167 -19.833 238.5 -59.5s125.833 -92.167 166.5 -157.5c54.667 66.667 121.334 119.5 200.001 158.5s165 58.5 259 58.5c65.333 0 124 -11.333 176 -34
s96.167 -52.334 132.5 -89.001s63.666 -79 81.999 -127s27.5 -97 27.5 -147c0 -34.667 -1.66699 -67.667 -5 -99s-7.66602 -60.666 -12.999 -87.999h-795c-1.33301 -2.66699 -2 -5.66699 -2 -9s-0.666992 -6.33301 -2 -9v-25c0 -42 6.83301 -80.833 20.5 -116.5
s32.667 -66.834 57 -93.501s53.333 -47.5 87 -62.5s70.167 -22.5 109.5 -22.5c53.333 0 104.166 11 152.499 33s89.166 53.333 122.499 94l73.5 -53.5c24.333 -17 48.833 -35.167 73.5 -54.5c-44.667 -60 -106.334 -107.5 -185.001 -142.5s-163 -52.5 -253 -52.5
c-86 0 -163.5 18.833 -232.5 56.5s-123.167 91.167 -162.5 160.5c-56 -65.333 -123 -116.833 -201 -154.5s-162 -56.5 -252 -56.5c-69.333 0 -133.166 12.333 -191.499 37s-108.666 58.167 -150.999 100.5s-75.333 92.166 -99 149.499s-35.5 119.666 -35.5 186.999z
M285 463.003c0 -94 25.833 -169.334 77.5 -226.001s119.167 -85 202.5 -85c49.333 0 96.833 10.5 142.5 31.5s86.667 50.667 123 89s65 84 86 137s31.5 111.833 31.5 176.5c0 46 -7.16699 87.833 -21.5 125.5s-34.166 69.834 -59.499 96.501s-55 47.167 -89 61.5
s-71.333 21.5 -112 21.5c-49.333 0 -96.833 -10.667 -142.5 -32s-86.334 -50.666 -122.001 -87.999s-64 -82.333 -85 -135s-31.5 -110.334 -31.5 -173.001zM1516 897.002c-79.333 0 -148.668 -23.8311 -208.001 -71.498s-102.666 -107.834 -129.999 -180.501h589
c1.33301 41.333 -4 77.666 -16 108.999s-29 57.5 -51 78.5s-48.667 37 -80 48s-66 16.5 -104 16.5z" />
    <glyph glyph-name="Racute" unicode="&#x154;" horiz-adv-x="1438" 
d="M409 1516l617 0.000976562c58 0 110.667 -8.66699 158 -26s87.833 -41.666 121.5 -72.999s59.667 -68.833 78 -112.5s27.5 -91.5 27.5 -143.5c0 -54 -9.16699 -103.833 -27.5 -149.5s-43 -86.334 -74 -122.001s-67 -66.334 -108 -92.001s-84.167 -45.834 -129.5 -60.501
c26 -18.667 48 -46.667 66 -84s27.667 -81.666 29 -132.999l6 -348h129l-39 -172h-293l-6 461c-1.33301 83.333 -20.333 144.333 -57 183s-92 58 -166 58h-163l-121 -530h149l-39 -172h-492l39 172h134l270 1171h-150zM725 1343l-108.001 -472.997h237
c50 0 96.167 5.66699 138.5 17s78.833 28.666 109.5 51.999s54.667 52.666 72 87.999s26 76.666 26 123.999c0 28 -4.66699 53.833 -14 77.5s-23.833 44 -43.5 61s-44.667 30.167 -75 39.5s-66.166 14 -107.499 14h-235zM994.999 1956h240v-17l-299 -282h-154z" />
    <glyph glyph-name="racute" unicode="&#x155;" horiz-adv-x="1053" 
d="M958 750l-203.003 0.00390625l29 122c-64.667 0 -119.667 -16.5 -165 -49.5s-82.666 -76.5 -111.999 -130.5l-120 -520h172l-39 -172h-375l200 864h-198l41 172h391l-33 -142c18.667 21.333 38.667 41.166 60 59.499s43.833 34.166 67.5 47.499
s48.334 23.833 74.001 31.5s51.5 11.5 77.5 11.5c24 0 44.667 -0.333008 62 -1s35.833 -1.83398 55.5 -3.50098s46.834 -4.83398 81.501 -9.50098zM749.997 1477h240v-17l-299 -282h-154z" />
    <glyph glyph-name="Rcommaaccent" unicode="&#x156;" horiz-adv-x="1438" 
d="M409 1516l617 0.000976562c58 0 110.667 -8.66699 158 -26s87.833 -41.666 121.5 -72.999s59.667 -68.833 78 -112.5s27.5 -91.5 27.5 -143.5c0 -54 -9.16699 -103.833 -27.5 -149.5s-43 -86.334 -74 -122.001s-67 -66.334 -108 -92.001s-84.167 -45.834 -129.5 -60.501
c26 -18.667 48 -46.667 66 -84s27.667 -81.666 29 -132.999l6 -348h129l-39 -172h-293l-6 461c-1.33301 83.333 -20.333 144.333 -57 183s-92 58 -166 58h-163l-121 -530h149l-39 -172h-492l39 172h134l270 1171h-150zM725 1343l-108.001 -472.997h237
c50 0 96.167 5.66699 138.5 17s78.833 28.666 109.5 51.999s54.667 52.666 72 87.999s26 76.666 26 123.999c0 28 -4.66699 53.833 -14 77.5s-23.833 44 -43.5 61s-44.667 30.167 -75 39.5s-66.166 14 -107.499 14h-235zM669.999 -40.9961l211 -84l-180 -348l-144 53z" />
    <glyph glyph-name="rcommaaccent" unicode="&#x157;" horiz-adv-x="1053" 
d="M958 750l-203.003 0.00390625l29 122c-64.667 0 -119.667 -16.5 -165 -49.5s-82.666 -76.5 -111.999 -130.5l-120 -520h172l-39 -172h-375l200 864h-198l41 172h391l-33 -142c18.667 21.333 38.667 41.166 60 59.499s43.833 34.166 67.5 47.499
s48.334 23.833 74.001 31.5s51.5 11.5 77.5 11.5c24 0 44.667 -0.333008 62 -1s35.833 -1.83398 55.5 -3.50098s46.834 -4.83398 81.501 -9.50098zM232.997 -40.9961l211 -84l-180 -348l-144 53z" />
    <glyph glyph-name="Rcaron" unicode="&#x158;" horiz-adv-x="1438" 
d="M409 1516l617 0.000976562c58 0 110.667 -8.66699 158 -26s87.833 -41.666 121.5 -72.999s59.667 -68.833 78 -112.5s27.5 -91.5 27.5 -143.5c0 -54 -9.16699 -103.833 -27.5 -149.5s-43 -86.334 -74 -122.001s-67 -66.334 -108 -92.001s-84.167 -45.834 -129.5 -60.501
c26 -18.667 48 -46.667 66 -84s27.667 -81.666 29 -132.999l6 -348h129l-39 -172h-293l-6 461c-1.33301 83.333 -20.333 144.333 -57 183s-92 58 -166 58h-163l-121 -530h149l-39 -172h-492l39 172h134l270 1171h-150zM725 1343l-108.001 -472.997h237
c50 0 96.167 5.66699 138.5 17s78.833 28.666 109.5 51.999s54.667 52.666 72 87.999s26 76.666 26 123.999c0 28 -4.66699 53.833 -14 77.5s-23.833 44 -43.5 61s-44.667 30.167 -75 39.5s-66.166 14 -107.499 14h-235zM1334 1923l-297 -273h-113l-149 273h166l67 -129
l129 129h197z" />
    <glyph glyph-name="rcaron" unicode="&#x159;" horiz-adv-x="1053" 
d="M958 750l-203.003 0.00390625l29 122c-64.667 0 -119.667 -16.5 -165 -49.5s-82.666 -76.5 -111.999 -130.5l-120 -520h172l-39 -172h-375l200 864h-198l41 172h391l-33 -142c18.667 21.333 38.667 41.166 60 59.499s43.833 34.166 67.5 47.499
s48.334 23.833 74.001 31.5s51.5 11.5 77.5 11.5c24 0 44.667 -0.333008 62 -1s35.833 -1.83398 55.5 -3.50098s46.834 -4.83398 81.501 -9.50098zM1038 1444l-297 -273h-113l-149 273h166l67 -129l129 129h197z" />
    <glyph glyph-name="Sacute" unicode="&#x15a;" horiz-adv-x="1278" 
d="M1080 1137c8 35.333 6.50684 66.667 -4.49316 94s-28.5 50.5 -52.5 69.5s-53 33.333 -87 43s-70 14.5 -108 14.5c-55.333 0 -104.833 -7.33301 -148.5 -22s-80.5 -34.667 -110.5 -60s-53 -54.833 -69 -88.5s-24 -69.167 -24 -106.5c0 -33.333 6.33301 -60.333 19 -81
s28.667 -37.667 48 -51s40.833 -24 64.5 -32l68.5 -24l187 -68c48 -16 90 -35 126 -57s66 -47.5 90 -76.5s42 -62 54 -99s18 -78.833 18 -125.5c0 -74 -14.333 -141.667 -43 -203s-68.834 -113.833 -120.501 -157.5s-113.834 -77.5 -186.501 -101.5s-153 -36 -241 -36
c-79.333 0 -146.5 8.5 -201.5 25.5s-100.167 40 -135.5 69s-61.833 62.167 -79.5 99.5s-28.834 76.666 -33.501 117.999h-95l39 159h272l-18 -74c-9.33301 -72 11.667 -125.667 63 -161s125.666 -53 222.999 -53c50 0 96 7 138 21s78.167 33.5 108.5 58.5
s54.166 55 71.499 90s26 73.167 26 114.5c0 32 -5.66699 59.667 -17 83s-26.833 43.5 -46.5 60.5s-42.667 31.667 -69 44s-54.5 23.5 -84.5 33.5l-174 56c-90.667 28.667 -159.334 71.334 -206.001 128.001s-70 129.334 -70 218.001c0 68 13 131.167 39 189.5
s63.833 109 113.5 152s110 76.667 181 101s151.5 36.5 241.5 36.5c56.667 0 108.667 -6.33301 156 -19s89.166 -30.334 125.499 -53.001s67 -50 92 -82s43.167 -67.333 54.5 -106h101l-39 -160h-260zM947.007 1956h240v-17l-299 -282h-154z" />
    <glyph glyph-name="sacute" unicode="&#x15b;" horiz-adv-x="1012" 
d="M749 748c-0.666992 26 -5.83496 49.002 -15.502 69.002s-23 36.833 -40 50.5s-37 24 -60 31s-47.833 10.5 -74.5 10.5s-52 -3.16699 -76 -9.5s-45 -15.833 -63 -28.5s-32.167 -28 -42.5 -46s-15.5 -38.333 -15.5 -61c0 -26.667 8.5 -48.834 25.5 -66.501
s43.833 -33.834 80.5 -48.501l193 -69c58.667 -21.333 103.334 -54.5 134.001 -99.5s46 -99.5 46 -163.5c0 -57.333 -10.5 -107.666 -31.5 -150.999s-50.167 -79.666 -87.5 -108.999s-81.833 -51.333 -133.5 -66s-108.167 -22 -169.5 -22c-37.333 0 -73 3 -107 9
s-65.5 15.167 -94.5 27.5s-54.333 27.666 -76 45.999s-38.5 39.5 -50.5 63.5h-106l41 172h211c-3.33301 -26 0 -49 10 -69s24.333 -36.833 43 -50.5s40.834 -23.834 66.501 -30.501s52.834 -10 81.501 -10s55.5 3.66699 80.5 11s46.833 18 65.5 32s33.5 31.333 44.5 52
s16.5 44.334 16.5 71.001c0 25.333 -9 48.5 -27 69.5s-46 38.167 -84 51.5l-184 67c-59.333 23.333 -105 57.5 -137 102.5s-48 95.5 -48 151.5c0 49.333 8.66699 94.333 26 135s43 75.667 77 105s76.667 52 128 68s111 24 179 24c39.333 0 75.666 -3.83301 108.999 -11.5
s63 -18.167 89 -31.5s48.333 -28.833 67 -46.5s33.667 -36.834 45 -57.501h112l-41 -172h-207v0zM696.999 1477h240v-17l-299 -282h-154z" />
    <glyph glyph-name="Scedilla" unicode="&#x15e;" horiz-adv-x="1278" 
d="M1080 1137c8 35.333 6.50684 66.667 -4.49316 94s-28.5 50.5 -52.5 69.5s-53 33.333 -87 43s-70 14.5 -108 14.5c-55.333 0 -104.833 -7.33301 -148.5 -22s-80.5 -34.667 -110.5 -60s-53 -54.833 -69 -88.5s-24 -69.167 -24 -106.5c0 -33.333 6.33301 -60.333 19 -81
s28.667 -37.667 48 -51s40.833 -24 64.5 -32l68.5 -24l187 -68c48 -16 90 -35 126 -57s66 -47.5 90 -76.5s42 -62 54 -99s18 -78.833 18 -125.5c0 -74 -14.333 -141.667 -43 -203s-68.834 -113.833 -120.501 -157.5s-113.834 -77.5 -186.501 -101.5s-153 -36 -241 -36
c-79.333 0 -146.5 8.5 -201.5 25.5s-100.167 40 -135.5 69s-61.833 62.167 -79.5 99.5s-28.834 76.666 -33.501 117.999h-95l39 159h272l-18 -74c-9.33301 -72 11.667 -125.667 63 -161s125.666 -53 222.999 -53c50 0 96 7 138 21s78.167 33.5 108.5 58.5
s54.166 55 71.499 90s26 73.167 26 114.5c0 32 -5.66699 59.667 -17 83s-26.833 43.5 -46.5 60.5s-42.667 31.667 -69 44s-54.5 23.5 -84.5 33.5l-174 56c-90.667 28.667 -159.334 71.334 -206.001 128.001s-70 129.334 -70 218.001c0 68 13 131.167 39 189.5
s63.833 109 113.5 152s110 76.667 181 101s151.5 36.5 241.5 36.5c56.667 0 108.667 -6.33301 156 -19s89.166 -30.334 125.499 -53.001s67 -50 92 -82s43.167 -67.333 54.5 -106h101l-39 -160h-260zM182.007 -302.999c36.667 0.666992 69.835 7.16602 99.502 19.499
s55.667 28.5 78 48.5s40.666 43.5 54.999 70.5s24.166 55.833 29.499 86.5l150 -45c-12 -48.667 -30.667 -92.167 -56 -130.5s-55.5 -70.666 -90.5 -96.999s-74.167 -46.5 -117.5 -60.5s-89 -21 -137 -21z" />
    <glyph glyph-name="scedilla" unicode="&#x15f;" horiz-adv-x="1012" 
d="M749 748c-0.666992 26 -5.83496 49.002 -15.502 69.002s-23 36.833 -40 50.5s-37 24 -60 31s-47.833 10.5 -74.5 10.5s-52 -3.16699 -76 -9.5s-45 -15.833 -63 -28.5s-32.167 -28 -42.5 -46s-15.5 -38.333 -15.5 -61c0 -26.667 8.5 -48.834 25.5 -66.501
s43.833 -33.834 80.5 -48.501l193 -69c58.667 -21.333 103.334 -54.5 134.001 -99.5s46 -99.5 46 -163.5c0 -57.333 -10.5 -107.666 -31.5 -150.999s-50.167 -79.666 -87.5 -108.999s-81.833 -51.333 -133.5 -66s-108.167 -22 -169.5 -22c-37.333 0 -73 3 -107 9
s-65.5 15.167 -94.5 27.5s-54.333 27.666 -76 45.999s-38.5 39.5 -50.5 63.5h-106l41 172h211c-3.33301 -26 0 -49 10 -69s24.333 -36.833 43 -50.5s40.834 -23.834 66.501 -30.501s52.834 -10 81.501 -10s55.5 3.66699 80.5 11s46.833 18 65.5 32s33.5 31.333 44.5 52
s16.5 44.334 16.5 71.001c0 25.333 -9 48.5 -27 69.5s-46 38.167 -84 51.5l-184 67c-59.333 23.333 -105 57.5 -137 102.5s-48 95.5 -48 151.5c0 49.333 8.66699 94.333 26 135s43 75.667 77 105s76.667 52 128 68s111 24 179 24c39.333 0 75.666 -3.83301 108.999 -11.5
s63 -18.167 89 -31.5s48.333 -28.833 67 -46.5s33.667 -36.834 45 -57.501h112l-41 -172h-207v0zM56.999 -302.998c36.667 0.666992 69.835 7.16602 99.502 19.499s55.667 28.5 78 48.5s40.666 43.5 54.999 70.5s24.166 55.833 29.499 86.5l150 -45
c-12 -48.667 -30.667 -92.167 -56 -130.5s-55.5 -70.666 -90.5 -96.999s-74.167 -46.5 -117.5 -60.5s-89 -21 -137 -21z" />
    <glyph glyph-name="Scaron" unicode="&#x160;" horiz-adv-x="1278" 
d="M1080 1137c8 35.333 6.50684 66.667 -4.49316 94s-28.5 50.5 -52.5 69.5s-53 33.333 -87 43s-70 14.5 -108 14.5c-55.333 0 -104.833 -7.33301 -148.5 -22s-80.5 -34.667 -110.5 -60s-53 -54.833 -69 -88.5s-24 -69.167 -24 -106.5c0 -33.333 6.33301 -60.333 19 -81
s28.667 -37.667 48 -51s40.833 -24 64.5 -32l68.5 -24l187 -68c48 -16 90 -35 126 -57s66 -47.5 90 -76.5s42 -62 54 -99s18 -78.833 18 -125.5c0 -74 -14.333 -141.667 -43 -203s-68.834 -113.833 -120.501 -157.5s-113.834 -77.5 -186.501 -101.5s-153 -36 -241 -36
c-79.333 0 -146.5 8.5 -201.5 25.5s-100.167 40 -135.5 69s-61.833 62.167 -79.5 99.5s-28.834 76.666 -33.501 117.999h-95l39 159h272l-18 -74c-9.33301 -72 11.667 -125.667 63 -161s125.666 -53 222.999 -53c50 0 96 7 138 21s78.167 33.5 108.5 58.5
s54.166 55 71.499 90s26 73.167 26 114.5c0 32 -5.66699 59.667 -17 83s-26.833 43.5 -46.5 60.5s-42.667 31.667 -69 44s-54.5 23.5 -84.5 33.5l-174 56c-90.667 28.667 -159.334 71.334 -206.001 128.001s-70 129.334 -70 218.001c0 68 13 131.167 39 189.5
s63.833 109 113.5 152s110 76.667 181 101s151.5 36.5 241.5 36.5c56.667 0 108.667 -6.33301 156 -19s89.166 -30.334 125.499 -53.001s67 -50 92 -82s43.167 -67.333 54.5 -106h101l-39 -160h-260zM1218.01 1923l-297 -273h-113l-149 273h166l67 -129l129 129h197z" />
    <glyph glyph-name="scaron" unicode="&#x161;" horiz-adv-x="1012" 
d="M749 748c-0.666992 26 -5.83496 49.002 -15.502 69.002s-23 36.833 -40 50.5s-37 24 -60 31s-47.833 10.5 -74.5 10.5s-52 -3.16699 -76 -9.5s-45 -15.833 -63 -28.5s-32.167 -28 -42.5 -46s-15.5 -38.333 -15.5 -61c0 -26.667 8.5 -48.834 25.5 -66.501
s43.833 -33.834 80.5 -48.501l193 -69c58.667 -21.333 103.334 -54.5 134.001 -99.5s46 -99.5 46 -163.5c0 -57.333 -10.5 -107.666 -31.5 -150.999s-50.167 -79.666 -87.5 -108.999s-81.833 -51.333 -133.5 -66s-108.167 -22 -169.5 -22c-37.333 0 -73 3 -107 9
s-65.5 15.167 -94.5 27.5s-54.333 27.666 -76 45.999s-38.5 39.5 -50.5 63.5h-106l41 172h211c-3.33301 -26 0 -49 10 -69s24.333 -36.833 43 -50.5s40.834 -23.834 66.501 -30.501s52.834 -10 81.501 -10s55.5 3.66699 80.5 11s46.833 18 65.5 32s33.5 31.333 44.5 52
s16.5 44.334 16.5 71.001c0 25.333 -9 48.5 -27 69.5s-46 38.167 -84 51.5l-184 67c-59.333 23.333 -105 57.5 -137 102.5s-48 95.5 -48 151.5c0 49.333 8.66699 94.333 26 135s43 75.667 77 105s76.667 52 128 68s111 24 179 24c39.333 0 75.666 -3.83301 108.999 -11.5
s63 -18.167 89 -31.5s48.333 -28.833 67 -46.5s33.667 -36.834 45 -57.501h112l-41 -172h-207v0zM967.999 1444l-297 -273h-113l-149 273h166l67 -129l129 129h197z" />
    <glyph glyph-name="Tcommaaccent" unicode="&#x162;" horiz-adv-x="1362" 
d="M348 172h140l272 1180h-367l-53 -236h-205l92 400h1352l-93 -400h-204l53 236h-368l-270 -1180h142l-39 -172h-491zM418 -41l211 -84l-180 -348l-144 53z" />
    <glyph glyph-name="tcommaaccent" unicode="&#x163;" horiz-adv-x="778" 
d="M186 1036l173.001 0.000976562l61 248l211 86l-79 -334h218l-41 -172h-218l-132 -559c-3.33301 -13.333 -6.5 -26.833 -9.5 -40.5s-4.5 -28.167 -4.5 -43.5c0 -30 8.16699 -51.167 24.5 -63.5s42.166 -18.5 77.499 -18.5c38 0 83.667 11 137 33l17 -143
c-35.333 -16.667 -69.333 -29.834 -102 -39.501s-69 -14.5 -109 -14.5c-42 0 -80.333 5.16699 -115 15.5s-63.334 27.333 -86.001 51s-37.667 54.667 -45 93s-4.66602 85.5 8.00098 141.5l144 588h-171zM303.001 -40.999l211 -84l-180 -348l-144 53z" />
    <glyph glyph-name="Tcaron" unicode="&#x164;" horiz-adv-x="1362" 
d="M348 172h140l272 1180h-367l-53 -236h-205l92 400h1352l-93 -400h-204l53 236h-368l-270 -1180h142l-39 -172h-491zM1258 1923l-297 -273h-113l-149 273h166l67 -129l129 129h197z" />
    <glyph glyph-name="tcaron" unicode="&#x165;" horiz-adv-x="780" 
d="M186 1036l173.001 0.000976562l61 248l211 86l-79 -334h218l-41 -172h-218l-132 -559c-3.33301 -13.333 -6.5 -26.833 -9.5 -40.5s-4.5 -28.167 -4.5 -43.5c0 -30 8.16699 -51.167 24.5 -63.5s42.166 -18.5 77.499 -18.5c38 0 83.667 11 137 33l17 -143
c-35.333 -16.667 -69.333 -29.834 -102 -39.501s-69 -14.5 -109 -14.5c-42 0 -80.333 5.16699 -115 15.5s-63.334 27.333 -86.001 51s-37.667 54.667 -45 93s-4.66602 85.5 8.00098 141.5l144 588h-171zM832.001 1059h-125l71 510l183 12z" />
    <glyph glyph-name="Umacron" unicode="&#x16a;" horiz-adv-x="1581" 
d="M282 1516l492.001 -0.00292969l-39 -173h-140l-161 -704c-5.33301 -23.333 -10.166 -48.166 -14.499 -74.499s-6.5 -56.166 -6.5 -89.499c-0.666992 -36.667 5 -72.834 17 -108.501s30.667 -67.667 56 -96s57.666 -51.166 96.999 -68.499s86.333 -26 141 -26
c55.333 0 106.5 7.83301 153.5 23.5s89.5 41.667 127.5 78s71.5 84 100.5 143s53.5 131.833 73.5 218.5l162 704h-152l39 173h492l-39 -173h-133l-166 -722c-26 -114 -60.5 -211.833 -103.5 -293.5s-93.167 -148.667 -150.5 -201s-121.333 -90.666 -192 -114.999
s-147.334 -36.5 -230.001 -36.5c-72.667 0 -140.167 10.833 -202.5 32.5s-116 53 -161 94s-80 91.167 -105 150.5s-36.833 127 -35.5 203c0 30 2 59.833 6 89.5s9.66699 61.167 17 94.5l162 704h-144zM1395 1709h-743l26 117h744z" />
    <glyph glyph-name="umacron" unicode="&#x16b;" horiz-adv-x="1290" 
d="M843 1036l335.997 0.00390625l-200 -864h155l-39 -172h-348l24 105c-21.333 -22 -44.333 -40.833 -69 -56.5s-49.834 -28.334 -75.501 -38.001s-51 -16.834 -76 -21.501s-48.167 -7 -69.5 -7c-45.333 0 -88.166 6.5 -128.499 19.5s-74.166 32.167 -101.499 57.5
c-16.667 16.667 -32.167 36.167 -46.5 58.5s-25.5 49.166 -33.5 80.499s-11.667 67.666 -11 108.999s7.33398 89.333 20.001 144l95 413h-140l41 172h340l-123 -526c-29.333 -124 -30.5 -215 -3.5 -273s84.167 -87 171.5 -87c38.667 0 72.834 6.5 102.501 19.5
s56.667 31.167 81 54.5s44.833 48 61.5 74l132 566h-136zM1079 1229h-743l26 117h744z" />
    <glyph glyph-name="Uring" unicode="&#x16e;" horiz-adv-x="1581" 
d="M282 1516l492.001 -0.00292969l-39 -173h-140l-161 -704c-5.33301 -23.333 -10.166 -48.166 -14.499 -74.499s-6.5 -56.166 -6.5 -89.499c-0.666992 -36.667 5 -72.834 17 -108.501s30.667 -67.667 56 -96s57.666 -51.166 96.999 -68.499s86.333 -26 141 -26
c55.333 0 106.5 7.83301 153.5 23.5s89.5 41.667 127.5 78s71.5 84 100.5 143s53.5 131.833 73.5 218.5l162 704h-152l39 173h492l-39 -173h-133l-166 -722c-26 -114 -60.5 -211.833 -103.5 -293.5s-93.167 -148.667 -150.5 -201s-121.333 -90.666 -192 -114.999
s-147.334 -36.5 -230.001 -36.5c-72.667 0 -140.167 10.833 -202.5 32.5s-116 53 -161 94s-80 91.167 -105 150.5s-36.833 127 -35.5 203c0 30 2 59.833 6 89.5s9.66699 61.167 17 94.5l162 704h-144zM992.001 1822c0 -14 2.83301 -27.167 8.5 -39.5
s13.334 -23.333 23.001 -33s20.667 -17.334 33 -23.001s25.5 -8.5 39.5 -8.5s27.333 2.83301 40 8.5s23.834 13.334 33.501 23.001s17.334 20.667 23.001 33s8.5 25.5 8.5 39.5s-2.83301 27.333 -8.5 40s-13.334 23.834 -23.001 33.501s-20.834 17.334 -33.501 23.001
s-26 8.5 -40 8.5s-27.167 -2.83301 -39.5 -8.5s-23.333 -13.334 -33 -23.001s-17.334 -20.834 -23.001 -33.501s-8.5 -26 -8.5 -40zM1096 2078c34.667 0 67.667 -6.83301 99 -20.5s58.5 -32 81.5 -55s41.333 -50.167 55 -81.5s20.5 -64.333 20.5 -99
s-6.83301 -67.5 -20.5 -98.5s-32 -58.167 -55 -81.5s-50.167 -41.833 -81.5 -55.5s-64.333 -20.5 -99 -20.5s-67.5 6.83301 -98.5 20.5s-58.167 32.167 -81.5 55.5s-41.833 50.5 -55.5 81.5s-20.5 63.833 -20.5 98.5s6.83301 67.667 20.5 99s32.167 58.5 55.5 81.5
s50.5 41.333 81.5 55s63.833 20.5 98.5 20.5z" />
    <glyph glyph-name="uring" unicode="&#x16f;" horiz-adv-x="1290" 
d="M843 1036l335.997 0.00390625l-200 -864h155l-39 -172h-348l24 105c-21.333 -22 -44.333 -40.833 -69 -56.5s-49.834 -28.334 -75.501 -38.001s-51 -16.834 -76 -21.501s-48.167 -7 -69.5 -7c-45.333 0 -88.166 6.5 -128.499 19.5s-74.166 32.167 -101.499 57.5
c-16.667 16.667 -32.167 36.167 -46.5 58.5s-25.5 49.166 -33.5 80.499s-11.667 67.666 -11 108.999s7.33398 89.333 20.001 144l95 413h-140l41 172h340l-123 -526c-29.333 -124 -30.5 -215 -3.5 -273s84.167 -87 171.5 -87c38.667 0 72.834 6.5 102.501 19.5
s56.667 31.167 81 54.5s44.833 48 61.5 74l132 566h-136zM675.997 1342c0 -14 2.83301 -27.167 8.5 -39.5s13.334 -23.333 23.001 -33s20.667 -17.334 33 -23.001s25.5 -8.5 39.5 -8.5s27.333 2.83301 40 8.5s23.834 13.334 33.501 23.001s17.334 20.667 23.001 33
s8.5 25.5 8.5 39.5s-2.83301 27.333 -8.5 40s-13.334 23.834 -23.001 33.501s-20.834 17.334 -33.501 23.001s-26 8.5 -40 8.5s-27.167 -2.83301 -39.5 -8.5s-23.333 -13.334 -33 -23.001s-17.334 -20.834 -23.001 -33.501s-8.5 -26 -8.5 -40zM779.997 1598
c34.667 0 67.667 -6.83301 99 -20.5s58.5 -32 81.5 -55s41.333 -50.167 55 -81.5s20.5 -64.333 20.5 -99s-6.83301 -67.5 -20.5 -98.5s-32 -58.167 -55 -81.5s-50.167 -41.833 -81.5 -55.5s-64.333 -20.5 -99 -20.5s-67.5 6.83301 -98.5 20.5s-58.167 32.167 -81.5 55.5
s-41.833 50.5 -55.5 81.5s-20.5 63.833 -20.5 98.5s6.83301 67.667 20.5 99s32.167 58.5 55.5 81.5s50.5 41.333 81.5 55s63.833 20.5 98.5 20.5z" />
    <glyph glyph-name="Uhungarumlaut" unicode="&#x170;" horiz-adv-x="1581" 
d="M282 1516l492.001 -0.00292969l-39 -173h-140l-161 -704c-5.33301 -23.333 -10.166 -48.166 -14.499 -74.499s-6.5 -56.166 -6.5 -89.499c-0.666992 -36.667 5 -72.834 17 -108.501s30.667 -67.667 56 -96s57.666 -51.166 96.999 -68.499s86.333 -26 141 -26
c55.333 0 106.5 7.83301 153.5 23.5s89.5 41.667 127.5 78s71.5 84 100.5 143s53.5 131.833 73.5 218.5l162 704h-152l39 173h492l-39 -173h-133l-166 -722c-26 -114 -60.5 -211.833 -103.5 -293.5s-93.167 -148.667 -150.5 -201s-121.333 -90.666 -192 -114.999
s-147.334 -36.5 -230.001 -36.5c-72.667 0 -140.167 10.833 -202.5 32.5s-116 53 -161 94s-80 91.167 -105 150.5s-36.833 127 -35.5 203c0 30 2 59.833 6 89.5s9.66699 61.167 17 94.5l162 704h-144zM1468 1994l-243 -321h-140l201 321h182zM1183 1994l-243 -321h-138
l198 321h183z" />
    <glyph glyph-name="uhungarumlaut" unicode="&#x171;" horiz-adv-x="1290" 
d="M843 1036l335.997 0.00390625l-200 -864h155l-39 -172h-348l24 105c-21.333 -22 -44.333 -40.833 -69 -56.5s-49.834 -28.334 -75.501 -38.001s-51 -16.834 -76 -21.501s-48.167 -7 -69.5 -7c-45.333 0 -88.166 6.5 -128.499 19.5s-74.166 32.167 -101.499 57.5
c-16.667 16.667 -32.167 36.167 -46.5 58.5s-25.5 49.166 -33.5 80.499s-11.667 67.666 -11 108.999s7.33398 89.333 20.001 144l95 413h-140l41 172h340l-123 -526c-29.333 -124 -30.5 -215 -3.5 -273s84.167 -87 171.5 -87c38.667 0 72.834 6.5 102.501 19.5
s56.667 31.167 81 54.5s44.833 48 61.5 74l132 566h-136zM1152 1514l-243 -321h-140l201 321h182zM866.997 1514l-243 -321h-138l198 321h183z" />
    <glyph glyph-name="Uogonek" unicode="&#x172;" horiz-adv-x="1579" 
d="M1229 1516l491 0.00292969l-39 -173h-133l-166 -722c-18.667 -83.333 -42 -157.833 -70 -223.5s-60.167 -123 -96.5 -172s-76 -90.333 -119 -124s-89.167 -59.834 -138.5 -78.501c-47.333 -19.333 -90.166 -38.166 -128.499 -56.499s-71.166 -37.833 -98.499 -58.5
s-48.5 -41.834 -63.5 -63.501s-22.5 -44.834 -22.5 -69.501c0 -27.333 10.333 -50.666 31 -69.999s48 -29 82 -29c26 0 50.5 2.16699 73.5 6.5s41.5 9.83301 55.5 16.5l43 -127c-18 -10.667 -42.667 -20.5 -74 -29.5s-66 -13.5 -104 -13.5c-41.333 0 -79 4.83301 -113 14.5
s-63.333 23.334 -88 41.001s-44.167 39.5 -58.5 65.5s-21.5 56 -21.5 90c0 50.667 14.667 96.167 44 136.5s64.666 75.5 105.999 105.5c-62 8 -118.833 24.333 -170.5 49s-96.334 57 -134.001 97s-66.334 87.333 -86.001 142s-28.834 116.334 -27.501 185.001
c0 30 2 60 6 90s9.33301 61.333 16 94l162 704h-143l39 173h491l-39 -173h-139l-162 -704c-5.33301 -23.333 -10 -48.333 -14 -75s-6 -56.334 -6 -89.001c0 -36.667 5.83301 -72.834 17.5 -108.501s30 -67.834 55 -96.501s57.333 -51.5 97 -68.5s86.834 -25.5 141.501 -25.5
s105.5 7.83301 152.5 23.5s89.667 41.667 128 78s71.833 84.166 100.5 143.499s53.334 132 74.001 218l161 704h-151z" />
    <glyph glyph-name="uogonek" unicode="&#x173;" horiz-adv-x="1288" 
d="M979 172l156.001 -0.00292969l-39 -172h-49c-41.333 -1.33301 -79.333 -8.83301 -114 -22.5s-64.334 -31.5 -89.001 -53.5s-44.167 -45.833 -58.5 -71.5s-21.5 -51.5 -21.5 -77.5c0 -27.333 10.167 -50.666 30.5 -69.999s47.833 -29 82.5 -29
c25.333 0 49.666 2.16699 72.999 6.5s42 9.83301 56 16.5l43 -127c-18 -10.667 -42.667 -20.5 -74 -29.5s-66.333 -13.5 -105 -13.5c-40.667 0 -78 4.83301 -112 14.5s-63.333 23.334 -88 41.001s-44.167 39.5 -58.5 65.5s-21.5 56 -21.5 90c0 58.667 15.333 109.5 46 152.5
s68 78.833 112 107.5l22 104c-40.667 -43.333 -88 -74.5 -142 -93.5s-103 -28.5 -147 -28.5c-44.667 0 -87.167 6.33301 -127.5 19s-74.166 32 -101.499 58c-16.667 16.667 -32.167 36.334 -46.5 59.001s-25.5 49.667 -33.5 81s-11.667 67.5 -11 108.5s7 88.833 19 143.5
l94 413h-139l41 172h340l-123 -526c-28.667 -124 -29.667 -215 -3 -273s83.667 -87 171 -87c40 0 82.5 11.5 127.5 34.5s84.5 60.5 118.5 112.5l131 567h-135l41 172h336z" />
    <glyph glyph-name="Ydieresis" unicode="&#x178;" horiz-adv-x="1323" 
d="M214 1516h491l-39 -173h-122l175 -473l411 473h-122l39 173h492l-39 -173h-123l-586 -656l-120 -515h141l-39 -172h-492l39 172h141l120 519l-259 652h-147zM554 1840c0 17.333 3.5 33.833 10.5 49.5s16.333 29.334 28 41.001s25.334 21 41.001 28s32.167 10.5 49.5 10.5
c16.667 0 32.667 -3.5 48 -10.5s28.666 -16.333 39.999 -28s20.333 -25.334 27 -41.001s10 -32.167 10 -49.5c0 -18 -3.33301 -35 -10 -51s-15.667 -30.167 -27 -42.5s-24.666 -22 -39.999 -29s-31.333 -10.5 -48 -10.5c-17.333 0 -33.833 3.5 -49.5 10.5
s-29.334 16.667 -41.001 29s-21 26.5 -28 42.5s-10.5 33 -10.5 51zM1013 1840c0 17.333 3.5 33.833 10.5 49.5s16.333 29.334 28 41.001s25.334 21 41.001 28s32.167 10.5 49.5 10.5c16.667 0 32.5 -3.5 47.5 -10.5s28.333 -16.333 40 -28s20.834 -25.334 27.501 -41.001
s10 -32.167 10 -49.5c0 -18 -3.33301 -35 -10 -51s-15.834 -30.167 -27.501 -42.5s-25 -22 -40 -29s-30.833 -10.5 -47.5 -10.5c-17.333 0 -33.833 3.5 -49.5 10.5s-29.334 16.667 -41.001 29s-21 26.5 -28 42.5s-10.5 33 -10.5 51z" />
    <glyph glyph-name="Zacute" unicode="&#x179;" horiz-adv-x="1298" 
d="M1390 1298l-1152 -1120h681l57 252h207l-98 -430h-1110l51 231l1135 1108h-660l-59 -258h-207l100 435h1102zM972 1956h240v-17l-299 -282h-154z" />
    <glyph glyph-name="zacute" unicode="&#x17a;" horiz-adv-x="995" 
d="M10 117l718 760h-337l-35 -148h-197l72 307h790l-26 -121l-714 -755h366l41 178h196l-78 -338h-821zM697 1477h240v-17l-299 -282h-154z" />
    <glyph glyph-name="Zdotaccent" unicode="&#x17b;" horiz-adv-x="1298" 
d="M1390 1298l-1152 -1120h681l57 252h207l-98 -430h-1110l51 231l1135 1108h-660l-59 -258h-207l100 435h1102zM809 -1121c0 17.333 3.5 33.833 10.5 49.5s16.333 29.334 28 41.001s25.5 21 41.5 28s33 10.5 51 10.5c17.333 0 33.833 -3.5 49.5 -10.5
s29.334 -16.333 41.001 -28s21 -25.334 28 -41.001s10.5 -32.167 10.5 -49.5c0 -18 -3.5 -35 -10.5 -51s-16.333 -30.167 -28 -42.5s-25.334 -22 -41.001 -29s-32.167 -10.5 -49.5 -10.5c-18 0 -35 3.5 -51 10.5s-29.833 16.667 -41.5 29s-21 26.5 -28 42.5
s-10.5 33 -10.5 51z" />
    <glyph glyph-name="zdotaccent" unicode="&#x17c;" horiz-adv-x="995" 
d="M10 117l718 760h-337l-35 -148h-197l72 307h790l-26 -121l-714 -755h366l41 178h196l-78 -338h-821zM477 -1600c0 17.333 3.5 33.833 10.5 49.5s16.333 29.334 28 41.001s25.5 21 41.5 28s33 10.5 51 10.5c17.333 0 33.833 -3.5 49.5 -10.5s29.334 -16.333 41.001 -28
s21 -25.334 28 -41.001s10.5 -32.167 10.5 -49.5c0 -18 -3.5 -35 -10.5 -51s-16.333 -30.167 -28 -42.5s-25.334 -22 -41.001 -29s-32.167 -10.5 -49.5 -10.5c-18 0 -35 3.5 -51 10.5s-29.833 16.667 -41.5 29s-21 26.5 -28 42.5s-10.5 33 -10.5 51z" />
    <glyph glyph-name="Zcaron" unicode="&#x17d;" horiz-adv-x="1298" 
d="M1390 1298l-1152 -1120h681l57 252h207l-98 -430h-1110l51 231l1135 1108h-660l-59 -258h-207l100 435h1102zM1287 1923l-297 -273h-113l-149 273h166l67 -129l129 129h197z" />
    <glyph glyph-name="zcaron" unicode="&#x17e;" horiz-adv-x="995" 
d="M10 117l718 760h-337l-35 -148h-197l72 307h790l-26 -121l-714 -755h366l41 178h196l-78 -338h-821zM1019 1444l-297 -273h-113l-149 273h166l67 -129l129 129h197z" />
    <glyph glyph-name="florin" unicode="&#x192;" horiz-adv-x="729" 
d="M281 1036l199.997 0.000976562l37 162c14 60 34.167 112.5 60.5 157.5s57.666 82.167 93.999 111.5s77 51.5 122 66.5s92.833 22.5 143.5 22.5c70.667 0 125.834 -6 165.501 -18s71.167 -25 94.5 -39l-88 -133c-19.333 10.667 -45 20.167 -77 28.5
s-66.333 12.5 -103 12.5c-56 0 -103.833 -17 -143.5 -51s-66.834 -84.667 -81.501 -152l-39 -168h239l-35 -151h-239l-232 -998c-13.333 -60 -33.333 -112.5 -60 -157.5s-57.667 -82.167 -93 -111.5s-75.666 -51.5 -120.999 -66.5s-93 -22.5 -143 -22.5
c-71.333 0 -127.166 6.16699 -167.499 18.5s-72.166 25.166 -95.499 38.499l88 133c19.333 -10.667 45.333 -20.167 78 -28.5s67.667 -12.5 105 -12.5c56 0 103.833 17.167 143.5 51.5s66.834 84.833 81.501 151.5l231 1004h-200z" />
    <glyph glyph-name="Scommaaccent" unicode="&#x218;" horiz-adv-x="1278" 
d="M1080 1137c8 35.333 6.50684 66.667 -4.49316 94s-28.5 50.5 -52.5 69.5s-53 33.333 -87 43s-70 14.5 -108 14.5c-55.333 0 -104.833 -7.33301 -148.5 -22s-80.5 -34.667 -110.5 -60s-53 -54.833 -69 -88.5s-24 -69.167 -24 -106.5c0 -33.333 6.33301 -60.333 19 -81
s28.667 -37.667 48 -51s40.833 -24 64.5 -32l68.5 -24l187 -68c48 -16 90 -35 126 -57s66 -47.5 90 -76.5s42 -62 54 -99s18 -78.833 18 -125.5c0 -74 -14.333 -141.667 -43 -203s-68.834 -113.833 -120.501 -157.5s-113.834 -77.5 -186.501 -101.5s-153 -36 -241 -36
c-79.333 0 -146.5 8.5 -201.5 25.5s-100.167 40 -135.5 69s-61.833 62.167 -79.5 99.5s-28.834 76.666 -33.501 117.999h-95l39 159h272l-18 -74c-9.33301 -72 11.667 -125.667 63 -161s125.666 -53 222.999 -53c50 0 96 7 138 21s78.167 33.5 108.5 58.5
s54.166 55 71.499 90s26 73.167 26 114.5c0 32 -5.66699 59.667 -17 83s-26.833 43.5 -46.5 60.5s-42.667 31.667 -69 44s-54.5 23.5 -84.5 33.5l-174 56c-90.667 28.667 -159.334 71.334 -206.001 128.001s-70 129.334 -70 218.001c0 68 13 131.167 39 189.5
s63.833 109 113.5 152s110 76.667 181 101s151.5 36.5 241.5 36.5c56.667 0 108.667 -6.33301 156 -19s89.166 -30.334 125.499 -53.001s67 -50 92 -82s43.167 -67.333 54.5 -106h101l-39 -160h-260zM433.007 -40.999l211 -84l-180 -348l-144 53z" />
    </font>
</defs>
</svg>
